<?xml  version="1.0" encoding="UTF-8"?>
<!DOCTYPE svg PUBLIC "-//W3C//DTD SVG 1.0//EN" "http://www.w3.org/TR/2001/REC-SVG-20010904/DTD/svg10.dtd" >
<svg xmlns="http://www.w3.org/2000/svg" >
<metadata>
<version>1.0</version>
<id><![CDATA[Audi Type Italic]]></id>
<vendor>Monotype Imaging Inc.</vendor>
<credits>
<name>Fonts.com WebFonts</name>
<URL>http://webfonts.fonts.com</URL>
<role>Home of the Web fonts</role>
</credits>
<license>
<URL>http://webfonts.fonts.com/Legal</URL>
</license>
<copyright><![CDATA[Designed by Paul van der Laan & Pieter van Rosmalen 2008. Produced by Bold Monday. For exclusive use by AUDI AG and its affiliates only.]]></copyright>
<trademark><![CDATA[Audi Type is a trademark of AUDI AG]]></trademark>
<licensee>
<name></name>
</licensee>
</metadata>
<defs >
<font horiz-adv-x="601" id="725d8b40-1378-4aca-951a-1da4bd465663">
<font-face font-family="" panose-1="2 11 5 3 4 2 0 0 0 3" ascent="760" descent="-240" units-per-em="1000" alphabetic="0">
</font-face>
<missing-glyph horiz-adv-x="245" d="M145 710H294L99 -210H-49L145 710Z"  />

<glyph unicode="&#xA;" />
<glyph unicode="&#xD;" />
<glyph unicode=" " horiz-adv-x="248" />
<glyph unicode="!" horiz-adv-x="331" d="M142 304Q144 322 147 349T155 407T164 469T175 527L216 724H312L271 527Q265 501 257 470T239 407T222 349T208 304L176 199H130L142 304ZM78 109H189L166 0H55L78 109Z"  />
<glyph unicode="&quot;" horiz-adv-x="411" d="M145 519Q145 526 145 537T145 560T146 585T149 609L173 724H267L243 609Q241 598 237 586T227 561T217 537T209 519L190 477H146L145 519ZM312 519Q312 526 312 537T312 560T313 585T316 609L340 724H434L410 609Q408 598 404 586T394 561T384 537T376 519L357 477H313L312 519Z"  />
<glyph unicode="#" horiz-adv-x="634" d="M135 530H255L296 663H372L331 530H451L492 663H568L527 530H613L599 462H506L449 278H560L545 210H428L377 45H301L352 210H232L181 45H105L156 210H67L82 278H177L234 462H121L135 530ZM253 278H373L430 462H310L253 278Z"  />
<glyph unicode="$" horiz-adv-x="634" d="M211 23Q160 27 115 39T48 65L64 140Q79 132 101 125T151 111T206 101T261 97Q291 97 324 102T385 122T432 162T451 227Q451 249 441 264T411 290T367 310T314 329Q274 342 243 358T189 394T156 439T144 498Q144 549 161 586T210 648T283 688T374 705L393 792H473L454 703Q499 698 539 687T600 660L584 586Q569 595 549 603T504 617T454 627T401 631Q374 631 345 625T293 604T254 565T239 506Q239 484 249 469T278 443T321 422T375 403Q415 389 446 374T500 339T534 294T546 235Q546 182 525 144T469 80T387 40T291 22L274 -58H194L211 23Z"  />
<glyph unicode="%" horiz-adv-x="942" d="M268 369Q232 369 205 380T159 411T131 457T121 513Q121 557 135 598T177 672T243 724T334 744Q370 744 397 733T443 701T471 655T481 599Q481 555 467 514T425 440T358 389T268 369ZM274 431Q305 431 328 446T367 484T390 537T398 595Q398 631 381 656T327 682Q295 682 272 667T234 629T211 576T203 518Q203 482 220 457T274 431ZM654 -8Q618 -8 591 3T545 34T517 80T507 136Q507 180 521 221T563 295T629 347T720 367Q756 367 783 356T829 324T857 278T867 222Q867 178 853 137T811 63T744 12T654 -8ZM660 54Q691 54 714 69T753 107T776 160T784 218Q784 254 767 279T713 305Q681 305 658 290T620 252T597 199T589 141Q589 105 606 80T660 54ZM745 724H834L234 0H144L745 724Z"  />
<glyph unicode="&amp;" horiz-adv-x="778" d="M291 -12Q226 -12 179 3T101 44T56 103T41 173Q41 216 55 250T93 310T149 356T217 387Q180 409 161 443T142 517Q142 576 162 617T218 685T300 724T399 736Q426 736 454 732T507 722T553 708T586 692L569 615Q544 631 496 643T393 656Q323 656 280 622T237 520Q237 473 268 444T363 414H755L738 337H622L562 56Q510 24 442 6T291 -12ZM297 64Q348 64 393 72T480 101L530 337H348Q309 337 272 328T204 299T156 250T138 181Q138 158 146 137T173 99T222 74T297 64Z"  />
<glyph unicode="&apos;" horiz-adv-x="244" d="M145 519Q145 526 145 537T145 560T146 585T149 609L173 724H267L243 609Q241 598 237 586T227 561T217 537T209 519L190 477H146L145 519Z"  />
<glyph unicode="(" horiz-adv-x="375" d="M219 -92Q192 -70 169 -32T128 53T101 150T91 247Q91 321 114 398T177 544T274 670T396 758H466Q405 717 354 659T265 532T206 390T185 244Q185 194 192 145T211 51T242 -30T285 -92H219H219Z"  />
<glyph unicode=")" horiz-adv-x="375" d="M-62 -92Q-1 -51 50 7T139 134T198 276T219 422Q219 472 212 521T193 615T162 696T119 758H185Q212 735 235 697T276 613T303 516T313 419Q313 345 290 268T227 122T130 -4T8 -92H-62H-62Z"  />
<glyph unicode="*" horiz-adv-x="458" d="M133 433L177 488Q188 502 202 516T232 542Q215 537 195 535T157 533H98L114 599H173Q188 599 206 598T242 593Q229 618 219 644L197 706L259 738L286 664Q290 654 293 643T299 620Q306 637 316 655T338 687L379 738L437 700L392 645Q381 631 367 616T336 589Q354 594 375 596T413 599H472L456 533H397Q381 533 363 534T327 539Q335 526 340 513T350 488L373 426L311 394L284 468Q280 478 277 489T270 512Q263 495 253 478T231 446L191 395L133 433Z"  />
<glyph unicode="+" horiz-adv-x="588" d="M63 334H270L315 547H395L350 334H555L540 262H334L288 45H208L254 262H48L63 334Z"  />
<glyph unicode="&#x2c;" horiz-adv-x="319" d="M79 0L73 111H147Q168 111 180 100T193 70Q194 44 182 19T150 -31T106 -79T60 -122L34 -146H-34L79 0Z"  />
<glyph unicode="-" horiz-adv-x="364" d="M74 345H328L309 255H55L74 345Z"  />
<glyph unicode="." horiz-adv-x="319" d="M72 109H183L160 0H49L72 109Z"  />
<glyph unicode="/" horiz-adv-x="458" d="M451 758H540L58 0H-32L451 758Z"  />
<glyph unicode="0" horiz-adv-x="634" d="M267 -12Q212 -12 173 6T109 57T73 133T61 224Q61 275 68 333T92 448T136 557T201 649T291 712T410 736Q465 736 504 718T568 669T604 595T616 504Q616 453 609 395T585 279T541 169T476 76T385 12T267 -12ZM276 65Q320 65 355 86T418 143T464 224T495 317T513 411T519 494Q519 529 513 559T492 611T456 645T401 658Q357 658 322 637T259 581T213 501T182 409T164 317T158 234Q158 199 164 169T185 115T221 79T276 65Z"  />
<glyph unicode="1" horiz-adv-x="634" d="M92 76H244L364 637L204 606L220 682L418 724H474L336 76H491L475 0H76L92 76Z"  />
<glyph unicode="2" horiz-adv-x="634" d="M29 70L230 247Q272 284 316 322T397 400T457 478T480 558Q480 603 450 629T355 655Q297 655 248 644T157 612L174 693Q209 713 257 724T365 736Q419 736 458 724T524 689T562 636T575 571Q575 514 548 463T478 366T385 277T288 194L152 76H505L489 0H15L29 70Z"  />
<glyph unicode="3" horiz-adv-x="634" d="M237 -12Q171 -12 115 1T28 34L45 107Q78 91 131 79T243 67Q278 67 310 76T368 103T409 151T425 221Q425 270 388 303T274 337H209L225 414H290Q324 414 357 422T416 448T458 494T475 561Q475 603 443 629T355 656Q301 656 254 645T171 615L188 696Q220 714 265 725T365 736Q413 736 451 724T516 690T557 639T571 575Q571 501 529 452T421 375Q471 352 496 314T521 229Q521 170 500 125T440 50T350 4T237 -12Z"  />
<glyph unicode="4" horiz-adv-x="634" d="M364 161H1L16 235L486 724H575L472 237H593L577 161H456L422 0H330L364 161ZM112 233Q129 235 147 236T182 237H380L440 520Q443 534 447 552T458 591L404 532L167 285Q155 272 141 258T112 233Z"  />
<glyph unicode="5" horiz-adv-x="634" d="M254 -12Q189 -12 134 -1T44 31L61 107Q93 91 146 79T256 67Q292 67 326 76T385 104T426 152T442 223Q442 253 426 275T384 312T326 337T260 352T195 360T140 363L228 724H609L593 646H301L249 437Q294 432 345 420T438 385T509 324T538 231Q538 171 517 126T459 50T369 4T254 -12Z"  />
<glyph unicode="6" horiz-adv-x="634" d="M299 -12Q247 -12 205 4T132 52T86 128T70 230Q70 286 80 345T110 461T163 567T239 654T341 714T470 736Q518 736 563 727T633 705L616 628Q586 641 546 649T464 657Q410 657 365 636T286 580T226 497T186 397Q257 459 366 459Q418 459 457 443T524 401T564 339T578 265Q578 206 558 155T502 67T414 9T299 -12ZM345 382Q252 382 170 324Q164 280 164 239Q164 150 203 107T305 64Q344 64 376 78T432 118T469 179T482 257Q482 309 449 345T345 382Z"  />
<glyph unicode="7" horiz-adv-x="634" d="M535 646H160L176 724H652L636 646L185 0H81L535 646Z"  />
<glyph unicode="8" horiz-adv-x="634" d="M274 -12Q216 -12 173 2T100 39T56 94T41 161Q41 249 90 304T219 385Q181 407 163 442T144 520Q144 577 163 617T216 684T299 723T404 736Q452 736 491 725T557 692T600 642T615 579Q615 504 574 453T467 372Q518 351 541 313T565 228Q565 166 543 121T482 47T390 3T274 -12ZM280 65Q316 65 350 74T410 102T453 150T469 220Q469 242 461 263T435 300T392 327T330 337Q294 337 260 327T199 297T156 246T140 175Q140 153 148 133T174 98T218 74T280 65ZM354 414Q387 414 416 424T468 453T504 500T517 563Q517 605 485 632T398 660Q366 660 337 652T286 625T251 581T238 518Q238 476 267 445T354 414Z"  />
<glyph unicode="9" horiz-adv-x="634" d="M206 -12Q158 -12 113 -3T43 19L60 96Q90 83 130 75T212 67Q269 67 315 90T396 151T455 239T494 345Q459 313 413 296T310 279Q258 279 219 294T152 335T112 395T98 466Q98 524 118 573T174 659T262 715T377 736Q429 736 471 720T544 672T590 596T606 494Q606 438 596 379T566 263T513 157T437 70T335 10T206 -12ZM331 356Q425 356 508 415Q510 433 511 450T512 485Q512 574 473 617T371 660Q332 660 300 646T244 608T207 549T194 474Q194 450 202 429T227 391T270 366T331 356Z"  />
<glyph unicode=":" horiz-adv-x="319" d="M151 513H262L239 404H128L151 513ZM72 109H183L160 0H49L72 109Z"  />
<glyph unicode=";" horiz-adv-x="319" d="M151 513H262L239 404H128L151 513ZM79 0L73 111H147Q168 111 180 100T193 70Q194 44 182 19T150 -31T106 -79T60 -122L34 -146H-34L79 0Z"  />
<glyph unicode="&lt;" horiz-adv-x="588" d="M80 296L453 547H586L203 289L462 45H346L80 296Z"  />
<glyph unicode="=" horiz-adv-x="588" d="M54 234H522L507 162H39L54 234ZM97 434H565L549 362H81L97 434Z"  />
<glyph unicode="&gt;" horiz-adv-x="588" d="M399 303L140 547H256L522 296L149 45H16L399 303Z"  />
<glyph unicode="?" horiz-adv-x="512" d="M173 311L265 385Q297 411 325 435T373 484T406 530T418 575Q418 613 392 634T315 655Q264 655 221 644T136 613L153 693Q191 713 232 724T333 736Q368 736 401 727T459 700T500 655T516 592Q516 553 500 518T457 452T398 393T331 338L248 273L227 199H158L173 311ZM116 109H227L204 0H93L116 109Z"  />
<glyph unicode="@" horiz-adv-x="1012" d="M420 -204Q325 -204 255 -172T138 -87T68 37T45 184Q45 296 82 396T188 571T355 691T577 736Q673 736 747 709T872 633T949 521T976 385Q976 349 969 309T947 229T909 153T853 88T778 44T684 27Q646 27 615 42T573 89Q548 56 513 41T432 26Q398 26 370 38T320 75T287 132T275 208Q275 263 292 317T342 414T423 484T536 511Q571 511 601 502T655 474L671 500H736L656 128Q652 111 664 100T700 89Q736 89 764 103T813 142T849 197T873 260T887 322T892 377Q892 438 871 491T810 583T710 644T573 667Q471 667 390 630T253 529T166 377T135 190Q135 125 152 66T206 -38T298 -109T430 -136Q477 -136 515 -128T590 -105L575 -174Q540 -188 503 -196T420 -204ZM456 95Q501 95 528 110T579 151L636 420Q619 429 596 435T540 441Q495 441 462 422T406 371T372 299T360 216Q360 156 386 126T456 95Z"  />
<glyph unicode="A" horiz-adv-x="652" d="M374 724H472L578 0H485L462 185H163L62 0H-36L374 724ZM206 264H452L416 554Q413 575 411 598T411 647Q401 621 389 598T365 554L206 264Z"  />
<glyph unicode="B" horiz-adv-x="635" d="M199 724H397Q448 724 487 712T551 679T590 629T603 566Q603 492 567 444T465 371Q514 352 540 315T567 227Q567 168 544 125T480 54T387 13T275 0H46L199 724ZM208 332L154 76H280Q316 76 350 84T411 112T454 160T471 231Q471 274 442 303T345 332H208ZM275 648L223 404H334Q369 404 400 412T455 439T493 486T507 553Q506 594 474 621T372 648H275Z"  />
<glyph unicode="C" horiz-adv-x="599" d="M332 -12Q274 -12 226 7T142 63T88 149T68 262Q68 346 90 431T158 583T277 693T450 736Q476 736 502 734T552 726T596 713T629 696L612 616Q584 633 539 643T442 654Q368 654 315 618T229 526T180 402T164 268Q164 170 212 119T346 68Q391 68 434 77T519 104L503 25Q468 8 427 -2T332 -12Z"  />
<glyph unicode="D" horiz-adv-x="700" d="M199 724H417Q486 724 534 702T613 644T657 560T671 460Q671 372 648 290T575 143T448 39T265 0H46L199 724ZM275 650L153 74H269Q344 74 401 103T496 184T554 304T574 454Q574 496 564 532T531 594T475 635T392 650H275Z"  />
<glyph unicode="E" horiz-adv-x="594" d="M199 724H634L618 648H275L224 408H517L501 332H208L154 76H497L481 0H46L199 724Z"  />
<glyph unicode="F" horiz-adv-x="548" d="M199 724H608L592 648H275L221 392H519L503 316H205L138 0H46L199 724Z"  />
<glyph unicode="G" horiz-adv-x="693" d="M346 -12Q281 -12 230 7T143 63T88 149T69 262Q69 352 94 437T172 589T303 696T489 736Q545 736 596 726T674 696L657 616Q629 633 583 643T481 654Q400 654 341 622T242 537T184 414T165 270Q165 170 215 119T356 67Q430 67 498 87L553 346H645L579 34Q528 11 473 0T346 -12Z"  />
<glyph unicode="H" horiz-adv-x="728" d="M550 334H208L138 0H46L199 724H291L224 410H566L633 724H725L572 0H480L550 334Z"  />
<glyph unicode="I" horiz-adv-x="408" d="M164 724H440L425 653H333L209 71H302L287 0H11L26 71H117L241 653H149L164 724Z"  />
<glyph unicode="J" horiz-adv-x="350" d="M153 724H346L211 87Q198 25 175 -18T119 -89T48 -129T-38 -142Q-49 -142 -64 -141T-88 -137L-71 -59Q-63 -61 -52 -61T-30 -62Q28 -62 65 -25T122 102L239 653H138L153 724Z"  />
<glyph unicode="K" horiz-adv-x="635" d="M199 724H291L221 394L594 724H719L367 418Q341 395 324 382T291 359Q302 351 314 340T342 306L557 0H448L210 341L138 0H46L199 724Z"  />
<glyph unicode="L" horiz-adv-x="522" d="M199 724H291L154 76H454L438 0H46L199 724Z"  />
<glyph unicode="M" horiz-adv-x="880" d="M199 724H307L425 376Q437 338 443 297Q454 318 467 337T496 376L774 724H877L724 0H636L746 519Q749 534 753 553T763 591Q750 571 737 552T713 519L459 204H398L289 519Q281 540 274 569T261 625Q258 599 254 571T244 519L134 0H46L199 724Z"  />
<glyph unicode="N" horiz-adv-x="743" d="M199 724H292L491 237Q502 211 511 180T528 114Q531 145 536 178T547 237L650 724H740L587 0H495L296 487Q285 512 275 544T258 611Q255 579 250 546T239 487L136 0H46L199 724Z"  />
<glyph unicode="O" horiz-adv-x="713" d="M307 -12Q245 -12 200 9T126 66T82 149T68 250Q68 305 77 362T105 473T153 575T225 658T321 715T444 736Q506 736 551 716T625 660T669 577T683 478Q683 423 674 366T646 254T598 151T526 67T430 9T307 -12ZM315 66Q388 66 440 106T524 206T572 338T587 472Q587 511 579 545T552 604T505 643T436 658Q387 658 348 640T279 591T227 520T191 435T171 344T164 256Q164 217 172 182T199 122T246 81T315 66Z"  />
<glyph unicode="P" horiz-adv-x="596" d="M199 724H423Q472 724 509 709T571 669T609 609T622 537Q622 473 601 424T541 342T447 291T322 274H196L138 0H46L199 724ZM275 651L211 347H329Q373 347 409 358T471 393T511 450T526 531Q526 555 519 576T496 614T458 641T401 651H275Z"  />
<glyph unicode="Q" horiz-adv-x="713" d="M310 -12Q248 -12 203 9T129 66T85 149T71 250Q71 305 80 362T108 473T156 575T228 658T324 715T447 736Q509 736 554 716T628 660T672 577T686 478Q686 419 676 357T643 237T586 130T502 46L621 -90H519Q509 -90 505 -87T496 -79L421 5Q395 -3 368 -7T310 -12ZM318 66Q331 66 342 67T365 71L288 159H327Q365 159 390 152T441 114L446 108Q484 136 511 179T556 271T582 373T590 472Q590 511 582 545T555 604T508 643T439 658Q390 658 351 640T282 591T230 520T194 435T174 344T167 256Q167 217 175 182T202 122T249 81T318 66Z"  />
<glyph unicode="R" horiz-adv-x="652" d="M199 724H415Q464 724 501 712T564 677T603 623T616 555Q616 502 601 461T558 390T491 341T403 313Q415 304 424 291T444 257L569 0H470L354 241Q346 258 339 270T324 289T306 300T280 304H202L138 0H46L199 724ZM275 651L217 375H329Q369 375 404 385T465 417T506 471T521 547Q521 593 490 622T392 651H275Z"  />
<glyph unicode="S" horiz-adv-x="579" d="M221 -12Q156 -12 100 -2T6 29L23 107Q62 89 117 78T229 67Q263 67 295 75T354 100T396 144T412 208Q412 248 382 275T283 330Q243 346 211 363T157 402T122 452T110 518Q110 628 181 682T373 736Q436 736 486 726T572 696L555 617Q515 636 469 646T365 656Q333 656 305 648T254 624T218 583T205 525Q205 485 235 458T334 403Q374 387 406 370T460 331T495 281T507 215Q507 159 485 117T425 46T334 3T221 -12Z"  />
<glyph unicode="T" horiz-adv-x="562" d="M125 724H633L617 648H409L272 0H180L317 648H109L125 724Z"  />
<glyph unicode="U" horiz-adv-x="689" d="M298 -12Q72 -12 72 164Q72 179 75 199T82 236L185 724H277L175 241Q168 210 168 182Q168 66 305 66Q392 66 438 105T504 231L608 724H700L592 213Q567 97 498 43T298 -12Z"  />
<glyph unicode="V" horiz-adv-x="645" d="M116 724H212L280 190Q283 167 285 146T286 102Q295 125 307 146T331 190L625 724H725L317 0H219L116 724Z"  />
<glyph unicode="W" horiz-adv-x="1044" d="M600 489Q598 510 597 545T597 616Q583 581 567 546T540 489L286 0H189L118 724H214L257 190Q259 170 260 151T260 111Q267 131 276 150T295 190L567 724H669L715 190Q717 170 717 151T716 110Q724 131 733 150T753 190L1022 724H1122L745 0H648L600 489Z"  />
<glyph unicode="X" horiz-adv-x="608" d="M274 371L128 724H227L316 504Q322 490 326 473T335 439Q346 456 358 472T382 504L564 724H675L379 371L535 0H436L338 239Q325 268 319 302Q308 285 296 269T272 239L74 0H-37L274 371Z"  />
<glyph unicode="Y" horiz-adv-x="594" d="M256 286L110 724H205L292 451Q299 430 304 405T312 353Q326 379 342 404T374 451L577 724H680L347 283L288 0H196L256 286Z"  />
<glyph unicode="Z" horiz-adv-x="596" d="M-2 78L520 648H131L147 724H642L626 646L104 76H520L504 0H-18L-2 78Z"  />
<glyph unicode="[" horiz-adv-x="375" d="M228 758H422L411 707H309L150 -42H252L241 -93H47L228 758Z"  />
<glyph unicode="\" horiz-adv-x="454" d="M129 758H205L375 0H298L129 758Z"  />
<glyph unicode="]" horiz-adv-x="375" d="M178 -93H-16L-5 -42H97L256 707H154L165 758H359L178 -93Z"  />
<glyph unicode="^" horiz-adv-x="436" d="M264 724H369L446 438H371L306 660L147 438H66L264 724Z"  />
<glyph unicode="_" horiz-adv-x="400" d="M-63 0H353L337 -72H-78L-63 0Z"  />
<glyph unicode="`" horiz-adv-x="438" d="M195 728H304L368 588H296L195 728Z"  />
<glyph unicode="a" horiz-adv-x="603" d="M223 -12Q183 -12 151 2T95 42T58 106T45 189Q45 250 63 310T118 418T210 495T338 525Q377 525 413 515T477 482L496 513H564L455 0H384L386 58Q357 21 315 5T223 -12ZM249 60Q298 60 332 76T393 122L458 429Q438 439 409 445T344 452Q292 452 253 430T188 371T149 290T136 198Q136 132 165 96T249 60Z"  />
<glyph unicode="b" horiz-adv-x="603" d="M264 -12Q222 -12 187 -2T124 30L106 0H38L200 758H288L226 468Q254 497 293 511T378 525Q418 525 451 511T507 471T544 407T557 324Q557 263 539 203T483 95T392 18T264 -12ZM257 61Q309 61 348 83T414 141T453 222T466 315Q466 381 437 417T353 453Q304 453 270 437T209 391L144 84Q164 73 193 67T257 61Z"  />
<glyph unicode="c" horiz-adv-x="474" d="M247 -12Q204 -12 168 4T104 48T62 115T46 200Q46 261 64 319T118 423T209 497T337 525Q375 525 411 517T466 495L450 420Q429 431 400 439T330 448Q283 448 247 428T187 374T150 296T137 206Q137 173 146 147T172 103T211 75T259 65Q297 65 333 74T395 97L379 20Q355 5 321 -3T247 -12Z"  />
<glyph unicode="d" horiz-adv-x="603" d="M224 -12Q184 -12 152 2T96 42T59 106T46 189Q46 250 64 310T119 418T211 495T339 525Q375 525 409 516T471 488L529 758H617L456 0H385L387 58Q358 21 316 5T224 -12ZM250 60Q299 60 333 76T394 122L459 429Q439 439 410 445T345 452Q293 452 254 430T189 371T150 290T137 198Q137 132 166 96T250 60Z"  />
<glyph unicode="e" horiz-adv-x="546" d="M248 -12Q207 -12 170 1T106 39T62 102T46 189Q46 250 62 310T111 418T197 495T322 525Q409 525 455 481T503 362Q503 333 498 302T484 242H138Q136 231 136 220T136 198Q136 162 146 137T175 96T217 73T267 65Q357 65 429 103L413 26Q346 -12 248 -12ZM313 454Q280 454 254 443T208 412T174 366T151 309H410Q412 321 413 333T414 355Q414 400 387 427T313 454Z"  />
<glyph unicode="f" horiz-adv-x="399" d="M73 498L187 512L202 582Q222 676 279 723T418 770Q454 770 480 766T524 754L508 682Q488 689 468 691T422 694Q359 694 330 665T288 572L275 513H441L425 440H260L119 -228H31L172 440H60L73 498Z"  />
<glyph unicode="g" horiz-adv-x="603" d="M175 -240Q121 -240 76 -230T2 -205L17 -132Q43 -143 84 -154T176 -164Q222 -164 254 -154T309 -122T346 -69T369 9L378 48Q349 16 309 2T223 -12Q183 -12 151 2T95 42T58 106T45 189Q45 250 63 310T118 418T210 495T338 525Q377 525 413 515T477 482L496 513H564L456 3Q430 -121 363 -180T175 -240ZM249 60Q298 60 332 76T393 122L458 429Q438 439 409 445T344 452Q292 452 253 430T188 371T149 290T136 198Q136 132 165 96T249 60Z"  />
<glyph unicode="h" horiz-adv-x="603" d="M200 758H288L226 467Q256 497 298 511T388 525Q456 525 499 492T543 396Q543 375 538 350L464 0H376L449 345Q451 353 452 360T453 376Q453 416 427 434T360 453Q311 453 273 437T209 391L126 0H38L200 758Z"  />
<glyph unicode="i" horiz-adv-x="274" d="M147 513H235L126 0H38L147 513ZM189 724H277L255 620H167L189 724Z"  />
<glyph unicode="j" horiz-adv-x="274" d="M-101 -234Q-119 -234 -134 -232T-158 -227L-143 -157Q-135 -159 -125 -160T-104 -161Q-48 -161 -15 -125T38 1L147 513H235L124 -9Q111 -70 90 -113T40 -183T-24 -222T-101 -234ZM189 724H277L255 620H167L189 724Z"  />
<glyph unicode="k" horiz-adv-x="530" d="M199 758H287L189 296L450 513H563L309 301Q278 275 255 264Q271 254 292 228L467 0H369L178 246L126 0H38L199 758Z"  />
<glyph unicode="l" horiz-adv-x="314" d="M152 -6Q110 -6 84 11T58 73Q58 95 63 117L200 758H288L153 127Q152 123 151 117T150 105Q150 70 188 70Q204 70 220 71T251 77L236 7Q216 0 197 -3T152 -6Z"  />
<glyph unicode="m" horiz-adv-x="941" d="M147 513H218L216 455Q245 492 291 508T388 525Q439 525 477 506T532 450Q564 484 616 504T726 525Q794 525 837 492T881 396Q881 375 876 350L802 0H714L787 345Q789 353 790 360T791 376Q791 416 765 434T698 453Q649 453 611 437T547 391L464 0H376L449 345Q451 353 452 360T453 376Q453 416 427 434T360 453Q311 453 273 437T209 391L126 0H38L147 513Z"  />
<glyph unicode="n" horiz-adv-x="603" d="M147 513H218L216 455Q245 492 291 508T388 525Q456 525 499 492T543 396Q543 375 538 350L464 0H376L449 345Q451 353 452 360T453 376Q453 416 427 434T360 453Q311 453 273 437T209 391L126 0H38L147 513Z"  />
<glyph unicode="o" horiz-adv-x="588" d="M239 -12Q189 -12 153 3T94 45T59 106T48 181Q48 247 67 309T124 419T218 496T349 525Q399 525 435 510T494 468T529 407T540 332Q540 266 521 204T464 94T370 17T239 -12ZM253 61Q304 61 341 85T402 147T437 231T449 324Q449 351 443 374T423 416T388 444T336 454Q285 454 248 430T187 368T151 282T139 190Q139 163 145 140T165 99T201 71T253 61Z"  />
<glyph unicode="p" horiz-adv-x="603" d="M146 513H217L215 456Q244 492 285 508T377 525Q417 525 450 511T506 471T543 407T556 324Q556 263 538 203T482 95T391 18T263 -12Q224 -12 190 -4T130 24L76 -228H-12L146 513ZM256 61Q308 61 347 83T413 141T452 222T465 315Q465 381 436 417T352 453Q303 453 269 437T208 391L143 84Q163 73 192 67T256 61Z"  />
<glyph unicode="q" horiz-adv-x="603" d="M376 46Q347 15 308 2T223 -12Q183 -12 151 2T95 42T58 106T45 189Q45 250 63 310T118 418T210 495T338 525Q377 525 413 515T477 482L496 513H564L406 -228H318L376 46ZM249 60Q298 60 332 76T393 122L458 429Q438 439 409 445T344 452Q292 452 253 430T188 371T149 290T136 198Q136 132 165 96T249 60Z"  />
<glyph unicode="r" horiz-adv-x="403" d="M147 513H227L217 442Q246 477 285 501T372 525Q391 525 408 522T435 514L417 430Q404 435 387 438T349 441Q302 441 263 415T201 353L126 0H38L147 513Z"  />
<glyph unicode="s" horiz-adv-x="479" d="M166 -12Q118 -12 74 -1T8 24L23 96Q35 90 52 84T89 73T131 65T174 62Q195 62 220 66T268 79T304 106T319 149Q319 178 291 194T217 226Q184 236 159 247T116 274T89 308T79 355Q79 400 95 432T141 485T210 515T295 525Q341 525 383 515T447 489L432 416Q408 430 369 441T287 452Q266 452 245 448T206 433T177 407T166 368Q166 339 193 323T267 291Q300 280 325 269T368 243T395 209T405 162Q405 115 385 82T332 28T255 -2T166 -12Z"  />
<glyph unicode="t" horiz-adv-x="422" d="M82 498L172 512L206 671H294L260 513H447L431 440H245L183 149Q181 141 180 134T179 119Q179 87 198 76T252 64Q281 64 305 68T349 80L333 8Q312 -1 284 -6T223 -12Q161 -12 125 13T88 97Q88 108 90 120T95 147L157 440H69L82 498Z"  />
<glyph unicode="u" horiz-adv-x="594" d="M210 -12Q142 -12 101 21T59 117Q59 138 64 163L138 513H226L153 168Q151 160 150 153T149 137Q149 97 173 79T238 60Q287 60 323 76T385 122L468 513H556L447 0H376L378 57Q349 21 305 5T210 -12Z"  />
<glyph unicode="v" horiz-adv-x="487" d="M64 513H154L196 152Q198 135 199 113T201 69Q209 92 219 113T239 151L435 513H530L235 0H142L64 513Z"  />
<glyph unicode="w" horiz-adv-x="780" d="M421 329Q420 341 419 358T418 394Q410 375 402 358T387 329L219 0H131L69 513H157L187 156Q189 141 189 123T189 85Q197 105 205 123T222 156L400 513H480L506 156Q507 141 507 123T508 84Q516 104 524 122T541 156L723 513H819L539 0H451L421 329Z"  />
<glyph unicode="x" horiz-adv-x="508" d="M206 268L82 513H173L244 373Q257 346 263 325Q271 336 280 348T300 371L428 513H534L303 257L433 0H343L266 151Q259 164 255 175T246 198Q238 187 229 176T210 153L72 0H-34L206 268Z"  />
<glyph unicode="y" horiz-adv-x="487" d="M-62 -235Q-73 -235 -84 -234T-103 -230L-88 -158Q-82 -159 -75 -159T-56 -160Q-28 -160 -3 -154T45 -131T91 -88T137 -18L142 -8L64 513H154L196 152Q198 135 199 113T201 69Q209 92 219 113T239 151L435 513H530L217 -30Q185 -86 155 -125T92 -188T22 -224T-62 -235Z"  />
<glyph unicode="z" horiz-adv-x="495" d="M8 62L363 441H96L112 513H492L478 451L122 72H409L394 0H-5L8 62Z"  />
<glyph unicode="{" horiz-adv-x="414" d="M77 365H103Q142 365 164 384T197 448L232 615Q241 656 252 683T283 727T330 751T400 758H457L445 705H401Q381 705 368 698T346 677T332 644T322 603L288 444Q272 366 201 338Q247 318 247 266Q247 258 246 250T243 234L207 62Q199 25 199 3Q199 -19 208 -30T243 -42H287L276 -93H219Q156 -93 130 -75T104 -13Q104 1 106 16T112 50L152 237Q155 253 155 268Q155 320 93 320H67L77 365Z"  />
<glyph unicode="|" horiz-adv-x="343" d="M241 758H314L104 -228H31L241 758Z"  />
<glyph unicode="}" horiz-adv-x="414" d="M368 300H342Q302 300 280 281T248 217L213 50Q204 9 193 -18T162 -62T115 -86T45 -93H-12L0 -40H44Q64 -40 77 -33T98 -12T112 21T123 62L157 221Q174 300 244 327Q198 346 198 398Q198 415 202 431L238 603Q246 640 246 662Q246 683 237 695T202 707H158L169 758H226Q289 758 315 740T341 678Q341 653 333 615L293 428Q291 419 290 412T289 397Q289 369 304 357T352 345H378L368 300Z"  />
<glyph unicode="~" horiz-adv-x="450" d="M301 233Q276 233 257 241T223 259T193 277T163 285Q135 285 118 272T95 236H24Q35 296 73 331T163 366Q188 366 207 358T242 340T272 322T303 314Q331 314 349 327T372 363H443Q437 333 424 309T392 268T350 242T301 233Z"  />
<glyph unicode="&#xA0;" horiz-adv-x="248" />
<glyph unicode="&#xA1;" horiz-adv-x="331" d="M188 209Q186 191 183 164T175 106T166 44T155 -14L114 -211H18L59 -14Q65 12 73 43T91 106T108 164T122 209L154 314H200L188 209ZM252 404H141L164 513H275L252 404Z"  />
<glyph unicode="&#xA2;" horiz-adv-x="634" d="M277 84Q196 101 151 157T105 295Q105 362 123 422T178 529T269 606T395 644L419 756H499L475 644Q515 641 548 632T602 612L586 539Q558 552 517 560T424 568Q368 568 325 548T254 491T211 407T196 305Q196 233 237 194T356 155Q405 155 447 161T527 180L512 108Q477 95 440 87T355 78L332 -32H252L277 84Z"  />
<glyph unicode="&#xA3;" horiz-adv-x="634" d="M118 407H216L248 556Q258 604 279 638T331 694T397 726T474 736Q515 736 547 730T596 713L581 641Q561 649 531 653T469 658Q406 658 376 629T333 535L306 407H504L489 334H290L253 156Q247 127 234 106T199 76H539L523 0H44L60 74H76Q114 74 135 100T164 164L200 334H103L118 407Z"  />
<glyph unicode="&#xA4;" horiz-adv-x="634" d="M409 184Q350 150 280 150Q208 150 159 190L78 119L31 181L113 244Q93 281 93 326Q93 375 111 419T162 499L114 555L179 609L223 548Q252 564 284 573T353 582Q388 582 418 572T474 542L555 613L602 551L520 487Q540 450 540 405Q540 356 522 312T471 233L519 177L454 123L409 184ZM290 220Q326 220 357 234T411 271T448 326T462 394Q462 443 430 477T343 512Q307 512 276 499T222 461T186 405T172 337Q172 288 203 254T290 220Z"  />
<glyph unicode="&#xA5;" horiz-adv-x="634" d="M83 413H219L122 724H218L301 451Q307 431 311 408T317 359Q329 383 343 407T372 451L570 724H672L443 413H587L572 342H391L351 287L337 224H547L532 153H322L290 0H198L230 153H28L43 224H245L259 287L242 342H68L83 413Z"  />
<glyph unicode="&#xA6;" horiz-adv-x="343" d="M114 238H187L117 -93H44L114 238ZM225 758H298L228 427H155L225 758Z"  />
<glyph unicode="&#xA7;" horiz-adv-x="634" d="M255 -72Q231 -72 205 -69T155 -59T109 -45T75 -28L90 43Q123 25 169 14T261 2Q281 2 305 4T350 14T385 36T400 75Q400 107 376 124T309 160L204 205Q181 215 159 228T120 258T93 296T82 342Q82 369 93 393T123 436T164 470T210 495Q193 512 184 532T175 579Q175 624 193 654T244 703T317 728T406 736Q428 736 453 733T503 724T547 711T582 694L567 622Q535 639 490 650T400 662Q380 662 357 660T313 650T279 628T265 589Q265 557 289 540T356 504L466 456Q489 446 510 433T548 404T573 368T583 322Q583 294 572 270T542 227T500 193T455 168Q472 152 481 132T490 85Q490 40 471 10T419 -39T344 -64T255 -72ZM492 304Q492 336 474 353T426 384L320 432Q305 439 292 444T267 457Q249 450 232 440T202 418T181 391T173 360Q173 328 193 310T244 277L345 232L397 207Q435 225 463 248T492 304Z"  />
<glyph unicode="&#xA8;" horiz-adv-x="438" d="M156 711H252L231 611H135L156 711ZM350 711H446L425 611H329L350 711Z"  />
<glyph unicode="&#xA9;" horiz-adv-x="866" d="M410 153Q374 153 346 164T297 197T266 246T255 308Q255 357 268 404T310 488T380 548T480 571Q515 571 547 564T597 546L583 481Q544 503 476 503Q439 503 413 486T371 441T347 379T339 312Q339 220 424 220Q459 220 486 225T542 241L528 175Q502 164 475 159T410 153ZM389 -12Q313 -12 254 12T155 79T93 176T71 293Q71 383 100 463T186 604T322 700T504 736Q580 736 639 711T739 644T801 546T823 429Q823 339 793 259T707 118T571 23T389 -12ZM399 50Q477 50 541 79T652 160T724 279T750 425Q750 476 733 521T684 600T603 654T494 674Q416 674 352 644T241 563T170 444T144 297Q144 246 161 202T210 123T290 70T399 50Z"  />
<glyph unicode="&#xAA;" horiz-adv-x="540" d="M252 300Q185 300 144 343T102 460Q102 508 117 555T164 640T241 701T349 725Q382 725 413 717T467 692L482 715H539L447 310H388L389 356Q366 327 330 314T252 300ZM273 359Q315 359 344 372T395 407L450 647Q433 655 408 660T354 665Q310 665 277 648T222 602T189 539T178 467Q178 416 203 388T273 359ZM79 188H452L437 116H64L79 188Z"  />
<glyph unicode="&#xAB;" horiz-adv-x="582" d="M70 306L270 486H358L168 297L276 114H196L70 306ZM268 306L468 486H556L366 297L474 114H394L268 306Z"  />
<glyph unicode="&#xAC;" horiz-adv-x="588" d="M451 262H40L55 334H547L502 123H422L451 262Z"  />
<glyph unicode="&#xAD;" horiz-adv-x="364" d="M74 345H328L309 255H55L74 345Z"  />
<glyph unicode="&#xAE;" horiz-adv-x="662" d="M333 234Q282 234 238 251T162 299T112 370T94 458Q94 521 117 577T183 676T282 744T408 770Q459 770 503 753T579 705T629 634T647 546Q647 483 624 427T558 328T459 260T333 234ZM335 279Q390 279 436 300T517 357T571 441T591 546Q591 582 579 614T542 671T484 710T406 725Q351 725 305 704T224 646T170 561T150 458Q150 421 162 389T199 332T257 293T335 279ZM293 650H400Q444 650 471 631T499 577Q499 538 475 516T415 486Q427 478 434 462L477 359H416L377 452Q371 466 364 469T344 473H312L288 359H231L293 650ZM340 605L322 518H367Q379 518 392 520T415 528T433 544T440 570Q440 585 428 595T387 605H340Z"  />
<glyph unicode="&#xAF;" horiz-adv-x="438" d="M162 687H432L415 611H145L162 687Z"  />
<glyph unicode="&#xB0;" horiz-adv-x="440" d="M251 394Q218 394 190 405T140 437T106 483T93 538Q93 578 109 613T152 674T217 715T297 730Q330 730 358 719T408 687T442 641T455 586Q455 546 439 511T396 450T331 409T251 394ZM257 461Q280 461 302 470T340 494T367 532T377 581Q377 613 355 638T291 663Q268 663 246 654T208 630T181 592T171 543Q171 511 193 486T257 461Z"  />
<glyph unicode="&#xB1;" horiz-adv-x="588" d="M80 411H278L317 594H397L358 411H562L546 339H343L303 152H223L263 339H64L80 411ZM14 72H496L480 0H-1L14 72Z"  />
<glyph unicode="&#xB2;" horiz-adv-x="403" d="M82 420L188 494Q208 508 233 527T281 567T319 612T335 658Q335 681 319 693T266 706Q233 706 201 698T146 679L160 739Q180 750 210 758T280 766Q349 766 380 737T412 667Q412 634 395 604T351 548T292 498T230 454L186 425H379L367 367H71L82 420Z"  />
<glyph unicode="&#xB3;" horiz-adv-x="403" d="M206 359Q166 359 135 366T84 384L97 440Q118 430 148 425T211 419Q230 419 248 423T280 435T304 457T313 491Q313 514 293 527T229 541H183L196 599H242Q257 599 274 602T307 612T332 632T342 664Q342 686 323 696T274 706Q242 706 212 700T161 683L174 743Q194 754 224 760T289 766Q352 766 385 741T419 677Q419 635 395 609T333 569Q388 545 388 494Q388 460 373 435T333 393T275 368T206 359Z"  />
<glyph unicode="&#xB4;" horiz-adv-x="438" d="M300 728H425L257 588H178L300 728Z"  />
<glyph unicode="&#xB5;" horiz-adv-x="613" d="M478 -6Q441 -6 418 12T389 60Q360 22 316 5T219 -12Q156 -12 116 16Q118 -5 117 -31T109 -86L79 -228H-9L147 513H235L162 168Q160 160 159 153T158 137Q158 97 182 79T247 60Q296 60 332 76T394 122L477 513H565L481 120Q478 106 478 97Q478 83 486 75T516 67Q524 67 535 68T555 72L541 5Q520 -6 478 -6Z"  />
<glyph unicode="&#xB6;" horiz-adv-x="774" d="M548 -228H437L619 627H530L348 -228H237L351 310Q289 310 246 323T176 358T137 410T125 474Q125 537 149 584T214 662T312 708T432 724H751L548 -228Z"  />
<glyph unicode="&#xB7;" horiz-adv-x="341" d="M138 353H249L226 244H115L138 353Z"  />
<glyph unicode="&#xB8;" horiz-adv-x="438" d="M91 -204Q60 -204 36 -196L47 -147Q56 -149 67 -150T94 -152Q112 -152 130 -145T148 -114Q148 -96 129 -86T87 -70L144 10H199L165 -48Q188 -54 202 -72T217 -110Q217 -133 207 -150T178 -180T138 -198T91 -204Z"  />
<glyph unicode="&#xB9;" horiz-adv-x="403" d="M114 427H205L265 694L170 676L182 733L305 758H352L277 427H369L356 367H101L114 427Z"  />
<glyph unicode="&#xBA;" horiz-adv-x="542" d="M269 300Q227 300 197 312T147 345T118 394T108 453Q108 505 124 554T172 641T251 702T361 725Q403 725 433 713T483 680T512 631T522 572Q522 520 506 471T458 384T379 323T269 300ZM280 360Q323 360 354 378T406 426T436 492T446 565Q446 607 424 637T351 667Q308 667 277 648T225 599T194 533T184 461Q184 419 206 390T280 360ZM53 188H459L444 116H38L53 188Z"  />
<glyph unicode="&#xBB;" horiz-adv-x="582" d="M218 302L110 486H190L316 294L116 114H28L218 302ZM416 302L308 486H388L514 294L314 114H226L416 302Z"  />
<glyph unicode="&#xBC;" horiz-adv-x="979" d="M106 393H197L257 660L162 642L174 699L297 724H344L269 393H361L348 333H93L106 393ZM751 724H834L285 0H201L751 724ZM769 79H562L572 127L840 391H911L854 134H921L908 79H841L824 0H751L769 79ZM646 132Q657 134 668 134T693 134H782L806 238Q815 274 824 302Q814 289 802 275T774 247L683 162Q664 143 646 132Z"  />
<glyph unicode="&#xBD;" horiz-adv-x="979" d="M106 393H197L257 660L162 642L174 699L297 724H344L269 393H361L348 333H93L106 393ZM751 724H834L285 0H201L751 724ZM585 53L691 127Q711 141 736 160T784 200T822 245T838 291Q838 314 822 326T769 339Q736 339 704 331T649 312L663 372Q683 383 713 391T783 399Q852 399 883 370T915 300Q915 267 898 237T854 181T795 131T733 87L689 58H882L870 0H574L585 53Z"  />
<glyph unicode="&#xBE;" horiz-adv-x="979" d="M198 325Q158 325 127 332T76 350L89 406Q110 396 140 391T203 385Q222 385 240 389T272 401T296 423T305 457Q305 480 285 493T221 507H175L188 565H234Q249 565 266 568T299 578T324 598T334 630Q334 652 315 662T266 672Q234 672 204 666T153 649L166 709Q186 720 216 726T281 732Q344 732 377 707T411 643Q411 601 387 575T325 535Q380 511 380 460Q380 426 365 401T325 359T267 334T198 325ZM751 724H834L285 0H201L751 724ZM769 79H562L572 127L840 391H911L854 134H921L908 79H841L824 0H751L769 79ZM646 132Q657 134 668 134T693 134H782L806 238Q815 274 824 302Q814 289 802 275T774 247L683 162Q664 143 646 132Z"  />
<glyph unicode="&#xBF;" horiz-adv-x="512" d="M338 202L246 128Q214 102 186 78T138 29T105 -17T93 -62Q93 -100 119 -121T196 -142Q247 -142 290 -131T375 -100L358 -180Q320 -200 279 -211T178 -223Q143 -223 110 -214T52 -187T11 -142T-5 -79Q-5 -40 11 -5T54 61T113 120T180 175L263 240L284 314H353L338 202ZM395 404H284L307 513H418L395 404Z"  />
<glyph unicode="&#xC0;" horiz-adv-x="652" d="M374 724H472L578 0H485L462 185H163L62 0H-36L374 724ZM206 264H452L416 554Q413 575 411 598T411 647Q401 621 389 598T365 554L206 264ZM295 912H404L468 772H396L295 912Z"  />
<glyph unicode="&#xC1;" horiz-adv-x="652" d="M374 724H472L578 0H485L462 185H163L62 0H-36L374 724ZM206 264H452L416 554Q413 575 411 598T411 647Q401 621 389 598T365 554L206 264ZM515 912H640L472 772H393L515 912Z"  />
<glyph unicode="&#xC2;" horiz-adv-x="652" d="M374 724H472L578 0H485L462 185H163L62 0H-36L374 724ZM206 264H452L416 554Q413 575 411 598T411 647Q401 621 389 598T365 554L206 264ZM404 912H509L574 772H501L448 854L361 772H278L404 912Z"  />
<glyph unicode="&#xC3;" horiz-adv-x="652" d="M374 724H472L578 0H485L462 185H163L62 0H-36L374 724ZM206 264H452L416 554Q413 575 411 598T411 647Q401 621 389 598T365 554L206 264ZM499 776Q478 776 462 784T431 801T405 818T379 826Q356 826 344 812T325 778H264Q272 835 307 868T387 901Q408 901 424 893T455 876T482 859T508 851Q531 851 543 865T562 899H623Q619 870 608 848T579 809T542 785T499 776Z"  />
<glyph unicode="&#xC4;" horiz-adv-x="652" d="M374 724H472L578 0H485L462 185H163L62 0H-36L374 724ZM206 264H452L416 554Q413 575 411 598T411 647Q401 621 389 598T365 554L206 264ZM310 895H406L385 795H289L310 895ZM504 895H600L579 795H483L504 895Z"  />
<glyph unicode="&#xC5;" horiz-adv-x="652" d="M374 724H472L578 0H485L462 185H163L62 0H-36L374 724ZM206 264H452L416 554Q413 575 411 598T411 647Q401 621 389 598T365 554L206 264ZM434 768Q413 768 396 775T365 795T345 825T337 862Q337 887 347 909T375 946T416 971T467 980Q509 980 536 953T564 885Q564 860 554 839T526 802T485 777T434 768ZM442 817Q468 817 488 835T508 879Q508 900 495 915T459 931Q433 931 413 913T393 868Q393 848 406 833T442 817Z"  />
<glyph unicode="&#xC6;" horiz-adv-x="936" d="M427 185H178L65 0H-35L413 724H976L960 648H617L566 408H859L843 332H550L496 76H839L823 0H388L427 185ZM443 264L525 648H461L226 264H443Z"  />
<glyph unicode="&#xC7;" horiz-adv-x="599" d="M208 -204Q177 -204 153 -196L164 -147Q173 -149 184 -150T211 -152Q229 -152 247 -145T265 -114Q265 -96 246 -86T204 -70L252 -1Q168 22 118 90T68 262Q68 346 90 431T158 583T277 693T450 736Q476 736 502 734T552 726T596 713T629 696L612 616Q584 633 539 643T442 654Q368 654 315 618T229 526T180 402T164 268Q164 170 212 119T346 68Q391 68 434 77T519 104L503 25Q468 8 427 -2T332 -12Q324 -12 318 -12T304 -10L282 -48Q305 -54 319 -72T334 -110Q334 -133 324 -150T295 -180T255 -198T208 -204Z"  />
<glyph unicode="&#xC8;" horiz-adv-x="594" d="M199 724H634L618 648H275L224 408H517L501 332H208L154 76H497L481 0H46L199 724ZM271 912H380L444 772H372L271 912Z"  />
<glyph unicode="&#xC9;" horiz-adv-x="594" d="M199 724H634L618 648H275L224 408H517L501 332H208L154 76H497L481 0H46L199 724ZM491 912H616L448 772H369L491 912Z"  />
<glyph unicode="&#xCA;" horiz-adv-x="594" d="M199 724H634L618 648H275L224 408H517L501 332H208L154 76H497L481 0H46L199 724ZM380 912H485L550 772H477L424 854L337 772H254L380 912Z"  />
<glyph unicode="&#xCB;" horiz-adv-x="594" d="M199 724H634L618 648H275L224 408H517L501 332H208L154 76H497L481 0H46L199 724ZM286 895H382L361 795H265L286 895ZM480 895H576L555 795H459L480 895Z"  />
<glyph unicode="&#xCC;" horiz-adv-x="408" d="M164 724H440L425 653H333L209 71H302L287 0H11L26 71H117L241 653H149L164 724ZM175 912H284L348 772H276L175 912Z"  />
<glyph unicode="&#xCD;" horiz-adv-x="408" d="M164 724H440L425 653H333L209 71H302L287 0H11L26 71H117L241 653H149L164 724ZM395 912H520L352 772H273L395 912Z"  />
<glyph unicode="&#xCE;" horiz-adv-x="408" d="M164 724H440L425 653H333L209 71H302L287 0H11L26 71H117L241 653H149L164 724ZM284 912H389L454 772H381L328 854L241 772H158L284 912Z"  />
<glyph unicode="&#xCF;" horiz-adv-x="408" d="M164 724H440L425 653H333L209 71H302L287 0H11L26 71H117L241 653H149L164 724ZM190 895H286L265 795H169L190 895ZM384 895H480L459 795H363L384 895Z"  />
<glyph unicode="&#xD0;" horiz-adv-x="710" d="M62 401H140L209 724H427Q496 724 544 702T623 644T667 560T681 460Q681 372 658 290T585 143T458 39T275 0H56L125 329H47L62 401ZM285 650L232 401H384L369 329H217L163 74H279Q354 74 411 103T506 184T564 304T584 454Q584 496 574 532T541 594T485 635T402 650H285Z"  />
<glyph unicode="&#xD1;" horiz-adv-x="743" d="M199 724H292L491 237Q502 211 511 180T528 114Q531 145 536 178T547 237L650 724H740L587 0H495L296 487Q285 512 275 544T258 611Q255 579 250 546T239 487L136 0H46L199 724ZM546 776Q525 776 509 784T478 801T452 818T426 826Q403 826 391 812T372 778H311Q319 835 354 868T434 901Q455 901 471 893T502 876T529 859T555 851Q578 851 590 865T609 899H670Q666 870 655 848T626 809T589 785T546 776Z"  />
<glyph unicode="&#xD2;" horiz-adv-x="713" d="M307 -12Q245 -12 200 9T126 66T82 149T68 250Q68 305 77 362T105 473T153 575T225 658T321 715T444 736Q506 736 551 716T625 660T669 577T683 478Q683 423 674 366T646 254T598 151T526 67T430 9T307 -12ZM315 66Q388 66 440 106T524 206T572 338T587 472Q587 511 579 545T552 604T505 643T436 658Q387 658 348 640T279 591T227 520T191 435T171 344T164 256Q164 217 172 182T199 122T246 81T315 66ZM318 912H427L491 772H419L318 912Z"  />
<glyph unicode="&#xD3;" horiz-adv-x="713" d="M307 -12Q245 -12 200 9T126 66T82 149T68 250Q68 305 77 362T105 473T153 575T225 658T321 715T444 736Q506 736 551 716T625 660T669 577T683 478Q683 423 674 366T646 254T598 151T526 67T430 9T307 -12ZM315 66Q388 66 440 106T524 206T572 338T587 472Q587 511 579 545T552 604T505 643T436 658Q387 658 348 640T279 591T227 520T191 435T171 344T164 256Q164 217 172 182T199 122T246 81T315 66ZM538 912H663L495 772H416L538 912Z"  />
<glyph unicode="&#xD4;" horiz-adv-x="713" d="M307 -12Q245 -12 200 9T126 66T82 149T68 250Q68 305 77 362T105 473T153 575T225 658T321 715T444 736Q506 736 551 716T625 660T669 577T683 478Q683 423 674 366T646 254T598 151T526 67T430 9T307 -12ZM315 66Q388 66 440 106T524 206T572 338T587 472Q587 511 579 545T552 604T505 643T436 658Q387 658 348 640T279 591T227 520T191 435T171 344T164 256Q164 217 172 182T199 122T246 81T315 66ZM427 912H532L597 772H524L471 854L384 772H301L427 912Z"  />
<glyph unicode="&#xD5;" horiz-adv-x="713" d="M307 -12Q245 -12 200 9T126 66T82 149T68 250Q68 305 77 362T105 473T153 575T225 658T321 715T444 736Q506 736 551 716T625 660T669 577T683 478Q683 423 674 366T646 254T598 151T526 67T430 9T307 -12ZM315 66Q388 66 440 106T524 206T572 338T587 472Q587 511 579 545T552 604T505 643T436 658Q387 658 348 640T279 591T227 520T191 435T171 344T164 256Q164 217 172 182T199 122T246 81T315 66ZM522 776Q501 776 485 784T454 801T428 818T402 826Q379 826 367 812T348 778H287Q295 835 330 868T410 901Q431 901 447 893T478 876T505 859T531 851Q554 851 566 865T585 899H646Q642 870 631 848T602 809T565 785T522 776Z"  />
<glyph unicode="&#xD6;" horiz-adv-x="713" d="M307 -12Q245 -12 200 9T126 66T82 149T68 250Q68 305 77 362T105 473T153 575T225 658T321 715T444 736Q506 736 551 716T625 660T669 577T683 478Q683 423 674 366T646 254T598 151T526 67T430 9T307 -12ZM315 66Q388 66 440 106T524 206T572 338T587 472Q587 511 579 545T552 604T505 643T436 658Q387 658 348 640T279 591T227 520T191 435T171 344T164 256Q164 217 172 182T199 122T246 81T315 66ZM336 895H432L411 795H315L336 895ZM530 895H626L605 795H509L530 895Z"  />
<glyph unicode="&#xD7;" horiz-adv-x="588" d="M39 141L242 305L119 469L176 517L300 352L503 516L547 460L344 295L468 131L411 83L286 248L84 84L39 141Z"  />
<glyph unicode="&#xD8;" horiz-adv-x="713" d="M307 -12Q256 -12 217 2T148 43L111 0H13L101 102Q84 134 76 171T68 250Q68 305 77 362T105 473T153 575T225 658T321 715T444 736Q495 736 534 722T603 682L640 724H738L650 622Q683 560 683 478Q683 423 674 366T646 254T598 151T526 67T430 9T307 -12ZM164 256Q164 236 165 219T172 184L544 613Q526 634 499 646T436 658Q387 658 348 640T279 591T227 520T191 435T171 344T164 256ZM315 66Q388 66 440 106T524 206T572 338T587 472Q587 507 579 541L207 111Q226 90 252 78T315 66Z"  />
<glyph unicode="&#xD9;" horiz-adv-x="689" d="M298 -12Q72 -12 72 164Q72 179 75 199T82 236L185 724H277L175 241Q168 210 168 182Q168 66 305 66Q392 66 438 105T504 231L608 724H700L592 213Q567 97 498 43T298 -12ZM311 912H420L484 772H412L311 912Z"  />
<glyph unicode="&#xDA;" horiz-adv-x="689" d="M298 -12Q72 -12 72 164Q72 179 75 199T82 236L185 724H277L175 241Q168 210 168 182Q168 66 305 66Q392 66 438 105T504 231L608 724H700L592 213Q567 97 498 43T298 -12ZM531 912H656L488 772H409L531 912Z"  />
<glyph unicode="&#xDB;" horiz-adv-x="689" d="M298 -12Q72 -12 72 164Q72 179 75 199T82 236L185 724H277L175 241Q168 210 168 182Q168 66 305 66Q392 66 438 105T504 231L608 724H700L592 213Q567 97 498 43T298 -12ZM420 912H525L590 772H517L464 854L377 772H294L420 912Z"  />
<glyph unicode="&#xDC;" horiz-adv-x="689" d="M298 -12Q72 -12 72 164Q72 179 75 199T82 236L185 724H277L175 241Q168 210 168 182Q168 66 305 66Q392 66 438 105T504 231L608 724H700L592 213Q567 97 498 43T298 -12ZM326 895H422L401 795H305L326 895ZM520 895H616L595 795H499L520 895Z"  />
<glyph unicode="&#xDD;" horiz-adv-x="594" d="M256 286L110 724H205L292 451Q299 430 304 405T312 353Q326 379 342 404T374 451L577 724H680L347 283L288 0H196L256 286ZM478 912H603L435 772H356L478 912Z"  />
<glyph unicode="&#xDE;" horiz-adv-x="596" d="M199 724H291L265 602H399Q448 602 485 588T547 548T585 489T598 417Q598 353 577 304T517 221T423 170T298 152H170L138 0H46L199 724ZM250 529L185 225H305Q393 225 446 272T500 411Q500 435 493 456T471 494T433 519T377 529H250Z"  />
<glyph unicode="&#xDF;" horiz-adv-x="639" d="M159 570Q170 622 194 660T252 722T327 758T413 770Q456 770 489 758T546 724T581 677T593 622Q593 544 537 490T361 399L350 395L439 348Q479 327 504 307T545 266T565 225T571 179Q571 136 554 101T506 41T434 2T347 -12Q301 -12 262 -1T202 25L217 95Q240 82 276 73T351 63Q375 63 398 70T439 91T469 126T481 174Q481 187 478 200T465 228T438 257T393 290L275 365L291 442L343 461Q422 490 462 524T503 614Q503 646 479 670T403 695Q343 695 301 662T244 557L78 -228H-10L159 570Z"  />
<glyph unicode="&#xE0;" horiz-adv-x="603" d="M223 -12Q183 -12 151 2T95 42T58 106T45 189Q45 250 63 310T118 418T210 495T338 525Q377 525 413 515T477 482L496 513H564L455 0H384L386 58Q357 21 315 5T223 -12ZM249 60Q298 60 332 76T393 122L458 429Q438 439 409 445T344 452Q292 452 253 430T188 371T149 290T136 198Q136 132 165 96T249 60ZM225 728H334L398 588H326L225 728Z"  />
<glyph unicode="&#xE1;" horiz-adv-x="603" d="M223 -12Q183 -12 151 2T95 42T58 106T45 189Q45 250 63 310T118 418T210 495T338 525Q377 525 413 515T477 482L496 513H564L455 0H384L386 58Q357 21 315 5T223 -12ZM249 60Q298 60 332 76T393 122L458 429Q438 439 409 445T344 452Q292 452 253 430T188 371T149 290T136 198Q136 132 165 96T249 60ZM445 728H570L402 588H323L445 728Z"  />
<glyph unicode="&#xE2;" horiz-adv-x="603" d="M223 -12Q183 -12 151 2T95 42T58 106T45 189Q45 250 63 310T118 418T210 495T338 525Q377 525 413 515T477 482L496 513H564L455 0H384L386 58Q357 21 315 5T223 -12ZM249 60Q298 60 332 76T393 122L458 429Q438 439 409 445T344 452Q292 452 253 430T188 371T149 290T136 198Q136 132 165 96T249 60ZM334 728H439L504 588H431L378 670L291 588H208L334 728Z"  />
<glyph unicode="&#xE3;" horiz-adv-x="603" d="M223 -12Q183 -12 151 2T95 42T58 106T45 189Q45 250 63 310T118 418T210 495T338 525Q377 525 413 515T477 482L496 513H564L455 0H384L386 58Q357 21 315 5T223 -12ZM249 60Q298 60 332 76T393 122L458 429Q438 439 409 445T344 452Q292 452 253 430T188 371T149 290T136 198Q136 132 165 96T249 60ZM429 592Q408 592 392 600T361 617T335 634T309 642Q286 642 274 628T255 594H194Q202 651 237 684T317 717Q338 717 354 709T385 692T412 675T438 667Q461 667 473 681T492 715H553Q549 686 538 664T509 625T472 601T429 592Z"  />
<glyph unicode="&#xE4;" horiz-adv-x="603" d="M223 -12Q183 -12 151 2T95 42T58 106T45 189Q45 250 63 310T118 418T210 495T338 525Q377 525 413 515T477 482L496 513H564L455 0H384L386 58Q357 21 315 5T223 -12ZM249 60Q298 60 332 76T393 122L458 429Q438 439 409 445T344 452Q292 452 253 430T188 371T149 290T136 198Q136 132 165 96T249 60ZM240 711H336L315 611H219L240 711ZM434 711H530L509 611H413L434 711Z"  />
<glyph unicode="&#xE5;" horiz-adv-x="603" d="M223 -12Q183 -12 151 2T95 42T58 106T45 189Q45 250 63 310T118 418T210 495T338 525Q377 525 413 515T477 482L496 513H564L455 0H384L386 58Q357 21 315 5T223 -12ZM249 60Q298 60 332 76T393 122L458 429Q438 439 409 445T344 452Q292 452 253 430T188 371T149 290T136 198Q136 132 165 96T249 60ZM364 584Q343 584 326 591T295 611T275 641T267 678Q267 703 277 725T305 762T346 787T397 796Q439 796 466 769T494 701Q494 676 484 655T456 618T415 593T364 584ZM372 633Q398 633 418 651T438 695Q438 716 425 731T389 747Q363 747 343 729T323 684Q323 664 336 649T372 633Z"  />
<glyph unicode="&#xE6;" horiz-adv-x="861" d="M179 -12Q144 -12 115 -3T66 23T35 62T24 111Q24 169 52 205T126 261T225 288T331 296H381L389 331Q391 343 392 353T394 374Q394 414 368 431T289 449Q238 449 196 436T122 408L138 482Q171 499 212 512T306 525Q360 525 401 509T461 458Q493 489 536 507T637 525Q724 525 770 481T818 362Q818 333 813 302T799 242H453Q451 231 451 220T451 198Q451 162 461 137T490 96T532 73T582 65Q672 65 744 103L728 26Q661 -12 563 -12Q510 -12 466 8T395 69Q357 33 301 11T179 -12ZM198 61Q273 61 341 102L368 231H330Q303 231 267 229T197 217T141 184T117 122Q117 95 137 78T198 61ZM628 454Q595 454 569 443T523 412T489 366T466 309H725Q727 321 728 333T729 355Q729 400 702 427T628 454Z"  />
<glyph unicode="&#xE7;" horiz-adv-x="474" d="M153 -204Q122 -204 98 -196L109 -147Q118 -149 129 -150T156 -152Q174 -152 192 -145T210 -114Q210 -96 191 -86T149 -70L195 -5Q162 3 135 21T87 66T56 127T45 200Q45 261 63 319T117 423T208 497T336 525Q374 525 410 517T465 495L449 420Q428 431 399 439T329 448Q282 448 246 428T186 374T149 296T136 206Q136 173 145 147T171 103T210 75T258 65Q296 65 332 74T394 97L378 20Q354 5 320 -3T248 -12L227 -48Q250 -54 264 -72T279 -110Q279 -133 269 -150T240 -180T200 -198T153 -204Z"  />
<glyph unicode="&#xE8;" horiz-adv-x="546" d="M248 -12Q207 -12 170 1T106 39T62 102T46 189Q46 250 62 310T111 418T197 495T322 525Q409 525 455 481T503 362Q503 333 498 302T484 242H138Q136 231 136 220T136 198Q136 162 146 137T175 96T217 73T267 65Q357 65 429 103L413 26Q346 -12 248 -12ZM313 454Q280 454 254 443T208 412T174 366T151 309H410Q412 321 413 333T414 355Q414 400 387 427T313 454ZM193 728H302L366 588H294L193 728Z"  />
<glyph unicode="&#xE9;" horiz-adv-x="546" d="M248 -12Q207 -12 170 1T106 39T62 102T46 189Q46 250 62 310T111 418T197 495T322 525Q409 525 455 481T503 362Q503 333 498 302T484 242H138Q136 231 136 220T136 198Q136 162 146 137T175 96T217 73T267 65Q357 65 429 103L413 26Q346 -12 248 -12ZM313 454Q280 454 254 443T208 412T174 366T151 309H410Q412 321 413 333T414 355Q414 400 387 427T313 454ZM413 728H538L370 588H291L413 728Z"  />
<glyph unicode="&#xEA;" horiz-adv-x="546" d="M248 -12Q207 -12 170 1T106 39T62 102T46 189Q46 250 62 310T111 418T197 495T322 525Q409 525 455 481T503 362Q503 333 498 302T484 242H138Q136 231 136 220T136 198Q136 162 146 137T175 96T217 73T267 65Q357 65 429 103L413 26Q346 -12 248 -12ZM313 454Q280 454 254 443T208 412T174 366T151 309H410Q412 321 413 333T414 355Q414 400 387 427T313 454ZM302 728H407L472 588H399L346 670L259 588H176L302 728Z"  />
<glyph unicode="&#xEB;" horiz-adv-x="546" d="M248 -12Q207 -12 170 1T106 39T62 102T46 189Q46 250 62 310T111 418T197 495T322 525Q409 525 455 481T503 362Q503 333 498 302T484 242H138Q136 231 136 220T136 198Q136 162 146 137T175 96T217 73T267 65Q357 65 429 103L413 26Q346 -12 248 -12ZM313 454Q280 454 254 443T208 412T174 366T151 309H410Q412 321 413 333T414 355Q414 400 387 427T313 454ZM208 711H304L283 611H187L208 711ZM402 711H498L477 611H381L402 711Z"  />
<glyph unicode="&#xEC;" horiz-adv-x="274" d="M147 513H235L126 0H38L147 513ZM69 728H178L242 588H170L69 728Z"  />
<glyph unicode="&#xED;" horiz-adv-x="274" d="M147 513H235L126 0H38L147 513ZM289 728H414L246 588H167L289 728Z"  />
<glyph unicode="&#xEE;" horiz-adv-x="274" d="M147 513H235L126 0H38L147 513ZM178 728H283L348 588H275L222 670L135 588H52L178 728Z"  />
<glyph unicode="&#xEF;" horiz-adv-x="274" d="M147 513H235L126 0H38L147 513ZM84 711H180L159 611H63L84 711ZM278 711H374L353 611H257L278 711Z"  />
<glyph unicode="&#xF0;" horiz-adv-x="588" d="M235 584L332 625Q294 664 252 692L299 734Q326 721 353 702T404 656L559 723L545 657L441 612Q485 552 512 477T540 317Q540 253 523 194T471 89T382 16T251 -12Q200 -12 162 3T98 45T61 105T48 177Q48 232 65 287T117 385T201 456T316 483Q354 483 387 471T443 436Q430 478 412 514T370 582L221 518L235 584ZM259 62Q306 62 341 80T399 130T433 202T445 287Q445 339 417 375T327 411Q280 411 245 392T187 341T152 268T140 184Q140 133 169 98T259 62Z"  />
<glyph unicode="&#xF1;" horiz-adv-x="603" d="M147 513H218L216 455Q245 492 291 508T388 525Q456 525 499 492T543 396Q543 375 538 350L464 0H376L449 345Q451 353 452 360T453 376Q453 416 427 434T360 453Q311 453 273 437T209 391L126 0H38L147 513ZM432 592Q411 592 395 600T364 617T338 634T312 642Q289 642 277 628T258 594H197Q205 651 240 684T320 717Q341 717 357 709T388 692T415 675T441 667Q464 667 476 681T495 715H556Q552 686 541 664T512 625T475 601T432 592Z"  />
<glyph unicode="&#xF2;" horiz-adv-x="588" d="M239 -12Q189 -12 153 3T94 45T59 106T48 181Q48 247 67 309T124 419T218 496T349 525Q399 525 435 510T494 468T529 407T540 332Q540 266 521 204T464 94T370 17T239 -12ZM253 61Q304 61 341 85T402 147T437 231T449 324Q449 351 443 374T423 416T388 444T336 454Q285 454 248 430T187 368T151 282T139 190Q139 163 145 140T165 99T201 71T253 61ZM222 728H331L395 588H323L222 728Z"  />
<glyph unicode="&#xF3;" horiz-adv-x="588" d="M239 -12Q189 -12 153 3T94 45T59 106T48 181Q48 247 67 309T124 419T218 496T349 525Q399 525 435 510T494 468T529 407T540 332Q540 266 521 204T464 94T370 17T239 -12ZM253 61Q304 61 341 85T402 147T437 231T449 324Q449 351 443 374T423 416T388 444T336 454Q285 454 248 430T187 368T151 282T139 190Q139 163 145 140T165 99T201 71T253 61ZM442 728H567L399 588H320L442 728Z"  />
<glyph unicode="&#xF4;" horiz-adv-x="588" d="M239 -12Q189 -12 153 3T94 45T59 106T48 181Q48 247 67 309T124 419T218 496T349 525Q399 525 435 510T494 468T529 407T540 332Q540 266 521 204T464 94T370 17T239 -12ZM253 61Q304 61 341 85T402 147T437 231T449 324Q449 351 443 374T423 416T388 444T336 454Q285 454 248 430T187 368T151 282T139 190Q139 163 145 140T165 99T201 71T253 61ZM331 728H436L501 588H428L375 670L288 588H205L331 728Z"  />
<glyph unicode="&#xF5;" horiz-adv-x="588" d="M239 -12Q189 -12 153 3T94 45T59 106T48 181Q48 247 67 309T124 419T218 496T349 525Q399 525 435 510T494 468T529 407T540 332Q540 266 521 204T464 94T370 17T239 -12ZM253 61Q304 61 341 85T402 147T437 231T449 324Q449 351 443 374T423 416T388 444T336 454Q285 454 248 430T187 368T151 282T139 190Q139 163 145 140T165 99T201 71T253 61ZM426 592Q405 592 389 600T358 617T332 634T306 642Q283 642 271 628T252 594H191Q199 651 234 684T314 717Q335 717 351 709T382 692T409 675T435 667Q458 667 470 681T489 715H550Q546 686 535 664T506 625T469 601T426 592Z"  />
<glyph unicode="&#xF6;" horiz-adv-x="588" d="M239 -12Q189 -12 153 3T94 45T59 106T48 181Q48 247 67 309T124 419T218 496T349 525Q399 525 435 510T494 468T529 407T540 332Q540 266 521 204T464 94T370 17T239 -12ZM253 61Q304 61 341 85T402 147T437 231T449 324Q449 351 443 374T423 416T388 444T336 454Q285 454 248 430T187 368T151 282T139 190Q139 163 145 140T165 99T201 71T253 61ZM237 711H333L312 611H216L237 711ZM431 711H527L506 611H410L431 711Z"  />
<glyph unicode="&#xF7;" horiz-adv-x="588" d="M209 160H320L296 51H185L209 160ZM60 334H552L536 262H44L60 334ZM290 541H401L377 432H266L290 541Z"  />
<glyph unicode="&#xF8;" horiz-adv-x="588" d="M239 -12Q199 -12 169 -2T115 25L82 -10H-9L73 75Q60 98 54 125T48 181Q48 247 67 309T124 419T218 496T349 525Q388 525 418 515T472 488L506 523H597L515 438Q540 392 540 332Q540 266 521 204T464 94T370 17T239 -12ZM139 190Q139 166 143 147L413 427Q384 454 336 454Q285 454 248 430T187 368T151 282T139 190ZM253 61Q304 61 341 85T402 147T437 231T449 324Q449 335 448 345T445 365L176 87Q204 61 253 61Z"  />
<glyph unicode="&#xF9;" horiz-adv-x="594" d="M210 -12Q142 -12 101 21T59 117Q59 138 64 163L138 513H226L153 168Q151 160 150 153T149 137Q149 97 173 79T238 60Q287 60 323 76T385 122L468 513H556L447 0H376L378 57Q349 21 305 5T210 -12ZM221 728H330L394 588H322L221 728Z"  />
<glyph unicode="&#xFA;" horiz-adv-x="594" d="M210 -12Q142 -12 101 21T59 117Q59 138 64 163L138 513H226L153 168Q151 160 150 153T149 137Q149 97 173 79T238 60Q287 60 323 76T385 122L468 513H556L447 0H376L378 57Q349 21 305 5T210 -12ZM441 728H566L398 588H319L441 728Z"  />
<glyph unicode="&#xFB;" horiz-adv-x="594" d="M210 -12Q142 -12 101 21T59 117Q59 138 64 163L138 513H226L153 168Q151 160 150 153T149 137Q149 97 173 79T238 60Q287 60 323 76T385 122L468 513H556L447 0H376L378 57Q349 21 305 5T210 -12ZM330 728H435L500 588H427L374 670L287 588H204L330 728Z"  />
<glyph unicode="&#xFC;" horiz-adv-x="594" d="M210 -12Q142 -12 101 21T59 117Q59 138 64 163L138 513H226L153 168Q151 160 150 153T149 137Q149 97 173 79T238 60Q287 60 323 76T385 122L468 513H556L447 0H376L378 57Q349 21 305 5T210 -12ZM236 711H332L311 611H215L236 711ZM430 711H526L505 611H409L430 711Z"  />
<glyph unicode="&#xFD;" horiz-adv-x="487" d="M-62 -235Q-73 -235 -84 -234T-103 -230L-88 -158Q-82 -159 -75 -159T-56 -160Q-28 -160 -3 -154T45 -131T91 -88T137 -18L142 -8L64 513H154L196 152Q198 135 199 113T201 69Q209 92 219 113T239 151L435 513H530L217 -30Q185 -86 155 -125T92 -188T22 -224T-62 -235ZM386 728H511L343 588H264L386 728Z"  />
<glyph unicode="&#xFE;" horiz-adv-x="603" d="M199 758H287L225 468Q253 497 292 511T377 525Q417 525 450 511T506 471T543 407T556 324Q556 263 538 203T482 95T391 18T263 -12Q224 -12 190 -4T130 24L76 -228H-12L199 758ZM256 61Q308 61 347 83T413 141T452 222T465 315Q465 381 436 417T352 453Q303 453 269 437T208 391L143 84Q163 73 192 67T256 61Z"  />
<glyph unicode="&#xFF;" horiz-adv-x="487" d="M-62 -235Q-73 -235 -84 -234T-103 -230L-88 -158Q-82 -159 -75 -159T-56 -160Q-28 -160 -3 -154T45 -131T91 -88T137 -18L142 -8L64 513H154L196 152Q198 135 199 113T201 69Q209 92 219 113T239 151L435 513H530L217 -30Q185 -86 155 -125T92 -188T22 -224T-62 -235ZM181 711H277L256 611H160L181 711ZM375 711H471L450 611H354L375 711Z"  />
<glyph unicode="&#x100;" horiz-adv-x="652" d="M374 724H472L578 0H485L462 185H163L62 0H-36L374 724ZM206 264H452L416 554Q413 575 411 598T411 647Q401 621 389 598T365 554L206 264ZM318 871H588L571 795H301L318 871Z"  />
<glyph unicode="&#x101;" horiz-adv-x="603" d="M223 -12Q183 -12 151 2T95 42T58 106T45 189Q45 250 63 310T118 418T210 495T338 525Q377 525 413 515T477 482L496 513H564L455 0H384L386 58Q357 21 315 5T223 -12ZM249 60Q298 60 332 76T393 122L458 429Q438 439 409 445T344 452Q292 452 253 430T188 371T149 290T136 198Q136 132 165 96T249 60ZM248 687H518L501 611H231L248 687Z"  />
<glyph unicode="&#x102;" horiz-adv-x="652" d="M374 724H472L578 0H485L462 185H163L62 0H-36L374 724ZM206 264H452L416 554Q413 575 411 598T411 647Q401 621 389 598T365 554L206 264ZM434 768Q376 768 340 798T303 882Q303 895 306 912H371Q370 907 370 896Q370 866 389 852T438 837Q470 837 495 855T533 912H602Q586 844 543 806T434 768Z"  />
<glyph unicode="&#x103;" horiz-adv-x="603" d="M223 -12Q183 -12 151 2T95 42T58 106T45 189Q45 250 63 310T118 418T210 495T338 525Q377 525 413 515T477 482L496 513H564L455 0H384L386 58Q357 21 315 5T223 -12ZM249 60Q298 60 332 76T393 122L458 429Q438 439 409 445T344 452Q292 452 253 430T188 371T149 290T136 198Q136 132 165 96T249 60ZM364 584Q306 584 270 614T233 698Q233 711 236 728H301Q300 723 300 712Q300 682 319 668T368 653Q400 653 425 671T463 728H532Q516 660 473 622T364 584Z"  />
<glyph unicode="&#x104;" horiz-adv-x="652" d="M492 -204Q439 -204 415 -181T391 -129Q391 -86 419 -55T485 0L462 185H163L62 0H-36L374 724H472L578 0H551Q521 -23 495 -50T469 -112Q469 -148 514 -148Q526 -148 537 -147T556 -144L544 -198Q520 -204 492 -204ZM206 264H452L416 554Q413 575 411 598T411 647Q401 621 389 598T365 554L206 264Z"  />
<glyph unicode="&#x105;" horiz-adv-x="603" d="M374 -204Q321 -204 297 -181T273 -129Q273 -105 282 -85T308 -47T343 -16T384 10L386 58Q357 21 315 5T223 -12Q183 -12 151 2T95 42T58 106T45 189Q45 250 63 310T118 418T210 495T338 525Q377 525 413 515T477 482L496 513H564L455 0H433Q403 -23 377 -50T351 -112Q351 -148 396 -148Q408 -148 419 -147T438 -144L426 -198Q402 -204 374 -204ZM249 60Q298 60 332 76T393 122L458 429Q438 439 409 445T344 452Q292 452 253 430T188 371T149 290T136 198Q136 132 165 96T249 60Z"  />
<glyph unicode="&#x106;" horiz-adv-x="599" d="M332 -12Q274 -12 226 7T142 63T88 149T68 262Q68 346 90 431T158 583T277 693T450 736Q476 736 502 734T552 726T596 713T629 696L612 616Q584 633 539 643T442 654Q368 654 315 618T229 526T180 402T164 268Q164 170 212 119T346 68Q391 68 434 77T519 104L503 25Q468 8 427 -2T332 -12ZM522 912H647L479 772H400L522 912Z"  />
<glyph unicode="&#x107;" horiz-adv-x="474" d="M247 -12Q204 -12 168 4T104 48T62 115T46 200Q46 261 64 319T118 423T209 497T337 525Q375 525 411 517T466 495L450 420Q429 431 400 439T330 448Q283 448 247 428T187 374T150 296T137 206Q137 173 146 147T172 103T211 75T259 65Q297 65 333 74T395 97L379 20Q355 5 321 -3T247 -12ZM414 728H539L371 588H292L414 728Z"  />
<glyph unicode="&#x108;" horiz-adv-x="599" d="M332 -12Q274 -12 226 7T142 63T88 149T68 262Q68 346 90 431T158 583T277 693T450 736Q476 736 502 734T552 726T596 713T629 696L612 616Q584 633 539 643T442 654Q368 654 315 618T229 526T180 402T164 268Q164 170 212 119T346 68Q391 68 434 77T519 104L503 25Q468 8 427 -2T332 -12ZM411 912H516L581 772H508L455 854L368 772H285L411 912Z"  />
<glyph unicode="&#x109;" horiz-adv-x="474" d="M247 -12Q204 -12 168 4T104 48T62 115T46 200Q46 261 64 319T118 423T209 497T337 525Q375 525 411 517T466 495L450 420Q429 431 400 439T330 448Q283 448 247 428T187 374T150 296T137 206Q137 173 146 147T172 103T211 75T259 65Q297 65 333 74T395 97L379 20Q355 5 321 -3T247 -12ZM303 728H408L473 588H400L347 670L260 588H177L303 728Z"  />
<glyph unicode="&#x10A;" horiz-adv-x="599" d="M332 -12Q274 -12 226 7T142 63T88 149T68 262Q68 346 90 431T158 583T277 693T450 736Q476 736 502 734T552 726T596 713T629 696L612 616Q584 633 539 643T442 654Q368 654 315 618T229 526T180 402T164 268Q164 170 212 119T346 68Q391 68 434 77T519 104L503 25Q468 8 427 -2T332 -12ZM410 904H521L498 795H387L410 904Z"  />
<glyph unicode="&#x10B;" horiz-adv-x="474" d="M247 -12Q204 -12 168 4T104 48T62 115T46 200Q46 261 64 319T118 423T209 497T337 525Q375 525 411 517T466 495L450 420Q429 431 400 439T330 448Q283 448 247 428T187 374T150 296T137 206Q137 173 146 147T172 103T211 75T259 65Q297 65 333 74T395 97L379 20Q355 5 321 -3T247 -12ZM302 720H413L390 611H279L302 720Z"  />
<glyph unicode="&#x10C;" horiz-adv-x="599" d="M332 -12Q274 -12 226 7T142 63T88 149T68 262Q68 346 90 431T158 583T277 693T450 736Q476 736 502 734T552 726T596 713T629 696L612 616Q584 633 539 643T442 654Q368 654 315 618T229 526T180 402T164 268Q164 170 212 119T346 68Q391 68 434 77T519 104L503 25Q468 8 427 -2T332 -12ZM320 912H393L446 829L533 912H616L490 772H385L320 912Z"  />
<glyph unicode="&#x10D;" horiz-adv-x="474" d="M247 -12Q204 -12 168 4T104 48T62 115T46 200Q46 261 64 319T118 423T209 497T337 525Q375 525 411 517T466 495L450 420Q429 431 400 439T330 448Q283 448 247 428T187 374T150 296T137 206Q137 173 146 147T172 103T211 75T259 65Q297 65 333 74T395 97L379 20Q355 5 321 -3T247 -12ZM212 728H285L338 645L425 728H508L382 588H277L212 728Z"  />
<glyph unicode="&#x10E;" horiz-adv-x="700" d="M199 724H417Q486 724 534 702T613 644T657 560T671 460Q671 372 648 290T575 143T448 39T265 0H46L199 724ZM275 650L153 74H269Q344 74 401 103T496 184T554 304T574 454Q574 496 564 532T531 594T475 635T392 650H275ZM285 912H358L411 829L498 912H581L455 772H350L285 912Z"  />
<glyph unicode="&#x10F;" horiz-adv-x="603" d="M238 -12Q198 -12 166 2T110 42T73 106T60 189Q60 250 78 310T133 418T225 495T353 525Q389 525 423 516T485 488L543 758H631L470 0H399L401 58Q372 21 330 5T238 -12ZM264 60Q313 60 347 76T408 122L473 429Q453 439 424 445T359 452Q307 452 268 430T203 371T164 290T151 198Q151 132 180 96T264 60ZM693 662L685 758H743Q765 758 779 746T794 713Q794 683 775 655T733 598L696 550H637L693 662Z"  />
<glyph unicode="&#x110;" horiz-adv-x="710" d="M62 401H140L209 724H427Q496 724 544 702T623 644T667 560T681 460Q681 372 658 290T585 143T458 39T275 0H56L125 329H47L62 401ZM285 650L232 401H384L369 329H217L163 74H279Q354 74 411 103T506 184T564 304T584 454Q584 496 574 532T541 594T485 635T402 650H285Z"  />
<glyph unicode="&#x111;" horiz-adv-x="603" d="M445 675H525L543 758H631L613 675H673L658 605H598L470 0H399L401 58Q372 21 330 5T238 -12Q198 -12 166 2T110 42T73 106T60 189Q60 250 78 310T133 418T225 495T353 525Q389 525 423 516T485 488L510 605H430L445 675ZM264 60Q313 60 347 76T408 122L473 429Q453 439 424 445T359 452Q307 452 268 430T203 371T164 290T151 198Q151 132 180 96T264 60Z"  />
<glyph unicode="&#x112;" horiz-adv-x="594" d="M199 724H634L618 648H275L224 408H517L501 332H208L154 76H497L481 0H46L199 724ZM294 871H564L547 795H277L294 871Z"  />
<glyph unicode="&#x113;" horiz-adv-x="546" d="M248 -12Q207 -12 170 1T106 39T62 102T46 189Q46 250 62 310T111 418T197 495T322 525Q409 525 455 481T503 362Q503 333 498 302T484 242H138Q136 231 136 220T136 198Q136 162 146 137T175 96T217 73T267 65Q357 65 429 103L413 26Q346 -12 248 -12ZM313 454Q280 454 254 443T208 412T174 366T151 309H410Q412 321 413 333T414 355Q414 400 387 427T313 454ZM216 687H486L469 611H199L216 687Z"  />
<glyph unicode="&#x114;" horiz-adv-x="594" d="M199 724H634L618 648H275L224 408H517L501 332H208L154 76H497L481 0H46L199 724ZM410 768Q352 768 316 798T279 882Q279 895 282 912H347Q346 907 346 896Q346 866 365 852T414 837Q446 837 471 855T509 912H578Q562 844 519 806T410 768Z"  />
<glyph unicode="&#x115;" horiz-adv-x="546" d="M248 -12Q207 -12 170 1T106 39T62 102T46 189Q46 250 62 310T111 418T197 495T322 525Q409 525 455 481T503 362Q503 333 498 302T484 242H138Q136 231 136 220T136 198Q136 162 146 137T175 96T217 73T267 65Q357 65 429 103L413 26Q346 -12 248 -12ZM313 454Q280 454 254 443T208 412T174 366T151 309H410Q412 321 413 333T414 355Q414 400 387 427T313 454ZM332 584Q274 584 238 614T201 698Q201 711 204 728H269Q268 723 268 712Q268 682 287 668T336 653Q368 653 393 671T431 728H500Q484 660 441 622T332 584Z"  />
<glyph unicode="&#x116;" horiz-adv-x="594" d="M199 724H634L618 648H275L224 408H517L501 332H208L154 76H497L481 0H46L199 724ZM379 904H490L467 795H356L379 904Z"  />
<glyph unicode="&#x117;" horiz-adv-x="546" d="M248 -12Q207 -12 170 1T106 39T62 102T46 189Q46 250 62 310T111 418T197 495T322 525Q409 525 455 481T503 362Q503 333 498 302T484 242H138Q136 231 136 220T136 198Q136 162 146 137T175 96T217 73T267 65Q357 65 429 103L413 26Q346 -12 248 -12ZM313 454Q280 454 254 443T208 412T174 366T151 309H410Q412 321 413 333T414 355Q414 400 387 427T313 454ZM301 720H412L389 611H278L301 720Z"  />
<glyph unicode="&#x118;" horiz-adv-x="594" d="M199 724H634L618 648H275L224 408H517L501 332H208L154 76H497L481 0H450Q420 -23 394 -50T368 -112Q368 -148 413 -148Q425 -148 436 -147T455 -144L443 -198Q419 -204 391 -204Q338 -204 314 -181T290 -129Q290 -86 318 -55T383 0H46L199 724Z"  />
<glyph unicode="&#x119;" horiz-adv-x="546" d="M302 -204Q249 -204 225 -181T201 -129Q201 -91 222 -62T273 -11Q267 -12 261 -12T248 -12Q207 -12 170 1T106 39T62 102T46 189Q46 250 62 310T111 418T197 495T322 525Q409 525 455 481T503 362Q503 333 498 302T484 242H138Q136 231 136 220T136 198Q136 162 146 137T175 96T217 73T267 65Q357 65 429 103L413 26L375 6Q335 -14 307 -45T279 -112Q279 -148 324 -148Q336 -148 347 -147T366 -144L354 -198Q330 -204 302 -204ZM313 454Q280 454 254 443T208 412T174 366T151 309H410Q412 321 413 333T414 355Q414 400 387 427T313 454Z"  />
<glyph unicode="&#x11A;" horiz-adv-x="594" d="M199 724H634L618 648H275L224 408H517L501 332H208L154 76H497L481 0H46L199 724ZM289 912H362L415 829L502 912H585L459 772H354L289 912Z"  />
<glyph unicode="&#x11B;" horiz-adv-x="546" d="M248 -12Q207 -12 170 1T106 39T62 102T46 189Q46 250 62 310T111 418T197 495T322 525Q409 525 455 481T503 362Q503 333 498 302T484 242H138Q136 231 136 220T136 198Q136 162 146 137T175 96T217 73T267 65Q357 65 429 103L413 26Q346 -12 248 -12ZM313 454Q280 454 254 443T208 412T174 366T151 309H410Q412 321 413 333T414 355Q414 400 387 427T313 454ZM211 728H284L337 645L424 728H507L381 588H276L211 728Z"  />
<glyph unicode="&#x11C;" horiz-adv-x="693" d="M346 -12Q281 -12 230 7T143 63T88 149T69 262Q69 352 94 437T172 589T303 696T489 736Q545 736 596 726T674 696L657 616Q629 633 583 643T481 654Q400 654 341 622T242 537T184 414T165 270Q165 170 215 119T356 67Q430 67 498 87L553 346H645L579 34Q528 11 473 0T346 -12ZM437 912H542L607 772H534L481 854L394 772H311L437 912Z"  />
<glyph unicode="&#x11D;" horiz-adv-x="603" d="M175 -240Q121 -240 76 -230T2 -205L17 -132Q43 -143 84 -154T176 -164Q222 -164 254 -154T309 -122T346 -69T369 9L378 48Q349 16 309 2T223 -12Q183 -12 151 2T95 42T58 106T45 189Q45 250 63 310T118 418T210 495T338 525Q377 525 413 515T477 482L496 513H564L456 3Q430 -121 363 -180T175 -240ZM249 60Q298 60 332 76T393 122L458 429Q438 439 409 445T344 452Q292 452 253 430T188 371T149 290T136 198Q136 132 165 96T249 60ZM334 728H439L504 588H431L378 670L291 588H208L334 728Z"  />
<glyph unicode="&#x11E;" horiz-adv-x="693" d="M346 -12Q281 -12 230 7T143 63T88 149T69 262Q69 352 94 437T172 589T303 696T489 736Q545 736 596 726T674 696L657 616Q629 633 583 643T481 654Q400 654 341 622T242 537T184 414T165 270Q165 170 215 119T356 67Q430 67 498 87L553 346H645L579 34Q528 11 473 0T346 -12ZM467 768Q409 768 373 798T336 882Q336 895 339 912H404Q403 907 403 896Q403 866 422 852T471 837Q503 837 528 855T566 912H635Q619 844 576 806T467 768Z"  />
<glyph unicode="&#x11F;" horiz-adv-x="603" d="M175 -240Q121 -240 76 -230T2 -205L17 -132Q43 -143 84 -154T176 -164Q222 -164 254 -154T309 -122T346 -69T369 9L378 48Q349 16 309 2T223 -12Q183 -12 151 2T95 42T58 106T45 189Q45 250 63 310T118 418T210 495T338 525Q377 525 413 515T477 482L496 513H564L456 3Q430 -121 363 -180T175 -240ZM249 60Q298 60 332 76T393 122L458 429Q438 439 409 445T344 452Q292 452 253 430T188 371T149 290T136 198Q136 132 165 96T249 60ZM364 584Q306 584 270 614T233 698Q233 711 236 728H301Q300 723 300 712Q300 682 319 668T368 653Q400 653 425 671T463 728H532Q516 660 473 622T364 584Z"  />
<glyph unicode="&#x120;" horiz-adv-x="693" d="M346 -12Q281 -12 230 7T143 63T88 149T69 262Q69 352 94 437T172 589T303 696T489 736Q545 736 596 726T674 696L657 616Q629 633 583 643T481 654Q400 654 341 622T242 537T184 414T165 270Q165 170 215 119T356 67Q430 67 498 87L553 346H645L579 34Q528 11 473 0T346 -12ZM436 904H547L524 795H413L436 904Z"  />
<glyph unicode="&#x121;" horiz-adv-x="603" d="M175 -240Q121 -240 76 -230T2 -205L17 -132Q43 -143 84 -154T176 -164Q222 -164 254 -154T309 -122T346 -69T369 9L378 48Q349 16 309 2T223 -12Q183 -12 151 2T95 42T58 106T45 189Q45 250 63 310T118 418T210 495T338 525Q377 525 413 515T477 482L496 513H564L456 3Q430 -121 363 -180T175 -240ZM249 60Q298 60 332 76T393 122L458 429Q438 439 409 445T344 452Q292 452 253 430T188 371T149 290T136 198Q136 132 165 96T249 60ZM333 720H444L421 611H310L333 720Z"  />
<glyph unicode="&#x122;" horiz-adv-x="693" d="M346 -12Q281 -12 230 7T143 63T88 149T69 262Q69 352 94 437T172 589T303 696T489 736Q545 736 596 726T674 696L657 616Q629 633 583 643T481 654Q400 654 341 622T242 537T184 414T165 270Q165 170 215 119T356 67Q430 67 498 87L553 346H645L579 34Q528 11 473 0T346 -12ZM206 -198L273 -126L257 -42H311Q338 -42 350 -55T362 -91Q362 -128 337 -157T279 -208L242 -233L206 -198Z"  />
<glyph unicode="&#x123;" horiz-adv-x="603" d="M175 -240Q121 -240 76 -230T2 -205L17 -132Q43 -143 84 -154T176 -164Q222 -164 254 -154T309 -122T346 -69T369 9L378 48Q349 16 309 2T223 -12Q183 -12 151 2T95 42T58 106T45 189Q45 250 63 310T118 418T210 495T338 525Q377 525 413 515T477 482L496 513H564L456 3Q430 -121 363 -180T175 -240ZM249 60Q298 60 332 76T393 122L458 429Q438 439 409 445T344 452Q292 452 253 430T188 371T149 290T136 198Q136 132 165 96T249 60ZM354 588Q327 588 315 601T303 637Q303 674 328 703T386 754L423 779L459 744L392 672L408 588H354Z"  />
<glyph unicode="&#x124;" horiz-adv-x="728" d="M550 334H208L138 0H46L199 724H291L224 410H566L633 724H725L572 0H480L550 334ZM441 912H546L611 772H538L485 854L398 772H315L441 912Z"  />
<glyph unicode="&#x125;" horiz-adv-x="603" d="M200 758H288L226 467Q256 497 298 511T388 525Q456 525 499 492T543 396Q543 375 538 350L464 0H376L449 345Q451 353 452 360T453 376Q453 416 427 434T360 453Q311 453 273 437T209 391L126 0H38L200 758ZM221 920H326L391 780H318L265 862L178 780H95L221 920Z"  />
<glyph unicode="&#x126;" horiz-adv-x="744" d="M117 595H179L207 724H299L271 595H613L641 724H733L705 595H771L756 523H690L580 0H488L558 334H216L146 0H54L164 523H102L117 595ZM574 410L598 523H256L232 410H574Z"  />
<glyph unicode="&#x127;" horiz-adv-x="603" d="M122 675H182L200 758H288L270 675H350L335 605H255L226 467Q256 497 298 511T388 525Q456 525 499 492T543 396Q543 375 538 350L464 0H376L449 345Q451 353 452 360T453 376Q453 416 427 434T360 453Q311 453 273 437T209 391L126 0H38L167 605H107L122 675Z"  />
<glyph unicode="&#x128;" horiz-adv-x="408" d="M164 724H440L425 653H333L209 71H302L287 0H11L26 71H117L241 653H149L164 724ZM379 776Q358 776 342 784T311 801T285 818T259 826Q236 826 224 812T205 778H144Q152 835 187 868T267 901Q288 901 304 893T335 876T362 859T388 851Q411 851 423 865T442 899H503Q499 870 488 848T459 809T422 785T379 776Z"  />
<glyph unicode="&#x129;" horiz-adv-x="274" d="M147 513H235L126 0H38L147 513ZM273 592Q252 592 236 600T205 617T179 634T153 642Q130 642 118 628T99 594H38Q46 651 81 684T161 717Q182 717 198 709T229 692T256 675T282 667Q305 667 317 681T336 715H397Q393 686 382 664T353 625T316 601T273 592Z"  />
<glyph unicode="&#x12A;" horiz-adv-x="408" d="M164 724H440L425 653H333L209 71H302L287 0H11L26 71H117L241 653H149L164 724ZM198 871H468L451 795H181L198 871Z"  />
<glyph unicode="&#x12B;" horiz-adv-x="274" d="M147 513H235L126 0H38L147 513ZM92 687H362L345 611H75L92 687Z"  />
<glyph unicode="&#x12C;" horiz-adv-x="408" d="M164 724H440L425 653H333L209 71H302L287 0H11L26 71H117L241 653H149L164 724ZM314 768Q256 768 220 798T183 882Q183 895 186 912H251Q250 907 250 896Q250 866 269 852T318 837Q350 837 375 855T413 912H482Q466 844 423 806T314 768Z"  />
<glyph unicode="&#x12D;" horiz-adv-x="274" d="M147 513H235L126 0H38L147 513ZM208 584Q150 584 114 614T77 698Q77 711 80 728H145Q144 723 144 712Q144 682 163 668T212 653Q244 653 269 671T307 728H376Q360 660 317 622T208 584Z"  />
<glyph unicode="&#x12E;" horiz-adv-x="408" d="M131 -204Q78 -204 54 -181T30 -129Q30 -86 58 -55T123 0H11L26 71H117L241 653H149L164 724H440L425 653H333L209 71H302L287 0H190Q160 -23 134 -50T108 -112Q108 -148 153 -148Q165 -148 176 -147T195 -144L183 -198Q159 -204 131 -204Z"  />
<glyph unicode="&#x12F;" horiz-adv-x="274" d="M147 513H235L126 0H113Q83 -23 57 -50T31 -112Q31 -148 76 -148Q88 -148 99 -147T118 -144L106 -198Q82 -204 54 -204Q1 -204 -23 -181T-47 -129Q-47 -86 -19 -55T46 0H38L147 513ZM189 724H277L255 620H167L189 724Z"  />
<glyph unicode="&#x130;" horiz-adv-x="408" d="M164 724H440L425 653H333L209 71H302L287 0H11L26 71H117L241 653H149L164 724ZM283 904H394L371 795H260L283 904Z"  />
<glyph unicode="&#x131;" horiz-adv-x="274" d="M147 513H235L126 0H38L147 513Z"  />
<glyph unicode="&#x132;" horiz-adv-x="758" d="M164 724H440L425 653H333L209 71H302L287 0H11L26 71H117L241 653H149L164 724ZM561 724H754L619 87Q606 25 583 -18T527 -89T456 -129T370 -142Q359 -142 344 -141T320 -137L337 -59Q345 -61 356 -61T378 -62Q436 -62 473 -25T530 102L647 653H546L561 724Z"  />
<glyph unicode="&#x133;" horiz-adv-x="548" d="M147 513H235L126 0H38L147 513ZM189 724H277L255 620H167L189 724ZM173 -234Q155 -234 140 -232T116 -227L131 -157Q139 -159 149 -160T170 -161Q226 -161 259 -125T312 1L421 513H509L398 -9Q385 -70 364 -113T314 -183T250 -222T173 -234ZM463 724H551L529 620H441L463 724Z"  />
<glyph unicode="&#x134;" horiz-adv-x="350" d="M153 724H346L211 87Q198 25 175 -18T119 -89T48 -129T-38 -142Q-49 -142 -64 -141T-88 -137L-71 -59Q-63 -61 -52 -61T-30 -62Q28 -62 65 -25T122 102L239 653H138L153 724ZM283 912H388L453 772H380L327 854L240 772H157L283 912Z"  />
<glyph unicode="&#x135;" horiz-adv-x="274" d="M-101 -234Q-119 -234 -134 -232T-158 -227L-143 -157Q-135 -159 -125 -160T-104 -161Q-48 -161 -15 -125T38 1L147 513H235L124 -9Q111 -70 90 -113T40 -183T-24 -222T-101 -234ZM177 728H282L347 588H274L221 670L134 588H51L177 728Z"  />
<glyph unicode="&#x136;" horiz-adv-x="635" d="M199 724H291L221 394L594 724H719L367 418Q341 395 324 382T291 359Q302 351 314 340T342 306L557 0H448L210 341L138 0H46L199 724ZM165 -198L232 -126L216 -42H270Q297 -42 309 -55T321 -91Q321 -128 296 -157T238 -208L201 -233L165 -198Z"  />
<glyph unicode="&#x137;" horiz-adv-x="530" d="M199 758H287L189 296L450 513H563L309 301Q278 275 255 264Q271 254 292 228L467 0H369L178 246L126 0H38L199 758ZM126 -198L193 -126L177 -42H231Q258 -42 270 -55T282 -91Q282 -128 257 -157T199 -208L162 -233L126 -198Z"  />
<glyph unicode="&#x139;" horiz-adv-x="522" d="M199 724H291L154 76H454L438 0H46L199 724ZM338 912H463L295 772H216L338 912Z"  />
<glyph unicode="&#x13A;" horiz-adv-x="314" d="M152 -6Q110 -6 84 11T58 73Q58 95 63 117L200 758H288L153 127Q152 123 151 117T150 105Q150 70 188 70Q204 70 220 71T251 77L236 7Q216 0 197 -3T152 -6ZM328 920H453L285 780H206L328 920Z"  />
<glyph unicode="&#x13B;" horiz-adv-x="522" d="M199 724H291L154 76H454L438 0H46L199 724ZM136 -198L203 -126L187 -42H241Q268 -42 280 -55T292 -91Q292 -128 267 -157T209 -208L172 -233L136 -198Z"  />
<glyph unicode="&#x13C;" horiz-adv-x="314" d="M152 -6Q110 -6 84 11T58 73Q58 95 63 117L200 758H288L153 127Q152 123 151 117T150 105Q150 70 188 70Q204 70 220 71T251 77L236 7Q216 0 197 -3T152 -6ZM27 -198L94 -126L78 -42H132Q159 -42 171 -55T183 -91Q183 -128 158 -157T100 -208L63 -233L27 -198Z"  />
<glyph unicode="&#x13D;" horiz-adv-x="522" d="M199 724H291L154 76H454L438 0H46L199 724ZM391 662L383 758H441Q463 758 477 746T492 713Q492 683 473 655T431 598L394 550H335L391 662Z"  />
<glyph unicode="&#x13E;" horiz-adv-x="314" d="M152 -6Q110 -6 84 11T58 73Q58 95 63 117L200 758H288L153 127Q152 123 151 117T150 105Q150 70 188 70Q204 70 220 71T251 77L236 7Q216 0 197 -3T152 -6ZM349 662L341 758H399Q421 758 435 746T450 713Q450 683 431 655T389 598L352 550H293L349 662Z"  />
<glyph unicode="&#x13F;" horiz-adv-x="522" d="M199 724H291L154 76H454L438 0H46L199 724ZM337 440H448L425 331H314L337 440Z"  />
<glyph unicode="&#x140;" horiz-adv-x="340" d="M152 -6Q110 -6 84 11T58 73Q58 95 63 117L200 758H288L153 127Q152 123 151 117T150 105Q150 70 188 70Q204 70 220 71T251 77L236 7Q216 0 197 -3T152 -6ZM292 405H390L370 309H272L292 405Z"  />
<glyph unicode="&#x141;" horiz-adv-x="532" d="M49 336L134 368L209 724H301L234 407L399 470L383 394L218 330L164 76H464L448 0H56L118 292L33 260L49 336Z"  />
<glyph unicode="&#x142;" horiz-adv-x="338" d="M52 345L128 374L210 758H298L224 411L334 453L317 376L207 334L163 127Q162 123 161 117T160 105Q160 70 198 70Q214 70 230 71T261 77L246 7Q226 0 207 -3T162 -6Q120 -6 94 11T68 73Q68 95 73 117L111 297L35 268L52 345Z"  />
<glyph unicode="&#x143;" horiz-adv-x="743" d="M199 724H292L491 237Q502 211 511 180T528 114Q531 145 536 178T547 237L650 724H740L587 0H495L296 487Q285 512 275 544T258 611Q255 579 250 546T239 487L136 0H46L199 724ZM562 912H687L519 772H440L562 912Z"  />
<glyph unicode="&#x144;" horiz-adv-x="603" d="M147 513H218L216 455Q245 492 291 508T388 525Q456 525 499 492T543 396Q543 375 538 350L464 0H376L449 345Q451 353 452 360T453 376Q453 416 427 434T360 453Q311 453 273 437T209 391L126 0H38L147 513ZM448 728H573L405 588H326L448 728Z"  />
<glyph unicode="&#x145;" horiz-adv-x="743" d="M199 724H292L491 237Q502 211 511 180T528 114Q531 145 536 178T547 237L650 724H740L587 0H495L296 487Q285 512 275 544T258 611Q255 579 250 546T239 487L136 0H46L199 724ZM210 -198L277 -126L261 -42H315Q342 -42 354 -55T366 -91Q366 -128 341 -157T283 -208L246 -233L210 -198Z"  />
<glyph unicode="&#x146;" horiz-adv-x="603" d="M147 513H218L216 455Q245 492 291 508T388 525Q456 525 499 492T543 396Q543 375 538 350L464 0H376L449 345Q451 353 452 360T453 376Q453 416 427 434T360 453Q311 453 273 437T209 391L126 0H38L147 513ZM140 -198L207 -126L191 -42H245Q272 -42 284 -55T296 -91Q296 -128 271 -157T213 -208L176 -233L140 -198Z"  />
<glyph unicode="&#x147;" horiz-adv-x="743" d="M199 724H292L491 237Q502 211 511 180T528 114Q531 145 536 178T547 237L650 724H740L587 0H495L296 487Q285 512 275 544T258 611Q255 579 250 546T239 487L136 0H46L199 724ZM360 912H433L486 829L573 912H656L530 772H425L360 912Z"  />
<glyph unicode="&#x148;" horiz-adv-x="603" d="M147 513H218L216 455Q245 492 291 508T388 525Q456 525 499 492T543 396Q543 375 538 350L464 0H376L449 345Q451 353 452 360T453 376Q453 416 427 434T360 453Q311 453 273 437T209 391L126 0H38L147 513ZM246 728H319L372 645L459 728H542L416 588H311L246 728Z"  />
<glyph unicode="&#x149;" horiz-adv-x="787" d="M182 656L174 758H247Q269 758 279 746T289 718Q289 692 278 669T249 624T211 582T171 543L149 521H91L182 656ZM331 513H402L400 455Q429 492 475 508T572 525Q640 525 683 492T727 396Q727 375 722 350L648 0H560L633 345Q635 353 636 360T637 376Q637 416 611 434T544 453Q495 453 457 437T393 391L310 0H222L331 513Z"  />
<glyph unicode="&#x14C;" horiz-adv-x="713" d="M307 -12Q245 -12 200 9T126 66T82 149T68 250Q68 305 77 362T105 473T153 575T225 658T321 715T444 736Q506 736 551 716T625 660T669 577T683 478Q683 423 674 366T646 254T598 151T526 67T430 9T307 -12ZM315 66Q388 66 440 106T524 206T572 338T587 472Q587 511 579 545T552 604T505 643T436 658Q387 658 348 640T279 591T227 520T191 435T171 344T164 256Q164 217 172 182T199 122T246 81T315 66ZM341 871H611L594 795H324L341 871Z"  />
<glyph unicode="&#x14D;" horiz-adv-x="588" d="M239 -12Q189 -12 153 3T94 45T59 106T48 181Q48 247 67 309T124 419T218 496T349 525Q399 525 435 510T494 468T529 407T540 332Q540 266 521 204T464 94T370 17T239 -12ZM253 61Q304 61 341 85T402 147T437 231T449 324Q449 351 443 374T423 416T388 444T336 454Q285 454 248 430T187 368T151 282T139 190Q139 163 145 140T165 99T201 71T253 61ZM245 687H515L498 611H228L245 687Z"  />
<glyph unicode="&#x14E;" horiz-adv-x="713" d="M307 -12Q245 -12 200 9T126 66T82 149T68 250Q68 305 77 362T105 473T153 575T225 658T321 715T444 736Q506 736 551 716T625 660T669 577T683 478Q683 423 674 366T646 254T598 151T526 67T430 9T307 -12ZM315 66Q388 66 440 106T524 206T572 338T587 472Q587 511 579 545T552 604T505 643T436 658Q387 658 348 640T279 591T227 520T191 435T171 344T164 256Q164 217 172 182T199 122T246 81T315 66ZM457 768Q399 768 363 798T326 882Q326 895 329 912H394Q393 907 393 896Q393 866 412 852T461 837Q493 837 518 855T556 912H625Q609 844 566 806T457 768Z"  />
<glyph unicode="&#x14F;" horiz-adv-x="588" d="M239 -12Q189 -12 153 3T94 45T59 106T48 181Q48 247 67 309T124 419T218 496T349 525Q399 525 435 510T494 468T529 407T540 332Q540 266 521 204T464 94T370 17T239 -12ZM253 61Q304 61 341 85T402 147T437 231T449 324Q449 351 443 374T423 416T388 444T336 454Q285 454 248 430T187 368T151 282T139 190Q139 163 145 140T165 99T201 71T253 61ZM361 584Q303 584 267 614T230 698Q230 711 233 728H298Q297 723 297 712Q297 682 316 668T365 653Q397 653 422 671T460 728H529Q513 660 470 622T361 584Z"  />
<glyph unicode="&#x150;" horiz-adv-x="713" d="M307 -12Q245 -12 200 9T126 66T82 149T68 250Q68 305 77 362T105 473T153 575T225 658T321 715T444 736Q506 736 551 716T625 660T669 577T683 478Q683 423 674 366T646 254T598 151T526 67T430 9T307 -12ZM315 66Q388 66 440 106T524 206T572 338T587 472Q587 511 579 545T552 604T505 643T436 658Q387 658 348 640T279 591T227 520T191 435T171 344T164 256Q164 217 172 182T199 122T246 81T315 66ZM397 912H513L385 772H310L397 912ZM564 912H680L552 772H477L564 912Z"  />
<glyph unicode="&#x151;" horiz-adv-x="588" d="M239 -12Q189 -12 153 3T94 45T59 106T48 181Q48 247 67 309T124 419T218 496T349 525Q399 525 435 510T494 468T529 407T540 332Q540 266 521 204T464 94T370 17T239 -12ZM253 61Q304 61 341 85T402 147T437 231T449 324Q449 351 443 374T423 416T388 444T336 454Q285 454 248 430T187 368T151 282T139 190Q139 163 145 140T165 99T201 71T253 61ZM301 728H417L289 588H214L301 728ZM468 728H584L456 588H381L468 728Z"  />
<glyph unicode="&#x152;" horiz-adv-x="1008" d="M467 0Q435 -5 403 -6T340 -7Q269 -7 218 14T134 72T84 158T68 264Q68 349 93 432T170 582T298 690T477 731Q519 731 556 730T620 724H1048L1032 648H689L638 408H931L915 332H622L568 76H911L895 0H467ZM352 67Q384 67 415 68T475 73L597 651Q571 654 541 655T481 657Q402 657 343 622T245 532T186 407T166 268Q166 223 178 186T213 123T271 82T352 67Z"  />
<glyph unicode="&#x153;" horiz-adv-x="939" d="M239 -12Q189 -12 153 3T94 45T59 106T48 181Q48 247 67 309T124 419T218 496T349 525Q415 525 455 499T515 429Q548 472 597 498T715 525Q802 525 848 481T896 362Q896 333 891 302T877 242H531Q529 231 529 220T529 198Q529 162 539 137T568 96T610 73T660 65Q750 65 822 103L806 26Q739 -12 641 -12Q580 -12 533 15T462 96Q425 47 370 18T239 -12ZM253 61Q304 61 341 85T402 147T437 231T449 324Q449 351 443 374T423 416T388 444T336 454Q285 454 248 430T187 368T151 282T139 190Q139 163 145 140T165 99T201 71T253 61ZM706 454Q673 454 647 443T601 412T567 366T544 309H803Q805 321 806 333T807 355Q807 400 780 427T706 454Z"  />
<glyph unicode="&#x154;" horiz-adv-x="652" d="M199 724H415Q464 724 501 712T564 677T603 623T616 555Q616 502 601 461T558 390T491 341T403 313Q415 304 424 291T444 257L569 0H470L354 241Q346 258 339 270T324 289T306 300T280 304H202L138 0H46L199 724ZM275 651L217 375H329Q369 375 404 385T465 417T506 471T521 547Q521 593 490 622T392 651H275ZM461 912H586L418 772H339L461 912Z"  />
<glyph unicode="&#x155;" horiz-adv-x="403" d="M147 513H227L217 442Q246 477 285 501T372 525Q391 525 408 522T435 514L417 430Q404 435 387 438T349 441Q302 441 263 415T201 353L126 0H38L147 513ZM387 728H512L344 588H265L387 728Z"  />
<glyph unicode="&#x156;" horiz-adv-x="652" d="M199 724H415Q464 724 501 712T564 677T603 623T616 555Q616 502 601 461T558 390T491 341T403 313Q415 304 424 291T444 257L569 0H470L354 241Q346 258 339 270T324 289T306 300T280 304H202L138 0H46L199 724ZM275 651L217 375H329Q369 375 404 385T465 417T506 471T521 547Q521 593 490 622T392 651H275ZM180 -198L247 -126L231 -42H285Q312 -42 324 -55T336 -91Q336 -128 311 -157T253 -208L216 -233L180 -198Z"  />
<glyph unicode="&#x157;" horiz-adv-x="403" d="M147 513H227L217 442Q246 477 285 501T372 525Q391 525 408 522T435 514L417 430Q404 435 387 438T349 441Q302 441 263 415T201 353L126 0H38L147 513ZM-24 -198L43 -126L27 -42H81Q108 -42 120 -55T132 -91Q132 -128 107 -157T49 -208L12 -233L-24 -198Z"  />
<glyph unicode="&#x158;" horiz-adv-x="652" d="M199 724H415Q464 724 501 712T564 677T603 623T616 555Q616 502 601 461T558 390T491 341T403 313Q415 304 424 291T444 257L569 0H470L354 241Q346 258 339 270T324 289T306 300T280 304H202L138 0H46L199 724ZM275 651L217 375H329Q369 375 404 385T465 417T506 471T521 547Q521 593 490 622T392 651H275ZM259 912H332L385 829L472 912H555L429 772H324L259 912Z"  />
<glyph unicode="&#x159;" horiz-adv-x="403" d="M147 513H227L217 442Q246 477 285 501T372 525Q391 525 408 522T435 514L417 430Q404 435 387 438T349 441Q302 441 263 415T201 353L126 0H38L147 513ZM185 728H258L311 645L398 728H481L355 588H250L185 728Z"  />
<glyph unicode="&#x15A;" horiz-adv-x="579" d="M221 -12Q156 -12 100 -2T6 29L23 107Q62 89 117 78T229 67Q263 67 295 75T354 100T396 144T412 208Q412 248 382 275T283 330Q243 346 211 363T157 402T122 452T110 518Q110 628 181 682T373 736Q436 736 486 726T572 696L555 617Q515 636 469 646T365 656Q333 656 305 648T254 624T218 583T205 525Q205 485 235 458T334 403Q374 387 406 370T460 331T495 281T507 215Q507 159 485 117T425 46T334 3T221 -12ZM460 912H585L417 772H338L460 912Z"  />
<glyph unicode="&#x15B;" horiz-adv-x="479" d="M166 -12Q118 -12 74 -1T8 24L23 96Q35 90 52 84T89 73T131 65T174 62Q195 62 220 66T268 79T304 106T319 149Q319 178 291 194T217 226Q184 236 159 247T116 274T89 308T79 355Q79 400 95 432T141 485T210 515T295 525Q341 525 383 515T447 489L432 416Q408 430 369 441T287 452Q266 452 245 448T206 433T177 407T166 368Q166 339 193 323T267 291Q300 280 325 269T368 243T395 209T405 162Q405 115 385 82T332 28T255 -2T166 -12ZM383 728H508L340 588H261L383 728Z"  />
<glyph unicode="&#x15C;" horiz-adv-x="579" d="M221 -12Q156 -12 100 -2T6 29L23 107Q62 89 117 78T229 67Q263 67 295 75T354 100T396 144T412 208Q412 248 382 275T283 330Q243 346 211 363T157 402T122 452T110 518Q110 628 181 682T373 736Q436 736 486 726T572 696L555 617Q515 636 469 646T365 656Q333 656 305 648T254 624T218 583T205 525Q205 485 235 458T334 403Q374 387 406 370T460 331T495 281T507 215Q507 159 485 117T425 46T334 3T221 -12ZM349 912H454L519 772H446L393 854L306 772H223L349 912Z"  />
<glyph unicode="&#x15D;" horiz-adv-x="479" d="M166 -12Q118 -12 74 -1T8 24L23 96Q35 90 52 84T89 73T131 65T174 62Q195 62 220 66T268 79T304 106T319 149Q319 178 291 194T217 226Q184 236 159 247T116 274T89 308T79 355Q79 400 95 432T141 485T210 515T295 525Q341 525 383 515T447 489L432 416Q408 430 369 441T287 452Q266 452 245 448T206 433T177 407T166 368Q166 339 193 323T267 291Q300 280 325 269T368 243T395 209T405 162Q405 115 385 82T332 28T255 -2T166 -12ZM272 728H377L442 588H369L316 670L229 588H146L272 728Z"  />
<glyph unicode="&#x15E;" horiz-adv-x="579" d="M140 -204Q109 -204 85 -196L96 -147Q105 -149 116 -150T143 -152Q161 -152 179 -145T197 -114Q197 -96 178 -86T136 -70L178 -11Q126 -8 82 2T6 29L23 107Q62 89 117 78T229 67Q263 67 295 75T354 100T396 144T412 208Q412 248 382 275T283 330Q243 346 211 363T157 402T122 452T110 518Q110 628 181 682T373 736Q436 736 486 726T572 696L555 617Q515 636 469 646T365 656Q333 656 305 648T254 624T218 583T205 525Q205 485 235 458T334 403Q374 387 406 370T460 331T495 281T507 215Q507 160 487 119T430 49T343 5T235 -12L214 -48Q237 -54 251 -72T266 -110Q266 -133 256 -150T227 -180T187 -198T140 -204Z"  />
<glyph unicode="&#x15F;" horiz-adv-x="479" d="M101 -204Q70 -204 46 -196L57 -147Q66 -149 77 -150T104 -152Q122 -152 140 -145T158 -114Q158 -96 139 -86T97 -70L139 -11Q98 -8 63 2T8 24L23 96Q35 90 52 84T89 73T131 65T174 62Q195 62 220 66T268 79T304 106T319 149Q319 178 291 194T217 226Q184 236 159 247T116 274T89 308T79 355Q79 400 95 432T141 485T210 515T295 525Q341 525 383 515T447 489L432 416Q408 430 369 441T287 452Q266 452 245 448T206 433T177 407T166 368Q166 339 193 323T267 291Q300 280 325 269T368 243T395 209T405 162Q405 118 388 87T343 35T276 3T197 -11L175 -48Q198 -54 212 -72T227 -110Q227 -133 217 -150T188 -180T148 -198T101 -204Z"  />
<glyph unicode="&#x160;" horiz-adv-x="579" d="M221 -12Q156 -12 100 -2T6 29L23 107Q62 89 117 78T229 67Q263 67 295 75T354 100T396 144T412 208Q412 248 382 275T283 330Q243 346 211 363T157 402T122 452T110 518Q110 628 181 682T373 736Q436 736 486 726T572 696L555 617Q515 636 469 646T365 656Q333 656 305 648T254 624T218 583T205 525Q205 485 235 458T334 403Q374 387 406 370T460 331T495 281T507 215Q507 159 485 117T425 46T334 3T221 -12ZM258 912H331L384 829L471 912H554L428 772H323L258 912Z"  />
<glyph unicode="&#x161;" horiz-adv-x="479" d="M166 -12Q118 -12 74 -1T8 24L23 96Q35 90 52 84T89 73T131 65T174 62Q195 62 220 66T268 79T304 106T319 149Q319 178 291 194T217 226Q184 236 159 247T116 274T89 308T79 355Q79 400 95 432T141 485T210 515T295 525Q341 525 383 515T447 489L432 416Q408 430 369 441T287 452Q266 452 245 448T206 433T177 407T166 368Q166 339 193 323T267 291Q300 280 325 269T368 243T395 209T405 162Q405 115 385 82T332 28T255 -2T166 -12ZM181 728H254L307 645L394 728H477L351 588H246L181 728Z"  />
<glyph unicode="&#x162;" horiz-adv-x="562" d="M125 724H633L617 648H409L272 0H180L317 648H109L125 724ZM120 -198L187 -126L171 -42H225Q252 -42 264 -55T276 -91Q276 -128 251 -157T193 -208L156 -233L120 -198Z"  />
<glyph unicode="&#x163;" horiz-adv-x="422" d="M82 498L172 512L206 671H294L260 513H447L431 440H245L183 149Q181 141 180 134T179 119Q179 87 198 76T252 64Q281 64 305 68T349 80L333 8Q312 -1 284 -6T223 -12Q161 -12 125 13T88 97Q88 108 90 120T95 147L157 440H69L82 498ZM87 -198L154 -126L138 -42H192Q219 -42 231 -55T243 -91Q243 -128 218 -157T160 -208L123 -233L87 -198Z"  />
<glyph unicode="&#x164;" horiz-adv-x="562" d="M125 724H633L617 648H409L272 0H180L317 648H109L125 724ZM269 912H342L395 829L482 912H565L439 772H334L269 912Z"  />
<glyph unicode="&#x165;" horiz-adv-x="422" d="M82 498L172 512L206 671H294L260 513H447L431 440H245L183 149Q181 141 180 134T179 119Q179 87 198 76T252 64Q281 64 305 68T349 80L333 8Q312 -1 284 -6T223 -12Q161 -12 125 13T88 97Q88 108 90 120T95 147L157 440H69L82 498ZM391 698L383 794H441Q463 794 477 782T492 749Q492 719 473 691T431 634L394 586H335L391 698Z"  />
<glyph unicode="&#x166;" horiz-adv-x="562" d="M125 724H633L617 648H409L350 372H516L501 300H335L272 0H180L243 300H93L108 372H258L317 648H109L125 724Z"  />
<glyph unicode="&#x167;" horiz-adv-x="422" d="M82 498L172 512L206 671H294L260 513H447L431 440H245L214 294H325L310 224H199L183 149Q181 141 180 134T179 119Q179 87 198 76T252 64Q281 64 305 68T349 80L333 8Q312 -1 284 -6T223 -12Q161 -12 125 13T88 97Q88 108 90 120T95 147L111 224H52L67 294H126L157 440H69L82 498Z"  />
<glyph unicode="&#x168;" horiz-adv-x="689" d="M298 -12Q72 -12 72 164Q72 179 75 199T82 236L185 724H277L175 241Q168 210 168 182Q168 66 305 66Q392 66 438 105T504 231L608 724H700L592 213Q567 97 498 43T298 -12ZM515 776Q494 776 478 784T447 801T421 818T395 826Q372 826 360 812T341 778H280Q288 835 323 868T403 901Q424 901 440 893T471 876T498 859T524 851Q547 851 559 865T578 899H639Q635 870 624 848T595 809T558 785T515 776Z"  />
<glyph unicode="&#x169;" horiz-adv-x="594" d="M210 -12Q142 -12 101 21T59 117Q59 138 64 163L138 513H226L153 168Q151 160 150 153T149 137Q149 97 173 79T238 60Q287 60 323 76T385 122L468 513H556L447 0H376L378 57Q349 21 305 5T210 -12ZM425 592Q404 592 388 600T357 617T331 634T305 642Q282 642 270 628T251 594H190Q198 651 233 684T313 717Q334 717 350 709T381 692T408 675T434 667Q457 667 469 681T488 715H549Q545 686 534 664T505 625T468 601T425 592Z"  />
<glyph unicode="&#x16A;" horiz-adv-x="689" d="M298 -12Q72 -12 72 164Q72 179 75 199T82 236L185 724H277L175 241Q168 210 168 182Q168 66 305 66Q392 66 438 105T504 231L608 724H700L592 213Q567 97 498 43T298 -12ZM334 871H604L587 795H317L334 871Z"  />
<glyph unicode="&#x16B;" horiz-adv-x="594" d="M210 -12Q142 -12 101 21T59 117Q59 138 64 163L138 513H226L153 168Q151 160 150 153T149 137Q149 97 173 79T238 60Q287 60 323 76T385 122L468 513H556L447 0H376L378 57Q349 21 305 5T210 -12ZM244 687H514L497 611H227L244 687Z"  />
<glyph unicode="&#x16C;" horiz-adv-x="689" d="M298 -12Q72 -12 72 164Q72 179 75 199T82 236L185 724H277L175 241Q168 210 168 182Q168 66 305 66Q392 66 438 105T504 231L608 724H700L592 213Q567 97 498 43T298 -12ZM450 768Q392 768 356 798T319 882Q319 895 322 912H387Q386 907 386 896Q386 866 405 852T454 837Q486 837 511 855T549 912H618Q602 844 559 806T450 768Z"  />
<glyph unicode="&#x16D;" horiz-adv-x="594" d="M210 -12Q142 -12 101 21T59 117Q59 138 64 163L138 513H226L153 168Q151 160 150 153T149 137Q149 97 173 79T238 60Q287 60 323 76T385 122L468 513H556L447 0H376L378 57Q349 21 305 5T210 -12ZM360 584Q302 584 266 614T229 698Q229 711 232 728H297Q296 723 296 712Q296 682 315 668T364 653Q396 653 421 671T459 728H528Q512 660 469 622T360 584Z"  />
<glyph unicode="&#x16E;" horiz-adv-x="689" d="M298 -12Q72 -12 72 164Q72 179 75 199T82 236L185 724H277L175 241Q168 210 168 182Q168 66 305 66Q392 66 438 105T504 231L608 724H700L592 213Q567 97 498 43T298 -12ZM450 768Q429 768 412 775T381 795T361 825T353 862Q353 887 363 909T391 946T432 971T483 980Q525 980 552 953T580 885Q580 860 570 839T542 802T501 777T450 768ZM458 817Q484 817 504 835T524 879Q524 900 511 915T475 931Q449 931 429 913T409 868Q409 848 422 833T458 817Z"  />
<glyph unicode="&#x16F;" horiz-adv-x="594" d="M210 -12Q142 -12 101 21T59 117Q59 138 64 163L138 513H226L153 168Q151 160 150 153T149 137Q149 97 173 79T238 60Q287 60 323 76T385 122L468 513H556L447 0H376L378 57Q349 21 305 5T210 -12ZM360 584Q339 584 322 591T291 611T271 641T263 678Q263 703 273 725T301 762T342 787T393 796Q435 796 462 769T490 701Q490 676 480 655T452 618T411 593T360 584ZM368 633Q394 633 414 651T434 695Q434 716 421 731T385 747Q359 747 339 729T319 684Q319 664 332 649T368 633Z"  />
<glyph unicode="&#x170;" horiz-adv-x="689" d="M298 -12Q72 -12 72 164Q72 179 75 199T82 236L185 724H277L175 241Q168 210 168 182Q168 66 305 66Q392 66 438 105T504 231L608 724H700L592 213Q567 97 498 43T298 -12ZM390 912H506L378 772H303L390 912ZM557 912H673L545 772H470L557 912Z"  />
<glyph unicode="&#x171;" horiz-adv-x="594" d="M210 -12Q142 -12 101 21T59 117Q59 138 64 163L138 513H226L153 168Q151 160 150 153T149 137Q149 97 173 79T238 60Q287 60 323 76T385 122L468 513H556L447 0H376L378 57Q349 21 305 5T210 -12ZM300 728H416L288 588H213L300 728ZM467 728H583L455 588H380L467 728Z"  />
<glyph unicode="&#x172;" horiz-adv-x="689" d="M356 -204Q303 -204 279 -181T255 -129Q255 -91 278 -62T335 -11Q326 -12 317 -12T298 -12Q72 -12 72 164Q72 179 75 199T82 236L185 724H277L175 241Q168 210 168 182Q168 66 305 66Q392 66 438 105T504 231L608 724H700L592 213Q584 173 572 143T542 89T500 46T441 7Q387 -23 360 -51T333 -112Q333 -148 378 -148Q390 -148 401 -147T420 -144L408 -198Q384 -204 356 -204Z"  />
<glyph unicode="&#x173;" horiz-adv-x="594" d="M383 -204Q330 -204 306 -181T282 -129Q282 -86 310 -55T376 0L378 57Q349 21 305 5T210 -12Q142 -12 101 21T59 117Q59 138 64 163L138 513H226L153 168Q151 160 150 153T149 137Q149 97 173 79T238 60Q287 60 323 76T385 122L468 513H556L447 0H442Q412 -23 386 -50T360 -112Q360 -148 405 -148Q417 -148 428 -147T447 -144L435 -198Q411 -204 383 -204Z"  />
<glyph unicode="&#x174;" horiz-adv-x="1044" d="M600 489Q598 510 597 545T597 616Q583 581 567 546T540 489L286 0H189L118 724H214L257 190Q259 170 260 151T260 111Q267 131 276 150T295 190L567 724H669L715 190Q717 170 717 151T716 110Q724 131 733 150T753 190L1022 724H1122L745 0H648L600 489ZM600 912H705L770 772H697L644 854L557 772H474L600 912Z"  />
<glyph unicode="&#x175;" horiz-adv-x="780" d="M421 329Q420 341 419 358T418 394Q410 375 402 358T387 329L219 0H131L69 513H157L187 156Q189 141 189 123T189 85Q197 105 205 123T222 156L400 513H480L506 156Q507 141 507 123T508 84Q516 104 524 122T541 156L723 513H819L539 0H451L421 329ZM429 728H534L599 588H526L473 670L386 588H303L429 728Z"  />
<glyph unicode="&#x176;" horiz-adv-x="594" d="M256 286L110 724H205L292 451Q299 430 304 405T312 353Q326 379 342 404T374 451L577 724H680L347 283L288 0H196L256 286ZM367 912H472L537 772H464L411 854L324 772H241L367 912Z"  />
<glyph unicode="&#x177;" horiz-adv-x="487" d="M-62 -235Q-73 -235 -84 -234T-103 -230L-88 -158Q-82 -159 -75 -159T-56 -160Q-28 -160 -3 -154T45 -131T91 -88T137 -18L142 -8L64 513H154L196 152Q198 135 199 113T201 69Q209 92 219 113T239 151L435 513H530L217 -30Q185 -86 155 -125T92 -188T22 -224T-62 -235ZM275 728H380L445 588H372L319 670L232 588H149L275 728Z"  />
<glyph unicode="&#x178;" horiz-adv-x="594" d="M256 286L110 724H205L292 451Q299 430 304 405T312 353Q326 379 342 404T374 451L577 724H680L347 283L288 0H196L256 286ZM273 895H369L348 795H252L273 895ZM467 895H563L542 795H446L467 895Z"  />
<glyph unicode="&#x179;" horiz-adv-x="596" d="M-2 78L520 648H131L147 724H642L626 646L104 76H520L504 0H-18L-2 78ZM473 912H598L430 772H351L473 912Z"  />
<glyph unicode="&#x17A;" horiz-adv-x="495" d="M8 62L363 441H96L112 513H492L478 451L122 72H409L394 0H-5L8 62ZM388 728H513L345 588H266L388 728Z"  />
<glyph unicode="&#x17B;" horiz-adv-x="596" d="M-2 78L520 648H131L147 724H642L626 646L104 76H520L504 0H-18L-2 78ZM361 904H472L449 795H338L361 904Z"  />
<glyph unicode="&#x17C;" horiz-adv-x="495" d="M8 62L363 441H96L112 513H492L478 451L122 72H409L394 0H-5L8 62ZM276 720H387L364 611H253L276 720Z"  />
<glyph unicode="&#x17D;" horiz-adv-x="596" d="M-2 78L520 648H131L147 724H642L626 646L104 76H520L504 0H-18L-2 78ZM271 912H344L397 829L484 912H567L441 772H336L271 912Z"  />
<glyph unicode="&#x17E;" horiz-adv-x="495" d="M8 62L363 441H96L112 513H492L478 451L122 72H409L394 0H-5L8 62ZM186 728H259L312 645L399 728H482L356 588H251L186 728Z"  />
<glyph unicode="&#x192;" horiz-adv-x="634" d="M126 415H266L294 546Q314 640 371 687T510 734Q546 734 572 730T616 718L600 646Q580 653 560 655T514 658Q451 658 422 629T380 536L354 415H546L534 342H338L293 127Q280 66 259 23T209 -47T145 -86T68 -98Q50 -98 35 -96T11 -91L26 -21Q34 -23 44 -24T65 -25Q121 -25 154 11T207 137L250 342H114L126 415Z"  />
<glyph unicode="&#x218;" horiz-adv-x="579" d="M221 -12Q156 -12 100 -2T6 29L23 107Q62 89 117 78T229 67Q263 67 295 75T354 100T396 144T412 208Q412 248 382 275T283 330Q243 346 211 363T157 402T122 452T110 518Q110 628 181 682T373 736Q436 736 486 726T572 696L555 617Q515 636 469 646T365 656Q333 656 305 648T254 624T218 583T205 525Q205 485 235 458T334 403Q374 387 406 370T460 331T495 281T507 215Q507 159 485 117T425 46T334 3T221 -12ZM107 -198L174 -126L158 -42H212Q239 -42 251 -55T263 -91Q263 -128 238 -157T180 -208L143 -233L107 -198Z"  />
<glyph unicode="&#x219;" horiz-adv-x="479" d="M166 -12Q118 -12 74 -1T8 24L23 96Q35 90 52 84T89 73T131 65T174 62Q195 62 220 66T268 79T304 106T319 149Q319 178 291 194T217 226Q184 236 159 247T116 274T89 308T79 355Q79 400 95 432T141 485T210 515T295 525Q341 525 383 515T447 489L432 416Q408 430 369 441T287 452Q266 452 245 448T206 433T177 407T166 368Q166 339 193 323T267 291Q300 280 325 269T368 243T395 209T405 162Q405 115 385 82T332 28T255 -2T166 -12ZM68 -198L135 -126L119 -42H173Q200 -42 212 -55T224 -91Q224 -128 199 -157T141 -208L104 -233L68 -198Z"  />
<glyph unicode="&#x21A;" horiz-adv-x="562" d="M125 724H633L617 648H409L272 0H180L317 648H109L125 724ZM120 -198L187 -126L171 -42H225Q252 -42 264 -55T276 -91Q276 -128 251 -157T193 -208L156 -233L120 -198Z"  />
<glyph unicode="&#x21B;" horiz-adv-x="422" d="M82 498L172 512L206 671H294L260 513H447L431 440H245L183 149Q181 141 180 134T179 119Q179 87 198 76T252 64Q281 64 305 68T349 80L333 8Q312 -1 284 -6T223 -12Q161 -12 125 13T88 97Q88 108 90 120T95 147L157 440H69L82 498ZM87 -198L154 -126L138 -42H192Q219 -42 231 -55T243 -91Q243 -128 218 -157T160 -208L123 -233L87 -198Z"  />
<glyph unicode="&#x237;" horiz-adv-x="274" d="M-101 -234Q-119 -234 -134 -232T-158 -227L-143 -157Q-135 -159 -125 -160T-104 -161Q-48 -161 -15 -125T38 1L147 513H235L124 -9Q111 -70 90 -113T40 -183T-24 -222T-101 -234Z"  />
<glyph unicode="&#x2C6;" horiz-adv-x="438" d="M253 728H358L423 588H350L297 670L210 588H127L253 728Z"  />
<glyph unicode="&#x2C7;" horiz-adv-x="438" d="M155 728H228L281 645L368 728H451L325 588H220L155 728Z"  />
<glyph unicode="&#x2D8;" horiz-adv-x="438" d="M290 584Q232 584 196 614T159 698Q159 711 162 728H227Q226 723 226 712Q226 682 245 668T294 653Q326 653 351 671T389 728H458Q442 660 399 622T290 584Z"  />
<glyph unicode="&#x2D9;" horiz-adv-x="438" d="M244 720H355L332 611H221L244 720Z"  />
<glyph unicode="&#x2DA;" horiz-adv-x="438" d="M279 584Q258 584 241 591T210 611T190 641T182 678Q182 703 192 725T220 762T261 787T312 796Q354 796 381 769T409 701Q409 676 399 655T371 618T330 593T279 584ZM287 633Q313 633 333 651T353 695Q353 716 340 731T304 747Q278 747 258 729T238 684Q238 664 251 649T287 633Z"  />
<glyph unicode="&#x2DB;" horiz-adv-x="438" d="M154 -204Q101 -204 77 -181T53 -129Q53 -105 62 -85T88 -47T123 -16T164 10L215 1Q200 -11 185 -23T158 -50T139 -79T131 -112Q131 -148 176 -148Q188 -148 199 -147T218 -144L206 -198Q182 -204 154 -204Z"  />
<glyph unicode="&#x2DC;" horiz-adv-x="438" d="M343 592Q322 592 306 600T275 617T249 634T223 642Q200 642 188 628T169 594H108Q116 651 151 684T231 717Q252 717 268 709T299 692T326 675T352 667Q375 667 387 681T406 715H467Q463 686 452 664T423 625T386 601T343 592Z"  />
<glyph unicode="&#x2DD;" horiz-adv-x="438" d="M189 728H305L177 588H102L189 728ZM356 728H472L344 588H269L356 728Z"  />
<glyph unicode="&#x312;" horiz-adv-x="438" d="M280 588Q253 588 241 601T229 637Q229 674 254 703T312 754L349 779L385 744L318 672L334 588H280H280Z"  />
<glyph unicode="&#x315;" horiz-adv-x="438" d="M273 662L265 758H323Q345 758 359 746T374 713Q374 683 355 655T313 598L276 550H217L273 662Z"  />
<glyph unicode="&#x326;" horiz-adv-x="438" d="M60 -198L127 -126L111 -42H165Q192 -42 204 -55T216 -91Q216 -128 191 -157T133 -208L96 -233L60 -198Z"  />
<glyph unicode="&#x384;" horiz-adv-x="438" d="M264 758H388L305 582H269L264 758Z"  />
<glyph unicode="&#x385;" horiz-adv-x="438" d="M270 748H373L306 588H270V748ZM138 711H224L202 611H116L138 711ZM406 711H492L470 611H384L406 711Z"  />
<glyph unicode="&#x386;" horiz-adv-x="653" d="M375 724H473L579 0H486L463 185H164L63 0H-35L375 724ZM207 264H453L417 554Q414 575 412 598T412 647Q402 621 390 598T366 554L207 264ZM124 754H248L165 578H129L124 754Z"  />
<glyph unicode="&#x388;" horiz-adv-x="654" d="M259 724H694L678 648H335L284 408H577L561 332H268L214 76H557L541 0H106L259 724ZM60 754H184L101 578H65L60 754Z"  />
<glyph unicode="&#x389;" horiz-adv-x="792" d="M614 334H272L202 0H110L263 724H355L288 410H630L697 724H789L636 0H544L614 334ZM60 754H184L101 578H65L60 754Z"  />
<glyph unicode="&#x38A;" horiz-adv-x="509" d="M265 724H541L526 653H434L310 71H403L388 0H112L127 71H218L342 653H250L265 724ZM60 754H184L101 578H65L60 754Z"  />
<glyph unicode="&#x38C;" horiz-adv-x="762" d="M356 -12Q294 -12 249 9T175 66T131 149T117 250Q117 305 126 362T154 473T202 575T274 658T370 715T493 736Q555 736 600 716T674 660T718 577T732 478Q732 423 723 366T695 254T647 151T575 67T479 9T356 -12ZM364 66Q437 66 489 106T573 206T621 338T636 472Q636 511 628 545T601 604T554 643T485 658Q436 658 397 640T328 591T276 520T240 435T220 344T213 256Q213 217 221 182T248 122T295 81T364 66ZM60 754H184L101 578H65L60 754Z"  />
<glyph unicode="&#x38E;" horiz-adv-x="692" d="M354 286L208 724H303L390 451Q397 430 402 405T410 353Q424 379 440 404T472 451L675 724H778L445 283L386 0H294L354 286ZM48 754H172L89 578H53L48 754Z"  />
<glyph unicode="&#x38F;" horiz-adv-x="783" d="M79 76H211Q175 118 154 176T132 299Q132 377 153 455T219 595T331 697T493 736Q555 736 601 717T679 665T727 586T743 488Q743 362 694 257T544 76H683L667 0H395L408 59Q464 89 508 134T582 233T628 348T644 475Q644 514 634 547T604 605T554 644T485 658Q416 658 367 623T288 534T243 415T228 289Q228 211 255 151T328 59L315 0H64L79 76ZM75 754H199L116 578H80L75 754Z"  />
<glyph unicode="&#x390;" horiz-adv-x="314" d="M236 513L153 127Q152 123 151 117T150 105Q150 70 188 70Q204 70 220 71T251 77L236 7Q216 0 197 -3T152 -6Q110 -6 84 11T58 73Q58 95 63 117L148 513H236ZM189 748H292L225 588H189V748ZM57 711H143L121 611H35L57 711ZM325 711H411L389 611H303L325 711Z"  />
<glyph unicode="&#x391;" horiz-adv-x="652" d="M374 724H472L578 0H485L462 185H163L62 0H-36L374 724ZM206 264H452L416 554Q413 575 411 598T411 647Q401 621 389 598T365 554L206 264Z"  />
<glyph unicode="&#x392;" horiz-adv-x="635" d="M199 724H397Q448 724 487 712T551 679T590 629T603 566Q603 492 567 444T465 371Q514 352 540 315T567 227Q567 168 544 125T480 54T387 13T275 0H46L199 724ZM208 332L154 76H280Q316 76 350 84T411 112T454 160T471 231Q471 274 442 303T345 332H208ZM275 648L223 404H334Q369 404 400 412T455 439T493 486T507 553Q506 594 474 621T372 648H275Z"  />
<glyph unicode="&#x393;" horiz-adv-x="522" d="M199 724H591L575 648H275L138 0H46L199 724Z"  />
<glyph unicode="&#x394;" horiz-adv-x="662" d="M-11 78L374 724H472L586 78L570 0H-27L-11 78ZM86 76H495L414 554Q411 573 409 592T406 629Q398 611 389 592T368 554L86 76Z"  />
<glyph unicode="&#x395;" horiz-adv-x="594" d="M199 724H634L618 648H275L224 408H517L501 332H208L154 76H497L481 0H46L199 724Z"  />
<glyph unicode="&#x396;" horiz-adv-x="596" d="M-2 78L520 648H131L147 724H642L626 646L104 76H520L504 0H-18L-2 78Z"  />
<glyph unicode="&#x397;" horiz-adv-x="728" d="M550 334H208L138 0H46L199 724H291L224 410H566L633 724H725L572 0H480L550 334Z"  />
<glyph unicode="&#x398;" horiz-adv-x="713" d="M254 399H516L500 323H238L254 399ZM307 -12Q245 -12 200 9T126 66T82 149T68 250Q68 305 77 362T105 473T153 575T225 658T321 715T444 736Q506 736 551 716T625 660T669 577T683 478Q683 423 674 366T646 254T598 151T526 67T430 9T307 -12ZM315 66Q388 66 440 106T524 206T572 338T587 472Q587 511 579 545T552 604T505 643T436 658Q387 658 348 640T279 591T227 520T191 435T171 344T164 256Q164 217 172 182T199 122T246 81T315 66Z"  />
<glyph unicode="&#x399;" horiz-adv-x="408" d="M164 724H440L425 653H333L209 71H302L287 0H11L26 71H117L241 653H149L164 724Z"  />
<glyph unicode="&#x39A;" horiz-adv-x="635" d="M199 724H291L221 394L594 724H719L367 418Q341 395 324 382T291 359Q302 351 314 340T342 306L557 0H448L210 341L138 0H46L199 724Z"  />
<glyph unicode="&#x39B;" horiz-adv-x="652" d="M374 724H472L578 0H485L416 554Q413 575 411 598T411 647Q401 621 389 598T365 554L62 0H-36L374 724Z"  />
<glyph unicode="&#x39C;" horiz-adv-x="880" d="M199 724H307L425 376Q437 338 443 297Q454 318 467 337T496 376L774 724H877L724 0H636L746 519Q749 534 753 553T763 591Q750 571 737 552T713 519L459 204H398L289 519Q281 540 274 569T261 625Q258 599 254 571T244 519L134 0H46L199 724Z"  />
<glyph unicode="&#x39D;" horiz-adv-x="743" d="M199 724H292L491 237Q502 211 511 180T528 114Q531 145 536 178T547 237L650 724H740L587 0H495L296 487Q285 512 275 544T258 611Q255 579 250 546T239 487L136 0H46L199 724Z"  />
<glyph unicode="&#x39E;" horiz-adv-x="568" d="M126 409H491L475 331H110L126 409ZM143 724H608L592 646H127L143 724ZM6 78H471L455 0H-10L6 78Z"  />
<glyph unicode="&#x39F;" horiz-adv-x="713" d="M307 -12Q245 -12 200 9T126 66T82 149T68 250Q68 305 77 362T105 473T153 575T225 658T321 715T444 736Q506 736 551 716T625 660T669 577T683 478Q683 423 674 366T646 254T598 151T526 67T430 9T307 -12ZM315 66Q388 66 440 106T524 206T572 338T587 472Q587 511 579 545T552 604T505 643T436 658Q387 658 348 640T279 591T227 520T191 435T171 344T164 256Q164 217 172 182T199 122T246 81T315 66Z"  />
<glyph unicode="&#x3A0;" horiz-adv-x="728" d="M199 724H725L572 0H480L617 648H275L138 0H46L199 724Z"  />
<glyph unicode="&#x3A1;" horiz-adv-x="596" d="M199 724H423Q472 724 509 709T571 669T609 609T622 537Q622 473 601 424T541 342T447 291T322 274H196L138 0H46L199 724ZM275 651L211 347H329Q373 347 409 358T471 393T511 450T526 531Q526 555 519 576T496 614T458 641T401 651H275Z"  />
<glyph unicode="&#x3A3;" horiz-adv-x="566" d="M21 78L315 376L147 646L163 724H618L602 648H244L407 397L394 335L134 76H476L460 0H5L21 78Z"  />
<glyph unicode="&#x3A4;" horiz-adv-x="562" d="M125 724H633L617 648H409L272 0H180L317 648H109L125 724Z"  />
<glyph unicode="&#x3A5;" horiz-adv-x="594" d="M256 286L110 724H205L292 451Q299 430 304 405T312 353Q326 379 342 404T374 451L577 724H680L347 283L288 0H196L256 286Z"  />
<glyph unicode="&#x3A6;" horiz-adv-x="718" d="M258 0L276 86Q223 89 180 109T107 162T60 238T43 332Q43 399 68 460T140 566T251 639T394 666H399L411 724H503L489 659Q542 656 585 636T659 583T706 507T723 414Q723 346 698 286T626 180T515 107T372 80H367L350 0H258ZM627 405Q627 441 617 473T586 529T538 569T474 588L383 155H387Q441 155 485 175T560 230T609 310T627 405ZM139 341Q139 305 149 273T179 216T227 176T291 157L383 591H379Q325 591 281 571T206 516T157 436T139 341Z"  />
<glyph unicode="&#x3A7;" horiz-adv-x="608" d="M274 371L128 724H227L316 504Q322 490 326 473T335 439Q346 456 358 472T382 504L564 724H675L379 371L535 0H436L338 239Q325 268 319 302Q308 285 296 269T272 239L74 0H-37L274 371Z"  />
<glyph unicode="&#x3A8;" horiz-adv-x="714" d="M307 234Q201 245 146 299T91 438Q91 452 93 466T98 496L146 724H238L191 501Q188 486 186 472T184 444Q184 388 216 354T324 311L411 724H503L415 309Q509 320 558 368T625 501L672 724H764L712 477Q688 362 614 300T398 230L350 0H258L307 234Z"  />
<glyph unicode="&#x3A9;" horiz-adv-x="732" d="M28 76H160Q124 118 103 176T81 299Q81 377 102 455T168 595T280 697T442 736Q504 736 550 717T628 665T676 586T692 488Q692 362 643 257T493 76H632L616 0H344L357 59Q413 89 457 134T531 233T577 348T593 475Q593 514 583 547T553 605T503 644T434 658Q365 658 316 623T237 534T192 415T177 289Q177 211 204 151T277 59L264 0H13L28 76Z"  />
<glyph unicode="&#x3AA;" horiz-adv-x="408" d="M164 724H440L425 653H333L209 71H302L287 0H11L26 71H117L241 653H149L164 724ZM190 895H286L265 795H169L190 895ZM384 895H480L459 795H363L384 895Z"  />
<glyph unicode="&#x3AB;" horiz-adv-x="594" d="M256 286L110 724H205L292 451Q299 430 304 405T312 353Q326 379 342 404T374 451L577 724H680L347 283L288 0H196L256 286ZM273 895H369L348 795H252L273 895ZM467 895H563L542 795H446L467 895Z"  />
<glyph unicode="&#x3AC;" horiz-adv-x="612" d="M480 120Q477 106 477 97Q477 83 485 75T515 67Q523 67 534 68T554 72L540 5Q519 -6 477 -6Q438 -6 414 13T387 67Q359 28 316 8T218 -12Q137 -12 91 42T45 189Q45 250 62 310T112 418T196 495T314 525Q371 525 405 502T460 447L489 513H564L480 120ZM244 60Q273 60 296 68T338 89T372 119T399 152L444 366Q431 401 399 426T326 452Q279 452 244 430T184 371T148 290T136 198Q136 132 163 96T244 60ZM332 758H456L373 582H337L332 758Z"  />
<glyph unicode="&#x3AD;" horiz-adv-x="456" d="M207 -12Q162 -12 127 -1T69 29T33 73T20 125Q20 190 54 225T142 274Q117 289 104 314T90 374Q90 407 104 435T146 483T212 514T299 525Q346 525 387 517T452 494L437 424Q412 437 378 444T301 452Q245 452 212 430T179 367Q179 332 202 314T274 295H352L338 226H248Q179 226 146 202T112 138Q112 101 139 83T217 64Q268 64 306 71T380 92L364 18Q336 4 299 -4T207 -12ZM293 758H417L334 582H298L293 758Z"  />
<glyph unicode="&#x3AE;" horiz-adv-x="603" d="M147 513H218L216 455Q245 492 291 508T388 525Q456 525 499 492T543 396Q543 375 538 350L416 -228H328L449 345Q451 353 452 360T453 376Q453 416 427 434T360 453Q311 453 273 437T209 391L126 0H38L147 513ZM351 758H475L392 582H356L351 758Z"  />
<glyph unicode="&#x3AF;" horiz-adv-x="314" d="M236 513L153 127Q152 123 151 117T150 105Q150 70 188 70Q204 70 220 71T251 77L236 7Q216 0 197 -3T152 -6Q110 -6 84 11T58 73Q58 95 63 117L148 513H236ZM183 758H307L224 582H188L183 758Z"  />
<glyph unicode="&#x3B0;" horiz-adv-x="570" d="M244 -12Q151 -12 109 31T67 149Q67 186 76 228L137 513H225L164 230Q155 186 155 155Q155 107 177 85T250 62Q315 62 353 111T416 274Q424 315 428 357T432 444Q432 461 432 478T430 513H515Q517 493 518 473T520 430Q520 391 516 350T505 267Q494 201 474 149T422 61T346 7T244 -12ZM336 748H439L372 588H336V748ZM204 711H290L268 611H182L204 711ZM472 711H558L536 611H450L472 711Z"  />
<glyph unicode="&#x3B1;" horiz-adv-x="612" d="M480 120Q477 106 477 97Q477 83 485 75T515 67Q523 67 534 68T554 72L540 5Q519 -6 477 -6Q438 -6 414 13T387 67Q359 28 316 8T218 -12Q137 -12 91 42T45 189Q45 250 62 310T112 418T196 495T314 525Q371 525 405 502T460 447L489 513H564L480 120ZM244 60Q273 60 296 68T338 89T372 119T399 152L444 366Q431 401 399 426T326 452Q279 452 244 430T184 371T148 290T136 198Q136 132 163 96T244 60Z"  />
<glyph unicode="&#x3B2;" horiz-adv-x="606" d="M160 575Q171 627 194 664T249 724T318 759T396 770Q444 770 478 758T535 725T568 679T579 627Q579 583 563 548T521 487T462 443T394 416Q460 395 500 346T540 231Q540 181 521 137T468 59T384 7T274 -12Q227 -12 190 1T132 30L77 -228H-11L160 575ZM146 99Q170 83 205 74T278 65Q315 65 346 78T401 116T437 171T450 239Q450 294 410 331T285 387L299 454Q336 461 370 474T430 508T472 554T488 615Q488 630 483 644T467 670T437 688T393 695Q332 695 296 662T244 557L146 99Z"  />
<glyph unicode="&#x3B3;" horiz-adv-x="503" d="M213 152Q215 135 216 113T218 69Q226 92 236 113T256 151L452 513H547L246 -9L200 -228H112L159 -4L97 407Q95 424 87 435T58 446Q45 446 29 442L43 509Q58 514 70 516T100 519Q142 519 159 497T181 427L213 152Z"  />
<glyph unicode="&#x3B4;" horiz-adv-x="588" d="M322 505Q340 505 355 501T384 491L210 694L224 758H552L536 685H313L409 579Q436 549 459 519T501 456T529 388T540 312Q540 252 521 194T464 90T370 16T239 -12Q190 -12 154 2T95 40T60 98T48 171Q48 235 67 295T123 401T209 476T322 505ZM254 60Q303 60 339 82T400 141T437 223T449 314Q449 368 422 400T334 433Q285 433 249 411T188 352T151 271T139 179Q139 125 166 93T254 60Z"  />
<glyph unicode="&#x3B5;" horiz-adv-x="456" d="M207 -12Q162 -12 127 -1T69 29T33 73T20 125Q20 190 54 225T142 274Q117 289 104 314T90 374Q90 407 104 435T146 483T212 514T299 525Q346 525 387 517T452 494L437 424Q412 437 378 444T301 452Q245 452 212 430T179 367Q179 332 202 314T274 295H352L338 226H248Q179 226 146 202T112 138Q112 101 139 83T217 64Q268 64 306 71T380 92L364 18Q336 4 299 -4T207 -12Z"  />
<glyph unicode="&#x3B6;" horiz-adv-x="446" d="M248 0Q141 0 89 47T37 182Q37 252 65 324T142 462T255 586T390 685H176L192 758H540L526 696Q487 677 442 647T353 577T267 491T195 396T145 295T126 194Q126 126 161 100T266 74H319Q353 74 365 63T378 30Q378 16 371 -6T354 -52T331 -98T308 -134H232Q239 -120 247 -102T262 -65T276 -29T285 0H248Z"  />
<glyph unicode="&#x3B7;" horiz-adv-x="603" d="M147 513H218L216 455Q245 492 291 508T388 525Q456 525 499 492T543 396Q543 375 538 350L416 -228H328L449 345Q451 353 452 360T453 376Q453 416 427 434T360 453Q311 453 273 437T209 391L126 0H38L147 513Z"  />
<glyph unicode="&#x3B8;" horiz-adv-x="592" d="M398 770Q446 770 479 752T534 702T564 627T574 533Q574 457 556 376Q538 291 511 220T447 96T359 15T244 -14Q196 -14 163 4T108 54T78 129T68 223Q68 297 86 380Q104 465 131 536T195 660T283 741T398 770ZM254 63Q291 63 322 83T379 140T425 229T461 346H168Q153 269 153 211Q153 141 176 102T254 63ZM389 697Q352 697 321 677T265 621T219 534T183 419H476Q483 455 486 487T490 549Q490 618 467 657T389 697Z"  />
<glyph unicode="&#x3B9;" horiz-adv-x="314" d="M236 513L153 127Q152 123 151 117T150 105Q150 70 188 70Q204 70 220 71T251 77L236 7Q216 0 197 -3T152 -6Q110 -6 84 11T58 73Q58 95 63 117L148 513H236Z"  />
<glyph unicode="&#x3BA;" horiz-adv-x="530" d="M235 513L189 296L450 513H563L309 301Q278 275 255 264Q271 254 292 228L467 0H369L178 246L126 0H38L147 513H235Z"  />
<glyph unicode="&#x3BB;" horiz-adv-x="521" d="M272 538L266 582Q260 621 251 644T228 678T198 693T162 697Q151 697 144 697T128 694L143 763Q152 766 162 768T187 770Q255 770 293 732T346 599L423 100Q425 86 432 78T458 69Q469 69 477 70T491 73L476 4Q461 -1 449 -3T420 -6Q378 -6 361 16T338 77L303 362Q301 379 299 402T296 449Q287 425 277 402T256 361L51 0H-45L272 538Z"  />
<glyph unicode="&#x3BC;" horiz-adv-x="613" d="M478 -6Q441 -6 418 12T389 60Q360 22 316 5T219 -12Q156 -12 116 16Q118 -5 117 -31T109 -86L79 -228H-9L147 513H235L162 168Q160 160 159 153T158 137Q158 97 182 79T247 60Q296 60 332 76T394 122L477 513H565L481 120Q478 106 478 97Q478 83 486 75T516 67Q524 67 535 68T555 72L541 5Q520 -6 478 -6Z"  />
<glyph unicode="&#x3BD;" horiz-adv-x="487" d="M64 513H154L196 152Q198 135 199 113T201 69Q209 92 219 113T239 151L435 513H530L235 0H142L64 513Z"  />
<glyph unicode="&#x3BE;" horiz-adv-x="459" d="M46 198Q46 295 94 357T236 442Q201 459 179 493T157 579Q157 627 173 662T219 722T289 758T377 770Q424 770 462 760T525 736L510 666Q490 679 458 686T390 694Q245 694 245 572Q245 525 274 498T354 471H426L411 400H346Q303 400 265 389T199 355T154 296T137 211Q137 180 145 155T173 112T223 84T299 74H333Q367 74 379 63T392 30Q392 16 385 -6T368 -52T345 -98T322 -134H246Q253 -120 261 -102T276 -65T290 -29T299 0H289Q233 0 188 13T112 52T63 114T46 198Z"  />
<glyph unicode="&#x3BF;" horiz-adv-x="588" d="M239 -12Q189 -12 153 3T94 45T59 106T48 181Q48 247 67 309T124 419T218 496T349 525Q399 525 435 510T494 468T529 407T540 332Q540 266 521 204T464 94T370 17T239 -12ZM253 61Q304 61 341 85T402 147T437 231T449 324Q449 351 443 374T423 416T388 444T336 454Q285 454 248 430T187 368T151 282T139 190Q139 163 145 140T165 99T201 71T253 61Z"  />
<glyph unicode="&#x3C0;" horiz-adv-x="635" d="M100 513H654L638 440H529L462 127Q461 123 460 117T459 105Q459 70 497 70Q513 70 529 71T560 77L545 7Q525 0 506 -3T461 -6Q419 -6 393 11T367 73Q367 95 372 117L441 440H248L155 0H67L160 440H84L100 513Z"  />
<glyph unicode="&#x3C1;" horiz-adv-x="595" d="M93 303Q103 353 124 394T178 464T255 509T357 525Q411 525 447 509T506 464T538 400T548 324Q548 263 530 203T474 95T383 18T255 -12Q216 -12 182 -4T122 24L68 -228H-20L93 303ZM135 84Q155 73 184 67T248 61Q300 61 339 83T405 141T444 222T457 315Q457 342 452 367T434 411T399 442T341 454Q305 454 278 441T232 406T199 353T178 287L135 84Z"  />
<glyph unicode="&#x3C2;" horiz-adv-x="480" d="M138 216Q138 150 175 112T302 74H334Q368 74 380 63T393 30Q393 16 386 -6T369 -52T346 -98T323 -134H247Q254 -120 262 -102T277 -65T291 -29T300 0H286Q174 0 111 54T47 210Q47 267 65 323T119 424T210 497T338 525Q376 525 412 517T467 495L451 420Q430 431 401 439T331 448Q284 448 248 428T188 375T151 301T138 216Z"  />
<glyph unicode="&#x3C3;" horiz-adv-x="598" d="M475 440Q492 420 506 386T520 300Q520 246 504 191T452 90T363 17T232 -12Q185 -12 151 3T94 44T60 105T48 179Q48 246 67 306T125 413T221 486T356 513H624L608 440H475ZM429 310Q429 348 419 383T394 440H344Q291 440 253 418T189 361T151 280T139 188Q139 134 163 98T243 61Q292 61 327 84T385 145T418 225T429 310Z"  />
<glyph unicode="&#x3C4;" horiz-adv-x="436" d="M76 513H468L452 440H283L216 127Q215 123 214 117T213 105Q213 70 251 70Q267 70 283 71T314 77L299 7Q279 0 260 -3T215 -6Q173 -6 147 11T121 73Q121 95 126 117L195 440H60L76 513Z"  />
<glyph unicode="&#x3C5;" horiz-adv-x="570" d="M244 -12Q151 -12 109 31T67 149Q67 186 76 228L137 513H225L164 230Q155 186 155 155Q155 107 177 85T250 62Q315 62 353 111T416 274Q424 315 428 357T432 444Q432 461 432 478T430 513H515Q517 493 518 473T520 430Q520 391 516 350T505 267Q494 201 474 149T422 61T346 7T244 -12Z"  />
<glyph unicode="&#x3C6;" horiz-adv-x="723" d="M261 -11Q157 -8 101 48T44 196Q44 268 66 328T132 431T236 498T375 524L425 758H509L459 522Q511 521 552 506T621 463T664 399T679 315Q679 242 656 182T590 79T485 12T345 -13L299 -228H215L261 -11ZM591 307Q591 377 556 415T444 455L360 57Q410 58 452 75T525 125T573 203T591 307ZM132 204Q132 134 166 98T276 59L360 456Q310 454 268 436T196 386T149 307T132 204Z"  />
<glyph unicode="&#x3C7;" horiz-adv-x="503" d="M239 0Q234 16 229 38T222 81Q212 60 199 38T174 0L13 -228H-83L187 150L113 414Q105 445 75 445Q61 445 45 441L60 509Q83 519 115 519Q151 519 166 498T192 439L230 299Q235 283 239 261T246 217Q256 238 270 260T295 299L446 513H542L281 150L362 -129Q370 -160 400 -160Q414 -160 430 -156L415 -224Q392 -234 360 -234Q324 -234 309 -213T282 -154L239 0Z"  />
<glyph unicode="&#x3C8;" horiz-adv-x="699" d="M248 -9Q154 2 109 47T63 168Q63 196 71 234L131 513H219L158 230Q152 200 152 176Q152 126 178 98T263 62L387 642H471L347 59Q408 66 449 96T515 172T550 275T561 394Q561 451 547 513H628Q638 492 643 455T649 376Q649 301 633 233T579 112T481 26T332 -11L286 -228H202L248 -9Z"  />
<glyph unicode="&#x3C9;" horiz-adv-x="782" d="M205 -12Q133 -12 95 35T56 161Q56 228 73 285T118 389T180 466T249 513H342Q302 487 266 452T203 372T159 275T143 161Q143 118 159 90T216 62Q265 62 295 103T344 230L376 381H456L424 230Q414 183 414 147Q414 62 482 62Q514 62 541 83T588 139T619 221T630 320Q630 382 610 430T553 513H641Q671 486 695 433T719 308Q719 254 706 198T664 95T591 18T487 -12Q434 -12 401 6T353 59Q330 25 296 7T205 -12Z"  />
<glyph unicode="&#x3CA;" horiz-adv-x="314" d="M236 513L153 127Q152 123 151 117T150 105Q150 70 188 70Q204 70 220 71T251 77L236 7Q216 0 197 -3T152 -6Q110 -6 84 11T58 73Q58 95 63 117L148 513H236ZM87 711H183L162 611H66L87 711ZM281 711H377L356 611H260L281 711Z"  />
<glyph unicode="&#x3CB;" horiz-adv-x="570" d="M244 -12Q151 -12 109 31T67 149Q67 186 76 228L137 513H225L164 230Q155 186 155 155Q155 107 177 85T250 62Q315 62 353 111T416 274Q424 315 428 357T432 444Q432 461 432 478T430 513H515Q517 493 518 473T520 430Q520 391 516 350T505 267Q494 201 474 149T422 61T346 7T244 -12ZM234 711H330L309 611H213L234 711ZM428 711H524L503 611H407L428 711Z"  />
<glyph unicode="&#x3CC;" horiz-adv-x="588" d="M239 -12Q189 -12 153 3T94 45T59 106T48 181Q48 247 67 309T124 419T218 496T349 525Q399 525 435 510T494 468T529 407T540 332Q540 266 521 204T464 94T370 17T239 -12ZM253 61Q304 61 341 85T402 147T437 231T449 324Q449 351 443 374T423 416T388 444T336 454Q285 454 248 430T187 368T151 282T139 190Q139 163 145 140T165 99T201 71T253 61ZM333 758H457L374 582H338L333 758Z"  />
<glyph unicode="&#x3CD;" horiz-adv-x="570" d="M244 -12Q151 -12 109 31T67 149Q67 186 76 228L137 513H225L164 230Q155 186 155 155Q155 107 177 85T250 62Q315 62 353 111T416 274Q424 315 428 357T432 444Q432 461 432 478T430 513H515Q517 493 518 473T520 430Q520 391 516 350T505 267Q494 201 474 149T422 61T346 7T244 -12ZM330 758H454L371 582H335L330 758Z"  />
<glyph unicode="&#x3CE;" horiz-adv-x="782" d="M205 -12Q133 -12 95 35T56 161Q56 228 73 285T118 389T180 466T249 513H342Q302 487 266 452T203 372T159 275T143 161Q143 118 159 90T216 62Q265 62 295 103T344 230L376 381H456L424 230Q414 183 414 147Q414 62 482 62Q514 62 541 83T588 139T619 221T630 320Q630 382 610 430T553 513H641Q671 486 695 433T719 308Q719 254 706 198T664 95T591 18T487 -12Q434 -12 401 6T353 59Q330 25 296 7T205 -12ZM436 758H560L477 582H441L436 758Z"  />
<glyph unicode="&#x400;" horiz-adv-x="594" d="M199 724H634L618 648H275L224 408H517L501 332H208L154 76H497L481 0H46L199 724ZM271 912H380L444 772H372L271 912Z"  />
<glyph unicode="&#x401;" horiz-adv-x="594" d="M199 724H634L618 648H275L224 408H517L501 332H208L154 76H497L481 0H46L199 724ZM286 895H382L361 795H265L286 895ZM480 895H576L555 795H459L480 895Z"  />
<glyph unicode="&#x402;" horiz-adv-x="710" d="M354 75H367Q457 75 509 122T561 262Q561 320 522 355T418 391H302L220 0H128L265 648H87L103 724H551L535 648H357L318 466H436Q483 466 523 452T594 411T641 350T658 272Q658 208 638 158T580 72T487 19T363 0H339L354 75Z"  />
<glyph unicode="&#x403;" horiz-adv-x="522" d="M199 724H591L575 648H275L138 0H46L199 724ZM495 912H620L452 772H373L495 912Z"  />
<glyph unicode="&#x404;" horiz-adv-x="599" d="M332 -12Q274 -12 226 7T142 63T88 149T68 262Q68 346 90 431T158 583T277 693T450 736Q476 736 502 734T552 726T596 713T629 696L612 616Q584 633 539 643T442 654Q387 654 344 634T269 580T215 502T181 409H487L471 333H168Q166 316 165 300T164 268Q164 170 212 119T346 68Q391 68 434 77T519 104L503 25Q468 8 427 -2T332 -12Z"  />
<glyph unicode="&#x405;" horiz-adv-x="579" d="M221 -12Q156 -12 100 -2T6 29L23 107Q62 89 117 78T229 67Q263 67 295 75T354 100T396 144T412 208Q412 248 382 275T283 330Q243 346 211 363T157 402T122 452T110 518Q110 628 181 682T373 736Q436 736 486 726T572 696L555 617Q515 636 469 646T365 656Q333 656 305 648T254 624T218 583T205 525Q205 485 235 458T334 403Q374 387 406 370T460 331T495 281T507 215Q507 159 485 117T425 46T334 3T221 -12Z"  />
<glyph unicode="&#x406;" horiz-adv-x="408" d="M164 724H440L425 653H333L209 71H302L287 0H11L26 71H117L241 653H149L164 724Z"  />
<glyph unicode="&#x407;" horiz-adv-x="408" d="M164 724H440L425 653H333L209 71H302L287 0H11L26 71H117L241 653H149L164 724ZM190 895H286L265 795H169L190 895ZM384 895H480L459 795H363L384 895Z"  />
<glyph unicode="&#x408;" horiz-adv-x="350" d="M153 724H346L211 87Q198 25 175 -18T119 -89T48 -129T-38 -142Q-49 -142 -64 -141T-88 -137L-71 -59Q-63 -61 -52 -61T-30 -62Q28 -62 65 -25T122 102L239 653H138L153 724Z"  />
<glyph unicode="&#x409;" horiz-adv-x="1045" d="M609 648H370L273 293Q250 209 226 152T173 60T108 10T26 -6Q11 -6 -4 -3T-31 5L-16 77Q-10 75 0 73T22 71Q39 71 58 76T97 105T139 177T184 309L297 724H717L650 406H792Q840 406 877 392T940 355T979 299T993 231Q993 171 973 128T915 56T826 14T713 0H472L609 648ZM634 331L580 75H715Q750 75 782 83T840 109T881 155T896 225Q896 270 865 300T767 331H634Z"  />
<glyph unicode="&#x40A;" horiz-adv-x="1053" d="M550 334H208L138 0H46L199 724H291L224 410H566L633 724H725L658 406H800Q848 406 885 392T948 355T987 299T1001 231Q1001 171 981 128T923 56T834 14T721 0H480L550 334ZM642 331L588 75H723Q758 75 790 83T848 109T889 155T904 225Q904 270 873 300T775 331H642Z"  />
<glyph unicode="&#x40B;" horiz-adv-x="791" d="M125 724H573L557 648H379L337 452Q370 466 411 473T501 481Q606 481 655 440T705 317Q705 281 696 238L646 0H554L604 240Q608 257 609 272T611 302Q611 356 580 379T479 402Q437 402 399 397T322 381L242 0H150L287 648H109L125 724Z"  />
<glyph unicode="&#x40C;" horiz-adv-x="635" d="M199 724H291L222 401H289Q304 401 316 404T339 414T361 434T388 464L602 724H708L479 444Q428 382 379 362Q402 353 418 332T448 279L564 0H465L353 267Q346 285 340 297T325 316T306 327T280 330H207L138 0H46L199 724ZM514 912H639L471 772H392L514 912Z"  />
<glyph unicode="&#x40D;" horiz-adv-x="743" d="M199 724H289L186 237Q181 212 173 182T156 122Q176 155 198 187T240 242L649 724H740L587 0H497L600 487Q605 512 613 541T629 599Q609 567 588 536T547 482L138 0H46L199 724ZM337 912H446L510 772H438L337 912Z"  />
<glyph unicode="&#x40E;" horiz-adv-x="594" d="M57 -8Q46 -8 35 -7T16 -3L31 74Q37 72 45 71T64 70Q86 70 104 76T141 98T180 141T228 209L235 219L110 724H205L299 315L571 724H673L309 178Q273 124 245 88T188 31T129 1T57 -8ZM397 768Q339 768 303 798T266 882Q266 895 269 912H334Q333 907 333 896Q333 866 352 852T401 837Q433 837 458 855T496 912H565Q549 844 506 806T397 768Z"  />
<glyph unicode="&#x40F;" horiz-adv-x="720" d="M261 0H46L199 724H291L154 76H488L625 724H717L564 0H355L318 -171H224L261 0Z"  />
<glyph unicode="&#x410;" horiz-adv-x="652" d="M374 724H472L578 0H485L462 185H163L62 0H-36L374 724ZM206 264H452L416 554Q413 575 411 598T411 647Q401 621 389 598T365 554L206 264Z"  />
<glyph unicode="&#x411;" horiz-adv-x="616" d="M199 724H606L590 648H275L224 406H366Q414 406 451 392T514 355T553 299T567 231Q567 171 547 128T489 56T400 14T287 0H46L199 724ZM208 331L154 75H289Q324 75 356 83T414 109T455 155T470 225Q470 270 439 300T341 331H208Z"  />
<glyph unicode="&#x412;" horiz-adv-x="635" d="M199 724H397Q448 724 487 712T551 679T590 629T603 566Q603 492 567 444T465 371Q514 352 540 315T567 227Q567 168 544 125T480 54T387 13T275 0H46L199 724ZM208 332L154 76H280Q316 76 350 84T411 112T454 160T471 231Q471 274 442 303T345 332H208ZM275 648L223 404H334Q369 404 400 412T455 439T493 486T507 553Q506 594 474 621T372 648H275Z"  />
<glyph unicode="&#x413;" horiz-adv-x="522" d="M199 724H591L575 648H275L138 0H46L199 724Z"  />
<glyph unicode="&#x414;" horiz-adv-x="770" d="M5 76H50Q93 76 135 144T225 370L332 724H744L607 76H687L634 -171H540L577 0H83L46 -171H-48L5 76ZM401 648L314 358Q280 246 248 177T172 76H515L636 648H401Z"  />
<glyph unicode="&#x415;" horiz-adv-x="594" d="M199 724H634L618 648H275L224 408H517L501 332H208L154 76H497L481 0H46L199 724Z"  />
<glyph unicode="&#x416;" horiz-adv-x="920" d="M191 287Q215 317 239 338T290 369Q267 378 251 399T222 452L119 724H218L317 464Q331 429 345 415T390 401H443L512 724H604L535 401H584Q599 401 611 404T634 414T657 434T683 464L886 724H992L774 444Q750 414 726 393T675 362Q719 343 743 279L849 0H750L648 267Q634 302 620 316T575 330H520L451 0H359L428 330H381Q366 330 354 327T331 317T308 297T282 267L74 0H-32L191 287Z"  />
<glyph unicode="&#x417;" horiz-adv-x="574" d="M212 -12Q143 -12 92 1T6 31L23 107Q59 90 105 79T217 67Q252 67 286 75T348 101T392 147T409 218Q409 264 374 295T264 326H152L168 402H264Q297 402 331 412T393 443T438 493T456 563Q456 605 424 630T328 656Q275 656 224 643T137 613L154 694Q189 713 243 724T354 736Q451 736 501 693T552 578Q552 504 511 449T405 366Q453 347 479 309T505 220Q505 161 481 118T417 45T323 2T212 -12Z"  />
<glyph unicode="&#x418;" horiz-adv-x="743" d="M199 724H289L186 237Q181 212 173 182T156 122Q176 155 198 187T240 242L649 724H740L587 0H497L600 487Q605 512 613 541T629 599Q609 567 588 536T547 482L138 0H46L199 724Z"  />
<glyph unicode="&#x419;" horiz-adv-x="743" d="M199 724H289L186 237Q181 212 173 182T156 122Q176 155 198 187T240 242L649 724H740L587 0H497L600 487Q605 512 613 541T629 599Q609 567 588 536T547 482L138 0H46L199 724ZM476 768Q418 768 382 798T345 882Q345 895 348 912H413Q412 907 412 896Q412 866 431 852T480 837Q512 837 537 855T575 912H644Q628 844 585 806T476 768Z"  />
<glyph unicode="&#x41A;" horiz-adv-x="635" d="M199 724H291L222 401H289Q304 401 316 404T339 414T361 434T388 464L602 724H708L479 444Q428 382 379 362Q402 353 418 332T448 279L564 0H465L353 267Q346 285 340 297T325 316T306 327T280 330H207L138 0H46L199 724Z"  />
<glyph unicode="&#x41B;" horiz-adv-x="720" d="M609 648H370L273 293Q250 209 226 152T173 60T108 10T26 -6Q11 -6 -4 -3T-31 5L-16 77Q-10 75 0 73T22 71Q39 71 58 76T97 105T139 177T184 309L297 724H717L564 0H472L609 648Z"  />
<glyph unicode="&#x41C;" horiz-adv-x="880" d="M199 724H307L425 376Q437 338 443 297Q454 318 467 337T496 376L774 724H877L724 0H636L746 519Q749 534 753 553T763 591Q750 571 737 552T713 519L459 204H398L289 519Q281 540 274 569T261 625Q258 599 254 571T244 519L134 0H46L199 724Z"  />
<glyph unicode="&#x41D;" horiz-adv-x="728" d="M550 334H208L138 0H46L199 724H291L224 410H566L633 724H725L572 0H480L550 334Z"  />
<glyph unicode="&#x41E;" horiz-adv-x="713" d="M307 -12Q245 -12 200 9T126 66T82 149T68 250Q68 305 77 362T105 473T153 575T225 658T321 715T444 736Q506 736 551 716T625 660T669 577T683 478Q683 423 674 366T646 254T598 151T526 67T430 9T307 -12ZM315 66Q388 66 440 106T524 206T572 338T587 472Q587 511 579 545T552 604T505 643T436 658Q387 658 348 640T279 591T227 520T191 435T171 344T164 256Q164 217 172 182T199 122T246 81T315 66Z"  />
<glyph unicode="&#x41F;" horiz-adv-x="728" d="M199 724H725L572 0H480L617 648H275L138 0H46L199 724Z"  />
<glyph unicode="&#x420;" horiz-adv-x="596" d="M199 724H423Q472 724 509 709T571 669T609 609T622 537Q622 473 601 424T541 342T447 291T322 274H196L138 0H46L199 724ZM275 651L211 347H329Q373 347 409 358T471 393T511 450T526 531Q526 555 519 576T496 614T458 641T401 651H275Z"  />
<glyph unicode="&#x421;" horiz-adv-x="599" d="M332 -12Q274 -12 226 7T142 63T88 149T68 262Q68 346 90 431T158 583T277 693T450 736Q476 736 502 734T552 726T596 713T629 696L612 616Q584 633 539 643T442 654Q368 654 315 618T229 526T180 402T164 268Q164 170 212 119T346 68Q391 68 434 77T519 104L503 25Q468 8 427 -2T332 -12Z"  />
<glyph unicode="&#x422;" horiz-adv-x="562" d="M125 724H633L617 648H409L272 0H180L317 648H109L125 724Z"  />
<glyph unicode="&#x423;" horiz-adv-x="594" d="M57 -8Q46 -8 35 -7T16 -3L31 74Q37 72 45 71T64 70Q86 70 104 76T141 98T180 141T228 209L235 219L110 724H205L299 315L571 724H673L309 178Q273 124 245 88T188 31T129 1T57 -8Z"  />
<glyph unicode="&#x424;" horiz-adv-x="718" d="M258 0L276 86Q223 89 180 109T107 162T60 238T43 332Q43 399 68 460T140 566T251 639T394 666H399L411 724H503L489 659Q542 656 585 636T659 583T706 507T723 414Q723 346 698 286T626 180T515 107T372 80H367L350 0H258ZM627 405Q627 441 617 473T586 529T538 569T474 588L383 155H387Q441 155 485 175T560 230T609 310T627 405ZM139 341Q139 305 149 273T179 216T227 176T291 157L383 591H379Q325 591 281 571T206 516T157 436T139 341Z"  />
<glyph unicode="&#x425;" horiz-adv-x="608" d="M274 371L128 724H227L316 504Q322 490 326 473T335 439Q346 456 358 472T382 504L564 724H675L379 371L535 0H436L338 239Q325 268 319 302Q308 285 296 269T272 239L74 0H-37L274 371Z"  />
<glyph unicode="&#x426;" horiz-adv-x="743" d="M550 0H46L199 724H291L154 76H488L625 724H717L580 76H660L607 -171H513L550 0Z"  />
<glyph unicode="&#x427;" horiz-adv-x="656" d="M473 309Q405 281 310 281Q205 281 156 322T106 445Q106 480 115 524L157 724H249L207 522Q200 490 200 461Q200 407 231 384T332 360Q374 360 412 365T488 381L561 724H653L500 0H408L473 309Z"  />
<glyph unicode="&#x428;" horiz-adv-x="1121" d="M199 724H291L154 76H464L601 724H693L556 76H866L1003 724H1095L942 0H46L199 724Z"  />
<glyph unicode="&#x429;" horiz-adv-x="1121" d="M199 724H291L154 76H464L601 724H693L556 76H866L1003 724H1095L958 76H1038L985 -171H891L927 0H46L199 724Z"  />
<glyph unicode="&#x42A;" horiz-adv-x="728" d="M122 724H400L333 406H475Q523 406 560 392T623 355T662 299T676 231Q676 171 656 128T598 56T509 14T396 0H155L292 648H106L122 724ZM317 331L263 75H398Q433 75 465 83T523 109T564 155T579 225Q579 270 548 300T450 331H317Z"  />
<glyph unicode="&#x42B;" horiz-adv-x="859" d="M764 724H856L703 0H611L764 724ZM199 724H291L224 406H366Q414 406 451 392T514 355T553 299T567 231Q567 171 547 128T489 56T400 14T287 0H46L199 724ZM208 331L154 75H289Q324 75 356 83T414 109T455 155T470 225Q470 270 439 300T341 331H208Z"  />
<glyph unicode="&#x42C;" horiz-adv-x="619" d="M199 724H291L224 406H366Q414 406 451 392T514 355T553 299T567 231Q567 171 547 128T489 56T400 14T287 0H46L199 724ZM208 331L154 75H289Q324 75 356 83T414 109T455 155T470 225Q470 270 439 300T341 331H208Z"  />
<glyph unicode="&#x42D;" horiz-adv-x="599" d="M175 398H470Q473 426 473 456Q473 554 425 605T291 656Q246 656 203 647T118 620L134 699Q169 716 210 726T305 736Q363 736 411 717T495 661T549 575T569 462Q569 378 547 293T479 141T360 31T187 -12Q161 -12 135 -10T85 -2T41 11T8 28L25 108Q53 91 98 81T195 70Q250 70 293 90T369 146T423 226T457 322H159L175 398Z"  />
<glyph unicode="&#x42E;" horiz-adv-x="1026" d="M620 -12Q558 -12 513 9T439 66T395 149T381 250Q381 270 382 291T386 334H208L138 0H46L199 724H291L225 410H399Q414 474 442 533T515 637T619 709T757 736Q819 736 864 716T938 660T982 577T996 478Q996 423 987 366T959 254T911 151T839 67T743 9T620 -12ZM628 66Q701 66 753 106T837 206T885 338T900 472Q900 511 892 545T865 604T818 643T749 658Q700 658 661 640T592 591T540 520T504 435T484 344T477 256Q477 217 485 182T512 122T559 81T628 66Z"  />
<glyph unicode="&#x42F;" horiz-adv-x="652" d="M468 304H394Q379 304 367 301T343 291T320 271T294 241L104 0H-5L204 263Q237 305 268 321Q214 336 180 375T145 480Q145 540 164 585T219 662T306 708T421 724H649L496 0H404L468 304ZM240 488Q240 436 275 406T373 375H483L541 651H420Q339 651 290 613T240 488Z"  />
<glyph unicode="&#x430;" horiz-adv-x="603" d="M223 -12Q183 -12 151 2T95 42T58 106T45 189Q45 250 63 310T118 418T210 495T338 525Q377 525 413 515T477 482L496 513H564L455 0H384L386 58Q357 21 315 5T223 -12ZM249 60Q298 60 332 76T393 122L458 429Q438 439 409 445T344 452Q292 452 253 430T188 371T149 290T136 198Q136 132 165 96T249 60Z"  />
<glyph unicode="&#x431;" horiz-adv-x="587" d="M401 666Q364 660 335 647T281 608T238 545T200 454Q231 482 272 496T358 510Q398 510 431 496T487 456T524 392T537 309Q537 245 519 187T465 85T374 14T246 -12Q196 -12 161 4T102 49T68 112T57 186Q57 235 66 282T89 381Q115 476 144 541T210 649T290 712T390 742L581 769L564 691L401 666ZM333 438Q285 438 246 422T178 377L176 368Q165 324 157 283T148 195Q148 168 154 144T173 101T208 72T260 61Q309 61 344 82T402 137T435 214T446 302Q446 327 440 351T420 394T385 426T333 438Z"  />
<glyph unicode="&#x432;" horiz-adv-x="546" d="M147 513H336Q417 513 454 483T491 402Q491 354 466 320T398 265Q433 251 452 225T471 164Q471 120 451 89T399 38T325 9T241 0H38L147 513ZM172 229L139 70H247Q269 70 292 74T335 88T367 116T380 161Q380 189 361 209T291 229H172ZM218 443L186 294H276Q298 294 320 299T360 314T389 342T400 386Q400 412 380 427T312 443H218Z"  />
<glyph unicode="&#x433;" horiz-adv-x="417" d="M147 513H465L449 440H219L126 0H38L147 513Z"  />
<glyph unicode="&#x434;" horiz-adv-x="613" d="M-16 73H14Q30 73 49 80T87 110T126 170T162 270L227 513H564L470 73H543L499 -134H410L439 0H58L29 -134H-59L-16 73ZM293 440L247 265Q224 181 200 137T145 73H383L461 440H293Z"  />
<glyph unicode="&#x435;" horiz-adv-x="546" d="M248 -12Q207 -12 170 1T106 39T62 102T46 189Q46 250 62 310T111 418T197 495T322 525Q409 525 455 481T503 362Q503 333 498 302T484 242H138Q136 231 136 220T136 198Q136 162 146 137T175 96T217 73T267 65Q357 65 429 103L413 26Q346 -12 248 -12ZM313 454Q280 454 254 443T208 412T174 366T151 309H410Q412 321 413 333T414 355Q414 400 387 427T313 454Z"  />
<glyph unicode="&#x436;" horiz-adv-x="861" d="M79 -12Q68 -12 54 -10T26 -5T-1 4T-22 15L-7 88Q8 77 29 71T72 65Q106 65 134 87T182 144T213 224T224 316Q224 385 204 416T142 448Q122 448 101 445T64 433L81 509Q95 517 114 521T154 525Q226 525 267 472T309 322Q309 314 309 306T308 290H400L448 513H530L482 290H576Q586 337 605 379T651 454T712 506T787 525Q800 525 815 523T845 518T872 509T893 498L878 425Q847 448 793 448Q761 448 735 426T690 369T661 289T651 197Q651 128 673 97T737 65Q757 65 778 68T816 80L798 4Q784 -4 765 -8T725 -12Q653 -12 610 41T566 191Q566 200 566 209T567 227H469L421 0H339L387 227H299Q289 179 269 136T221 60T157 8T79 -12Z"  />
<glyph unicode="&#x437;" horiz-adv-x="456" d="M156 -12Q104 -12 64 -2T-5 24L11 94Q40 80 75 72T161 63Q183 63 207 67T250 81T283 109T296 155Q296 184 272 203T194 223H108L122 292H196Q217 292 239 297T281 314T313 344T326 390Q326 417 300 433T231 450Q188 450 150 443T83 422L98 492Q128 506 167 515T253 525Q330 525 375 493T421 410Q421 356 391 319T314 261Q349 247 368 220T387 157Q387 112 367 80T315 28T241 -2T156 -12Z"  />
<glyph unicode="&#x438;" horiz-adv-x="594" d="M210 -12Q142 -12 101 21T59 117Q59 138 64 163L138 513H226L153 168Q151 160 150 153T149 137Q149 97 173 79T238 60Q287 60 323 76T385 122L468 513H556L447 0H376L378 57Q349 21 305 5T210 -12Z"  />
<glyph unicode="&#x439;" horiz-adv-x="594" d="M210 -12Q142 -12 101 21T59 117Q59 138 64 163L138 513H226L153 168Q151 160 150 153T149 137Q149 97 173 79T238 60Q287 60 323 76T385 122L468 513H556L447 0H376L378 57Q349 21 305 5T210 -12ZM360 584Q302 584 266 614T229 698Q229 711 232 728H297Q296 723 296 712Q296 682 315 668T364 653Q396 653 421 671T459 728H528Q512 660 469 622T360 584Z"  />
<glyph unicode="&#x43A;" horiz-adv-x="527" d="M147 513H235L188 293H230Q243 293 252 294T269 300T286 312T305 332L464 513H566L389 310Q372 290 352 275T308 255Q328 250 342 234T366 198L462 0H367L275 185Q263 209 252 216T215 224H173L126 0H38L147 513Z"  />
<glyph unicode="&#x43B;" horiz-adv-x="589" d="M446 440H282L222 224Q202 153 182 108T138 38T87 4T25 -5Q10 -5 -2 -2T-21 4L-6 73Q7 68 28 68Q40 68 52 71T79 90T108 140T141 235L218 513H550L441 0H353L446 440Z"  />
<glyph unicode="&#x43C;" horiz-adv-x="720" d="M147 513H241L331 291Q337 276 342 260T350 223Q359 243 370 259T394 291L580 513H681L572 0H487L553 313Q558 333 563 357T575 404Q561 381 545 359T513 317L364 134H307L236 317Q226 341 219 371T206 428Q204 401 199 370T189 313L123 0H38L147 513Z"  />
<glyph unicode="&#x43D;" horiz-adv-x="611" d="M423 227H174L126 0H38L147 513H235L189 300H438L484 513H572L463 0H375L423 227Z"  />
<glyph unicode="&#x43E;" horiz-adv-x="588" d="M239 -12Q189 -12 153 3T94 45T59 106T48 181Q48 247 67 309T124 419T218 496T349 525Q399 525 435 510T494 468T529 407T540 332Q540 266 521 204T464 94T370 17T239 -12ZM253 61Q304 61 341 85T402 147T437 231T449 324Q449 351 443 374T423 416T388 444T336 454Q285 454 248 430T187 368T151 282T139 190Q139 163 145 140T165 99T201 71T253 61Z"  />
<glyph unicode="&#x43F;" horiz-adv-x="603" d="M147 513H218L216 455Q245 492 291 508T388 525Q456 525 499 492T543 396Q543 375 538 350L464 0H376L449 345Q451 353 452 360T453 376Q453 416 427 434T360 453Q311 453 273 437T209 391L126 0H38L147 513Z"  />
<glyph unicode="&#x440;" horiz-adv-x="603" d="M146 513H217L215 456Q244 492 285 508T377 525Q417 525 450 511T506 471T543 407T556 324Q556 263 538 203T482 95T391 18T263 -12Q224 -12 190 -4T130 24L76 -228H-12L146 513ZM256 61Q308 61 347 83T413 141T452 222T465 315Q465 381 436 417T352 453Q303 453 269 437T208 391L143 84Q163 73 192 67T256 61Z"  />
<glyph unicode="&#x441;" horiz-adv-x="474" d="M247 -12Q204 -12 168 4T104 48T62 115T46 200Q46 261 64 319T118 423T209 497T337 525Q375 525 411 517T466 495L450 420Q429 431 400 439T330 448Q283 448 247 428T187 374T150 296T137 206Q137 173 146 147T172 103T211 75T259 65Q297 65 333 74T395 97L379 20Q355 5 321 -3T247 -12Z"  />
<glyph unicode="&#x442;" horiz-adv-x="422" d="M66 513H464L448 440H293L200 0H112L205 440H50L66 513Z"  />
<glyph unicode="&#x443;" horiz-adv-x="487" d="M-62 -235Q-73 -235 -84 -234T-103 -230L-88 -158Q-82 -159 -75 -159T-56 -160Q-28 -160 -3 -154T45 -131T91 -88T137 -18L142 -8L64 513H154L196 152Q198 135 199 113T201 69Q209 92 219 113T239 151L435 513H530L217 -30Q185 -86 155 -125T92 -188T22 -224T-62 -235Z"  />
<glyph unicode="&#x444;" horiz-adv-x="887" d="M353 42Q327 13 293 1T214 -12Q134 -12 91 42T47 189Q47 250 63 310T114 418T200 495T326 525Q403 525 448 489L507 758H595L534 471Q584 525 673 525Q753 525 796 471T840 324Q840 263 824 203T773 95T687 18T561 -12Q485 -12 438 23L384 -228H296L353 42ZM333 452Q280 452 243 430T183 371T149 290T138 198Q138 132 161 96T239 60Q288 60 316 76T371 122L436 429Q416 440 392 446T333 452ZM554 61Q606 61 643 83T704 141T738 222T749 315Q749 381 726 417T648 453Q599 453 571 437T516 391L451 84Q471 73 495 67T554 61Z"  />
<glyph unicode="&#x445;" horiz-adv-x="508" d="M206 268L82 513H173L244 373Q257 346 263 325Q271 336 280 348T300 371L428 513H534L303 257L433 0H343L266 151Q259 164 255 175T246 198Q238 187 229 176T210 153L72 0H-34L206 268Z"  />
<glyph unicode="&#x446;" horiz-adv-x="598" d="M441 -3Q415 3 400 19T380 60Q351 22 307 5T210 -12Q142 -12 101 21T59 117Q59 138 64 163L138 513H226L153 168Q151 160 150 153T149 137Q149 97 173 79T238 60Q287 60 323 76T385 122L468 513H556L472 120Q471 116 471 112T470 102Q470 79 490 67T542 54L502 -134H413L441 -3Z"  />
<glyph unicode="&#x447;" horiz-adv-x="544" d="M217 165Q149 165 108 198T66 294Q66 315 71 340L108 513H196L160 345Q158 337 157 330T156 314Q156 274 180 256T245 237Q283 237 313 247T368 276L418 513H506L397 0H309L353 206Q325 185 290 175T217 165Z"  />
<glyph unicode="&#x448;" horiz-adv-x="924" d="M540 -12Q486 -12 449 8T397 68Q382 47 362 32T317 8T265 -7T210 -12Q142 -12 101 21T59 117Q59 138 64 163L138 513H226L153 168Q151 160 150 153T149 137Q149 97 173 79T238 60Q287 60 323 76T385 122L468 513H556L483 168Q481 160 480 153T479 137Q479 97 503 79T568 60Q617 60 653 76T715 122L798 513H886L777 0H706L708 57Q679 21 635 5T540 -12Z"  />
<glyph unicode="&#x449;" horiz-adv-x="930" d="M771 -3Q745 3 730 19T710 60Q681 22 637 5T540 -12Q486 -12 449 8T397 68Q382 47 362 32T317 8T265 -7T210 -12Q142 -12 101 21T59 117Q59 138 64 163L138 513H226L153 168Q151 160 150 153T149 137Q149 97 173 79T238 60Q287 60 323 76T385 122L468 513H556L483 168Q481 160 480 153T479 137Q479 97 503 79T568 60Q617 60 653 76T715 122L798 513H886L802 120Q801 116 801 112T800 101Q800 80 820 67T872 54L832 -134H743L771 -3Z"  />
<glyph unicode="&#x44A;" horiz-adv-x="581" d="M72 513H308L263 304H371Q450 304 490 271T530 181Q530 134 512 100T463 44T390 11T301 0H111L204 440H56L72 513ZM249 235L214 70H304Q327 70 351 75T394 91T426 121T439 168Q439 199 418 217T351 235H249Z"  />
<glyph unicode="&#x44B;" horiz-adv-x="731" d="M604 513H692L583 0H495L604 513ZM147 513H235L190 304H298Q377 304 417 271T457 181Q457 134 439 100T390 44T317 11T228 0H38L147 513ZM176 235L141 70H231Q254 70 278 75T321 91T353 121T366 168Q366 199 345 217T278 235H176Z"  />
<glyph unicode="&#x44C;" horiz-adv-x="508" d="M147 513H235L190 304H298Q377 304 417 271T457 181Q457 134 439 100T390 44T317 11T228 0H38L147 513ZM176 235L141 70H231Q254 70 278 75T321 91T353 121T366 168Q366 199 345 217T278 235H176Z"  />
<glyph unicode="&#x44D;" horiz-adv-x="474" d="M114 296H338V306Q338 339 329 365T302 409T263 437T215 447Q177 447 141 438T79 415L95 492Q119 507 153 515T227 524Q270 524 306 508T370 464T412 397T428 312Q428 251 410 193T356 89T265 15T137 -13Q99 -13 63 -5T8 17L24 92Q45 81 74 73T144 64Q180 64 210 76T264 111T304 161T330 223H99L114 296Z"  />
<glyph unicode="&#x44E;" horiz-adv-x="839" d="M490 -12Q440 -12 404 3T345 45T310 106T299 181Q299 192 299 203T301 227H174L126 0H38L147 513H235L189 300H315Q328 347 353 388T413 459T496 507T600 525Q650 525 686 510T745 468T780 407T791 332Q791 266 772 204T715 94T621 17T490 -12ZM504 61Q555 61 592 85T653 147T688 231T700 324Q700 351 694 374T674 416T639 444T587 454Q536 454 499 430T438 368T402 282T390 190Q390 163 396 140T416 99T452 71T504 61Z"  />
<glyph unicode="&#x44F;" horiz-adv-x="534" d="M342 207H292Q278 207 269 206T252 200T235 187T217 167L74 0H-28L132 187Q155 214 180 224Q141 235 115 263T89 336Q89 382 106 415T153 471T223 503T310 513H495L386 0H298L342 207ZM180 345Q179 310 205 292T276 274H356L392 444H305Q282 444 260 439T220 423T191 392T180 345Z"  />
<glyph unicode="&#x450;" horiz-adv-x="546" d="M248 -12Q207 -12 170 1T106 39T62 102T46 189Q46 250 62 310T111 418T197 495T322 525Q409 525 455 481T503 362Q503 333 498 302T484 242H138Q136 231 136 220T136 198Q136 162 146 137T175 96T217 73T267 65Q357 65 429 103L413 26Q346 -12 248 -12ZM313 454Q280 454 254 443T208 412T174 366T151 309H410Q412 321 413 333T414 355Q414 400 387 427T313 454ZM193 728H302L366 588H294L193 728Z"  />
<glyph unicode="&#x451;" horiz-adv-x="546" d="M248 -12Q207 -12 170 1T106 39T62 102T46 189Q46 250 62 310T111 418T197 495T322 525Q409 525 455 481T503 362Q503 333 498 302T484 242H138Q136 231 136 220T136 198Q136 162 146 137T175 96T217 73T267 65Q357 65 429 103L413 26Q346 -12 248 -12ZM313 454Q280 454 254 443T208 412T174 366T151 309H410Q412 321 413 333T414 355Q414 400 387 427T313 454ZM208 711H304L283 611H187L208 711ZM402 711H498L477 611H381L402 711Z"  />
<glyph unicode="&#x452;" horiz-adv-x="603" d="M112 675H171L189 758H277L259 675H340L325 605H244L212 455Q241 485 280 499T365 513Q445 513 486 459T527 312Q527 202 503 116T438 -31T348 -122T246 -154Q233 -154 221 -152T200 -147L215 -80Q220 -82 227 -83T243 -84Q277 -84 311 -54T374 28T419 151T436 303Q436 369 415 405T340 441Q291 441 257 425T196 380L116 0H28L156 605H97L112 675Z"  />
<glyph unicode="&#x453;" horiz-adv-x="417" d="M147 513H465L449 440H219L126 0H38L147 513ZM405 728H530L362 588H283L405 728Z"  />
<glyph unicode="&#x454;" horiz-adv-x="474" d="M247 -12Q204 -12 168 4T104 48T62 115T46 200Q46 261 64 319T118 423T209 497T337 525Q375 525 411 517T466 495L450 420Q429 431 400 439T330 448Q295 448 266 437T213 405T173 358T147 299H373L358 226H136V206Q136 173 145 147T172 103T211 75T259 65Q297 65 333 74T395 97L379 20Q355 5 321 -3T247 -12Z"  />
<glyph unicode="&#x455;" horiz-adv-x="479" d="M166 -12Q118 -12 74 -1T8 24L23 96Q35 90 52 84T89 73T131 65T174 62Q195 62 220 66T268 79T304 106T319 149Q319 178 291 194T217 226Q184 236 159 247T116 274T89 308T79 355Q79 400 95 432T141 485T210 515T295 525Q341 525 383 515T447 489L432 416Q408 430 369 441T287 452Q266 452 245 448T206 433T177 407T166 368Q166 339 193 323T267 291Q300 280 325 269T368 243T395 209T405 162Q405 115 385 82T332 28T255 -2T166 -12Z"  />
<glyph unicode="&#x456;" horiz-adv-x="274" d="M147 513H235L126 0H38L147 513ZM189 724H277L255 620H167L189 724Z"  />
<glyph unicode="&#x457;" horiz-adv-x="274" d="M147 513H235L126 0H38L147 513ZM84 711H180L159 611H63L84 711ZM278 711H374L353 611H257L278 711Z"  />
<glyph unicode="&#x458;" horiz-adv-x="274" d="M-101 -234Q-119 -234 -134 -232T-158 -227L-143 -157Q-135 -159 -125 -160T-104 -161Q-48 -161 -15 -125T38 1L147 513H235L124 -9Q111 -70 90 -113T40 -183T-24 -222T-101 -234ZM189 724H277L255 620H167L189 724Z"  />
<glyph unicode="&#x459;" horiz-adv-x="823" d="M446 440H282L222 224Q202 153 182 108T138 38T87 4T25 -5Q10 -5 -2 -2T-21 4L-6 73Q7 68 28 68Q40 68 52 71T79 90T108 140T141 235L218 513H550L505 304H613Q692 304 732 271T772 181Q772 134 754 100T705 44T632 11T543 0H353L446 440ZM491 235L456 70H546Q569 70 593 75T636 91T668 121T681 168Q681 199 660 217T593 235H491Z"  />
<glyph unicode="&#x45A;" horiz-adv-x="845" d="M423 227H174L126 0H38L147 513H235L189 300H438L484 513H572L527 304H635Q714 304 754 271T794 181Q794 134 776 100T727 44T654 11T565 0H375L423 227ZM513 235L478 70H568Q591 70 615 75T658 91T690 121T703 168Q703 199 682 217T615 235H513Z"  />
<glyph unicode="&#x45B;" horiz-adv-x="603" d="M122 675H182L200 758H288L270 675H350L335 605H255L226 467Q256 497 298 511T388 525Q456 525 499 492T543 396Q543 375 538 350L464 0H376L449 345Q451 353 452 360T453 376Q453 416 427 434T360 453Q311 453 273 437T209 391L126 0H38L167 605H107L122 675Z"  />
<glyph unicode="&#x45C;" horiz-adv-x="527" d="M147 513H235L188 293H230Q243 293 252 294T269 300T286 312T305 332L464 513H566L389 310Q372 290 352 275T308 255Q328 250 342 234T366 198L462 0H367L275 185Q263 209 252 216T215 224H173L126 0H38L147 513ZM432 728H557L389 588H310L432 728Z"  />
<glyph unicode="&#x45D;" horiz-adv-x="594" d="M210 -12Q142 -12 101 21T59 117Q59 138 64 163L138 513H226L153 168Q151 160 150 153T149 137Q149 97 173 79T238 60Q287 60 323 76T385 122L468 513H556L447 0H376L378 57Q349 21 305 5T210 -12ZM221 728H330L394 588H322L221 728Z"  />
<glyph unicode="&#x45E;" horiz-adv-x="487" d="M-62 -235Q-73 -235 -84 -234T-103 -230L-88 -158Q-82 -159 -75 -159T-56 -160Q-28 -160 -3 -154T45 -131T91 -88T137 -18L142 -8L64 513H154L196 152Q198 135 199 113T201 69Q209 92 219 113T239 151L435 513H530L217 -30Q185 -86 155 -125T92 -188T22 -224T-62 -235ZM305 584Q247 584 211 614T174 698Q174 711 177 728H242Q241 723 241 712Q241 682 260 668T309 653Q341 653 366 671T404 728H473Q457 660 414 622T305 584Z"  />
<glyph unicode="&#x45F;" horiz-adv-x="594" d="M149 -134L176 -9Q122 -1 91 31T59 117Q59 138 64 163L138 513H226L153 168Q151 160 150 153T149 137Q149 97 173 79T238 60Q287 60 323 76T385 122L468 513H556L447 0H376L378 57Q356 30 326 14T259 -8L232 -134H149Z"  />
<glyph unicode="&#x472;" horiz-adv-x="713" d="M307 -12Q245 -12 200 9T126 66T82 149T68 250Q68 305 77 362T105 473T153 575T225 658T321 715T444 736Q506 736 551 716T625 660T669 577T683 478Q683 423 674 366T646 254T598 151T526 67T430 9T307 -12ZM315 66Q368 66 410 87T484 145T537 228T570 325H166Q164 307 163 290T162 256Q162 217 171 182T198 122T246 81T315 66ZM436 658Q382 658 340 637T266 579T213 497T180 401H584Q586 419 587 437T589 472Q589 511 580 545T553 604T505 643T436 658Z"  />
<glyph unicode="&#x473;" horiz-adv-x="588" d="M239 -12Q189 -12 153 3T94 45T59 106T48 181Q48 247 67 309T124 419T218 496T349 525Q399 525 435 510T494 468T529 407T540 332Q540 266 521 204T464 94T370 17T239 -12ZM336 454Q298 454 268 441T215 405T176 353T151 290H449Q450 298 450 307T451 324Q451 351 445 374T424 416T388 444T336 454ZM253 61Q290 61 320 74T374 109T413 161T437 224H138Q137 215 137 207T137 190Q137 163 143 140T164 99T201 71T253 61Z"  />
<glyph unicode="&#x490;" horiz-adv-x="522" d="M199 724H513L546 875H640L591 648H275L138 0H46L199 724Z"  />
<glyph unicode="&#x491;" horiz-adv-x="433" d="M147 513H391L420 647H509L465 440H219L126 0H38L147 513Z"  />
<glyph unicode="&#x492;" horiz-adv-x="532" d="M58 395H139L209 724H601L585 648H285L231 395H375L360 323H216L148 0H56L124 323H43L58 395Z"  />
<glyph unicode="&#x493;" horiz-adv-x="427" d="M36 295H110L157 513H475L459 440H229L198 295H305L290 222H183L136 0H48L95 222H21L36 295Z"  />
<glyph unicode="&#x496;" horiz-adv-x="934" d="M191 287Q215 317 239 338T290 369Q267 378 251 399T222 452L119 724H218L317 464Q331 429 345 415T390 401H443L512 724H604L535 401H584Q599 401 611 404T634 414T657 434T683 464L886 724H992L774 444Q750 414 726 393T675 362Q719 343 743 279L820 76H880L827 -171H733L769 0H750L648 267Q634 302 620 316T575 330H520L451 0H359L428 330H381Q366 330 354 327T331 317T308 297T282 267L74 0H-32L191 287Z"  />
<glyph unicode="&#x497;" horiz-adv-x="861" d="M79 -12Q68 -12 54 -10T26 -5T-1 4T-22 15L-7 88Q8 77 29 71T72 65Q106 65 134 87T182 144T213 224T224 316Q224 385 204 416T142 448Q122 448 101 445T64 433L81 509Q95 517 114 521T154 525Q226 525 267 472T309 322Q309 314 309 306T308 290H400L448 513H530L482 290H576Q586 337 605 379T651 454T712 506T787 525Q800 525 815 523T845 518T872 509T893 498L878 425Q847 448 793 448Q761 448 735 426T690 369T661 289T651 197Q651 128 673 97T737 65Q757 65 778 68T816 80L768 -144H679L708 -11Q643 -4 605 48T566 191Q566 200 566 209T567 227H469L421 0H339L387 227H299Q289 179 269 136T221 60T157 8T79 -12Z"  />
<glyph unicode="&#x498;" horiz-adv-x="574" d="M163 -10Q112 -6 73 5T6 31L23 107Q59 90 105 79T217 67Q252 67 286 75T348 101T392 147T409 218Q409 264 374 295T264 326H152L168 402H264Q297 402 331 412T393 443T438 493T456 563Q456 605 424 630T328 656Q275 656 224 643T137 613L154 694Q189 713 243 724T354 736Q451 736 501 693T552 578Q552 504 511 449T405 366Q453 347 479 309T505 220Q505 167 486 127T432 58T354 13T258 -9L223 -171H129L163 -10Z"  />
<glyph unicode="&#x499;" horiz-adv-x="456" d="M87 -134L114 -10Q76 -6 47 3T-5 24L11 94Q40 80 75 72T161 63Q183 63 207 67T250 81T283 109T296 155Q296 184 272 203T194 223H108L122 292H196Q217 292 239 297T281 314T313 344T326 390Q326 417 300 433T231 450Q188 450 150 443T83 422L98 492Q128 506 167 515T253 525Q330 525 375 493T421 410Q421 356 391 319T314 261Q349 247 368 220T387 157Q387 118 372 89T331 40T272 8T202 -9L176 -134H87Z"  />
<glyph unicode="&#x49A;" horiz-adv-x="650" d="M199 724H291L222 401H289Q304 401 316 404T339 414T361 434T388 464L602 724H708L479 444Q428 382 379 362Q402 353 418 332T448 279L532 76H595L542 -171H448L484 0H465L353 267Q346 285 340 297T325 316T306 327T280 330H207L138 0H46L199 724Z"  />
<glyph unicode="&#x49B;" horiz-adv-x="541" d="M147 513H235L188 293H230Q243 293 252 294T269 300T286 312T305 332L464 513H566L389 310Q372 290 352 275T308 255Q328 250 342 234T366 198L426 73H492L448 -134H359L388 0H367L275 185Q263 209 252 216T215 224H173L126 0H38L147 513Z"  />
<glyph unicode="&#x49C;" horiz-adv-x="687" d="M271 330H207L138 0H46L199 724H291L222 401H286L318 547H391L360 402Q382 406 398 420T440 464L654 724H760L531 444Q480 382 431 362Q454 353 470 332T500 279L616 0H517L405 267Q392 299 380 313T344 329L311 172H238L271 330Z"  />
<glyph unicode="&#x49D;" horiz-adv-x="586" d="M147 513H235L188 293H238L265 417H334L307 294Q323 296 335 304T364 332L523 513H625L448 310Q431 290 411 275T367 255Q387 250 401 234T425 198L521 0H426L334 185Q324 204 316 212T292 223L265 95H196L223 224H173L126 0H38L147 513Z"  />
<glyph unicode="&#x4A0;" horiz-adv-x="744" d="M122 724H400L331 401H398Q413 401 425 404T448 414T470 434T497 464L711 724H817L588 444Q537 382 488 362Q511 353 527 332T557 279L673 0H574L462 267Q455 285 449 297T434 316T415 327T389 330H316L247 0H155L292 648H106L122 724Z"  />
<glyph unicode="&#x4A1;" horiz-adv-x="600" d="M72 513H308L261 293H303Q316 293 325 294T342 300T359 312T378 332L537 513H639L462 310Q445 290 425 275T381 255Q401 250 415 234T439 198L535 0H440L348 185Q336 209 325 216T288 224H246L199 0H111L204 440H56L72 513Z"  />
<glyph unicode="&#x4A2;" horiz-adv-x="751" d="M550 334H208L138 0H46L199 724H291L224 410H566L633 724H725L588 76H668L615 -171H521L557 0H480L550 334Z"  />
<glyph unicode="&#x4A3;" horiz-adv-x="621" d="M423 227H174L126 0H38L147 513H235L189 300H438L484 513H572L478 73H553L509 -134H420L449 0H375L423 227Z"  />
<glyph unicode="&#x4AA;" horiz-adv-x="599" d="M284 -8Q236 -1 196 21T128 79T84 160T68 262Q68 346 90 431T158 583T277 693T450 736Q476 736 502 734T552 726T596 713T629 696L612 616Q584 633 539 643T442 654Q368 654 315 618T229 526T180 402T164 268Q164 170 212 119T346 68Q391 68 434 77T519 104L503 25Q475 11 445 3T377 -10L343 -171H249L284 -8Z"  />
<glyph unicode="&#x4AB;" horiz-adv-x="474" d="M179 -134L206 -8Q171 -1 142 17T91 62T58 124T46 200Q46 261 64 319T118 423T209 497T337 525Q375 525 411 517T466 495L450 420Q429 431 400 439T330 448Q283 448 247 428T187 374T150 296T137 206Q137 173 146 147T172 103T211 75T259 65Q297 65 333 74T395 97L379 20Q362 9 341 3T294 -8L268 -134H179Z"  />
<glyph unicode="&#x4AE;" horiz-adv-x="594" d="M256 286L110 724H205L292 451Q299 430 304 405T312 353Q326 379 342 404T374 451L577 724H680L347 283L288 0H196L256 286Z"  />
<glyph unicode="&#x4AF;" horiz-adv-x="487" d="M96 -228L143 -7L64 513H154L196 152Q198 135 199 113T201 69Q209 92 219 113T239 151L435 513H530L231 -5L184 -228H96Z"  />
<glyph unicode="&#x4B0;" horiz-adv-x="594" d="M90 242H246L256 286L110 724H205L292 451Q299 430 304 405T312 353Q326 379 342 404T374 451L577 724H680L347 283L338 242H502L487 170H323L288 0H196L231 170H75L90 242Z"  />
<glyph unicode="&#x4B1;" horiz-adv-x="487" d="M16 71H131L64 513H154L196 152Q198 135 199 113T201 69Q209 92 219 113T239 151L435 513H530L276 71H404L389 0H232L184 -228H96L144 0H1L16 71Z"  />
<glyph unicode="&#x4B2;" horiz-adv-x="622" d="M274 371L128 724H227L316 504Q322 490 326 473T335 439Q346 456 358 472T382 504L564 724H675L379 371L503 76H566L513 -171H419L455 0H436L338 239Q325 268 319 302Q308 285 296 269T272 239L74 0H-37L274 371Z"  />
<glyph unicode="&#x4B3;" horiz-adv-x="522" d="M206 268L82 513H173L244 373Q257 346 263 325Q271 336 280 348T300 371L428 513H534L303 257L396 73H463L419 -134H330L359 0H343L266 151Q259 164 255 175T246 198Q238 187 229 176T210 153L72 0H-34L206 268Z"  />
<glyph unicode="&#x4B6;" horiz-adv-x="679" d="M473 309Q405 281 310 281Q205 281 156 322T106 445Q106 480 115 524L157 724H249L207 522Q200 490 200 461Q200 407 231 384T332 360Q374 360 412 365T488 381L561 724H653L516 76H596L543 -171H449L485 0H408L473 309Z"  />
<glyph unicode="&#x4B7;" horiz-adv-x="555" d="M217 165Q149 165 108 198T66 294Q66 315 71 340L108 513H196L160 345Q158 337 157 330T156 314Q156 274 180 256T245 237Q283 237 313 247T368 276L418 513H506L412 73H487L443 -134H354L383 0H309L353 206Q325 185 290 175T217 165Z"  />
<glyph unicode="&#x4B8;" horiz-adv-x="656" d="M473 309Q419 286 344 282L313 135H240L271 282Q186 290 146 330T106 445Q106 480 115 524L157 724H249L207 522Q200 490 200 461Q200 416 221 393T288 362L317 500H390L360 360Q394 362 425 366T488 381L561 724H653L500 0H408L473 309Z"  />
<glyph unicode="&#x4B9;" horiz-adv-x="544" d="M193 166Q135 172 101 204T66 294Q66 315 71 340L108 513H196L160 345Q158 337 157 330T156 314Q156 284 170 266T209 241L235 360H304L278 239Q331 246 368 276L418 513H506L397 0H309L353 206Q333 191 311 182T263 168L239 58H170L193 166Z"  />
<glyph unicode="&#x4BA;" horiz-adv-x="656" d="M226 415Q294 443 389 443Q494 443 543 402T593 279Q593 243 584 200L542 0H450L492 202Q499 234 499 263Q499 317 468 340T367 364Q325 364 287 359T211 343L138 0H46L199 724H291L226 415Z"  />
<glyph unicode="&#x4BB;" horiz-adv-x="603" d="M200 758H288L226 467Q256 497 298 511T388 525Q456 525 499 492T543 396Q543 375 538 350L464 0H376L449 345Q451 353 452 360T453 376Q453 416 427 434T360 453Q311 453 273 437T209 391L126 0H38L200 758Z"  />
<glyph unicode="&#x4C1;" horiz-adv-x="920" d="M191 287Q215 317 239 338T290 369Q267 378 251 399T222 452L119 724H218L317 464Q331 429 345 415T390 401H443L512 724H604L535 401H584Q599 401 611 404T634 414T657 434T683 464L886 724H992L774 444Q750 414 726 393T675 362Q719 343 743 279L849 0H750L648 267Q634 302 620 316T575 330H520L451 0H359L428 330H381Q366 330 354 327T331 317T308 297T282 267L74 0H-32L191 287ZM571 768Q513 768 477 798T440 882Q440 895 443 912H508Q507 907 507 896Q507 866 526 852T575 837Q607 837 632 855T670 912H739Q723 844 680 806T571 768Z"  />
<glyph unicode="&#x4C2;" horiz-adv-x="861" d="M79 -12Q68 -12 54 -10T26 -5T-1 4T-22 15L-7 88Q8 77 29 71T72 65Q106 65 134 87T182 144T213 224T224 316Q224 385 204 416T142 448Q122 448 101 445T64 433L81 509Q95 517 114 521T154 525Q226 525 267 472T309 322Q309 314 309 306T308 290H400L448 513H530L482 290H576Q586 337 605 379T651 454T712 506T787 525Q800 525 815 523T845 518T872 509T893 498L878 425Q847 448 793 448Q761 448 735 426T690 369T661 289T651 197Q651 128 673 97T737 65Q757 65 778 68T816 80L798 4Q784 -4 765 -8T725 -12Q653 -12 610 41T566 191Q566 200 566 209T567 227H469L421 0H339L387 227H299Q289 179 269 136T221 60T157 8T79 -12ZM502 584Q444 584 408 614T371 698Q371 711 374 728H439Q438 723 438 712Q438 682 457 668T506 653Q538 653 563 671T601 728H670Q654 660 611 622T502 584Z"  />
<glyph unicode="&#x4D8;" horiz-adv-x="709" d="M402 736Q459 736 509 718T597 664T657 577T679 458Q679 375 660 292T596 141T481 31T307 -12Q251 -12 206 3T130 46T81 116T64 208Q64 246 70 286T89 365H577Q583 405 583 448Q583 503 567 542T523 606T461 642T389 654Q330 654 278 640T171 595L189 681Q278 736 402 736ZM315 66Q366 66 406 83T476 131T528 202T562 289H167Q164 269 163 250T161 216Q161 183 172 156T204 108T252 77T315 66Z"  />
<glyph unicode="&#x4D9;" horiz-adv-x="546" d="M298 524Q339 524 376 511T440 473T484 410T500 323Q500 262 484 202T435 94T349 17T224 -13Q137 -13 91 31T43 150Q43 179 48 210T62 270H408Q410 281 410 292T410 314Q410 350 400 375T371 416T329 439T279 447Q189 447 117 409L133 486Q200 524 298 524ZM233 58Q266 58 292 69T338 100T372 146T395 203H136Q134 191 133 179T132 157Q132 112 159 85T233 58Z"  />
<glyph unicode="&#x4E2;" horiz-adv-x="743" d="M199 724H289L186 237Q181 212 173 182T156 122Q176 155 198 187T240 242L649 724H740L587 0H497L600 487Q605 512 613 541T629 599Q609 567 588 536T547 482L138 0H46L199 724ZM360 871H630L613 795H343L360 871Z"  />
<glyph unicode="&#x4E3;" horiz-adv-x="594" d="M210 -12Q142 -12 101 21T59 117Q59 138 64 163L138 513H226L153 168Q151 160 150 153T149 137Q149 97 173 79T238 60Q287 60 323 76T385 122L468 513H556L447 0H376L378 57Q349 21 305 5T210 -12ZM244 687H514L497 611H227L244 687Z"  />
<glyph unicode="&#x4E8;" horiz-adv-x="713" d="M307 -12Q245 -12 200 9T126 66T82 149T68 250Q68 305 77 362T105 473T153 575T225 658T321 715T444 736Q506 736 551 716T625 660T669 577T683 478Q683 423 674 366T646 254T598 151T526 67T430 9T307 -12ZM315 66Q368 66 410 87T484 145T537 228T570 325H166Q164 307 163 290T162 256Q162 217 171 182T198 122T246 81T315 66ZM436 658Q382 658 340 637T266 579T213 497T180 401H584Q586 419 587 437T589 472Q589 511 580 545T553 604T505 643T436 658Z"  />
<glyph unicode="&#x4E9;" horiz-adv-x="588" d="M239 -12Q189 -12 153 3T94 45T59 106T48 181Q48 247 67 309T124 419T218 496T349 525Q399 525 435 510T494 468T529 407T540 332Q540 266 521 204T464 94T370 17T239 -12ZM336 454Q298 454 268 441T215 405T176 353T151 290H449Q450 298 450 307T451 324Q451 351 445 374T424 416T388 444T336 454ZM253 61Q290 61 320 74T374 109T413 161T437 224H138Q137 215 137 207T137 190Q137 163 143 140T164 99T201 71T253 61Z"  />
<glyph unicode="&#x4EE;" horiz-adv-x="594" d="M57 -8Q46 -8 35 -7T16 -3L31 74Q37 72 45 71T64 70Q86 70 104 76T141 98T180 141T228 209L235 219L110 724H205L299 315L571 724H673L309 178Q273 124 245 88T188 31T129 1T57 -8ZM281 871H551L534 795H264L281 871Z"  />
<glyph unicode="&#x4EF;" horiz-adv-x="487" d="M-62 -235Q-73 -235 -84 -234T-103 -230L-88 -158Q-82 -159 -75 -159T-56 -160Q-28 -160 -3 -154T45 -131T91 -88T137 -18L142 -8L64 513H154L196 152Q198 135 199 113T201 69Q209 92 219 113T239 151L435 513H530L217 -30Q185 -86 155 -125T92 -188T22 -224T-62 -235ZM189 687H459L442 611H172L189 687Z"  />
<glyph unicode="&#xE3F;" horiz-adv-x="634" d="M199 724H372L392 817H468L447 720Q525 709 564 668T603 566Q603 492 567 444T465 371Q514 352 540 315T567 227Q567 170 546 128T487 59T401 17T295 0L275 -93H199L218 0H46L199 724ZM471 231Q471 270 447 298T365 331L311 77Q343 80 372 90T423 120T458 166T471 231ZM154 76H234L289 332H208L154 76ZM223 404H304L356 648H275L223 404ZM507 553Q506 584 488 607T430 641L381 408Q408 413 431 424T471 453T497 496T507 553Z"  />
<glyph unicode="&#x1E80;" horiz-adv-x="1044" d="M600 489Q598 510 597 545T597 616Q583 581 567 546T540 489L286 0H189L118 724H214L257 190Q259 170 260 151T260 111Q267 131 276 150T295 190L567 724H669L715 190Q717 170 717 151T716 110Q724 131 733 150T753 190L1022 724H1122L745 0H648L600 489ZM491 912H600L664 772H592L491 912Z"  />
<glyph unicode="&#x1E81;" horiz-adv-x="780" d="M421 329Q420 341 419 358T418 394Q410 375 402 358T387 329L219 0H131L69 513H157L187 156Q189 141 189 123T189 85Q197 105 205 123T222 156L400 513H480L506 156Q507 141 507 123T508 84Q516 104 524 122T541 156L723 513H819L539 0H451L421 329ZM320 728H429L493 588H421L320 728Z"  />
<glyph unicode="&#x1E82;" horiz-adv-x="1044" d="M600 489Q598 510 597 545T597 616Q583 581 567 546T540 489L286 0H189L118 724H214L257 190Q259 170 260 151T260 111Q267 131 276 150T295 190L567 724H669L715 190Q717 170 717 151T716 110Q724 131 733 150T753 190L1022 724H1122L745 0H648L600 489ZM711 912H836L668 772H589L711 912Z"  />
<glyph unicode="&#x1E83;" horiz-adv-x="780" d="M421 329Q420 341 419 358T418 394Q410 375 402 358T387 329L219 0H131L69 513H157L187 156Q189 141 189 123T189 85Q197 105 205 123T222 156L400 513H480L506 156Q507 141 507 123T508 84Q516 104 524 122T541 156L723 513H819L539 0H451L421 329ZM540 728H665L497 588H418L540 728Z"  />
<glyph unicode="&#x1E84;" horiz-adv-x="1044" d="M600 489Q598 510 597 545T597 616Q583 581 567 546T540 489L286 0H189L118 724H214L257 190Q259 170 260 151T260 111Q267 131 276 150T295 190L567 724H669L715 190Q717 170 717 151T716 110Q724 131 733 150T753 190L1022 724H1122L745 0H648L600 489ZM506 895H602L581 795H485L506 895ZM700 895H796L775 795H679L700 895Z"  />
<glyph unicode="&#x1E85;" horiz-adv-x="780" d="M421 329Q420 341 419 358T418 394Q410 375 402 358T387 329L219 0H131L69 513H157L187 156Q189 141 189 123T189 85Q197 105 205 123T222 156L400 513H480L506 156Q507 141 507 123T508 84Q516 104 524 122T541 156L723 513H819L539 0H451L421 329ZM335 711H431L410 611H314L335 711ZM529 711H625L604 611H508L529 711Z"  />
<glyph unicode="&#x1EF2;" horiz-adv-x="594" d="M256 286L110 724H205L292 451Q299 430 304 405T312 353Q326 379 342 404T374 451L577 724H680L347 283L288 0H196L256 286ZM258 912H367L431 772H359L258 912Z"  />
<glyph unicode="&#x1EF3;" horiz-adv-x="487" d="M-62 -235Q-73 -235 -84 -234T-103 -230L-88 -158Q-82 -159 -75 -159T-56 -160Q-28 -160 -3 -154T45 -131T91 -88T137 -18L142 -8L64 513H154L196 152Q198 135 199 113T201 69Q209 92 219 113T239 151L435 513H530L217 -30Q185 -86 155 -125T92 -188T22 -224T-62 -235ZM166 728H275L339 588H267L166 728Z"  />
<glyph unicode="&#x2013;" horiz-adv-x="500" d="M43 336H471L456 264H28L43 336Z"  />
<glyph unicode="&#x2014;" horiz-adv-x="800" d="M43 336H771L756 264H28L43 336Z"  />
<glyph unicode="&#x2015;" horiz-adv-x="800" d="M43 336H771L756 264H28L43 336Z"  />
<glyph unicode="&#x2018;" horiz-adv-x="267" d="M223 623L231 521H158Q136 521 126 533T116 561Q116 587 127 610T156 655T194 697T234 736L256 758H314L223 623Z"  />
<glyph unicode="&#x2019;" horiz-adv-x="267" d="M182 656L174 758H247Q269 758 279 746T289 718Q289 692 278 669T249 624T211 582T171 543L149 521H91L182 656Z"  />
<glyph unicode="&#x201A;" horiz-adv-x="267" d="M59 9L51 111H124Q146 111 156 99T166 71Q166 45 155 22T126 -23T88 -65T48 -104L26 -126H-32L59 9Z"  />
<glyph unicode="&#x201C;" horiz-adv-x="464" d="M223 623L231 521H158Q136 521 126 533T116 561Q116 587 127 610T156 655T194 697T234 736L256 758H314L223 623ZM420 623L428 521H355Q333 521 323 533T313 561Q313 587 324 610T353 655T391 697T431 736L453 758H511L420 623Z"  />
<glyph unicode="&#x201D;" horiz-adv-x="463" d="M182 656L174 758H247Q269 758 279 746T289 718Q289 692 278 669T249 624T211 582T171 543L149 521H91L182 656ZM378 656L370 758H443Q465 758 475 746T485 718Q485 692 474 669T445 624T407 582T367 543L345 521H287L378 656Z"  />
<glyph unicode="&#x201E;" horiz-adv-x="463" d="M59 9L51 111H124Q146 111 156 99T166 71Q166 45 155 22T126 -23T88 -65T48 -104L26 -126H-32L59 9ZM255 9L247 111H320Q342 111 352 99T362 71Q362 45 351 22T322 -23T284 -65T244 -104L222 -126H164L255 9Z"  />
<glyph unicode="&#x2020;" horiz-adv-x="467" d="M125 573H267Q265 595 268 620T276 665L288 724H371L359 665Q354 645 347 620T328 573H476L462 505H313Q315 483 313 458T305 413L272 257H189L222 413Q227 433 234 458T252 505H111L125 573Z"  />
<glyph unicode="&#x2021;" horiz-adv-x="467" d="M120 573H261Q260 595 262 620T270 665L283 724H366L353 665Q348 645 341 620T322 573H471L456 505H317L287 367H427L412 299H264Q266 277 264 252T256 207L243 148H160L173 207Q178 227 185 252T203 299H61L76 367H208L238 505H105L120 573Z"  />
<glyph unicode="&#x2022;" horiz-adv-x="566" d="M190 579L520 354L97 145L190 579Z"  />
<glyph unicode="&#x2026;" horiz-adv-x="857" d="M72 109H183L160 0H49L72 109ZM341 109H452L429 0H318L341 109ZM610 109H721L698 0H587L610 109Z"  />
<glyph unicode="&#x2030;" horiz-adv-x="1361" d="M1052 -8Q1016 -8 989 3T943 34T915 80T905 136Q905 180 919 221T961 295T1027 347T1118 367Q1154 367 1181 356T1227 324T1255 278T1265 222Q1265 178 1251 137T1209 63T1142 12T1052 -8ZM1058 54Q1089 54 1112 69T1151 107T1174 160T1182 218Q1182 254 1165 279T1111 305Q1079 305 1056 290T1018 252T995 199T987 141Q987 105 1004 80T1058 54ZM268 369Q232 369 205 380T159 411T131 457T121 513Q121 557 135 598T177 672T243 724T334 744Q370 744 397 733T443 701T471 655T481 599Q481 555 467 514T425 440T358 389T268 369ZM274 431Q305 431 328 446T367 484T390 537T398 595Q398 631 381 656T327 682Q295 682 272 667T234 629T211 576T203 518Q203 482 220 457T274 431ZM654 -8Q618 -8 591 3T545 34T517 80T507 136Q507 180 521 221T563 295T629 347T720 367Q756 367 783 356T829 324T857 278T867 222Q867 178 853 137T811 63T744 12T654 -8ZM660 54Q691 54 714 69T753 107T776 160T784 218Q784 254 767 279T713 305Q681 305 658 290T620 252T597 199T589 141Q589 105 606 80T660 54ZM745 724H834L234 0H144L745 724Z"  />
<glyph unicode="&#x2039;" horiz-adv-x="384" d="M70 306L270 486H358L168 297L276 114H196L70 306Z"  />
<glyph unicode="&#x203A;" horiz-adv-x="384" d="M218 302L110 486H190L316 294L116 114H28L218 302Z"  />
<glyph unicode="&#x2044;" horiz-adv-x="173" d="M348 724H431L-118 0H-202L348 724Z"  />
<glyph unicode="&#x2070;" horiz-adv-x="403" d="M228 359Q194 359 170 369T131 398T108 439T100 489Q100 537 110 586T145 675T209 740T305 766Q339 766 363 756T402 728T425 687T433 637Q433 589 423 540T388 451T325 385T228 359ZM236 416Q267 416 290 438T328 492T350 563T358 633Q358 667 344 688T298 709Q263 709 240 685T203 627T182 556T176 493Q176 458 190 437T236 416Z"  />
<glyph unicode="&#x2074;" horiz-adv-x="403" d="M266 446H59L69 494L337 758H408L351 501H418L405 446H338L321 367H248L266 446ZM143 498Q164 501 190 501H279L303 605Q312 641 321 669Q311 656 299 642T271 614L180 529Q171 520 162 512T143 498Z"  />
<glyph unicode="&#x2075;" horiz-adv-x="403" d="M212 359Q174 359 142 365T91 382L104 440Q123 431 154 425T217 419Q234 419 251 422T281 434T303 456T312 488Q312 510 293 522T248 542T192 551T142 554L195 758H433L421 699H253L228 607Q254 604 282 598T333 580T372 548T388 499Q388 464 375 438T338 395T282 368T212 359Z"  />
<glyph unicode="&#x2076;" horiz-adv-x="403" d="M243 359Q178 359 142 395T105 493Q105 541 119 589T161 677T234 741T340 766Q369 766 396 761T438 749L426 691Q409 699 386 704T336 709Q307 709 284 700T243 674T213 636T192 589Q210 604 234 613T288 622Q316 622 339 614T377 590T401 556T410 514Q410 479 398 451T364 402T311 371T243 359ZM267 566Q241 566 221 559T180 538Q178 528 178 518T178 498Q178 461 195 438T245 415Q287 414 311 440T336 506Q336 532 319 549T267 566Z"  />
<glyph unicode="&#x2077;" horiz-adv-x="403" d="M355 699H155L167 758H451L440 707L197 367H116L355 699Z"  />
<glyph unicode="&#x2078;" horiz-adv-x="403" d="M227 359Q157 359 121 389T84 462Q84 507 113 534T187 575Q164 587 153 606T142 648Q142 679 154 701T188 738T238 759T299 766Q357 766 392 740T428 675Q428 636 406 609T345 568Q375 556 388 534T402 483Q402 452 388 429T350 390T295 367T227 359ZM233 415Q250 415 267 419T297 432T318 454T326 486Q327 508 309 525T256 542Q238 542 221 538T191 524T169 500T161 468Q161 447 179 431T233 415ZM274 596Q306 596 330 615T354 667Q354 687 337 699T293 712Q261 712 238 695T214 644Q214 624 229 610T274 596Z"  />
<glyph unicode="&#x2079;" horiz-adv-x="403" d="M197 359Q166 359 138 364T95 377L107 433Q124 425 148 421T200 416Q229 416 252 426T294 454T324 495T345 545Q326 528 302 519T245 510Q188 510 156 539T123 613Q123 647 135 675T169 723T222 755T290 766Q355 766 391 730T428 631Q428 583 415 535T373 447T301 384T197 359ZM267 565Q293 565 313 572T354 594Q355 602 355 610T356 626Q356 663 339 686T289 709Q247 710 223 686T198 622Q198 597 215 581T267 565Z"  />
<glyph unicode="&#x2080;" horiz-adv-x="403" d="M122 -152Q88 -152 64 -142T25 -113T2 -72T-6 -22Q-6 26 4 75T39 164T103 229T199 255Q233 255 257 245T296 217T319 176T327 126Q327 78 317 29T282 -60T219 -126T122 -152ZM130 -95Q161 -95 184 -73T222 -19T244 52T252 122Q252 156 238 177T192 198Q157 198 134 174T97 116T76 45T70 -18Q70 -53 84 -74T130 -95Z"  />
<glyph unicode="&#x2081;" horiz-adv-x="403" d="M8 -84H99L159 183L64 165L76 222L199 247H246L171 -84H263L250 -144H-5L8 -84Z"  />
<glyph unicode="&#x2082;" horiz-adv-x="403" d="M-24 -91L82 -17Q102 -3 127 16T175 56T213 101T229 147Q229 170 213 182T160 195Q127 195 95 187T40 168L54 228Q74 239 104 247T174 255Q243 255 274 226T306 156Q306 123 289 93T245 37T186 -13T124 -57L80 -86H273L261 -144H-35L-24 -91Z"  />
<glyph unicode="&#x2083;" horiz-adv-x="403" d="M100 -152Q60 -152 29 -145T-22 -127L-9 -71Q12 -81 42 -86T105 -92Q124 -92 142 -88T174 -76T198 -54T207 -20Q207 3 187 16T123 30H77L90 88H136Q151 88 168 91T201 101T226 121T236 153Q236 175 217 185T168 195Q136 195 106 189T55 172L68 232Q88 243 118 249T183 255Q246 255 279 230T313 166Q313 124 289 98T227 58Q282 34 282 -17Q282 -51 267 -76T227 -118T169 -143T100 -152Z"  />
<glyph unicode="&#x2084;" horiz-adv-x="403" d="M160 -65H-47L-37 -17L231 247H302L245 -10H312L299 -65H232L215 -144H142L160 -65ZM37 -12Q48 -10 59 -10T84 -10H173L197 94Q206 130 215 158Q205 145 193 131T165 103L74 18Q55 -1 37 -12Z"  />
<glyph unicode="&#x2085;" horiz-adv-x="403" d="M106 -152Q68 -152 36 -146T-15 -129L-2 -71Q17 -80 48 -86T111 -92Q128 -92 145 -89T175 -77T197 -55T206 -23Q206 -1 187 11T142 31T86 40T36 43L89 247H327L315 188H147L122 96Q148 93 176 87T227 69T266 37T282 -12Q282 -47 269 -73T232 -116T176 -143T106 -152Z"  />
<glyph unicode="&#x2086;" horiz-adv-x="403" d="M137 -152Q72 -152 36 -116T-1 -18Q-1 30 13 78T55 166T128 230T234 255Q263 255 290 250T332 238L320 180Q303 188 280 193T230 198Q201 198 178 189T137 163T107 125T86 78Q104 93 128 102T182 111Q210 111 233 103T271 79T295 45T304 3Q304 -32 292 -60T258 -109T205 -140T137 -152ZM161 55Q135 55 115 48T74 27Q72 17 72 7T72 -13Q72 -50 89 -73T139 -96Q181 -97 205 -71T230 -5Q230 21 213 38T161 55Z"  />
<glyph unicode="&#x2087;" horiz-adv-x="403" d="M249 188H49L61 247H345L334 196L91 -144H10L249 188Z"  />
<glyph unicode="&#x2088;" horiz-adv-x="403" d="M121 -152Q51 -152 15 -122T-22 -49Q-22 -4 7 23T81 64Q58 76 47 95T36 137Q36 168 48 190T82 227T132 248T193 255Q251 255 286 229T322 164Q322 125 300 98T239 57Q269 45 282 23T296 -28Q296 -59 282 -82T244 -121T189 -144T121 -152ZM127 -96Q144 -96 161 -92T191 -79T212 -57T220 -25Q220 -3 203 14T150 31Q132 31 115 27T85 13T63 -11T55 -43Q55 -64 73 -80T127 -96ZM168 85Q200 85 224 104T248 156Q248 176 231 188T187 201Q155 201 132 184T108 133Q108 113 123 99T168 85Z"  />
<glyph unicode="&#x2089;" horiz-adv-x="403" d="M91 -152Q60 -152 32 -147T-11 -134L1 -78Q18 -86 42 -90T94 -95Q123 -95 146 -85T188 -57T218 -16T239 34Q220 17 196 8T139 -1Q82 -1 50 28T17 102Q17 136 29 164T63 212T116 244T184 255Q249 255 285 219T322 120Q322 72 309 24T267 -64T195 -127T91 -152ZM161 54Q187 54 207 61T248 83Q249 91 249 99T250 115Q250 152 233 175T183 198Q141 199 117 175T92 111Q92 86 109 70T161 54Z"  />
<glyph unicode="&#x20A1;" horiz-adv-x="634" d="M315 -10Q273 -5 238 9L204 -93H130L176 46Q133 82 109 137T84 262Q84 340 102 418T160 561T260 672T405 731L434 817H508L481 736Q523 734 562 727L592 817H666L629 705L645 696L628 616L603 628L417 71Q479 80 535 104L519 25Q490 11 459 2T389 -10L362 -93H288L315 -10ZM265 91Q296 73 342 68L535 647Q501 654 458 654H453L265 91ZM180 268Q180 192 209 145L375 640Q323 621 286 581T226 490T191 381T180 268Z"  />
<glyph unicode="&#x20A4;" horiz-adv-x="634" d="M145 485H223L239 556Q249 604 270 638T322 694T388 726T465 736Q506 736 538 730T587 713L572 641Q552 649 522 653T460 658Q397 658 367 629T324 535L313 485H531L515 412H298L276 310H493L478 237H261L244 156Q238 127 225 106T190 76H530L514 0H35L51 74H67Q105 74 126 100T155 164L170 237H92L107 310H186L208 412H129L145 485Z"  />
<glyph unicode="&#x20A6;" horiz-adv-x="634" d="M79 485H128L179 724H276L346 485H517L568 724H653L602 485H653L637 412H587L565 310H615L600 237H550L500 0H404L334 237H161L111 0H26L76 237H26L41 310H91L113 412H63L79 485ZM176 310H313L283 412H198L176 310ZM397 310H480L502 412H367L397 310ZM213 485H261V487Q253 513 246 548T234 618Q231 588 226 554T214 487L213 485ZM445 108Q448 138 453 171T465 237H419Q426 211 433 177T445 108Z"  />
<glyph unicode="&#x20A8;" horiz-adv-x="634" d="M146 724H299Q370 724 402 691T434 592Q434 551 426 511T398 438T350 380T278 345Q289 337 294 324T300 295L310 143Q313 94 331 75T394 55Q443 55 473 79T504 151Q504 172 493 189T454 226Q429 244 410 269T390 336Q390 360 398 386T426 433T475 469T549 483Q576 483 602 477T637 462L623 399Q613 405 594 410T552 415Q511 415 491 395T471 339Q471 320 480 307T511 276Q546 247 565 220T585 155Q585 123 576 93T544 39T487 2T399 -12Q346 -12 313 -2T261 27T235 72T226 130L218 284Q216 314 202 323T156 332H146L76 0H-7L146 724ZM216 662L158 392H216Q252 392 278 411T320 460T343 524T351 589Q351 631 334 646T273 662H216Z"  />
<glyph unicode="&#x20A9;" horiz-adv-x="634" d="M79 485H96L107 724H188L173 485H274L360 724H466L451 485H552L638 724H725L635 485H653L637 412H608L569 310H615L600 237H542L453 0H351L366 237H260L175 0H73L84 237H26L41 310H87L92 412H63L79 485ZM287 310H370L377 412H323L287 310ZM162 310H211L247 412H168L162 310ZM440 310H489L525 412H446L440 310ZM349 485H381L382 497Q383 511 385 529T389 566T393 602T399 632H395Q392 620 388 603T377 566T365 529T354 497L349 485ZM142 92Q145 104 149 121T159 158T170 195T181 227L184 237H157V227Q156 213 154 195T149 158T144 122T138 92H142ZM420 92Q423 104 427 121T437 158T448 195T459 227L462 237H435V227Q434 213 432 195T427 158T422 122T416 92H420Z"  />
<glyph unicode="&#x20AA;" horiz-adv-x="634" d="M349 0Q264 0 225 27T185 116Q185 141 193 178L280 587H352L263 168Q257 139 257 121Q257 87 278 74T350 61H448L589 724H661L508 0H349ZM329 724Q414 724 453 697T493 608Q493 583 485 546L398 137H326L415 556Q421 584 421 603Q421 637 400 650T328 663H230L89 0H17L170 724H329Z"  />
<glyph unicode="&#x20AB;" horiz-adv-x="634" d="M446 675H525L536 724H627L616 675H677L662 605H601L503 140H424V188Q393 161 354 145T255 128Q179 128 133 173T87 300Q87 364 109 412T166 491T248 539T342 555Q383 555 420 544T489 503L510 605H431L446 675ZM290 203Q329 203 363 213T434 244L477 445Q451 461 420 470T343 479Q309 479 280 469T228 438T193 387T180 315Q180 252 210 228T290 203ZM41 72H489L474 0H26L41 72Z"  />
<glyph unicode="&#x20AC;" horiz-adv-x="634" d="M77 505H153Q174 553 204 595T275 668T365 718T476 736Q528 736 575 725T647 694L631 619Q604 636 562 646T469 657Q430 657 397 646T337 614T289 566T251 505H516L500 432H221Q203 374 197 314H479L464 241H194Q196 151 239 108T357 65Q411 65 453 73T536 99L519 22Q501 13 483 7T444 -3T399 -10T345 -12Q289 -12 244 5T167 55T117 135T99 241H25L40 314H103Q106 343 111 373T126 432H61L77 505Z"  />
<glyph unicode="&#x20AD;" horiz-adv-x="634" d="M78 403H132L200 724H292L222 394L595 724H720L385 433Q365 416 343 403H569L554 330H319Q337 314 351 294L558 0H449L211 341L139 0H47L116 330H63L78 403Z"  />
<glyph unicode="&#x20AE;" horiz-adv-x="634" d="M536 449L393 397L367 273L509 325L494 252L351 200L309 0H217L251 164L109 112L124 185L267 237L293 361L150 309L165 382L308 434L354 648H146L162 724H670L654 648H446L408 470L551 522L536 449Z"  />
<glyph unicode="&#x20B1;" horiz-adv-x="634" d="M124 577H189L220 724H370Q464 724 519 685T578 577H660L645 504H572L565 462Q563 451 561 441T555 422H627L612 349H533Q518 312 496 284T441 238T366 210T267 201H201L159 0H67L141 349H76L91 422H156L173 504H109L124 577ZM483 504H265L248 422H466L476 462L483 504ZM296 651L281 577H485Q477 651 362 651H296ZM274 274Q334 274 373 292T437 349H233L217 274H274Z"  />
<glyph unicode="&#x20B2;" horiz-adv-x="634" d="M242 -5Q153 15 110 85T67 262Q67 335 86 412T145 556T248 670T399 731L417 817H493L475 736Q523 734 563 725T629 699L612 619Q586 634 546 644T458 655L334 68H337Q358 68 390 72T452 86L507 346H599L533 34Q490 13 435 1T317 -12L300 -93H224L242 -5ZM155 270Q155 182 180 137T260 77L380 645Q323 629 281 591T210 502T169 391T155 270Z"  />
<glyph unicode="&#x20B4;" horiz-adv-x="634" d="M304 -12Q244 -12 200 1T126 37T83 92T69 161Q69 202 80 237H22L37 310H121Q142 331 170 346T231 373T296 394T362 412H59L75 485H487Q498 500 504 519T511 563Q511 605 483 630T384 656Q269 656 188 616L205 696Q243 716 286 726T390 736Q502 736 554 692T606 576Q606 549 602 527T590 485H649L633 412H540Q515 391 482 377T413 351T338 331T265 310H611L596 237H181Q164 208 164 170Q164 125 198 96T310 67Q338 67 367 70T425 79T477 92T521 107L504 28Q466 8 415 -2T304 -12Z"  />
<glyph unicode="&#x20B5;" horiz-adv-x="634" d="M287 -6Q242 3 205 25T140 82T99 162T84 262Q84 344 105 426T169 576T281 686T444 735L462 817H538L520 733Q558 729 591 720T645 696L628 616Q606 629 574 638T503 651L379 68Q419 70 458 79T535 104L519 25Q486 8 448 -1T362 -12L345 -93H269L287 -6ZM180 268Q180 188 212 139T304 75L427 652Q361 644 314 606T238 513T194 394T180 268Z"  />
<glyph unicode="&#x2113;" horiz-adv-x="540" d="M214 -12Q151 -12 119 10T86 88Q86 112 92 142L107 212L32 194L47 262L122 283L177 540Q196 631 242 683T371 736Q429 736 464 700T499 601Q499 537 477 478T416 371T321 288T199 235L181 149Q177 132 177 116Q177 85 194 75T246 65Q275 65 301 70T347 83L331 9Q309 0 278 -6T214 -12ZM215 309Q258 322 294 350T357 416T397 498T412 588Q412 622 399 642T360 662Q322 662 300 630T263 533L215 309Z"  />
<glyph unicode="&#x2116;" horiz-adv-x="1285" d="M199 724H292L491 237Q502 211 511 180T528 114Q531 145 536 178T547 237L650 724H740L587 0H495L296 487Q285 512 275 544T258 611Q255 579 250 546T239 487L136 0H46L199 724ZM1012 300Q970 300 940 312T890 345T861 394T851 453Q851 505 867 554T915 641T994 702T1104 725Q1146 725 1176 713T1226 680T1255 631T1265 572Q1265 520 1249 471T1201 384T1122 323T1012 300ZM1023 360Q1066 360 1097 378T1149 426T1179 492T1189 565Q1189 607 1167 637T1094 667Q1051 667 1020 648T968 599T937 533T927 461Q927 419 949 390T1023 360ZM796 188H1202L1187 116H781L796 188Z"  />
<glyph unicode="&#x2117;" horiz-adv-x="866" d="M386 -12Q310 -12 251 12T152 79T90 176T68 293Q68 383 97 463T183 604T319 700T501 736Q577 736 636 711T736 644T798 546T820 429Q820 339 790 259T704 118T568 23T386 -12ZM396 50Q474 50 538 79T649 160T721 279T747 425Q747 476 730 521T681 600T600 654T491 674Q413 674 349 644T238 563T167 444T141 297Q141 246 158 202T207 123T287 70T396 50ZM353 560H503Q563 560 592 532T622 459Q622 421 609 391T573 339T517 306T444 294H375L345 154H266L353 560ZM419 499L388 356H448Q486 356 512 379T539 447Q539 470 526 484T485 499H419Z"  />
<glyph unicode="&#x2122;" horiz-adv-x="910" d="M483 724H562L627 553Q630 544 632 536T637 518Q642 527 647 535T660 553L798 724H885L812 385H747L796 611Q798 619 799 628T804 649Q797 638 791 628T779 611L655 465H601L542 611Q538 619 536 630T531 653L524 611L475 385H410L483 724ZM125 724H413L401 669H293L232 385H160L221 669H113L125 724Z"  />
<glyph unicode="&#x2126;" horiz-adv-x="732" d="M28 76H160Q124 118 103 176T81 299Q81 377 102 455T168 595T280 697T442 736Q504 736 550 717T628 665T676 586T692 488Q692 362 643 257T493 76H632L616 0H344L357 59Q413 89 457 134T531 233T577 348T593 475Q593 514 583 547T553 605T503 644T434 658Q365 658 316 623T237 534T192 415T177 289Q177 211 204 151T277 59L264 0H13L28 76Z"  />
<glyph unicode="&#x212E;" horiz-adv-x="882" d="M467 -12Q379 -12 310 16T193 93T120 212T94 362Q94 443 118 512T188 630T301 708T457 736Q545 736 612 708T726 631T796 512T820 362Q820 356 820 350T819 339H242V142Q278 97 333 73T467 48Q507 48 545 55T617 75T678 107T724 150L773 108Q725 51 646 20T467 -12ZM457 676Q382 676 329 653T242 587V396H660V601Q625 637 576 656T457 676Z"  />
<glyph unicode="&#x2153;" horiz-adv-x="979" d="M106 393H197L257 660L162 642L174 699L297 724H344L269 393H361L348 333H93L106 393ZM751 724H834L285 0H201L751 724ZM709 -8Q669 -8 638 -1T587 17L600 73Q621 63 651 58T714 52Q733 52 751 56T783 68T807 90T816 124Q816 147 796 160T732 174H686L699 232H745Q760 232 777 235T810 245T835 265T845 297Q845 319 826 329T777 339Q745 339 715 333T664 316L677 376Q697 387 727 393T792 399Q855 399 888 374T922 310Q922 268 898 242T836 202Q891 178 891 127Q891 93 876 68T836 26T778 1T709 -8Z"  />
<glyph unicode="&#x2154;" horiz-adv-x="979" d="M74 386L180 460Q200 474 225 493T273 533T311 578T327 624Q327 647 311 659T258 672Q225 672 193 664T138 645L152 705Q172 716 202 724T272 732Q341 732 372 703T404 633Q404 600 387 570T343 514T284 464T222 420L178 391H371L359 333H63L74 386ZM751 724H834L285 0H201L751 724ZM709 -8Q669 -8 638 -1T587 17L600 73Q621 63 651 58T714 52Q733 52 751 56T783 68T807 90T816 124Q816 147 796 160T732 174H686L699 232H745Q760 232 777 235T810 245T835 265T845 297Q845 319 826 329T777 339Q745 339 715 333T664 316L677 376Q697 387 727 393T792 399Q855 399 888 374T922 310Q922 268 898 242T836 202Q891 178 891 127Q891 93 876 68T836 26T778 1T709 -8Z"  />
<glyph unicode="&#x2155;" horiz-adv-x="979" d="M106 393H197L257 660L162 642L174 699L297 724H344L269 393H361L348 333H93L106 393ZM751 724H834L285 0H201L751 724ZM715 -8Q677 -8 645 -2T594 15L607 73Q626 64 657 58T720 52Q737 52 754 55T784 67T806 89T815 121Q815 143 796 155T751 175T695 184T645 187L698 391H936L924 332H756L731 240Q757 237 785 231T836 213T875 181T891 132Q891 97 878 71T841 28T785 1T715 -8Z"  />
<glyph unicode="&#x2156;" horiz-adv-x="979" d="M74 386L180 460Q200 474 225 493T273 533T311 578T327 624Q327 647 311 659T258 672Q225 672 193 664T138 645L152 705Q172 716 202 724T272 732Q341 732 372 703T404 633Q404 600 387 570T343 514T284 464T222 420L178 391H371L359 333H63L74 386ZM751 724H834L285 0H201L751 724ZM715 -8Q677 -8 645 -2T594 15L607 73Q626 64 657 58T720 52Q737 52 754 55T784 67T806 89T815 121Q815 143 796 155T751 175T695 184T645 187L698 391H936L924 332H756L731 240Q757 237 785 231T836 213T875 181T891 132Q891 97 878 71T841 28T785 1T715 -8Z"  />
<glyph unicode="&#x2157;" horiz-adv-x="979" d="M198 325Q158 325 127 332T76 350L89 406Q110 396 140 391T203 385Q222 385 240 389T272 401T296 423T305 457Q305 480 285 493T221 507H175L188 565H234Q249 565 266 568T299 578T324 598T334 630Q334 652 315 662T266 672Q234 672 204 666T153 649L166 709Q186 720 216 726T281 732Q344 732 377 707T411 643Q411 601 387 575T325 535Q380 511 380 460Q380 426 365 401T325 359T267 334T198 325ZM751 724H834L285 0H201L751 724ZM715 -8Q677 -8 645 -2T594 15L607 73Q626 64 657 58T720 52Q737 52 754 55T784 67T806 89T815 121Q815 143 796 155T751 175T695 184T645 187L698 391H936L924 332H756L731 240Q757 237 785 231T836 213T875 181T891 132Q891 97 878 71T841 28T785 1T715 -8Z"  />
<glyph unicode="&#x2158;" horiz-adv-x="979" d="M258 412H51L61 460L329 724H400L343 467H410L397 412H330L313 333H240L258 412ZM135 464Q156 467 182 467H271L295 571Q304 607 313 635Q303 622 291 608T263 580L172 495Q163 486 154 478T135 464ZM751 724H834L285 0H201L751 724ZM715 -8Q677 -8 645 -2T594 15L607 73Q626 64 657 58T720 52Q737 52 754 55T784 67T806 89T815 121Q815 143 796 155T751 175T695 184T645 187L698 391H936L924 332H756L731 240Q757 237 785 231T836 213T875 181T891 132Q891 97 878 71T841 28T785 1T715 -8Z"  />
<glyph unicode="&#x2159;" horiz-adv-x="979" d="M106 393H197L257 660L162 642L174 699L297 724H344L269 393H361L348 333H93L106 393ZM751 724H834L285 0H201L751 724ZM746 -8Q681 -8 645 28T608 126Q608 174 622 222T664 310T737 374T843 399Q872 399 899 394T941 382L929 324Q912 332 889 337T839 342Q810 342 787 333T746 307T716 269T695 222Q713 237 737 246T791 255Q819 255 842 247T880 223T904 189T913 147Q913 112 901 84T867 35T814 4T746 -8ZM770 199Q744 199 724 192T683 171Q681 161 681 151T681 131Q681 94 698 71T748 48Q790 47 814 73T839 139Q839 165 822 182T770 199Z"  />
<glyph unicode="&#x215A;" horiz-adv-x="979" d="M204 325Q166 325 134 331T83 348L96 406Q115 397 146 391T209 385Q226 385 243 388T273 400T295 422T304 454Q304 476 285 488T240 508T184 517T134 520L187 724H425L413 665H245L220 573Q246 570 274 564T325 546T364 514T380 465Q380 430 367 404T330 361T274 334T204 325ZM751 724H834L285 0H201L751 724ZM746 -8Q681 -8 645 28T608 126Q608 174 622 222T664 310T737 374T843 399Q872 399 899 394T941 382L929 324Q912 332 889 337T839 342Q810 342 787 333T746 307T716 269T695 222Q713 237 737 246T791 255Q819 255 842 247T880 223T904 189T913 147Q913 112 901 84T867 35T814 4T746 -8ZM770 199Q744 199 724 192T683 171Q681 161 681 151T681 131Q681 94 698 71T748 48Q790 47 814 73T839 139Q839 165 822 182T770 199Z"  />
<glyph unicode="&#x215B;" horiz-adv-x="979" d="M106 393H197L257 660L162 642L174 699L297 724H344L269 393H361L348 333H93L106 393ZM751 724H834L285 0H201L751 724ZM730 -8Q660 -8 624 22T587 95Q587 140 616 167T690 208Q667 220 656 239T645 281Q645 312 657 334T691 371T741 392T802 399Q860 399 895 373T931 308Q931 269 909 242T848 201Q878 189 891 167T905 116Q905 85 891 62T853 23T798 0T730 -8ZM736 48Q753 48 770 52T800 65T821 87T829 119Q829 141 812 158T759 175Q741 175 724 171T694 157T672 133T664 101Q664 80 682 64T736 48ZM777 229Q809 229 833 248T857 300Q857 320 840 332T796 345Q764 345 741 328T717 277Q717 257 732 243T777 229Z"  />
<glyph unicode="&#x215C;" horiz-adv-x="979" d="M198 325Q158 325 127 332T76 350L89 406Q110 396 140 391T203 385Q222 385 240 389T272 401T296 423T305 457Q305 480 285 493T221 507H175L188 565H234Q249 565 266 568T299 578T324 598T334 630Q334 652 315 662T266 672Q234 672 204 666T153 649L166 709Q186 720 216 726T281 732Q344 732 377 707T411 643Q411 601 387 575T325 535Q380 511 380 460Q380 426 365 401T325 359T267 334T198 325ZM751 724H834L285 0H201L751 724ZM730 -8Q660 -8 624 22T587 95Q587 140 616 167T690 208Q667 220 656 239T645 281Q645 312 657 334T691 371T741 392T802 399Q860 399 895 373T931 308Q931 269 909 242T848 201Q878 189 891 167T905 116Q905 85 891 62T853 23T798 0T730 -8ZM736 48Q753 48 770 52T800 65T821 87T829 119Q829 141 812 158T759 175Q741 175 724 171T694 157T672 133T664 101Q664 80 682 64T736 48ZM777 229Q809 229 833 248T857 300Q857 320 840 332T796 345Q764 345 741 328T717 277Q717 257 732 243T777 229Z"  />
<glyph unicode="&#x215D;" horiz-adv-x="979" d="M204 325Q166 325 134 331T83 348L96 406Q115 397 146 391T209 385Q226 385 243 388T273 400T295 422T304 454Q304 476 285 488T240 508T184 517T134 520L187 724H425L413 665H245L220 573Q246 570 274 564T325 546T364 514T380 465Q380 430 367 404T330 361T274 334T204 325ZM751 724H834L285 0H201L751 724ZM730 -8Q660 -8 624 22T587 95Q587 140 616 167T690 208Q667 220 656 239T645 281Q645 312 657 334T691 371T741 392T802 399Q860 399 895 373T931 308Q931 269 909 242T848 201Q878 189 891 167T905 116Q905 85 891 62T853 23T798 0T730 -8ZM736 48Q753 48 770 52T800 65T821 87T829 119Q829 141 812 158T759 175Q741 175 724 171T694 157T672 133T664 101Q664 80 682 64T736 48ZM777 229Q809 229 833 248T857 300Q857 320 840 332T796 345Q764 345 741 328T717 277Q717 257 732 243T777 229Z"  />
<glyph unicode="&#x215E;" horiz-adv-x="979" d="M347 665H147L159 724H443L432 673L189 333H108L347 665ZM751 724H834L285 0H201L751 724ZM730 -8Q660 -8 624 22T587 95Q587 140 616 167T690 208Q667 220 656 239T645 281Q645 312 657 334T691 371T741 392T802 399Q860 399 895 373T931 308Q931 269 909 242T848 201Q878 189 891 167T905 116Q905 85 891 62T853 23T798 0T730 -8ZM736 48Q753 48 770 52T800 65T821 87T829 119Q829 141 812 158T759 175Q741 175 724 171T694 157T672 133T664 101Q664 80 682 64T736 48ZM777 229Q809 229 833 248T857 300Q857 320 840 332T796 345Q764 345 741 328T717 277Q717 257 732 243T777 229Z"  />
<glyph unicode="&#x2190;" horiz-adv-x="930" d="M60 362L422 724L481 664L220 402H902V322H220L482 59L422 0L60 362Z"  />
<glyph unicode="&#x2191;" horiz-adv-x="930" d="M119 408L481 770L843 408L785 351L523 612V-72H439V612L176 350L119 408Z"  />
<glyph unicode="&#x2192;" horiz-adv-x="930" d="M60 402H742L480 665L540 724L902 362L540 0L481 60L742 322H60V402Z"  />
<glyph unicode="&#x2193;" horiz-adv-x="930" d="M119 278L177 335L439 74V758H523V74L786 336L843 278L481 -84L119 278Z"  />
<glyph unicode="&#x2196;" horiz-adv-x="930" d="M254 536V164H169V676H681V595H309L794 111L735 54L254 536Z"  />
<glyph unicode="&#x2197;" horiz-adv-x="930" d="M169 111L654 595H282V676H794V164H709V536L228 54L169 111Z"  />
<glyph unicode="&#x2198;" horiz-adv-x="930" d="M282 135H654L169 619L228 676L709 194V566H794V54H282V135Z"  />
<glyph unicode="&#x2199;" horiz-adv-x="930" d="M169 566H254V194L735 676L794 619L309 135H681V54H169V566Z"  />
<glyph unicode="&#x2202;" horiz-adv-x="588" d="M248 -12Q197 -12 159 3T97 45T60 105T48 177Q48 232 66 287T118 385T203 456T319 483Q355 483 385 472T439 440Q412 521 362 582T246 688L299 734Q345 713 388 672T465 576T519 455T540 317Q540 253 523 194T470 89T379 16T248 -12ZM256 62Q303 62 338 80T397 130T433 202T445 287Q445 339 418 375T330 411Q283 411 248 392T188 341T152 268T140 184Q140 133 167 98T256 62Z"  />
<glyph unicode="&#x2206;" horiz-adv-x="662" d="M-11 78L374 724H472L586 78L570 0H-27L-11 78ZM86 76H495L414 554Q411 573 409 592T406 629Q398 611 389 592T368 554L86 76Z"  />
<glyph unicode="&#x220F;" horiz-adv-x="722" d="M609 648H283L96 -228H4L207 724H717L514 -228H422L609 648Z"  />
<glyph unicode="&#x2211;" horiz-adv-x="561" d="M-36 -150L336 259L145 646L162 724H614L598 648H239L427 273L415 217L75 -152H414L398 -228H-53L-36 -150Z"  />
<glyph unicode="&#x2212;" horiz-adv-x="588" d="M55 334H547L532 262H40L55 334Z"  />
<glyph unicode="&#x221A;" horiz-adv-x="618" d="M58 513H214L255 190Q258 167 260 146T261 102Q270 125 282 146T306 190L600 724H700L292 0H194L129 440H42L58 513Z"  />
<glyph unicode="&#x221E;" horiz-adv-x="1048" d="M731 73Q693 73 662 86T605 122T556 174T513 237Q480 204 448 174T383 122T318 86T248 73Q212 73 180 86T123 124T84 182T70 256Q70 308 88 356T138 442T215 502T316 525Q354 525 385 512T442 475T491 423T533 360Q566 393 598 423T663 475T729 511T799 525Q835 525 867 512T924 474T963 416T977 342Q977 290 959 242T909 156T832 96T731 73ZM739 151Q775 151 803 167T851 209T881 268T892 336Q892 385 864 416T790 447Q763 447 738 436T686 404T632 357T572 296Q591 263 609 237T646 191T688 162T739 151ZM257 151Q284 151 309 162T360 193T414 240T475 301Q455 334 438 360T401 406T359 436T308 447Q272 447 244 431T196 389T166 330T155 262Q155 213 183 182T257 151Z"  />
<glyph unicode="&#x222B;" horiz-adv-x="408" d="M-47 -234Q-65 -234 -80 -232T-104 -227L-89 -157Q-81 -159 -71 -160T-50 -161Q6 -161 39 -125T92 1L208 545Q234 667 292 718T433 770Q451 770 466 768T490 763L475 693Q467 695 457 696T436 697Q380 697 347 661T294 535L178 -9Q165 -70 144 -113T94 -183T30 -222T-47 -234Z"  />
<glyph unicode="&#x2248;" horiz-adv-x="588" d="M353 129Q323 129 300 137T256 154T219 171T182 179Q114 179 103 136H23Q27 164 41 186T77 224T126 248T184 256Q214 256 238 248T282 231T321 214T358 206Q392 206 412 219T438 253H518Q513 224 499 202T462 163T411 138T353 129ZM392 332Q362 332 339 340T295 357T258 374T221 382Q153 382 142 339H62Q66 367 80 389T116 427T165 451T223 459Q253 459 277 451T321 434T360 417T397 409Q431 409 451 422T477 456H557Q552 427 538 405T501 366T450 341T392 332Z"  />
<glyph unicode="&#x2260;" horiz-adv-x="588" d="M88 434H369L455 534H542L456 434H556L541 362H394L284 234H518L503 162H223L137 62H49L135 162H35L50 234H197L307 362H73L88 434Z"  />
<glyph unicode="&#x2264;" horiz-adv-x="588" d="M81 373L447 594H580L206 368L472 152H353L81 373ZM5 72H487L471 0H-10L5 72Z"  />
<glyph unicode="&#x2265;" horiz-adv-x="588" d="M406 377L141 594H260L532 373L166 152H33L406 377ZM5 72H487L471 0H-10L5 72Z"  />
<glyph unicode="&#x2300;" horiz-adv-x="726" d="M87 114L153 180Q123 218 107 263T90 362Q90 422 112 474T173 565T264 626T379 649Q431 649 477 633T560 587L627 654L671 610L604 543Q634 506 651 460T668 362Q668 302 646 250T585 159T493 98T379 75Q326 75 280 91T197 136L131 70L87 114ZM379 144Q425 144 464 161T533 207T578 276T595 362Q595 436 553 492L248 187Q303 144 379 144ZM163 362Q163 325 173 292T204 231L510 537Q483 557 450 568T379 580Q333 580 294 563T225 517T180 448T163 362Z"  />
<glyph unicode="&#x25AA;" horiz-adv-x="341" d="M103 376H258L226 223H71L103 376Z"  />
<glyph unicode="&#x25BA;" horiz-adv-x="566" d="M136 579L512 362L136 145V579Z"  />
<glyph unicode="&#x25C0;" horiz-adv-x="566" d="M86 362L462 579V145L86 362Z"  />
<glyph unicode="&#x25C6;" horiz-adv-x="566" d="M61 362L299 600L537 362L299 124L61 362Z"  />
<glyph unicode="&#x25CA;" horiz-adv-x="706" d="M50 362L368 724H490L656 362L337 0H215L50 362ZM281 51L558 371L424 673L147 352L281 51Z"  />
<glyph unicode="&#x5143;" horiz-adv-x="1000" d="M72 482H921V406H635V92Q635 75 639 64T654 46T683 35T731 32Q767 32 789 36T823 49T839 72T844 107V178L932 158V101Q932 60 922 33T889 -12T826 -36T729 -43Q675 -43 640 -37T583 -16T552 24T543 86V406H388Q381 326 358 255T298 124T211 19T97 -59L49 3Q160 71 222 168T297 406H72V482ZM184 724H816V648H184V724Z"  />
<glyph unicode="&#x5186;" horiz-adv-x="1000" d="M148 724H911V86Q911 49 902 24T873 -16T819 -37T735 -43H702L684 32H733Q783 32 801 45T819 92V276H240V-43H148V724ZM240 348H487V648H240V348ZM573 348H819V648H573V348Z"  />
<glyph unicode="&#xF62F;" horiz-adv-x="634" d="M137 -223Q91 -223 56 -216T0 -196L15 -124Q34 -135 57 -140T107 -145Q135 -145 156 -133T191 -101T213 -56T220 -3Q220 9 219 22T213 53T201 96T182 157Q170 196 162 226T150 281T143 326T141 364Q141 440 164 507T233 626T344 706T495 736Q541 736 577 729T633 709L617 637Q598 648 575 653T525 658Q497 658 476 646T441 614T419 569T412 516Q412 504 413 491T419 459T431 416T451 354Q463 315 471 285T483 231T489 187T491 149Q491 73 468 6T399 -113T288 -193T137 -223ZM302 17Q302 -38 284 -80T227 -148Q270 -133 303 -107T360 -44T395 37T407 133Q407 147 406 161T401 195T390 241T371 304Q359 342 351 371T338 423T331 463T329 496Q329 551 347 593T403 661Q361 646 328 620T271 557T236 476T224 380Q224 366 225 352T230 318T241 272T260 209Q272 171 280 142T293 90T300 50T302 17Z"  />
<glyph unicode="&#xF630;" horiz-adv-x="707" d="M299 -12Q240 -12 198 6T129 57T89 133T76 224Q76 275 84 333T111 448T158 557T229 649T324 712T448 736Q506 736 548 718T618 667T658 591T671 500Q671 449 663 391T636 276T589 167T518 75T423 12T299 -12ZM306 65Q354 65 392 85T461 140T512 218T547 310T567 404T574 490Q574 525 567 555T544 609T503 645T441 659Q393 659 355 639T286 584T235 506T200 414T180 320T173 234Q173 199 180 169T202 115T243 79T306 65Z"  />
<glyph unicode="&#xF631;" horiz-adv-x="445" d="M279 637L119 606L135 682L333 724H389L235 0H143L279 637Z"  />
<glyph unicode="&#xF632;" horiz-adv-x="614" d="M23 70L224 247Q266 284 310 322T391 400T451 478T474 558Q474 603 444 629T349 655Q291 655 242 644T151 612L168 693Q203 713 251 724T359 736Q413 736 452 724T518 689T556 636T569 571Q569 514 542 463T472 366T379 277T282 194L146 76H499L483 0H9L23 70Z"  />
<glyph unicode="&#xF633;" horiz-adv-x="554" d="M201 -12Q135 -12 79 1T-8 34L9 107Q42 91 95 79T207 67Q242 67 274 76T332 103T373 151T389 221Q389 270 352 303T238 337H173L189 414H254Q288 414 321 422T380 448T422 494T439 561Q439 603 407 629T319 656Q265 656 218 645T135 615L152 696Q184 714 229 725T329 736Q377 736 415 724T480 690T521 639T535 575Q535 501 493 452T385 375Q435 352 460 314T485 229Q485 170 464 125T404 50T314 4T201 -12Z"  />
<glyph unicode="&#xF634;" horiz-adv-x="668" d="M379 161H16L31 235L501 724H590L487 237H626L610 161H471L437 0H345L379 161ZM127 233Q144 235 162 236T197 237H395L455 520Q458 534 462 552T473 591L419 532L182 285Q170 272 156 258T127 233Z"  />
<glyph unicode="&#xF635;" horiz-adv-x="598" d="M235 -12Q170 -12 115 -1T25 31L42 107Q74 91 127 79T237 67Q273 67 307 76T366 104T407 152T423 223Q423 253 407 275T365 312T307 337T241 352T176 360T121 363L209 724H590L574 646H282L230 437Q275 432 326 420T419 385T490 324T519 231Q519 171 498 126T440 50T350 4T235 -12Z"  />
<glyph unicode="&#xF636;" horiz-adv-x="653" d="M309 -12Q257 -12 215 4T142 52T96 128T80 230Q80 286 90 345T120 461T173 567T249 654T351 714T480 736Q528 736 573 727T643 705L626 628Q596 641 556 649T474 657Q420 657 375 636T296 580T236 497T196 397Q267 459 376 459Q428 459 467 443T534 401T574 339T588 265Q588 206 568 155T512 67T424 9T309 -12ZM355 382Q262 382 180 324Q174 280 174 239Q174 150 213 107T315 64Q354 64 386 78T442 118T479 179T492 257Q492 309 459 345T355 382Z"  />
<glyph unicode="&#xF637;" horiz-adv-x="595" d="M516 646H141L157 724H633L617 646L166 0H62L516 646Z"  />
<glyph unicode="&#xF638;" horiz-adv-x="661" d="M291 -12Q233 -12 190 2T117 39T73 94T58 161Q58 249 107 304T236 385Q198 407 180 442T161 520Q161 577 180 617T233 684T316 723T421 736Q469 736 508 725T574 692T617 642T632 579Q632 504 591 453T484 372Q535 351 558 313T582 228Q582 166 560 121T499 47T407 3T291 -12ZM297 65Q333 65 367 74T427 102T470 150T486 220Q486 242 478 263T452 300T409 327T347 337Q311 337 277 327T216 297T173 246T157 175Q157 153 165 133T191 98T235 74T297 65ZM371 414Q404 414 433 424T485 453T521 500T534 563Q534 605 502 632T415 660Q383 660 354 652T303 625T268 581T255 518Q255 476 284 445T371 414Z"  />
<glyph unicode="&#xF639;" horiz-adv-x="653" d="M215 -12Q167 -12 122 -3T52 19L69 96Q99 83 139 75T221 67Q278 67 324 90T405 151T464 239T503 345Q468 313 422 296T319 279Q267 279 228 294T161 335T121 395T107 466Q107 524 127 573T183 659T271 715T386 736Q438 736 480 720T553 672T599 596T615 494Q615 438 605 379T575 263T522 157T446 70T344 10T215 -12ZM340 356Q434 356 517 415Q519 433 520 450T521 485Q521 574 482 617T380 660Q341 660 309 646T253 608T216 549T203 474Q203 450 211 429T236 391T279 366T340 356Z"  />
</font>
</defs>
</svg>
