<?xml  version="1.0" encoding="UTF-8"?>
<!DOCTYPE svg PUBLIC "-//W3C//DTD SVG 1.0//EN" "http://www.w3.org/TR/2001/REC-SVG-20010904/DTD/svg10.dtd" >
<svg xmlns="http://www.w3.org/2000/svg" >
<metadata>
<version>1.0</version>
<id><![CDATA[Audi Type Extended Italic]]></id>
<vendor>Monotype Imaging Inc.</vendor>
<credits>
<name>Fonts.com WebFonts</name>
<URL>http://webfonts.fonts.com</URL>
<role>Home of the Web fonts</role>
</credits>
<license>
<URL>http://webfonts.fonts.com/Legal</URL>
</license>
<copyright><![CDATA[Designed by Paul van der Laan & Pieter van Rosmalen 2008. Produced by Bold Monday. For exclusive use by AUDI AG and its affiliates only.]]></copyright>
<trademark><![CDATA[Audi Type is a trademark of AUDI AG]]></trademark>
<licensee>
<name></name>
</licensee>
</metadata>
<defs >
<font horiz-adv-x="759" id="8a07a511-1402-46cf-aa13-971aa867193d">
<font-face font-family="" panose-1="2 11 5 5 4 2 0 0 0 3" ascent="760" descent="-240" units-per-em="1000" alphabetic="0">
</font-face>
<missing-glyph horiz-adv-x="363" d="M211 724H404L136 -211H-57L211 724Z"  />

<glyph unicode="&#xA;" />
<glyph unicode="&#xD;" />
<glyph unicode=" " horiz-adv-x="331" />
<glyph unicode="!" horiz-adv-x="402" d="M165 304Q168 322 173 349T186 407T200 469T215 527L272 724H380L323 527Q315 501 304 470T280 407T257 349T239 304L199 199H145L165 304ZM87 122H215L180 0H52L87 122Z"  />
<glyph unicode="&quot;" horiz-adv-x="510" d="M174 516Q175 523 176 535T178 560T182 588T188 614L219 724H323L292 614Q289 602 283 588T271 561T258 535T248 516L224 470H171L174 516ZM392 516Q393 523 394 535T396 560T400 588T406 614L437 724H541L510 614Q507 602 501 588T489 561T476 535T466 516L442 470H389L392 516Z"  />
<glyph unicode="#" horiz-adv-x="800" d="M189 528H308L360 663H442L390 528H570L622 663H704L652 528H743L722 456H624L549 259H665L644 187H521L467 45H386L440 187H260L206 45H124L178 187H90L111 259H205L281 456H167L189 528ZM287 259H467L543 456H363L287 259Z"  />
<glyph unicode="$" horiz-adv-x="800" d="M267 22Q199 26 142 38T54 64L76 138Q96 130 125 124T186 112T251 103T314 100Q437 100 501 131T565 215Q565 235 554 251T520 280T467 306T395 331Q353 344 314 359T244 394T195 443T176 509Q176 552 196 587T253 648T344 689T465 708L497 817H580L548 707Q614 703 666 692T747 666L725 591Q687 607 626 618T500 630Q388 630 333 600T277 518Q277 479 318 455T445 404Q492 389 532 374T603 339T650 293T668 231Q668 142 587 85T349 21L316 -93H233L267 22Z"  />
<glyph unicode="%" horiz-adv-x="1189" d="M320 361Q281 361 249 372T194 404T158 452T145 513Q145 564 165 605T219 676T300 720T397 736Q436 736 468 725T523 693T559 645T572 584Q572 533 552 492T497 421T417 377T320 361ZM330 431Q361 431 389 441T437 471T470 517T482 578Q482 621 457 643T387 666Q355 666 328 656T280 626T247 580T235 519Q235 476 260 454T330 431ZM863 -12Q824 -12 792 -1T737 31T701 79T688 140Q688 191 708 232T762 303T843 347T940 363Q979 363 1011 352T1066 320T1102 272T1115 211Q1115 160 1095 119T1040 48T960 4T863 -12ZM873 58Q904 58 932 68T980 98T1013 144T1025 205Q1025 248 1000 270T930 293Q898 293 871 283T823 253T790 207T778 146Q778 103 803 81T873 58ZM978 724H1093L281 0H165L978 724Z"  />
<glyph unicode="&amp;" horiz-adv-x="1037" d="M419 -12Q332 -12 269 3T165 45T104 105T84 179Q84 231 108 267T169 328T246 366T320 387Q273 407 245 440T216 519Q216 571 242 611T316 679T427 721T568 736Q594 736 626 734T689 726T748 713T794 696L773 624Q752 633 725 640T668 651T610 658T558 661Q504 661 459 651T382 623T332 580T314 525Q314 475 363 445T510 415H988L965 336H843L766 69Q691 26 605 7T419 -12ZM427 65Q491 65 555 75T678 110L743 336H462Q401 336 350 325T261 295T204 250T183 193Q183 137 242 101T427 65Z"  />
<glyph unicode="&apos;" horiz-adv-x="294" d="M168 516Q169 523 170 535T172 560T176 588T182 614L213 724H317L286 614Q283 602 277 588T265 561T252 535T242 516L218 470H165L168 516Z"  />
<glyph unicode="(" horiz-adv-x="451" d="M225 -92Q202 -71 181 -37T142 38T115 124T105 213Q105 307 134 389T211 541T320 665T447 758H548Q486 716 425 662T315 540T236 391T205 215Q205 173 213 130T236 45T270 -31T312 -92H225H225Z"  />
<glyph unicode=")" horiz-adv-x="451" d="M-69 -92Q-8 -50 53 4T164 126T243 275T274 451Q274 493 266 536T243 621T209 697T167 758H254Q277 737 298 703T337 628T364 542T374 453Q374 359 345 277T267 125T158 0T32 -92H-69H-69Z"  />
<glyph unicode="*" horiz-adv-x="540" d="M190 433L238 488Q249 502 265 516T298 542Q280 537 260 535T222 533H149L169 599H242Q257 599 275 598T311 593Q298 621 292 644L274 706L338 738L360 664Q363 654 365 643T370 620Q378 637 390 655T413 687L457 738L514 699L466 644Q454 630 438 615T406 589Q423 594 444 596T482 599H555L535 533H462Q446 533 428 534T392 539Q398 526 403 513T412 488L430 426L366 394L344 468Q341 478 339 489T334 512Q326 495 314 477T291 445L247 394L190 433Z"  />
<glyph unicode="+" horiz-adv-x="742" d="M84 339H337L399 552H490L428 339H681L658 261H405L341 39H250L314 261H61L84 339Z"  />
<glyph unicode="&#x2c;" horiz-adv-x="354" d="M54 10V122H144Q170 122 185 114T201 84Q201 48 161 0T57 -102L6 -145H-77L54 10Z"  />
<glyph unicode="-" horiz-adv-x="478" d="M85 347H421L394 253H57L85 347Z"  />
<glyph unicode="." horiz-adv-x="354" d="M74 122H202L167 0H39L74 122Z"  />
<glyph unicode="/" horiz-adv-x="539" d="M545 724H652L59 0H-49L545 724Z"  />
<glyph unicode="0" horiz-adv-x="800" d="M360 -12Q287 -12 232 10T141 68T86 153T68 254Q68 349 95 436T175 590T309 696T497 736Q570 736 625 715T716 657T771 574T789 474Q789 379 762 291T682 136T548 28T360 -12ZM368 67Q443 67 501 102T600 193T662 321T683 464Q683 504 672 539T636 600T576 642T489 657Q414 657 356 623T257 532T195 406T174 264Q174 224 185 188T221 125T281 83T368 67Z"  />
<glyph unicode="1" horiz-adv-x="800" d="M298 669L536 724H601L415 84H605L580 0H103L127 84H313L471 625L273 583L298 669Z"  />
<glyph unicode="2" horiz-adv-x="800" d="M48 79L312 248Q382 293 441 333T543 410T610 482T634 553Q634 602 595 625T468 649Q403 649 342 637T220 604L246 692Q293 711 354 723T486 736Q614 736 677 690T741 563Q741 518 722 476T659 390T545 296T375 186L206 84H666L642 0H26L48 79Z"  />
<glyph unicode="3" horiz-adv-x="800" d="M315 -12Q233 -12 166 3T59 37L82 118Q128 103 186 89T323 74Q372 74 416 82T493 107T546 150T566 212Q566 267 519 298T378 330H291L314 411H397Q436 411 476 418T549 441T603 485T624 553Q624 580 611 598T577 628T526 645T466 650Q410 650 344 640T218 608L243 693Q296 713 355 724T481 736Q537 736 583 724T662 690T713 637T731 566Q731 487 685 438T561 368Q609 350 641 313T673 217Q673 167 650 125T582 53T470 5T315 -12Z"  />
<glyph unicode="4" horiz-adv-x="800" d="M481 160H28L52 242L637 724H746L606 242H747L724 160H582L536 0H435L481 160ZM504 242L606 593L179 242H504Z"  />
<glyph unicode="5" horiz-adv-x="800" d="M294 -12Q259 -12 223 -9T153 1T91 16T43 33L67 115Q109 99 171 87T302 74Q434 74 504 111T575 206Q575 253 534 282T430 329T297 352T166 358L289 724H793L769 640H362L293 435Q365 431 435 417T562 378T654 314T689 222Q689 110 587 49T294 -12Z"  />
<glyph unicode="6" horiz-adv-x="800" d="M369 -12Q302 -12 248 6T155 57T95 137T74 244Q74 356 111 447T214 602T372 701T576 736Q642 736 697 728T788 707L763 623Q725 634 677 641T568 648Q498 648 439 630T332 579T250 497T198 389Q251 424 314 443T456 463Q516 463 564 447T647 403T699 337T718 256Q718 188 689 138T611 54T499 5T369 -12ZM433 382Q360 382 299 365T183 317Q181 302 180 287T179 254Q179 204 194 169T236 111T299 78T377 67Q419 67 460 76T535 107T590 163T611 246Q611 308 564 345T433 382Z"  />
<glyph unicode="7" horiz-adv-x="800" d="M690 640H213L237 724H841L818 645L230 0H107L690 640Z"  />
<glyph unicode="8" horiz-adv-x="800" d="M349 -12Q268 -12 209 3T112 45T55 105T36 179Q36 231 60 267T119 329T195 368T268 389Q222 408 195 440T167 519Q167 571 193 611T265 679T375 721T515 736Q577 736 627 723T712 686T767 632T787 566Q787 485 738 437T602 368Q624 358 646 345T686 313T715 270T726 216Q726 169 702 128T630 55T512 6T349 -12ZM356 67Q415 67 463 78T546 110T600 156T619 213Q619 239 606 262T567 301T501 327T406 337Q347 337 299 326T216 295T162 249T143 193Q143 167 155 144T194 104T261 77T356 67ZM455 412Q505 412 546 422T617 450T663 492T680 543Q680 591 636 624T499 657Q449 657 408 647T337 618T291 576T274 525Q274 477 318 445T455 412Z"  />
<glyph unicode="9" horiz-adv-x="800" d="M279 -12Q213 -12 158 -4T67 17L92 100Q130 89 178 82T287 75Q360 75 421 94T529 149T609 236T657 352Q603 315 539 295T393 275Q333 275 285 291T202 334T150 397T131 475Q131 541 160 590T238 672T350 720T480 736Q547 736 601 718T694 667T754 587T775 480Q775 368 739 277T638 122T482 23T279 -12ZM416 356Q489 356 550 373T668 421Q669 433 669 445T670 470Q670 519 655 554T613 613T550 646T472 657Q430 657 389 648T314 619T259 566T238 485Q238 426 285 391T416 356Z"  />
<glyph unicode=":" horiz-adv-x="354" d="M74 122H202L167 0H39L74 122ZM188 513H316L281 391H153L188 513Z"  />
<glyph unicode=";" horiz-adv-x="354" d="M54 10V122H144Q170 122 185 114T201 84Q201 48 161 0T57 -102L6 -145H-77L54 10ZM188 513H316L281 391H153L188 513Z"  />
<glyph unicode="&lt;" horiz-adv-x="742" d="M101 300L526 552H676L238 291L527 39H400L101 300Z"  />
<glyph unicode="=" horiz-adv-x="742" d="M81 239H626L604 161H58L81 239ZM138 439H684L661 361H116L138 439Z"  />
<glyph unicode="&gt;" horiz-adv-x="742" d="M464 299L176 552H303L602 291L177 39H27L464 299Z"  />
<glyph unicode="?" horiz-adv-x="567" d="M182 330L337 408Q416 448 460 484T504 568Q504 585 497 600T471 626T425 643T354 649Q306 649 244 638T121 605L146 691Q197 711 256 723T381 736Q430 736 473 725T547 694T597 646T615 581Q615 536 595 500T541 434T466 381T381 336L255 275L227 198H153L182 330ZM108 122H236L201 0H73L108 122Z"  />
<glyph unicode="@" horiz-adv-x="1215" d="M536 24Q486 24 446 39T377 80T333 143T318 221Q318 287 342 340T409 431T514 489T652 509Q699 509 747 497T826 468L841 497H915L828 198Q824 184 821 171T818 144Q818 124 834 109T888 93Q921 93 956 110T1019 162T1066 247T1085 364Q1085 440 1058 496T979 590T853 646T685 665Q574 665 479 635T315 548T206 406T166 214Q166 136 191 71T266 -41T388 -114T555 -140Q617 -140 670 -132T770 -108L746 -183Q707 -197 656 -204T547 -211Q431 -211 343 -177T194 -86T104 46T73 204Q73 331 120 430T251 597T448 700T693 736Q799 736 887 712T1039 641T1138 527T1173 374Q1173 301 1151 238T1088 127T992 53T871 26Q808 26 777 47T735 97Q702 65 651 45T536 24ZM567 93Q607 93 648 106T723 143L800 410Q771 423 730 430T651 438Q601 438 558 425T482 387T431 322T412 231Q412 162 453 128T567 93Z"  />
<glyph unicode="A" horiz-adv-x="853" d="M493 724H609L750 0H647L612 179H189L51 0H-67L493 724ZM249 263H597L530 635L249 263Z"  />
<glyph unicode="B" horiz-adv-x="802" d="M251 724H484Q546 724 596 714T683 682T738 628T758 552Q758 514 745 484T709 431T655 392T585 365Q642 344 675 307T709 215Q709 157 685 117T614 50T499 12T342 0H44L251 724ZM239 328L169 83H346Q405 83 453 89T534 110T586 150T605 213Q605 270 556 299T416 328H239ZM329 641L262 408H408Q463 408 508 414T585 434T634 474T652 539Q652 598 602 619T461 641H329Z"  />
<glyph unicode="C" horiz-adv-x="768" d="M404 -12Q328 -12 269 10T168 72T105 166T83 286Q83 381 120 463T224 606T379 701T572 736Q638 736 695 727T793 697L769 615Q723 637 671 644T571 651Q499 651 430 626T307 555T221 443T188 296Q188 231 207 188T259 120T336 83T431 72Q501 72 557 84T647 107L621 20Q584 5 526 -3T404 -12Z"  />
<glyph unicode="D" horiz-adv-x="877" d="M251 724H516Q594 724 656 703T761 643T826 554T849 441Q849 346 811 265T706 125T549 33T353 0H44L251 724ZM329 640L170 84H364Q446 84 516 111T636 185T715 295T744 431Q744 476 730 514T686 580T614 624T513 640H329Z"  />
<glyph unicode="E" horiz-adv-x="772" d="M251 724H812L788 640H329L264 414H664L640 330H240L170 84H633L609 0H44L251 724Z"  />
<glyph unicode="F" horiz-adv-x="714" d="M251 724H779L755 640H329L258 392H622L598 308H234L146 0H44L251 724Z"  />
<glyph unicode="G" horiz-adv-x="894" d="M437 -12Q342 -12 275 11T165 74T103 170T83 290Q83 390 123 472T232 613T393 704T591 736Q627 736 663 734T732 727T793 715T841 697L817 615Q763 636 703 643T591 651Q504 651 430 624T302 550T218 438T188 300Q188 235 205 191T257 120T340 82T451 70Q514 70 563 80T639 100L711 349H813L722 35Q690 24 654 16T580 1T506 -8T437 -12Z"  />
<glyph unicode="H" horiz-adv-x="912" d="M706 321H239L146 0H44L254 724H356L263 405H730L823 724H925L715 0H613L706 321Z"  />
<glyph unicode="I" horiz-adv-x="533" d="M216 724H577L553 640H424L262 84H391L367 0H6L30 84H160L322 640H192L216 724Z"  />
<glyph unicode="J" horiz-adv-x="424" d="M182 724H432L247 86Q229 22 203 -21T145 -92T74 -130T-9 -142Q-50 -142 -75 -137T-113 -127L-91 -44Q-80 -48 -59 -51T-22 -55Q13 -55 39 -47T86 -19T122 32T152 111L305 640H157L182 724Z"  />
<glyph unicode="K" horiz-adv-x="845" d="M254 724H356L262 399L762 724H919L346 359L728 0H589L242 333L146 0H44L254 724Z"  />
<glyph unicode="L" horiz-adv-x="674" d="M251 724H353L170 84H567L543 0H44L251 724Z"  />
<glyph unicode="M" horiz-adv-x="1069" d="M254 724H352L527 310L941 724H1058L848 0H749L919 584L534 200H476L313 584L143 0H44L254 724Z"  />
<glyph unicode="N" horiz-adv-x="960" d="M254 724H357L677 125L851 724H951L741 0H639L318 601L144 0H44L254 724Z"  />
<glyph unicode="O" horiz-adv-x="928" d="M416 -12Q327 -12 264 13T161 79T102 172T83 280Q83 372 116 454T210 599T358 699T551 736Q640 736 703 711T806 645T865 552T884 444Q884 352 851 270T757 125T609 25T416 -12ZM424 70Q513 70 579 103T690 190T757 307T779 435Q779 483 766 523T723 592T650 638T542 654Q453 654 387 621T276 534T210 417T188 289Q188 241 201 201T243 132T317 86T424 70Z"  />
<glyph unicode="P" horiz-adv-x="767" d="M254 724H522Q589 724 638 709T720 667T767 608T783 540Q783 465 753 414T672 330T555 284T415 270H223L146 0H44L254 724ZM330 640L248 354H411Q457 354 504 360T590 385T653 438T678 530Q678 553 668 573T634 608T574 631T487 640H330Z"  />
<glyph unicode="Q" horiz-adv-x="928" d="M416 -12Q327 -12 264 13T161 79T102 172T83 280Q83 372 116 454T210 599T358 699T551 736Q640 736 703 711T806 645T865 552T884 444Q884 379 867 318T818 203T740 107T635 36L749 -102H668Q647 -102 634 -96T615 -82L544 3Q514 -4 482 -8T416 -12ZM424 70Q440 70 455 71T486 74L400 179H435Q466 179 484 178T514 171T536 155T562 126L580 103Q630 127 667 164T729 246T766 339T779 435Q779 483 766 523T723 592T650 638T542 654Q453 654 387 621T276 534T210 417T188 289Q188 241 201 201T243 132T317 86T424 70Z"  />
<glyph unicode="R" horiz-adv-x="807" d="M254 724H509Q642 724 707 684T773 557Q773 498 753 454T694 380T602 331T482 306Q507 294 527 267L727 0H606L413 260Q404 272 397 279T379 290T355 296T320 298H232L146 0H44L254 724ZM331 640L256 381H395Q445 381 494 387T581 411T644 461T668 547Q668 599 624 619T481 640H331Z"  />
<glyph unicode="S" horiz-adv-x="756" d="M274 -12Q182 -12 123 1T23 32L47 114Q90 98 149 85T282 72Q406 72 473 107T540 199Q540 221 530 238T500 269T448 296T373 325Q327 341 288 357T219 396T173 450T156 525Q156 573 179 611T246 678T351 721T490 736Q573 736 634 723T733 691L709 609Q667 626 612 638T482 651Q374 651 318 618T262 528Q262 507 270 491T298 461T348 434T425 404Q476 386 517 370T586 331T630 279T646 205Q646 159 623 120T553 51T436 5T274 -12Z"  />
<glyph unicode="T" horiz-adv-x="755" d="M166 724H858L834 640H538L353 0H251L436 640H142L166 724Z"  />
<glyph unicode="U" horiz-adv-x="879" d="M367 -12Q306 -12 257 2T174 44T121 111T102 199Q102 240 115 283L243 724H345L217 281Q204 238 204 201Q204 74 374 74Q486 74 556 126T655 281L783 724H885L749 255Q708 114 610 51T367 -12Z"  />
<glyph unicode="V" horiz-adv-x="807" d="M139 724H241L343 110L796 724H918L374 0H264L139 724Z"  />
<glyph unicode="W" horiz-adv-x="1337" d="M152 724H254L323 115L735 724H832L894 111L1320 724H1433L920 0H819L754 594L348 0H246L152 724Z"  />
<glyph unicode="X" horiz-adv-x="793" d="M360 378L171 724H282L429 443L732 724H866L472 368L686 0H573L404 304L73 0H-60L360 378Z"  />
<glyph unicode="Y" horiz-adv-x="777" d="M332 270L139 724H250L398 353L763 724H889L434 273L355 0H254L332 270Z"  />
<glyph unicode="Z" horiz-adv-x="761" d="M14 79L635 640H188L212 724H798L774 645L153 84H626L602 0H-8L14 79Z"  />
<glyph unicode="[" horiz-adv-x="451" d="M276 758H506L489 700H353L140 -35H276L259 -93H29L276 758Z"  />
<glyph unicode="\" horiz-adv-x="539" d="M157 724H240L440 0H357L157 724Z"  />
<glyph unicode="]" horiz-adv-x="451" d="M-30 -35H107L319 700H183L200 758H430L184 -93H-47L-30 -35Z"  />
<glyph unicode="^" horiz-adv-x="544" d="M357 724H435L539 436H454L379 646L185 436H87L357 724Z"  />
<glyph unicode="_" horiz-adv-x="550" d="M-71 0H478L455 -78H-93L-71 0Z"  />
<glyph unicode="`" horiz-adv-x="504" d="M230 746H351L414 588H331L230 746Z"  />
<glyph unicode="a" horiz-adv-x="774" d="M509 49Q473 22 424 5T314 -12Q258 -12 214 5T138 52T90 123T73 213Q73 284 99 341T174 440T290 503T443 525Q494 525 546 512T633 478L652 513H734L585 0H509V49ZM349 64Q394 64 438 79T521 120L607 418Q575 432 530 440T442 448Q387 448 339 434T254 391T196 321T175 223Q175 142 222 103T349 64Z"  />
<glyph unicode="b" horiz-adv-x="776" d="M250 724H349L275 469Q311 494 358 509T460 525Q518 525 562 508T638 462T685 392T701 305Q701 232 674 174T598 74T481 10T331 -12Q277 -12 226 1T140 34L122 0H40L250 724ZM425 448Q383 448 337 433T252 391L166 94Q198 79 241 72T332 64Q385 64 433 78T518 122T577 194T599 295Q599 371 555 409T425 448Z"  />
<glyph unicode="c" horiz-adv-x="628" d="M321 -12Q264 -12 218 5T140 52T91 122T73 210Q73 283 101 341T180 440T299 503T450 525Q495 525 539 516T612 492L589 417Q561 429 520 436T441 444Q386 444 338 430T253 389T196 319T175 222Q175 142 223 104T351 65Q393 65 434 74T513 97L489 17Q463 4 416 -4T321 -12Z"  />
<glyph unicode="d" horiz-adv-x="774" d="M508 49Q472 22 423 5T314 -12Q258 -12 214 5T138 52T90 123T73 213Q73 284 99 341T174 440T290 503T443 525Q491 525 541 513T626 482L696 724H795L585 0H508V49ZM349 64Q394 64 438 79T521 120L607 418Q575 432 530 440T442 448Q387 448 339 434T254 391T196 321T175 223Q175 142 222 103T349 64Z"  />
<glyph unicode="e" horiz-adv-x="727" d="M351 -12Q291 -12 240 4T152 50T94 124T73 224Q73 288 96 343T162 438T268 502T409 525Q464 525 510 510T589 469T642 408T661 334Q661 313 657 286T644 236H173V230Q173 150 223 109T366 68Q431 68 487 79T591 113L567 31Q521 8 469 -2T351 -12ZM399 449Q314 449 260 412T184 310H565Q566 315 566 319T567 328Q567 354 554 376T518 414T464 440T399 449Z"  />
<glyph unicode="f" horiz-adv-x="514" d="M97 500L242 512L252 547Q279 640 343 688T518 736Q563 736 597 729T654 713L633 641Q608 649 578 654T511 659Q440 659 402 628T346 537L339 513H546L523 435H316L129 -211H32L219 435H78L97 500Z"  />
<glyph unicode="g" horiz-adv-x="774" d="M250 -223Q168 -223 106 -207T8 -168L36 -92Q74 -114 127 -128T250 -143Q298 -143 336 -136T404 -111T455 -62T491 17L505 64Q469 38 421 22T314 6Q258 6 214 22T138 66T90 132T73 215Q73 287 99 344T174 441T290 503T443 525Q494 525 546 512T633 478L652 513H734L585 0Q567 -62 537 -104T464 -173T368 -211T250 -223ZM349 82Q395 82 442 98T527 142L607 418Q575 432 530 440T442 448Q387 448 339 435T254 393T196 324T175 226Q175 154 222 118T349 82Z"  />
<glyph unicode="h" horiz-adv-x="769" d="M250 724H349L273 463Q308 490 356 507T468 525Q508 525 546 517T615 489T664 441T683 371Q683 344 674 313L583 0H484L573 306Q580 330 580 352Q580 403 540 425T436 447Q386 447 338 431T250 385L139 0H40L250 724Z"  />
<glyph unicode="i" horiz-adv-x="328" d="M189 513H288L139 0H40L189 513ZM250 724H349L318 615H219L250 724Z"  />
<glyph unicode="j" horiz-adv-x="328" d="M-106 -223Q-118 -223 -132 -221T-159 -217T-184 -211T-200 -205L-177 -131Q-167 -136 -145 -140T-103 -145Q-69 -145 -46 -135T-6 -104T22 -52T46 20L189 513H288L137 -7Q120 -67 101 -108T54 -174T-12 -211T-106 -223ZM250 724H349L318 615H219L250 724Z"  />
<glyph unicode="k" horiz-adv-x="679" d="M250 724H349L223 289L579 513H730L311 256L605 0H470L207 236L139 0H40L250 724Z"  />
<glyph unicode="l" horiz-adv-x="389" d="M174 -12Q119 -12 92 13T65 82Q65 94 66 107T73 134L244 724H342L170 131Q165 113 165 103Q165 68 213 68Q236 68 255 71T292 79L271 4Q254 -3 231 -7T174 -12Z"  />
<glyph unicode="m" horiz-adv-x="1213" d="M189 513H265V458Q301 487 351 506T468 525Q498 525 528 520T584 504T631 477T666 438Q705 476 767 500T912 525Q952 525 990 517T1059 489T1108 441T1127 371Q1127 344 1118 313L1027 0H928L1017 306Q1024 330 1024 352Q1024 403 984 425T880 447Q826 447 774 427T683 375V371Q683 344 674 313L583 0H484L573 306Q580 330 580 352Q580 403 540 425T436 447Q386 447 338 431T251 385L139 0H40L189 513Z"  />
<glyph unicode="n" horiz-adv-x="769" d="M189 513H265V458Q301 487 351 506T468 525Q508 525 546 517T615 489T664 441T683 371Q683 344 674 313L583 0H484L573 306Q580 330 580 352Q580 403 540 425T436 447Q386 447 338 431T251 385L139 0H40L189 513Z"  />
<glyph unicode="o" horiz-adv-x="771" d="M351 -12Q285 -12 233 6T146 56T92 130T73 220Q73 293 99 350T171 446T281 505T420 525Q486 525 538 507T625 457T679 383T698 293Q698 219 672 163T600 67T490 8T351 -12ZM359 63Q409 63 452 77T528 120T578 189T596 283Q596 361 547 405T412 450Q362 450 319 436T243 393T193 324T175 230Q175 152 224 108T359 63Z"  />
<glyph unicode="p" horiz-adv-x="774" d="M189 513H266V462Q303 490 353 507T460 525Q518 525 562 508T638 462T685 392T701 305Q701 232 674 174T598 74T481 10T331 -12Q280 -12 231 0T148 30L78 -211H-21L189 513ZM425 448Q383 448 337 433T252 391L166 94Q198 79 241 72T332 64Q385 64 433 78T518 122T577 194T599 295Q599 371 555 409T425 448Z"  />
<glyph unicode="q" horiz-adv-x="774" d="M498 42Q463 17 417 3T314 -12Q258 -12 214 5T138 52T90 123T73 213Q73 284 99 341T174 440T290 503T443 525Q494 525 546 512T633 478L652 513H734L524 -211H425L498 42ZM349 64Q394 64 438 79T521 120L607 418Q575 432 530 440T442 448Q387 448 339 434T254 391T196 321T175 223Q175 142 222 103T349 64Z"  />
<glyph unicode="r" horiz-adv-x="523" d="M189 513H274L261 437Q294 474 341 498T454 523Q477 523 504 520T547 510L523 425Q506 430 482 433T433 436Q398 436 369 428T316 407T273 378T240 347L139 0H40L189 513Z"  />
<glyph unicode="s" horiz-adv-x="641" d="M237 -12Q207 -12 176 -9T117 1T64 15T21 31L43 103Q77 89 132 78T244 66Q277 66 312 69T375 81T422 105T441 146Q441 174 405 189T305 220Q211 244 163 275T115 358Q115 404 136 435T194 487T280 516T384 525Q417 525 449 522T510 512T563 498T603 481L581 409Q546 424 491 435T377 447Q344 447 315 443T264 430T229 407T216 371Q216 343 252 328T352 297Q446 273 494 242T542 159Q542 111 517 79T450 26T353 -3T237 -12Z"  />
<glyph unicode="t" horiz-adv-x="541" d="M112 501L219 512L257 641H354L317 513H549L526 435H294L216 165Q209 143 209 125Q209 95 231 82T302 68Q335 68 366 73T424 86L401 9Q375 -2 343 -7T268 -12Q193 -12 151 17T109 105Q109 130 118 162L197 435H91L112 501Z"  />
<glyph unicode="u" horiz-adv-x="758" d="M493 53Q458 24 409 6T295 -12Q255 -12 217 -4T150 23T103 70T85 140Q85 167 94 200L185 513H284L195 207Q187 178 187 159Q187 109 224 88T324 66Q375 66 422 82T507 127L619 513H718L569 0H493V53Z"  />
<glyph unicode="v" horiz-adv-x="642" d="M84 513H183L259 103L572 513H686L283 0H191L84 513Z"  />
<glyph unicode="w" horiz-adv-x="1027" d="M95 513H193L246 107L527 513H623L669 108L956 513H1069L690 0H598L550 406L271 0H180L95 513Z"  />
<glyph unicode="x" horiz-adv-x="657" d="M270 267L113 513H225L338 320L558 513H687L384 256L550 0H439L315 203L85 0H-44L270 267Z"  />
<glyph unicode="y" horiz-adv-x="642" d="M-67 -223Q-82 -223 -102 -220T-132 -212L-108 -134Q-100 -136 -87 -138T-59 -141Q-26 -141 2 -134T57 -110T109 -70T161 -13L186 18L84 513H183L259 103L572 513H686L262 -25Q224 -73 189 -110T116 -172T34 -210T-67 -223Z"  />
<glyph unicode="z" horiz-adv-x="690" d="M172 513H670L650 445L171 78H557L534 0H10L29 69L507 435H148L172 513Z"  />
<glyph unicode="{" horiz-adv-x="451" d="M201 -93Q153 -93 120 -73T87 -7Q87 9 93 30L156 248Q161 266 161 277Q161 296 150 306T112 317H76L94 376H129Q161 376 181 390T213 445L273 651Q290 711 328 734T437 758H534L517 700H454Q414 700 394 687T363 639L303 432Q291 392 269 372T208 343Q228 332 240 315T252 272Q252 255 246 234L187 32Q182 14 182 2Q182 -16 193 -25T232 -35H304L287 -93H201H201Z"  />
<glyph unicode="|" horiz-adv-x="437" d="M307 724H386L115 -211H36L307 724Z"  />
<glyph unicode="}" horiz-adv-x="451" d="M-39 -35H24Q64 -35 84 -22T115 26L175 233Q186 273 208 293T269 322Q249 332 238 349T226 393Q226 410 232 431L291 633Q296 651 296 663Q296 681 285 690T246 700H174L191 758H277Q325 758 358 738T391 672Q391 656 385 635L322 417Q317 399 317 388Q317 369 328 359T366 348H402L384 289H349Q317 289 297 275T265 220L205 14Q188 -46 150 -69T41 -93H-56L-39 -35Z"  />
<glyph unicode="~" horiz-adv-x="553" d="M359 208Q325 208 301 221T258 249T224 277T192 290Q166 290 151 271T125 218H44Q50 248 62 275T93 324T137 359T194 372Q228 372 252 359T295 331T329 303T361 290Q387 290 403 309T428 362H509Q503 332 491 305T460 256T416 221T359 208Z"  />
<glyph unicode="&#xA0;" horiz-adv-x="331" />
<glyph unicode="&#xA1;" horiz-adv-x="402" d="M224 209Q221 191 216 164T203 106T189 44T174 -14L117 -211H9L66 -14Q73 12 85 43T109 106T132 164T150 209L190 314H244L224 209ZM302 391H174L209 513H337L302 391Z"  />
<glyph unicode="&#xA2;" horiz-adv-x="800" d="M355 80Q305 88 264 108T192 157T146 226T129 313Q129 388 159 448T241 550T363 618T513 649L546 766H631L598 649Q646 645 691 634T765 609L741 533Q702 551 654 560T552 570Q485 570 427 554T325 507T258 430T233 323Q233 277 249 245T293 193T361 164T446 155Q515 155 570 167T662 193L638 109Q618 101 598 95T554 85T502 77T438 74L405 -43H320L355 80Z"  />
<glyph unicode="&#xA3;" horiz-adv-x="800" d="M178 396H287L323 519Q338 571 361 611T420 679T503 721T614 736Q654 736 693 729T756 710L733 628Q716 635 683 641T608 648Q566 648 536 640T483 612T444 563T416 490L389 396H653L629 312H364L327 182Q316 144 303 121T271 84H644L620 0H32L54 79H72Q107 79 132 84T176 104T207 143T232 207L262 312H154L178 396Z"  />
<glyph unicode="&#xA4;" horiz-adv-x="833" d="M511 152Q479 141 445 136T373 130Q305 130 252 152L161 69L96 130L186 198Q143 246 143 317Q143 389 178 445T274 537L216 621L292 672L347 570Q379 581 413 586T485 592Q554 592 606 569L697 653L762 592L672 523Q692 500 703 471T715 405Q715 333 679 277T583 185L642 101L566 50L511 152ZM385 209Q433 209 475 222T549 261T599 321T618 398Q618 458 582 485T473 513Q425 513 383 500T309 461T259 401T240 324Q240 264 276 237T385 209Z"  />
<glyph unicode="&#xA5;" horiz-adv-x="800" d="M125 398H278L139 724H250L398 353L763 724H889L560 398H715L691 317H478L434 273L418 219H662L639 138H395L355 0H254L294 138H49L73 219H317L332 270L312 317H101L125 398Z"  />
<glyph unicode="&#xA6;" horiz-adv-x="437" d="M158 218H237L147 -93H68L158 218ZM315 758H394L304 447H225L315 758Z"  />
<glyph unicode="&#xA7;" horiz-adv-x="800" d="M304 -66Q229 -66 163 -55T46 -27L69 47Q124 31 182 23T307 14Q341 14 376 18T440 32T486 57T504 95Q504 120 477 133T396 162L232 210Q172 227 134 259T95 340Q95 363 104 383T129 421T166 454T211 481Q189 498 177 518T164 564Q164 613 191 646T261 699T359 727T467 736Q542 736 608 726T725 698L702 623Q647 639 589 647T464 656Q429 656 394 652T331 637T285 612T267 575Q267 550 294 537T375 508L539 460Q599 443 637 411T676 330Q676 284 642 249T559 189Q581 172 594 151T607 106Q607 57 580 24T510 -29T412 -57T304 -66ZM574 312Q574 358 480 385L312 433L276 445Q244 428 221 406T197 358Q197 312 291 285L459 237Q468 234 477 231T495 224Q527 241 550 263T574 312Z"  />
<glyph unicode="&#xA8;" horiz-adv-x="504" d="M185 718H294L264 617H155L185 718ZM439 718H548L518 617H409L439 718Z"  />
<glyph unicode="&#xA9;" horiz-adv-x="918" d="M442 135Q394 135 356 148T293 186T254 242T240 310Q240 370 263 420T326 507T419 564T533 585Q575 585 611 577T675 555L657 492Q631 506 597 512T536 519Q496 519 458 505T389 466T340 404T321 322Q321 287 331 264T359 227T400 207T451 201Q492 201 529 210T590 227L571 160Q549 150 512 143T442 135ZM407 -12Q330 -12 268 11T163 74T96 171T72 293Q72 382 106 462T202 603T352 700T547 736Q624 736 686 713T791 649T858 553T882 431Q882 342 848 262T752 120T602 24T407 -12ZM413 47Q511 47 585 79T709 164T784 285T810 424Q810 479 791 525T737 604T652 657T541 676Q443 676 369 644T245 559T170 439T144 300Q144 245 163 199T217 119T301 66T413 47Z"  />
<glyph unicode="&#xAA;" horiz-adv-x="637" d="M485 348Q456 326 417 314T329 301Q284 301 248 315T188 354T150 411T136 481Q136 540 158 586T219 665T312 714T432 731Q474 731 516 722T586 696L599 721H665L546 311H485V348ZM357 362Q392 362 428 374T494 406L563 643Q537 655 501 661T431 667Q387 667 349 657T281 624T236 568T219 488Q219 431 256 397T357 362ZM54 187H518L498 116H34L54 187Z"  />
<glyph unicode="&#xAB;" horiz-adv-x="688" d="M69 300L307 486H410L181 290L302 114H219L69 300ZM331 300L569 486H672L443 290L564 114H481L331 300Z"  />
<glyph unicode="&#xAC;" horiz-adv-x="666" d="M499 256H52L76 340H608L534 84H449L499 256Z"  />
<glyph unicode="&#xAD;" horiz-adv-x="478" d="M85 347H421L394 253H57L85 347Z"  />
<glyph unicode="&#xAE;" horiz-adv-x="764" d="M373 200Q313 200 266 218T187 267T137 337T120 421Q120 487 146 544T220 644T335 711T486 736Q546 736 593 718T672 669T722 598T739 515Q739 449 713 392T639 292T524 225T373 200ZM379 251Q452 251 508 271T602 328T659 412T679 515Q679 547 668 577T634 632T572 670T480 685Q407 685 351 665T257 608T200 524T180 421Q180 389 191 359T225 304T287 266T379 251ZM351 616H475Q517 616 546 600T575 543Q575 520 565 504T540 476T507 458T471 448Q481 441 488 425L536 325H472L429 418Q424 430 418 434T398 439H359L327 325H268L351 616ZM397 570L372 485H436Q470 485 491 497T513 536Q513 555 501 562T462 570H397Z"  />
<glyph unicode="&#xAF;" horiz-adv-x="504" d="M199 697H536L515 622H178L199 697Z"  />
<glyph unicode="&#xB0;" horiz-adv-x="518" d="M314 384Q282 384 253 395T201 426T164 474T150 538Q150 578 167 614T213 677T281 720T365 736Q396 736 426 725T478 694T515 646T529 582Q529 542 512 506T466 443T398 400T314 384ZM320 453Q346 453 369 462T410 487T438 526T449 574Q449 596 442 613T422 642T393 660T359 667Q333 667 310 658T269 633T241 594T230 546Q230 524 237 507T257 478T286 460T320 453Z"  />
<glyph unicode="&#xB1;" horiz-adv-x="742" d="M111 447H364L426 660H517L455 447H708L685 369H432L368 147H277L341 369H88L111 447ZM5 78H602L579 0H-18L5 78Z"  />
<glyph unicode="&#xB2;" horiz-adv-x="490" d="M95 386L249 479Q288 502 316 520T363 555T391 588T401 621Q401 647 381 658T315 670Q285 670 251 664T183 647L201 709Q227 719 261 725T330 732Q402 732 443 707T485 629Q485 599 471 574T431 525T370 480T292 434L216 392H457L440 333H80L95 386Z"  />
<glyph unicode="&#xB3;" horiz-adv-x="490" d="M260 325Q201 325 163 334T102 353L118 411Q143 402 177 394T255 385Q314 385 350 403T386 453Q386 478 363 492T284 506H233L250 564H301Q355 564 387 579T420 628Q420 648 398 659T334 671Q299 671 260 664T189 644L207 704Q235 717 270 724T346 732Q418 732 461 707T504 639Q504 600 478 574T405 533Q470 510 470 453Q470 397 415 361T260 325Z"  />
<glyph unicode="&#xB4;" horiz-adv-x="504" d="M349 746H490L311 588H214L349 746Z"  />
<glyph unicode="&#xB5;" horiz-adv-x="767" d="M598 -12Q551 -12 530 9T509 64Q474 31 422 10T299 -12Q253 -12 211 -1T138 34Q138 22 137 4T127 -41L77 -211H-21L189 513H288L199 207Q188 169 192 142T215 98T262 74T328 66Q379 66 426 82T511 127L623 513H722L607 117Q604 105 604 97Q604 70 641 70Q655 70 668 72T695 77L673 3Q659 -4 639 -8T598 -12Z"  />
<glyph unicode="&#xB6;" horiz-adv-x="777" d="M359 310H330Q278 310 236 322T163 356T116 410T99 481Q99 545 127 591T201 666T307 710T430 724H761L491 -211H399L648 646H548L300 -211H208L359 310Z"  />
<glyph unicode="&#xB7;" horiz-adv-x="418" d="M170 362H298L263 240H135L170 362Z"  />
<glyph unicode="&#xB8;" horiz-adv-x="504" d="M108 -216Q93 -216 75 -214T46 -207L60 -157Q68 -159 78 -160T105 -162Q113 -162 123 -161T142 -155T157 -144T163 -126Q163 -116 157 -109T142 -98T122 -90T101 -85L164 10H221L181 -63Q204 -71 217 -87T231 -129Q231 -153 220 -169T190 -196T151 -211T108 -216Z"  />
<glyph unicode="&#xB9;" horiz-adv-x="490" d="M238 695L371 724H427L326 392H425L408 333H128L145 392H244L324 655L220 635L238 695Z"  />
<glyph unicode="&#xBA;" horiz-adv-x="683" d="M361 301Q310 301 270 316T203 356T161 416T146 488Q146 547 167 592T227 668T318 715T432 731Q483 731 523 716T590 676T632 617T646 545Q646 486 625 441T565 364T475 317T361 301ZM368 361Q410 361 446 372T509 406T551 462T567 537Q567 600 529 636T425 672Q383 672 347 660T284 626T242 570T226 495Q226 433 264 397T368 361ZM54 187H587L567 116H34L54 187Z"  />
<glyph unicode="&#xBB;" horiz-adv-x="688" d="M245 309L124 486H207L357 300L119 114H16L245 309ZM507 309L386 486H469L619 300L381 114H278L507 309Z"  />
<glyph unicode="&#xBC;" horiz-adv-x="1199" d="M238 695L371 724H427L326 392H425L408 333H128L145 392H244L324 655L220 635L238 695ZM1017 754H1115L233 -30H135L1017 754ZM968 79H719L735 132L1067 391H1144L1068 138H1149L1132 79H1050L1027 0H944L968 79ZM986 138L1032 292L834 138H986Z"  />
<glyph unicode="&#xBD;" horiz-adv-x="1199" d="M238 695L371 724H427L326 392H425L408 333H128L145 392H244L324 655L220 635L238 695ZM1017 754H1115L233 -30H135L1017 754ZM745 53L899 146Q938 169 966 187T1013 222T1041 255T1051 288Q1051 314 1031 325T965 337Q935 337 901 331T833 314L851 376Q877 386 911 392T980 399Q1052 399 1093 374T1135 296Q1135 266 1121 241T1081 192T1020 147T942 101L866 59H1107L1090 0H730L745 53Z"  />
<glyph unicode="&#xBE;" horiz-adv-x="1199" d="M260 325Q201 325 163 334T102 353L118 411Q143 402 177 394T255 385Q314 385 350 403T386 453Q386 478 363 492T284 506H233L250 564H301Q355 564 387 579T420 628Q420 648 398 659T334 671Q299 671 260 664T189 644L207 704Q235 717 270 724T346 732Q418 732 461 707T504 639Q504 600 478 574T405 533Q470 510 470 453Q470 397 415 361T260 325ZM1017 754H1115L233 -30H135L1017 754ZM968 79H719L735 132L1067 391H1144L1068 138H1149L1132 79H1050L1027 0H944L968 79ZM986 138L1032 292L834 138H986Z"  />
<glyph unicode="&#xBF;" horiz-adv-x="513" d="M334 183L179 105Q100 65 56 29T12 -55Q12 -72 19 -87T45 -113T91 -130T162 -136Q210 -136 272 -125T395 -92L370 -178Q319 -198 260 -210T135 -223Q85 -223 43 -212T-31 -181T-81 -133T-99 -68Q-99 -23 -79 13T-25 79T50 132T135 177L261 238L289 315H363L334 183ZM408 391H280L315 513H443L408 391Z"  />
<glyph unicode="&#xC0;" horiz-adv-x="853" d="M493 724H609L750 0H647L612 179H189L51 0H-67L493 724ZM249 263H597L530 635L249 263ZM423 930H544L607 772H524L423 930Z"  />
<glyph unicode="&#xC1;" horiz-adv-x="853" d="M493 724H609L750 0H647L612 179H189L51 0H-67L493 724ZM249 263H597L530 635L249 263ZM651 930H792L613 772H516L651 930Z"  />
<glyph unicode="&#xC2;" horiz-adv-x="853" d="M493 724H609L750 0H647L612 179H189L51 0H-67L493 724ZM249 263H597L530 635L249 263ZM555 930H640L740 772H658L582 852L460 772H364L555 930Z"  />
<glyph unicode="&#xC3;" horiz-adv-x="853" d="M493 724H609L750 0H647L612 179H189L51 0H-67L493 724ZM249 263H597L530 635L249 263ZM647 783Q617 783 598 792T563 813T536 834T508 844Q486 844 472 829T448 788H376Q383 813 394 836T422 878T460 908T508 919Q538 919 557 910T592 889T619 868T647 858Q668 858 683 873T708 914H779Q772 889 761 866T733 824T696 794T647 783Z"  />
<glyph unicode="&#xC4;" horiz-adv-x="853" d="M493 724H609L750 0H647L612 179H189L51 0H-67L493 724ZM249 263H597L530 635L249 263ZM417 902H526L496 801H387L417 902ZM671 902H780L750 801H641L671 902Z"  />
<glyph unicode="&#xC5;" horiz-adv-x="853" d="M493 724H609L750 0H647L612 179H189L51 0H-67L493 724ZM249 263H597L530 635L249 263ZM567 768Q546 768 529 775T498 795T478 825T470 862Q470 887 480 909T508 946T549 971T600 980Q642 980 669 953T697 885Q697 860 687 839T659 802T618 777T567 768ZM575 817Q601 817 621 835T641 879Q641 900 628 915T592 931Q566 931 546 913T526 868Q526 848 539 833T575 817Z"  />
<glyph unicode="&#xC6;" horiz-adv-x="1207" d="M531 179H168L17 0H-109L509 724H1247L1223 640H766L701 414H1099L1075 330H677L605 84H1068L1044 0H479L531 179ZM239 263H555L664 640H557L239 263Z"  />
<glyph unicode="&#xC7;" horiz-adv-x="768" d="M322 -216Q307 -216 289 -214T260 -207L274 -157Q282 -159 292 -160T319 -162Q327 -162 337 -161T356 -155T371 -144T377 -126Q377 -116 371 -109T356 -98T336 -90T315 -85L364 -10Q297 -4 245 20T157 83T102 173T83 286Q83 381 120 463T224 606T379 701T572 736Q638 736 695 727T793 697L769 615Q723 637 671 644T571 651Q499 651 430 626T307 555T221 443T188 296Q188 231 207 188T259 120T336 83T431 72Q501 72 557 84T647 107L621 20Q587 6 534 -2T423 -12L395 -63Q418 -71 431 -87T445 -129Q445 -153 434 -169T404 -196T365 -211T322 -216Z"  />
<glyph unicode="&#xC8;" horiz-adv-x="772" d="M251 724H812L788 640H329L264 414H664L640 330H240L170 84H633L609 0H44L251 724ZM405 930H526L589 772H506L405 930Z"  />
<glyph unicode="&#xC9;" horiz-adv-x="772" d="M251 724H812L788 640H329L264 414H664L640 330H240L170 84H633L609 0H44L251 724ZM633 930H774L595 772H498L633 930Z"  />
<glyph unicode="&#xCA;" horiz-adv-x="772" d="M251 724H812L788 640H329L264 414H664L640 330H240L170 84H633L609 0H44L251 724ZM537 930H622L722 772H640L564 852L442 772H346L537 930Z"  />
<glyph unicode="&#xCB;" horiz-adv-x="772" d="M251 724H812L788 640H329L264 414H664L640 330H240L170 84H633L609 0H44L251 724ZM399 902H508L478 801H369L399 902ZM653 902H762L732 801H623L653 902Z"  />
<glyph unicode="&#xCC;" horiz-adv-x="533" d="M216 724H577L553 640H424L262 84H391L367 0H6L30 84H160L322 640H192L216 724ZM269 930H390L453 772H370L269 930Z"  />
<glyph unicode="&#xCD;" horiz-adv-x="533" d="M216 724H577L553 640H424L262 84H391L367 0H6L30 84H160L322 640H192L216 724ZM497 930H638L459 772H362L497 930Z"  />
<glyph unicode="&#xCE;" horiz-adv-x="533" d="M216 724H577L553 640H424L262 84H391L367 0H6L30 84H160L322 640H192L216 724ZM409 930H494L594 772H512L436 852L314 772H218L409 930Z"  />
<glyph unicode="&#xCF;" horiz-adv-x="533" d="M216 724H577L553 640H424L262 84H391L367 0H6L30 84H160L322 640H192L216 724ZM263 902H372L342 801H233L263 902ZM517 902H626L596 801H487L517 902Z"  />
<glyph unicode="&#xD0;" horiz-adv-x="885" d="M101 400H166L259 724H524Q602 724 664 703T769 643T834 554T857 441Q857 346 819 265T714 125T557 33T361 0H52L145 325H80L101 400ZM337 640L268 400H461L440 325H247L178 84H372Q454 84 524 111T644 185T723 295T752 431Q752 476 738 514T694 580T622 624T521 640H337Z"  />
<glyph unicode="&#xD1;" horiz-adv-x="960" d="M254 724H357L677 125L851 724H951L741 0H639L318 601L144 0H44L254 724ZM700 783Q670 783 651 792T616 813T589 834T561 844Q539 844 525 829T501 788H429Q436 813 447 836T475 878T513 908T561 919Q591 919 610 910T645 889T672 868T700 858Q721 858 736 873T761 914H832Q825 889 814 866T786 824T749 794T700 783Z"  />
<glyph unicode="&#xD2;" horiz-adv-x="928" d="M416 -12Q327 -12 264 13T161 79T102 172T83 280Q83 372 116 454T210 599T358 699T551 736Q640 736 703 711T806 645T865 552T884 444Q884 352 851 270T757 125T609 25T416 -12ZM424 70Q513 70 579 103T690 190T757 307T779 435Q779 483 766 523T723 592T650 638T542 654Q453 654 387 621T276 534T210 417T188 289Q188 241 201 201T243 132T317 86T424 70ZM433 930H554L617 772H534L433 930Z"  />
<glyph unicode="&#xD3;" horiz-adv-x="928" d="M416 -12Q327 -12 264 13T161 79T102 172T83 280Q83 372 116 454T210 599T358 699T551 736Q640 736 703 711T806 645T865 552T884 444Q884 352 851 270T757 125T609 25T416 -12ZM424 70Q513 70 579 103T690 190T757 307T779 435Q779 483 766 523T723 592T650 638T542 654Q453 654 387 621T276 534T210 417T188 289Q188 241 201 201T243 132T317 86T424 70ZM661 930H802L623 772H526L661 930Z"  />
<glyph unicode="&#xD4;" horiz-adv-x="928" d="M416 -12Q327 -12 264 13T161 79T102 172T83 280Q83 372 116 454T210 599T358 699T551 736Q640 736 703 711T806 645T865 552T884 444Q884 352 851 270T757 125T609 25T416 -12ZM424 70Q513 70 579 103T690 190T757 307T779 435Q779 483 766 523T723 592T650 638T542 654Q453 654 387 621T276 534T210 417T188 289Q188 241 201 201T243 132T317 86T424 70ZM565 930H650L750 772H668L592 852L470 772H374L565 930Z"  />
<glyph unicode="&#xD5;" horiz-adv-x="928" d="M416 -12Q327 -12 264 13T161 79T102 172T83 280Q83 372 116 454T210 599T358 699T551 736Q640 736 703 711T806 645T865 552T884 444Q884 352 851 270T757 125T609 25T416 -12ZM424 70Q513 70 579 103T690 190T757 307T779 435Q779 483 766 523T723 592T650 638T542 654Q453 654 387 621T276 534T210 417T188 289Q188 241 201 201T243 132T317 86T424 70ZM657 783Q627 783 608 792T573 813T546 834T518 844Q496 844 482 829T458 788H386Q393 813 404 836T432 878T470 908T518 919Q548 919 567 910T602 889T629 868T657 858Q678 858 693 873T718 914H789Q782 889 771 866T743 824T706 794T657 783Z"  />
<glyph unicode="&#xD6;" horiz-adv-x="928" d="M416 -12Q327 -12 264 13T161 79T102 172T83 280Q83 372 116 454T210 599T358 699T551 736Q640 736 703 711T806 645T865 552T884 444Q884 352 851 270T757 125T609 25T416 -12ZM424 70Q513 70 579 103T690 190T757 307T779 435Q779 483 766 523T723 592T650 638T542 654Q453 654 387 621T276 534T210 417T188 289Q188 241 201 201T243 132T317 86T424 70ZM427 902H536L506 801H397L427 902ZM681 902H790L760 801H651L681 902Z"  />
<glyph unicode="&#xD7;" horiz-adv-x="742" d="M50 132L305 304L157 473L226 512L370 347L615 512L675 463L420 291L568 122L500 83L355 247L111 83L50 132Z"  />
<glyph unicode="&#xD8;" horiz-adv-x="928" d="M416 -12Q333 -12 273 9T172 68L90 0H-33L123 128Q102 163 93 201T83 280Q83 372 116 454T210 599T358 699T551 736Q626 736 682 718T779 668L846 724H968L833 612Q859 575 871 532T884 444Q884 352 851 270T757 125T609 25T416 -12ZM424 70Q513 70 579 103T690 190T757 307T779 435Q779 498 755 548L246 129Q275 101 319 86T424 70ZM188 289Q188 237 203 195L705 608Q676 630 636 642T542 654Q453 654 387 621T276 534T210 417T188 289Z"  />
<glyph unicode="&#xD9;" horiz-adv-x="879" d="M367 -12Q306 -12 257 2T174 44T121 111T102 199Q102 240 115 283L243 724H345L217 281Q204 238 204 201Q204 74 374 74Q486 74 556 126T655 281L783 724H885L749 255Q708 114 610 51T367 -12ZM436 930H557L620 772H537L436 930Z"  />
<glyph unicode="&#xDA;" horiz-adv-x="879" d="M367 -12Q306 -12 257 2T174 44T121 111T102 199Q102 240 115 283L243 724H345L217 281Q204 238 204 201Q204 74 374 74Q486 74 556 126T655 281L783 724H885L749 255Q708 114 610 51T367 -12ZM664 930H805L626 772H529L664 930Z"  />
<glyph unicode="&#xDB;" horiz-adv-x="879" d="M367 -12Q306 -12 257 2T174 44T121 111T102 199Q102 240 115 283L243 724H345L217 281Q204 238 204 201Q204 74 374 74Q486 74 556 126T655 281L783 724H885L749 255Q708 114 610 51T367 -12ZM568 930H653L753 772H671L595 852L473 772H377L568 930Z"  />
<glyph unicode="&#xDC;" horiz-adv-x="879" d="M367 -12Q306 -12 257 2T174 44T121 111T102 199Q102 240 115 283L243 724H345L217 281Q204 238 204 201Q204 74 374 74Q486 74 556 126T655 281L783 724H885L749 255Q708 114 610 51T367 -12ZM428 902H537L507 801H398L428 902ZM682 902H791L761 801H652L682 902Z"  />
<glyph unicode="&#xDD;" horiz-adv-x="777" d="M332 270L139 724H250L398 353L763 724H889L434 273L355 0H254L332 270ZM606 930H747L568 772H471L606 930Z"  />
<glyph unicode="&#xDE;" horiz-adv-x="774" d="M254 724H356L318 594H463Q534 594 585 580T668 540T716 478T732 398Q732 331 703 282T623 202T502 155T350 140H186L146 0H44L254 724ZM294 510L211 224H364Q495 224 561 269T627 387Q627 450 586 480T447 510H294Z"  />
<glyph unicode="&#xDF;" horiz-adv-x="794" d="M180 488Q199 556 231 603T307 679T401 722T511 736Q566 736 611 726T690 697T741 650T760 585Q760 545 742 514T691 460T615 420T519 392L488 385L552 359Q591 343 624 325T682 286T720 240T734 183Q734 126 710 89T645 29T553 -3T446 -12Q420 -12 394 -9T343 -1T297 10T259 25L280 97Q312 83 357 74T452 65Q479 65 510 68T569 82T614 114T632 173Q632 189 625 205T600 237T554 270T483 305L355 360L374 428L483 454Q566 474 613 502T660 576Q660 620 617 640T501 661Q419 661 360 617T272 470L77 -211H-20L180 488Z"  />
<glyph unicode="&#xE0;" horiz-adv-x="774" d="M509 49Q473 22 424 5T314 -12Q258 -12 214 5T138 52T90 123T73 213Q73 284 99 341T174 440T290 503T443 525Q494 525 546 512T633 478L652 513H734L585 0H509V49ZM349 64Q394 64 438 79T521 120L607 418Q575 432 530 440T442 448Q387 448 339 434T254 391T196 321T175 223Q175 142 222 103T349 64ZM330 746H451L514 588H431L330 746Z"  />
<glyph unicode="&#xE1;" horiz-adv-x="774" d="M509 49Q473 22 424 5T314 -12Q258 -12 214 5T138 52T90 123T73 213Q73 284 99 341T174 440T290 503T443 525Q494 525 546 512T633 478L652 513H734L585 0H509V49ZM349 64Q394 64 438 79T521 120L607 418Q575 432 530 440T442 448Q387 448 339 434T254 391T196 321T175 223Q175 142 222 103T349 64ZM558 746H699L520 588H423L558 746Z"  />
<glyph unicode="&#xE2;" horiz-adv-x="774" d="M509 49Q473 22 424 5T314 -12Q258 -12 214 5T138 52T90 123T73 213Q73 284 99 341T174 440T290 503T443 525Q494 525 546 512T633 478L652 513H734L585 0H509V49ZM349 64Q394 64 438 79T521 120L607 418Q575 432 530 440T442 448Q387 448 339 434T254 391T196 321T175 223Q175 142 222 103T349 64ZM462 746H547L647 588H565L489 668L367 588H271L462 746Z"  />
<glyph unicode="&#xE3;" horiz-adv-x="774" d="M509 49Q473 22 424 5T314 -12Q258 -12 214 5T138 52T90 123T73 213Q73 284 99 341T174 440T290 503T443 525Q494 525 546 512T633 478L652 513H734L585 0H509V49ZM349 64Q394 64 438 79T521 120L607 418Q575 432 530 440T442 448Q387 448 339 434T254 391T196 321T175 223Q175 142 222 103T349 64ZM554 599Q524 599 505 608T470 629T443 650T415 660Q393 660 379 645T355 604H283Q290 629 301 652T329 694T367 724T415 735Q445 735 464 726T499 705T526 684T554 674Q575 674 590 689T615 730H686Q679 705 668 682T640 640T603 610T554 599Z"  />
<glyph unicode="&#xE4;" horiz-adv-x="774" d="M509 49Q473 22 424 5T314 -12Q258 -12 214 5T138 52T90 123T73 213Q73 284 99 341T174 440T290 503T443 525Q494 525 546 512T633 478L652 513H734L585 0H509V49ZM349 64Q394 64 438 79T521 120L607 418Q575 432 530 440T442 448Q387 448 339 434T254 391T196 321T175 223Q175 142 222 103T349 64ZM324 718H433L403 617H294L324 718ZM578 718H687L657 617H548L578 718Z"  />
<glyph unicode="&#xE5;" horiz-adv-x="774" d="M509 49Q473 22 424 5T314 -12Q258 -12 214 5T138 52T90 123T73 213Q73 284 99 341T174 440T290 503T443 525Q494 525 546 512T633 478L652 513H734L585 0H509V49ZM349 64Q394 64 438 79T521 120L607 418Q575 432 530 440T442 448Q387 448 339 434T254 391T196 321T175 223Q175 142 222 103T349 64ZM481 584Q460 584 443 591T412 611T392 641T384 678Q384 703 394 725T422 762T463 787T514 796Q556 796 583 769T611 701Q611 676 601 655T573 618T532 593T481 584ZM489 633Q515 633 535 651T555 695Q555 716 542 731T506 747Q480 747 460 729T440 684Q440 664 453 649T489 633Z"  />
<glyph unicode="&#xE6;" horiz-adv-x="1142" d="M766 -12Q690 -12 629 13T532 86Q482 45 411 17T244 -12Q202 -12 166 -3T104 23T62 67T46 129Q46 171 65 204T127 261T234 298T392 311H500L501 315Q507 336 507 353Q507 403 468 424T368 446Q329 446 298 444T240 436T189 423T139 407L161 484Q205 503 261 514T384 525Q447 525 500 504T579 438Q622 478 681 501T814 525Q872 525 920 510T1003 469T1057 408T1076 334Q1076 313 1072 286T1059 236H588V230Q588 150 638 110T781 69Q846 69 902 80T1006 114L982 31Q936 8 884 -2T766 -12ZM275 64Q305 64 336 71T397 89T453 115T500 145Q488 181 488 224V236H405Q334 236 286 230T207 210T164 179T151 139Q151 99 180 82T275 64ZM814 448Q729 448 675 412T600 311H980Q982 321 982 328Q982 354 969 376T933 414T879 439T814 448Z"  />
<glyph unicode="&#xE7;" horiz-adv-x="628" d="M243 -216Q228 -216 210 -214T181 -207L195 -157Q203 -159 213 -160T240 -162Q248 -162 258 -161T277 -155T292 -144T298 -126Q298 -116 292 -109T277 -98T257 -90T236 -85L285 -10Q236 -5 197 14T130 62T88 128T73 210Q73 283 101 341T180 440T299 503T450 525Q495 525 539 516T612 492L589 417Q561 429 520 436T441 444Q386 444 338 430T253 389T196 319T175 222Q175 142 223 104T351 65Q393 65 434 74T513 97L489 17Q466 6 426 -1T344 -11L316 -63Q339 -71 352 -87T366 -129Q366 -153 355 -169T325 -196T286 -211T243 -216Z"  />
<glyph unicode="&#xE8;" horiz-adv-x="727" d="M351 -12Q291 -12 240 4T152 50T94 124T73 224Q73 288 96 343T162 438T268 502T409 525Q464 525 510 510T589 469T642 408T661 334Q661 313 657 286T644 236H173V230Q173 150 223 109T366 68Q431 68 487 79T591 113L567 31Q521 8 469 -2T351 -12ZM399 449Q314 449 260 412T184 310H565Q566 315 566 319T567 328Q567 354 554 376T518 414T464 440T399 449ZM285 746H406L469 588H386L285 746Z"  />
<glyph unicode="&#xE9;" horiz-adv-x="727" d="M351 -12Q291 -12 240 4T152 50T94 124T73 224Q73 288 96 343T162 438T268 502T409 525Q464 525 510 510T589 469T642 408T661 334Q661 313 657 286T644 236H173V230Q173 150 223 109T366 68Q431 68 487 79T591 113L567 31Q521 8 469 -2T351 -12ZM399 449Q314 449 260 412T184 310H565Q566 315 566 319T567 328Q567 354 554 376T518 414T464 440T399 449ZM513 746H654L475 588H378L513 746Z"  />
<glyph unicode="&#xEA;" horiz-adv-x="727" d="M351 -12Q291 -12 240 4T152 50T94 124T73 224Q73 288 96 343T162 438T268 502T409 525Q464 525 510 510T589 469T642 408T661 334Q661 313 657 286T644 236H173V230Q173 150 223 109T366 68Q431 68 487 79T591 113L567 31Q521 8 469 -2T351 -12ZM399 449Q314 449 260 412T184 310H565Q566 315 566 319T567 328Q567 354 554 376T518 414T464 440T399 449ZM417 746H502L602 588H520L444 668L322 588H226L417 746Z"  />
<glyph unicode="&#xEB;" horiz-adv-x="727" d="M351 -12Q291 -12 240 4T152 50T94 124T73 224Q73 288 96 343T162 438T268 502T409 525Q464 525 510 510T589 469T642 408T661 334Q661 313 657 286T644 236H173V230Q173 150 223 109T366 68Q431 68 487 79T591 113L567 31Q521 8 469 -2T351 -12ZM399 449Q314 449 260 412T184 310H565Q566 315 566 319T567 328Q567 354 554 376T518 414T464 440T399 449ZM279 718H388L358 617H249L279 718ZM533 718H642L612 617H503L533 718Z"  />
<glyph unicode="&#xEC;" horiz-adv-x="328" d="M189 513H288L139 0H40L189 513ZM118 746H239L302 588H219L118 746Z"  />
<glyph unicode="&#xED;" horiz-adv-x="328" d="M189 513H288L139 0H40L189 513ZM346 746H487L308 588H211L346 746Z"  />
<glyph unicode="&#xEE;" horiz-adv-x="328" d="M189 513H288L139 0H40L189 513ZM250 746H335L435 588H353L277 668L155 588H59L250 746Z"  />
<glyph unicode="&#xEF;" horiz-adv-x="328" d="M189 513H288L139 0H40L189 513ZM112 718H221L191 617H82L112 718ZM366 718H475L445 617H336L366 718Z"  />
<glyph unicode="&#xF0;" horiz-adv-x="754" d="M305 600L431 644Q408 659 383 671T329 694L358 744Q399 733 438 716T513 672L713 742L694 669L569 626Q628 569 664 490T700 311Q700 233 675 173T603 72T489 9T338 -12Q278 -12 229 4T144 50T89 120T70 208Q70 281 98 336T173 427T277 481T396 499Q438 499 469 494T525 481T566 462T596 439Q561 533 490 598L286 528L305 600ZM347 62Q399 62 444 74T524 113T577 178T596 270Q596 348 548 386T418 425Q365 425 320 413T241 374T188 309T169 217Q169 178 183 149T221 101T277 72T347 62Z"  />
<glyph unicode="&#xF1;" horiz-adv-x="769" d="M189 513H265V458Q301 487 351 506T468 525Q508 525 546 517T615 489T664 441T683 371Q683 344 674 313L583 0H484L573 306Q580 330 580 352Q580 403 540 425T436 447Q386 447 338 431T251 385L139 0H40L189 513ZM565 599Q535 599 516 608T481 629T454 650T426 660Q404 660 390 645T366 604H294Q301 629 312 652T340 694T378 724T426 735Q456 735 475 726T510 705T537 684T565 674Q586 674 601 689T626 730H697Q690 705 679 682T651 640T614 610T565 599Z"  />
<glyph unicode="&#xF2;" horiz-adv-x="771" d="M351 -12Q285 -12 233 6T146 56T92 130T73 220Q73 293 99 350T171 446T281 505T420 525Q486 525 538 507T625 457T679 383T698 293Q698 219 672 163T600 67T490 8T351 -12ZM359 63Q409 63 452 77T528 120T578 189T596 283Q596 361 547 405T412 450Q362 450 319 436T243 393T193 324T175 230Q175 152 224 108T359 63ZM304 746H425L488 588H405L304 746Z"  />
<glyph unicode="&#xF3;" horiz-adv-x="771" d="M351 -12Q285 -12 233 6T146 56T92 130T73 220Q73 293 99 350T171 446T281 505T420 525Q486 525 538 507T625 457T679 383T698 293Q698 219 672 163T600 67T490 8T351 -12ZM359 63Q409 63 452 77T528 120T578 189T596 283Q596 361 547 405T412 450Q362 450 319 436T243 393T193 324T175 230Q175 152 224 108T359 63ZM532 746H673L494 588H397L532 746Z"  />
<glyph unicode="&#xF4;" horiz-adv-x="771" d="M351 -12Q285 -12 233 6T146 56T92 130T73 220Q73 293 99 350T171 446T281 505T420 525Q486 525 538 507T625 457T679 383T698 293Q698 219 672 163T600 67T490 8T351 -12ZM359 63Q409 63 452 77T528 120T578 189T596 283Q596 361 547 405T412 450Q362 450 319 436T243 393T193 324T175 230Q175 152 224 108T359 63ZM436 746H521L621 588H539L463 668L341 588H245L436 746Z"  />
<glyph unicode="&#xF5;" horiz-adv-x="771" d="M351 -12Q285 -12 233 6T146 56T92 130T73 220Q73 293 99 350T171 446T281 505T420 525Q486 525 538 507T625 457T679 383T698 293Q698 219 672 163T600 67T490 8T351 -12ZM359 63Q409 63 452 77T528 120T578 189T596 283Q596 361 547 405T412 450Q362 450 319 436T243 393T193 324T175 230Q175 152 224 108T359 63ZM528 599Q498 599 479 608T444 629T417 650T389 660Q367 660 353 645T329 604H257Q264 629 275 652T303 694T341 724T389 735Q419 735 438 726T473 705T500 684T528 674Q549 674 564 689T589 730H660Q653 705 642 682T614 640T577 610T528 599Z"  />
<glyph unicode="&#xF6;" horiz-adv-x="771" d="M351 -12Q285 -12 233 6T146 56T92 130T73 220Q73 293 99 350T171 446T281 505T420 525Q486 525 538 507T625 457T679 383T698 293Q698 219 672 163T600 67T490 8T351 -12ZM359 63Q409 63 452 77T528 120T578 189T596 283Q596 361 547 405T412 450Q362 450 319 436T243 393T193 324T175 230Q175 152 224 108T359 63ZM298 718H407L377 617H268L298 718ZM552 718H661L631 617H522L552 718Z"  />
<glyph unicode="&#xF7;" horiz-adv-x="742" d="M256 122H384L349 0H221L256 122ZM75 339H689L666 261H52L75 339ZM393 600H521L486 478H358L393 600Z"  />
<glyph unicode="&#xF8;" horiz-adv-x="771" d="M351 -12Q290 -12 242 3T159 45L98 0H-21L110 97Q73 150 73 220Q73 293 99 350T171 446T281 505T420 525Q480 525 528 510T611 468L672 513H792L661 416Q698 360 698 293Q698 219 672 163T600 67T490 8T351 -12ZM359 63Q409 63 452 77T528 120T578 189T596 283Q596 324 581 357L233 100Q281 63 359 63ZM175 230Q175 189 189 156L537 413Q489 450 412 450Q362 450 319 436T243 393T193 324T175 230Z"  />
<glyph unicode="&#xF9;" horiz-adv-x="758" d="M493 53Q458 24 409 6T295 -12Q255 -12 217 -4T150 23T103 70T85 140Q85 167 94 200L185 513H284L195 207Q187 178 187 159Q187 109 224 88T324 66Q375 66 422 82T507 127L619 513H718L569 0H493V53ZM331 746H452L515 588H432L331 746Z"  />
<glyph unicode="&#xFA;" horiz-adv-x="758" d="M493 53Q458 24 409 6T295 -12Q255 -12 217 -4T150 23T103 70T85 140Q85 167 94 200L185 513H284L195 207Q187 178 187 159Q187 109 224 88T324 66Q375 66 422 82T507 127L619 513H718L569 0H493V53ZM559 746H700L521 588H424L559 746Z"  />
<glyph unicode="&#xFB;" horiz-adv-x="758" d="M493 53Q458 24 409 6T295 -12Q255 -12 217 -4T150 23T103 70T85 140Q85 167 94 200L185 513H284L195 207Q187 178 187 159Q187 109 224 88T324 66Q375 66 422 82T507 127L619 513H718L569 0H493V53ZM463 746H548L648 588H566L490 668L368 588H272L463 746Z"  />
<glyph unicode="&#xFC;" horiz-adv-x="758" d="M493 53Q458 24 409 6T295 -12Q255 -12 217 -4T150 23T103 70T85 140Q85 167 94 200L185 513H284L195 207Q187 178 187 159Q187 109 224 88T324 66Q375 66 422 82T507 127L619 513H718L569 0H493V53ZM325 718H434L404 617H295L325 718ZM579 718H688L658 617H549L579 718Z"  />
<glyph unicode="&#xFD;" horiz-adv-x="642" d="M-67 -223Q-82 -223 -102 -220T-132 -212L-108 -134Q-100 -136 -87 -138T-59 -141Q-26 -141 2 -134T57 -110T109 -70T161 -13L186 18L84 513H183L259 103L572 513H686L262 -25Q224 -73 189 -110T116 -172T34 -210T-67 -223ZM473 746H614L435 588H338L473 746Z"  />
<glyph unicode="&#xFE;" horiz-adv-x="774" d="M249 724H348L274 470Q310 495 356 510T460 525Q516 525 561 508T637 462T684 393T701 307Q701 233 674 174T598 74T482 11T332 -12Q281 -12 232 0T147 32L77 -211H-22L249 724ZM425 449Q380 449 335 434T252 392L166 97Q199 82 244 74T332 66Q387 66 435 80T520 123T576 195T597 296Q597 372 551 410T425 449Z"  />
<glyph unicode="&#xFF;" horiz-adv-x="642" d="M-67 -223Q-82 -223 -102 -220T-132 -212L-108 -134Q-100 -136 -87 -138T-59 -141Q-26 -141 2 -134T57 -110T109 -70T161 -13L186 18L84 513H183L259 103L572 513H686L262 -25Q224 -73 189 -110T116 -172T34 -210T-67 -223ZM239 718H348L318 617H209L239 718ZM493 718H602L572 617H463L493 718Z"  />
<glyph unicode="&#x100;" horiz-adv-x="853" d="M493 724H609L750 0H647L612 179H189L51 0H-67L493 724ZM249 263H597L530 635L249 263ZM422 881H759L738 806H401L422 881Z"  />
<glyph unicode="&#x101;" horiz-adv-x="774" d="M509 49Q473 22 424 5T314 -12Q258 -12 214 5T138 52T90 123T73 213Q73 284 99 341T174 440T290 503T443 525Q494 525 546 512T633 478L652 513H734L585 0H509V49ZM349 64Q394 64 438 79T521 120L607 418Q575 432 530 440T442 448Q387 448 339 434T254 391T196 321T175 223Q175 142 222 103T349 64ZM329 697H666L645 622H308L329 697Z"  />
<glyph unicode="&#x102;" horiz-adv-x="853" d="M493 724H609L750 0H647L612 179H189L51 0H-67L493 724ZM249 263H597L530 635L249 263ZM560 765Q496 765 460 796T424 882Q424 906 431 930H499Q496 913 496 898Q496 841 567 841Q618 841 649 864T698 930H768Q745 855 692 810T560 765Z"  />
<glyph unicode="&#x103;" horiz-adv-x="774" d="M509 49Q473 22 424 5T314 -12Q258 -12 214 5T138 52T90 123T73 213Q73 284 99 341T174 440T290 503T443 525Q494 525 546 512T633 478L652 513H734L585 0H509V49ZM349 64Q394 64 438 79T521 120L607 418Q575 432 530 440T442 448Q387 448 339 434T254 391T196 321T175 223Q175 142 222 103T349 64ZM467 581Q403 581 367 612T331 698Q331 722 338 746H406Q403 729 403 714Q403 657 474 657Q525 657 556 680T605 746H675Q652 671 599 626T467 581Z"  />
<glyph unicode="&#x104;" horiz-adv-x="853" d="M627 -216Q601 -216 584 -209T555 -192T538 -168T533 -141Q533 -118 543 -98T570 -60T607 -27T647 0L612 179H189L51 0H-67L493 724H609L750 0H712Q670 -33 641 -66T612 -129Q612 -145 625 -152T660 -160Q669 -160 677 -159T694 -156L678 -209Q667 -213 653 -214T627 -216ZM249 263H597L530 635L249 263Z"  />
<glyph unicode="&#x105;" horiz-adv-x="774" d="M489 -216Q463 -216 446 -209T417 -192T400 -168T395 -141Q395 -118 405 -98T432 -60T469 -27T509 0V49Q473 22 424 5T314 -12Q258 -12 214 5T138 52T90 123T73 213Q73 284 99 341T174 440T290 503T443 525Q494 525 546 512T633 478L652 513H734L585 0H574Q532 -33 503 -66T474 -129Q474 -145 487 -152T522 -160Q531 -160 539 -159T556 -156L540 -209Q529 -213 515 -214T489 -216ZM349 64Q394 64 438 79T521 120L607 418Q575 432 530 440T442 448Q387 448 339 434T254 391T196 321T175 223Q175 142 222 103T349 64Z"  />
<glyph unicode="&#x106;" horiz-adv-x="768" d="M404 -12Q328 -12 269 10T168 72T105 166T83 286Q83 381 120 463T224 606T379 701T572 736Q638 736 695 727T793 697L769 615Q723 637 671 644T571 651Q499 651 430 626T307 555T221 443T188 296Q188 231 207 188T259 120T336 83T431 72Q501 72 557 84T647 107L621 20Q584 5 526 -3T404 -12ZM668 930H809L630 772H533L668 930Z"  />
<glyph unicode="&#x107;" horiz-adv-x="628" d="M321 -12Q264 -12 218 5T140 52T91 122T73 210Q73 283 101 341T180 440T299 503T450 525Q495 525 539 516T612 492L589 417Q561 429 520 436T441 444Q386 444 338 430T253 389T196 319T175 222Q175 142 223 104T351 65Q393 65 434 74T513 97L489 17Q463 4 416 -4T321 -12ZM548 746H689L510 588H413L548 746Z"  />
<glyph unicode="&#x108;" horiz-adv-x="768" d="M404 -12Q328 -12 269 10T168 72T105 166T83 286Q83 381 120 463T224 606T379 701T572 736Q638 736 695 727T793 697L769 615Q723 637 671 644T571 651Q499 651 430 626T307 555T221 443T188 296Q188 231 207 188T259 120T336 83T431 72Q501 72 557 84T647 107L621 20Q584 5 526 -3T404 -12ZM572 930H657L757 772H675L599 852L477 772H381L572 930Z"  />
<glyph unicode="&#x109;" horiz-adv-x="628" d="M321 -12Q264 -12 218 5T140 52T91 122T73 210Q73 283 101 341T180 440T299 503T450 525Q495 525 539 516T612 492L589 417Q561 429 520 436T441 444Q386 444 338 430T253 389T196 319T175 222Q175 142 223 104T351 65Q393 65 434 74T513 97L489 17Q463 4 416 -4T321 -12ZM452 746H537L637 588H555L479 668L357 588H261L452 746Z"  />
<glyph unicode="&#x10A;" horiz-adv-x="768" d="M404 -12Q328 -12 269 10T168 72T105 166T83 286Q83 381 120 463T224 606T379 701T572 736Q638 736 695 727T793 697L769 615Q723 637 671 644T571 651Q499 651 430 626T307 555T221 443T188 296Q188 231 207 188T259 120T336 83T431 72Q501 72 557 84T647 107L621 20Q584 5 526 -3T404 -12ZM558 904H670L639 795H527L558 904Z"  />
<glyph unicode="&#x10B;" horiz-adv-x="628" d="M321 -12Q264 -12 218 5T140 52T91 122T73 210Q73 283 101 341T180 440T299 503T450 525Q495 525 539 516T612 492L589 417Q561 429 520 436T441 444Q386 444 338 430T253 389T196 319T175 222Q175 142 223 104T351 65Q393 65 434 74T513 97L489 17Q463 4 416 -4T321 -12ZM438 720H550L519 611H407L438 720Z"  />
<glyph unicode="&#x10C;" horiz-adv-x="768" d="M404 -12Q328 -12 269 10T168 72T105 166T83 286Q83 381 120 463T224 606T379 701T572 736Q638 736 695 727T793 697L769 615Q723 637 671 644T571 651Q499 651 430 626T307 555T221 443T188 296Q188 231 207 188T259 120T336 83T431 72Q501 72 557 84T647 107L621 20Q584 5 526 -3T404 -12ZM439 930H521L597 850L719 930H815L624 772H539L439 930Z"  />
<glyph unicode="&#x10D;" horiz-adv-x="628" d="M321 -12Q264 -12 218 5T140 52T91 122T73 210Q73 283 101 341T180 440T299 503T450 525Q495 525 539 516T612 492L589 417Q561 429 520 436T441 444Q386 444 338 430T253 389T196 319T175 222Q175 142 223 104T351 65Q393 65 434 74T513 97L489 17Q463 4 416 -4T321 -12ZM319 746H401L477 666L599 746H695L504 588H419L319 746Z"  />
<glyph unicode="&#x10E;" horiz-adv-x="877" d="M251 724H516Q594 724 656 703T761 643T826 554T849 441Q849 346 811 265T706 125T549 33T353 0H44L251 724ZM329 640L170 84H364Q446 84 516 111T636 185T715 295T744 431Q744 476 730 514T686 580T614 624T513 640H329ZM380 930H462L538 850L660 930H756L565 772H480L380 930Z"  />
<glyph unicode="&#x10F;" horiz-adv-x="774" d="M509 49Q473 22 424 5T315 -12Q259 -12 215 5T139 52T91 123T74 213Q74 284 100 341T175 440T291 503T444 525Q492 525 542 513T627 482L697 724H796L586 0H509V49ZM350 64Q395 64 439 79T522 120L608 418Q576 432 531 440T443 448Q388 448 340 434T255 391T197 321T176 223Q176 142 223 103T350 64ZM872 633V724H921Q946 724 963 713T981 677Q981 652 959 623T910 560L873 516H809L872 633Z"  />
<glyph unicode="&#x110;" horiz-adv-x="885" d="M101 400H166L259 724H524Q602 724 664 703T769 643T834 554T857 441Q857 346 819 265T714 125T557 33T361 0H52L145 325H80L101 400ZM337 640L268 400H461L440 325H247L178 84H372Q454 84 524 111T644 185T723 295T752 431Q752 476 738 514T694 580T622 624T521 640H337Z"  />
<glyph unicode="&#x111;" horiz-adv-x="774" d="M564 664H679L697 724H796L778 664H852L830 589H757L586 0H509V49Q473 22 424 5T315 -12Q259 -12 215 5T139 52T91 123T74 213Q74 284 100 341T175 440T291 503T444 525Q492 525 542 513T627 482L658 589H542L564 664ZM350 64Q395 64 439 79T522 120L608 418Q576 432 531 440T443 448Q388 448 340 434T255 391T197 321T176 223Q176 142 223 103T350 64Z"  />
<glyph unicode="&#x112;" horiz-adv-x="772" d="M251 724H812L788 640H329L264 414H664L640 330H240L170 84H633L609 0H44L251 724ZM404 881H741L720 806H383L404 881Z"  />
<glyph unicode="&#x113;" horiz-adv-x="727" d="M351 -12Q291 -12 240 4T152 50T94 124T73 224Q73 288 96 343T162 438T268 502T409 525Q464 525 510 510T589 469T642 408T661 334Q661 313 657 286T644 236H173V230Q173 150 223 109T366 68Q431 68 487 79T591 113L567 31Q521 8 469 -2T351 -12ZM399 449Q314 449 260 412T184 310H565Q566 315 566 319T567 328Q567 354 554 376T518 414T464 440T399 449ZM284 697H621L600 622H263L284 697Z"  />
<glyph unicode="&#x114;" horiz-adv-x="772" d="M251 724H812L788 640H329L264 414H664L640 330H240L170 84H633L609 0H44L251 724ZM542 765Q478 765 442 796T406 882Q406 906 413 930H481Q478 913 478 898Q478 841 549 841Q600 841 631 864T680 930H750Q727 855 674 810T542 765Z"  />
<glyph unicode="&#x115;" horiz-adv-x="727" d="M351 -12Q291 -12 240 4T152 50T94 124T73 224Q73 288 96 343T162 438T268 502T409 525Q464 525 510 510T589 469T642 408T661 334Q661 313 657 286T644 236H173V230Q173 150 223 109T366 68Q431 68 487 79T591 113L567 31Q521 8 469 -2T351 -12ZM399 449Q314 449 260 412T184 310H565Q566 315 566 319T567 328Q567 354 554 376T518 414T464 440T399 449ZM422 581Q358 581 322 612T286 698Q286 722 293 746H361Q358 729 358 714Q358 657 429 657Q480 657 511 680T560 746H630Q607 671 554 626T422 581Z"  />
<glyph unicode="&#x116;" horiz-adv-x="772" d="M251 724H812L788 640H329L264 414H664L640 330H240L170 84H633L609 0H44L251 724ZM523 904H635L604 795H492L523 904Z"  />
<glyph unicode="&#x117;" horiz-adv-x="727" d="M351 -12Q291 -12 240 4T152 50T94 124T73 224Q73 288 96 343T162 438T268 502T409 525Q464 525 510 510T589 469T642 408T661 334Q661 313 657 286T644 236H173V230Q173 150 223 109T366 68Q431 68 487 79T591 113L567 31Q521 8 469 -2T351 -12ZM399 449Q314 449 260 412T184 310H565Q566 315 566 319T567 328Q567 354 554 376T518 414T464 440T399 449ZM403 720H515L484 611H372L403 720Z"  />
<glyph unicode="&#x118;" horiz-adv-x="772" d="M251 724H812L788 640H329L264 414H664L640 330H240L170 84H633L609 0H582Q540 -33 511 -66T482 -129Q482 -145 495 -152T530 -160Q539 -160 547 -159T564 -156L548 -209Q537 -213 523 -214T497 -216Q471 -216 454 -209T425 -192T408 -168T403 -141Q403 -118 413 -98T440 -60T477 -27T516 0H44L251 724Z"  />
<glyph unicode="&#x119;" horiz-adv-x="727" d="M352 -12Q292 -12 241 4T153 50T95 124T74 224Q74 288 97 343T163 438T269 502T410 525Q465 525 511 510T590 469T643 408T662 334Q662 313 658 286T645 236H174V230Q174 150 224 109T367 68Q432 68 488 79T592 113L568 31Q501 -18 464 -58T427 -129Q427 -145 440 -152T475 -160Q484 -160 492 -159T509 -156L493 -209Q482 -213 468 -214T442 -216Q416 -216 399 -209T370 -192T353 -168T348 -141Q348 -120 358 -101T385 -64T421 -31T461 -3Q411 -12 352 -12ZM400 449Q315 449 261 412T185 310H566Q567 315 567 319T568 328Q568 354 555 376T519 414T465 440T400 449Z"  />
<glyph unicode="&#x11A;" horiz-adv-x="772" d="M251 724H812L788 640H329L264 414H664L640 330H240L170 84H633L609 0H44L251 724ZM404 930H486L562 850L684 930H780L589 772H504L404 930Z"  />
<glyph unicode="&#x11B;" horiz-adv-x="727" d="M351 -12Q291 -12 240 4T152 50T94 124T73 224Q73 288 96 343T162 438T268 502T409 525Q464 525 510 510T589 469T642 408T661 334Q661 313 657 286T644 236H173V230Q173 150 223 109T366 68Q431 68 487 79T591 113L567 31Q521 8 469 -2T351 -12ZM399 449Q314 449 260 412T184 310H565Q566 315 566 319T567 328Q567 354 554 376T518 414T464 440T399 449ZM284 746H366L442 666L564 746H660L469 588H384L284 746Z"  />
<glyph unicode="&#x11C;" horiz-adv-x="894" d="M437 -12Q342 -12 275 11T165 74T103 170T83 290Q83 390 123 472T232 613T393 704T591 736Q627 736 663 734T732 727T793 715T841 697L817 615Q763 636 703 643T591 651Q504 651 430 624T302 550T218 438T188 300Q188 235 205 191T257 120T340 82T451 70Q514 70 563 80T639 100L711 349H813L722 35Q690 24 654 16T580 1T506 -8T437 -12ZM603 930H688L788 772H706L630 852L508 772H412L603 930Z"  />
<glyph unicode="&#x11D;" horiz-adv-x="774" d="M250 -223Q168 -223 106 -207T8 -168L36 -92Q74 -114 127 -128T250 -143Q298 -143 336 -136T404 -111T455 -62T491 17L505 64Q469 38 421 22T314 6Q258 6 214 22T138 66T90 132T73 215Q73 287 99 344T174 441T290 503T443 525Q494 525 546 512T633 478L652 513H734L585 0Q567 -62 537 -104T464 -173T368 -211T250 -223ZM349 82Q395 82 442 98T527 142L607 418Q575 432 530 440T442 448Q387 448 339 435T254 393T196 324T175 226Q175 154 222 118T349 82ZM463 746H548L648 588H566L490 668L368 588H272L463 746Z"  />
<glyph unicode="&#x11E;" horiz-adv-x="894" d="M437 -12Q342 -12 275 11T165 74T103 170T83 290Q83 390 123 472T232 613T393 704T591 736Q627 736 663 734T732 727T793 715T841 697L817 615Q763 636 703 643T591 651Q504 651 430 624T302 550T218 438T188 300Q188 235 205 191T257 120T340 82T451 70Q514 70 563 80T639 100L711 349H813L722 35Q690 24 654 16T580 1T506 -8T437 -12ZM608 765Q544 765 508 796T472 882Q472 906 479 930H547Q544 913 544 898Q544 841 615 841Q666 841 697 864T746 930H816Q793 855 740 810T608 765Z"  />
<glyph unicode="&#x11F;" horiz-adv-x="774" d="M250 -223Q168 -223 106 -207T8 -168L36 -92Q74 -114 127 -128T250 -143Q298 -143 336 -136T404 -111T455 -62T491 17L505 64Q469 38 421 22T314 6Q258 6 214 22T138 66T90 132T73 215Q73 287 99 344T174 441T290 503T443 525Q494 525 546 512T633 478L652 513H734L585 0Q567 -62 537 -104T464 -173T368 -211T250 -223ZM349 82Q395 82 442 98T527 142L607 418Q575 432 530 440T442 448Q387 448 339 435T254 393T196 324T175 226Q175 154 222 118T349 82ZM468 581Q404 581 368 612T332 698Q332 722 339 746H407Q404 729 404 714Q404 657 475 657Q526 657 557 680T606 746H676Q653 671 600 626T468 581Z"  />
<glyph unicode="&#x120;" horiz-adv-x="894" d="M437 -12Q342 -12 275 11T165 74T103 170T83 290Q83 390 123 472T232 613T393 704T591 736Q627 736 663 734T732 727T793 715T841 697L817 615Q763 636 703 643T591 651Q504 651 430 624T302 550T218 438T188 300Q188 235 205 191T257 120T340 82T451 70Q514 70 563 80T639 100L711 349H813L722 35Q690 24 654 16T580 1T506 -8T437 -12ZM589 904H701L670 795H558L589 904Z"  />
<glyph unicode="&#x121;" horiz-adv-x="774" d="M250 -223Q168 -223 106 -207T8 -168L36 -92Q74 -114 127 -128T250 -143Q298 -143 336 -136T404 -111T455 -62T491 17L505 64Q469 38 421 22T314 6Q258 6 214 22T138 66T90 132T73 215Q73 287 99 344T174 441T290 503T443 525Q494 525 546 512T633 478L652 513H734L585 0Q567 -62 537 -104T464 -173T368 -211T250 -223ZM349 82Q395 82 442 98T527 142L607 418Q575 432 530 440T442 448Q387 448 339 435T254 393T196 324T175 226Q175 154 222 118T349 82ZM449 720H561L530 611H418L449 720Z"  />
<glyph unicode="&#x122;" horiz-adv-x="894" d="M437 -12Q342 -12 275 11T165 74T103 170T83 290Q83 390 123 472T232 613T393 704T591 736Q627 736 663 734T732 727T793 715T841 697L817 615Q763 636 703 643T591 651Q504 651 430 624T302 550T218 438T188 300Q188 235 205 191T257 120T340 82T451 70Q514 70 563 80T639 100L711 349H813L722 35Q690 24 654 16T580 1T506 -8T437 -12ZM288 -202L373 -127L364 -42H424Q448 -42 462 -53T477 -90Q477 -119 451 -146T373 -206L318 -240L288 -202Z"  />
<glyph unicode="&#x123;" horiz-adv-x="774" d="M250 -223Q168 -223 106 -207T8 -168L36 -92Q74 -114 127 -128T250 -143Q298 -143 336 -136T404 -111T455 -62T491 17L505 64Q469 38 421 22T314 6Q258 6 214 22T138 66T90 132T73 215Q73 287 99 344T174 441T290 503T443 525Q494 525 546 512T633 478L652 513H734L585 0Q567 -62 537 -104T464 -173T368 -211T250 -223ZM349 82Q395 82 442 98T527 142L607 418Q575 432 530 440T442 448Q387 448 339 435T254 393T196 324T175 226Q175 154 222 118T349 82ZM462 570Q438 570 424 581T409 618Q409 647 440 676T522 737L577 771L607 729L519 652V570H462Z"  />
<glyph unicode="&#x124;" horiz-adv-x="912" d="M706 321H239L146 0H44L254 724H356L263 405H730L823 724H925L715 0H613L706 321ZM592 930H677L777 772H695L619 852L497 772H401L592 930Z"  />
<glyph unicode="&#x125;" horiz-adv-x="769" d="M250 724H349L273 463Q308 490 356 507T468 525Q508 525 546 517T615 489T664 441T683 371Q683 344 674 313L583 0H484L573 306Q580 330 580 352Q580 403 540 425T436 447Q386 447 338 431T250 385L139 0H40L250 724ZM303 926H388L488 768H406L330 848L208 768H112L303 926Z"  />
<glyph unicode="&#x126;" horiz-adv-x="912" d="M142 612H221L254 724H356L323 612H790L823 724H925L892 612H970L948 537H871L715 0H613L706 321H239L146 0H44L200 537H120L142 612ZM730 405L768 537H301L263 405H730Z"  />
<glyph unicode="&#x127;" horiz-adv-x="769" d="M156 664H232L250 724H349L331 664H444L422 589H309L273 463Q308 490 356 507T468 525Q508 525 546 517T615 489T664 441T683 371Q683 344 674 313L583 0H484L573 306Q580 330 580 352Q580 403 540 425T436 447Q386 447 338 431T250 385L139 0H40L211 589H134L156 664Z"  />
<glyph unicode="&#x128;" horiz-adv-x="533" d="M216 724H577L553 640H424L262 84H391L367 0H6L30 84H160L322 640H192L216 724ZM493 783Q463 783 444 792T409 813T382 834T354 844Q332 844 318 829T294 788H222Q229 813 240 836T268 878T306 908T354 919Q384 919 403 910T438 889T465 868T493 858Q514 858 529 873T554 914H625Q618 889 607 866T579 824T542 794T493 783Z"  />
<glyph unicode="&#x129;" horiz-adv-x="328" d="M189 513H288L139 0H40L189 513ZM342 599Q312 599 293 608T258 629T231 650T203 660Q181 660 167 645T143 604H71Q78 629 89 652T117 694T155 724T203 735Q233 735 252 726T287 705T314 684T342 674Q363 674 378 689T403 730H474Q467 705 456 682T428 640T391 610T342 599Z"  />
<glyph unicode="&#x12A;" horiz-adv-x="533" d="M216 724H577L553 640H424L262 84H391L367 0H6L30 84H160L322 640H192L216 724ZM268 881H605L584 806H247L268 881Z"  />
<glyph unicode="&#x12B;" horiz-adv-x="328" d="M189 513H288L139 0H40L189 513ZM117 697H454L433 622H96L117 697Z"  />
<glyph unicode="&#x12C;" horiz-adv-x="533" d="M216 724H577L553 640H424L262 84H391L367 0H6L30 84H160L322 640H192L216 724ZM406 765Q342 765 306 796T270 882Q270 906 277 930H345Q342 913 342 898Q342 841 413 841Q464 841 495 864T544 930H614Q591 855 538 810T406 765Z"  />
<glyph unicode="&#x12D;" horiz-adv-x="328" d="M189 513H288L139 0H40L189 513ZM255 581Q191 581 155 612T119 698Q119 722 126 746H194Q191 729 191 714Q191 657 262 657Q313 657 344 680T393 746H463Q440 671 387 626T255 581Z"  />
<glyph unicode="&#x12E;" horiz-adv-x="533" d="M200 -216Q174 -216 157 -209T128 -192T111 -168T106 -141Q106 -118 116 -98T143 -60T180 -27T219 0H58L82 84H212L374 640H244L268 724H629L605 640H476L314 84H443L419 0H285Q243 -33 214 -66T185 -129Q185 -145 198 -152T233 -160Q242 -160 250 -159T267 -156L251 -209Q240 -213 226 -214T200 -216Z"  />
<glyph unicode="&#x12F;" horiz-adv-x="328" d="M189 513H288L139 0H122Q80 -33 51 -66T22 -129Q22 -145 35 -152T70 -160Q79 -160 87 -159T104 -156L88 -209Q77 -213 63 -214T37 -216Q11 -216 -6 -209T-35 -192T-52 -168T-57 -141Q-57 -118 -47 -98T-20 -60T17 -27T56 0H40L189 513ZM250 724H349L318 615H219L250 724Z"  />
<glyph unicode="&#x130;" horiz-adv-x="533" d="M216 724H577L553 640H424L262 84H391L367 0H6L30 84H160L322 640H192L216 724ZM387 904H499L468 795H356L387 904Z"  />
<glyph unicode="&#x131;" horiz-adv-x="328" d="M189 513H288L139 0H40L189 513Z"  />
<glyph unicode="&#x132;" horiz-adv-x="957" d="M216 724H577L553 640H424L262 84H391L367 0H6L30 84H160L322 640H192L216 724ZM715 724H965L780 86Q762 22 736 -21T678 -92T607 -130T524 -142Q483 -142 458 -137T420 -127L442 -44Q453 -48 474 -51T511 -55Q546 -55 572 -47T619 -19T655 32T685 111L838 640H690L715 724Z"  />
<glyph unicode="&#x133;" horiz-adv-x="656" d="M189 513H288L139 0H40L189 513ZM250 724H349L318 615H219L250 724ZM222 -223Q210 -223 196 -221T169 -217T144 -211T128 -205L151 -131Q161 -136 183 -140T225 -145Q259 -145 282 -135T322 -104T350 -52T374 20L517 513H616L465 -7Q448 -67 429 -108T382 -174T316 -211T222 -223ZM578 724H677L646 615H547L578 724Z"  />
<glyph unicode="&#x134;" horiz-adv-x="424" d="M182 724H432L247 86Q229 22 203 -21T145 -92T74 -130T-9 -142Q-50 -142 -75 -137T-113 -127L-91 -44Q-80 -48 -59 -51T-22 -55Q13 -55 39 -47T86 -19T122 32T152 111L305 640H157L182 724ZM385 930H470L570 772H488L412 852L290 772H194L385 930Z"  />
<glyph unicode="&#x135;" horiz-adv-x="328" d="M-106 -223Q-118 -223 -132 -221T-159 -217T-184 -211T-200 -205L-177 -129Q-167 -134 -145 -138T-103 -143Q-69 -143 -46 -133T-6 -103T22 -52T46 20L189 513H288L137 -7Q120 -67 101 -108T54 -174T-12 -211T-106 -223ZM250 746H335L435 588H353L277 668L155 588H59L250 746Z"  />
<glyph unicode="&#x136;" horiz-adv-x="845" d="M254 724H356L262 399L762 724H919L346 359L728 0H589L242 333L146 0H44L254 724ZM207 -202L292 -127L283 -42H343Q367 -42 381 -53T396 -90Q396 -119 370 -146T292 -206L237 -240L207 -202Z"  />
<glyph unicode="&#x137;" horiz-adv-x="679" d="M250 724H349L223 289L579 513H730L311 256L605 0H470L207 236L139 0H40L250 724ZM172 -202L257 -127L248 -42H308Q332 -42 346 -53T361 -90Q361 -119 335 -146T257 -206L202 -240L172 -202Z"  />
<glyph unicode="&#x139;" horiz-adv-x="674" d="M251 724H353L170 84H567L543 0H44L251 724ZM405 930H546L367 772H270L405 930Z"  />
<glyph unicode="&#x13A;" horiz-adv-x="389" d="M174 -12Q119 -12 92 13T65 82Q65 94 66 107T73 134L244 724H342L170 131Q165 113 165 103Q165 68 213 68Q236 68 255 71T292 79L271 4Q254 -3 231 -7T174 -12ZM393 926H534L355 768H258L393 926Z"  />
<glyph unicode="&#x13B;" horiz-adv-x="674" d="M251 724H353L170 84H567L543 0H44L251 724ZM153 -202L238 -127L229 -42H289Q313 -42 327 -53T342 -90Q342 -119 316 -146T238 -206L183 -240L153 -202Z"  />
<glyph unicode="&#x13C;" horiz-adv-x="389" d="M174 -12Q119 -12 92 13T65 82Q65 94 66 107T73 134L244 724H342L170 131Q165 113 165 103Q165 68 213 68Q236 68 255 71T292 79L271 4Q254 -3 231 -7T174 -12ZM15 -202L100 -127L91 -42H151Q175 -42 189 -53T204 -90Q204 -119 178 -146T100 -206L45 -240L15 -202Z"  />
<glyph unicode="&#x13D;" horiz-adv-x="674" d="M251 724H353L170 84H567L543 0H44L251 724ZM458 633V724H507Q532 724 549 713T567 677Q567 652 545 623T496 560L459 516H395L458 633Z"  />
<glyph unicode="&#x13E;" horiz-adv-x="389" d="M174 -12Q119 -12 92 13T65 82Q65 94 66 107T73 134L244 724H342L170 131Q165 113 165 103Q165 68 213 68Q236 68 255 71T292 79L271 4Q254 -3 231 -7T174 -12ZM419 633V724H468Q493 724 510 713T528 677Q528 652 506 623T457 560L420 516H356L419 633Z"  />
<glyph unicode="&#x13F;" horiz-adv-x="674" d="M251 724H353L170 84H567L543 0H44L251 724ZM410 441H522L491 332H379L410 441Z"  />
<glyph unicode="&#x140;" horiz-adv-x="429" d="M174 -12Q119 -12 92 13T65 82Q65 94 66 107T73 134L244 724H342L170 131Q165 113 165 103Q165 68 213 68Q236 68 255 71T292 79L271 4Q254 -3 231 -7T174 -12ZM353 416H465L434 307H322L353 416Z"  />
<glyph unicode="&#x141;" horiz-adv-x="682" d="M65 313L154 357L259 724H361L272 415L496 525L472 433L246 322L178 84H575L551 0H52L127 263L41 221L65 313Z"  />
<glyph unicode="&#x142;" horiz-adv-x="409" d="M73 326L151 364L256 724H354L266 420L394 483L370 391L239 327L182 131Q177 113 177 103Q177 68 225 68Q248 68 267 71T304 79L283 4Q266 -3 243 -7T186 -12Q131 -12 104 13T77 82Q77 94 78 107T85 134L124 271L49 234L73 326Z"  />
<glyph unicode="&#x143;" horiz-adv-x="960" d="M254 724H357L677 125L851 724H951L741 0H639L318 601L144 0H44L254 724ZM704 930H845L666 772H569L704 930Z"  />
<glyph unicode="&#x144;" horiz-adv-x="769" d="M189 513H265V458Q301 487 351 506T468 525Q508 525 546 517T615 489T664 441T683 371Q683 344 674 313L583 0H484L573 306Q580 330 580 352Q580 403 540 425T436 447Q386 447 338 431T251 385L139 0H40L189 513ZM569 746H710L531 588H434L569 746Z"  />
<glyph unicode="&#x145;" horiz-adv-x="960" d="M254 724H357L677 125L851 724H951L741 0H639L318 601L144 0H44L254 724ZM251 -202L336 -127L327 -42H387Q411 -42 425 -53T440 -90Q440 -119 414 -146T336 -206L281 -240L251 -202Z"  />
<glyph unicode="&#x146;" horiz-adv-x="769" d="M189 513H265V458Q301 487 351 506T468 525Q508 525 546 517T615 489T664 441T683 371Q683 344 674 313L583 0H484L573 306Q580 330 580 352Q580 403 540 425T436 447Q386 447 338 431T251 385L139 0H40L189 513ZM171 -202L256 -127L247 -42H307Q331 -42 345 -53T360 -90Q360 -119 334 -146T256 -206L201 -240L171 -202Z"  />
<glyph unicode="&#x147;" horiz-adv-x="960" d="M254 724H357L677 125L851 724H951L741 0H639L318 601L144 0H44L254 724ZM475 930H557L633 850L755 930H851L660 772H575L475 930Z"  />
<glyph unicode="&#x148;" horiz-adv-x="769" d="M189 513H265V458Q301 487 351 506T468 525Q508 525 546 517T615 489T664 441T683 371Q683 344 674 313L583 0H484L573 306Q580 330 580 352Q580 403 540 425T436 447Q386 447 338 431T251 385L139 0H40L189 513ZM340 746H422L498 666L620 746H716L525 588H440L340 746Z"  />
<glyph unicode="&#x149;" horiz-adv-x="1022" d="M442 513H518V458Q554 487 604 506T721 525Q761 525 799 517T868 489T917 441T936 371Q936 344 927 313L836 0H737L826 306Q833 330 833 352Q833 403 793 425T689 447Q639 447 591 431T504 385L392 0H293L442 513ZM226 616V724H306Q329 724 343 715T358 679Q358 650 326 611T236 522L187 479H112L226 616Z"  />
<glyph unicode="&#x14C;" horiz-adv-x="928" d="M416 -12Q327 -12 264 13T161 79T102 172T83 280Q83 372 116 454T210 599T358 699T551 736Q640 736 703 711T806 645T865 552T884 444Q884 352 851 270T757 125T609 25T416 -12ZM424 70Q513 70 579 103T690 190T757 307T779 435Q779 483 766 523T723 592T650 638T542 654Q453 654 387 621T276 534T210 417T188 289Q188 241 201 201T243 132T317 86T424 70ZM432 881H769L748 806H411L432 881Z"  />
<glyph unicode="&#x14D;" horiz-adv-x="771" d="M351 -12Q285 -12 233 6T146 56T92 130T73 220Q73 293 99 350T171 446T281 505T420 525Q486 525 538 507T625 457T679 383T698 293Q698 219 672 163T600 67T490 8T351 -12ZM359 63Q409 63 452 77T528 120T578 189T596 283Q596 361 547 405T412 450Q362 450 319 436T243 393T193 324T175 230Q175 152 224 108T359 63ZM303 697H640L619 622H282L303 697Z"  />
<glyph unicode="&#x14E;" horiz-adv-x="928" d="M416 -12Q327 -12 264 13T161 79T102 172T83 280Q83 372 116 454T210 599T358 699T551 736Q640 736 703 711T806 645T865 552T884 444Q884 352 851 270T757 125T609 25T416 -12ZM424 70Q513 70 579 103T690 190T757 307T779 435Q779 483 766 523T723 592T650 638T542 654Q453 654 387 621T276 534T210 417T188 289Q188 241 201 201T243 132T317 86T424 70ZM570 765Q506 765 470 796T434 882Q434 906 441 930H509Q506 913 506 898Q506 841 577 841Q628 841 659 864T708 930H778Q755 855 702 810T570 765Z"  />
<glyph unicode="&#x14F;" horiz-adv-x="771" d="M351 -12Q285 -12 233 6T146 56T92 130T73 220Q73 293 99 350T171 446T281 505T420 525Q486 525 538 507T625 457T679 383T698 293Q698 219 672 163T600 67T490 8T351 -12ZM359 63Q409 63 452 77T528 120T578 189T596 283Q596 361 547 405T412 450Q362 450 319 436T243 393T193 324T175 230Q175 152 224 108T359 63ZM441 581Q377 581 341 612T305 698Q305 722 312 746H380Q377 729 377 714Q377 657 448 657Q499 657 530 680T579 746H649Q626 671 573 626T441 581Z"  />
<glyph unicode="&#x150;" horiz-adv-x="928" d="M416 -12Q327 -12 264 13T161 79T102 172T83 280Q83 372 116 454T210 599T358 699T551 736Q640 736 703 711T806 645T865 552T884 444Q884 352 851 270T757 125T609 25T416 -12ZM424 70Q513 70 579 103T690 190T757 307T779 435Q779 483 766 523T723 592T650 638T542 654Q453 654 387 621T276 534T210 417T188 289Q188 241 201 201T243 132T317 86T424 70ZM519 930H646L502 772H416L519 930ZM730 930H858L712 772H626L730 930Z"  />
<glyph unicode="&#x151;" horiz-adv-x="771" d="M351 -12Q285 -12 233 6T146 56T92 130T73 220Q73 293 99 350T171 446T281 505T420 525Q486 525 538 507T625 457T679 383T698 293Q698 219 672 163T600 67T490 8T351 -12ZM359 63Q409 63 452 77T528 120T578 189T596 283Q596 361 547 405T412 450Q362 450 319 436T243 393T193 324T175 230Q175 152 224 108T359 63ZM390 746H517L373 588H287L390 746ZM601 746H729L583 588H497L601 746Z"  />
<glyph unicode="&#x152;" horiz-adv-x="1289" d="M561 0Q529 -5 490 -8T403 -12Q318 -12 258 13T158 79T101 172T83 280Q83 372 117 454T216 599T374 699T588 736Q603 736 626 735T676 733T727 729T771 724H1329L1305 640H848L783 414H1181L1157 330H759L687 84H1150L1126 0H561ZM422 70Q454 70 497 72T585 83L747 643Q699 650 658 652T579 654Q475 654 402 621T281 534T211 417T189 289Q189 241 202 201T243 132T315 86T422 70Z"  />
<glyph unicode="&#x153;" horiz-adv-x="1250" d="M341 -12Q277 -12 227 6T143 57T91 131T73 221Q73 294 100 351T174 446T287 505T430 525Q518 525 575 492T661 405Q701 461 766 493T922 525Q980 525 1028 510T1111 469T1165 408T1184 334Q1184 313 1180 286T1167 236H696V230Q696 150 746 110T889 69Q954 69 1010 80T1114 114L1090 31Q1044 8 992 -2T874 -12Q789 -12 727 19T632 109Q587 49 513 19T341 -12ZM350 62Q402 62 447 76T527 119T580 189T599 283Q599 322 587 353T551 405T494 439T421 451Q368 451 323 437T244 394T191 324T172 230Q172 191 184 160T220 108T276 74T350 62ZM922 448Q837 448 783 412T708 311H1088Q1090 321 1090 328Q1090 354 1077 376T1041 414T987 439T922 448Z"  />
<glyph unicode="&#x154;" horiz-adv-x="807" d="M254 724H509Q642 724 707 684T773 557Q773 498 753 454T694 380T602 331T482 306Q507 294 527 267L727 0H606L413 260Q404 272 397 279T379 290T355 296T320 298H232L146 0H44L254 724ZM331 640L256 381H395Q445 381 494 387T581 411T644 461T668 547Q668 599 624 619T481 640H331ZM598 930H739L560 772H463L598 930Z"  />
<glyph unicode="&#x155;" horiz-adv-x="523" d="M189 513H274L261 437Q294 474 341 498T454 523Q477 523 504 520T547 510L523 425Q506 430 482 433T433 436Q398 436 369 428T316 407T273 378T240 347L139 0H40L189 513ZM458 746H599L420 588H323L458 746Z"  />
<glyph unicode="&#x156;" horiz-adv-x="807" d="M254 724H509Q642 724 707 684T773 557Q773 498 753 454T694 380T602 331T482 306Q507 294 527 267L727 0H606L413 260Q404 272 397 279T379 290T355 296T320 298H232L146 0H44L254 724ZM331 640L256 381H395Q445 381 494 387T581 411T644 461T668 547Q668 599 624 619T481 640H331ZM236 -202L321 -127L312 -42H372Q396 -42 410 -53T425 -90Q425 -119 399 -146T321 -206L266 -240L236 -202Z"  />
<glyph unicode="&#x157;" horiz-adv-x="523" d="M189 513H274L261 437Q294 474 341 498T454 523Q477 523 504 520T547 510L523 425Q506 430 482 433T433 436Q398 436 369 428T316 407T273 378T240 347L139 0H40L189 513ZM-52 -202L33 -127L24 -42H84Q108 -42 122 -53T137 -90Q137 -119 111 -146T33 -206L-22 -240L-52 -202Z"  />
<glyph unicode="&#x158;" horiz-adv-x="807" d="M254 724H509Q642 724 707 684T773 557Q773 498 753 454T694 380T602 331T482 306Q507 294 527 267L727 0H606L413 260Q404 272 397 279T379 290T355 296T320 298H232L146 0H44L254 724ZM331 640L256 381H395Q445 381 494 387T581 411T644 461T668 547Q668 599 624 619T481 640H331ZM369 930H451L527 850L649 930H745L554 772H469L369 930Z"  />
<glyph unicode="&#x159;" horiz-adv-x="523" d="M189 513H274L261 437Q294 474 341 498T454 523Q477 523 504 520T547 510L523 425Q506 430 482 433T433 436Q398 436 369 428T316 407T273 378T240 347L139 0H40L189 513ZM229 746H311L387 666L509 746H605L414 588H329L229 746Z"  />
<glyph unicode="&#x15A;" horiz-adv-x="756" d="M274 -12Q182 -12 123 1T23 32L47 114Q90 98 149 85T282 72Q406 72 473 107T540 199Q540 221 530 238T500 269T448 296T373 325Q327 341 288 357T219 396T173 450T156 525Q156 573 179 611T246 678T351 721T490 736Q573 736 634 723T733 691L709 609Q667 626 612 638T482 651Q374 651 318 618T262 528Q262 507 270 491T298 461T348 434T425 404Q476 386 517 370T586 331T630 279T646 205Q646 159 623 120T553 51T436 5T274 -12ZM590 930H731L552 772H455L590 930Z"  />
<glyph unicode="&#x15B;" horiz-adv-x="641" d="M237 -12Q207 -12 176 -9T117 1T64 15T21 31L43 103Q77 89 132 78T244 66Q277 66 312 69T375 81T422 105T441 146Q441 174 405 189T305 220Q211 244 163 275T115 358Q115 404 136 435T194 487T280 516T384 525Q417 525 449 522T510 512T563 498T603 481L581 409Q546 424 491 435T377 447Q344 447 315 443T264 430T229 407T216 371Q216 343 252 328T352 297Q446 273 494 242T542 159Q542 111 517 79T450 26T353 -3T237 -12ZM501 746H642L463 588H366L501 746Z"  />
<glyph unicode="&#x15C;" horiz-adv-x="756" d="M274 -12Q182 -12 123 1T23 32L47 114Q90 98 149 85T282 72Q406 72 473 107T540 199Q540 221 530 238T500 269T448 296T373 325Q327 341 288 357T219 396T173 450T156 525Q156 573 179 611T246 678T351 721T490 736Q573 736 634 723T733 691L709 609Q667 626 612 638T482 651Q374 651 318 618T262 528Q262 507 270 491T298 461T348 434T425 404Q476 386 517 370T586 331T630 279T646 205Q646 159 623 120T553 51T436 5T274 -12ZM494 930H579L679 772H597L521 852L399 772H303L494 930Z"  />
<glyph unicode="&#x15D;" horiz-adv-x="641" d="M237 -12Q207 -12 176 -9T117 1T64 15T21 31L43 103Q77 89 132 78T244 66Q277 66 312 69T375 81T422 105T441 146Q441 174 405 189T305 220Q211 244 163 275T115 358Q115 404 136 435T194 487T280 516T384 525Q417 525 449 522T510 512T563 498T603 481L581 409Q546 424 491 435T377 447Q344 447 315 443T264 430T229 407T216 371Q216 343 252 328T352 297Q446 273 494 242T542 159Q542 111 517 79T450 26T353 -3T237 -12ZM405 746H490L590 588H508L432 668L310 588H214L405 746Z"  />
<glyph unicode="&#x15E;" horiz-adv-x="756" d="M274 -12Q182 -12 123 1T23 32L47 114Q90 98 149 85T282 72Q406 72 473 107T540 199Q540 221 530 238T500 269T448 296T373 325Q327 341 288 357T219 396T173 450T156 525Q156 573 179 611T246 678T351 721T490 736Q573 736 634 723T733 691L709 609Q667 626 612 638T482 651Q374 651 318 618T262 528Q262 507 270 491T298 461T348 434T425 404Q476 386 517 370T586 331T630 279T646 205Q646 163 627 127T569 62T472 15T338 -9L309 -63Q332 -71 345 -87T359 -129Q359 -153 348 -169T318 -196T279 -211T236 -216Q221 -216 203 -214T174 -207L188 -157Q196 -159 206 -160T233 -162Q241 -162 251 -161T270 -155T285 -144T291 -126Q291 -116 285 -109T270 -98T250 -90T229 -85L277 -12H274H274Z"  />
<glyph unicode="&#x15F;" horiz-adv-x="641" d="M167 -216Q152 -216 134 -214T105 -207L119 -157Q127 -159 137 -160T164 -162Q172 -162 182 -161T201 -155T216 -144T222 -126Q222 -116 216 -109T201 -98T181 -90T160 -85L209 -11Q154 -8 104 4T21 31L43 103Q77 89 132 78T244 66Q277 66 312 69T375 81T422 105T441 146Q441 174 405 189T305 220Q211 244 163 275T115 358Q115 404 136 435T194 487T280 516T384 525Q417 525 449 522T510 512T563 498T603 481L581 409Q546 424 491 435T377 447Q344 447 315 443T264 430T229 407T216 371Q216 343 252 328T352 297Q446 273 494 242T542 159Q542 114 520 83T461 32T373 1T268 -11L240 -63Q263 -71 276 -87T290 -129Q290 -153 279 -169T249 -196T210 -211T167 -216Z"  />
<glyph unicode="&#x160;" horiz-adv-x="756" d="M274 -12Q182 -12 123 1T23 32L47 114Q90 98 149 85T282 72Q406 72 473 107T540 199Q540 221 530 238T500 269T448 296T373 325Q327 341 288 357T219 396T173 450T156 525Q156 573 179 611T246 678T351 721T490 736Q573 736 634 723T733 691L709 609Q667 626 612 638T482 651Q374 651 318 618T262 528Q262 507 270 491T298 461T348 434T425 404Q476 386 517 370T586 331T630 279T646 205Q646 159 623 120T553 51T436 5T274 -12ZM361 930H443L519 850L641 930H737L546 772H461L361 930Z"  />
<glyph unicode="&#x161;" horiz-adv-x="641" d="M237 -12Q207 -12 176 -9T117 1T64 15T21 31L43 103Q77 89 132 78T244 66Q277 66 312 69T375 81T422 105T441 146Q441 174 405 189T305 220Q211 244 163 275T115 358Q115 404 136 435T194 487T280 516T384 525Q417 525 449 522T510 512T563 498T603 481L581 409Q546 424 491 435T377 447Q344 447 315 443T264 430T229 407T216 371Q216 343 252 328T352 297Q446 273 494 242T542 159Q542 111 517 79T450 26T353 -3T237 -12ZM272 746H354L430 666L552 746H648L457 588H372L272 746Z"  />
<glyph unicode="&#x162;" horiz-adv-x="755" d="M166 724H858L834 640H538L353 0H251L436 640H142L166 724ZM167 -202L252 -127L243 -42H303Q327 -42 341 -53T356 -90Q356 -119 330 -146T252 -206L197 -240L167 -202Z"  />
<glyph unicode="&#x163;" horiz-adv-x="541" d="M112 501L219 512L257 641H354L317 513H549L526 435H294L216 165Q209 143 209 125Q209 95 231 82T302 68Q335 68 366 73T424 86L401 9Q375 -2 343 -7T268 -12Q193 -12 151 17T109 105Q109 130 118 162L197 435H91L112 501ZM94 -202L179 -127L170 -42H230Q254 -42 268 -53T283 -90Q283 -119 257 -146T179 -206L124 -240L94 -202Z"  />
<glyph unicode="&#x164;" horiz-adv-x="755" d="M166 724H858L834 640H538L353 0H251L436 640H142L166 724ZM383 930H465L541 850L663 930H759L568 772H483L383 930Z"  />
<glyph unicode="&#x165;" horiz-adv-x="541" d="M112 501L219 512L257 641H354L317 513H549L526 435H294L216 165Q209 143 209 125Q209 95 231 82T302 68Q335 68 366 73T424 86L401 9Q375 -2 343 -7T268 -12Q193 -12 151 17T109 105Q109 130 118 162L197 435H91L112 501ZM512 723V814H561Q586 814 603 803T621 767Q621 742 599 713T550 650L513 606H449L512 723Z"  />
<glyph unicode="&#x166;" horiz-adv-x="755" d="M166 724H858L834 640H538L460 373H623L602 298H439L353 0H251L337 298H191L212 373H358L436 640H142L166 724Z"  />
<glyph unicode="&#x167;" horiz-adv-x="553" d="M122 501L229 512L267 641H364L327 513H559L536 435H304L266 304H431L409 229H244L226 165Q219 143 219 125Q219 95 241 82T312 68Q345 68 376 73T434 86L411 9Q385 -2 353 -7T278 -12Q203 -12 161 17T119 105Q119 130 128 162L147 229H83L105 304H169L207 435H101L122 501Z"  />
<glyph unicode="&#x168;" horiz-adv-x="879" d="M367 -12Q306 -12 257 2T174 44T121 111T102 199Q102 240 115 283L243 724H345L217 281Q204 238 204 201Q204 74 374 74Q486 74 556 126T655 281L783 724H885L749 255Q708 114 610 51T367 -12ZM660 783Q630 783 611 792T576 813T549 834T521 844Q499 844 485 829T461 788H389Q396 813 407 836T435 878T473 908T521 919Q551 919 570 910T605 889T632 868T660 858Q681 858 696 873T721 914H792Q785 889 774 866T746 824T709 794T660 783Z"  />
<glyph unicode="&#x169;" horiz-adv-x="758" d="M493 53Q458 24 409 6T295 -12Q255 -12 217 -4T150 23T103 70T85 140Q85 167 94 200L185 513H284L195 207Q187 178 187 159Q187 109 224 88T324 66Q375 66 422 82T507 127L619 513H718L569 0H493V53ZM555 599Q525 599 506 608T471 629T444 650T416 660Q394 660 380 645T356 604H284Q291 629 302 652T330 694T368 724T416 735Q446 735 465 726T500 705T527 684T555 674Q576 674 591 689T616 730H687Q680 705 669 682T641 640T604 610T555 599Z"  />
<glyph unicode="&#x16A;" horiz-adv-x="879" d="M367 -12Q306 -12 257 2T174 44T121 111T102 199Q102 240 115 283L243 724H345L217 281Q204 238 204 201Q204 74 374 74Q486 74 556 126T655 281L783 724H885L749 255Q708 114 610 51T367 -12ZM430 881H767L746 806H409L430 881Z"  />
<glyph unicode="&#x16B;" horiz-adv-x="758" d="M493 53Q458 24 409 6T295 -12Q255 -12 217 -4T150 23T103 70T85 140Q85 167 94 200L185 513H284L195 207Q187 178 187 159Q187 109 224 88T324 66Q375 66 422 82T507 127L619 513H718L569 0H493V53ZM330 697H667L646 622H309L330 697Z"  />
<glyph unicode="&#x16C;" horiz-adv-x="879" d="M367 -12Q306 -12 257 2T174 44T121 111T102 199Q102 240 115 283L243 724H345L217 281Q204 238 204 201Q204 74 374 74Q486 74 556 126T655 281L783 724H885L749 255Q708 114 610 51T367 -12ZM564 765Q500 765 464 796T428 882Q428 906 435 930H503Q500 913 500 898Q500 841 571 841Q622 841 653 864T702 930H772Q749 855 696 810T564 765Z"  />
<glyph unicode="&#x16D;" horiz-adv-x="758" d="M493 53Q458 24 409 6T295 -12Q255 -12 217 -4T150 23T103 70T85 140Q85 167 94 200L185 513H284L195 207Q187 178 187 159Q187 109 224 88T324 66Q375 66 422 82T507 127L619 513H718L569 0H493V53ZM459 581Q395 581 359 612T323 698Q323 722 330 746H398Q395 729 395 714Q395 657 466 657Q517 657 548 680T597 746H667Q644 671 591 626T459 581Z"  />
<glyph unicode="&#x16E;" horiz-adv-x="879" d="M367 -12Q306 -12 257 2T174 44T121 111T102 199Q102 240 115 283L243 724H345L217 281Q204 238 204 201Q204 74 374 74Q486 74 556 126T655 281L783 724H885L749 255Q708 114 610 51T367 -12ZM576 768Q555 768 538 775T507 795T487 825T479 862Q479 887 489 909T517 946T558 971T609 980Q651 980 678 953T706 885Q706 860 696 839T668 802T627 777T576 768ZM584 817Q610 817 630 835T650 879Q650 900 637 915T601 931Q575 931 555 913T535 868Q535 848 548 833T584 817Z"  />
<glyph unicode="&#x16F;" horiz-adv-x="758" d="M493 53Q458 24 409 6T295 -12Q255 -12 217 -4T150 23T103 70T85 140Q85 167 94 200L185 513H284L195 207Q187 178 187 159Q187 109 224 88T324 66Q375 66 422 82T507 127L619 513H718L569 0H493V53ZM462 584Q441 584 424 591T393 611T373 641T365 678Q365 703 375 725T403 762T444 787T495 796Q537 796 564 769T592 701Q592 676 582 655T554 618T513 593T462 584ZM470 633Q496 633 516 651T536 695Q536 716 523 731T487 747Q461 747 441 729T421 684Q421 664 434 649T470 633Z"  />
<glyph unicode="&#x170;" horiz-adv-x="879" d="M367 -12Q306 -12 257 2T174 44T121 111T102 199Q102 240 115 283L243 724H345L217 281Q204 238 204 201Q204 74 374 74Q486 74 556 126T655 281L783 724H885L749 255Q708 114 610 51T367 -12ZM522 930H649L505 772H419L522 930ZM733 930H861L715 772H629L733 930Z"  />
<glyph unicode="&#x171;" horiz-adv-x="758" d="M493 53Q458 24 409 6T295 -12Q255 -12 217 -4T150 23T103 70T85 140Q85 167 94 200L185 513H284L195 207Q187 178 187 159Q187 109 224 88T324 66Q375 66 422 82T507 127L619 513H718L569 0H493V53ZM417 746H544L400 588H314L417 746ZM628 746H756L610 588H524L628 746Z"  />
<glyph unicode="&#x172;" horiz-adv-x="879" d="M378 -216Q352 -216 335 -209T306 -192T289 -168T284 -141Q284 -121 292 -103T315 -68T346 -37T383 -12Q243 -10 173 46T102 199Q102 240 115 283L243 724H345L217 281Q204 238 204 201Q204 74 374 74Q486 74 556 126T655 281L783 724H885L749 255Q720 155 663 95T521 9Q491 0 463 -16T412 -52T377 -90T363 -126Q363 -144 376 -152T411 -160Q420 -160 428 -159T445 -156L429 -209Q418 -213 404 -214T378 -216Z"  />
<glyph unicode="&#x173;" horiz-adv-x="758" d="M473 -216Q447 -216 430 -209T401 -192T384 -168T379 -141Q379 -118 389 -98T416 -60T453 -27T493 0V53Q458 24 409 6T295 -12Q255 -12 217 -4T150 23T103 70T85 140Q85 167 94 200L185 513H284L195 207Q187 178 187 159Q187 109 224 88T324 66Q375 66 422 82T507 127L619 513H718L569 0H558Q516 -33 487 -66T458 -129Q458 -145 471 -152T506 -160Q515 -160 523 -159T540 -156L524 -209Q513 -213 499 -214T473 -216Z"  />
<glyph unicode="&#x174;" horiz-adv-x="1337" d="M152 724H254L323 115L735 724H832L894 111L1320 724H1433L920 0H819L754 594L348 0H246L152 724ZM781 930H866L966 772H884L808 852L686 772H590L781 930Z"  />
<glyph unicode="&#x175;" horiz-adv-x="1027" d="M95 513H193L246 107L527 513H623L669 108L956 513H1069L690 0H598L550 406L271 0H180L95 513ZM582 746H667L767 588H685L609 668L487 588H391L582 746Z"  />
<glyph unicode="&#x176;" horiz-adv-x="777" d="M332 270L139 724H250L398 353L763 724H889L434 273L355 0H254L332 270ZM510 930H595L695 772H613L537 852L415 772H319L510 930Z"  />
<glyph unicode="&#x177;" horiz-adv-x="642" d="M-67 -223Q-82 -223 -102 -220T-132 -212L-108 -134Q-100 -136 -87 -138T-59 -141Q-26 -141 2 -134T57 -110T109 -70T161 -13L186 18L84 513H183L259 103L572 513H686L262 -25Q224 -73 189 -110T116 -172T34 -210T-67 -223ZM377 746H462L562 588H480L404 668L282 588H186L377 746Z"  />
<glyph unicode="&#x178;" horiz-adv-x="777" d="M332 270L139 724H250L398 353L763 724H889L434 273L355 0H254L332 270ZM372 902H481L451 801H342L372 902ZM626 902H735L705 801H596L626 902Z"  />
<glyph unicode="&#x179;" horiz-adv-x="761" d="M14 79L635 640H188L212 724H798L774 645L153 84H626L602 0H-8L14 79ZM604 930H745L566 772H469L604 930Z"  />
<glyph unicode="&#x17A;" horiz-adv-x="690" d="M172 513H670L650 445L171 78H557L534 0H10L29 69L507 435H148L172 513ZM524 746H665L486 588H389L524 746Z"  />
<glyph unicode="&#x17B;" horiz-adv-x="761" d="M14 79L635 640H188L212 724H798L774 645L153 84H626L602 0H-8L14 79ZM494 904H606L575 795H463L494 904Z"  />
<glyph unicode="&#x17C;" horiz-adv-x="690" d="M172 513H670L650 445L171 78H557L534 0H10L29 69L507 435H148L172 513ZM414 720H526L495 611H383L414 720Z"  />
<glyph unicode="&#x17D;" horiz-adv-x="761" d="M14 79L635 640H188L212 724H798L774 645L153 84H626L602 0H-8L14 79ZM375 930H457L533 850L655 930H751L560 772H475L375 930Z"  />
<glyph unicode="&#x17E;" horiz-adv-x="690" d="M172 513H670L650 445L171 78H557L534 0H10L29 69L507 435H148L172 513ZM295 746H377L453 666L575 746H671L480 588H395L295 746Z"  />
<glyph unicode="&#x192;" horiz-adv-x="800" d="M180 419H373L408 497Q436 560 468 605T538 680T624 722T730 736Q764 736 792 730T837 716L809 642Q796 647 771 651T721 656Q682 656 651 646T593 614T543 556T497 470L474 419H708L673 341H440L336 108Q288 -1 214 -53T28 -105Q2 -105 -17 -101T-45 -94L-15 -22Q-9 -24 1 -25T20 -26Q64 -26 97 -17T158 13T206 64T248 141L338 341H144L180 419Z"  />
<glyph unicode="&#x218;" horiz-adv-x="756" d="M274 -12Q182 -12 123 1T23 32L47 114Q90 98 149 85T282 72Q406 72 473 107T540 199Q540 221 530 238T500 269T448 296T373 325Q327 341 288 357T219 396T173 450T156 525Q156 573 179 611T246 678T351 721T490 736Q573 736 634 723T733 691L709 609Q667 626 612 638T482 651Q374 651 318 618T262 528Q262 507 270 491T298 461T348 434T425 404Q476 386 517 370T586 331T630 279T646 205Q646 159 623 120T553 51T436 5T274 -12ZM173 -202L258 -127L249 -42H309Q333 -42 347 -53T362 -90Q362 -119 336 -146T258 -206L203 -240L173 -202Z"  />
<glyph unicode="&#x219;" horiz-adv-x="641" d="M237 -12Q207 -12 176 -9T117 1T64 15T21 31L43 103Q77 89 132 78T244 66Q277 66 312 69T375 81T422 105T441 146Q441 174 405 189T305 220Q211 244 163 275T115 358Q115 404 136 435T194 487T280 516T384 525Q417 525 449 522T510 512T563 498T603 481L581 409Q546 424 491 435T377 447Q344 447 315 443T264 430T229 407T216 371Q216 343 252 328T352 297Q446 273 494 242T542 159Q542 111 517 79T450 26T353 -3T237 -12ZM120 -202L205 -127L196 -42H256Q280 -42 294 -53T309 -90Q309 -119 283 -146T205 -206L150 -240L120 -202Z"  />
<glyph unicode="&#x21A;" horiz-adv-x="755" d="M166 724H858L834 640H538L353 0H251L436 640H142L166 724ZM167 -202L252 -127L243 -42H303Q327 -42 341 -53T356 -90Q356 -119 330 -146T252 -206L197 -240L167 -202Z"  />
<glyph unicode="&#x21B;" horiz-adv-x="541" d="M112 501L219 512L257 641H354L317 513H549L526 435H294L216 165Q209 143 209 125Q209 95 231 82T302 68Q335 68 366 73T424 86L401 9Q375 -2 343 -7T268 -12Q193 -12 151 17T109 105Q109 130 118 162L197 435H91L112 501ZM94 -202L179 -127L170 -42H230Q254 -42 268 -53T283 -90Q283 -119 257 -146T179 -206L124 -240L94 -202Z"  />
<glyph unicode="&#x237;" horiz-adv-x="328" d="M-106 -223Q-118 -223 -132 -221T-159 -217T-184 -211T-200 -205L-177 -129Q-167 -134 -145 -138T-103 -143Q-69 -143 -46 -133T-6 -103T22 -52T46 20L189 513H288L137 -7Q120 -67 101 -108T54 -174T-12 -211T-106 -223Z"  />
<glyph unicode="&#x2C6;" horiz-adv-x="504" d="M340 746H425L525 588H443L367 668L245 588H149L340 746Z"  />
<glyph unicode="&#x2C7;" horiz-adv-x="504" d="M194 746H276L352 666L474 746H570L379 588H294L194 746Z"  />
<glyph unicode="&#x2D8;" horiz-adv-x="504" d="M342 581Q278 581 242 612T206 698Q206 722 213 746H281Q278 729 278 714Q278 657 349 657Q400 657 431 680T480 746H550Q527 671 474 626T342 581Z"  />
<glyph unicode="&#x2D9;" horiz-adv-x="504" d="M311 720H423L392 611H280L311 720Z"  />
<glyph unicode="&#x2DA;" horiz-adv-x="504" d="M331 584Q310 584 293 591T262 611T242 641T234 678Q234 703 244 725T272 762T313 787T364 796Q406 796 433 769T461 701Q461 676 451 655T423 618T382 593T331 584ZM339 633Q365 633 385 651T405 695Q405 716 392 731T356 747Q330 747 310 729T290 684Q290 664 303 649T339 633Z"  />
<glyph unicode="&#x2DB;" horiz-adv-x="504" d="M140 -216Q114 -216 97 -209T68 -192T51 -168T46 -141Q46 -116 58 -94T90 -53T133 -18T176 10H238Q215 -8 195 -26T159 -62T134 -97T125 -129Q125 -145 138 -152T173 -160Q182 -160 190 -159T207 -156L191 -209Q180 -213 166 -214T140 -216Z"  />
<glyph unicode="&#x2DC;" horiz-adv-x="504" d="M431 599Q401 599 382 608T347 629T320 650T292 660Q270 660 256 645T232 604H160Q167 629 178 652T206 694T244 724T292 735Q322 735 341 726T376 705T403 684T431 674Q452 674 467 689T492 730H563Q556 705 545 682T517 640T480 610T431 599Z"  />
<glyph unicode="&#x2DD;" horiz-adv-x="504" d="M239 746H366L222 588H136L239 746ZM450 746H578L432 588H346L450 746Z"  />
<glyph unicode="&#x312;" horiz-adv-x="504" d="M331 570Q307 570 293 581T278 618Q278 647 309 676T391 737L446 771L476 729L388 652V570H331H331Z"  />
<glyph unicode="&#x315;" horiz-adv-x="504" d="M309 633V724H358Q383 724 400 713T418 677Q418 652 396 623T347 560L310 516H246L309 633Z"  />
<glyph unicode="&#x326;" horiz-adv-x="504" d="M48 -202L133 -127L124 -42H184Q208 -42 222 -53T237 -90Q237 -119 211 -146T133 -206L78 -240L48 -202Z"  />
<glyph unicode="&#x384;" horiz-adv-x="504" d="M331 758H457L361 582H325L331 758Z"  />
<glyph unicode="&#x385;" horiz-adv-x="504" d="M178 718H275L246 617H149L178 718ZM341 758H447L361 582H325L341 758ZM489 718H586L557 617H460L489 718Z"  />
<glyph unicode="&#x386;" horiz-adv-x="853" d="M493 724H609L750 0H647L612 179H189L51 0H-67L493 724ZM249 263H597L530 635L249 263ZM216 724H342L246 548H210L216 724Z"  />
<glyph unicode="&#x388;" horiz-adv-x="830" d="M309 724H870L846 640H387L322 414H722L698 330H298L228 84H691L667 0H102L309 724ZM113 724H239L143 548H107L113 724Z"  />
<glyph unicode="&#x389;" horiz-adv-x="969" d="M763 321H296L203 0H101L311 724H413L320 405H787L880 724H982L772 0H670L763 321ZM114 724H240L144 548H108L114 724Z"  />
<glyph unicode="&#x38A;" horiz-adv-x="623" d="M306 724H667L643 640H514L352 84H481L457 0H96L120 84H250L412 640H282L306 724ZM113 724H239L143 548H107L113 724Z"  />
<glyph unicode="&#x38C;" horiz-adv-x="994" d="M482 -12Q393 -12 330 13T227 79T168 172T149 280Q149 372 182 454T276 599T424 699T617 736Q706 736 769 711T872 645T931 552T950 444Q950 352 917 270T823 125T675 25T482 -12ZM490 70Q579 70 645 103T756 190T823 307T845 435Q845 483 832 523T789 592T716 638T608 654Q519 654 453 621T342 534T276 417T254 289Q254 241 267 201T309 132T383 86T490 70ZM113 724H239L143 548H107L113 724Z"  />
<glyph unicode="&#x38E;" horiz-adv-x="898" d="M453 270L260 724H371L519 353L884 724H1010L555 273L476 0H375L453 270ZM97 724H223L127 548H91L97 724Z"  />
<glyph unicode="&#x38F;" horiz-adv-x="1038" d="M62 84H243Q196 121 173 174T149 290Q149 378 182 459T278 601T428 699T627 736Q712 736 773 711T873 645T930 552T948 444Q948 320 890 228T729 84H930L906 0H525L547 79Q620 93 675 129T768 215T823 321T842 435Q842 483 829 523T789 592T719 638T617 654Q524 654 456 621T344 534T277 417T255 289Q255 214 287 160T385 79L363 0H38L62 84ZM113 724H239L143 548H107L113 724Z"  />
<glyph unicode="&#x390;" horiz-adv-x="389" d="M174 -12Q119 -12 92 13T65 82Q65 94 66 107T73 134L183 513H281L170 131Q165 113 165 103Q165 68 213 68Q236 68 255 71T292 79L271 4Q254 -3 231 -7T174 -12ZM86 718H183L154 617H57L86 718ZM249 758H355L269 582H233L249 758ZM397 718H494L465 617H368L397 718Z"  />
<glyph unicode="&#x391;" horiz-adv-x="853" d="M493 724H609L750 0H647L612 179H189L51 0H-67L493 724ZM249 263H597L530 635L249 263Z"  />
<glyph unicode="&#x392;" horiz-adv-x="802" d="M251 724H484Q546 724 596 714T683 682T738 628T758 552Q758 514 745 484T709 431T655 392T585 365Q642 344 675 307T709 215Q709 157 685 117T614 50T499 12T342 0H44L251 724ZM239 328L169 83H346Q405 83 453 89T534 110T586 150T605 213Q605 270 556 299T416 328H239ZM329 641L262 408H408Q463 408 508 414T585 434T634 474T652 539Q652 598 602 619T461 641H329Z"  />
<glyph unicode="&#x393;" horiz-adv-x="662" d="M254 724H765L741 640H331L146 0H44L254 724Z"  />
<glyph unicode="&#x394;" horiz-adv-x="865" d="M6 79L511 724H620L751 79L729 0H-16L6 79ZM127 84H646L540 616L127 84Z"  />
<glyph unicode="&#x395;" horiz-adv-x="772" d="M251 724H812L788 640H329L264 414H664L640 330H240L170 84H633L609 0H44L251 724Z"  />
<glyph unicode="&#x396;" horiz-adv-x="761" d="M14 79L635 640H188L212 724H798L774 645L153 84H626L602 0H-8L14 79Z"  />
<glyph unicode="&#x397;" horiz-adv-x="912" d="M706 321H239L146 0H44L254 724H356L263 405H730L823 724H925L715 0H613L706 321Z"  />
<glyph unicode="&#x398;" horiz-adv-x="928" d="M306 405H683L658 321H281L306 405ZM416 -12Q327 -12 264 13T161 79T102 172T83 280Q83 372 116 454T210 599T358 699T551 736Q640 736 703 711T806 645T865 552T884 444Q884 352 851 270T757 125T609 25T416 -12ZM424 70Q513 70 579 103T690 190T757 307T779 435Q779 483 766 523T723 592T650 638T542 654Q453 654 387 621T276 534T210 417T188 289Q188 241 201 201T243 132T317 86T424 70Z"  />
<glyph unicode="&#x399;" horiz-adv-x="533" d="M216 724H577L553 640H424L262 84H391L367 0H6L30 84H160L322 640H192L216 724Z"  />
<glyph unicode="&#x39A;" horiz-adv-x="845" d="M272 724H374L280 399L780 724H937L364 359L746 0H607L260 333L164 0H62L272 724Z"  />
<glyph unicode="&#x39B;" horiz-adv-x="815" d="M477 724H587L712 0H610L508 613L55 0H-67L477 724Z"  />
<glyph unicode="&#x39C;" horiz-adv-x="1069" d="M254 724H352L527 310L941 724H1058L848 0H749L919 584L534 200H476L313 584L143 0H44L254 724Z"  />
<glyph unicode="&#x39D;" horiz-adv-x="960" d="M254 724H357L677 125L851 724H951L741 0H639L318 601L144 0H44L254 724Z"  />
<glyph unicode="&#x39E;" horiz-adv-x="741" d="M6 88H607L582 0H-19L6 88ZM162 416H637L612 328H137L162 416ZM186 724H781L756 636H161L186 724Z"  />
<glyph unicode="&#x39F;" horiz-adv-x="928" d="M416 -12Q327 -12 264 13T161 79T102 172T83 280Q83 372 116 454T210 599T358 699T551 736Q640 736 703 711T806 645T865 552T884 444Q884 352 851 270T757 125T609 25T416 -12ZM424 70Q513 70 579 103T690 190T757 307T779 435Q779 483 766 523T723 592T650 638T542 654Q453 654 387 621T276 534T210 417T188 289Q188 241 201 201T243 132T317 86T424 70Z"  />
<glyph unicode="&#x3A0;" horiz-adv-x="892" d="M778 640H331L146 0H44L254 724H905L695 0H593L778 640Z"  />
<glyph unicode="&#x3A1;" horiz-adv-x="767" d="M254 724H522Q589 724 638 709T720 667T767 608T783 540Q783 465 753 414T672 330T555 284T415 270H223L146 0H44L254 724ZM330 640L248 354H411Q457 354 504 360T590 385T653 438T678 530Q678 553 668 573T634 608T574 631T487 640H330Z"  />
<glyph unicode="&#x3A3;" horiz-adv-x="768" d="M13 79L449 373L175 645L198 724H816L792 640H310L556 402L533 322L180 84H633L609 0H-9L13 79Z"  />
<glyph unicode="&#x3A4;" horiz-adv-x="755" d="M166 724H858L834 640H538L353 0H251L436 640H142L166 724Z"  />
<glyph unicode="&#x3A5;" horiz-adv-x="777" d="M332 270L139 724H250L398 353L763 724H889L434 273L355 0H254L332 270Z"  />
<glyph unicode="&#x3A6;" horiz-adv-x="1063" d="M418 76Q343 78 280 95T169 142T96 215T69 315Q69 412 113 477T230 581T395 636T583 654L603 724H702L682 653Q756 651 819 635T928 588T1001 515T1028 416Q1028 319 982 254T863 150T698 94T516 76L495 0H396L418 76ZM174 323Q174 279 195 249T254 198T339 168T441 157L560 573Q493 572 424 561T300 522T209 446T174 323ZM923 407Q923 450 902 480T844 531T759 560T658 572L540 157Q607 158 675 169T798 208T888 284T923 407Z"  />
<glyph unicode="&#x3A7;" horiz-adv-x="793" d="M360 378L171 724H282L429 443L732 724H866L472 368L686 0H573L404 304L73 0H-60L360 378Z"  />
<glyph unicode="&#x3A8;" horiz-adv-x="969" d="M414 224Q343 224 291 240T205 285T154 354T137 444Q137 468 141 494T153 547L204 724H306L252 538Q244 512 240 489T236 444Q236 378 282 342T438 306L559 724H661L540 306Q669 306 746 364T860 549L911 724H1013L956 526Q935 454 902 398T816 303T690 244T516 224L451 0H349L414 224Z"  />
<glyph unicode="&#x3A9;" horiz-adv-x="1008" d="M32 84H213Q166 121 143 174T119 290Q119 378 152 459T248 601T398 699T597 736Q682 736 743 711T843 645T900 552T918 444Q918 320 860 228T699 84H900L876 0H495L517 79Q590 93 645 129T738 215T793 321T812 435Q812 483 799 523T759 592T689 638T587 654Q494 654 426 621T314 534T247 417T225 289Q225 214 257 160T355 79L333 0H8L32 84Z"  />
<glyph unicode="&#x3AA;" horiz-adv-x="533" d="M216 724H577L553 640H424L262 84H391L367 0H6L30 84H160L322 640H192L216 724ZM263 902H372L342 801H233L263 902ZM517 902H626L596 801H487L517 902Z"  />
<glyph unicode="&#x3AB;" horiz-adv-x="777" d="M332 270L139 724H250L398 353L763 724H889L434 273L355 0H254L332 270ZM372 902H481L451 801H342L372 902ZM626 902H735L705 801H596L626 902Z"  />
<glyph unicode="&#x3AC;" horiz-adv-x="779" d="M610 -12Q563 -12 542 9T521 63Q484 31 434 10T314 -12Q260 -12 216 3T140 49T91 122T73 222Q73 293 99 349T170 445T274 504T399 525Q433 525 465 519T525 502T577 477T617 447L647 513H734L619 117Q616 105 616 97Q616 82 625 76T653 70Q667 70 680 72T707 77L685 3Q671 -4 651 -8T610 -12ZM339 64Q398 64 446 89T530 150L594 374Q564 406 518 427T405 448Q364 448 323 435T249 394T196 324T175 223Q175 142 221 103T339 64ZM454 758H580L484 582H448L454 758Z"  />
<glyph unicode="&#x3AD;" horiz-adv-x="673" d="M302 -12Q172 -12 108 22T44 119Q44 151 57 175T93 218T150 248T223 267Q185 281 161 306T137 369Q137 410 160 439T224 488T320 516T441 525Q471 525 505 522T570 512T627 498T667 481L645 406Q629 414 606 421T554 433T495 442T434 446Q347 446 294 428T240 367Q240 333 280 316T395 299H506L484 223H357Q316 223 278 218T211 203T165 176T147 136Q147 99 191 84T323 68Q391 68 460 81T579 112L556 33Q538 23 510 15T447 1T375 -8T302 -12ZM427 758H553L457 582H421L427 758Z"  />
<glyph unicode="&#x3AE;" horiz-adv-x="769" d="M189 513H265V458Q301 487 351 506T468 525Q508 525 546 517T615 489T664 441T683 371Q683 344 674 313L522 -211H423L573 306Q580 330 580 352Q580 403 540 425T436 447Q386 447 338 431T251 385L139 0H40L189 513ZM465 758H591L495 582H459L465 758Z"  />
<glyph unicode="&#x3AF;" horiz-adv-x="389" d="M174 -12Q119 -12 92 13T65 82Q65 94 66 107T73 134L183 513H281L170 131Q165 113 165 103Q165 68 213 68Q236 68 255 71T292 79L271 4Q254 -3 231 -7T174 -12ZM236 758H362L266 582H230L236 758Z"  />
<glyph unicode="&#x3B0;" horiz-adv-x="736" d="M316 -12Q206 -12 147 33T88 166Q88 207 103 258L177 513H276L206 270Q198 245 194 222T190 176Q190 152 196 132T218 98T258 75T321 66Q389 66 439 98T521 181T570 297T586 428Q586 470 578 513H681Q687 471 687 427Q687 350 667 272T602 130T487 28T316 -12ZM296 718H393L364 617H267L296 718ZM459 758H565L479 582H443L459 758ZM607 718H704L675 617H578L607 718Z"  />
<glyph unicode="&#x3B1;" horiz-adv-x="779" d="M610 -12Q563 -12 542 9T521 63Q484 31 434 10T314 -12Q260 -12 216 3T140 49T91 122T73 222Q73 293 99 349T170 445T274 504T399 525Q433 525 465 519T525 502T577 477T617 447L647 513H734L619 117Q616 105 616 97Q616 82 625 76T653 70Q667 70 680 72T707 77L685 3Q671 -4 651 -8T610 -12ZM339 64Q398 64 446 89T530 150L594 374Q564 406 518 427T405 448Q364 448 323 435T249 394T196 324T175 223Q175 142 221 103T339 64Z"  />
<glyph unicode="&#x3B2;" horiz-adv-x="775" d="M179 479Q218 615 300 675T515 736Q568 736 610 725T682 692T727 643T743 580Q743 537 726 503T680 443T614 400T538 372Q577 362 608 345T661 305T695 256T707 202Q707 158 689 119T631 51T531 5T383 -12Q305 -12 245 6T153 48L78 -211H-21L179 479ZM172 114Q206 94 260 80T383 65Q490 65 548 101T606 202Q606 233 588 258T535 300T453 327T347 339L368 413Q416 413 465 421T553 447T616 497T641 574Q641 613 608 636T501 659Q457 659 422 649T360 617T311 558T275 468L172 114Z"  />
<glyph unicode="&#x3B3;" horiz-adv-x="668" d="M215 7L137 383Q130 414 119 430T78 446Q54 446 36 440L56 512Q67 517 82 521T121 525Q151 525 169 517T199 494T217 458T228 412L285 103L598 513H712L314 6L251 -211H152L215 7Z"  />
<glyph unicode="&#x3B4;" horiz-adv-x="754" d="M309 -12Q184 -12 121 45T57 196Q57 266 86 323T164 421T274 483T400 505Q420 505 440 502T480 493L276 658L296 725H746L724 650H407L538 545Q608 489 648 431T689 296Q689 228 659 171T576 74T454 11T309 -12ZM321 65Q373 65 422 81T508 129T567 203T590 300Q590 429 426 429Q366 429 316 412T231 363T176 289T156 195Q156 129 199 97T321 65Z"  />
<glyph unicode="&#x3B5;" horiz-adv-x="673" d="M302 -12Q172 -12 108 22T44 119Q44 151 57 175T93 218T150 248T223 267Q185 281 161 306T137 369Q137 410 160 439T224 488T320 516T441 525Q471 525 505 522T570 512T627 498T667 481L645 406Q629 414 606 421T554 433T495 442T434 446Q347 446 294 428T240 367Q240 333 280 316T395 299H506L484 223H357Q316 223 278 218T211 203T165 176T147 136Q147 99 191 84T323 68Q391 68 460 81T579 112L556 33Q538 23 510 15T447 1T375 -8T302 -12Z"  />
<glyph unicode="&#x3B6;" horiz-adv-x="582" d="M49 174Q49 217 68 262T121 351T198 437T290 518T389 588T485 646H198L220 724H672L653 657Q609 637 555 606T446 537T337 455T243 365T177 274T152 186Q152 164 160 145T187 112T239 90T322 82H460Q483 82 496 72T510 43Q510 19 495 -10T457 -68T411 -122T367 -162H286Q320 -125 350 -82T401 0H294Q224 0 177 15T102 54T61 109T49 174Z"  />
<glyph unicode="&#x3B7;" horiz-adv-x="769" d="M189 513H265V458Q301 487 351 506T468 525Q508 525 546 517T615 489T664 441T683 371Q683 344 674 313L522 -211H423L573 306Q580 330 580 352Q580 403 540 425T436 447Q386 447 338 431T251 385L139 0H40L189 513Z"  />
<glyph unicode="&#x3B8;" horiz-adv-x="782" d="M326 -12Q266 -12 221 6T144 55T96 129T80 222Q80 280 92 341T129 459T190 566T273 654T379 714T506 736Q566 736 611 718T688 668T736 593T752 500Q752 442 740 382T703 264T642 157T559 69T453 10T326 -12ZM334 65Q382 65 426 85T507 140T574 222T621 323H190Q186 300 184 278T182 232Q182 157 220 111T334 65ZM498 658Q450 658 406 638T325 583T258 502T211 401H642Q650 447 650 490Q650 564 612 611T498 658Z"  />
<glyph unicode="&#x3B9;" horiz-adv-x="389" d="M174 -12Q119 -12 92 13T65 82Q65 94 66 107T73 134L183 513H281L170 131Q165 113 165 103Q165 68 213 68Q236 68 255 71T292 79L271 4Q254 -3 231 -7T174 -12Z"  />
<glyph unicode="&#x3BA;" horiz-adv-x="679" d="M189 513H288L223 289L579 513H730L311 256L605 0H470L207 235L139 0H40L189 513Z"  />
<glyph unicode="&#x3BB;" horiz-adv-x="681" d="M553 -7Q505 -7 478 16T441 89L380 409L52 0H-62L359 510L357 519Q348 555 340 580T321 622T291 646T244 654Q228 654 210 651T181 644L204 725Q215 729 233 732T278 736Q320 736 348 721T396 677T428 610T450 525L529 132Q535 100 548 88T591 75Q605 75 617 77T638 83L616 6Q606 1 591 -3T553 -7Z"  />
<glyph unicode="&#x3BC;" horiz-adv-x="767" d="M598 -12Q551 -12 530 9T509 64Q474 31 422 10T299 -12Q253 -12 211 -1T138 34Q138 22 137 4T127 -41L77 -211H-21L189 513H288L199 207Q188 169 192 142T215 98T262 74T328 66Q379 66 426 82T511 127L623 513H722L607 117Q604 105 604 97Q604 70 641 70Q655 70 668 72T695 77L673 3Q659 -4 639 -8T598 -12Z"  />
<glyph unicode="&#x3BD;" horiz-adv-x="642" d="M84 513H183L259 103L572 513H686L283 0H191L84 513Z"  />
<glyph unicode="&#x3BE;" horiz-adv-x="584" d="M272 -162Q306 -125 337 -82T388 0H301Q230 0 182 14T103 53T60 110T47 178Q47 224 62 262T103 330T166 381T244 415Q205 434 184 466T162 536Q162 589 188 627T255 689T346 724T447 736Q503 736 552 728T634 705L612 627Q542 656 439 656Q410 656 379 650T323 630T281 592T264 530Q264 492 300 469T406 446H501L480 370H390Q334 370 290 357T214 320T166 263T149 189Q149 164 158 145T188 111T246 90T337 82H447Q470 82 483 72T497 43Q497 19 482 -10T444 -68T398 -122T354 -162H272H272Z"  />
<glyph unicode="&#x3BF;" horiz-adv-x="771" d="M351 -12Q285 -12 233 6T146 56T92 130T73 220Q73 293 99 350T171 446T281 505T420 525Q486 525 538 507T625 457T679 383T698 293Q698 219 672 163T600 67T490 8T351 -12ZM359 63Q409 63 452 77T528 120T578 189T596 283Q596 361 547 405T412 450Q362 450 319 436T243 393T193 324T175 230Q175 152 224 108T359 63Z"  />
<glyph unicode="&#x3C0;" horiz-adv-x="772" d="M78 513H816L793 435H663L570 114Q567 102 567 94Q567 77 579 72T614 67Q624 67 638 68T658 71L638 0Q620 -6 596 -9T558 -12Q463 -12 463 63Q463 85 470 109L564 435H278L152 0H53L179 435H56L78 513Z"  />
<glyph unicode="&#x3C1;" horiz-adv-x="770" d="M99 245Q120 315 146 368T210 455T302 507T432 525Q493 525 542 508T626 460T678 389T697 300Q697 227 673 169T603 71T491 10T341 -12Q279 -12 226 2T137 37L64 -211H-35L99 245ZM156 103Q190 86 243 75T352 64Q403 64 447 77T524 118T576 188T595 288Q595 366 547 408T420 450Q369 450 333 436T272 393T228 326T195 235L156 103Z"  />
<glyph unicode="&#x3C2;" horiz-adv-x="638" d="M175 222Q175 191 184 166T216 122T275 93T367 82H473Q496 82 509 72T523 43Q523 19 508 -10T470 -68T424 -122T380 -162H298Q332 -125 363 -82T414 0H331Q263 0 215 18T135 65T88 132T73 210Q73 283 101 341T180 440T299 503T450 525Q495 525 539 516T612 492L589 417Q561 429 520 436T441 444Q386 444 338 430T253 389T196 319T175 222Z"  />
<glyph unicode="&#x3C3;" horiz-adv-x="801" d="M351 -12Q285 -12 233 6T146 56T92 130T73 220Q73 293 98 348T169 440T283 495T434 513H835L813 435H655Q671 412 684 377T698 293Q698 219 672 163T600 67T490 8T351 -12ZM596 283Q596 332 585 371T555 435H433Q375 435 328 424T246 388T194 324T175 230Q175 152 224 108T359 63Q409 63 452 77T528 120T578 189T596 283Z"  />
<glyph unicode="&#x3C4;" horiz-adv-x="568" d="M78 513H614L591 435H342L253 131Q248 113 248 103Q248 68 296 68Q319 68 338 71T375 79L354 4Q337 -3 314 -7T257 -12Q202 -12 175 13T148 82Q148 94 149 107T156 134L244 435H55L78 513Z"  />
<glyph unicode="&#x3C5;" horiz-adv-x="736" d="M316 -12Q206 -12 147 33T88 166Q88 207 103 258L177 513H276L206 270Q198 245 194 222T190 176Q190 152 196 132T218 98T258 75T321 66Q389 66 439 98T521 181T570 297T586 428Q586 470 578 513H681Q687 471 687 427Q687 350 667 272T602 130T487 28T316 -12Z"  />
<glyph unicode="&#x3C6;" horiz-adv-x="913" d="M330 -5Q265 -5 213 9T124 50T67 113T47 196Q47 271 81 330T174 431T312 495T482 518L542 724H641L580 516Q644 516 696 502T786 461T844 398T864 315Q864 240 830 181T737 80T599 16T429 -7H428L369 -211H270L330 -5ZM763 307Q763 366 713 402T558 439L451 70Q516 70 573 85T672 131T738 206T763 307ZM148 204Q148 145 198 109T352 72L459 441Q394 441 338 426T239 380T173 305T148 204Z"  />
<glyph unicode="&#x3C7;" horiz-adv-x="698" d="M277 167L196 383Q184 415 169 429T118 443Q91 443 67 435L89 512Q100 517 118 521T159 525Q214 525 241 497T288 415L349 240L606 513H736L379 153L466 -81Q478 -113 493 -127T544 -141Q571 -141 595 -133L573 -210Q562 -215 544 -219T503 -223Q448 -223 421 -195T374 -113L307 80L33 -211H-96L277 167Z"  />
<glyph unicode="&#x3C8;" horiz-adv-x="893" d="M324 -5Q271 -3 228 9T153 44T105 103T88 187Q88 232 104 286L170 513H269L203 286Q187 231 187 190Q187 127 226 101T347 72L536 724H635L446 72H450Q525 72 580 99T672 174T725 287T743 427Q743 462 742 483T739 513H839Q841 506 842 484T844 433Q844 347 825 268T759 128T631 31T428 -6H423L364 -211H265L324 -5Z"  />
<glyph unicode="&#x3C9;" horiz-adv-x="985" d="M241 -12Q196 -12 162 0T105 35T71 88T59 156Q59 228 81 288T136 394T204 470T268 513H380Q335 486 295 448T223 364T174 265T155 155Q155 113 180 90T257 66Q317 66 364 107T436 234L469 350H568L535 234Q520 183 520 148Q520 106 545 86T616 66Q659 66 696 89T761 151T805 237T821 333Q821 396 804 438T751 513H845Q871 496 892 449T914 326Q914 268 895 208T838 99T744 19T614 -12Q579 -12 552 -4T503 17T468 47T446 83Q414 46 364 17T241 -12Z"  />
<glyph unicode="&#x3CA;" horiz-adv-x="389" d="M174 -12Q119 -12 92 13T65 82Q65 94 66 107T73 134L183 513H281L170 131Q165 113 165 103Q165 68 213 68Q236 68 255 71T292 79L271 4Q254 -3 231 -7T174 -12ZM106 718H215L185 617H76L106 718ZM360 718H469L439 617H330L360 718Z"  />
<glyph unicode="&#x3CB;" horiz-adv-x="736" d="M316 -12Q206 -12 147 33T88 166Q88 207 103 258L177 513H276L206 270Q198 245 194 222T190 176Q190 152 196 132T218 98T258 75T321 66Q389 66 439 98T521 181T570 297T586 428Q586 470 578 513H681Q687 471 687 427Q687 350 667 272T602 130T487 28T316 -12ZM316 718H425L395 617H286L316 718ZM570 718H679L649 617H540L570 718Z"  />
<glyph unicode="&#x3CC;" horiz-adv-x="771" d="M351 -12Q285 -12 233 6T146 56T92 130T73 220Q73 293 99 350T171 446T281 505T420 525Q486 525 538 507T625 457T679 383T698 293Q698 219 672 163T600 67T490 8T351 -12ZM359 63Q409 63 452 77T528 120T578 189T596 283Q596 361 547 405T412 450Q362 450 319 436T243 393T193 324T175 230Q175 152 224 108T359 63ZM428 758H554L458 582H422L428 758Z"  />
<glyph unicode="&#x3CD;" horiz-adv-x="736" d="M316 -12Q206 -12 147 33T88 166Q88 207 103 258L177 513H276L206 270Q198 245 194 222T190 176Q190 152 196 132T218 98T258 75T321 66Q389 66 439 98T521 181T570 297T586 428Q586 470 578 513H681Q687 471 687 427Q687 350 667 272T602 130T487 28T316 -12ZM446 758H572L476 582H440L446 758Z"  />
<glyph unicode="&#x3CE;" horiz-adv-x="985" d="M241 -12Q196 -12 162 0T105 35T71 88T59 156Q59 228 81 288T136 394T204 470T268 513H380Q335 486 295 448T223 364T174 265T155 155Q155 113 180 90T257 66Q317 66 364 107T436 234L469 350H568L535 234Q520 183 520 148Q520 106 545 86T616 66Q659 66 696 89T761 151T805 237T821 333Q821 396 804 438T751 513H845Q871 496 892 449T914 326Q914 268 895 208T838 99T744 19T614 -12Q579 -12 552 -4T503 17T468 47T446 83Q414 46 364 17T241 -12ZM568 758H694L598 582H562L568 758Z"  />
<glyph unicode="&#x400;" horiz-adv-x="772" d="M251 724H812L788 640H329L264 414H664L640 330H240L170 84H633L609 0H44L251 724ZM405 930H526L589 772H506L405 930Z"  />
<glyph unicode="&#x401;" horiz-adv-x="772" d="M251 724H812L788 640H329L264 414H664L640 330H240L170 84H633L609 0H44L251 724ZM399 902H508L478 801H369L399 902ZM653 902H762L732 801H623L653 902Z"  />
<glyph unicode="&#x402;" horiz-adv-x="1006" d="M166 724H818L794 640H518L462 445H665Q730 445 780 431T865 391T916 330T934 253Q934 184 909 136T838 58T725 14T576 0H483L508 83H581Q626 83 670 88T748 111T804 160T826 245Q826 269 818 290T789 327T737 352T656 362H438L333 0H231L416 640H142L166 724Z"  />
<glyph unicode="&#x403;" horiz-adv-x="662" d="M254 724H765L741 640H331L146 0H44L254 724ZM607 930H748L569 772H472L607 930Z"  />
<glyph unicode="&#x404;" horiz-adv-x="768" d="M404 -12Q328 -12 269 10T168 72T105 166T83 286Q83 381 120 463T224 606T379 701T572 736Q638 736 695 727T793 697L769 615Q723 637 671 644T571 651Q511 651 454 634T348 586T262 508T205 405H618L594 321H189Q188 315 188 309T188 296Q188 231 207 188T259 120T336 83T431 72Q501 72 557 84T647 107L621 20Q584 5 526 -3T404 -12Z"  />
<glyph unicode="&#x405;" horiz-adv-x="756" d="M274 -12Q182 -12 123 1T23 32L47 114Q90 98 149 85T282 72Q406 72 473 107T540 199Q540 221 530 238T500 269T448 296T373 325Q327 341 288 357T219 396T173 450T156 525Q156 573 179 611T246 678T351 721T490 736Q573 736 634 723T733 691L709 609Q667 626 612 638T482 651Q374 651 318 618T262 528Q262 507 270 491T298 461T348 434T425 404Q476 386 517 370T586 331T630 279T646 205Q646 159 623 120T553 51T436 5T274 -12Z"  />
<glyph unicode="&#x406;" horiz-adv-x="533" d="M216 724H577L553 640H424L262 84H391L367 0H6L30 84H160L322 640H192L216 724Z"  />
<glyph unicode="&#x407;" horiz-adv-x="533" d="M216 724H577L553 640H424L262 84H391L367 0H6L30 84H160L322 640H192L216 724ZM263 902H372L342 801H233L263 902ZM517 902H626L596 801H487L517 902Z"  />
<glyph unicode="&#x408;" horiz-adv-x="424" d="M182 724H432L247 86Q229 22 203 -21T145 -92T74 -130T-9 -142Q-50 -142 -75 -137T-113 -127L-91 -44Q-80 -48 -59 -51T-22 -55Q13 -55 39 -47T86 -19T122 32T152 111L305 640H157L182 724Z"  />
<glyph unicode="&#x409;" horiz-adv-x="1353" d="M33 -12Q3 -12 -23 -8T-65 4L-44 80Q-22 72 23 72Q75 72 116 102T197 206T280 406T378 724H920L839 445H1022Q1087 445 1137 431T1222 391T1273 330T1291 253Q1291 184 1266 136T1195 58T1082 14T933 0H608L793 640H456Q438 582 423 535T394 446T367 369T341 300Q319 245 294 190T234 89T151 16T33 -12ZM815 362L734 83H938Q983 83 1027 88T1105 111T1161 160T1183 245Q1183 269 1175 290T1146 327T1094 352T1013 362H815Z"  />
<glyph unicode="&#x40A;" horiz-adv-x="1319" d="M254 724H356L263 405H691L784 724H886L805 445H988Q1053 445 1103 431T1188 391T1239 330T1257 253Q1257 184 1232 136T1161 58T1048 14T899 0H574L667 321H239L146 0H44L254 724ZM781 362L700 83H904Q949 83 993 88T1071 111T1127 160T1149 245Q1149 269 1141 290T1112 327T1060 352T979 362H781Z"  />
<glyph unicode="&#x40B;" horiz-adv-x="998" d="M166 724H818L794 640H518L462 445Q510 461 571 471T693 481Q742 481 782 471T852 439T897 386T914 309Q914 274 900 224L835 0H733L797 221Q803 241 805 259T808 299Q808 347 772 372T658 397Q635 397 608 395T551 389T493 379T439 366L333 0H231L416 640H142L166 724Z"  />
<glyph unicode="&#x40C;" horiz-adv-x="845" d="M251 724H354L263 407H345Q366 407 380 408T407 414T430 425T455 445L794 724H934L556 416Q537 401 518 388T477 363Q499 353 515 337T546 300L745 0H624L439 287Q424 311 405 318T346 325H240L147 0H44L251 724ZM665 930H806L627 772H530L665 930Z"  />
<glyph unicode="&#x40D;" horiz-adv-x="960" d="M254 724H354L182 132L856 724H973L763 0H663L835 591L161 0H44L254 724ZM486 930H607L670 772H587L486 930Z"  />
<glyph unicode="&#x40E;" horiz-adv-x="728" d="M140 -12Q108 -12 83 -8T40 4L64 85Q92 74 134 74Q167 74 191 81T237 103T280 140T325 191L131 724H243L399 275L735 724H857L421 155Q356 70 290 29T140 -12ZM494 765Q430 765 394 796T358 882Q358 906 365 930H433Q430 913 430 898Q430 841 501 841Q552 841 583 864T632 930H702Q679 855 626 810T494 765Z"  />
<glyph unicode="&#x40F;" horiz-adv-x="872" d="M312 0H44L254 724H356L170 84H597L783 724H885L675 0H406L355 -178H261L312 0Z"  />
<glyph unicode="&#x410;" horiz-adv-x="853" d="M493 724H609L750 0H647L612 179H189L51 0H-67L493 724ZM249 263H597L530 635L249 263Z"  />
<glyph unicode="&#x411;" horiz-adv-x="800" d="M254 724H800L776 640H331L265 411H462Q525 411 571 397T649 359T695 302T711 234Q711 170 684 126T610 53T503 13T376 0H44L254 724ZM241 328L170 83H373Q413 83 454 88T528 108T582 151T603 228Q603 248 595 266T567 298T516 320T439 328H241Z"  />
<glyph unicode="&#x412;" horiz-adv-x="802" d="M251 724H484Q546 724 596 714T683 682T738 628T758 552Q758 514 745 484T709 431T655 392T585 365Q642 344 675 307T709 215Q709 157 685 117T614 50T499 12T342 0H44L251 724ZM239 328L169 83H346Q405 83 453 89T534 110T586 150T605 213Q605 270 556 299T416 328H239ZM329 641L262 408H408Q463 408 508 414T585 434T634 474T652 539Q652 598 602 619T461 641H329Z"  />
<glyph unicode="&#x413;" horiz-adv-x="662" d="M254 724H765L741 640H331L146 0H44L254 724Z"  />
<glyph unicode="&#x414;" horiz-adv-x="918" d="M-26 -168H-120L-48 84H-4Q48 84 93 114T182 218T272 415T371 724H906L720 84H841L768 -168H674L723 0H23L-26 -168ZM292 225Q263 174 234 140T175 84H618L779 640H451Q433 580 413 520T371 405T330 304T292 225Z"  />
<glyph unicode="&#x415;" horiz-adv-x="772" d="M251 724H812L788 640H329L264 414H664L640 330H240L170 84H633L609 0H44L251 724Z"  />
<glyph unicode="&#x416;" horiz-adv-x="1222" d="M569 325H516Q495 325 480 324T452 318T428 307T402 287L73 0H-72L289 309Q311 327 334 342T383 367Q365 377 352 391T328 424L153 724H266L425 445Q432 433 439 426T457 414T481 409T517 407H592L683 724H786L695 407H747Q768 407 783 408T811 414T835 425T861 445L1180 724H1316L969 424Q949 406 927 391T882 367Q902 357 916 342T942 309L1127 0H1005L840 287Q833 299 826 306T808 318T784 323T748 325H672L579 0H476L569 325Z"  />
<glyph unicode="&#x417;" horiz-adv-x="702" d="M242 -12Q160 -12 93 3T-14 37L9 118Q55 103 113 89T250 74Q299 74 343 82T420 107T473 150T493 212Q493 267 446 298T305 330H218L241 411H324Q363 411 403 418T476 441T530 485T551 553Q551 580 538 598T504 628T453 645T393 650Q337 650 271 640T145 608L170 693Q223 713 282 724T408 736Q464 736 510 724T589 690T640 637T658 566Q658 487 612 438T488 368Q536 350 568 313T600 217Q600 167 577 125T509 53T397 5T242 -12Z"  />
<glyph unicode="&#x418;" horiz-adv-x="960" d="M254 724H354L182 132L856 724H973L763 0H663L835 591L161 0H44L254 724Z"  />
<glyph unicode="&#x419;" horiz-adv-x="960" d="M254 724H354L182 132L856 724H973L763 0H663L835 591L161 0H44L254 724ZM623 765Q559 765 523 796T487 882Q487 906 494 930H562Q559 913 559 898Q559 841 630 841Q681 841 712 864T761 930H831Q808 855 755 810T623 765Z"  />
<glyph unicode="&#x41A;" horiz-adv-x="845" d="M251 724H354L263 407H345Q366 407 380 408T407 414T430 425T455 445L794 724H934L556 416Q537 401 518 388T477 363Q499 353 515 337T546 300L745 0H624L439 287Q424 311 405 318T346 325H240L147 0H44L251 724Z"  />
<glyph unicode="&#x41B;" horiz-adv-x="917" d="M803 640H456Q438 582 423 535T394 446T367 369T341 300Q319 245 294 190T234 89T151 16T33 -12Q3 -12 -23 -8T-65 4L-44 80Q-22 72 23 72Q75 72 116 102T197 206T280 406T378 724H930L720 0H618L803 640Z"  />
<glyph unicode="&#x41C;" horiz-adv-x="1045" d="M254 724H352L527 310L941 724H1058L848 0H749L919 584L534 200H476L313 584L143 0H44L254 724Z"  />
<glyph unicode="&#x41D;" horiz-adv-x="912" d="M706 321H239L146 0H44L254 724H356L263 405H730L823 724H925L715 0H613L706 321Z"  />
<glyph unicode="&#x41E;" horiz-adv-x="928" d="M416 -12Q327 -12 264 13T161 79T102 172T83 280Q83 372 116 454T210 599T358 699T551 736Q640 736 703 711T806 645T865 552T884 444Q884 352 851 270T757 125T609 25T416 -12ZM424 70Q513 70 579 103T690 190T757 307T779 435Q779 483 766 523T723 592T650 638T542 654Q453 654 387 621T276 534T210 417T188 289Q188 241 201 201T243 132T317 86T424 70Z"  />
<glyph unicode="&#x41F;" horiz-adv-x="892" d="M778 640H331L146 0H44L254 724H905L695 0H593L778 640Z"  />
<glyph unicode="&#x420;" horiz-adv-x="767" d="M254 724H522Q589 724 638 709T720 667T767 608T783 540Q783 465 753 414T672 330T555 284T415 270H223L146 0H44L254 724ZM330 640L248 354H411Q457 354 504 360T590 385T653 438T678 530Q678 553 668 573T634 608T574 631T487 640H330Z"  />
<glyph unicode="&#x421;" horiz-adv-x="768" d="M404 -12Q328 -12 269 10T168 72T105 166T83 286Q83 381 120 463T224 606T379 701T572 736Q638 736 695 727T793 697L769 615Q723 637 671 644T571 651Q499 651 430 626T307 555T221 443T188 296Q188 231 207 188T259 120T336 83T431 72Q501 72 557 84T647 107L621 20Q584 5 526 -3T404 -12Z"  />
<glyph unicode="&#x422;" horiz-adv-x="755" d="M166 724H858L834 640H538L353 0H251L436 640H142L166 724Z"  />
<glyph unicode="&#x423;" horiz-adv-x="728" d="M140 -12Q108 -12 83 -8T40 4L64 85Q92 74 134 74Q167 74 191 81T237 103T280 140T325 191L131 724H243L399 275L735 724H857L421 155Q356 70 290 29T140 -12Z"  />
<glyph unicode="&#x424;" horiz-adv-x="1063" d="M429 76Q354 78 291 95T180 142T107 215T80 315Q80 412 124 477T241 581T406 636T594 654L614 724H713L693 653Q767 651 830 635T939 588T1012 515T1039 416Q1039 319 993 254T874 150T709 94T527 76L506 0H407L429 76ZM185 323Q185 279 206 249T265 198T350 168T452 157L571 573Q504 572 435 561T311 522T220 446T185 323ZM934 407Q934 450 913 480T855 531T770 560T669 572L551 157Q618 158 686 169T809 208T899 284T934 407Z"  />
<glyph unicode="&#x425;" horiz-adv-x="793" d="M360 378L171 724H282L429 443L732 724H866L472 368L686 0H573L404 304L73 0H-60L360 378Z"  />
<glyph unicode="&#x426;" horiz-adv-x="897" d="M254 724H356L170 84H597L783 724H885L699 84H820L744 -178H650L702 0H44L254 724Z"  />
<glyph unicode="&#x427;" horiz-adv-x="806" d="M587 277Q539 261 479 252T359 243Q310 243 270 253T200 285T154 338T138 415Q138 450 152 500L217 724H319L255 503Q249 483 247 465T244 425Q244 377 280 352T394 327Q416 327 443 329T499 335T556 344T610 357L717 724H819L609 0H507L587 277Z"  />
<glyph unicode="&#x428;" horiz-adv-x="1301" d="M254 724H356L170 84H547L733 724H835L649 84H1026L1212 724H1314L1104 0H44L254 724Z"  />
<glyph unicode="&#x429;" horiz-adv-x="1326" d="M254 724H356L170 84H547L733 724H835L649 84H1026L1212 724H1314L1128 84H1249L1173 -178H1079L1131 0H44L254 724Z"  />
<glyph unicode="&#x42A;" horiz-adv-x="1006" d="M166 724H553L472 445H675Q740 445 790 431T875 391T926 330T944 253Q944 184 919 136T848 58T735 14T586 0H241L426 640H142L166 724ZM448 362L367 83H591Q636 83 680 88T758 111T814 160T836 245Q836 269 828 290T799 327T747 352T666 362H448Z"  />
<glyph unicode="&#x42B;" horiz-adv-x="1101" d="M254 724H356L275 445H458Q523 445 573 431T658 391T709 330T727 253Q727 184 702 136T631 58T518 14T369 0H44L254 724ZM251 362L170 83H374Q419 83 463 88T541 111T597 160T619 245Q619 269 611 290T582 327T530 352T449 362H251ZM1012 724H1114L904 0H802L1012 724Z"  />
<glyph unicode="&#x42C;" horiz-adv-x="809" d="M254 724H356L275 445H478Q543 445 593 431T678 391T729 330T747 253Q747 184 722 136T651 58T538 14T389 0H44L254 724ZM251 362L170 83H394Q439 83 483 88T561 111T617 160T639 245Q639 269 631 290T602 327T550 352T469 362H251Z"  />
<glyph unicode="&#x42D;" horiz-adv-x="768" d="M216 405H621Q621 410 621 416T622 428Q622 492 603 535T551 604T474 641T379 652Q309 652 253 640T163 617L189 704Q226 719 284 727T406 736Q482 736 541 714T642 652T705 558T727 438Q727 343 690 261T586 118T431 23T238 -12Q172 -12 115 -3T17 27L41 109Q87 87 139 80T239 73Q299 73 356 90T463 139T549 217T605 321H192L216 405Z"  />
<glyph unicode="&#x42E;" horiz-adv-x="1238" d="M254 724H356L263 405H439Q458 475 497 535T592 640T720 710T876 736Q961 736 1021 711T1120 645T1176 552T1194 444Q1194 352 1162 270T1070 125T927 25T741 -12Q656 -12 596 13T497 79T441 172T423 280Q423 291 423 300T425 321H239L146 0H44L254 724ZM749 70Q837 70 901 103T1006 190T1068 307T1088 435Q1088 483 1076 523T1036 592T967 638T867 654Q779 654 715 621T610 534T548 417T528 289Q528 241 540 201T580 132T648 86T749 70Z"  />
<glyph unicode="&#x42F;" horiz-adv-x="807" d="M594 298H514Q471 298 444 289T387 255L87 0H-54L266 271Q298 298 335 309Q297 316 265 330T210 365T174 416T161 485Q161 603 258 663T540 724H820L610 0H508L594 298ZM266 492Q266 460 279 439T318 404T379 386T460 380H618L693 640H527Q401 640 334 605T266 492Z"  />
<glyph unicode="&#x430;" horiz-adv-x="774" d="M509 49Q473 22 424 5T314 -12Q258 -12 214 5T138 52T90 123T73 213Q73 284 99 341T174 440T290 503T443 525Q494 525 546 512T633 478L652 513H734L585 0H509V49ZM349 64Q394 64 438 79T521 120L607 418Q575 432 530 440T442 448Q387 448 339 434T254 391T196 321T175 223Q175 142 222 103T349 64Z"  />
<glyph unicode="&#x431;" horiz-adv-x="741" d="M349 -12Q283 -12 233 8T150 63T100 147T83 252Q83 345 105 425T174 565T295 664T474 712L750 736L726 655L496 636Q383 626 315 577T215 448Q255 473 307 491T423 509Q483 509 532 493T618 447T673 377T693 286Q693 215 667 160T596 66T487 8T349 -12ZM411 433Q351 433 296 419T194 376Q188 348 185 319T182 256Q182 165 226 114T357 63Q407 63 450 77T524 119T573 185T591 275Q591 308 579 337T544 387T487 421T411 433Z"  />
<glyph unicode="&#x432;" horiz-adv-x="725" d="M189 513H470Q558 513 609 483T660 391Q660 337 629 305T544 258Q583 243 604 217T626 152Q626 70 561 35T369 0H40L189 513ZM204 224L161 77H368Q403 77 432 80T481 93T513 117T524 155Q524 189 495 206T410 224H204ZM265 436L225 297H413Q479 297 518 313T558 375Q558 410 529 423T444 436H265Z"  />
<glyph unicode="&#x433;" horiz-adv-x="592" d="M189 513H635L612 435H265L139 0H40L189 513Z"  />
<glyph unicode="&#x434;" horiz-adv-x="797" d="M-46 78H-9Q37 78 71 102T133 178T189 313T251 513H734L607 78H712L637 -178H548L599 0H21L-31 -178H-120L-46 78ZM210 126Q199 111 185 99T156 78H508L612 435H327Q305 359 289 309T261 224T236 167T210 126Z"  />
<glyph unicode="&#x435;" horiz-adv-x="727" d="M351 -12Q291 -12 240 4T152 50T94 124T73 224Q73 288 96 343T162 438T268 502T409 525Q464 525 510 510T589 469T642 408T661 334Q661 313 657 286T644 236H173V230Q173 150 223 109T366 68Q431 68 487 79T591 113L567 31Q521 8 469 -2T351 -12ZM399 449Q314 449 260 412T184 310H565Q566 315 566 319T567 328Q567 354 554 376T518 414T464 440T399 449Z"  />
<glyph unicode="&#x436;" horiz-adv-x="1052" d="M472 229H352Q341 182 317 139T258 62T175 8T70 -12Q55 -12 40 -11T10 -7T-15 -1T-32 7L-11 79Q-2 74 21 69T70 64Q112 64 149 82T213 134T257 214T274 315Q274 346 268 371T249 415T213 443T158 453Q139 453 121 448T93 438L114 510Q125 515 145 520T192 525Q236 525 268 508T321 463T352 396T363 316Q363 311 363 307T362 299H493L555 513H646L584 299H703Q716 343 740 384T799 456T880 506T982 525Q997 525 1012 524T1042 520T1067 514T1084 506L1063 434Q1054 439 1031 444T982 449Q940 449 903 431T839 379T795 299T778 198Q778 167 783 142T802 98T838 70T894 60Q913 60 931 65T959 75L938 3Q927 -2 907 -7T860 -12Q816 -12 784 5T731 50T700 117T689 197Q689 205 689 213T690 229H563L497 0H406L472 229Z"  />
<glyph unicode="&#x437;" horiz-adv-x="661" d="M247 -12Q210 -12 171 -9T97 2T32 18T-14 39L8 114Q39 99 98 84T237 68Q340 68 398 90T456 154Q456 173 443 185T407 205T354 216T289 219H168L190 295H295Q339 295 376 301T440 318T482 346T497 382Q497 417 458 431T351 446Q320 446 287 443T222 435T161 422T108 406L129 482Q151 492 180 500T240 513T301 522T357 525Q406 525 450 516T528 491T581 449T601 393Q601 364 590 342T559 304T514 275T459 256Q507 243 533 218T559 154Q559 110 533 79T464 27T365 -2T247 -12Z"  />
<glyph unicode="&#x438;" horiz-adv-x="758" d="M493 53Q458 24 409 6T295 -12Q255 -12 217 -4T150 23T103 70T85 140Q85 167 94 200L185 513H284L195 207Q187 178 187 159Q187 109 224 88T324 66Q375 66 422 82T507 127L619 513H718L569 0H493V53Z"  />
<glyph unicode="&#x439;" horiz-adv-x="758" d="M493 53Q458 24 409 6T295 -12Q255 -12 217 -4T150 23T103 70T85 140Q85 167 94 200L185 513H284L195 207Q187 178 187 159Q187 109 224 88T324 66Q375 66 422 82T507 127L619 513H718L569 0H493V53ZM459 581Q395 581 359 612T323 698Q323 722 330 746H398Q395 729 395 714Q395 657 466 657Q517 657 548 680T597 746H667Q644 671 591 626T459 581Z"  />
<glyph unicode="&#x43A;" horiz-adv-x="678" d="M187 513H286L224 297H258Q276 297 289 299T314 305T335 315T359 332L601 513H737L463 308Q443 293 422 280T378 258Q398 250 412 238T439 211L600 0H482L340 187Q325 207 304 214T246 222H202L139 0H40L187 513Z"  />
<glyph unicode="&#x43B;" horiz-adv-x="797" d="M635 435H340Q305 315 275 233T220 109Q203 82 184 60T140 21T84 -3T12 -12Q-11 -12 -29 -9T-58 -1L-36 74Q-30 72 -20 71T1 70Q48 70 81 90T142 162T198 298T264 513H757L608 0H509L635 435Z"  />
<glyph unicode="&#x43C;" horiz-adv-x="963" d="M189 513H288L467 217L817 513H923L774 0H679L789 380L485 124H424L252 404L135 0H40L189 513Z"  />
<glyph unicode="&#x43D;" horiz-adv-x="819" d="M598 230H206L139 0H40L189 513H288L228 308H620L680 513H779L630 0H531L598 230Z"  />
<glyph unicode="&#x43E;" horiz-adv-x="771" d="M351 -12Q285 -12 233 6T146 56T92 130T73 220Q73 293 99 350T171 446T281 505T420 525Q486 525 538 507T625 457T679 383T698 293Q698 219 672 163T600 67T490 8T351 -12ZM359 63Q409 63 452 77T528 120T578 189T596 283Q596 361 547 405T412 450Q362 450 319 436T243 393T193 324T175 230Q175 152 224 108T359 63Z"  />
<glyph unicode="&#x43F;" horiz-adv-x="769" d="M189 513H265V458Q301 487 351 506T468 525Q508 525 546 517T615 489T664 441T683 371Q683 344 674 313L583 0H484L573 306Q580 330 580 352Q580 403 540 425T436 447Q386 447 338 431T251 385L139 0H40L189 513Z"  />
<glyph unicode="&#x440;" horiz-adv-x="774" d="M189 513H266V462Q303 490 353 507T460 525Q518 525 562 508T638 462T685 392T701 305Q701 232 674 174T598 74T481 10T331 -12Q280 -12 231 0T148 30L78 -211H-21L189 513ZM425 448Q383 448 337 433T252 391L166 94Q198 79 241 72T332 64Q385 64 433 78T518 122T577 194T599 295Q599 371 555 409T425 448Z"  />
<glyph unicode="&#x441;" horiz-adv-x="628" d="M321 -12Q264 -12 218 5T140 52T91 122T73 210Q73 283 101 341T180 440T299 503T450 525Q495 525 539 516T612 492L589 417Q561 429 520 436T441 444Q386 444 338 430T253 389T196 319T175 222Q175 142 223 104T351 65Q393 65 434 74T513 97L489 17Q463 4 416 -4T321 -12Z"  />
<glyph unicode="&#x442;" horiz-adv-x="619" d="M98 513H655L632 435H404L278 0H179L305 435H75L98 513Z"  />
<glyph unicode="&#x443;" horiz-adv-x="642" d="M-67 -223Q-82 -223 -102 -220T-132 -212L-108 -134Q-100 -136 -87 -138T-59 -141Q-26 -141 2 -134T57 -110T109 -70T161 -13L186 18L84 513H183L259 103L572 513H686L262 -25Q224 -73 189 -110T116 -172T34 -210T-67 -223Z"  />
<glyph unicode="&#x444;" horiz-adv-x="1110" d="M442 38Q406 13 365 1T281 -12Q236 -12 198 1T133 39T91 101T75 189Q75 254 98 314T165 422T268 497T401 525Q459 525 501 512T570 478L642 724H741L669 476Q705 500 746 512T829 525Q874 525 912 512T977 474T1019 411T1035 324Q1035 259 1012 199T945 91T842 16T709 -12Q652 -12 609 0T540 34L469 -211H370L442 38ZM306 62Q343 62 385 75T463 110L551 410Q525 427 490 438T408 449Q360 449 319 429T247 375T198 296T180 199Q180 161 190 135T218 93T258 70T306 62ZM804 451Q767 451 726 438T648 403L560 101Q586 84 621 74T702 64Q750 64 791 84T863 138T912 217T930 314Q930 351 920 377T892 420T852 443T804 451Z"  />
<glyph unicode="&#x445;" horiz-adv-x="657" d="M270 267L113 513H225L338 320L558 513H687L384 256L550 0H439L315 203L85 0H-44L270 267Z"  />
<glyph unicode="&#x446;" horiz-adv-x="780" d="M570 -7Q554 -5 542 2T522 18T509 39T502 61Q467 29 416 9T295 -12Q255 -12 217 -4T150 23T103 70T85 140Q85 167 94 200L185 513H284L195 207Q187 178 187 159Q187 109 224 88T324 66Q375 66 422 82T507 127L619 513H718L604 122Q601 111 601 103Q601 85 618 76T681 67L613 -168H524L570 -7Z"  />
<glyph unicode="&#x447;" horiz-adv-x="743" d="M509 188Q464 171 412 160T298 148Q201 148 147 185T93 301Q93 317 95 334T104 371L145 513H244L204 374Q199 357 197 344T194 317Q194 269 232 248T334 227Q390 227 438 237T532 267L604 513H703L554 0H455L509 188Z"  />
<glyph unicode="&#x448;" horiz-adv-x="1192" d="M729 -12Q667 -12 614 8T535 74Q497 39 437 14T295 -12Q255 -12 217 -4T150 23T103 70T85 140Q85 167 94 200L185 513H284L195 207Q187 178 187 159Q187 109 224 88T324 66Q379 66 429 85T519 137V140Q519 167 528 200L619 513H718L629 207Q621 178 621 159Q621 109 658 88T758 66Q809 66 856 82T941 127L1053 513H1152L1003 0H927V53Q892 24 843 6T729 -12Z"  />
<glyph unicode="&#x449;" horiz-adv-x="1214" d="M729 -12Q667 -12 614 8T535 74Q497 39 437 14T295 -12Q255 -12 217 -4T150 23T103 70T85 140Q85 167 94 200L185 513H284L195 207Q187 178 187 159Q187 109 224 88T324 66Q379 66 429 85T519 137V140Q519 167 528 200L619 513H718L629 207Q621 178 621 159Q621 109 658 88T758 66Q809 66 856 82T941 127L1053 513H1152L1038 122Q1035 111 1035 103Q1035 85 1052 76T1115 67L1047 -168H958L1004 -7Q988 -5 976 2T956 18T943 39T936 61Q901 29 850 9T729 -12Z"  />
<glyph unicode="&#x44A;" horiz-adv-x="859" d="M98 513H428L376 334H578Q632 334 670 324T733 294T769 249T781 190Q781 136 760 100T702 41T615 10T508 0H180L306 435H75L98 513ZM353 256L301 78H523Q552 78 580 81T630 96T665 128T679 185Q679 199 674 212T657 234T623 250T570 256H353Z"  />
<glyph unicode="&#x44B;" horiz-adv-x="972" d="M189 513H288L236 334H418Q472 334 510 324T573 294T609 249T621 190Q621 136 600 100T542 41T455 10T348 0H40L189 513ZM213 256L161 78H363Q392 78 420 81T470 96T505 128T519 185Q519 199 514 212T497 234T463 250T410 256H213ZM833 513H932L783 0H684L833 513Z"  />
<glyph unicode="&#x44C;" horiz-adv-x="719" d="M189 513H288L236 334H438Q492 334 530 324T593 294T629 249T641 190Q641 136 620 100T562 41T475 10T368 0H40L189 513ZM213 256L161 78H383Q412 78 440 81T490 96T525 128T539 185Q539 199 534 212T517 234T483 250T430 256H213Z"  />
<glyph unicode="&#x44D;" horiz-adv-x="648" d="M134 299H474Q471 374 421 411T287 448Q240 448 196 439T115 416L139 496Q152 502 172 507T216 517T266 523T317 525Q377 525 424 508T505 461T557 391T575 303Q575 230 546 172T465 73T343 10T188 -12Q137 -12 91 -3T16 21L39 96Q67 84 111 77T197 69Q245 69 289 78T368 107T428 155T465 223H112L134 299Z"  />
<glyph unicode="&#x44E;" horiz-adv-x="1061" d="M189 513H288L228 308H390Q404 360 434 400T506 469T603 511T718 525Q782 525 832 507T917 457T970 383T988 293Q988 219 963 163T892 67T784 8T649 -12Q584 -12 534 6T450 56T397 130T379 220V230H206L139 0H40L189 513ZM657 63Q705 63 747 77T820 120T868 189T886 283Q886 361 839 405T710 450Q662 450 620 436T547 393T499 324T481 230Q481 152 528 108T657 63Z"  />
<glyph unicode="&#x44F;" horiz-adv-x="692" d="M462 201H417Q380 201 357 194T307 166L94 0H-35L187 175Q201 186 216 195T247 211Q189 221 153 252T116 340Q116 426 186 469T392 513H652L503 0H404L462 201ZM218 344Q218 306 250 291T338 276H484L530 436H379Q301 436 260 414T218 344Z"  />
<glyph unicode="&#x450;" horiz-adv-x="727" d="M351 -12Q291 -12 240 4T152 50T94 124T73 224Q73 288 96 343T162 438T268 502T409 525Q464 525 510 510T589 469T642 408T661 334Q661 313 657 286T644 236H173V230Q173 150 223 109T366 68Q431 68 487 79T591 113L567 31Q521 8 469 -2T351 -12ZM399 449Q314 449 260 412T184 310H565Q566 315 566 319T567 328Q567 354 554 376T518 414T464 440T399 449ZM285 746H406L469 588H386L285 746Z"  />
<glyph unicode="&#x451;" horiz-adv-x="727" d="M351 -12Q291 -12 240 4T152 50T94 124T73 224Q73 288 96 343T162 438T268 502T409 525Q464 525 510 510T589 469T642 408T661 334Q661 313 657 286T644 236H173V230Q173 150 223 109T366 68Q431 68 487 79T591 113L567 31Q521 8 469 -2T351 -12ZM399 449Q314 449 260 412T184 310H565Q566 315 566 319T567 328Q567 354 554 376T518 414T464 440T399 449ZM279 718H388L358 617H249L279 718ZM533 718H642L612 617H503L533 718Z"  />
<glyph unicode="&#x452;" horiz-adv-x="744" d="M156 664H232L250 724H349L331 664H444L422 589H310L272 459Q308 484 355 499T457 515Q561 515 614 457T668 291Q668 233 657 172T622 54T563 -53T479 -141T371 -201T238 -223Q206 -223 180 -218T142 -207L165 -134Q176 -139 192 -142T228 -145Q287 -145 335 -125T421 -72T486 6T532 97T559 193T568 284Q568 358 530 398T422 438Q380 438 334 423T249 381L139 0H40L211 589H134L156 664Z"  />
<glyph unicode="&#x453;" horiz-adv-x="592" d="M189 513H635L612 435H265L139 0H40L189 513ZM518 746H659L480 588H383L518 746Z"  />
<glyph unicode="&#x454;" horiz-adv-x="648" d="M331 -13Q271 -13 224 4T143 51T91 121T73 209Q73 282 102 340T183 439T305 502T460 524Q511 524 557 515T632 491L609 416Q581 428 537 435T451 443Q404 443 361 434T283 407T223 362T185 297H531L509 221H174Q174 141 224 103T361 64Q408 64 452 73T533 96L509 16Q496 10 476 5T432 -5T382 -11T331 -13Z"  />
<glyph unicode="&#x455;" horiz-adv-x="641" d="M237 -12Q207 -12 176 -9T117 1T64 15T21 31L43 103Q77 89 132 78T244 66Q277 66 312 69T375 81T422 105T441 146Q441 174 405 189T305 220Q211 244 163 275T115 358Q115 404 136 435T194 487T280 516T384 525Q417 525 449 522T510 512T563 498T603 481L581 409Q546 424 491 435T377 447Q344 447 315 443T264 430T229 407T216 371Q216 343 252 328T352 297Q446 273 494 242T542 159Q542 111 517 79T450 26T353 -3T237 -12Z"  />
<glyph unicode="&#x456;" horiz-adv-x="328" d="M189 513H288L139 0H40L189 513ZM250 724H349L318 615H219L250 724Z"  />
<glyph unicode="&#x457;" horiz-adv-x="328" d="M189 513H288L139 0H40L189 513ZM112 718H221L191 617H82L112 718ZM366 718H475L445 617H336L366 718Z"  />
<glyph unicode="&#x458;" horiz-adv-x="328" d="M-106 -223Q-118 -223 -132 -221T-159 -217T-184 -211T-200 -205L-177 -131Q-167 -136 -145 -140T-103 -145Q-69 -145 -46 -135T-6 -104T22 -52T46 20L189 513H288L137 -7Q120 -67 101 -108T54 -174T-12 -211T-106 -223ZM250 724H349L318 615H219L250 724Z"  />
<glyph unicode="&#x459;" horiz-adv-x="1153" d="M12 -12Q-11 -12 -29 -9T-58 -1L-36 74Q-30 72 -20 71T1 70Q48 70 81 90T142 162T198 298T264 513H737L685 334H872Q926 334 964 324T1027 294T1063 249T1075 190Q1075 136 1054 100T996 41T909 10T802 0H489L615 435H340Q305 315 275 233T220 109Q203 82 184 60T140 21T84 -3T12 -12ZM662 256L610 78H817Q846 78 874 81T924 96T959 128T973 185Q973 199 968 212T951 234T917 250T864 256H662Z"  />
<glyph unicode="&#x45A;" horiz-adv-x="1168" d="M189 513H288L228 308H593L653 513H752L700 334H887Q941 334 979 324T1042 294T1078 249T1090 190Q1090 136 1069 100T1011 41T924 10T817 0H504L571 230H206L139 0H40L189 513ZM677 256L625 78H832Q861 78 889 81T939 96T974 128T988 185Q988 199 983 212T966 234T932 250T879 256H677Z"  />
<glyph unicode="&#x45B;" horiz-adv-x="769" d="M156 664H232L250 724H349L331 664H444L422 589H309L273 463Q308 490 356 507T468 525Q508 525 546 517T615 489T664 441T683 371Q683 344 674 313L583 0H484L573 306Q580 330 580 352Q580 403 540 425T436 447Q386 447 338 431T250 385L139 0H40L211 589H134L156 664Z"  />
<glyph unicode="&#x45C;" horiz-adv-x="678" d="M187 513H286L224 297H258Q276 297 289 299T314 305T335 315T359 332L601 513H737L463 308Q443 293 422 280T378 258Q398 250 412 238T439 211L600 0H482L340 187Q325 207 304 214T246 222H202L139 0H40L187 513ZM538 746H679L500 588H403L538 746Z"  />
<glyph unicode="&#x45D;" horiz-adv-x="758" d="M493 53Q458 24 409 6T295 -12Q255 -12 217 -4T150 23T103 70T85 140Q85 167 94 200L185 513H284L195 207Q187 178 187 159Q187 109 224 88T324 66Q375 66 422 82T507 127L619 513H718L569 0H493V53ZM331 746H452L515 588H432L331 746Z"  />
<glyph unicode="&#x45E;" horiz-adv-x="642" d="M-67 -223Q-82 -223 -102 -220T-132 -212L-108 -134Q-100 -136 -87 -138T-59 -141Q-26 -141 2 -134T57 -110T109 -70T161 -13L186 18L84 513H183L259 103L572 513H686L262 -25Q224 -73 189 -110T116 -172T34 -210T-67 -223ZM382 581Q318 581 282 612T246 698Q246 722 253 746H321Q318 729 318 714Q318 657 389 657Q440 657 471 680T520 746H590Q567 671 514 626T382 581Z"  />
<glyph unicode="&#x45F;" horiz-adv-x="758" d="M493 53Q464 30 428 14T345 -9L299 -168H210L255 -10Q221 -6 190 4T136 33T99 77T85 140Q85 167 94 200L185 513H284L195 207Q187 178 187 159Q187 109 224 88T324 66Q375 66 422 82T507 127L619 513H718L569 0H493V53Z"  />
<glyph unicode="&#x472;" horiz-adv-x="928" d="M416 -12Q327 -12 264 13T161 79T102 172T83 280Q83 372 116 454T210 599T358 699T551 736Q640 736 703 711T806 645T865 552T884 444Q884 352 851 270T757 125T609 25T416 -12ZM424 70Q493 70 549 90T647 146T717 226T761 321H189Q188 313 188 305T188 289Q188 241 201 201T243 132T317 86T424 70ZM542 654Q473 654 418 634T321 579T250 499T206 405H777Q778 413 778 420T779 435Q779 483 766 523T723 592T650 638T542 654Z"  />
<glyph unicode="&#x473;" horiz-adv-x="771" d="M351 -12Q285 -12 233 6T146 56T92 130T73 220Q73 293 99 350T171 446T281 505T420 525Q486 525 538 507T625 457T679 383T698 293Q698 219 672 163T600 67T490 8T351 -12ZM359 63Q445 63 507 104T589 224H175Q177 149 225 106T359 63ZM412 450Q328 450 267 411T184 298H595Q590 369 542 409T412 450Z"  />
<glyph unicode="&#x490;" horiz-adv-x="662" d="M254 724H671L719 892H813L741 640H331L146 0H44L254 724Z"  />
<glyph unicode="&#x491;" horiz-adv-x="592" d="M612 435H265L139 0H40L189 513H545L597 691H686L612 435Z"  />
<glyph unicode="&#x492;" horiz-adv-x="670" d="M101 400H168L262 724H773L749 640H339L269 400H461L440 325H248L154 0H52L146 325H80L101 400Z"  />
<glyph unicode="&#x493;" horiz-adv-x="597" d="M45 269H123L194 513H640L617 435H270L222 269H371L350 199H201L144 0H45L103 199H24L45 269Z"  />
<glyph unicode="&#x496;" horiz-adv-x="1239" d="M569 325H516Q495 325 480 324T452 318T428 307T402 287L73 0H-72L289 309Q311 327 334 342T383 367Q365 377 352 391T328 424L153 724H266L425 445Q432 433 439 426T457 414T481 409T517 407H592L683 724H786L695 407H747Q768 407 783 408T811 414T835 425T861 445L1180 724H1316L969 424Q949 406 927 391T882 367Q902 357 916 342T942 309L1076 84H1169L1093 -178H999L1051 0H1005L840 287Q833 299 826 306T808 318T784 323T748 325H672L579 0H476L569 325Z"  />
<glyph unicode="&#x497;" horiz-adv-x="1052" d="M799 -168L843 -11Q804 -8 775 10T727 56T699 120T689 197Q689 205 689 213T690 229H563L497 0H406L472 229H352Q341 182 317 139T258 62T175 8T70 -12Q55 -12 40 -11T10 -7T-15 -1T-32 7L-11 79Q-2 74 21 69T70 64Q112 64 149 82T213 134T257 214T274 315Q274 346 268 371T249 415T213 443T158 453Q139 453 121 448T93 438L114 510Q125 515 145 520T192 525Q236 525 268 508T321 463T352 396T363 316Q363 311 363 307T362 299H493L555 513H646L584 299H703Q716 343 740 384T799 456T880 506T982 525Q997 525 1012 524T1042 520T1067 514T1084 506L1063 434Q1054 439 1031 444T982 449Q940 449 903 431T839 379T795 299T778 198Q778 167 783 142T802 98T838 70T894 60Q913 60 931 65T959 75L888 -168H799Z"  />
<glyph unicode="&#x498;" horiz-adv-x="702" d="M130 -178L179 -9Q117 -4 67 9T-14 37L9 118Q55 103 113 89T250 74Q299 74 343 82T420 107T473 150T493 212Q493 267 446 298T305 330H218L241 411H324Q363 411 403 418T476 441T530 485T551 553Q551 580 538 598T504 628T453 645T393 650Q337 650 271 640T145 608L170 693Q223 713 282 724T408 736Q464 736 510 724T589 690T640 637T658 566Q658 487 612 438T488 368Q536 350 568 313T600 217Q600 169 579 129T517 58T415 10T272 -11L224 -178H130Z"  />
<glyph unicode="&#x499;" horiz-adv-x="661" d="M140 -168L185 -9Q154 -7 124 -3T68 8T21 22T-14 39L8 114Q39 99 98 84T237 68Q340 68 398 90T456 154Q456 173 443 185T407 205T354 216T289 219H168L190 295H295Q339 295 376 301T440 318T482 346T497 382Q497 417 458 431T351 446Q320 446 287 443T222 435T161 422T108 406L129 482Q151 492 180 500T240 513T301 522T357 525Q406 525 450 516T528 491T581 449T601 393Q601 364 590 342T559 304T514 275T459 256Q507 243 533 218T559 154Q559 112 536 82T474 31T383 1T274 -11L229 -168H140Z"  />
<glyph unicode="&#x49A;" horiz-adv-x="860" d="M251 724H354L263 407H345Q366 407 380 408T407 414T430 425T455 445L794 724H934L556 416Q537 401 518 388T477 363Q499 353 515 337T546 300L689 84H783L707 -178H613L664 0H624L439 287Q424 311 405 318T346 325H240L147 0H44L251 724Z"  />
<glyph unicode="&#x49B;" horiz-adv-x="696" d="M187 513H286L224 297H258Q276 297 289 299T314 305T335 315T359 332L601 513H737L463 308Q443 293 422 280T378 258Q398 250 412 238T439 211L549 67H638L570 -168H481L529 0H482L340 187Q325 207 304 214T246 222H202L139 0H40L187 513Z"  />
<glyph unicode="&#x49C;" horiz-adv-x="845" d="M251 724H354L263 407H343L379 531H474L438 407Q455 407 466 408T487 414T506 425T527 445L800 724H934L622 416Q605 399 591 387T562 366Q590 348 612 300L745 0H630L511 287Q500 313 480 319T418 325H415L380 204H285L320 325H240L147 0H44L251 724Z"  />
<glyph unicode="&#x49D;" horiz-adv-x="678" d="M187 513H286L224 297H280L311 403H398L368 300Q381 303 391 310T416 332L608 513H737L513 308Q499 295 482 282T444 258Q459 249 470 236T489 211L600 0H489L397 187Q388 204 377 211T346 221L314 110H227L259 222H202L139 0H40L187 513Z"  />
<glyph unicode="&#x4A0;" horiz-adv-x="1044" d="M426 640H142L166 724H553L462 407H544Q565 407 579 408T606 414T629 425T654 445L993 724H1133L755 416Q736 401 717 388T676 363Q698 353 714 337T745 300L944 0H823L638 287Q623 311 604 318T545 325H439L346 0H243L426 640Z"  />
<glyph unicode="&#x4A1;" horiz-adv-x="820" d="M306 435H75L98 513H428L366 297H400Q418 297 431 299T456 305T477 315T501 332L743 513H879L605 308Q585 293 564 280T520 258Q540 250 554 238T581 211L742 0H624L482 187Q467 207 446 214T388 222H344L281 0H182L306 435Z"  />
<glyph unicode="&#x4A2;" horiz-adv-x="937" d="M706 321H239L146 0H44L254 724H356L263 405H730L823 724H925L739 84H860L784 -178H690L742 0H613L706 321Z"  />
<glyph unicode="&#x4A3;" horiz-adv-x="841" d="M598 230H206L139 0H40L189 513H288L228 308H620L680 513H779L652 78H767L695 -170H606L655 0H531L598 230Z"  />
<glyph unicode="&#x4AA;" horiz-adv-x="768" d="M309 -178L357 -10Q292 -3 241 21T155 85T102 175T83 286Q83 381 120 463T224 606T379 701T572 736Q638 736 695 727T793 697L769 615Q723 637 671 644T571 651Q499 651 430 626T307 555T221 443T188 296Q188 231 207 188T259 120T336 83T431 72Q501 72 557 84T647 107L621 20Q591 8 547 0T451 -11L403 -178H309Z"  />
<glyph unicode="&#x4AB;" horiz-adv-x="628" d="M222 -168L267 -7Q222 0 186 19T125 66T87 131T73 210Q73 283 101 341T180 440T299 503T450 525Q495 525 539 516T612 492L589 417Q561 429 520 436T441 444Q386 444 338 430T253 389T196 319T175 222Q175 142 223 104T351 65Q393 65 434 74T513 97L489 17Q468 6 432 -1T356 -11L311 -168H222Z"  />
<glyph unicode="&#x4AE;" horiz-adv-x="777" d="M332 270L139 724H250L398 353L763 724H889L434 273L355 0H254L332 270Z"  />
<glyph unicode="&#x4AF;" horiz-adv-x="642" d="M127 -211L190 5L84 513H183L259 103L572 513H686L289 7L226 -211H127Z"  />
<glyph unicode="&#x4B0;" horiz-adv-x="777" d="M70 237H322L332 270L139 724H250L398 353L763 724H889L434 273L423 237H677L654 156H400L355 0H254L299 156H47L70 237Z"  />
<glyph unicode="&#x4B1;" horiz-adv-x="642" d="M-23 22H186L84 513H183L259 103L572 513H686L300 22H512L490 -56H270L226 -211H127L172 -56H-45L-23 22Z"  />
<glyph unicode="&#x4B2;" horiz-adv-x="813" d="M360 378L171 724H282L429 443L732 724H866L472 368L637 84H731L655 -178H561L613 0H573L404 304L73 0H-60L360 378Z"  />
<glyph unicode="&#x4B3;" horiz-adv-x="677" d="M270 267L113 513H225L338 320L558 513H687L384 256L506 67H590L522 -168H433L481 0H439L315 203L85 0H-44L270 267Z"  />
<glyph unicode="&#x4B6;" horiz-adv-x="831" d="M587 277Q539 261 479 252T359 243Q310 243 270 253T200 285T154 338T138 415Q138 450 152 500L217 724H319L255 503Q249 483 247 465T244 425Q244 377 280 352T394 327Q416 327 443 329T499 335T556 344T610 357L717 724H819L633 84H754L678 -178H584L636 0H507L587 277Z"  />
<glyph unicode="&#x4B7;" horiz-adv-x="765" d="M509 188Q464 171 412 160T298 148Q201 148 147 185T93 301Q93 317 95 334T104 371L145 513H244L204 374Q199 357 197 344T194 317Q194 269 232 248T334 227Q390 227 438 237T532 267L604 513H703L576 78H691L619 -170H530L579 0H455L509 188Z"  />
<glyph unicode="&#x4B8;" horiz-adv-x="806" d="M301 124L335 243Q291 246 255 257T193 290T153 343T138 415Q138 450 152 500L217 724H319L255 503Q249 483 247 465T244 425Q244 340 360 328L395 450H490L455 330Q493 333 534 339T610 357L717 724H819L609 0H507L587 277Q554 266 514 258T431 246L396 124H301Z"  />
<glyph unicode="&#x4B9;" horiz-adv-x="743" d="M245 54L272 149Q187 154 140 191T93 301Q93 317 95 334T104 371L145 513H244L204 374Q199 357 197 344T194 317Q194 276 221 255T295 229L325 333H414L384 229Q425 233 461 242T532 267L604 513H703L554 0H455L509 188Q476 175 440 166T362 151L334 54H245Z"  />
<glyph unicode="&#x4BA;" horiz-adv-x="816" d="M276 447Q324 463 384 472T504 481Q553 481 593 471T663 439T708 386T725 309Q725 274 711 224L646 0H544L608 221Q614 241 616 259T619 299Q619 347 583 372T469 397Q446 397 419 395T364 389T307 380T253 367L146 0H44L254 724H356L276 447Z"  />
<glyph unicode="&#x4BB;" horiz-adv-x="769" d="M250 724H349L273 463Q308 490 356 507T468 525Q508 525 546 517T615 489T664 441T683 371Q683 344 674 313L583 0H484L573 306Q580 330 580 352Q580 403 540 425T436 447Q386 447 338 431T250 385L139 0H40L250 724Z"  />
<glyph unicode="&#x4C1;" horiz-adv-x="1222" d="M569 325H516Q495 325 480 324T452 318T428 307T402 287L73 0H-72L289 309Q311 327 334 342T383 367Q365 377 352 391T328 424L153 724H266L425 445Q432 433 439 426T457 414T481 409T517 407H592L683 724H786L695 407H747Q768 407 783 408T811 414T835 425T861 445L1180 724H1316L969 424Q949 406 927 391T882 367Q902 357 916 342T942 309L1127 0H1005L840 287Q833 299 826 306T808 318T784 323T748 325H672L579 0H476L569 325ZM742 765Q678 765 642 796T606 882Q606 906 613 930H681Q678 913 678 898Q678 841 749 841Q800 841 831 864T880 930H950Q927 855 874 810T742 765Z"  />
<glyph unicode="&#x4C2;" horiz-adv-x="1052" d="M472 229H352Q341 182 317 139T258 62T175 8T70 -12Q55 -12 40 -11T10 -7T-15 -1T-32 7L-11 79Q-2 74 21 69T70 64Q112 64 149 82T213 134T257 214T274 315Q274 346 268 371T249 415T213 443T158 453Q139 453 121 448T93 438L114 510Q125 515 145 520T192 525Q236 525 268 508T321 463T352 396T363 316Q363 311 363 307T362 299H493L555 513H646L584 299H703Q716 343 740 384T799 456T880 506T982 525Q997 525 1012 524T1042 520T1067 514T1084 506L1063 434Q1054 439 1031 444T982 449Q940 449 903 431T839 379T795 299T778 198Q778 167 783 142T802 98T838 70T894 60Q913 60 931 65T959 75L938 3Q927 -2 907 -7T860 -12Q816 -12 784 5T731 50T700 117T689 197Q689 205 689 213T690 229H563L497 0H406L472 229ZM617 581Q553 581 517 612T481 698Q481 722 488 746H556Q553 729 553 714Q553 657 624 657Q675 657 706 680T755 746H825Q802 671 749 626T617 581Z"  />
<glyph unicode="&#x4D8;" horiz-adv-x="890" d="M483 736Q561 736 629 714T747 649T827 543T856 395Q856 312 828 238T743 109T602 21T407 -12Q333 -12 272 9T168 67T100 150T75 251Q75 274 79 310T93 376H751V388Q751 453 732 502T675 584T586 633T469 650Q375 650 303 633T165 583L194 678Q257 708 325 722T483 736ZM418 71Q483 71 536 87T629 133T696 202T739 292H181Q178 277 178 255Q178 218 195 185T244 126T320 86T418 71Z"  />
<glyph unicode="&#x4D9;" horiz-adv-x="727" d="M376 525Q436 525 487 509T575 463T633 388T654 289Q654 225 631 170T565 75T459 11T318 -12Q263 -12 217 3T138 44T85 105T66 179Q66 200 70 227T83 277H554V283Q554 363 504 404T361 445Q296 445 240 434T136 400L160 482Q206 505 258 515T376 525ZM328 64Q413 64 467 101T543 203H162Q161 198 161 194T160 185Q160 159 173 137T209 99T262 73T328 64Z"  />
<glyph unicode="&#x4E2;" horiz-adv-x="960" d="M254 724H354L182 132L856 724H973L763 0H663L835 591L161 0H44L254 724ZM485 881H822L801 806H464L485 881Z"  />
<glyph unicode="&#x4E3;" horiz-adv-x="758" d="M493 53Q458 24 409 6T295 -12Q255 -12 217 -4T150 23T103 70T85 140Q85 167 94 200L185 513H284L195 207Q187 178 187 159Q187 109 224 88T324 66Q375 66 422 82T507 127L619 513H718L569 0H493V53ZM330 697H667L646 622H309L330 697Z"  />
<glyph unicode="&#x4E8;" horiz-adv-x="928" d="M416 -12Q327 -12 264 13T161 79T102 172T83 280Q83 372 116 454T210 599T358 699T551 736Q640 736 703 711T806 645T865 552T884 444Q884 352 851 270T757 125T609 25T416 -12ZM424 70Q493 70 549 90T647 146T717 226T761 321H189Q188 313 188 305T188 289Q188 241 201 201T243 132T317 86T424 70ZM542 654Q473 654 418 634T321 579T250 499T206 405H777Q778 413 778 420T779 435Q779 483 766 523T723 592T650 638T542 654Z"  />
<glyph unicode="&#x4E9;" horiz-adv-x="771" d="M351 -12Q285 -12 233 6T146 56T92 130T73 220Q73 293 99 350T171 446T281 505T420 525Q486 525 538 507T625 457T679 383T698 293Q698 219 672 163T600 67T490 8T351 -12ZM359 63Q445 63 507 104T589 224H175Q177 149 225 106T359 63ZM412 450Q328 450 267 411T184 298H595Q590 369 542 409T412 450Z"  />
<glyph unicode="&#x4EE;" horiz-adv-x="728" d="M140 -12Q108 -12 83 -8T40 4L64 85Q92 74 134 74Q167 74 191 81T237 103T280 140T325 191L131 724H243L399 275L735 724H857L421 155Q356 70 290 29T140 -12ZM356 881H693L672 806H335L356 881Z"  />
<glyph unicode="&#x4EF;" horiz-adv-x="642" d="M-67 -223Q-82 -223 -102 -220T-132 -212L-108 -134Q-100 -136 -87 -138T-59 -141Q-26 -141 2 -134T57 -110T109 -70T161 -13L186 18L84 513H183L259 103L572 513H686L262 -25Q224 -73 189 -110T116 -172T34 -210T-67 -223ZM244 697H581L560 622H223L244 697Z"  />
<glyph unicode="&#xE3F;" horiz-adv-x="800" d="M251 724H486L513 817H594L566 719Q655 706 706 665T758 552Q758 514 745 484T709 431T655 392T585 365Q642 344 675 307T709 215Q709 159 686 119T619 52T509 14T359 0L333 -93H252L278 0H44L251 724ZM605 213Q605 264 566 292T453 326L383 83Q434 85 475 92T545 115T589 154T605 213ZM169 83H302L373 328H239L169 83ZM262 408H396L462 641H329L262 408ZM652 539Q652 584 624 606T542 636L477 410Q517 413 549 421T605 445T640 483T652 539Z"  />
<glyph unicode="&#x1E80;" horiz-adv-x="1337" d="M152 724H254L323 115L735 724H832L894 111L1320 724H1433L920 0H819L754 594L348 0H246L152 724ZM649 930H770L833 772H750L649 930Z"  />
<glyph unicode="&#x1E81;" horiz-adv-x="1027" d="M95 513H193L246 107L527 513H623L669 108L956 513H1069L690 0H598L550 406L271 0H180L95 513ZM450 746H571L634 588H551L450 746Z"  />
<glyph unicode="&#x1E82;" horiz-adv-x="1337" d="M152 724H254L323 115L735 724H832L894 111L1320 724H1433L920 0H819L754 594L348 0H246L152 724ZM877 930H1018L839 772H742L877 930Z"  />
<glyph unicode="&#x1E83;" horiz-adv-x="1027" d="M95 513H193L246 107L527 513H623L669 108L956 513H1069L690 0H598L550 406L271 0H180L95 513ZM678 746H819L640 588H543L678 746Z"  />
<glyph unicode="&#x1E84;" horiz-adv-x="1337" d="M152 724H254L323 115L735 724H832L894 111L1320 724H1433L920 0H819L754 594L348 0H246L152 724ZM643 902H752L722 801H613L643 902ZM897 902H1006L976 801H867L897 902Z"  />
<glyph unicode="&#x1E85;" horiz-adv-x="1027" d="M95 513H193L246 107L527 513H623L669 108L956 513H1069L690 0H598L550 406L271 0H180L95 513ZM444 718H553L523 617H414L444 718ZM698 718H807L777 617H668L698 718Z"  />
<glyph unicode="&#x1EF2;" horiz-adv-x="777" d="M332 270L139 724H250L398 353L763 724H889L434 273L355 0H254L332 270ZM378 930H499L562 772H479L378 930Z"  />
<glyph unicode="&#x1EF3;" horiz-adv-x="642" d="M-67 -223Q-82 -223 -102 -220T-132 -212L-108 -134Q-100 -136 -87 -138T-59 -141Q-26 -141 2 -134T57 -110T109 -70T161 -13L186 18L84 513H183L259 103L572 513H686L262 -25Q224 -73 189 -110T116 -172T34 -210T-67 -223ZM245 746H366L429 588H346L245 746Z"  />
<glyph unicode="&#x2013;" horiz-adv-x="666" d="M65 340H626L602 256H41L65 340Z"  />
<glyph unicode="&#x2014;" horiz-adv-x="967" d="M65 340H927L903 256H41L65 340Z"  />
<glyph unicode="&#x2015;" horiz-adv-x="967" d="M65 340H927L903 256H41L65 340Z"  />
<glyph unicode="&#x2018;" horiz-adv-x="315" d="M282 587V479H202Q179 479 165 488T150 524Q150 553 182 592T272 681L321 724H396L282 587Z"  />
<glyph unicode="&#x2019;" horiz-adv-x="315" d="M226 616V724H306Q329 724 343 715T358 679Q358 650 326 611T236 522L187 479H112L226 616Z"  />
<glyph unicode="&#x201A;" horiz-adv-x="315" d="M48 -10V98H128Q151 98 165 89T180 53Q180 24 148 -15T58 -104L9 -147H-66L48 -10Z"  />
<glyph unicode="&#x201C;" horiz-adv-x="544" d="M282 587V479H202Q179 479 165 488T150 524Q150 553 182 592T272 681L321 724H396L282 587ZM513 587V479H433Q410 479 396 488T381 524Q381 553 413 592T503 681L552 724H627L513 587Z"  />
<glyph unicode="&#x201D;" horiz-adv-x="543" d="M226 616V724H306Q329 724 343 715T358 679Q358 650 326 611T236 522L187 479H112L226 616ZM454 616V724H534Q557 724 571 715T586 679Q586 650 554 611T464 522L415 479H340L454 616Z"  />
<glyph unicode="&#x201E;" horiz-adv-x="543" d="M48 -10V98H128Q151 98 165 89T180 53Q180 24 148 -15T58 -104L9 -147H-66L48 -10ZM276 -10V98H356Q379 98 393 89T408 53Q408 24 376 -15T286 -104L237 -147H162L276 -10Z"  />
<glyph unicode="&#x2020;" horiz-adv-x="575" d="M170 573H328Q329 595 333 620T344 665L361 724H445L428 665Q412 609 391 573H549L529 505H370Q369 483 365 458T355 413L309 257H225L271 413Q279 440 288 463T308 505H150L170 573Z"  />
<glyph unicode="&#x2021;" horiz-adv-x="575" d="M170 573H328Q329 595 333 620T344 665L361 724H445L428 665Q412 609 391 573H549L529 505H379L338 367H489L469 299H310Q309 277 305 252T295 207L278 148H194L211 207Q227 262 248 299H90L110 367H260L301 505H150L170 573Z"  />
<glyph unicode="&#x2022;" horiz-adv-x="566" d="M209 579L510 362L83 145L209 579Z"  />
<glyph unicode="&#x2026;" horiz-adv-x="982" d="M74 122H202L167 0H39L74 122ZM391 122H519L484 0H356L391 122ZM708 122H836L801 0H673L708 122Z"  />
<glyph unicode="&#x2030;" horiz-adv-x="1682" d="M1356 -12Q1317 -12 1285 -1T1230 31T1194 79T1181 140Q1181 191 1201 232T1255 303T1336 347T1433 363Q1472 363 1504 352T1559 320T1595 272T1608 211Q1608 160 1588 119T1533 48T1453 4T1356 -12ZM1366 58Q1397 58 1425 68T1473 98T1506 144T1518 205Q1518 248 1493 270T1423 293Q1391 293 1364 283T1316 253T1283 207T1271 146Q1271 103 1296 81T1366 58ZM320 361Q281 361 249 372T194 404T158 452T145 513Q145 564 165 605T219 676T300 720T397 736Q436 736 468 725T523 693T559 645T572 584Q572 533 552 492T497 421T417 377T320 361ZM330 431Q361 431 389 441T437 471T470 517T482 578Q482 621 457 643T387 666Q355 666 328 656T280 626T247 580T235 519Q235 476 260 454T330 431ZM863 -12Q824 -12 792 -1T737 31T701 79T688 140Q688 191 708 232T762 303T843 347T940 363Q979 363 1011 352T1066 320T1102 272T1115 211Q1115 160 1095 119T1040 48T960 4T863 -12ZM873 58Q904 58 932 68T980 98T1013 144T1025 205Q1025 248 1000 270T930 293Q898 293 871 283T823 253T790 207T778 146Q778 103 803 81T873 58ZM978 724H1093L281 0H165L978 724Z"  />
<glyph unicode="&#x2039;" horiz-adv-x="426" d="M69 300L307 486H410L181 290L302 114H219L69 300Z"  />
<glyph unicode="&#x203A;" horiz-adv-x="426" d="M245 309L124 486H207L357 300L119 114H16L245 309Z"  />
<glyph unicode="&#x2044;" horiz-adv-x="219" d="M527 754H625L-257 -30H-355L527 754Z"  />
<glyph unicode="&#x2070;" horiz-adv-x="490" d="M274 325Q230 325 198 337T144 369T112 416T101 471Q101 522 118 569T168 652T248 710T356 732Q400 732 433 721T487 689T519 643T530 588Q530 537 513 490T463 406T383 347T274 325ZM279 385Q318 385 349 402T402 446T435 509T447 580Q447 620 424 646T353 672Q313 672 282 656T229 612T196 550T184 479Q184 439 207 412T279 385Z"  />
<glyph unicode="&#x2074;" horiz-adv-x="490" d="M329 412H80L96 465L428 724H505L429 471H510L493 412H411L388 333H305L329 412ZM347 471L393 625L195 471H347Z"  />
<glyph unicode="&#x2075;" horiz-adv-x="490" d="M247 325Q199 325 158 333T93 353L110 410Q138 399 172 392T252 385Q318 385 351 402T385 448Q385 470 361 484T302 507T226 519T154 522L225 724H525L508 665H283L251 577Q288 574 327 566T399 544T451 507T472 451Q472 394 414 360T247 325Z"  />
<glyph unicode="&#x2076;" horiz-adv-x="490" d="M299 325Q213 325 163 364T112 477Q112 535 133 582T193 662T286 714T406 732Q444 732 480 726T537 712L519 651Q497 659 467 664T401 670Q328 670 273 638T202 548Q231 567 266 579T346 591Q416 591 458 560T500 478Q500 438 483 409T437 362T373 334T299 325ZM324 531Q289 531 258 523T195 500Q194 495 194 490T194 480Q194 431 222 407T298 382Q318 382 338 386T376 401T404 428T415 469Q415 495 392 513T324 531Z"  />
<glyph unicode="&#x2077;" horiz-adv-x="490" d="M434 665H175L192 724H548L532 671L215 333H124L434 665Z"  />
<glyph unicode="&#x2078;" horiz-adv-x="490" d="M267 325Q174 325 128 355T82 430Q82 453 93 471T122 504T163 527T213 543Q185 555 169 574T153 616Q153 645 169 666T212 702T277 724T358 732Q395 732 425 725T478 704T511 674T523 636Q523 597 496 572T420 534Q449 524 472 505T495 453Q495 429 483 406T443 365T372 336T267 325ZM275 382Q336 382 373 402T410 451Q410 476 384 492T301 509Q240 509 203 490T166 441Q166 416 192 399T275 382ZM327 564Q378 564 409 581T441 624Q441 647 419 661T349 676Q298 676 267 659T235 616Q235 593 257 579T327 564Z"  />
<glyph unicode="&#x2079;" horiz-adv-x="490" d="M230 325Q191 325 157 331T102 345L120 406Q143 398 170 393T233 387Q270 387 303 395T363 420T408 461T433 515Q404 496 368 484T288 472Q218 472 176 502T134 582Q134 622 151 650T197 697T261 723T335 732Q421 732 471 692T522 580Q522 522 501 475T442 395T349 343T230 325ZM310 532Q345 532 376 540T439 562Q440 567 440 577Q440 626 412 650T336 675Q316 675 296 671T258 657T230 631T219 591Q219 565 242 549T310 532Z"  />
<glyph unicode="&#x2080;" horiz-adv-x="490" d="M139 -152Q95 -152 63 -140T9 -108T-23 -61T-34 -6Q-34 45 -17 92T33 175T113 233T221 255Q265 255 298 244T352 212T384 166T395 111Q395 60 378 13T328 -71T248 -130T139 -152ZM144 -92Q183 -92 214 -75T267 -31T300 32T312 103Q312 143 289 169T218 195Q178 195 147 179T94 135T61 73T49 2Q49 -38 72 -65T144 -92Z"  />
<glyph unicode="&#x2081;" horiz-adv-x="490" d="M109 218L242 247H298L197 -85H296L279 -144H-1L16 -85H115L195 178L91 158L109 218Z"  />
<glyph unicode="&#x2082;" horiz-adv-x="490" d="M-17 -91L137 2Q176 25 204 43T251 78T279 111T289 144Q289 170 269 181T203 193Q173 193 139 187T71 170L89 232Q115 242 149 248T218 255Q290 255 331 230T373 152Q373 122 359 97T319 48T258 3T180 -43L104 -85H345L328 -144H-32L-17 -91Z"  />
<glyph unicode="&#x2083;" horiz-adv-x="490" d="M119 -152Q60 -152 22 -143T-39 -124L-23 -66Q2 -75 36 -83T114 -92Q173 -92 209 -74T245 -24Q245 1 222 15T143 29H92L109 87H160Q214 87 246 102T279 151Q279 171 257 182T193 194Q158 194 119 187T48 167L66 227Q94 240 129 247T205 255Q277 255 320 230T363 162Q363 123 337 97T264 56Q329 33 329 -24Q329 -80 274 -116T119 -152Z"  />
<glyph unicode="&#x2084;" horiz-adv-x="490" d="M206 -65H-43L-27 -12L305 247H382L306 -6H387L370 -65H288L265 -144H182L206 -65ZM224 -6L270 148L72 -6H224Z"  />
<glyph unicode="&#x2085;" horiz-adv-x="490" d="M121 -152Q73 -152 32 -144T-33 -124L-16 -67Q12 -78 46 -85T126 -92Q192 -92 225 -75T259 -29Q259 -7 235 7T176 30T100 42T28 45L99 247H399L382 188H157L125 100Q162 97 201 89T273 67T325 30T346 -26Q346 -83 288 -117T121 -152Z"  />
<glyph unicode="&#x2086;" horiz-adv-x="490" d="M167 -152Q81 -152 31 -113T-20 0Q-20 58 1 105T61 185T154 237T274 255Q312 255 348 249T405 235L387 174Q365 182 335 187T269 193Q196 193 141 161T70 71Q99 90 134 102T214 114Q284 114 326 83T368 1Q368 -39 351 -68T305 -115T241 -143T167 -152ZM192 54Q157 54 126 46T63 23Q62 18 62 13T62 3Q62 -46 90 -70T166 -95Q186 -95 206 -91T244 -76T272 -49T283 -8Q283 18 260 36T192 54Z"  />
<glyph unicode="&#x2087;" horiz-adv-x="490" d="M310 188H51L68 247H424L408 194L91 -144H0L310 188Z"  />
<glyph unicode="&#x2088;" horiz-adv-x="490" d="M142 -152Q49 -152 3 -122T-43 -47Q-43 -24 -32 -6T-3 27T38 50T88 66Q60 78 44 97T28 139Q28 168 44 189T87 225T152 247T233 255Q270 255 300 248T353 227T386 197T398 159Q398 120 371 95T295 57Q324 47 347 28T370 -24Q370 -48 358 -71T318 -112T247 -141T142 -152ZM150 -95Q211 -95 248 -75T285 -26Q285 -1 259 15T176 32Q115 32 78 13T41 -36Q41 -61 67 -78T150 -95ZM202 87Q253 87 284 104T316 147Q316 170 294 184T224 199Q173 199 142 182T110 139Q110 116 132 102T202 87Z"  />
<glyph unicode="&#x2089;" horiz-adv-x="490" d="M98 -152Q59 -152 25 -146T-30 -132L-12 -71Q11 -79 38 -84T101 -90Q176 -90 231 -56T301 38Q272 19 236 7T156 -5Q86 -5 44 25T2 105Q2 145 19 173T65 220T129 246T203 255Q289 255 339 215T390 103Q390 45 369 -2T310 -82T217 -134T98 -152ZM178 55Q213 55 244 63T307 85Q308 90 308 100Q308 149 280 173T204 198Q184 198 164 194T126 180T98 154T87 114Q87 88 110 72T178 55Z"  />
<glyph unicode="&#x20A1;" horiz-adv-x="800" d="M213 55Q162 96 136 155T109 286Q109 373 140 449T228 584T360 681T526 731L566 817H650L612 736Q638 735 663 734T711 728L752 817H836L787 710Q795 707 803 704T819 697L795 615Q784 620 773 624T750 632L491 73Q550 76 597 86T673 107L647 20Q613 6 561 -2T451 -12L414 -93H330L369 -8Q319 -1 279 16L228 -93H144L213 55ZM317 99Q356 80 408 74L673 647Q653 649 634 650T597 651Q591 651 585 651T572 650L317 99ZM214 296Q214 247 225 211T256 148L481 634Q426 618 378 588T293 514T235 416T214 296Z"  />
<glyph unicode="&#x20A4;" horiz-adv-x="800" d="M203 485H312L322 519Q337 571 360 611T419 679T502 721T613 736Q653 736 692 729T755 710L732 628Q715 635 682 641T607 648Q565 648 535 641T483 615T445 568T416 495L413 485H679L655 404H390L362 307H628L604 226H338L326 182Q315 144 302 121T270 84H643L619 0H31L53 79H71Q106 79 131 84T175 104T206 143T231 207L236 226H128L152 307H260L288 404H179L203 485Z"  />
<glyph unicode="&#x20A6;" horiz-adv-x="800" d="M104 486H173L242 724H348L432 486H652L721 724H822L753 486H824L801 405H730L703 308H773L750 227H680L615 0H509L428 227H201L136 0H35L100 227H30L53 308H123L150 405H81L104 486ZM224 308H399L365 405H252L224 308ZM496 308H602L629 405H461L496 308ZM274 486H337L305 596H301L274 486ZM556 128L580 227H522L552 128H556Z"  />
<glyph unicode="&#x20A8;" horiz-adv-x="800" d="M215 724H374Q409 724 439 716T491 690T525 646T538 584Q538 539 523 500T482 429T420 378T343 352Q372 336 378 282L391 164Q396 115 422 91T510 67Q581 67 610 87T639 142Q639 174 621 195T578 236Q555 255 534 284T512 358Q512 436 563 478T714 521Q746 521 775 513T817 496L795 423Q780 431 756 436T709 441Q668 441 641 424T613 366Q613 343 625 326T661 287Q674 275 688 262T713 233T732 198T740 157Q740 123 730 93T696 39T630 2T528 -12Q457 -12 413 0T343 33T306 83T292 145L279 277Q275 311 263 322T212 334H200L105 0H8L215 724ZM291 651L220 404H261Q304 404 336 418T390 457T423 510T434 570Q434 612 414 631T347 651H291Z"  />
<glyph unicode="&#x20A9;" horiz-adv-x="800" d="M94 486H141L152 724H243L229 486H366L479 724H577L553 486H690L813 724H912L787 486H834L811 405H744L693 308H783L760 227H651L532 0H428L449 227H331L222 0H118L128 227H20L43 308H132L137 405H71L94 486ZM219 308H281L327 405H225L219 308ZM536 308H598L648 405H545L536 308ZM370 308H456L465 405H416L370 308ZM515 132L558 227H526L511 132H515ZM205 132L245 227H212L201 132H205ZM451 486H475L491 582H487L451 486Z"  />
<glyph unicode="&#x20AA;" horiz-adv-x="800" d="M432 0Q237 0 237 132Q237 164 249 205L351 561H442L335 188Q327 159 327 142Q327 106 353 93T434 79H568L753 724H844L637 0H432ZM220 724H425Q620 724 620 592Q620 559 608 519L506 163H415L522 536Q530 565 530 582Q530 618 504 631T423 645H289L104 0H13L220 724Z"  />
<glyph unicode="&#x20AB;" horiz-adv-x="800" d="M528 678H689L702 724H801L787 678H849L827 602H765L637 160H554L560 207Q518 181 462 165T334 149Q287 149 246 158T175 189T127 242T109 320Q109 380 137 423T211 493T314 532T429 545Q502 545 552 530T634 490L667 602H506L528 678ZM373 226Q427 226 480 239T572 276L616 427Q586 448 540 458T439 468Q403 468 364 462T291 440T235 398T213 332Q213 299 226 279T262 246T314 230T373 226ZM64 81H615L592 0H41L64 81Z"  />
<glyph unicode="&#x20AC;" horiz-adv-x="800" d="M104 495H199Q230 550 275 594T378 670T500 719T638 736Q704 736 761 727T859 697L835 612Q789 634 737 642T637 650Q590 650 543 640T453 610T373 561T308 495H670L647 414H268Q249 363 248 307H627L603 226H252Q262 182 283 153T336 106T406 81T489 73Q559 73 615 86T705 110L679 20Q642 5 584 -3T462 -12Q394 -12 340 6T245 56T179 131T146 226H37L61 307H143Q146 361 163 414H81L104 495Z"  />
<glyph unicode="&#x20AD;" horiz-adv-x="800" d="M98 407H171L263 724H365L271 400L749 724H895L491 453Q470 439 449 428T407 407H749L726 326H378Q392 317 404 307T429 285L715 0H583L251 333L155 0H53L147 326H75L98 407Z"  />
<glyph unicode="&#x20AE;" horiz-adv-x="800" d="M187 724H879L855 640H559L514 482L729 558L701 467L488 392L458 290L674 366L646 275L432 199L374 0H272L318 159L106 85L133 176L345 250L374 352L161 277L188 368L400 442L457 640H163L187 724Z"  />
<glyph unicode="&#x20B1;" horiz-adv-x="800" d="M132 560H224L271 724H470Q591 724 655 681T731 560H838L815 479H728Q725 459 719 441L707 403H793L770 322H673Q650 278 621 247T552 196T458 167T335 158H212L167 0H64L156 322H64L87 403H179L201 479H109L132 560ZM617 441Q620 451 622 460T627 479H304L282 403H605L617 441ZM337 242Q422 242 477 258T567 322H259L236 242H337ZM350 640L327 560H630Q619 602 579 621T451 640H350Z"  />
<glyph unicode="&#x20B2;" horiz-adv-x="800" d="M292 -1Q235 12 194 39T126 105T87 191T74 293Q74 384 107 461T197 596T333 690T503 734L527 817H608L584 735Q649 733 708 724T802 697L778 615Q727 635 669 642T560 651L394 70H412Q466 70 506 79T569 97L642 349H744L653 35Q589 13 526 1T398 -12Q390 -12 384 -12T370 -11L347 -93H266L292 -1ZM179 300Q179 202 216 151T316 82L477 644Q412 633 357 603T263 527T201 424T179 300Z"  />
<glyph unicode="&#x20B4;" horiz-adv-x="800" d="M375 -12Q223 -12 150 34T76 153Q76 192 92 227H41L64 308H155Q188 331 229 347T314 376T403 398T489 415Q456 411 418 408T348 405H92L115 486H630Q671 519 671 568Q671 607 627 627T487 648Q408 648 346 636T229 607L254 696Q304 714 365 725T505 736Q640 736 708 693T777 579Q777 552 770 529T748 486H805L782 405H663Q625 384 581 369T490 342T397 320T309 300Q329 303 355 305T416 308H754L731 227H205Q182 199 182 164Q182 122 233 99T391 76Q465 76 536 87T663 115L638 27Q587 10 520 -1T375 -12Z"  />
<glyph unicode="&#x20B5;" horiz-adv-x="800" d="M352 -5Q294 5 249 30T172 94T125 181T109 286Q109 377 144 456T240 596T384 692T564 735L588 817H669L645 735Q697 732 741 723T819 697L795 615Q754 634 710 641T621 651L455 72H457Q527 72 583 84T673 107L647 20Q610 5 552 -3T431 -12L408 -93H327L352 -5ZM214 296Q214 245 226 208T259 144T310 102T376 79L539 647Q474 638 416 609T312 535T241 430T214 296Z"  />
<glyph unicode="&#x2113;" horiz-adv-x="500" d="M207 -12Q137 -12 102 15T66 96Q66 122 75 154L91 212L4 191L24 257L111 281L187 548Q213 639 259 687T383 736Q448 736 482 703T516 604Q516 538 492 480T425 373T323 290T191 236L167 150Q160 128 160 109Q160 88 173 77T222 65Q251 65 277 70T324 81L302 6Q282 -3 256 -7T207 -12ZM213 310Q268 331 311 367T382 449Q425 520 425 604Q425 633 415 647T380 662Q342 662 318 626T275 525L213 310Z"  />
<glyph unicode="&#x2116;" horiz-adv-x="1515" d="M254 724H357L677 125L851 724H951L741 0H639L318 601L144 0H44L254 724ZM1193 301Q1142 301 1102 316T1035 356T993 416T978 488Q978 547 999 592T1059 668T1150 715T1264 731Q1315 731 1355 716T1422 676T1464 617T1478 545Q1478 486 1457 441T1397 364T1307 317T1193 301ZM1200 361Q1242 361 1278 372T1341 406T1383 462T1399 537Q1399 600 1361 636T1257 672Q1215 672 1179 660T1116 626T1074 570T1058 495Q1058 433 1096 397T1200 361ZM886 187H1419L1399 116H866L886 187Z"  />
<glyph unicode="&#x2117;" horiz-adv-x="918" d="M402 -12Q325 -12 264 11T160 74T95 171T72 293Q72 382 107 462T205 603T356 700T552 736Q629 736 690 713T794 649T859 553T882 431Q882 342 847 262T749 120T598 24T402 -12ZM401 47Q499 47 575 79T703 164T783 285T810 424Q810 479 793 525T743 604T662 657T553 676Q455 676 379 644T251 559T171 439T144 300Q144 245 161 199T211 119T291 66T401 47ZM385 574H539Q618 574 659 543T700 458Q700 425 688 396T649 346T581 313T484 300H382L339 149H263L385 574ZM443 511L400 363H486Q555 363 587 388T619 451Q619 483 599 497T528 511H443Z"  />
<glyph unicode="&#x2122;" horiz-adv-x="1069" d="M600 724H668L762 556Q767 547 770 539T776 520Q790 538 811 556L1000 724H1083L985 385H920L985 609Q991 631 1002 655Q993 643 982 632T961 611L794 465H740L658 611Q649 626 642 649Q640 639 638 629T633 609L568 385H502L600 724ZM181 724H509L493 667H367L285 385H211L293 667H165L181 724Z"  />
<glyph unicode="&#x2126;" horiz-adv-x="1008" d="M32 84H213Q166 121 143 174T119 290Q119 378 152 459T248 601T398 699T597 736Q682 736 743 711T843 645T900 552T918 444Q918 320 860 228T699 84H900L876 0H495L517 79Q590 93 645 129T738 215T793 321T812 435Q812 483 799 523T759 592T689 638T587 654Q494 654 426 621T314 534T247 417T225 289Q225 214 257 160T355 79L333 0H8L32 84Z"  />
<glyph unicode="&#x212E;" horiz-adv-x="960" d="M519 -12Q411 -12 333 17T203 97T127 216T102 362Q102 438 127 506T202 625T329 706T509 736Q615 736 691 707T818 627T892 508T916 362V334H253V149Q295 104 360 78T521 52Q614 52 687 81T804 156L848 114Q797 56 714 22T519 -12ZM509 672Q418 672 356 649T253 584V397H765V588Q725 628 663 650T509 672Z"  />
<glyph unicode="&#x2153;" horiz-adv-x="1199" d="M238 695L371 724H427L326 392H425L408 333H128L145 392H244L324 655L220 635L238 695ZM1017 754H1115L233 -30H135L1017 754ZM881 -8Q822 -8 784 1T723 20L739 78Q764 69 798 61T876 52Q935 52 971 70T1007 120Q1007 145 984 159T905 173H854L871 231H922Q976 231 1008 246T1041 295Q1041 315 1019 326T955 338Q920 338 881 331T810 311L828 371Q856 384 891 391T967 399Q1039 399 1082 374T1125 306Q1125 267 1099 241T1026 200Q1091 177 1091 120Q1091 64 1036 28T881 -8Z"  />
<glyph unicode="&#x2154;" horiz-adv-x="1199" d="M95 386L249 479Q288 502 316 520T363 555T391 588T401 621Q401 647 381 658T315 670Q285 670 251 664T183 647L201 709Q227 719 261 725T330 732Q402 732 443 707T485 629Q485 599 471 574T431 525T370 480T292 434L216 392H457L440 333H80L95 386ZM1017 754H1115L233 -30H135L1017 754ZM881 -8Q822 -8 784 1T723 20L739 78Q764 69 798 61T876 52Q935 52 971 70T1007 120Q1007 145 984 159T905 173H854L871 231H922Q976 231 1008 246T1041 295Q1041 315 1019 326T955 338Q920 338 881 331T810 311L828 371Q856 384 891 391T967 399Q1039 399 1082 374T1125 306Q1125 267 1099 241T1026 200Q1091 177 1091 120Q1091 64 1036 28T881 -8Z"  />
<glyph unicode="&#x2155;" horiz-adv-x="1199" d="M238 695L371 724H427L326 392H425L408 333H128L145 392H244L324 655L220 635L238 695ZM1017 754H1115L233 -30H135L1017 754ZM883 -8Q835 -8 794 0T729 20L746 77Q774 66 808 59T888 52Q954 52 987 69T1021 115Q1021 137 997 151T938 174T862 186T790 189L861 391H1161L1144 332H919L887 244Q924 241 963 233T1035 211T1087 174T1108 118Q1108 61 1050 27T883 -8Z"  />
<glyph unicode="&#x2156;" horiz-adv-x="1199" d="M95 386L249 479Q288 502 316 520T363 555T391 588T401 621Q401 647 381 658T315 670Q285 670 251 664T183 647L201 709Q227 719 261 725T330 732Q402 732 443 707T485 629Q485 599 471 574T431 525T370 480T292 434L216 392H457L440 333H80L95 386ZM1017 754H1115L233 -30H135L1017 754ZM883 -8Q835 -8 794 0T729 20L746 77Q774 66 808 59T888 52Q954 52 987 69T1021 115Q1021 137 997 151T938 174T862 186T790 189L861 391H1161L1144 332H919L887 244Q924 241 963 233T1035 211T1087 174T1108 118Q1108 61 1050 27T883 -8Z"  />
<glyph unicode="&#x2157;" horiz-adv-x="1199" d="M260 325Q201 325 163 334T102 353L118 411Q143 402 177 394T255 385Q314 385 350 403T386 453Q386 478 363 492T284 506H233L250 564H301Q355 564 387 579T420 628Q420 648 398 659T334 671Q299 671 260 664T189 644L207 704Q235 717 270 724T346 732Q418 732 461 707T504 639Q504 600 478 574T405 533Q470 510 470 453Q470 397 415 361T260 325ZM1017 754H1115L233 -30H135L1017 754ZM883 -8Q835 -8 794 0T729 20L746 77Q774 66 808 59T888 52Q954 52 987 69T1021 115Q1021 137 997 151T938 174T862 186T790 189L861 391H1161L1144 332H919L887 244Q924 241 963 233T1035 211T1087 174T1108 118Q1108 61 1050 27T883 -8Z"  />
<glyph unicode="&#x2158;" horiz-adv-x="1199" d="M329 412H80L96 465L428 724H505L429 471H510L493 412H411L388 333H305L329 412ZM347 471L393 625L195 471H347ZM1017 754H1115L233 -30H135L1017 754ZM883 -8Q835 -8 794 0T729 20L746 77Q774 66 808 59T888 52Q954 52 987 69T1021 115Q1021 137 997 151T938 174T862 186T790 189L861 391H1161L1144 332H919L887 244Q924 241 963 233T1035 211T1087 174T1108 118Q1108 61 1050 27T883 -8Z"  />
<glyph unicode="&#x2159;" horiz-adv-x="1199" d="M238 695L371 724H427L326 392H425L408 333H128L145 392H244L324 655L220 635L238 695ZM1017 754H1115L233 -30H135L1017 754ZM929 -8Q843 -8 793 31T742 144Q742 202 763 249T823 329T916 381T1036 399Q1074 399 1110 393T1167 379L1149 318Q1127 326 1097 331T1031 337Q958 337 903 305T832 215Q861 234 896 246T976 258Q1046 258 1088 227T1130 145Q1130 105 1113 76T1067 29T1003 1T929 -8ZM954 198Q919 198 888 190T825 167Q824 162 824 157T824 147Q824 98 852 74T928 49Q948 49 968 53T1006 68T1034 95T1045 136Q1045 162 1022 180T954 198Z"  />
<glyph unicode="&#x215A;" horiz-adv-x="1199" d="M247 325Q199 325 158 333T93 353L110 410Q138 399 172 392T252 385Q318 385 351 402T385 448Q385 470 361 484T302 507T226 519T154 522L225 724H525L508 665H283L251 577Q288 574 327 566T399 544T451 507T472 451Q472 394 414 360T247 325ZM1017 754H1115L233 -30H135L1017 754ZM929 -8Q843 -8 793 31T742 144Q742 202 763 249T823 329T916 381T1036 399Q1074 399 1110 393T1167 379L1149 318Q1127 326 1097 331T1031 337Q958 337 903 305T832 215Q861 234 896 246T976 258Q1046 258 1088 227T1130 145Q1130 105 1113 76T1067 29T1003 1T929 -8ZM954 198Q919 198 888 190T825 167Q824 162 824 157T824 147Q824 98 852 74T928 49Q948 49 968 53T1006 68T1034 95T1045 136Q1045 162 1022 180T954 198Z"  />
<glyph unicode="&#x215B;" horiz-adv-x="1199" d="M238 695L371 724H427L326 392H425L408 333H128L145 392H244L324 655L220 635L238 695ZM1017 754H1115L233 -30H135L1017 754ZM904 -8Q811 -8 765 22T719 97Q719 120 730 138T759 171T800 194T850 210Q822 222 806 241T790 283Q790 312 806 333T849 369T914 391T995 399Q1032 399 1062 392T1115 371T1148 341T1160 303Q1160 264 1133 239T1057 201Q1086 191 1109 172T1132 120Q1132 96 1120 73T1080 32T1009 3T904 -8ZM912 49Q973 49 1010 69T1047 118Q1047 143 1021 159T938 176Q877 176 840 157T803 108Q803 83 829 66T912 49ZM964 231Q1015 231 1046 248T1078 291Q1078 314 1056 328T986 343Q935 343 904 326T872 283Q872 260 894 246T964 231Z"  />
<glyph unicode="&#x215C;" horiz-adv-x="1199" d="M260 325Q201 325 163 334T102 353L118 411Q143 402 177 394T255 385Q314 385 350 403T386 453Q386 478 363 492T284 506H233L250 564H301Q355 564 387 579T420 628Q420 648 398 659T334 671Q299 671 260 664T189 644L207 704Q235 717 270 724T346 732Q418 732 461 707T504 639Q504 600 478 574T405 533Q470 510 470 453Q470 397 415 361T260 325ZM1017 754H1115L233 -30H135L1017 754ZM904 -8Q811 -8 765 22T719 97Q719 120 730 138T759 171T800 194T850 210Q822 222 806 241T790 283Q790 312 806 333T849 369T914 391T995 399Q1032 399 1062 392T1115 371T1148 341T1160 303Q1160 264 1133 239T1057 201Q1086 191 1109 172T1132 120Q1132 96 1120 73T1080 32T1009 3T904 -8ZM912 49Q973 49 1010 69T1047 118Q1047 143 1021 159T938 176Q877 176 840 157T803 108Q803 83 829 66T912 49ZM964 231Q1015 231 1046 248T1078 291Q1078 314 1056 328T986 343Q935 343 904 326T872 283Q872 260 894 246T964 231Z"  />
<glyph unicode="&#x215D;" horiz-adv-x="1199" d="M247 325Q199 325 158 333T93 353L110 410Q138 399 172 392T252 385Q318 385 351 402T385 448Q385 470 361 484T302 507T226 519T154 522L225 724H525L508 665H283L251 577Q288 574 327 566T399 544T451 507T472 451Q472 394 414 360T247 325ZM1017 754H1115L233 -30H135L1017 754ZM904 -8Q811 -8 765 22T719 97Q719 120 730 138T759 171T800 194T850 210Q822 222 806 241T790 283Q790 312 806 333T849 369T914 391T995 399Q1032 399 1062 392T1115 371T1148 341T1160 303Q1160 264 1133 239T1057 201Q1086 191 1109 172T1132 120Q1132 96 1120 73T1080 32T1009 3T904 -8ZM912 49Q973 49 1010 69T1047 118Q1047 143 1021 159T938 176Q877 176 840 157T803 108Q803 83 829 66T912 49ZM964 231Q1015 231 1046 248T1078 291Q1078 314 1056 328T986 343Q935 343 904 326T872 283Q872 260 894 246T964 231Z"  />
<glyph unicode="&#x215E;" horiz-adv-x="1199" d="M434 665H175L192 724H548L532 671L215 333H124L434 665ZM1017 754H1115L233 -30H135L1017 754ZM904 -8Q811 -8 765 22T719 97Q719 120 730 138T759 171T800 194T850 210Q822 222 806 241T790 283Q790 312 806 333T849 369T914 391T995 399Q1032 399 1062 392T1115 371T1148 341T1160 303Q1160 264 1133 239T1057 201Q1086 191 1109 172T1132 120Q1132 96 1120 73T1080 32T1009 3T904 -8ZM912 49Q973 49 1010 69T1047 118Q1047 143 1021 159T938 176Q877 176 840 157T803 108Q803 83 829 66T912 49ZM964 231Q1015 231 1046 248T1078 291Q1078 314 1056 328T986 343Q935 343 904 326T872 283Q872 260 894 246T964 231Z"  />
<glyph unicode="&#x2190;" horiz-adv-x="930" d="M54 362L416 724L475 664L214 402H896V322H214L476 59L416 0L54 362Z"  />
<glyph unicode="&#x2191;" horiz-adv-x="930" d="M138 408L500 770L862 408L804 351L542 612V-72H458V612L195 350L138 408Z"  />
<glyph unicode="&#x2192;" horiz-adv-x="930" d="M44 402H726L464 665L524 724L886 362L524 0L465 60L726 322H44V402Z"  />
<glyph unicode="&#x2193;" horiz-adv-x="930" d="M98 278L156 335L418 74V758H502V74L765 336L822 278L460 -84L98 278Z"  />
<glyph unicode="&#x2196;" horiz-adv-x="930" d="M273 536V164H188V676H700V595H328L813 111L754 54L273 536Z"  />
<glyph unicode="&#x2197;" horiz-adv-x="930" d="M153 111L638 595H266V676H778V164H693V536L212 54L153 111Z"  />
<glyph unicode="&#x2198;" horiz-adv-x="930" d="M266 135H638L153 619L212 676L693 194V566H778V54H266V135Z"  />
<glyph unicode="&#x2199;" horiz-adv-x="930" d="M188 566H273V194L754 676L813 619L328 135H700V54H188V566Z"  />
<glyph unicode="&#x2202;" horiz-adv-x="754" d="M323 -12Q263 -12 214 4T129 50T74 120T55 208Q55 281 83 336T158 427T262 481T381 499Q422 499 453 495T507 482T548 464T578 442Q542 529 474 586T309 684L343 744Q409 723 470 686T579 594T656 469T685 311Q685 233 660 173T588 72T474 9T323 -12ZM332 62Q384 62 429 74T509 113T562 178T581 270Q581 348 533 386T403 425Q350 425 305 413T226 374T173 309T154 217Q154 178 168 149T206 101T262 72T332 62Z"  />
<glyph unicode="&#x2206;" horiz-adv-x="865" d="M6 79L511 724H620L751 79L729 0H-16L6 79ZM127 84H646L540 616L127 84Z"  />
<glyph unicode="&#x220F;" horiz-adv-x="872" d="M739 640H326L81 -211H-19L251 724H864L594 -211H494L739 640Z"  />
<glyph unicode="&#x2211;" horiz-adv-x="770" d="M-26 -132L509 268L196 645L219 724H823L799 640H311L602 291L580 212L124 -127H579L555 -211H-49L-26 -132Z"  />
<glyph unicode="&#x2212;" horiz-adv-x="742" d="M85 339H681L657 261H61L85 339Z"  />
<glyph unicode="&#x221A;" horiz-adv-x="668" d="M120 435H-8L14 513H206L259 117L702 724H813L275 0H186L120 435Z"  />
<glyph unicode="&#x221E;" horiz-adv-x="1114" d="M227 89Q192 89 162 99T110 129T74 176T61 237Q61 288 80 337T133 425T216 487T321 511Q384 511 431 483T528 402L576 351L659 405Q698 430 730 450T790 483T847 504T906 511Q940 511 970 501T1023 471T1059 424T1072 363Q1072 312 1053 263T999 175T917 113T812 89Q749 89 702 118T605 199L557 250L474 195Q435 169 403 150T343 117T286 96T227 89ZM245 168Q280 168 327 192T429 252L509 304L468 348Q436 383 396 407T321 432Q285 432 254 417T200 377T164 319T151 249Q151 207 176 188T245 168ZM624 296L665 253Q681 236 699 221T737 194T775 175T812 168Q848 168 879 183T933 223T969 281T982 351Q982 393 957 412T888 432Q853 432 806 408T704 348L624 296Z"  />
<glyph unicode="&#x222B;" horiz-adv-x="361" d="M-135 -223Q-159 -223 -183 -219T-218 -211L-197 -137Q-183 -141 -169 -143T-140 -145Q-104 -145 -78 -136T-34 -106T-2 -56T24 16L170 517Q186 574 207 615T258 683T328 723T424 736Q448 736 472 732T507 724L486 650Q472 654 458 656T429 658Q393 658 367 649T322 619T289 569T263 497L117 -4Q100 -61 80 -102T30 -170T-40 -210T-135 -223Z"  />
<glyph unicode="&#x2248;" horiz-adv-x="742" d="M477 119Q439 119 403 132T332 160T264 189T201 202Q169 202 148 182T121 129H46Q59 196 97 239T206 283Q244 283 280 270T351 242T419 213T482 200Q514 200 535 220T562 273H637Q624 206 586 163T477 119ZM536 319Q498 319 462 332T391 360T323 389T260 402Q228 402 209 384T180 329H105Q118 396 156 439T265 483Q303 483 339 470T410 442T478 413T541 400Q573 400 592 418T621 473H696Q683 406 645 363T536 319Z"  />
<glyph unicode="&#x2260;" horiz-adv-x="742" d="M157 439H465L609 579H710L566 439H703L680 361H486L360 239H645L623 161H280L132 17H32L180 161H77L100 239H260L385 361H135L157 439Z"  />
<glyph unicode="&#x2264;" horiz-adv-x="742" d="M137 408L562 660H712L274 399L563 147H436L137 408ZM30 78H544L522 0H8L30 78Z"  />
<glyph unicode="&#x2265;" horiz-adv-x="742" d="M519 407L231 660H358L657 399L232 147H82L519 407ZM62 78H576L554 0H40L62 78Z"  />
<glyph unicode="&#x2300;" horiz-adv-x="716" d="M89 114L154 179Q125 217 108 263T91 362Q91 423 114 476T177 570T270 633T385 656Q437 656 483 639T567 592L633 658L681 610L615 544Q645 506 662 460T679 362Q679 301 656 248T593 154T500 91T385 68Q333 68 287 85T202 131L137 66L89 114ZM164 362Q164 325 175 292T206 231L515 540Q488 560 455 571T385 583Q339 583 299 566T229 518T182 448T164 362ZM385 141Q431 141 471 158T541 206T588 276T606 362Q606 399 595 432T563 492L254 183Q282 163 315 152T385 141Z"  />
<glyph unicode="&#x25AA;" horiz-adv-x="467" d="M170 383H343L295 218H123L170 383Z"  />
<glyph unicode="&#x25BA;" horiz-adv-x="566" d="M140 579L516 362L140 145V579Z"  />
<glyph unicode="&#x25C0;" horiz-adv-x="566" d="M90 362L466 579V145L90 362Z"  />
<glyph unicode="&#x25C6;" horiz-adv-x="566" d="M65 362L303 600L541 362L303 124L65 362Z"  />
<glyph unicode="&#x25CA;" horiz-adv-x="918" d="M84 362L528 724H616L850 362L408 0H318L84 362ZM731 371L556 646L197 352L374 78L731 371Z"  />
<glyph unicode="&#x5143;" horiz-adv-x="1000" d="M80 513H929V429H646V92Q646 75 650 65T665 48T694 40T739 38Q800 38 824 52T848 107V177L940 158V101Q940 60 930 33T897 -12T834 -36T737 -43Q683 -43 647 -37T588 -16T555 24T545 86V429H406Q401 345 378 270T317 133T227 22T109 -59L57 8Q172 78 233 179T303 429H80V513ZM192 724H824V640H192V724Z"  />
<glyph unicode="&#x5186;" horiz-adv-x="1000" d="M155 724H919L918 95Q918 54 908 28T875 -14T817 -36T731 -43H700L680 40H729Q779 40 797 53T815 100V271H258V-43H155V724ZM258 352H490V640H258V352ZM584 352H815V640H584V352Z"  />
<glyph unicode="&#xF62F;" horiz-adv-x="800" d="M183 -223Q111 -223 57 -210T-22 -182L0 -104Q27 -116 58 -125T129 -135Q159 -135 186 -127T236 -102T271 -62T284 -8Q284 19 275 49T257 106L201 259Q171 340 171 409Q171 490 202 551T290 654T431 715T619 736Q649 736 679 733T737 726T786 715T822 703L798 620Q781 631 751 639T688 648Q656 648 627 640T575 615T539 575T526 521Q526 494 535 464T553 407L609 254Q639 173 639 104Q639 23 608 -38T519 -141T376 -202T183 -223ZM384 10Q384 -41 366 -80T305 -148Q354 -136 397 -117T471 -68T521 0T539 93Q539 120 534 152T518 216L462 369Q450 401 438 435T426 503Q426 554 444 593T504 661Q455 649 413 630T339 581T289 512T271 420Q271 393 276 361T292 297L348 144Q359 112 371 78T384 10Z"  />
<glyph unicode="&#xF630;" horiz-adv-x="848" d="M366 -12Q293 -12 239 8T150 64T98 145T80 244Q80 340 112 428T203 585T348 695T541 736Q614 736 668 716T757 660T809 579T827 480Q827 384 795 296T704 139T559 29T366 -12ZM369 67Q444 67 508 102T620 195T694 326T721 474Q721 510 710 543T676 602T619 642T538 657Q463 657 399 622T287 529T213 398T186 250Q186 214 197 181T231 122T288 82T369 67Z"  />
<glyph unicode="&#xF631;" horiz-adv-x="500" d="M160 669L398 724H463L253 0H151L333 625L135 583L160 669Z"  />
<glyph unicode="&#xF632;" horiz-adv-x="800" d="M48 79L312 248Q382 293 441 333T543 410T610 482T634 553Q634 602 595 625T468 649Q403 649 342 637T220 604L246 692Q293 711 354 723T486 736Q614 736 677 690T741 563Q741 518 722 476T659 390T545 296T375 186L206 84H666L642 0H26L48 79Z"  />
<glyph unicode="&#xF633;" horiz-adv-x="800" d="M315 -12Q233 -12 166 3T59 37L82 118Q128 103 186 89T323 74Q372 74 416 82T493 107T546 150T566 212Q566 267 519 298T378 330H291L314 411H397Q436 411 476 418T549 441T603 485T624 553Q624 580 611 598T577 628T526 645T466 650Q410 650 344 640T218 608L243 693Q296 713 355 724T481 736Q537 736 583 724T662 690T713 637T731 566Q731 487 685 438T561 368Q609 350 641 313T673 217Q673 167 650 125T582 53T470 5T315 -12Z"  />
<glyph unicode="&#xF634;" horiz-adv-x="778" d="M476 160H-2L22 242L632 724H741L601 242H756L733 160H577L531 0H430L476 160ZM499 242L602 597L151 242H499Z"  />
<glyph unicode="&#xF635;" horiz-adv-x="800" d="M294 -12Q259 -12 223 -9T153 1T91 16T43 33L67 115Q109 99 171 87T302 74Q434 74 504 111T575 206Q575 253 534 282T430 329T297 352T166 358L289 724H793L769 640H362L293 435Q365 431 435 417T562 378T654 314T689 222Q689 110 587 49T294 -12Z"  />
<glyph unicode="&#xF636;" horiz-adv-x="793" d="M363 -12Q296 -12 242 6T149 57T89 137T68 244Q68 356 105 447T208 602T366 701T570 736Q636 736 691 728T782 707L757 623Q719 634 671 641T562 648Q492 648 433 630T326 579T244 497T192 389Q245 424 308 443T450 463Q510 463 558 447T641 403T693 337T712 256Q712 188 683 138T605 54T493 5T363 -12ZM427 382Q354 382 293 365T177 317Q175 302 174 287T173 254Q173 204 188 169T230 111T293 78T371 67Q413 67 454 76T529 107T584 163T605 246Q605 308 558 345T427 382Z"  />
<glyph unicode="&#xF637;" horiz-adv-x="705" d="M660 640H183L207 724H811L788 645L200 0H77L660 640Z"  />
<glyph unicode="&#xF638;" horiz-adv-x="906" d="M390 -12Q309 -12 250 3T153 45T96 105T77 179Q77 231 101 267T160 329T236 368T309 389Q263 408 236 440T208 519Q208 571 234 611T306 679T416 721T556 736Q618 736 668 723T753 686T808 632T828 566Q828 485 779 437T643 368Q665 358 687 345T727 313T756 270T767 216Q767 169 743 128T671 55T553 6T390 -12ZM397 67Q456 67 504 78T587 110T641 156T660 213Q660 239 647 262T608 301T542 327T447 337Q388 337 340 326T257 295T203 249T184 193Q184 167 196 144T235 104T302 77T397 67ZM496 412Q546 412 587 422T658 450T704 492T721 543Q721 591 677 624T540 657Q490 657 449 647T378 618T332 576T315 525Q315 477 359 445T496 412Z"  />
<glyph unicode="&#xF639;" horiz-adv-x="793" d="M283 -12Q217 -12 162 -4T71 17L96 100Q134 89 182 82T291 75Q364 75 425 94T533 149T613 236T661 352Q607 315 543 295T397 275Q337 275 289 291T206 334T154 397T135 475Q135 541 164 590T242 672T354 720T484 736Q551 736 605 718T698 667T758 587T779 480Q779 368 743 277T642 122T486 23T283 -12ZM420 356Q493 356 554 373T672 421Q673 433 673 445T674 470Q674 519 659 554T617 613T554 646T476 657Q434 657 393 648T318 619T263 566T242 485Q242 426 289 391T420 356Z"  />
<glyph unicode="&#xF8FF;" horiz-adv-x="2282" d="M436 -11Q359 -11 291 18T173 97T93 216T64 361Q64 439 93 507T172 625T291 705T436 734Q503 734 563 712T671 651Q719 690 779 712T906 734Q974 734 1033 712T1141 651Q1190 690 1249 712T1376 734Q1443 734 1502 712T1611 651Q1659 690 1718 712T1846 734Q1923 734 1990 705T2108 626T2188 507T2218 361Q2218 284 2189 216T2109 98T1991 18T1846 -11Q1778 -11 1719 11T1611 72Q1562 33 1503 11T1376 -11Q1309 -11 1250 11T1141 72Q1093 33 1034 11T906 -11Q839 -11 779 11T671 72Q623 33 563 11T436 -11ZM906 73Q956 73 1000 88T1082 133Q1044 181 1024 238T1003 361Q1003 427 1023 484T1082 590Q1045 619 1001 634T906 650Q856 650 812 635T731 590Q768 542 788 485T809 361Q809 296 789 239T731 133Q768 104 812 89T906 73ZM1376 73Q1426 73 1470 88T1552 133Q1514 181 1494 238T1473 361Q1473 427 1493 484T1552 590Q1515 619 1471 634T1376 650Q1326 650 1282 635T1200 590Q1238 542 1258 485T1279 361Q1279 296 1259 239T1200 133Q1237 104 1281 89T1376 73ZM436 73Q487 73 531 88T612 133Q575 181 555 238T534 361Q534 427 554 484T612 590Q576 619 532 634T436 650Q376 650 324 628T232 566T171 474T148 361Q148 301 170 249T232 157T323 96T436 73ZM1846 73Q1906 73 1958 95T2050 157T2111 248T2134 361Q2134 421 2112 473T2050 565T1959 627T1846 650Q1796 650 1752 635T1670 590Q1708 542 1728 485T1749 361Q1749 296 1729 239T1670 133Q1707 104 1751 89T1846 73ZM671 194Q697 229 711 271T725 361Q725 409 711 451T671 529Q645 494 632 452T618 361Q618 314 631 272T671 194ZM1141 194Q1167 229 1181 271T1195 361Q1195 409 1181 451T1141 529Q1115 494 1101 452T1087 361Q1087 314 1101 272T1141 194ZM1611 194Q1636 229 1650 271T1665 361Q1665 409 1651 451T1611 529Q1585 494 1571 452T1557 361Q1557 314 1571 272T1611 194Z"  />
<glyph unicode="&#xFB00;" horiz-adv-x="977" d="M97 500L242 512L252 547Q279 640 343 688T518 736Q563 736 597 729T654 713L633 641Q608 649 578 654T511 659Q440 659 402 628T346 537L339 513H705L715 547Q742 640 806 688T981 736Q1026 736 1060 729T1117 713L1096 641Q1071 649 1041 654T974 659Q903 659 865 628T809 537L802 513H1009L986 435H779L592 -211H495L682 435H316L129 -211H32L219 435H78L97 500Z"  />
<glyph unicode="&#xFB01;" horiz-adv-x="842" d="M97 500L242 512L252 547Q279 640 343 688T518 736Q563 736 597 729T654 713L633 641Q608 649 578 654T511 659Q440 659 402 628T346 537L339 513H802L653 0H554L680 435H316L129 -211H32L219 435H78L97 500ZM764 724H863L832 615H733L764 724Z"  />
<glyph unicode="&#xFB02;" horiz-adv-x="903" d="M97 500L242 512L252 547Q279 640 343 688T518 736Q563 736 597 729T654 713L633 641Q608 649 578 654T511 659Q440 659 402 628T346 537L339 513H546L523 435H316L129 -211H32L219 435H78L97 500ZM688 -12Q633 -12 606 13T579 82Q579 94 580 107T587 134L758 724H856L684 131Q679 113 679 103Q679 68 727 68Q750 68 769 71T806 79L785 4Q768 -3 745 -7T688 -12Z"  />
<glyph unicode="&#xFB03;" horiz-adv-x="1305" d="M97 500L242 512L252 547Q279 640 343 688T518 736Q563 736 597 729T654 713L633 641Q608 649 578 654T511 659Q440 659 402 628T346 537L339 513H705L715 547Q742 640 806 688T981 736Q1026 736 1060 729T1117 713L1096 641Q1071 649 1041 654T974 659Q903 659 865 628T809 537L802 513H1265L1116 0H1017L1143 435H779L592 -211H495L682 435H316L129 -211H32L219 435H78L97 500ZM1227 724H1326L1295 615H1196L1227 724Z"  />
<glyph unicode="&#xFB04;" horiz-adv-x="1366" d="M129 -211H32L219 435H78L97 500L242 512L252 547Q279 640 343 688T518 736Q563 736 597 729T654 713L633 641Q608 649 578 654T511 659Q440 659 402 628T346 537L339 513H705L715 547Q742 640 806 688T981 736Q1026 736 1060 729T1117 713L1096 641Q1071 649 1041 654T974 659Q903 659 865 628T809 537L802 513H1009L986 435H779L592 -211H495L682 435H316L129 -211ZM1151 -12Q1096 -12 1069 13T1042 82Q1042 94 1043 107T1050 134L1221 724H1319L1147 131Q1142 113 1142 103Q1142 68 1190 68Q1213 68 1232 71T1269 79L1248 4Q1231 -3 1208 -7T1151 -12Z"  />

</font>
</defs>
</svg>
