<?xml  version="1.0" encoding="UTF-8"?>
<!DOCTYPE svg PUBLIC "-//W3C//DTD SVG 1.0//EN" "http://www.w3.org/TR/2001/REC-SVG-20010904/DTD/svg10.dtd" >
<svg xmlns="http://www.w3.org/2000/svg" >
<metadata>
<version>1.0</version>
<id><![CDATA[Audi Type Extended Normal]]></id>
<vendor>Monotype Imaging Inc.</vendor>
<credits>
<name>Fonts.com WebFonts</name>
<URL>http://webfonts.fonts.com</URL>
<role>Home of the Web fonts</role>
</credits>
<license>
<URL>http://webfonts.fonts.com/Legal</URL>
</license>
<copyright><![CDATA[Designed by Paul van der Laan & Pieter van Rosmalen 2008. Produced by Bold Monday. For exclusive use by AUDI AG and its affiliates only.]]></copyright>
<trademark><![CDATA[Audi Type is a trademark of AUDI AG]]></trademark>
<licensee>
<name></name>
</licensee>
</metadata>
<defs >
<font horiz-adv-x="3078" id="df225f05-983e-45f5-8881-258cfe73b15f">
<font-face font-family="" panose-1="2 11 5 5 4 2 0 0 0 3" ascent="4014" descent="-983" units-per-em="4096" alphabetic="0">
</font-face>
<missing-glyph horiz-adv-x="1487" d="M340 -864V2966H1155V-864H340Z"  />

<glyph unicode="&#xA;" />
<glyph unicode="&#xD;" horiz-adv-x="1356" />
<glyph unicode=" " horiz-adv-x="1356" />
<glyph unicode="!" horiz-adv-x="1647" d="M721 815L676 1245Q671 1293 664 1359T649 1504T634 1667T620 1837T610 2005T606 2159V2966H1044V2159Q1044 2087 1041 2005T1031 1838T1017 1667T1002 1504T987 1360T975 1245L930 815H721ZM573 0V500H1073V0H573Z"  />
<glyph unicode="&quot;" horiz-adv-x="2089" d="M504 1925L459 2114Q453 2144 442 2193T420 2297T401 2410T393 2515V2966H811V2515Q811 2467 803 2410T785 2298T763 2193T745 2114L700 1925H504ZM1389 1925L1344 2114Q1338 2144 1327 2193T1305 2297T1286 2410T1278 2515V2966H1696V2515Q1696 2467 1688 2410T1670 2298T1648 2193T1630 2114L1585 1925H1389Z"  />
<glyph unicode="#" horiz-adv-x="3277" d="M1905 184L1958 766H1180L1126 184H799L852 766H467V1061H881L954 1868H467V2163H983L1036 2716H1364L1311 2163H2089L2142 2716H2470L2417 2163H2806V1868H2388L2314 1061H2806V766H2286L2232 184H1905ZM2060 1868H1282L1208 1061H1987L2060 1868Z"  />
<glyph unicode="$" horiz-adv-x="3277" d="M1430 -381V106Q1272 109 1130 122T864 156T636 201T451 254V569Q504 553 575 536T729 503T903 473T1090 449T1280 432T1466 426Q1687 426 1862 456T2158 541T2344 669T2408 831Q2408 892 2388 944T2325 1041T2217 1125T2061 1200T1855 1270T1597 1339Q1293 1414 1082 1494T738 1671T547 1891T487 2175Q487 2308 544 2425T719 2633T1013 2786T1430 2871V3346H1761V2888Q1902 2886 2032 2875T2277 2843T2490 2796T2666 2736V2417Q2582 2448 2477 2475T2253 2523T2001 2556T1729 2568Q1526 2568 1372 2540T1114 2460T958 2337T905 2179Q905 2117 924 2066T986 1969T1092 1885T1247 1810T1454 1740T1716 1671Q2005 1602 2214 1524T2560 1346T2761 1122T2826 836Q2826 701 2755 580T2549 363T2215 203T1761 115V-381H1430Z"  />
<glyph unicode="%" horiz-adv-x="5071" d="M1221 1479Q1026 1479 871 1533T608 1688T443 1930T385 2245Q385 2420 445 2562T615 2805T879 2960T1221 3015Q1416 3015 1571 2961T1833 2806T1998 2563T2056 2245Q2056 2129 2029 2028T1951 1841T1826 1689T1659 1575T1456 1504T1221 1479ZM1221 1765Q1339 1765 1428 1797T1576 1891T1666 2042T1696 2245Q1696 2360 1666 2450T1577 2601T1428 2695T1221 2728Q1102 2728 1013 2696T865 2602T775 2450T745 2245Q745 2131 775 2042T864 1892T1013 1798T1221 1765ZM3850 -49Q3655 -49 3500 5T3238 160T3073 402T3015 717Q3015 892 3075 1034T3245 1277T3509 1432T3850 1487Q4045 1487 4200 1433T4463 1278T4628 1035T4686 717Q4686 543 4626 402T4456 161T4192 6T3850 -49ZM3850 238Q3968 238 4057 270T4206 363T4295 514T4325 717Q4325 832 4295 922T4206 1073T4058 1167T3850 1200Q3732 1200 3643 1168T3495 1074T3405 922T3375 717Q3375 603 3405 514T3494 364T3643 270T3850 238ZM1016 0L3600 2966H4051L1466 0H1016Z"  />
<glyph unicode="&amp;" horiz-adv-x="3977" d="M3207 0L2781 336Q2652 242 2507 170T2206 50T1886 -24T1556 -49Q1353 -49 1179 -25T860 46T605 161T417 319T302 516T262 750Q262 858 294 952T385 1128T523 1280T700 1413T904 1528T1126 1630L1135 1634L1081 1679Q986 1754 902 1832T754 1994T655 2167T618 2355Q618 2463 647 2554T732 2719T869 2847T1056 2940T1287 2996T1561 3015Q1783 3015 1957 2975T2252 2853T2436 2647T2499 2355Q2499 2224 2441 2113T2283 1908T2053 1734T1778 1589L1753 1577L2773 778Q2856 872 2920 981T3029 1212T3097 1467T3121 1741V1860H3830V1540H3490Q3473 1393 3435 1258T3339 1001T3209 769T3047 565L3772 0H3207ZM1409 1417L1315 1376Q1183 1316 1069 1253T870 1116T737 956T688 766Q688 668 738 581T895 428T1165 325T1556 287Q1694 287 1824 303T2075 353T2303 435T2507 549L1409 1417ZM1593 1827Q1711 1878 1804 1935T1961 2057T2059 2193T2093 2343Q2093 2441 2049 2508T1932 2617T1762 2677T1561 2695Q1456 2695 1360 2677T1190 2618T1072 2509T1028 2343Q1028 2300 1044 2251T1096 2149T1187 2039T1319 1921L1491 1782L1593 1827Z"  />
<glyph unicode="&apos;" horiz-adv-x="1204" d="M504 1925L459 2114Q453 2144 442 2193T420 2297T401 2410T393 2515V2966H811V2515Q811 2467 803 2410T785 2298T763 2193T745 2114L700 1925H504Z"  />
<glyph unicode="(" horiz-adv-x="1847" d="M1323 -377Q1202 -295 1091 -188T882 49T706 327T570 643T482 990T451 1364Q451 1556 482 1737T569 2085T705 2400T882 2679T1090 2915T1323 3105H1708Q1595 3014 1490 2903T1292 2662T1124 2385T992 2075T907 1734T877 1364Q877 1172 907 994T992 652T1123 342T1292 66T1489 -175T1708 -377H1323Z"  />
<glyph unicode=")" horiz-adv-x="1847" d="M139 -377Q252 -286 357 -175T555 65T724 341T855 651T940 993T971 1364Q971 1555 941 1733T856 2075T725 2385T556 2661T358 2902T139 3105H524Q645 3023 756 2916T965 2679T1142 2401T1278 2085T1366 1738T1397 1364Q1397 1172 1366 991T1279 643T1142 328T965 49T757 -187T524 -377H139Z"  />
<glyph unicode="*" horiz-adv-x="2212" d="M1348 1626L1208 1868Q1193 1892 1179 1922T1151 1984T1127 2050T1106 2114Q1095 2083 1083 2050T1058 1985T1031 1922T1004 1868L864 1626L623 1761L762 2007Q790 2057 834 2113T922 2216Q857 2204 788 2194T659 2183H319V2462H659Q718 2462 787 2452T922 2429Q878 2475 834 2531T762 2638L623 2884L864 3019L1004 2777Q1017 2753 1031 2723T1058 2661T1083 2595T1106 2531Q1115 2562 1126 2595T1151 2660T1178 2723T1208 2777L1348 3019L1589 2884L1450 2638Q1435 2613 1416 2586T1375 2531T1332 2476T1290 2425Q1321 2432 1355 2439T1423 2451T1490 2459T1552 2462H1892V2183H1552Q1523 2183 1490 2185T1423 2191T1355 2202T1290 2216Q1330 2166 1374 2112T1450 2007L1589 1761L1348 1626Z"  />
<glyph unicode="+" horiz-adv-x="3039" d="M1339 160V1069H262V1389H1339V2261H1700V1389H2777V1069H1700V160H1339Z"  />
<glyph unicode="&#x2c;" horiz-adv-x="1450" d="M139 -594L514 5L422 500H844Q899 500 936 489T997 455T1030 395T1040 307Q1040 253 1028 198T991 86T931 -30T849 -152T747 -281T627 -418L463 -594H139Z"  />
<glyph unicode="-" horiz-adv-x="1958" d="M270 1036V1421H1688V1036H270Z"  />
<glyph unicode="." horiz-adv-x="1450" d="M475 0V500H975V0H475Z"  />
<glyph unicode="/" horiz-adv-x="2208" d="M66 0L1753 2966H2142L459 0H66Z"  />
<glyph unicode="0" horiz-adv-x="3277" d="M1638 -49Q1379 -49 1177 4T821 156T562 393T389 702T292 1071T262 1487Q262 1699 293 1894T393 2260T569 2569T830 2807T1183 2960T1638 3015Q1897 3015 2100 2962T2456 2810T2715 2573T2888 2263T2985 1894T3015 1479Q3015 1267 2984 1072T2884 706T2708 397T2447 159T2093 6T1638 -49ZM1638 274Q1816 274 1956 317T2201 438T2381 626T2501 871T2568 1160T2589 1483Q2589 1650 2568 1804T2501 2092T2381 2337T2202 2526T1956 2648T1638 2691Q1460 2691 1321 2648T1076 2527T896 2339T776 2095T709 1806T688 1483Q688 1316 709 1162T776 873T896 628T1075 439T1320 317T1638 274Z"  />
<glyph unicode="1" horiz-adv-x="3277" d="M696 0V344H1495V2568L705 2392V2740L1642 2966H1917V344H2716V0H696Z"  />
<glyph unicode="2" horiz-adv-x="3277" d="M410 0V324L1290 1028Q1459 1163 1599 1275T1850 1485T2043 1668T2181 1837T2263 2003T2290 2179Q2290 2293 2244 2381T2108 2530T1884 2622T1573 2654Q1412 2654 1271 2641T1002 2603T759 2545T532 2470V2834Q621 2873 735 2906T983 2963T1267 3001T1581 3015Q1778 3015 1938 2989T2225 2912T2445 2790T2599 2626T2690 2424T2720 2187Q2720 2071 2689 1964T2596 1752T2440 1539T2220 1315T1935 1071T1585 795L999 344H2933V0H410Z"  />
<glyph unicode="3" horiz-adv-x="3277" d="M467 471Q568 440 681 412T923 361T1194 325T1499 311Q1680 311 1839 342T2116 435T2303 591T2372 811Q2372 935 2314 1037T2140 1212T1855 1324T1462 1364H1106V1704H1462Q1639 1704 1780 1734T2021 1825T2174 1982T2228 2208Q2228 2286 2201 2349T2124 2463T2007 2551T1857 2613T1682 2650T1491 2662Q1377 2662 1254 2653T1005 2623T757 2571T524 2494V2843Q589 2870 660 2893T810 2936T970 2970T1139 2995T1313 3010T1491 3015Q1758 3015 1974 2963T2342 2809T2576 2560T2658 2224Q2658 2110 2625 2010T2530 1823T2379 1668T2175 1548Q2322 1500 2438 1425T2636 1253T2759 1040T2802 795Q2802 670 2761 559T2642 354T2451 186T2192 59T1870 -21T1491 -49Q1323 -49 1178 -37T907 -3T671 49T467 115V471Z"  />
<glyph unicode="4" horiz-adv-x="3277" d="M2068 0V655H233L229 991L2064 2966H2490V999H3084V655H2490V0H2068ZM2068 1962Q2068 2083 2068 2201T2068 2441Q1985 2351 1901 2261T1733 2081L729 999H2068V1962Z"  />
<glyph unicode="5" horiz-adv-x="3277" d="M446 471Q548 440 666 412T915 361T1188 325T1479 311Q1726 311 1902 349T2190 457T2355 624T2408 840Q2408 943 2353 1024T2204 1168T1982 1277T1709 1355T1409 1409T1104 1442T815 1459T565 1466L639 2966H2703V2621H1020L979 1810Q1144 1802 1312 1786T1644 1742T1960 1676T2247 1583T2493 1459T2685 1298T2810 1097T2855 852Q2855 723 2820 606T2711 389T2526 208T2259 70T1909 -18T1470 -49Q1315 -49 1172 -38T899 -5T655 45T446 111V471Z"  />
<glyph unicode="6" horiz-adv-x="3277" d="M2773 2552Q2690 2573 2606 2592T2429 2624T2232 2646T2007 2654Q1721 2654 1499 2593T1120 2404T872 2077T758 1606Q848 1678 956 1735T1188 1831T1448 1892T1733 1913Q1932 1913 2100 1882T2406 1791T2649 1646T2825 1451T2933 1210T2970 930Q2970 804 2936 683T2833 452T2659 252T2412 93T2089 -11T1688 -49Q1358 -49 1103 39T673 302T409 739T319 1348Q319 1752 426 2063T743 2585T1266 2906T1991 3015Q2126 3015 2238 3008T2444 2987T2620 2956T2773 2916V2552ZM745 1290Q751 1092 787 940T885 675T1032 487T1219 365T1440 299T1688 279Q1886 279 2044 321T2312 446T2481 650T2540 930Q2540 1091 2484 1210T2320 1408T2052 1526T1688 1565Q1548 1565 1420 1546T1174 1492T949 1406T745 1290Z"  />
<glyph unicode="7" horiz-adv-x="3277" d="M741 0L2425 2621H426V2966H2900V2642L1204 0H741Z"  />
<glyph unicode="8" horiz-adv-x="3277" d="M2417 1540Q2486 1511 2558 1474T2697 1389T2822 1283T2924 1154T2993 1000T3019 819Q3019 700 2984 590T2876 383T2691 207T2426 71T2076 -17T1638 -49Q1387 -49 1188 -18T835 70T572 206T393 382T291 589T258 819Q258 916 283 999T352 1153T454 1282T580 1388T718 1473T860 1540Q749 1589 664 1655T520 1804T431 1983T401 2191Q401 2380 488 2532T736 2792T1125 2957T1638 3015Q1936 3015 2166 2957T2554 2792T2793 2533T2875 2191Q2875 2080 2844 1983T2755 1804T2611 1656T2417 1540ZM2593 827Q2593 941 2533 1041T2354 1217T2055 1336T1638 1380Q1400 1380 1222 1336T924 1217T744 1042T684 827Q684 701 744 601T923 430T1221 321T1638 283Q1876 283 2055 321T2353 429T2533 600T2593 827ZM2449 2191Q2449 2320 2392 2413T2228 2568T1972 2658T1638 2687Q1454 2687 1304 2658T1048 2568T885 2414T827 2191Q827 2062 884 1968T1048 1811T1304 1718T1638 1688Q1822 1688 1972 1718T2228 1810T2391 1967T2449 2191Z"  />
<glyph unicode="9" horiz-adv-x="3277" d="M528 414Q611 392 696 374T873 341T1069 319T1294 311Q1588 311 1811 375T2187 576T2424 922T2523 1425Q2432 1353 2324 1295T2092 1196T1831 1132T1544 1110Q1246 1110 1016 1175T628 1364T389 1666T307 2068Q307 2194 343 2313T450 2537T628 2730T878 2881T1198 2980T1589 3015Q1919 3015 2174 2927T2603 2664T2867 2227T2957 1618Q2957 1214 2854 903T2546 381T2031 60T1311 -49Q1176 -49 1064 -42T857 -21T681 10T528 49V414ZM2527 1737Q2517 1922 2478 2064T2377 2312T2230 2490T2045 2605T1829 2668T1589 2687Q1402 2687 1246 2650T976 2536T800 2343T737 2068Q737 1907 793 1792T957 1602T1224 1493T1589 1458Q1727 1458 1855 1477T2100 1533T2323 1620T2527 1737Z"  />
<glyph unicode=":" horiz-adv-x="1450" d="M475 1602V2102H975V1602H475ZM475 0V500H975V0H475Z"  />
<glyph unicode=";" horiz-adv-x="1450" d="M475 1602V2102H975V1602H475ZM139 -594L514 5L422 500H844Q899 500 936 489T997 455T1030 395T1040 307Q1040 253 1028 198T991 86T931 -30T849 -152T747 -281T627 -418L463 -594H139Z"  />
<glyph unicode="&lt;" horiz-adv-x="3039" d="M1991 160L459 1229L1991 2261H2580L1049 1229L2580 160H1991Z"  />
<glyph unicode="=" horiz-adv-x="3039" d="M369 659V979H2671V659H369ZM369 1479V1798H2671V1479H369Z"  />
<glyph unicode="&gt;" horiz-adv-x="3039" d="M1049 160H459L1991 1229L459 2261H1049L2580 1229L1049 160Z"  />
<glyph unicode="?" horiz-adv-x="2322" d="M705 811L668 1360L1208 1671Q1334 1743 1428 1812T1586 1953T1680 2099T1712 2257Q1712 2346 1667 2419T1535 2544T1323 2625T1040 2654Q964 2654 885 2649T725 2635T562 2611T400 2577T242 2533T90 2478V2834Q187 2876 297 2909T528 2966T777 3002T1040 3015Q1196 3015 1338 2994T1602 2932T1824 2829T1994 2684T2103 2499T2142 2273Q2142 2177 2117 2090T2045 1924T1936 1774T1797 1640T1636 1520T1462 1413L1024 1163L999 811H705ZM618 0V500H1118V0H618Z"  />
<glyph unicode="@" horiz-adv-x="4977" d="M3523 -733Q3462 -753 3385 -770T3221 -801T3039 -827T2851 -847T2666 -859T2494 -864Q2107 -864 1794 -807T1236 -642T814 -377T521 -21T351 416T295 926Q295 1206 363 1470T567 1966T902 2391T1366 2722T1953 2938T2662 3015Q3029 3015 3321 2957T3839 2794T4226 2543T4490 2223T4641 1850T4690 1442Q4690 1244 4656 1069T4554 745T4390 478T4165 277T3884 150T3551 106Q3431 106 3341 129T3184 192T3075 283T3006 389Q2938 324 2853 271T2667 179T2449 120T2204 98Q1998 98 1831 160T1546 331T1363 587T1298 905Q1298 1086 1342 1244T1470 1533T1671 1766T1937 1940T2258 2048T2626 2085Q2738 2085 2845 2072T3047 2037T3224 1983T3367 1917L3428 2036H3731L3375 811Q3360 755 3347 699T3334 590Q3334 550 3350 513T3402 446T3491 399T3621 381Q3711 381 3796 414T3957 510T4096 664T4204 871T4275 1128T4301 1430Q4301 1617 4262 1784T4139 2094T3924 2349T3611 2542T3193 2664T2662 2707Q2335 2707 2063 2645T1572 2468T1189 2192T916 1832T751 1405T696 926Q696 686 746 483T896 116T1148 -175T1501 -385T1958 -513T2519 -557Q2668 -557 2810 -548T3082 -522T3323 -481T3523 -426V-733ZM3260 1679Q3202 1707 3133 1728T2988 1764T2833 1786T2675 1794Q2540 1794 2415 1771T2182 1701T1985 1584T1833 1419T1735 1207T1700 946Q1700 806 1744 701T1869 524T2068 417T2331 381Q2412 381 2493 395T2653 435T2805 500T2945 586L3260 1679Z"  />
<glyph unicode="A" horiz-adv-x="3494" d="M3002 0L2635 731L2634 733H848L847 731L483 0H20L1503 2966H1991L3473 0H3002ZM1917 2220Q1874 2307 1829 2399T1741 2580Q1697 2491 1653 2401T1565 2220L1000 1079L999 1077H2482L2481 1079L1917 2220Z"  />
<glyph unicode="B" horiz-adv-x="3326" d="M492 0V2966H1610Q1922 2966 2158 2913T2554 2755T2794 2496T2875 2138Q2875 2010 2842 1911T2748 1735T2597 1603T2396 1511Q2545 1473 2661 1414T2858 1271T2981 1077T3023 827Q3023 692 2987 578T2880 373T2702 211T2455 95T2140 24T1757 0H492ZM1667 340Q1893 340 2065 362T2353 440T2529 590T2589 827Q2589 970 2530 1064T2354 1215T2065 1295T1667 1319H913V340H1667ZM1520 1647Q1746 1647 1918 1670T2206 1749T2381 1900T2441 2138Q2441 2281 2382 2375T2206 2525T1918 2603T1520 2626H913V1647H1520Z"  />
<glyph unicode="C" horiz-adv-x="3146" d="M2900 98Q2823 67 2724 41T2505 -6T2242 -37T1937 -49Q1702 -49 1489 -6T1094 122T765 336T515 634T355 1016T299 1483Q299 1723 355 1930T513 2308T760 2610T1083 2832T1467 2968T1901 3015Q2022 3015 2146 3006T2391 2977T2624 2927T2834 2855V2490Q2724 2535 2611 2566T2387 2616T2168 2645T1958 2654Q1773 2654 1610 2622T1310 2525T1066 2363T883 2136T769 1843T729 1483Q729 1264 777 1092T911 789T1113 567T1364 417T1648 333T1946 307Q2124 307 2272 321T2538 356T2747 402T2900 451V98Z"  />
<glyph unicode="D" horiz-adv-x="3592" d="M492 0V2966H1671Q1931 2966 2152 2919T2554 2783T2872 2564T3103 2270T3245 1907T3293 1483Q3293 1265 3244 1070T3099 711T2863 415T2543 191T2144 49T1671 0H492ZM1700 344Q1895 344 2056 382T2347 492T2573 664T2734 892T2831 1168T2863 1483Q2863 1649 2831 1797T2735 2072T2574 2300T2348 2473T2056 2582T1700 2621H913V344H1700Z"  />
<glyph unicode="E" horiz-adv-x="3162" d="M492 0V2966H2851V2621H913V1696H2605V1352H913V344H2875V0H492Z"  />
<glyph unicode="F" horiz-adv-x="2925" d="M492 0V2966H2712V2621H913V1606H2454V1262H913V0H492Z"  />
<glyph unicode="G" horiz-adv-x="3662" d="M2892 1430H3310V139Q3227 109 3135 84T2940 37T2727 0T2497 -27T2248 -43T1982 -49Q1592 -49 1281 51T751 347T416 827T299 1483Q299 1721 352 1927T506 2304T754 2606T1091 2830T1510 2968T2003 3015Q2091 3015 2186 3011T2377 2999T2569 2977T2752 2946T2920 2906T3064 2855V2490Q2953 2535 2825 2566T2564 2616T2304 2645T2064 2654Q1741 2654 1493 2582T1074 2363T817 1998T729 1483Q729 1270 772 1100T897 800T1094 576T1357 423T1676 335T2044 307Q2199 307 2332 318T2572 347T2760 383T2892 418V1430Z"  />
<glyph unicode="H" horiz-adv-x="3736" d="M2822 0V1315H913V0H492V2966H913V1659H2822V2966H3244V0H2822Z"  />
<glyph unicode="I" horiz-adv-x="2183" d="M328 0V344H881V2621H328V2966H1855V2621H1303V344H1855V0H328Z"  />
<glyph unicode="J" horiz-adv-x="1737" d="M-25 -188Q-2 -196 36 -202T118 -214T204 -222T279 -225Q429 -225 533 -187T701 -64T794 154T823 479V2621H188V2966H1245V438Q1245 197 1195 8T1033 -313T742 -513T307 -582Q267 -582 220 -580T128 -573T42 -561T-25 -545V-188Z"  />
<glyph unicode="K" horiz-adv-x="3461" d="M2789 0L913 1372V0H492V2966H913V1622L2765 2966H3387L1705 1765Q1618 1703 1530 1640T1355 1516Q1398 1485 1440 1455T1525 1393T1610 1332T1696 1270L3449 0H2789Z"  />
<glyph unicode="L" horiz-adv-x="2761" d="M492 0V2966H913V344H2597V0H492Z"  />
<glyph unicode="M" horiz-adv-x="4379" d="M3478 0V2007Q3478 2109 3478 2207T3478 2408Q3419 2328 3361 2249T3244 2089L2306 819H2073L1135 2089Q1106 2129 1077 2169T1018 2248T960 2328T901 2408Q901 2306 901 2208T901 2007V0H492V2966H950L1991 1548Q2043 1477 2095 1407T2200 1266Q2252 1337 2304 1409T2408 1552L3449 2966H3887V0H3478Z"  />
<glyph unicode="N" horiz-adv-x="3932" d="M2982 0L1249 2032Q1163 2134 1078 2234T905 2437Q905 2375 905 2315T905 2194T905 2072T905 1950V0H492V2966H950L2679 930Q2722 879 2765 829T2852 727T2940 626T3027 524Q3027 585 3027 646T3027 768T3027 889T3027 1012V2966H3441V0H2982Z"  />
<glyph unicode="O" horiz-adv-x="3760" d="M1880 -49Q1620 -49 1402 1T1008 147T700 377T478 683T344 1055T299 1483Q299 1701 345 1899T483 2268T708 2576T1018 2811T1410 2962T1880 3015Q2140 3015 2358 2965T2752 2819T3060 2589T3282 2283T3416 1911T3461 1483Q3461 1265 3415 1067T3277 698T3052 390T2742 155T2350 4T1880 -49ZM1880 287Q2075 287 2235 329T2524 449T2747 636T2905 878T3000 1164T3031 1483Q3031 1649 3000 1802T2906 2088T2747 2330T2524 2516T2235 2636T1880 2679Q1686 2679 1525 2637T1236 2517T1013 2330T855 2088T760 1802T729 1483Q729 1317 760 1164T854 878T1013 636T1236 450T1524 330T1880 287Z"  />
<glyph unicode="P" horiz-adv-x="3142" d="M492 0V2966H1663Q1891 2966 2072 2936T2390 2848T2625 2708T2785 2524T2875 2300T2904 2044Q2904 1909 2874 1787T2780 1561T2616 1372T2376 1229T2053 1138T1642 1106H913V0H492ZM1573 1450Q1829 1450 2002 1489T2280 1604T2429 1790T2474 2044Q2474 2187 2430 2295T2280 2475T2002 2584T1573 2621H913V1450H1573Z"  />
<glyph unicode="Q" horiz-adv-x="3760" d="M2863 -520Q2832 -520 2807 -518T2759 -509T2717 -493T2679 -467L2154 -33Q2086 -42 2019 -45T1880 -49Q1620 -49 1402 1T1008 147T700 377T478 683T344 1055T299 1483Q299 1701 345 1899T483 2268T708 2576T1018 2811T1410 2962T1880 3015Q2140 3015 2358 2965T2752 2819T3060 2589T3282 2283T3416 1911T3461 1483Q3461 1237 3402 1017T3228 613T2943 290T2552 66Q2589 50 2634 22T2736 -49L3305 -520H2863ZM1880 287Q2075 287 2235 329T2524 449T2747 636T2905 878T3000 1164T3031 1483Q3031 1649 3000 1802T2906 2088T2747 2330T2524 2516T2235 2636T1880 2679Q1686 2679 1525 2637T1236 2517T1013 2330T855 2088T760 1802T729 1483Q729 1317 760 1164T854 878T1013 636T1236 450T1524 330T1880 287Z"  />
<glyph unicode="R" horiz-adv-x="3305" d="M2683 0L1733 1065Q1703 1098 1677 1122T1623 1163T1565 1192T1498 1209T1415 1218T1311 1221H913V0H492V2966H1642Q1985 2966 2225 2907T2616 2735T2835 2461T2904 2097Q2904 1925 2846 1785T2676 1540T2398 1364T2019 1262Q2078 1240 2128 1202T2228 1110L3224 0H2683ZM1552 1556Q1808 1556 1984 1587T2269 1683T2426 1851T2474 2097Q2474 2240 2426 2339T2270 2501T1985 2592T1552 2621H913V1556H1552Z"  />
<glyph unicode="S" horiz-adv-x="3097" d="M283 471Q386 439 509 410T769 359T1054 324T1352 311Q1587 311 1769 341T2076 428T2266 569T2331 758Q2331 826 2312 882T2250 985T2142 1072T1982 1152T1765 1229T1487 1311Q1319 1357 1168 1404T889 1505T657 1627T483 1779T374 1973T340 2220Q342 2341 380 2446T493 2640T676 2798T928 2916T1249 2989T1638 3015Q1798 3015 1940 3003T2209 2970T2443 2918T2642 2851V2486Q2541 2521 2431 2552T2196 2605T1932 2641T1630 2654Q1418 2654 1258 2627T991 2547T829 2416T774 2236Q774 2169 788 2115T837 2015T934 1927T1087 1845T1309 1764T1610 1675Q1798 1623 1957 1575T2246 1473T2474 1355T2638 1209T2736 1020T2765 774Q2763 652 2723 544T2604 345T2407 180T2132 56T1776 -22T1339 -49Q1181 -49 1032 -38T747 -5T494 45T283 111V471Z"  />
<glyph unicode="T" horiz-adv-x="3092" d="M1335 0V2621H135V2966H2957V2621H1757V0H1335Z"  />
<glyph unicode="U" horiz-adv-x="3600" d="M2736 2966H3158V1118Q3158 936 3115 779T2989 492T2787 261T2516 92T2185 -13T1798 -49Q1589 -49 1408 -13T1076 91T807 261T608 491T485 778T442 1118V2966H864V1151Q864 944 923 786T1099 520T1391 358T1798 303Q2032 303 2207 357T2500 519T2677 785T2736 1151V2966Z"  />
<glyph unicode="V" horiz-adv-x="3305" d="M1421 0L8 2966H475L1421 958Q1479 833 1539 707T1659 455Q1718 582 1778 707T1896 958L2839 2966H3297L1884 0H1421Z"  />
<glyph unicode="W" horiz-adv-x="5476" d="M3731 0L2937 1946Q2912 2007 2887 2067T2837 2189T2786 2310T2736 2433Q2712 2371 2688 2311T2638 2189T2589 2068T2540 1946L1745 0H1315L33 2966H496L1327 963Q1353 900 1379 838T1431 713T1484 589T1536 463Q1561 526 1586 588T1636 713T1687 837T1737 963L2540 2966H2937L3748 942Q3772 879 3797 816T3848 690T3900 564T3953 438Q3979 501 4005 564T4059 690T4113 816T4166 942L5009 2966H5444L4162 0H3731Z"  />
<glyph unicode="X" horiz-adv-x="3248" d="M2666 0L1610 1262L553 0H49L1364 1532L143 2966H676L1622 1819L2576 2966H3080L1868 1548L3199 0H2666Z"  />
<glyph unicode="Y" horiz-adv-x="3183" d="M1380 0V1106L8 2966H504L1593 1446L2695 2966H3174L1802 1110V0H1380Z"  />
<glyph unicode="Z" horiz-adv-x="3117" d="M270 0V324L2269 2621H315V2966H2789V2642L795 344H2847V0H270Z"  />
<glyph unicode="[" horiz-adv-x="1847" d="M598 -381V3105H1569V2867H995V-143H1569V-381H598Z"  />
<glyph unicode="\" horiz-adv-x="2208" d="M1749 0L66 2966H455L2142 0H1749Z"  />
<glyph unicode="]" horiz-adv-x="1847" d="M279 -381V-143H852V2867H279V3105H1249V-381H279Z"  />
<glyph unicode="^" horiz-adv-x="2228" d="M1683 1786L1114 2650L545 1786H160L950 2966H1278L2068 1786H1683Z"  />
<glyph unicode="_" horiz-adv-x="2253" d="M-33 -319V0H2286V-319H-33Z"  />
<glyph unicode="`" horiz-adv-x="2064" d="M1151 2408L545 3056H1069L1520 2408H1151Z"  />
<glyph unicode="a" horiz-adv-x="2941" d="M2175 0L2142 193Q2065 137 1968 93T1757 17T1515 -32T1249 -49Q1052 -49 883 -11T588 106T391 303T319 582Q319 686 351 775T449 936T619 1063T866 1156T1193 1213T1606 1233Q1692 1233 1781 1231T1949 1225T2109 1217V1290Q2109 1419 2070 1518T1946 1685T1729 1788T1413 1823Q1255 1823 1130 1813T901 1782T704 1733T520 1667V1982Q603 2019 698 2050T908 2103T1156 2137T1450 2150Q1688 2150 1884 2101T2220 1951T2438 1699T2515 1343V0H2175ZM2109 934H1704Q1441 934 1258 915T958 856T790 751T737 598Q737 517 770 454T875 349T1058 284T1327 262Q1448 262 1560 276T1772 316T1956 381T2109 467V934Z"  />
<glyph unicode="b" horiz-adv-x="3178" d="M471 0V2966H877V1937Q952 1985 1044 2024T1239 2091T1455 2134T1683 2150Q1961 2150 2186 2077T2569 1864T2814 1520T2900 1053Q2900 796 2816 592T2573 246T2183 27T1659 -49Q1539 -49 1423 -35T1202 8T1004 77T840 172L811 0H471ZM877 467Q952 419 1035 381T1210 317T1399 276T1602 262Q1815 262 1979 312T2255 462T2424 710T2482 1053Q2482 1248 2425 1394T2256 1637T1980 1782T1602 1831Q1497 1831 1399 1817T1210 1777T1036 1712T877 1626V467Z"  />
<glyph unicode="c" horiz-adv-x="2568" d="M2314 111Q2239 79 2155 50T1969 -1T1742 -36T1458 -49Q1180 -49 961 30T591 253T359 600T279 1053Q279 1209 313 1351T415 1616T587 1836T830 2004T1144 2112T1532 2150Q1638 2150 1743 2141T1946 2114T2129 2072T2281 2019V1688Q2212 1715 2127 1739T1946 1782T1743 1812T1524 1823Q1304 1823 1148 1767T891 1610T743 1367T696 1053Q696 864 753 720T915 477T1168 329T1499 279Q1639 279 1758 294T1979 334T2163 389T2314 451V111Z"  />
<glyph unicode="d" horiz-adv-x="3178" d="M2367 0L2335 184Q2260 133 2165 91T1961 17T1735 -31T1495 -49Q1217 -49 993 24T610 239T365 585T279 1053Q279 1309 363 1512T606 1858T995 2075T1520 2150Q1632 2150 1740 2137T1949 2100T2138 2039T2302 1954V2966H2707V0H2367ZM2302 1630Q2227 1678 2143 1716T1968 1780T1779 1821T1577 1835Q1364 1835 1200 1786T923 1639T754 1395T696 1053Q696 858 753 711T923 464T1199 316T1577 266Q1681 266 1779 280T1968 320T2143 385T2302 471V1630Z"  />
<glyph unicode="e" horiz-adv-x="2863" d="M2466 143Q2377 102 2276 67T2058 6T1805 -34T1511 -49Q1304 -49 1133 -11T824 98T585 270T415 496T313 769T279 1081Q279 1231 314 1369T417 1625T585 1841T815 2006T1104 2112T1450 2150Q1633 2150 1790 2116T2076 2017T2304 1861T2471 1656T2574 1408T2609 1126Q2609 1106 2609 1084T2607 1041T2604 1000T2601 967H684Q695 810 753 683T919 466T1185 328T1556 279Q1708 279 1834 294T2070 336T2277 396T2466 467V143ZM2212 1278Q2198 1402 2136 1505T1973 1683T1739 1798T1450 1839Q1295 1839 1161 1798T926 1683T763 1506T688 1278H2212Z"  />
<glyph unicode="f" horiz-adv-x="2048" d="M721 0V1782H119V2101H721V2241Q721 2421 775 2564T944 2807T1236 2961T1659 3015Q1756 3015 1839 3009T1993 2991T2123 2963T2232 2929V2609Q2177 2627 2111 2641T1973 2666T1823 2681T1667 2687Q1517 2687 1414 2658T1246 2571T1154 2423T1126 2212V2101H2011V1782H1126V0H721Z"  />
<glyph unicode="g" horiz-adv-x="3178" d="M2302 229Q2225 181 2132 142T1936 75T1721 32T1495 16Q1217 16 993 85T610 291T365 626T279 1085Q279 1338 363 1536T606 1871T995 2078T1520 2150Q1640 2150 1755 2135T1975 2092T2172 2022T2339 1929L2367 2101H2707V70Q2707 -194 2618 -381T2365 -686T1966 -858T1442 -913Q1284 -913 1139 -901T868 -868T639 -819T463 -758V-414Q547 -449 647 -480T864 -533T1119 -569T1417 -582Q1623 -582 1787 -550T2065 -440T2241 -230T2302 102V229ZM2302 1630Q2227 1678 2143 1716T1968 1780T1779 1821T1577 1835Q1364 1835 1200 1789T923 1650T754 1416T696 1085Q696 895 753 754T923 519T1199 379T1577 332Q1681 332 1779 346T1968 386T2143 451T2302 537V1630Z"  />
<glyph unicode="h" horiz-adv-x="3174" d="M2343 0V1274Q2343 1431 2301 1537T2176 1709T1968 1802T1679 1831Q1561 1831 1448 1813T1231 1765T1037 1695T877 1610V0H471V2966H877V1901Q955 1955 1053 2000T1265 2079T1505 2131T1765 2150Q1897 2150 2021 2134T2255 2079T2455 1980T2611 1829T2712 1619T2748 1343V0H2343Z"  />
<glyph unicode="i" horiz-adv-x="1348" d="M471 0V2101H877V0H471ZM471 2523V2966H877V2523H471Z"  />
<glyph unicode="j" horiz-adv-x="1348" d="M-291 -565Q-223 -581 -163 -587T-41 -594Q105 -594 203 -555T360 -435T445 -230T471 66V2101H877V37Q877 -204 829 -382T674 -679T398 -855T-12 -913Q-51 -913 -89 -911T-162 -905T-230 -895T-291 -881V-565ZM471 2523V2966H877V2523H471Z"  />
<glyph unicode="k" horiz-adv-x="2777" d="M2154 0L877 958V0H471V2966H877V1180L2138 2101H2695L1524 1257Q1492 1234 1460 1212T1397 1168T1334 1123T1270 1077Q1301 1056 1330 1035T1388 994T1447 952T1507 909L2769 0H2154Z"  />
<glyph unicode="l" horiz-adv-x="1593" d="M1503 16Q1460 4 1409 -7T1297 -28T1166 -43T1016 -49Q859 -49 751 -14T577 89T481 258T451 492V2966H856V541Q856 478 866 431T905 351T984 303T1114 287Q1238 287 1335 298T1503 328V16Z"  />
<glyph unicode="m" horiz-adv-x="5042" d="M4211 0V1274Q4211 1431 4169 1537T4044 1709T3836 1802T3547 1831Q3424 1831 3306 1812T3080 1760T2881 1684T2720 1593Q2732 1538 2740 1475T2748 1343V0H2343V1274Q2343 1431 2301 1537T2176 1709T1968 1802T1679 1831Q1561 1831 1448 1813T1231 1765T1037 1695T877 1610V0H471V2101H811L844 1892Q922 1949 1023 1996T1243 2078T1493 2131T1765 2150Q1896 2150 2019 2133T2252 2078T2452 1978T2609 1827Q2684 1893 2794 1951T3038 2054T3323 2124T3633 2150Q3765 2150 3889 2134T4123 2079T4323 1980T4479 1829T4580 1619T4616 1343V0H4211Z"  />
<glyph unicode="n" horiz-adv-x="3174" d="M2343 0V1274Q2343 1431 2301 1537T2176 1709T1968 1802T1679 1831Q1561 1831 1448 1813T1231 1765T1037 1695T877 1610V0H471V2101H811L844 1892Q922 1949 1023 1996T1243 2078T1493 2131T1765 2150Q1897 2150 2021 2134T2255 2079T2455 1980T2611 1829T2712 1619T2748 1343V0H2343Z"  />
<glyph unicode="o" horiz-adv-x="3088" d="M1544 -49Q1323 -49 1143 -11T823 96T580 265T410 486T311 752T279 1053Q279 1208 312 1350T413 1614T584 1835T828 2004T1147 2112T1544 2150Q1765 2150 1945 2112T2265 2005T2509 1836T2678 1615T2777 1349T2810 1049Q2810 893 2777 751T2676 487T2505 266T2261 97T1941 -11T1544 -49ZM1544 266Q1762 266 1922 321T2186 479T2341 725T2392 1049Q2392 1227 2342 1372T2187 1620T1922 1779T1544 1835Q1326 1835 1167 1780T903 1622T747 1376T696 1053Q696 875 747 730T902 481T1166 322T1544 266Z"  />
<glyph unicode="p" horiz-adv-x="3178" d="M471 -864V2101H811L840 1917Q916 1968 1011 2010T1215 2084T1442 2132T1683 2150Q1961 2150 2186 2077T2569 1864T2814 1520T2900 1053Q2900 796 2816 592T2573 246T2183 27T1659 -49Q1545 -49 1436 -36T1227 1T1038 62T877 147V-864H471ZM877 475Q952 427 1035 389T1210 325T1399 284T1602 270Q1815 270 1979 319T2255 466T2424 711T2482 1053Q2482 1248 2425 1395T2256 1641T1980 1789T1602 1839Q1497 1839 1399 1825T1210 1785T1036 1720T877 1634V475Z"  />
<glyph unicode="q" horiz-adv-x="3178" d="M2302 -864V160Q2225 114 2133 76T1937 10T1722 -33T1495 -49Q1217 -49 993 24T610 239T365 585T279 1053Q279 1309 363 1512T606 1858T995 2075T1520 2150Q1640 2150 1755 2135T1975 2091T2172 2021T2339 1925L2367 2101H2707V-864H2302ZM2302 1638Q2227 1686 2143 1724T1968 1788T1779 1829T1577 1843Q1364 1843 1200 1793T923 1643T754 1396T696 1053Q696 858 753 712T923 468T1199 323T1577 274Q1681 274 1779 288T1968 328T2143 393T2302 479V1638Z"  />
<glyph unicode="r" horiz-adv-x="2138" d="M471 0V2101H836L868 1720Q922 1801 995 1877T1165 2012T1384 2106T1659 2142Q1773 2142 1868 2128T2032 2089V1729Q1987 1741 1938 1750T1835 1765T1725 1775T1610 1778Q1500 1778 1410 1758T1245 1706T1113 1630T1010 1542T932 1451T877 1368V0H471Z"  />
<glyph unicode="s" horiz-adv-x="2626" d="M328 414Q373 398 433 381T562 349T709 320T867 296T1028 280T1184 274Q1371 274 1509 293T1739 351T1876 445T1921 573Q1921 650 1880 699T1760 782T1565 842T1298 897Q1057 942 880 992T586 1114T413 1288T356 1540Q356 1680 416 1792T604 1984T930 2107T1405 2150Q1489 2150 1568 2145T1720 2130T1860 2106T1988 2075T2101 2038T2200 1995V1679Q2152 1699 2096 1718T1978 1753T1848 1783T1708 1806T1560 1821T1405 1827Q1234 1827 1114 1810T917 1757T805 1668T770 1544Q770 1467 811 1419T931 1337T1126 1279T1393 1225Q1633 1180 1810 1130T2103 1006T2277 830T2335 578Q2335 438 2261 323T2042 125T1682 -3T1184 -49Q1059 -49 935 -37T699 -5T491 43T328 102V414Z"  />
<glyph unicode="t" horiz-adv-x="2187" d="M1974 53Q1917 32 1850 13T1706 -19T1541 -41T1356 -49Q1165 -49 1023 -13T785 103T642 308T594 610V1782H139V2101H610L659 2626H995V2101H2007V1782H995V664Q995 555 1023 481T1111 362T1261 298T1479 279Q1549 279 1616 285T1746 304T1866 332T1974 369V53Z"  />
<glyph unicode="u" horiz-adv-x="3133" d="M2322 0L2290 180Q2212 129 2116 87T1911 15T1680 -32T1430 -49Q1298 -49 1172 -36T935 12T730 103T569 247T464 455T426 737V2101H831V807Q831 658 876 556T1009 390T1223 298T1516 270Q1636 270 1735 283T1922 321T2091 384T2257 471V2101H2662V0H2322Z"  />
<glyph unicode="v" horiz-adv-x="2630" d="M1126 0L49 2101H500L1159 762Q1199 678 1241 594T1323 426Q1363 510 1405 594T1487 762L2138 2101H2580L1503 0H1126Z"  />
<glyph unicode="w" horiz-adv-x="4239" d="M2814 0L2253 1339Q2219 1423 2184 1505T2114 1671Q2079 1588 2044 1502T1974 1331L1425 0H1049L66 2101H508L1094 762Q1131 678 1167 594T1241 426Q1275 510 1310 594T1380 762L1933 2101H2310L2875 762Q2909 678 2945 596T3015 430Q3052 514 3086 596T3158 762L3740 2101H4174L3191 0H2814Z"  />
<glyph unicode="x" horiz-adv-x="2695" d="M2097 0L1339 815L578 0H74L1098 1069L106 2101H631L1343 1327L2064 2101H2568L1585 1073L2621 0H2097Z"  />
<glyph unicode="y" horiz-adv-x="2630" d="M16 -553Q57 -562 106 -570T221 -578Q316 -578 401 -565T561 -523T704 -453T831 -352T946 -219T1049 -53L1102 45L49 2101H500L1180 717Q1217 642 1251 571T1323 422Q1360 499 1394 573T1466 721L2138 2101H2580L1470 -61Q1403 -191 1330 -305T1173 -513T990 -682T776 -808T524 -886T225 -913Q201 -913 173 -912T116 -907T62 -898T16 -885V-553Z"  />
<glyph unicode="z" horiz-adv-x="2646" d="M238 0V279L1802 1782H299V2101H2355V1827L782 319H2408V0H238Z"  />
<glyph unicode="{" horiz-adv-x="1847" d="M1159 -381Q1068 -381 991 -369T852 -333T742 -271T663 -181T615 -63T598 86V967Q598 1037 582 1089T533 1174T449 1224T328 1241H180V1483H328Q398 1483 449 1499T533 1549T582 1634T598 1757V2638Q598 2720 614 2786T663 2905T742 2994T851 3056T991 3093T1159 3105H1569V2867H1266Q1195 2867 1144 2851T1060 2801T1011 2715T995 2593V1769Q995 1689 979 1624T930 1507T848 1420T733 1360Q799 1337 848 1301T930 1214T979 1099T995 954V131Q995 60 1011 9T1060 -76T1144 -126T1266 -143H1569V-381H1159Z"  />
<glyph unicode="|" horiz-adv-x="1790" d="M729 -864V2966H1061V-864H729Z"  />
<glyph unicode="}" horiz-adv-x="1847" d="M279 -381V-143H582Q652 -143 703 -127T787 -77T836 8T852 131V954Q852 1034 868 1098T917 1213T999 1300T1114 1360Q1048 1383 999 1419T917 1507T868 1623T852 1769V2593Q852 2663 836 2715T787 2800T703 2850T582 2867H279V3105H688Q825 3105 929 3078T1105 2995T1212 2850T1249 2638V1757Q1249 1686 1265 1635T1314 1550T1398 1500T1520 1483H1667V1241H1520Q1449 1241 1398 1225T1314 1175T1265 1089T1249 967V86Q1249 -37 1213 -125T1105 -270T930 -354T688 -381H279Z"  />
<glyph unicode="~" horiz-adv-x="2265" d="M2028 1483Q2028 1361 2002 1248T1917 1046T1760 905T1520 852Q1435 852 1357 876T1206 938T1069 1018T944 1098T832 1159T733 1184Q681 1184 646 1164T588 1106T555 1014T541 893H238Q238 974 249 1052T285 1200T349 1330T444 1432T575 1500T745 1524Q830 1524 908 1500T1059 1438T1197 1358T1322 1278T1433 1217T1532 1192Q1584 1192 1619 1212T1677 1270T1710 1361T1724 1483H2028Z"  />
<glyph unicode="&#xA0;" horiz-adv-x="1356" />
<glyph unicode="&#xA1;" horiz-adv-x="1647" d="M606 -864V-57Q606 14 609 96T619 264T633 435T648 597T663 741T676 856L721 1286H930L975 856Q980 808 987 742T1001 598T1017 435T1031 265T1040 97T1044 -57V-864H606ZM578 1602V2101H1077V1602H578Z"  />
<glyph unicode="&#xA2;" horiz-adv-x="3277" d="M1626 -176V315Q1363 341 1150 424T786 650T553 999T471 1479Q471 1735 550 1939T779 2292T1143 2530T1626 2650V3138H1958V2666Q2064 2663 2170 2652T2378 2622T2571 2577T2740 2519V2183Q2650 2220 2551 2248T2348 2295T2137 2325T1921 2335Q1672 2335 1479 2286T1154 2133T954 1867T885 1479Q885 1311 922 1183T1028 962T1190 805T1398 705T1640 651T1905 635Q2063 635 2196 649T2439 686T2636 737T2789 791V459Q2717 428 2632 401T2444 353T2222 319T1958 303V-176H1626Z"  />
<glyph unicode="&#xA3;" horiz-adv-x="3277" d="M434 0V324H508Q652 324 749 348T904 432T987 596T1012 860V1278H569V1622H1012V2068Q1012 2210 1039 2336T1120 2567T1256 2755T1450 2896T1701 2984T2011 3015Q2088 3015 2161 3009T2305 2991T2440 2961T2568 2920V2572Q2530 2584 2473 2598T2347 2625T2198 2646T2036 2654Q1882 2654 1769 2621T1582 2513T1471 2317T1434 2019V1622H2515V1278H1434V778Q1434 695 1423 629T1392 509T1342 416T1278 344H2843V0H434Z"  />
<glyph unicode="&#xA4;" horiz-adv-x="3277" d="M2187 627Q2070 580 1933 556T1638 532Q1481 532 1344 556T1085 627L750 217L479 455L811 791Q665 914 589 1086T512 1479Q512 1695 588 1869T811 2167L479 2503L750 2740L1085 2331Q1206 2377 1343 2401T1638 2425Q1796 2425 1933 2401T2187 2331L2527 2740L2798 2503L2466 2167Q2611 2043 2688 1869T2765 1479Q2765 1259 2688 1087T2462 791L2798 455L2527 217L2187 627ZM1638 856Q1818 856 1956 897T2189 1018T2331 1214T2380 1479Q2380 1628 2332 1743T2189 1938T1957 2059T1638 2101Q1458 2101 1320 2060T1088 1939T946 1744T897 1479Q897 1330 945 1214T1088 1019T1320 898T1638 856Z"  />
<glyph unicode="&#xA5;" horiz-adv-x="3277" d="M1847 565V0H1425V565H393V897H1425V1106L1282 1298H393V1630H1036L53 2966H549L1364 1827Q1432 1731 1501 1637T1638 1446Q1707 1542 1776 1636T1913 1827L2740 2966H3219L2228 1630H2884V1298H1982L1847 1110V897H2884V565H1847Z"  />
<glyph unicode="&#xA6;" horiz-adv-x="1790" d="M729 -381V893H1061V-381H729ZM729 1831V3105H1061V1831H729Z"  />
<glyph unicode="&#xA7;" horiz-adv-x="3277" d="M1528 -311Q1342 -311 1181 -295T887 -254T650 -199T475 -139V180Q552 151 661 122T902 69T1180 31T1479 16Q1588 16 1692 21T1890 40T2061 73T2195 125T2282 197T2314 291Q2314 358 2279 405T2176 488T2007 556T1774 623L1028 819Q879 858 757 912T548 1037T413 1194T365 1384Q365 1478 398 1562T491 1720T632 1855T811 1962Q749 2002 699 2048T612 2147T557 2262T537 2392Q537 2508 580 2599T702 2759T887 2877T1122 2956T1392 3001T1683 3015Q1854 3015 2004 3006T2280 2979T2506 2939T2675 2888V2564Q2604 2592 2501 2614T2273 2653T2011 2678T1733 2687Q1645 2687 1553 2683T1375 2667T1213 2636T1081 2586T991 2513T958 2413Q958 2345 993 2298T1096 2215T1266 2147T1499 2081L2245 1884Q2394 1846 2516 1792T2725 1666T2860 1509T2908 1319Q2908 1224 2875 1139T2781 981T2639 848T2458 741Q2521 701 2572 655T2660 556T2716 441T2736 311Q2736 195 2689 104T2557 -56T2358 -173T2109 -252T1827 -297T1528 -311ZM2490 1237Q2490 1347 2377 1431T2023 1577L1278 1774Q1172 1798 1081 1835Q1021 1793 967 1752T872 1666T807 1572T782 1466Q782 1356 896 1272T1249 1126L1995 930Q2044 917 2096 901T2191 868Q2251 908 2305 949T2400 1036T2466 1130T2490 1237Z"  />
<glyph unicode="&#xA8;" horiz-adv-x="2064" d="M279 2527V2941H717V2527H279ZM1348 2527V2941H1786V2527H1348Z"  />
<glyph unicode="&#xA9;" horiz-adv-x="3760" d="M2540 668Q2477 646 2413 628T2276 595T2122 573T1942 565Q1777 565 1642 598T1401 691T1217 835T1088 1021T1012 1240T987 1483Q987 1604 1012 1719T1090 1935T1220 2122T1404 2269T1641 2365T1933 2400Q2013 2400 2090 2392T2240 2369T2380 2333T2507 2286V2007Q2445 2033 2383 2055T2255 2092T2116 2117T1962 2126Q1798 2126 1681 2079T1488 1946T1378 1743T1343 1483Q1343 1340 1380 1222T1494 1019T1685 887T1958 840Q2038 840 2115 847T2265 868T2408 899T2540 938V668ZM1880 3015Q2134 3015 2350 2962T2741 2812T3051 2576T3277 2268T3414 1900T3461 1483Q3461 1265 3415 1067T3277 698T3052 390T2742 155T2350 4T1880 -49Q1626 -49 1410 4T1019 154T709 390T483 698T346 1066T299 1483Q299 1701 345 1899T483 2268T708 2576T1018 2811T1410 2962T1880 3015ZM1880 2773Q1662 2773 1482 2727T1158 2597T908 2395T731 2134T625 1826T590 1483Q590 1305 625 1140T730 832T908 571T1158 369T1481 239T1880 193Q2098 193 2278 239T2602 369T2852 570T3029 831T3135 1140T3170 1483Q3170 1661 3135 1826T3030 2134T2853 2395T2603 2597T2279 2727T1880 2773Z"  />
<glyph unicode="&#xAA;" horiz-adv-x="2609" d="M1901 1274L1872 1425Q1807 1381 1726 1346T1548 1285T1345 1247T1122 1233Q958 1233 815 1264T567 1359T401 1518T340 1741Q340 1825 366 1896T448 2025T590 2127T795 2201T1069 2246T1417 2261Q1519 2261 1630 2258T1843 2249V2306Q1843 2407 1810 2485T1705 2618T1523 2700T1257 2728Q1123 2728 1019 2719T826 2694T662 2654T508 2601V2859Q577 2888 657 2913T832 2956T1040 2984T1286 2994Q1484 2994 1648 2955T1929 2835T2110 2633T2175 2347V1274H1901ZM307 475V766H2208V475H307ZM1843 2019H1499Q1278 2019 1123 2004T871 1957T729 1875T684 1753Q684 1688 712 1639T800 1556T955 1505T1184 1487Q1285 1487 1379 1498T1558 1530T1714 1581T1843 1651V2019Z"  />
<glyph unicode="&#xAB;" horiz-adv-x="2818" d="M1094 467L270 1229L1094 1991H1483L750 1229L1483 467H1094ZM2159 467L1335 1229L2159 1991H2548L1815 1229L2548 467H2159Z"  />
<glyph unicode="&#xAC;" horiz-adv-x="2728" d="M2064 344V1049H180V1393H2425V344H2064Z"  />
<glyph unicode="&#xAD;" horiz-adv-x="1958" d="M270 1036V1421H1688V1036H270Z"  />
<glyph unicode="&#xAE;" horiz-adv-x="3129" d="M2785 1917Q2785 1745 2740 1597T2613 1327T2418 1110T2169 951T1880 853T1565 819Q1403 819 1250 852T961 950T712 1110T517 1327T390 1597T344 1917Q344 2089 389 2237T517 2507T712 2724T961 2883T1250 2981T1565 3015Q1727 3015 1880 2982T2168 2884T2417 2724T2612 2507T2739 2237T2785 1917ZM1565 1012Q1701 1012 1827 1041T2062 1125T2262 1260T2417 1440T2516 1661T2552 1917Q2552 2053 2517 2173T2417 2393T2263 2573T2063 2708T1827 2793T1565 2822Q1429 2822 1303 2793T1067 2709T867 2574T713 2394T614 2173T578 1917Q578 1781 613 1661T713 1441T867 1261T1067 1126T1303 1041T1565 1012ZM1905 1331L1622 1712Q1602 1740 1586 1757T1552 1783T1516 1795T1470 1798H1315V1331H1073V2523H1602Q1703 2523 1789 2503T1939 2440T2037 2332T2073 2175Q2073 2092 2049 2033T1985 1934T1890 1873T1774 1843Q1795 1828 1817 1806T1864 1753L2171 1331H1905ZM1573 1987Q1633 1987 1680 1997T1760 2029T1810 2087T1827 2175Q1827 2254 1769 2294T1581 2335H1315V1987H1573Z"  />
<glyph unicode="&#xAF;" horiz-adv-x="2064" d="M319 2548V2855H1745V2548H319Z"  />
<glyph unicode="&#xB0;" horiz-adv-x="2122" d="M1802 2294Q1802 2196 1776 2105T1702 1933T1587 1786T1437 1673T1260 1599T1061 1573Q957 1573 862 1599T685 1672T535 1786T419 1932T345 2104T319 2294Q319 2392 345 2483T419 2655T534 2802T684 2915T862 2989T1061 3015Q1164 3015 1259 2989T1437 2916T1586 2802T1702 2656T1776 2484T1802 2294ZM1061 1868Q1147 1868 1224 1902T1359 1994T1452 2130T1487 2294Q1487 2380 1453 2457T1360 2592T1224 2685T1061 2720Q975 2720 898 2686T762 2593T669 2457T635 2294Q635 2208 669 2131T761 1995T897 1902T1061 1868Z"  />
<glyph unicode="&#xB1;" horiz-adv-x="3039" d="M1700 1511V602H1339V1511H262V1831H1339V2703H1700V1831H2777V1511H1700ZM262 0V319H2777V0H262Z"  />
<glyph unicode="&#xB2;" horiz-adv-x="2007" d="M270 1364V1581L803 1966Q921 2052 1009 2119T1155 2244T1241 2357T1270 2474Q1270 2540 1247 2590T1176 2675T1058 2727T889 2745Q818 2745 746 2738T604 2717T468 2684T344 2642V2896Q396 2916 456 2934T586 2967T735 2989T905 2998Q1017 2998 1112 2982T1285 2936T1423 2860T1523 2758T1585 2632T1606 2482Q1606 2407 1583 2342T1518 2217T1419 2103T1294 1995T1150 1890T995 1782L737 1606H1749V1364H270Z"  />
<glyph unicode="&#xB3;" horiz-adv-x="2007" d="M299 1675Q356 1657 422 1640T564 1610T721 1589T893 1581Q1013 1581 1100 1599T1246 1650T1332 1728T1360 1827Q1360 1878 1333 1923T1246 2002T1096 2057T877 2077H668V2319H877Q978 2319 1053 2334T1179 2379T1253 2448T1278 2540Q1278 2591 1253 2630T1178 2697T1056 2738T889 2753Q821 2753 749 2746T604 2726T465 2694T340 2650V2892Q391 2915 452 2934T584 2968T735 2990T905 2998Q1079 2998 1212 2968T1437 2881T1575 2745T1622 2564Q1622 2506 1603 2454T1544 2356T1448 2273T1315 2208Q1413 2182 1487 2142T1610 2051T1683 1939T1708 1811Q1708 1711 1661 1624T1514 1471T1264 1369T905 1331Q804 1331 717 1339T554 1360T416 1392T299 1430V1675Z"  />
<glyph unicode="&#xB4;" horiz-adv-x="2064" d="M545 2408L995 3056H1520L913 2408H545Z"  />
<glyph unicode="&#xB5;" horiz-adv-x="3178" d="M1475 -49Q1383 -49 1294 -36T1124 3T970 63T840 143Q852 94 864 23T877 -139V-864H471V2101H877V807Q877 658 933 556T1085 390T1303 298T1561 270Q1681 270 1780 283T1967 321T2136 384T2302 471V2101H2707V475Q2707 421 2719 385T2756 328T2816 297T2900 287Q2956 287 3011 295T3113 315V12Q3088 -2 3048 -13T2959 -32T2859 -44T2761 -49Q2676 -49 2609 -32T2491 16T2404 90T2347 188Q2267 136 2170 93T1962 18T1728 -31T1475 -49Z"  />
<glyph unicode="&#xB6;" horiz-adv-x="3183" d="M2306 -864V2646H1884V-864H1499V1270H1335Q1161 1270 1008 1294T727 1366T499 1485T328 1650T221 1862T184 2118Q184 2257 221 2374T328 2585T498 2751T727 2870T1008 2942T1335 2966H2691V-864H2306Z"  />
<glyph unicode="&#xB7;" horiz-adv-x="1712" d="M606 983V1483H1106V983H606Z"  />
<glyph unicode="&#xB8;" horiz-adv-x="2064" d="M696 -643Q737 -652 780 -658T889 -664Q915 -664 948 -659T1010 -638T1060 -598T1081 -532Q1081 -489 1057 -457T994 -400T905 -361T803 -336L1028 41H1241L1102 -246Q1159 -260 1207 -285T1291 -345T1347 -425T1368 -524Q1368 -618 1330 -686T1229 -798T1085 -864T918 -885Q856 -885 801 -877T696 -856V-643Z"  />
<glyph unicode="&#xB9;" horiz-adv-x="2007" d="M467 1364V1606H881V2687L471 2605V2847L983 2966H1217V1606H1630V1364H467Z"  />
<glyph unicode="&#xBA;" horiz-adv-x="2798" d="M1397 1233Q1212 1233 1062 1263T794 1350T591 1485T450 1662T367 1876T340 2118Q340 2305 402 2465T595 2743T924 2927T1397 2994Q1583 2994 1734 2964T2003 2879T2207 2744T2348 2568T2431 2356T2458 2114Q2458 1989 2431 1875T2346 1663T2203 1486T1998 1351T1730 1264T1397 1233ZM1397 1491Q1583 1491 1718 1535T1941 1661T2071 1858T2114 2114Q2114 2255 2072 2370T1941 2566T1718 2691T1397 2736Q1212 2736 1078 2693T856 2568T726 2373T684 2118Q684 1975 726 1859T856 1662T1078 1536T1397 1491ZM307 475V766H2490V475H307Z"  />
<glyph unicode="&#xBB;" horiz-adv-x="2818" d="M270 467L1004 1229L270 1991H659L1483 1229L659 467H270ZM1335 467L2069 1229L1335 1991H1724L2548 1229L1724 467H1335Z"  />
<glyph unicode="&#xBC;" horiz-adv-x="4706" d="M737 -123L3547 3088H3969L1159 -123H737ZM467 1364V1606H881V2687L471 2605V2847L983 2966H1217V1606H1630V1364H467ZM3899 0V324H2871L2867 541L3911 1602H4231V561H4567V324H4231V0H3899ZM3899 1008Q3899 1064 3899 1120T3899 1233Q3831 1165 3767 1097T3637 963L3240 561H3899V1008Z"  />
<glyph unicode="&#xBD;" horiz-adv-x="4706" d="M467 1364V1606H881V2687L471 2605V2847L983 2966H1217V1606H1630V1364H467ZM737 -123L3547 3088H3969L1159 -123H737ZM2969 0V217L3502 602Q3620 688 3708 755T3854 880T3940 993T3969 1110Q3969 1176 3946 1226T3875 1311T3757 1363T3588 1381Q3517 1381 3445 1374T3303 1353T3167 1320T3043 1278V1532Q3095 1552 3155 1570T3285 1603T3434 1625T3604 1634Q3716 1634 3811 1618T3984 1572T4122 1496T4222 1394T4284 1268T4305 1118Q4305 1043 4282 978T4217 853T4118 739T3993 631T3849 526T3694 418L3436 242H4448V0H2969Z"  />
<glyph unicode="&#xBE;" horiz-adv-x="4706" d="M737 -123L3547 3088H3969L1159 -123H737ZM299 1675Q356 1657 422 1640T564 1610T721 1589T893 1581Q1013 1581 1100 1599T1246 1650T1332 1728T1360 1827Q1360 1878 1333 1923T1246 2002T1096 2057T877 2077H668V2319H877Q978 2319 1053 2334T1179 2379T1253 2448T1278 2540Q1278 2591 1253 2630T1178 2697T1056 2738T889 2753Q821 2753 749 2746T604 2726T465 2694T340 2650V2892Q391 2915 452 2934T584 2968T735 2990T905 2998Q1079 2998 1212 2968T1437 2881T1575 2745T1622 2564Q1622 2506 1603 2454T1544 2356T1448 2273T1315 2208Q1413 2182 1487 2142T1610 2051T1683 1939T1708 1811Q1708 1711 1661 1624T1514 1471T1264 1369T905 1331Q804 1331 717 1339T554 1360T416 1392T299 1430V1675ZM3899 0V324H2871L2867 541L3911 1602H4231V561H4567V324H4231V0H3899ZM3899 1008Q3899 1064 3899 1120T3899 1233Q3831 1165 3767 1097T3637 963L3240 561H3899V1008Z"  />
<glyph unicode="&#xBF;" horiz-adv-x="2322" d="M2232 -733Q2135 -775 2025 -808T1794 -864T1544 -900T1282 -913Q1126 -913 984 -893T720 -831T498 -727T328 -583T219 -398T180 -172Q180 -76 205 11T277 177T386 327T525 461T686 581T860 688L1298 938L1323 1290H1618L1655 741L1114 430Q988 358 894 289T736 148T642 2T610 -156Q610 -245 655 -318T787 -443T999 -524T1282 -553Q1396 -553 1517 -542T1760 -510T2001 -455T2232 -377V-733ZM1204 1602V2101H1704V1602H1204Z"  />
<glyph unicode="&#xC0;" horiz-adv-x="3494" d="M3002 0L2635 731L2634 733H848L847 731L483 0H20L1503 2966H1991L3473 0H3002ZM1917 2220Q1874 2307 1829 2399T1741 2580Q1697 2491 1653 2401T1565 2220L1000 1079L999 1077H2482L2481 1079L1917 2220ZM1577 3162L971 3810H1495L1946 3162H1577Z"  />
<glyph unicode="&#xC1;" horiz-adv-x="3494" d="M3002 0L2635 731L2634 733H848L847 731L483 0H20L1503 2966H1991L3473 0H3002ZM1917 2220Q1874 2307 1829 2399T1741 2580Q1697 2491 1653 2401T1565 2220L1000 1079L999 1077H2482L2481 1079L1917 2220ZM1540 3162L1990 3810H2515L1908 3162H1540Z"  />
<glyph unicode="&#xC2;" horiz-adv-x="3494" d="M3002 0L2635 731L2634 733H848L847 731L483 0H20L1503 2966H1991L3473 0H3002ZM1917 2220Q1874 2307 1829 2399T1741 2580Q1697 2491 1653 2401T1565 2220L1000 1079L999 1077H2482L2481 1079L1917 2220ZM2167 3162L1741 3490L1315 3162H947L1561 3810H1921L2536 3162H2167Z"  />
<glyph unicode="&#xC3;" horiz-adv-x="3494" d="M3002 0L2635 731L2634 733H848L847 731L483 0H20L1503 2966H1991L3473 0H3002ZM1917 2220Q1874 2307 1829 2399T1741 2580Q1697 2491 1653 2401T1565 2220L1000 1079L999 1077H2482L2481 1079L1917 2220ZM2519 3744Q2519 3641 2493 3545T2412 3373T2269 3253T2061 3208Q1988 3208 1926 3226T1808 3270T1705 3328T1611 3386T1524 3431T1438 3449Q1393 3449 1360 3434T1304 3391T1268 3321T1250 3228H967Q967 3331 993 3427T1075 3599T1217 3719T1426 3765Q1499 3765 1561 3747T1678 3702T1781 3644T1875 3586T1962 3541T2048 3523Q2093 3523 2126 3538T2182 3581T2218 3651T2237 3744H2519Z"  />
<glyph unicode="&#xC4;" horiz-adv-x="3494" d="M3002 0L2635 731L2634 733H848L847 731L483 0H20L1503 2966H1991L3473 0H3002ZM1917 2220Q1874 2307 1829 2399T1741 2580Q1697 2491 1653 2401T1565 2220L1000 1079L999 1077H2482L2481 1079L1917 2220ZM988 3281V3695H1426V3281H988ZM2057 3281V3695H2495V3281H2057Z"  />
<glyph unicode="&#xC5;" horiz-adv-x="3494" d="M3002 0L2635 731L2634 733H848L847 731L483 0H20L1503 2966H1991L3473 0H3002ZM1917 2220Q1874 2307 1829 2399T1741 2580Q1697 2491 1653 2401T1565 2220L1000 1079L999 1077H2482L2481 1079L1917 2220ZM2196 3580Q2196 3487 2161 3407T2064 3269T1919 3179T1741 3146Q1647 3146 1564 3178T1420 3269T1323 3407T1287 3580Q1287 3674 1322 3753T1419 3891T1564 3981T1741 4014Q1836 4014 1919 3982T2063 3891T2160 3754T2196 3580ZM1741 3355Q1790 3355 1831 3372T1902 3420T1949 3492T1966 3580Q1966 3627 1949 3667T1902 3738T1831 3787T1741 3806Q1692 3806 1651 3788T1580 3739T1533 3668T1516 3580Q1516 3533 1533 3492T1580 3421T1651 3373T1741 3355Z"  />
<glyph unicode="&#xC6;" horiz-adv-x="5100" d="M2429 0V733H836L414 0H-61L1667 2966H4788V2621H2851V1696H4542V1352H2851V344H4813V0H2429ZM2429 2621H1929L1036 1077H2429V2621Z"  />
<glyph unicode="&#xC7;" horiz-adv-x="3146" d="M1348 -643Q1388 -652 1431 -658T1540 -664Q1566 -664 1599 -659T1662 -638T1712 -598T1733 -532Q1733 -489 1709 -457T1646 -400T1556 -361T1454 -336L1634 -29Q1439 -4 1264 54T941 205T673 424T471 711T344 1064T299 1483Q299 1723 355 1930T513 2308T760 2610T1083 2832T1467 2968T1901 3015Q2022 3015 2146 3006T2391 2977T2624 2927T2834 2855V2490Q2724 2535 2611 2566T2387 2616T2168 2645T1958 2654Q1773 2654 1610 2622T1310 2525T1066 2363T883 2136T769 1843T729 1483Q729 1264 777 1092T911 789T1113 567T1364 417T1648 333T1946 307Q2124 307 2272 321T2538 356T2747 402T2900 451V98Q2828 70 2747 47T2577 7T2397 -22T2211 -40T2026 -48T1847 -45L1753 -246Q1810 -260 1858 -285T1943 -345T1999 -425T2019 -524Q2019 -618 1981 -686T1880 -798T1736 -864T1569 -885Q1507 -885 1452 -877T1348 -856V-643Z"  />
<glyph unicode="&#xC8;" horiz-adv-x="3162" d="M492 0V2966H2851V2621H913V1696H2605V1352H913V344H2875V0H492ZM1524 3162L918 3810H1442L1893 3162H1524Z"  />
<glyph unicode="&#xC9;" horiz-adv-x="3162" d="M492 0V2966H2851V2621H913V1696H2605V1352H913V344H2875V0H492ZM1487 3162L1937 3810H2462L1855 3162H1487Z"  />
<glyph unicode="&#xCA;" horiz-adv-x="3162" d="M492 0V2966H2851V2621H913V1696H2605V1352H913V344H2875V0H492ZM2113 3162L1687 3490L1261 3162H893L1507 3810H1867L2482 3162H2113Z"  />
<glyph unicode="&#xCB;" horiz-adv-x="3162" d="M492 0V2966H2851V2621H913V1696H2605V1352H913V344H2875V0H492ZM934 3281V3695H1372V3281H934ZM2003 3281V3695H2441V3281H2003Z"  />
<glyph unicode="&#xCC;" horiz-adv-x="2183" d="M328 0V344H881V2621H328V2966H1855V2621H1303V344H1855V0H328ZM923 3162L317 3810H841L1292 3162H923Z"  />
<glyph unicode="&#xCD;" horiz-adv-x="2183" d="M328 0V344H881V2621H328V2966H1855V2621H1303V344H1855V0H328ZM885 3162L1335 3810H1860L1253 3162H885Z"  />
<glyph unicode="&#xCE;" horiz-adv-x="2183" d="M328 0V344H881V2621H328V2966H1855V2621H1303V344H1855V0H328ZM1511 3162L1085 3490L659 3162H291L905 3810H1265L1880 3162H1511Z"  />
<glyph unicode="&#xCF;" horiz-adv-x="2183" d="M328 0V344H881V2621H328V2966H1855V2621H1303V344H1855V0H328ZM332 3281V3695H770V3281H332ZM1401 3281V3695H1839V3281H1401Z"  />
<glyph unicode="&#xD0;" horiz-adv-x="3641" d="M541 0V1331H254V1638H541V2966H1720Q1980 2966 2201 2919T2603 2783T2921 2564T3152 2270T3294 1907T3342 1483Q3342 1265 3293 1070T3148 711T2912 415T2592 191T2193 49T1720 0H541ZM1749 344Q1943 344 2105 382T2396 492T2622 664T2783 892T2880 1168T2912 1483Q2912 1649 2880 1797T2784 2072T2623 2300T2397 2473T2105 2582T1749 2621H963V1638H1778V1331H963V344H1749Z"  />
<glyph unicode="&#xD1;" horiz-adv-x="3932" d="M2982 0L1249 2032Q1163 2134 1078 2234T905 2437Q905 2375 905 2315T905 2194T905 2072T905 1950V0H492V2966H950L2679 930Q2722 879 2765 829T2852 727T2940 626T3027 524Q3027 585 3027 646T3027 768T3027 889T3027 1012V2966H3441V0H2982ZM2744 3744Q2744 3641 2718 3545T2637 3373T2494 3253T2286 3208Q2213 3208 2151 3226T2033 3270T1930 3328T1836 3386T1749 3431T1663 3449Q1618 3449 1585 3434T1529 3391T1493 3321T1475 3228H1192Q1192 3331 1218 3427T1300 3599T1442 3719T1651 3765Q1724 3765 1786 3747T1903 3702T2006 3644T2100 3586T2187 3541T2273 3523Q2318 3523 2351 3538T2407 3581T2443 3651T2462 3744H2744Z"  />
<glyph unicode="&#xD2;" horiz-adv-x="3760" d="M1880 -49Q1620 -49 1402 1T1008 147T700 377T478 683T344 1055T299 1483Q299 1701 345 1899T483 2268T708 2576T1018 2811T1410 2962T1880 3015Q2140 3015 2358 2965T2752 2819T3060 2589T3282 2283T3416 1911T3461 1483Q3461 1265 3415 1067T3277 698T3052 390T2742 155T2350 4T1880 -49ZM1880 287Q2075 287 2235 329T2524 449T2747 636T2905 878T3000 1164T3031 1483Q3031 1649 3000 1802T2906 2088T2747 2330T2524 2516T2235 2636T1880 2679Q1686 2679 1525 2637T1236 2517T1013 2330T855 2088T760 1802T729 1483Q729 1317 760 1164T854 878T1013 636T1236 450T1524 330T1880 287ZM1716 3162L1110 3810H1634L2085 3162H1716Z"  />
<glyph unicode="&#xD3;" horiz-adv-x="3760" d="M1880 -49Q1620 -49 1402 1T1008 147T700 377T478 683T344 1055T299 1483Q299 1701 345 1899T483 2268T708 2576T1018 2811T1410 2962T1880 3015Q2140 3015 2358 2965T2752 2819T3060 2589T3282 2283T3416 1911T3461 1483Q3461 1265 3415 1067T3277 698T3052 390T2742 155T2350 4T1880 -49ZM1880 287Q2075 287 2235 329T2524 449T2747 636T2905 878T3000 1164T3031 1483Q3031 1649 3000 1802T2906 2088T2747 2330T2524 2516T2235 2636T1880 2679Q1686 2679 1525 2637T1236 2517T1013 2330T855 2088T760 1802T729 1483Q729 1317 760 1164T854 878T1013 636T1236 450T1524 330T1880 287ZM1680 3162L2130 3810H2655L2048 3162H1680Z"  />
<glyph unicode="&#xD4;" horiz-adv-x="3760" d="M1880 -49Q1620 -49 1402 1T1008 147T700 377T478 683T344 1055T299 1483Q299 1701 345 1899T483 2268T708 2576T1018 2811T1410 2962T1880 3015Q2140 3015 2358 2965T2752 2819T3060 2589T3282 2283T3416 1911T3461 1483Q3461 1265 3415 1067T3277 698T3052 390T2742 155T2350 4T1880 -49ZM1880 287Q2075 287 2235 329T2524 449T2747 636T2905 878T3000 1164T3031 1483Q3031 1649 3000 1802T2906 2088T2747 2330T2524 2516T2235 2636T1880 2679Q1686 2679 1525 2637T1236 2517T1013 2330T855 2088T760 1802T729 1483Q729 1317 760 1164T854 878T1013 636T1236 450T1524 330T1880 287ZM2306 3162L1880 3490L1454 3162H1086L1700 3810H2060L2675 3162H2306Z"  />
<glyph unicode="&#xD5;" horiz-adv-x="3760" d="M1880 -49Q1620 -49 1402 1T1008 147T700 377T478 683T344 1055T299 1483Q299 1701 345 1899T483 2268T708 2576T1018 2811T1410 2962T1880 3015Q2140 3015 2358 2965T2752 2819T3060 2589T3282 2283T3416 1911T3461 1483Q3461 1265 3415 1067T3277 698T3052 390T2742 155T2350 4T1880 -49ZM1880 287Q2075 287 2235 329T2524 449T2747 636T2905 878T3000 1164T3031 1483Q3031 1649 3000 1802T2906 2088T2747 2330T2524 2516T2235 2636T1880 2679Q1686 2679 1525 2637T1236 2517T1013 2330T855 2088T760 1802T729 1483Q729 1317 760 1164T854 878T1013 636T1236 450T1524 330T1880 287ZM2658 3744Q2658 3641 2632 3545T2551 3373T2408 3253T2200 3208Q2127 3208 2065 3226T1947 3270T1844 3328T1750 3386T1663 3431T1577 3449Q1532 3449 1499 3434T1443 3391T1407 3321T1389 3228H1106Q1106 3331 1132 3427T1214 3599T1356 3719T1565 3765Q1638 3765 1700 3747T1817 3702T1920 3644T2014 3586T2101 3541T2187 3523Q2232 3523 2265 3538T2321 3581T2357 3651T2376 3744H2658Z"  />
<glyph unicode="&#xD6;" horiz-adv-x="3760" d="M1880 -49Q1620 -49 1402 1T1008 147T700 377T478 683T344 1055T299 1483Q299 1701 345 1899T483 2268T708 2576T1018 2811T1410 2962T1880 3015Q2140 3015 2358 2965T2752 2819T3060 2589T3282 2283T3416 1911T3461 1483Q3461 1265 3415 1067T3277 698T3052 390T2742 155T2350 4T1880 -49ZM1880 287Q2075 287 2235 329T2524 449T2747 636T2905 878T3000 1164T3031 1483Q3031 1649 3000 1802T2906 2088T2747 2330T2524 2516T2235 2636T1880 2679Q1686 2679 1525 2637T1236 2517T1013 2330T855 2088T760 1802T729 1483Q729 1317 760 1164T854 878T1013 636T1236 450T1524 330T1880 287ZM1127 3281V3695H1565V3281H1127ZM2196 3281V3695H2634V3281H2196Z"  />
<glyph unicode="&#xD7;" horiz-adv-x="3039" d="M1516 1016L655 340L401 541L1262 1217L401 1896L655 2097L1516 1417L2380 2097L2634 1896L1769 1217L2634 541L2380 340L1516 1016Z"  />
<glyph unicode="&#xD8;" horiz-adv-x="3760" d="M205 0L639 442Q555 542 491 658T385 906T321 1181T299 1483Q299 1701 345 1899T483 2268T708 2576T1018 2811T1410 2962T1880 3015Q2190 3015 2439 2944T2879 2740L3101 2966H3555L3121 2519Q3205 2421 3269 2305T3375 2058T3439 1783T3461 1483Q3461 1265 3415 1067T3277 698T3052 390T2742 155T2350 4T1880 -49Q1569 -49 1319 22T881 225L659 0H205ZM2605 2458Q2470 2562 2289 2620T1880 2679Q1686 2679 1525 2637T1236 2517T1013 2330T855 2088T760 1802T729 1483Q729 1272 778 1084T930 741L2605 2458ZM1151 504Q1289 400 1471 344T1880 287Q2075 287 2235 329T2524 449T2747 636T2905 878T3000 1164T3031 1483Q3031 1693 2982 1880T2830 2220L1151 504Z"  />
<glyph unicode="&#xD9;" horiz-adv-x="3600" d="M2736 2966H3158V1118Q3158 936 3115 779T2989 492T2787 261T2516 92T2185 -13T1798 -49Q1589 -49 1408 -13T1076 91T807 261T608 491T485 778T442 1118V2966H864V1151Q864 944 923 786T1099 520T1391 358T1798 303Q2032 303 2207 357T2500 519T2677 785T2736 1151V2966ZM1634 3162L1028 3810H1552L2003 3162H1634Z"  />
<glyph unicode="&#xDA;" horiz-adv-x="3600" d="M2736 2966H3158V1118Q3158 936 3115 779T2989 492T2787 261T2516 92T2185 -13T1798 -49Q1589 -49 1408 -13T1076 91T807 261T608 491T485 778T442 1118V2966H864V1151Q864 944 923 786T1099 520T1391 358T1798 303Q2032 303 2207 357T2500 519T2677 785T2736 1151V2966ZM1598 3162L2048 3810H2573L1966 3162H1598Z"  />
<glyph unicode="&#xDB;" horiz-adv-x="3600" d="M2736 2966H3158V1118Q3158 936 3115 779T2989 492T2787 261T2516 92T2185 -13T1798 -49Q1589 -49 1408 -13T1076 91T807 261T608 491T485 778T442 1118V2966H864V1151Q864 944 923 786T1099 520T1391 358T1798 303Q2032 303 2207 357T2500 519T2677 785T2736 1151V2966ZM2224 3162L1798 3490L1372 3162H1004L1618 3810H1978L2593 3162H2224Z"  />
<glyph unicode="&#xDC;" horiz-adv-x="3600" d="M2736 2966H3158V1118Q3158 936 3115 779T2989 492T2787 261T2516 92T2185 -13T1798 -49Q1589 -49 1408 -13T1076 91T807 261T608 491T485 778T442 1118V2966H864V1151Q864 944 923 786T1099 520T1391 358T1798 303Q2032 303 2207 357T2500 519T2677 785T2736 1151V2966ZM1045 3281V3695H1483V3281H1045ZM2114 3281V3695H2552V3281H2114Z"  />
<glyph unicode="&#xDD;" horiz-adv-x="3183" d="M1380 0V1106L8 2966H504L1593 1446L2695 2966H3174L1802 1110V0H1380ZM1389 3162L1839 3810H2364L1757 3162H1389Z"  />
<glyph unicode="&#xDE;" horiz-adv-x="3142" d="M492 0V2966H910V2433H1659Q1888 2433 2068 2403T2387 2315T2622 2175T2781 1991T2871 1767T2900 1511Q2900 1308 2832 1137T2612 840T2221 644T1639 573H910V0H492ZM1569 918Q1825 918 1998 957T2276 1071T2425 1257T2470 1511Q2470 1654 2426 1762T2276 1943T1998 2052T1569 2089H910V918H1569Z"  />
<glyph unicode="&#xDF;" horiz-adv-x="3252" d="M1335 406Q1409 377 1495 353T1672 311T1858 284T2044 274Q2204 274 2325 295T2527 361T2650 479T2691 655Q2691 727 2665 788T2590 901T2475 1000T2328 1086T2157 1164T1970 1237L1335 1475V1753L1569 1810Q1673 1836 1772 1862T1958 1918T2119 1987T2244 2073T2326 2184T2355 2327Q2355 2425 2300 2495T2147 2611T1923 2677T1634 2699Q1445 2699 1301 2653T1062 2513T923 2278T877 1946V0H471V1995Q471 2163 506 2303T610 2557T779 2756T1008 2899T1295 2986T1634 3015Q1808 3015 1949 2997T2216 2943T2443 2851T2616 2722T2726 2553T2765 2343Q2765 2196 2699 2078T2517 1869T2245 1714T1908 1610L1888 1606L2208 1491Q2352 1439 2474 1388T2697 1280T2873 1161T3000 1021T3078 851T3105 643Q3105 529 3075 434T2984 261T2836 126T2631 29T2370 -29T2056 -49Q1961 -49 1865 -41T1676 -16T1497 25T1335 82V406Z"  />
<glyph unicode="&#xE0;" horiz-adv-x="2941" d="M2175 0L2142 193Q2065 137 1968 93T1757 17T1515 -32T1249 -49Q1052 -49 883 -11T588 106T391 303T319 582Q319 686 351 775T449 936T619 1063T866 1156T1193 1213T1606 1233Q1692 1233 1781 1231T1949 1225T2109 1217V1290Q2109 1419 2070 1518T1946 1685T1729 1788T1413 1823Q1255 1823 1130 1813T901 1782T704 1733T520 1667V1982Q603 2019 698 2050T908 2103T1156 2137T1450 2150Q1688 2150 1884 2101T2220 1951T2438 1699T2515 1343V0H2175ZM2109 934H1704Q1441 934 1258 915T958 856T790 751T737 598Q737 517 770 454T875 349T1058 284T1327 262Q1448 262 1560 276T1772 316T1956 381T2109 467V934ZM1319 2408L713 3056H1237L1688 2408H1319Z"  />
<glyph unicode="&#xE1;" horiz-adv-x="2941" d="M2175 0L2142 193Q2065 137 1968 93T1757 17T1515 -32T1249 -49Q1052 -49 883 -11T588 106T391 303T319 582Q319 686 351 775T449 936T619 1063T866 1156T1193 1213T1606 1233Q1692 1233 1781 1231T1949 1225T2109 1217V1290Q2109 1419 2070 1518T1946 1685T1729 1788T1413 1823Q1255 1823 1130 1813T901 1782T704 1733T520 1667V1982Q603 2019 698 2050T908 2103T1156 2137T1450 2150Q1688 2150 1884 2101T2220 1951T2438 1699T2515 1343V0H2175ZM2109 934H1704Q1441 934 1258 915T958 856T790 751T737 598Q737 517 770 454T875 349T1058 284T1327 262Q1448 262 1560 276T1772 316T1956 381T2109 467V934ZM1282 2408L1732 3056H2257L1650 2408H1282Z"  />
<glyph unicode="&#xE2;" horiz-adv-x="2941" d="M2175 0L2142 193Q2065 137 1968 93T1757 17T1515 -32T1249 -49Q1052 -49 883 -11T588 106T391 303T319 582Q319 686 351 775T449 936T619 1063T866 1156T1193 1213T1606 1233Q1692 1233 1781 1231T1949 1225T2109 1217V1290Q2109 1419 2070 1518T1946 1685T1729 1788T1413 1823Q1255 1823 1130 1813T901 1782T704 1733T520 1667V1982Q603 2019 698 2050T908 2103T1156 2137T1450 2150Q1688 2150 1884 2101T2220 1951T2438 1699T2515 1343V0H2175ZM2109 934H1704Q1441 934 1258 915T958 856T790 751T737 598Q737 517 770 454T875 349T1058 284T1327 262Q1448 262 1560 276T1772 316T1956 381T2109 467V934ZM1909 2408L1483 2736L1057 2408H689L1303 3056H1663L2278 2408H1909Z"  />
<glyph unicode="&#xE3;" horiz-adv-x="2941" d="M2175 0L2142 193Q2065 137 1968 93T1757 17T1515 -32T1249 -49Q1052 -49 883 -11T588 106T391 303T319 582Q319 686 351 775T449 936T619 1063T866 1156T1193 1213T1606 1233Q1692 1233 1781 1231T1949 1225T2109 1217V1290Q2109 1419 2070 1518T1946 1685T1729 1788T1413 1823Q1255 1823 1130 1813T901 1782T704 1733T520 1667V1982Q603 2019 698 2050T908 2103T1156 2137T1450 2150Q1688 2150 1884 2101T2220 1951T2438 1699T2515 1343V0H2175ZM2109 934H1704Q1441 934 1258 915T958 856T790 751T737 598Q737 517 770 454T875 349T1058 284T1327 262Q1448 262 1560 276T1772 316T1956 381T2109 467V934ZM2261 2990Q2261 2887 2235 2791T2154 2619T2011 2499T1803 2454Q1730 2454 1668 2472T1550 2516T1447 2574T1353 2632T1266 2677T1180 2695Q1135 2695 1102 2680T1046 2637T1010 2567T992 2474H709Q709 2577 735 2673T817 2845T959 2965T1168 3011Q1241 3011 1303 2993T1420 2948T1523 2890T1617 2832T1704 2787T1790 2769Q1835 2769 1868 2784T1924 2827T1960 2897T1979 2990H2261Z"  />
<glyph unicode="&#xE4;" horiz-adv-x="2941" d="M2175 0L2142 193Q2065 137 1968 93T1757 17T1515 -32T1249 -49Q1052 -49 883 -11T588 106T391 303T319 582Q319 686 351 775T449 936T619 1063T866 1156T1193 1213T1606 1233Q1692 1233 1781 1231T1949 1225T2109 1217V1290Q2109 1419 2070 1518T1946 1685T1729 1788T1413 1823Q1255 1823 1130 1813T901 1782T704 1733T520 1667V1982Q603 2019 698 2050T908 2103T1156 2137T1450 2150Q1688 2150 1884 2101T2220 1951T2438 1699T2515 1343V0H2175ZM2109 934H1704Q1441 934 1258 915T958 856T790 751T737 598Q737 517 770 454T875 349T1058 284T1327 262Q1448 262 1560 276T1772 316T1956 381T2109 467V934ZM730 2527V2941H1168V2527H730ZM1799 2527V2941H2237V2527H1799Z"  />
<glyph unicode="&#xE5;" horiz-adv-x="2941" d="M2175 0L2142 193Q2065 137 1968 93T1757 17T1515 -32T1249 -49Q1052 -49 883 -11T588 106T391 303T319 582Q319 686 351 775T449 936T619 1063T866 1156T1193 1213T1606 1233Q1692 1233 1781 1231T1949 1225T2109 1217V1290Q2109 1419 2070 1518T1946 1685T1729 1788T1413 1823Q1255 1823 1130 1813T901 1782T704 1733T520 1667V1982Q603 2019 698 2050T908 2103T1156 2137T1450 2150Q1688 2150 1884 2101T2220 1951T2438 1699T2515 1343V0H2175ZM2109 934H1704Q1441 934 1258 915T958 856T790 751T737 598Q737 517 770 454T875 349T1058 284T1327 262Q1448 262 1560 276T1772 316T1956 381T2109 467V934ZM1938 2826Q1938 2733 1903 2653T1806 2515T1661 2425T1483 2392Q1389 2392 1306 2424T1162 2515T1065 2653T1029 2826Q1029 2920 1064 2999T1161 3137T1306 3227T1483 3260Q1578 3260 1661 3228T1805 3137T1902 3000T1938 2826ZM1483 2601Q1532 2601 1573 2618T1644 2666T1691 2738T1708 2826Q1708 2873 1691 2913T1644 2984T1573 3033T1483 3052Q1434 3052 1393 3034T1322 2985T1275 2914T1258 2826Q1258 2779 1275 2738T1322 2667T1393 2619T1483 2601Z"  />
<glyph unicode="&#xE6;" horiz-adv-x="4694" d="M4297 143Q4208 102 4104 67T3880 6T3626 -34T3342 -49Q3168 -49 3021 -24T2752 50T2532 167T2359 324Q2275 247 2157 179T1896 61T1590 -19T1249 -49Q1052 -49 883 -9T588 111T391 310T319 590Q319 694 351 783T449 946T619 1076T866 1171T1193 1229T1606 1249Q1726 1249 1857 1244T2109 1233V1290Q2109 1419 2066 1518T1936 1685T1719 1788T1413 1823Q1255 1823 1130 1813T901 1782T704 1733T520 1667V1982Q603 2019 698 2050T908 2103T1156 2137T1450 2150Q1610 2150 1749 2125T2003 2051T2207 1929T2359 1761Q2431 1850 2525 1922T2734 2044T2986 2122T3281 2150Q3464 2150 3621 2116T3907 2017T4135 1861T4302 1656T4405 1408T4440 1126Q4440 1106 4440 1082T4438 1032T4435 986T4432 950H2519Q2530 810 2579 688T2729 475T2986 332T3367 279Q3519 279 3648 294T3891 336T4105 396T4297 467V143ZM1704 950Q1441 950 1258 930T958 867T790 760T737 606Q737 525 770 461T875 353T1058 285T1327 262Q1447 262 1572 285T1816 347T2039 436T2220 541Q2177 634 2150 735T2114 950H1704ZM4043 1262Q4034 1389 3973 1495T3810 1678T3573 1796T3281 1839Q3123 1839 2988 1797T2751 1678T2588 1496T2515 1262H4043Z"  />
<glyph unicode="&#xE7;" horiz-adv-x="2568" d="M995 -643Q1036 -652 1079 -658T1188 -664Q1214 -664 1247 -659T1309 -638T1359 -598T1380 -532Q1380 -489 1356 -457T1293 -400T1204 -361T1102 -336L1278 -37Q1041 -14 856 73T542 302T347 633T279 1053Q279 1209 313 1351T415 1616T587 1836T830 2004T1144 2112T1532 2150Q1638 2150 1743 2141T1946 2114T2129 2072T2281 2019V1688Q2212 1715 2127 1739T1946 1782T1743 1812T1524 1823Q1304 1823 1148 1767T891 1610T743 1367T696 1053Q696 864 753 720T915 477T1168 329T1499 279Q1639 279 1758 294T1979 334T2163 389T2314 451V111Q2240 79 2159 51T1980 1T1763 -34T1495 -49L1401 -246Q1458 -260 1506 -285T1590 -345T1646 -425T1667 -524Q1667 -587 1650 -638T1601 -729T1528 -798T1435 -847T1330 -875T1217 -885Q1155 -885 1100 -877T995 -856V-643Z"  />
<glyph unicode="&#xE8;" horiz-adv-x="2863" d="M2466 143Q2377 102 2276 67T2058 6T1805 -34T1511 -49Q1304 -49 1133 -11T824 98T585 270T415 496T313 769T279 1081Q279 1231 314 1369T417 1625T585 1841T815 2006T1104 2112T1450 2150Q1633 2150 1790 2116T2076 2017T2304 1861T2471 1656T2574 1408T2609 1126Q2609 1106 2609 1084T2607 1041T2604 1000T2601 967H684Q695 810 753 683T919 466T1185 328T1556 279Q1708 279 1834 294T2070 336T2277 396T2466 467V143ZM2212 1278Q2198 1402 2136 1505T1973 1683T1739 1798T1450 1839Q1295 1839 1161 1798T926 1683T763 1506T688 1278H2212ZM1315 2408L709 3056H1233L1684 2408H1315Z"  />
<glyph unicode="&#xE9;" horiz-adv-x="2863" d="M2466 143Q2377 102 2276 67T2058 6T1805 -34T1511 -49Q1304 -49 1133 -11T824 98T585 270T415 496T313 769T279 1081Q279 1231 314 1369T417 1625T585 1841T815 2006T1104 2112T1450 2150Q1633 2150 1790 2116T2076 2017T2304 1861T2471 1656T2574 1408T2609 1126Q2609 1106 2609 1084T2607 1041T2604 1000T2601 967H684Q695 810 753 683T919 466T1185 328T1556 279Q1708 279 1834 294T2070 336T2277 396T2466 467V143ZM2212 1278Q2198 1402 2136 1505T1973 1683T1739 1798T1450 1839Q1295 1839 1161 1798T926 1683T763 1506T688 1278H2212ZM1278 2408L1728 3056H2253L1646 2408H1278Z"  />
<glyph unicode="&#xEA;" horiz-adv-x="2863" d="M2466 143Q2377 102 2276 67T2058 6T1805 -34T1511 -49Q1304 -49 1133 -11T824 98T585 270T415 496T313 769T279 1081Q279 1231 314 1369T417 1625T585 1841T815 2006T1104 2112T1450 2150Q1633 2150 1790 2116T2076 2017T2304 1861T2471 1656T2574 1408T2609 1126Q2609 1106 2609 1084T2607 1041T2604 1000T2601 967H684Q695 810 753 683T919 466T1185 328T1556 279Q1708 279 1834 294T2070 336T2277 396T2466 467V143ZM2212 1278Q2198 1402 2136 1505T1973 1683T1739 1798T1450 1839Q1295 1839 1161 1798T926 1683T763 1506T688 1278H2212ZM1904 2408L1478 2736L1052 2408H684L1298 3056H1658L2273 2408H1904Z"  />
<glyph unicode="&#xEB;" horiz-adv-x="2863" d="M2466 143Q2377 102 2276 67T2058 6T1805 -34T1511 -49Q1304 -49 1133 -11T824 98T585 270T415 496T313 769T279 1081Q279 1231 314 1369T417 1625T585 1841T815 2006T1104 2112T1450 2150Q1633 2150 1790 2116T2076 2017T2304 1861T2471 1656T2574 1408T2609 1126Q2609 1106 2609 1084T2607 1041T2604 1000T2601 967H684Q695 810 753 683T919 466T1185 328T1556 279Q1708 279 1834 294T2070 336T2277 396T2466 467V143ZM2212 1278Q2198 1402 2136 1505T1973 1683T1739 1798T1450 1839Q1295 1839 1161 1798T926 1683T763 1506T688 1278H2212ZM725 2527V2941H1163V2527H725ZM1794 2527V2941H2232V2527H1794Z"  />
<glyph unicode="&#xEC;" horiz-adv-x="1348" d="M471 0V2101H877V0H471ZM509 2408L-97 3056H427L878 2408H509Z"  />
<glyph unicode="&#xED;" horiz-adv-x="1348" d="M471 0V2101H877V0H471ZM472 2408L922 3056H1447L840 2408H472Z"  />
<glyph unicode="&#xEE;" horiz-adv-x="1348" d="M471 0V2101H877V0H471ZM1099 2408L673 2736L247 2408H-121L493 3056H853L1468 2408H1099Z"  />
<glyph unicode="&#xEF;" horiz-adv-x="1348" d="M471 0V2101H877V0H471ZM-80 2527V2941H358V2527H-80ZM989 2527V2941H1427V2527H989Z"  />
<glyph unicode="&#xF0;" horiz-adv-x="3088" d="M1942 2560Q2128 2423 2286 2258T2561 1903T2744 1498T2810 1049Q2810 876 2776 727T2671 456T2497 240T2251 82T1934 -16T1544 -49Q1328 -49 1151 -15T832 83T588 239T415 447T313 702T279 999Q279 1155 318 1293T430 1547T609 1755T846 1911T1136 2010T1470 2044Q1597 2044 1703 2031T1896 1994T2055 1937T2187 1864Q2067 2034 1924 2176T1614 2433L860 2146V2417L1335 2601Q1215 2663 1088 2715T823 2814L897 3047Q994 3023 1092 2991T1289 2919T1484 2833T1675 2732L2367 2998V2724L1942 2560ZM1544 266Q1753 266 1911 313T2177 452T2338 681T2392 995Q2392 1173 2338 1310T2177 1540T1912 1681T1544 1729Q1335 1729 1177 1682T911 1543T750 1314T696 999Q696 880 720 780T792 598T911 454T1076 351T1288 288T1544 266Z"  />
<glyph unicode="&#xF1;" horiz-adv-x="3174" d="M2343 0V1274Q2343 1431 2301 1537T2176 1709T1968 1802T1679 1831Q1561 1831 1448 1813T1231 1765T1037 1695T877 1610V0H471V2101H811L844 1892Q922 1949 1023 1996T1243 2078T1493 2131T1765 2150Q1897 2150 2021 2134T2255 2079T2455 1980T2611 1829T2712 1619T2748 1343V0H2343ZM2404 2990Q2404 2887 2378 2791T2297 2619T2154 2499T1946 2454Q1873 2454 1811 2472T1693 2516T1590 2574T1496 2632T1409 2677T1323 2695Q1278 2695 1245 2680T1189 2637T1153 2567T1135 2474H852Q852 2577 878 2673T960 2845T1102 2965T1311 3011Q1384 3011 1446 2993T1563 2948T1666 2890T1760 2832T1847 2787T1933 2769Q1978 2769 2011 2784T2067 2827T2103 2897T2122 2990H2404Z"  />
<glyph unicode="&#xF2;" horiz-adv-x="3088" d="M1544 -49Q1323 -49 1143 -11T823 96T580 265T410 486T311 752T279 1053Q279 1208 312 1350T413 1614T584 1835T828 2004T1147 2112T1544 2150Q1765 2150 1945 2112T2265 2005T2509 1836T2678 1615T2777 1349T2810 1049Q2810 893 2777 751T2676 487T2505 266T2261 97T1941 -11T1544 -49ZM1544 266Q1762 266 1922 321T2186 479T2341 725T2392 1049Q2392 1227 2342 1372T2187 1620T1922 1779T1544 1835Q1326 1835 1167 1780T903 1622T747 1376T696 1053Q696 875 747 730T902 481T1166 322T1544 266ZM1384 2408L778 3056H1302L1753 2408H1384Z"  />
<glyph unicode="&#xF3;" horiz-adv-x="3088" d="M1544 -49Q1323 -49 1143 -11T823 96T580 265T410 486T311 752T279 1053Q279 1208 312 1350T413 1614T584 1835T828 2004T1147 2112T1544 2150Q1765 2150 1945 2112T2265 2005T2509 1836T2678 1615T2777 1349T2810 1049Q2810 893 2777 751T2676 487T2505 266T2261 97T1941 -11T1544 -49ZM1544 266Q1762 266 1922 321T2186 479T2341 725T2392 1049Q2392 1227 2342 1372T2187 1620T1922 1779T1544 1835Q1326 1835 1167 1780T903 1622T747 1376T696 1053Q696 875 747 730T902 481T1166 322T1544 266ZM1348 2408L1798 3056H2323L1716 2408H1348Z"  />
<glyph unicode="&#xF4;" horiz-adv-x="3088" d="M1544 -49Q1323 -49 1143 -11T823 96T580 265T410 486T311 752T279 1053Q279 1208 312 1350T413 1614T584 1835T828 2004T1147 2112T1544 2150Q1765 2150 1945 2112T2265 2005T2509 1836T2678 1615T2777 1349T2810 1049Q2810 893 2777 751T2676 487T2505 266T2261 97T1941 -11T1544 -49ZM1544 266Q1762 266 1922 321T2186 479T2341 725T2392 1049Q2392 1227 2342 1372T2187 1620T1922 1779T1544 1835Q1326 1835 1167 1780T903 1622T747 1376T696 1053Q696 875 747 730T902 481T1166 322T1544 266ZM1974 2408L1548 2736L1122 2408H754L1368 3056H1728L2343 2408H1974Z"  />
<glyph unicode="&#xF5;" horiz-adv-x="3088" d="M1544 -49Q1323 -49 1143 -11T823 96T580 265T410 486T311 752T279 1053Q279 1208 312 1350T413 1614T584 1835T828 2004T1147 2112T1544 2150Q1765 2150 1945 2112T2265 2005T2509 1836T2678 1615T2777 1349T2810 1049Q2810 893 2777 751T2676 487T2505 266T2261 97T1941 -11T1544 -49ZM1544 266Q1762 266 1922 321T2186 479T2341 725T2392 1049Q2392 1227 2342 1372T2187 1620T1922 1779T1544 1835Q1326 1835 1167 1780T903 1622T747 1376T696 1053Q696 875 747 730T902 481T1166 322T1544 266ZM2334 2990Q2334 2887 2308 2791T2227 2619T2084 2499T1876 2454Q1803 2454 1741 2472T1623 2516T1520 2574T1426 2632T1339 2677T1253 2695Q1208 2695 1175 2680T1119 2637T1083 2567T1065 2474H782Q782 2577 808 2673T890 2845T1032 2965T1241 3011Q1314 3011 1376 2993T1493 2948T1596 2890T1690 2832T1777 2787T1863 2769Q1908 2769 1941 2784T1997 2827T2033 2897T2052 2990H2334Z"  />
<glyph unicode="&#xF6;" horiz-adv-x="3088" d="M1544 -49Q1323 -49 1143 -11T823 96T580 265T410 486T311 752T279 1053Q279 1208 312 1350T413 1614T584 1835T828 2004T1147 2112T1544 2150Q1765 2150 1945 2112T2265 2005T2509 1836T2678 1615T2777 1349T2810 1049Q2810 893 2777 751T2676 487T2505 266T2261 97T1941 -11T1544 -49ZM1544 266Q1762 266 1922 321T2186 479T2341 725T2392 1049Q2392 1227 2342 1372T2187 1620T1922 1779T1544 1835Q1326 1835 1167 1780T903 1622T747 1376T696 1053Q696 875 747 730T902 481T1166 322T1544 266ZM795 2527V2941H1233V2527H795ZM1864 2527V2941H2302V2527H1864Z"  />
<glyph unicode="&#xF7;" horiz-adv-x="3039" d="M262 1069V1389H2777V1069H262ZM1270 1958V2458H1769V1958H1270ZM1270 0V500H1769V0H1270Z"  />
<glyph unicode="&#xF8;" horiz-adv-x="3088" d="M139 0L512 332Q452 402 408 484T336 657T293 847T279 1053Q279 1208 312 1350T413 1614T584 1835T828 2004T1147 2112T1544 2150Q1799 2150 1999 2100T2347 1958L2511 2101H2949L2572 1769Q2633 1697 2678 1615T2752 1441T2796 1252T2810 1049Q2810 893 2777 751T2676 487T2505 266T2261 97T1941 -11T1544 -49Q1286 -49 1087 1T737 143L578 0H139ZM1016 389Q1118 330 1247 298T1544 266Q1762 266 1922 321T2186 479T2341 725T2392 1049Q2392 1182 2364 1296T2277 1503L1016 389ZM2068 1708Q1969 1770 1839 1802T1544 1835Q1326 1835 1167 1780T903 1622T747 1376T696 1053Q696 916 724 803T811 594L2068 1708Z"  />
<glyph unicode="&#xF9;" horiz-adv-x="3133" d="M2322 0L2290 180Q2212 129 2116 87T1911 15T1680 -32T1430 -49Q1298 -49 1172 -36T935 12T730 103T569 247T464 455T426 737V2101H831V807Q831 658 876 556T1009 390T1223 298T1516 270Q1636 270 1735 283T1922 321T2091 384T2257 471V2101H2662V0H2322ZM1380 2408L774 3056H1298L1749 2408H1380Z"  />
<glyph unicode="&#xFA;" horiz-adv-x="3133" d="M2322 0L2290 180Q2212 129 2116 87T1911 15T1680 -32T1430 -49Q1298 -49 1172 -36T935 12T730 103T569 247T464 455T426 737V2101H831V807Q831 658 876 556T1009 390T1223 298T1516 270Q1636 270 1735 283T1922 321T2091 384T2257 471V2101H2662V0H2322ZM1344 2408L1794 3056H2319L1712 2408H1344Z"  />
<glyph unicode="&#xFB;" horiz-adv-x="3133" d="M2322 0L2290 180Q2212 129 2116 87T1911 15T1680 -32T1430 -49Q1298 -49 1172 -36T935 12T730 103T569 247T464 455T426 737V2101H831V807Q831 658 876 556T1009 390T1223 298T1516 270Q1636 270 1735 283T1922 321T2091 384T2257 471V2101H2662V0H2322ZM1970 2408L1544 2736L1118 2408H750L1364 3056H1724L2339 2408H1970Z"  />
<glyph unicode="&#xFC;" horiz-adv-x="3133" d="M2322 0L2290 180Q2212 129 2116 87T1911 15T1680 -32T1430 -49Q1298 -49 1172 -36T935 12T730 103T569 247T464 455T426 737V2101H831V807Q831 658 876 556T1009 390T1223 298T1516 270Q1636 270 1735 283T1922 321T2091 384T2257 471V2101H2662V0H2322ZM791 2527V2941H1229V2527H791ZM1860 2527V2941H2298V2527H1860Z"  />
<glyph unicode="&#xFD;" horiz-adv-x="2630" d="M16 -553Q57 -562 106 -570T221 -578Q316 -578 401 -565T561 -523T704 -453T831 -352T946 -219T1049 -53L1102 45L49 2101H500L1180 717Q1217 642 1251 571T1323 422Q1360 499 1394 573T1466 721L2138 2101H2580L1470 -61Q1403 -191 1330 -305T1173 -513T990 -682T776 -808T524 -886T225 -913Q201 -913 173 -912T116 -907T62 -898T16 -885V-553ZM1098 2408L1548 3056H2073L1466 2408H1098Z"  />
<glyph unicode="&#xFE;" horiz-adv-x="3174" d="M471 -864V2966H876V1909Q919 1943 987 1984T1151 2063T1371 2125T1650 2150Q1953 2150 2185 2069T2576 1841T2815 1494T2896 1053Q2896 893 2860 750T2752 484T2576 263T2332 95T2023 -11T1650 -49Q1498 -49 1375 -26T1155 33T989 108T876 180V-864H471ZM876 471Q951 423 1035 385T1210 321T1399 280T1601 266Q1815 266 1979 315T2255 464T2424 710T2482 1053Q2482 1248 2425 1394T2255 1639T1979 1786T1601 1835Q1497 1835 1399 1821T1210 1781T1035 1716T876 1630V471Z"  />
<glyph unicode="&#xFF;" horiz-adv-x="2630" d="M16 -553Q57 -562 106 -570T221 -578Q316 -578 401 -565T561 -523T704 -453T831 -352T946 -219T1049 -53L1102 45L49 2101H500L1180 717Q1217 642 1251 571T1323 422Q1360 499 1394 573T1466 721L2138 2101H2580L1470 -61Q1403 -191 1330 -305T1173 -513T990 -682T776 -808T524 -886T225 -913Q201 -913 173 -912T116 -907T62 -898T16 -885V-553ZM545 2527V2941H983V2527H545ZM1614 2527V2941H2052V2527H1614Z"  />
<glyph unicode="&#x100;" horiz-adv-x="3494" d="M3002 0L2635 731L2634 733H848L847 731L483 0H20L1503 2966H1991L3473 0H3002ZM1917 2220Q1874 2307 1829 2399T1741 2580Q1697 2491 1653 2401T1565 2220L1000 1079L999 1077H2482L2481 1079L1917 2220ZM1028 3302V3609H2454V3302H1028Z"  />
<glyph unicode="&#x101;" horiz-adv-x="2941" d="M2175 0L2142 193Q2065 137 1968 93T1757 17T1515 -32T1249 -49Q1052 -49 883 -11T588 106T391 303T319 582Q319 686 351 775T449 936T619 1063T866 1156T1193 1213T1606 1233Q1692 1233 1781 1231T1949 1225T2109 1217V1290Q2109 1419 2070 1518T1946 1685T1729 1788T1413 1823Q1255 1823 1130 1813T901 1782T704 1733T520 1667V1982Q603 2019 698 2050T908 2103T1156 2137T1450 2150Q1688 2150 1884 2101T2220 1951T2438 1699T2515 1343V0H2175ZM2109 934H1704Q1441 934 1258 915T958 856T790 751T737 598Q737 517 770 454T875 349T1058 284T1327 262Q1448 262 1560 276T1772 316T1956 381T2109 467V934ZM770 2548V2855H2196V2548H770Z"  />
<glyph unicode="&#x102;" horiz-adv-x="3494" d="M3002 0L2635 731L2634 733H848L847 731L483 0H20L1503 2966H1991L3473 0H3002ZM1917 2220Q1874 2307 1829 2399T1741 2580Q1697 2491 1653 2401T1565 2220L1000 1079L999 1077H2482L2481 1079L1917 2220ZM2454 3810Q2451 3656 2400 3532T2256 3319T2033 3182T1741 3134Q1580 3134 1450 3182T1227 3318T1083 3531T1028 3810H1315Q1323 3722 1353 3654T1436 3540T1565 3469T1741 3445Q1841 3445 1917 3469T2046 3539T2129 3654T2167 3810H2454Z"  />
<glyph unicode="&#x103;" horiz-adv-x="2941" d="M2175 0L2142 193Q2065 137 1968 93T1757 17T1515 -32T1249 -49Q1052 -49 883 -11T588 106T391 303T319 582Q319 686 351 775T449 936T619 1063T866 1156T1193 1213T1606 1233Q1692 1233 1781 1231T1949 1225T2109 1217V1290Q2109 1419 2070 1518T1946 1685T1729 1788T1413 1823Q1255 1823 1130 1813T901 1782T704 1733T520 1667V1982Q603 2019 698 2050T908 2103T1156 2137T1450 2150Q1688 2150 1884 2101T2220 1951T2438 1699T2515 1343V0H2175ZM2109 934H1704Q1441 934 1258 915T958 856T790 751T737 598Q737 517 770 454T875 349T1058 284T1327 262Q1448 262 1560 276T1772 316T1956 381T2109 467V934ZM2196 3056Q2193 2902 2142 2778T1998 2565T1775 2428T1483 2380Q1322 2380 1192 2428T969 2564T825 2777T770 3056H1057Q1065 2968 1095 2900T1178 2786T1307 2715T1483 2691Q1583 2691 1659 2715T1788 2785T1871 2900T1909 3056H2196Z"  />
<glyph unicode="&#x104;" horiz-adv-x="3494" d="M3346 -860Q3297 -873 3241 -879T3125 -885Q2999 -885 2910 -853T2764 -770T2681 -652T2654 -516Q2654 -436 2684 -364T2763 -226T2875 -105T3002 0L2635 731L2634 733H848L847 731L483 0H20L1503 2966H1991L3473 0H3248Q3189 -57 3137 -115T3046 -230T2984 -344T2961 -455Q2961 -556 3023 -605T3199 -655Q3222 -655 3242 -654T3280 -650T3314 -645T3346 -639V-860ZM1917 2220Q1874 2307 1829 2399T1741 2580Q1697 2491 1653 2401T1565 2220L1000 1079L999 1077H2482L2481 1079L1917 2220Z"  />
<glyph unicode="&#x105;" horiz-adv-x="2941" d="M2515 -860Q2465 -873 2409 -879T2294 -885Q2168 -885 2079 -853T1933 -770T1850 -652T1823 -516Q1823 -435 1853 -362T1932 -225T2045 -104T2175 0L2142 193Q2065 137 1968 93T1757 17T1515 -32T1249 -49Q1052 -49 883 -11T588 106T391 303T319 582Q319 686 351 775T449 936T619 1063T866 1156T1193 1213T1606 1233Q1692 1233 1781 1231T1949 1225T2109 1217V1290Q2109 1419 2070 1518T1946 1685T1729 1788T1413 1823Q1255 1823 1130 1813T901 1782T704 1733T520 1667V1982Q603 2019 698 2050T908 2103T1156 2137T1450 2150Q1688 2150 1884 2101T2220 1951T2438 1699T2515 1343V0H2417Q2358 -57 2306 -115T2215 -230T2153 -344T2130 -455Q2130 -556 2192 -605T2367 -655Q2390 -655 2410 -654T2449 -650T2483 -645T2515 -639V-860ZM2109 934H1704Q1441 934 1258 915T958 856T790 751T737 598Q737 517 770 454T875 349T1058 284T1327 262Q1448 262 1560 276T1772 316T1956 381T2109 467V934Z"  />
<glyph unicode="&#x106;" horiz-adv-x="3146" d="M2900 98Q2823 67 2724 41T2505 -6T2242 -37T1937 -49Q1702 -49 1489 -6T1094 122T765 336T515 634T355 1016T299 1483Q299 1723 355 1930T513 2308T760 2610T1083 2832T1467 2968T1901 3015Q2022 3015 2146 3006T2391 2977T2624 2927T2834 2855V2490Q2724 2535 2611 2566T2387 2616T2168 2645T1958 2654Q1773 2654 1610 2622T1310 2525T1066 2363T883 2136T769 1843T729 1483Q729 1264 777 1092T911 789T1113 567T1364 417T1648 333T1946 307Q2124 307 2272 321T2538 356T2747 402T2900 451V98ZM1643 3162L2093 3810H2618L2011 3162H1643Z"  />
<glyph unicode="&#x107;" horiz-adv-x="2568" d="M2314 111Q2239 79 2155 50T1969 -1T1742 -36T1458 -49Q1180 -49 961 30T591 253T359 600T279 1053Q279 1209 313 1351T415 1616T587 1836T830 2004T1144 2112T1532 2150Q1638 2150 1743 2141T1946 2114T2129 2072T2281 2019V1688Q2212 1715 2127 1739T1946 1782T1743 1812T1524 1823Q1304 1823 1148 1767T891 1610T743 1367T696 1053Q696 864 753 720T915 477T1168 329T1499 279Q1639 279 1758 294T1979 334T2163 389T2314 451V111ZM1290 2408L1740 3056H2265L1658 2408H1290Z"  />
<glyph unicode="&#x108;" horiz-adv-x="3146" d="M2900 98Q2823 67 2724 41T2505 -6T2242 -37T1937 -49Q1702 -49 1489 -6T1094 122T765 336T515 634T355 1016T299 1483Q299 1723 355 1930T513 2308T760 2610T1083 2832T1467 2968T1901 3015Q2022 3015 2146 3006T2391 2977T2624 2927T2834 2855V2490Q2724 2535 2611 2566T2387 2616T2168 2645T1958 2654Q1773 2654 1610 2622T1310 2525T1066 2363T883 2136T769 1843T729 1483Q729 1264 777 1092T911 789T1113 567T1364 417T1648 333T1946 307Q2124 307 2272 321T2538 356T2747 402T2900 451V98ZM2269 3162L1843 3490L1417 3162H1049L1663 3810H2023L2638 3162H2269Z"  />
<glyph unicode="&#x109;" horiz-adv-x="2568" d="M2314 111Q2239 79 2155 50T1969 -1T1742 -36T1458 -49Q1180 -49 961 30T591 253T359 600T279 1053Q279 1209 313 1351T415 1616T587 1836T830 2004T1144 2112T1532 2150Q1638 2150 1743 2141T1946 2114T2129 2072T2281 2019V1688Q2212 1715 2127 1739T1946 1782T1743 1812T1524 1823Q1304 1823 1148 1767T891 1610T743 1367T696 1053Q696 864 753 720T915 477T1168 329T1499 279Q1639 279 1758 294T1979 334T2163 389T2314 451V111ZM1917 2408L1491 2736L1065 2408H697L1311 3056H1671L2286 2408H1917Z"  />
<glyph unicode="&#x10A;" horiz-adv-x="3146" d="M2900 98Q2823 67 2724 41T2505 -6T2242 -37T1937 -49Q1702 -49 1489 -6T1094 122T765 336T515 634T355 1016T299 1483Q299 1723 355 1930T513 2308T760 2610T1083 2832T1467 2968T1901 3015Q2022 3015 2146 3006T2391 2977T2624 2927T2834 2855V2490Q2724 2535 2611 2566T2387 2616T2168 2645T1958 2654Q1773 2654 1610 2622T1310 2525T1066 2363T883 2136T769 1843T729 1483Q729 1264 777 1092T911 789T1113 567T1364 417T1648 333T1946 307Q2124 307 2272 321T2538 356T2747 402T2900 451V98ZM1618 3257V3703H2072V3257H1618Z"  />
<glyph unicode="&#x10B;" horiz-adv-x="2568" d="M2314 111Q2239 79 2155 50T1969 -1T1742 -36T1458 -49Q1180 -49 961 30T591 253T359 600T279 1053Q279 1209 313 1351T415 1616T587 1836T830 2004T1144 2112T1532 2150Q1638 2150 1743 2141T1946 2114T2129 2072T2281 2019V1688Q2212 1715 2127 1739T1946 1782T1743 1812T1524 1823Q1304 1823 1148 1767T891 1610T743 1367T696 1053Q696 864 753 720T915 477T1168 329T1499 279Q1639 279 1758 294T1979 334T2163 389T2314 451V111ZM1266 2503V2949H1720V2503H1266Z"  />
<glyph unicode="&#x10C;" horiz-adv-x="3146" d="M2900 98Q2823 67 2724 41T2505 -6T2242 -37T1937 -49Q1702 -49 1489 -6T1094 122T765 336T515 634T355 1016T299 1483Q299 1723 355 1930T513 2308T760 2610T1083 2832T1467 2968T1901 3015Q2022 3015 2146 3006T2391 2977T2624 2927T2834 2855V2490Q2724 2535 2611 2566T2387 2616T2168 2645T1958 2654Q1773 2654 1610 2622T1310 2525T1066 2363T883 2136T769 1843T729 1483Q729 1264 777 1092T911 789T1113 567T1364 417T1648 333T1946 307Q2124 307 2272 321T2538 356T2747 402T2900 451V98ZM1663 3162L1049 3810H1417L1843 3478L2269 3810H2638L2023 3162H1663Z"  />
<glyph unicode="&#x10D;" horiz-adv-x="2568" d="M2314 111Q2239 79 2155 50T1969 -1T1742 -36T1458 -49Q1180 -49 961 30T591 253T359 600T279 1053Q279 1209 313 1351T415 1616T587 1836T830 2004T1144 2112T1532 2150Q1638 2150 1743 2141T1946 2114T2129 2072T2281 2019V1688Q2212 1715 2127 1739T1946 1782T1743 1812T1524 1823Q1304 1823 1148 1767T891 1610T743 1367T696 1053Q696 864 753 720T915 477T1168 329T1499 279Q1639 279 1758 294T1979 334T2163 389T2314 451V111ZM1311 2408L697 3056H1065L1491 2724L1917 3056H2286L1671 2408H1311Z"  />
<glyph unicode="&#x10E;" horiz-adv-x="3592" d="M492 0V2966H1671Q1931 2966 2152 2919T2554 2783T2872 2564T3103 2270T3245 1907T3293 1483Q3293 1265 3244 1070T3099 711T2863 415T2543 191T2144 49T1671 0H492ZM1700 344Q1895 344 2056 382T2347 492T2573 664T2734 892T2831 1168T2863 1483Q2863 1649 2831 1797T2735 2072T2574 2300T2348 2473T2056 2582T1700 2621H913V344H1700ZM1430 3162L816 3810H1184L1610 3478L2036 3810H2405L1790 3162H1430Z"  />
<glyph unicode="&#x10F;" horiz-adv-x="3178" d="M2367 0L2335 184Q2260 133 2165 91T1961 17T1735 -31T1495 -49Q1217 -49 993 24T610 239T365 585T279 1053Q279 1309 363 1512T606 1858T995 2075T1520 2150Q1632 2150 1740 2137T1949 2100T2138 2039T2302 1954V2966H2707V0H2367ZM2302 1630Q2227 1678 2143 1716T1968 1780T1779 1821T1577 1835Q1364 1835 1200 1786T923 1639T754 1395T696 1053Q696 858 753 711T923 464T1199 316T1577 266Q1681 266 1779 280T1968 320T2143 385T2302 471V1630ZM3055 2114L3178 2552L3076 2966H3325Q3376 2966 3420 2951T3497 2908T3548 2838T3567 2744Q3567 2686 3555 2633T3521 2526T3469 2415T3403 2294L3305 2114H3055Z"  />
<glyph unicode="&#x110;" horiz-adv-x="3641" d="M541 0V1331H254V1638H541V2966H1720Q1980 2966 2201 2919T2603 2783T2921 2564T3152 2270T3294 1907T3342 1483Q3342 1265 3293 1070T3148 711T2912 415T2592 191T2193 49T1720 0H541ZM1749 344Q1943 344 2105 382T2396 492T2622 664T2783 892T2880 1168T2912 1483Q2912 1649 2880 1797T2784 2072T2623 2300T2397 2473T2105 2582T1749 2621H963V1638H1778V1331H963V344H1749Z"  />
<glyph unicode="&#x111;" horiz-adv-x="3178" d="M2367 0L2335 184Q2260 133 2165 91T1961 17T1735 -31T1495 -49Q1217 -49 993 24T610 239T365 585T279 1053Q279 1309 363 1512T606 1858T995 2075T1520 2150Q1632 2150 1740 2137T1949 2100T2138 2039T2302 1954V2413H1835V2720H2302V2966H2707V2720H3015V2413H2707V0H2367ZM2302 1630Q2227 1678 2143 1716T1968 1780T1779 1821T1577 1835Q1364 1835 1200 1786T923 1639T754 1395T696 1053Q696 858 753 711T923 464T1199 316T1577 266Q1681 266 1779 280T1968 320T2143 385T2302 471V1630Z"  />
<glyph unicode="&#x112;" horiz-adv-x="3162" d="M492 0V2966H2851V2621H913V1696H2605V1352H913V344H2875V0H492ZM974 3302V3609H2400V3302H974Z"  />
<glyph unicode="&#x113;" horiz-adv-x="2863" d="M2466 143Q2377 102 2276 67T2058 6T1805 -34T1511 -49Q1304 -49 1133 -11T824 98T585 270T415 496T313 769T279 1081Q279 1231 314 1369T417 1625T585 1841T815 2006T1104 2112T1450 2150Q1633 2150 1790 2116T2076 2017T2304 1861T2471 1656T2574 1408T2609 1126Q2609 1106 2609 1084T2607 1041T2604 1000T2601 967H684Q695 810 753 683T919 466T1185 328T1556 279Q1708 279 1834 294T2070 336T2277 396T2466 467V143ZM2212 1278Q2198 1402 2136 1505T1973 1683T1739 1798T1450 1839Q1295 1839 1161 1798T926 1683T763 1506T688 1278H2212ZM765 2548V2855H2191V2548H765Z"  />
<glyph unicode="&#x114;" horiz-adv-x="3162" d="M492 0V2966H2851V2621H913V1696H2605V1352H913V344H2875V0H492ZM2400 3810Q2397 3656 2346 3532T2202 3319T1979 3182T1687 3134Q1526 3134 1396 3182T1173 3318T1029 3531T974 3810H1261Q1269 3722 1299 3654T1382 3540T1511 3469T1687 3445Q1787 3445 1863 3469T1992 3539T2075 3654T2113 3810H2400Z"  />
<glyph unicode="&#x115;" horiz-adv-x="2863" d="M2466 143Q2377 102 2276 67T2058 6T1805 -34T1511 -49Q1304 -49 1133 -11T824 98T585 270T415 496T313 769T279 1081Q279 1231 314 1369T417 1625T585 1841T815 2006T1104 2112T1450 2150Q1633 2150 1790 2116T2076 2017T2304 1861T2471 1656T2574 1408T2609 1126Q2609 1106 2609 1084T2607 1041T2604 1000T2601 967H684Q695 810 753 683T919 466T1185 328T1556 279Q1708 279 1834 294T2070 336T2277 396T2466 467V143ZM2212 1278Q2198 1402 2136 1505T1973 1683T1739 1798T1450 1839Q1295 1839 1161 1798T926 1683T763 1506T688 1278H2212ZM2191 3056Q2188 2902 2137 2778T1993 2565T1770 2428T1478 2380Q1317 2380 1187 2428T964 2564T820 2777T765 3056H1052Q1060 2968 1090 2900T1173 2786T1302 2715T1478 2691Q1578 2691 1654 2715T1783 2785T1866 2900T1904 3056H2191Z"  />
<glyph unicode="&#x116;" horiz-adv-x="3162" d="M492 0V2966H2851V2621H913V1696H2605V1352H913V344H2875V0H492ZM1462 3257V3703H1916V3257H1462Z"  />
<glyph unicode="&#x117;" horiz-adv-x="2863" d="M2466 143Q2377 102 2276 67T2058 6T1805 -34T1511 -49Q1304 -49 1133 -11T824 98T585 270T415 496T313 769T279 1081Q279 1231 314 1369T417 1625T585 1841T815 2006T1104 2112T1450 2150Q1633 2150 1790 2116T2076 2017T2304 1861T2471 1656T2574 1408T2609 1126Q2609 1106 2609 1084T2607 1041T2604 1000T2601 967H684Q695 810 753 683T919 466T1185 328T1556 279Q1708 279 1834 294T2070 336T2277 396T2466 467V143ZM2212 1278Q2198 1402 2136 1505T1973 1683T1739 1798T1450 1839Q1295 1839 1161 1798T926 1683T763 1506T688 1278H2212ZM1254 2503V2949H1708V2503H1254Z"  />
<glyph unicode="&#x118;" horiz-adv-x="3162" d="M2875 -860Q2826 -873 2770 -879T2654 -885Q2528 -885 2439 -853T2293 -770T2210 -652T2183 -516Q2183 -436 2213 -364T2292 -226T2404 -105T2531 0H492V2966H2851V2621H913V1696H2605V1352H913V344H2875V0H2777Q2718 -57 2666 -115T2575 -230T2513 -344T2490 -455Q2490 -556 2552 -605T2728 -655Q2751 -655 2771 -654T2809 -650T2843 -645T2875 -639V-860Z"  />
<glyph unicode="&#x119;" horiz-adv-x="2863" d="M2466 -860Q2416 -873 2360 -879T2245 -885Q2119 -885 2030 -853T1884 -770T1801 -652T1774 -516Q1774 -441 1800 -368T1871 -228T1973 -100T2097 12Q1973 -16 1829 -32T1511 -49Q1304 -49 1133 -11T824 98T585 270T415 496T313 769T279 1081Q279 1231 314 1369T417 1625T585 1841T815 2006T1104 2112T1450 2150Q1633 2150 1790 2116T2076 2017T2304 1861T2471 1656T2574 1408T2609 1126Q2609 1106 2609 1084T2607 1041T2604 1000T2601 967H684Q695 810 753 683T919 466T1185 328T1556 279Q1708 279 1834 294T2070 336T2277 396T2466 467V143Q2363 48 2290 -35T2171 -191T2103 -330T2081 -455Q2081 -556 2143 -605T2318 -655Q2341 -655 2361 -654T2400 -650T2434 -645T2466 -639V-860ZM2212 1278Q2198 1402 2136 1505T1973 1683T1739 1798T1450 1839Q1295 1839 1161 1798T926 1683T763 1506T688 1278H2212Z"  />
<glyph unicode="&#x11A;" horiz-adv-x="3162" d="M492 0V2966H2851V2621H913V1696H2605V1352H913V344H2875V0H492ZM1507 3162L893 3810H1261L1687 3478L2113 3810H2482L1867 3162H1507Z"  />
<glyph unicode="&#x11B;" horiz-adv-x="2863" d="M2466 143Q2377 102 2276 67T2058 6T1805 -34T1511 -49Q1304 -49 1133 -11T824 98T585 270T415 496T313 769T279 1081Q279 1231 314 1369T417 1625T585 1841T815 2006T1104 2112T1450 2150Q1633 2150 1790 2116T2076 2017T2304 1861T2471 1656T2574 1408T2609 1126Q2609 1106 2609 1084T2607 1041T2604 1000T2601 967H684Q695 810 753 683T919 466T1185 328T1556 279Q1708 279 1834 294T2070 336T2277 396T2466 467V143ZM2212 1278Q2198 1402 2136 1505T1973 1683T1739 1798T1450 1839Q1295 1839 1161 1798T926 1683T763 1506T688 1278H2212ZM1298 2408L684 3056H1052L1478 2724L1904 3056H2273L1658 2408H1298Z"  />
<glyph unicode="&#x11C;" horiz-adv-x="3662" d="M2892 1430H3310V139Q3227 109 3135 84T2940 37T2727 0T2497 -27T2248 -43T1982 -49Q1592 -49 1281 51T751 347T416 827T299 1483Q299 1721 352 1927T506 2304T754 2606T1091 2830T1510 2968T2003 3015Q2091 3015 2186 3011T2377 2999T2569 2977T2752 2946T2920 2906T3064 2855V2490Q2953 2535 2825 2566T2564 2616T2304 2645T2064 2654Q1741 2654 1493 2582T1074 2363T817 1998T729 1483Q729 1270 772 1100T897 800T1094 576T1357 423T1676 335T2044 307Q2199 307 2332 318T2572 347T2760 383T2892 418V1430ZM2392 3162L1966 3490L1540 3162H1172L1786 3810H2146L2761 3162H2392Z"  />
<glyph unicode="&#x11D;" horiz-adv-x="3178" d="M2302 229Q2225 181 2132 142T1936 75T1721 32T1495 16Q1217 16 993 85T610 291T365 626T279 1085Q279 1338 363 1536T606 1871T995 2078T1520 2150Q1640 2150 1755 2135T1975 2092T2172 2022T2339 1929L2367 2101H2707V70Q2707 -194 2618 -381T2365 -686T1966 -858T1442 -913Q1284 -913 1139 -901T868 -868T639 -819T463 -758V-414Q547 -449 647 -480T864 -533T1119 -569T1417 -582Q1623 -582 1787 -550T2065 -440T2241 -230T2302 102V229ZM2302 1630Q2227 1678 2143 1716T1968 1780T1779 1821T1577 1835Q1364 1835 1200 1789T923 1650T754 1416T696 1085Q696 895 753 754T923 519T1199 379T1577 332Q1681 332 1779 346T1968 386T2143 451T2302 537V1630ZM1917 2408L1491 2736L1065 2408H697L1311 3056H1671L2286 2408H1917Z"  />
<glyph unicode="&#x11E;" horiz-adv-x="3662" d="M2892 1430H3310V139Q3227 109 3135 84T2940 37T2727 0T2497 -27T2248 -43T1982 -49Q1592 -49 1281 51T751 347T416 827T299 1483Q299 1721 352 1927T506 2304T754 2606T1091 2830T1510 2968T2003 3015Q2091 3015 2186 3011T2377 2999T2569 2977T2752 2946T2920 2906T3064 2855V2490Q2953 2535 2825 2566T2564 2616T2304 2645T2064 2654Q1741 2654 1493 2582T1074 2363T817 1998T729 1483Q729 1270 772 1100T897 800T1094 576T1357 423T1676 335T2044 307Q2199 307 2332 318T2572 347T2760 383T2892 418V1430ZM2679 3810Q2676 3656 2625 3532T2481 3319T2258 3182T1966 3134Q1805 3134 1675 3182T1452 3318T1308 3531T1253 3810H1540Q1548 3722 1578 3654T1661 3540T1790 3469T1966 3445Q2066 3445 2142 3469T2271 3539T2354 3654T2392 3810H2679Z"  />
<glyph unicode="&#x11F;" horiz-adv-x="3178" d="M2302 229Q2225 181 2132 142T1936 75T1721 32T1495 16Q1217 16 993 85T610 291T365 626T279 1085Q279 1338 363 1536T606 1871T995 2078T1520 2150Q1640 2150 1755 2135T1975 2092T2172 2022T2339 1929L2367 2101H2707V70Q2707 -194 2618 -381T2365 -686T1966 -858T1442 -913Q1284 -913 1139 -901T868 -868T639 -819T463 -758V-414Q547 -449 647 -480T864 -533T1119 -569T1417 -582Q1623 -582 1787 -550T2065 -440T2241 -230T2302 102V229ZM2302 1630Q2227 1678 2143 1716T1968 1780T1779 1821T1577 1835Q1364 1835 1200 1789T923 1650T754 1416T696 1085Q696 895 753 754T923 519T1199 379T1577 332Q1681 332 1779 346T1968 386T2143 451T2302 537V1630ZM2204 3056Q2201 2902 2150 2778T2006 2565T1783 2428T1491 2380Q1330 2380 1200 2428T977 2564T833 2777T778 3056H1065Q1073 2968 1103 2900T1186 2786T1315 2715T1491 2691Q1591 2691 1667 2715T1796 2785T1879 2900T1917 3056H2204Z"  />
<glyph unicode="&#x120;" horiz-adv-x="3662" d="M2892 1430H3310V139Q3227 109 3135 84T2940 37T2727 0T2497 -27T2248 -43T1982 -49Q1592 -49 1281 51T751 347T416 827T299 1483Q299 1721 352 1927T506 2304T754 2606T1091 2830T1510 2968T2003 3015Q2091 3015 2186 3011T2377 2999T2569 2977T2752 2946T2920 2906T3064 2855V2490Q2953 2535 2825 2566T2564 2616T2304 2645T2064 2654Q1741 2654 1493 2582T1074 2363T817 1998T729 1483Q729 1270 772 1100T897 800T1094 576T1357 423T1676 335T2044 307Q2199 307 2332 318T2572 347T2760 383T2892 418V1430ZM1741 3257V3703H2195V3257H1741Z"  />
<glyph unicode="&#x121;" horiz-adv-x="3178" d="M2302 229Q2225 181 2132 142T1936 75T1721 32T1495 16Q1217 16 993 85T610 291T365 626T279 1085Q279 1338 363 1536T606 1871T995 2078T1520 2150Q1640 2150 1755 2135T1975 2092T2172 2022T2339 1929L2367 2101H2707V70Q2707 -194 2618 -381T2365 -686T1966 -858T1442 -913Q1284 -913 1139 -901T868 -868T639 -819T463 -758V-414Q547 -449 647 -480T864 -533T1119 -569T1417 -582Q1623 -582 1787 -550T2065 -440T2241 -230T2302 102V229ZM2302 1630Q2227 1678 2143 1716T1968 1780T1779 1821T1577 1835Q1364 1835 1200 1789T923 1650T754 1416T696 1085Q696 895 753 754T923 519T1199 379T1577 332Q1681 332 1779 346T1968 386T2143 451T2302 537V1630ZM1266 2503V2949H1720V2503H1266Z"  />
<glyph unicode="&#x122;" horiz-adv-x="3662" d="M2892 1430H3310V139Q3227 109 3135 84T2940 37T2727 0T2497 -27T2248 -43T1982 -49Q1592 -49 1281 51T751 347T416 827T299 1483Q299 1721 352 1927T506 2304T754 2606T1091 2830T1510 2968T2003 3015Q2091 3015 2186 3011T2377 2999T2569 2977T2752 2946T2920 2906T3064 2855V2490Q2953 2535 2825 2566T2564 2616T2304 2645T2064 2654Q1741 2654 1493 2582T1074 2363T817 1998T729 1483Q729 1270 772 1100T897 800T1094 576T1357 423T1676 335T2044 307Q2199 307 2332 318T2572 347T2760 383T2892 418V1430ZM1728 -983L1572 -827L1832 -551L1740 -172H1990Q2041 -172 2085 -187T2161 -230T2213 -300T2232 -393Q2232 -450 2211 -506T2149 -618T2049 -729T1912 -844L1728 -983Z"  />
<glyph unicode="&#x123;" horiz-adv-x="3178" d="M2302 229Q2225 181 2132 142T1936 75T1721 32T1495 16Q1217 16 993 85T610 291T365 626T279 1085Q279 1338 363 1536T606 1871T995 2078T1520 2150Q1640 2150 1755 2135T1975 2092T2172 2022T2339 1929L2367 2101H2707V70Q2707 -194 2618 -381T2365 -686T1966 -858T1442 -913Q1284 -913 1139 -901T868 -868T639 -819T463 -758V-414Q547 -449 647 -480T864 -533T1119 -569T1417 -582Q1623 -582 1787 -550T2065 -440T2241 -230T2302 102V229ZM2302 1630Q2227 1678 2143 1716T1968 1780T1779 1821T1577 1835Q1364 1835 1200 1789T923 1650T754 1416T696 1085Q696 895 753 754T923 519T1199 379T1577 332Q1681 332 1779 346T1968 386T2143 451T2302 537V1630ZM1458 2335Q1407 2335 1363 2350T1287 2393T1235 2463T1216 2556Q1216 2614 1237 2672T1299 2787T1399 2902T1536 3019L1720 3158L1876 3002L1614 2716L1708 2335H1458Z"  />
<glyph unicode="&#x124;" horiz-adv-x="3736" d="M2822 0V1315H913V0H492V2966H913V1659H2822V2966H3244V0H2822ZM2294 3162L1868 3490L1442 3162H1074L1688 3810H2048L2663 3162H2294Z"  />
<glyph unicode="&#x125;" horiz-adv-x="3174" d="M2343 0V1274Q2343 1431 2301 1537T2176 1709T1968 1802T1679 1831Q1561 1831 1448 1813T1231 1765T1037 1695T877 1610V0H471V2966H877V1901Q955 1955 1053 2000T1265 2079T1505 2131T1765 2150Q1897 2150 2021 2134T2255 2079T2455 1980T2611 1829T2712 1619T2748 1343V0H2343ZM1099 3162L673 3490L247 3162H-121L493 3810H853L1468 3162H1099Z"  />
<glyph unicode="&#x126;" horiz-adv-x="3736" d="M2822 0V1315H913V0H492V2200H172V2507H492V2966H913V2507H2822V2966H3244V2507H3564V2200H3244V0H2822ZM2822 2200H913V1659H2822V2200Z"  />
<glyph unicode="&#x127;" horiz-adv-x="3174" d="M2343 0V1274Q2343 1431 2301 1537T2176 1709T1968 1802T1679 1831Q1561 1831 1448 1813T1231 1765T1037 1695T877 1610V0H471V2413H164V2720H471V2966H877V2720H1343V2413H877V1901Q955 1955 1053 2000T1265 2079T1505 2131T1765 2150Q1897 2150 2021 2134T2255 2079T2455 1980T2611 1829T2712 1619T2748 1343V0H2343Z"  />
<glyph unicode="&#x128;" horiz-adv-x="2183" d="M328 0V344H881V2621H328V2966H1855V2621H1303V344H1855V0H328ZM1863 3744Q1863 3641 1837 3545T1756 3373T1613 3253T1405 3208Q1332 3208 1270 3226T1152 3270T1049 3328T955 3386T868 3431T782 3449Q737 3449 704 3434T648 3391T612 3321T594 3228H311Q311 3331 337 3427T419 3599T561 3719T770 3765Q843 3765 905 3747T1022 3702T1125 3644T1219 3586T1306 3541T1392 3523Q1437 3523 1470 3538T1526 3581T1562 3651T1581 3744H1863Z"  />
<glyph unicode="&#x129;" horiz-adv-x="1348" d="M471 0V2101H877V0H471ZM1451 2990Q1451 2887 1425 2791T1344 2619T1201 2499T993 2454Q920 2454 858 2472T740 2516T637 2574T543 2632T456 2677T370 2695Q325 2695 292 2680T236 2637T200 2567T182 2474H-101Q-101 2577 -75 2673T7 2845T149 2965T358 3011Q431 3011 493 2993T610 2948T713 2890T807 2832T894 2787T980 2769Q1025 2769 1058 2784T1114 2827T1150 2897T1169 2990H1451Z"  />
<glyph unicode="&#x12A;" horiz-adv-x="2183" d="M328 0V344H881V2621H328V2966H1855V2621H1303V344H1855V0H328ZM372 3302V3609H1798V3302H372Z"  />
<glyph unicode="&#x12B;" horiz-adv-x="1348" d="M471 0V2101H877V0H471ZM-36 2548V2855H1390V2548H-36Z"  />
<glyph unicode="&#x12C;" horiz-adv-x="2183" d="M328 0V344H881V2621H328V2966H1855V2621H1303V344H1855V0H328ZM1798 3810Q1795 3656 1744 3532T1600 3319T1377 3182T1085 3134Q924 3134 794 3182T571 3318T427 3531T372 3810H659Q667 3722 697 3654T780 3540T909 3469T1085 3445Q1185 3445 1261 3469T1390 3539T1473 3654T1511 3810H1798Z"  />
<glyph unicode="&#x12D;" horiz-adv-x="1348" d="M471 0V2101H877V0H471ZM1390 3056Q1387 2902 1336 2778T1192 2565T969 2428T677 2380Q516 2380 386 2428T163 2564T19 2777T-36 3056H251Q259 2968 289 2900T372 2786T501 2715T677 2691Q777 2691 853 2715T982 2785T1065 2900T1103 3056H1390Z"  />
<glyph unicode="&#x12E;" horiz-adv-x="2183" d="M1401 -860Q1351 -873 1295 -879T1180 -885Q1054 -885 965 -853T819 -770T736 -652T709 -516Q709 -436 739 -364T818 -226T930 -105T1057 0H328V344H881V2621H328V2966H1855V2621H1303V344H1855V0H1303Q1244 -57 1192 -115T1101 -230T1039 -344T1016 -455Q1016 -556 1078 -605T1253 -655Q1276 -655 1296 -654T1335 -650T1369 -645T1401 -639V-860Z"  />
<glyph unicode="&#x12F;" horiz-adv-x="1348" d="M918 -860Q868 -873 812 -879T696 -885Q570 -885 481 -853T335 -770T252 -652T225 -516Q225 -436 255 -364T334 -226T446 -105T573 0H471V2101H877V0H819Q761 -57 709 -115T618 -230T555 -344T532 -455Q532 -556 594 -605T770 -655Q793 -655 813 -654T851 -650T886 -645T918 -639V-860ZM471 2523V2966H877V2523H471Z"  />
<glyph unicode="&#x130;" horiz-adv-x="2183" d="M328 0V344H881V2621H328V2966H1855V2621H1303V344H1855V0H328ZM860 3257V3703H1314V3257H860Z"  />
<glyph unicode="&#x131;" horiz-adv-x="1348" d="M471 0V2101H877V0H471Z"  />
<glyph unicode="&#x132;" horiz-adv-x="3920" d="M328 0V344H881V2621H328V2966H1855V2621H1303V344H1855V0H328ZM2158 -188Q2181 -196 2219 -202T2301 -214T2387 -222T2462 -225Q2612 -225 2716 -187T2884 -64T2977 154T3006 479V2621H2371V2966H3428V438Q3428 197 3378 8T3216 -313T2925 -513T2490 -582Q2450 -582 2403 -580T2311 -573T2225 -561T2158 -545V-188Z"  />
<glyph unicode="&#x133;" horiz-adv-x="2695" d="M471 0V2101H877V0H471ZM471 2523V2966H877V2523H471ZM1057 -565Q1125 -581 1185 -587T1307 -594Q1453 -594 1551 -555T1708 -435T1793 -230T1819 66V2101H2225V37Q2225 -204 2177 -382T2022 -679T1746 -855T1336 -913Q1297 -913 1259 -911T1186 -905T1118 -895T1057 -881V-565ZM1819 2523V2966H2225V2523H1819Z"  />
<glyph unicode="&#x134;" horiz-adv-x="1737" d="M-25 -188Q-2 -196 36 -202T118 -214T204 -222T279 -225Q429 -225 533 -187T701 -64T794 154T823 479V2621H188V2966H1245V438Q1245 197 1195 8T1033 -313T742 -513T307 -582Q267 -582 220 -580T128 -573T42 -561T-25 -545V-188ZM1458 3162L1032 3490L606 3162H238L852 3810H1212L1827 3162H1458Z"  />
<glyph unicode="&#x135;" horiz-adv-x="1348" d="M-291 -565Q-223 -581 -163 -587T-41 -594Q105 -594 203 -555T360 -435T445 -230T471 66V2101H877V37Q877 -204 829 -382T674 -679T398 -855T-12 -913Q-51 -913 -89 -911T-162 -905T-230 -895T-291 -881V-565ZM1103 2408L677 2736L251 2408H-117L497 3056H857L1472 2408H1103Z"  />
<glyph unicode="&#x136;" horiz-adv-x="3461" d="M2789 0L913 1372V0H492V2966H913V1622L2765 2966H3387L1705 1765Q1618 1703 1530 1640T1355 1516Q1398 1485 1440 1455T1525 1393T1610 1332T1696 1270L3449 0H2789ZM1528 -983L1372 -827L1632 -551L1540 -172H1790Q1841 -172 1885 -187T1961 -230T2013 -300T2032 -393Q2032 -450 2011 -506T1949 -618T1849 -729T1712 -844L1528 -983Z"  />
<glyph unicode="&#x137;" horiz-adv-x="2777" d="M2154 0L877 958V0H471V2966H877V1180L2138 2101H2695L1524 1257Q1492 1234 1460 1212T1397 1168T1334 1123T1270 1077Q1301 1056 1330 1035T1388 994T1447 952T1507 909L2769 0H2154ZM1229 -983L1073 -827L1333 -551L1241 -172H1491Q1542 -172 1586 -187T1662 -230T1714 -300T1733 -393Q1733 -450 1712 -506T1650 -618T1550 -729T1413 -844L1229 -983Z"  />
<glyph unicode="&#x139;" horiz-adv-x="2761" d="M492 0V2966H913V344H2597V0H492ZM509 3162L959 3810H1484L877 3162H509Z"  />
<glyph unicode="&#x13A;" horiz-adv-x="1593" d="M1503 16Q1460 4 1409 -7T1297 -28T1166 -43T1016 -49Q859 -49 751 -14T577 89T481 258T451 492V2966H856V541Q856 478 866 431T905 351T984 303T1114 287Q1238 287 1335 298T1503 328V16ZM452 3162L902 3810H1427L820 3162H452Z"  />
<glyph unicode="&#x13B;" horiz-adv-x="2761" d="M492 0V2966H913V344H2597V0H492ZM1307 -983L1151 -827L1411 -551L1319 -172H1569Q1620 -172 1664 -187T1740 -230T1792 -300T1811 -393Q1811 -450 1790 -506T1728 -618T1628 -729T1491 -844L1307 -983Z"  />
<glyph unicode="&#x13C;" horiz-adv-x="1593" d="M1503 16Q1460 4 1409 -7T1297 -28T1166 -43T1016 -49Q859 -49 751 -14T577 89T481 258T451 492V2966H856V541Q856 478 866 431T905 351T984 303T1114 287Q1238 287 1335 298T1503 328V16ZM738 -983L582 -827L842 -551L750 -172H1000Q1051 -172 1095 -187T1171 -230T1223 -300T1242 -393Q1242 -450 1221 -506T1159 -618T1059 -729T922 -844L738 -983Z"  />
<glyph unicode="&#x13D;" horiz-adv-x="2761" d="M492 0V2966H913V344H2597V0H492ZM1319 2114L1442 2552L1340 2966H1589Q1640 2966 1684 2951T1761 2908T1812 2838T1831 2744Q1831 2686 1819 2633T1785 2526T1733 2415T1667 2294L1569 2114H1319Z"  />
<glyph unicode="&#x13E;" horiz-adv-x="1593" d="M1503 16Q1460 4 1409 -7T1297 -28T1166 -43T1016 -49Q859 -49 751 -14T577 89T481 258T451 492V2966H856V541Q856 478 866 431T905 351T984 303T1114 287Q1238 287 1335 298T1503 328V16ZM1098 2114L1221 2552L1119 2966H1368Q1419 2966 1463 2951T1540 2908T1591 2838T1610 2744Q1610 2686 1598 2633T1564 2526T1512 2415T1446 2294L1348 2114H1098Z"  />
<glyph unicode="&#x13F;" horiz-adv-x="2761" d="M492 0V2966H913V344H2597V0H492ZM1479 1360V1806H1933V1360H1479Z"  />
<glyph unicode="&#x140;" horiz-adv-x="1757" d="M1503 16Q1460 4 1409 -7T1297 -28T1166 -43T1016 -49Q859 -49 751 -14T577 89T481 258T451 492V2966H856V541Q856 478 866 431T905 351T984 303T1114 287Q1238 287 1335 298T1503 328V16ZM1262 1257V1704H1716V1257H1262Z"  />
<glyph unicode="&#x141;" horiz-adv-x="2802" d="M532 0V1090L213 905V1249L532 1434V2966H954V1679L1761 2150V1802L954 1331V344H2638V0H532Z"  />
<glyph unicode="&#x142;" horiz-adv-x="1675" d="M1544 16Q1501 4 1450 -7T1338 -28T1207 -43T1057 -49Q900 -49 792 -14T618 89T522 258T492 492V1065L213 905V1249L492 1409V2966H897V1647L1360 1917V1569L897 1298V541Q897 478 907 431T946 351T1025 303T1155 287Q1279 287 1376 298T1544 328V16Z"  />
<glyph unicode="&#x143;" horiz-adv-x="3932" d="M2982 0L1249 2032Q1163 2134 1078 2234T905 2437Q905 2375 905 2315T905 2194T905 2072T905 1950V0H492V2966H950L2679 930Q2722 879 2765 829T2852 727T2940 626T3027 524Q3027 585 3027 646T3027 768T3027 889T3027 1012V2966H3441V0H2982ZM1766 3162L2216 3810H2741L2134 3162H1766Z"  />
<glyph unicode="&#x144;" horiz-adv-x="3174" d="M2343 0V1274Q2343 1431 2301 1537T2176 1709T1968 1802T1679 1831Q1561 1831 1448 1813T1231 1765T1037 1695T877 1610V0H471V2101H811L844 1892Q922 1949 1023 1996T1243 2078T1493 2131T1765 2150Q1897 2150 2021 2134T2255 2079T2455 1980T2611 1829T2712 1619T2748 1343V0H2343ZM1426 2408L1876 3056H2401L1794 2408H1426Z"  />
<glyph unicode="&#x145;" horiz-adv-x="3932" d="M2982 0L1249 2032Q1163 2134 1078 2234T905 2437Q905 2375 905 2315T905 2194T905 2072T905 1950V0H492V2966H950L2679 930Q2722 879 2765 829T2852 727T2940 626T3027 524Q3027 585 3027 646T3027 768T3027 889T3027 1012V2966H3441V0H2982ZM1728 -983L1572 -827L1832 -551L1740 -172H1990Q2041 -172 2085 -187T2161 -230T2213 -300T2232 -393Q2232 -450 2211 -506T2149 -618T2049 -729T1912 -844L1728 -983Z"  />
<glyph unicode="&#x146;" horiz-adv-x="3174" d="M2343 0V1274Q2343 1431 2301 1537T2176 1709T1968 1802T1679 1831Q1561 1831 1448 1813T1231 1765T1037 1695T877 1610V0H471V2101H811L844 1892Q922 1949 1023 1996T1243 2078T1493 2131T1765 2150Q1897 2150 2021 2134T2255 2079T2455 1980T2611 1829T2712 1619T2748 1343V0H2343ZM1372 -983L1216 -827L1476 -551L1384 -172H1634Q1685 -172 1729 -187T1805 -230T1857 -300T1876 -393Q1876 -450 1855 -506T1793 -618T1693 -729T1556 -844L1372 -983Z"  />
<glyph unicode="&#x147;" horiz-adv-x="3932" d="M2982 0L1249 2032Q1163 2134 1078 2234T905 2437Q905 2375 905 2315T905 2194T905 2072T905 1950V0H492V2966H950L2679 930Q2722 879 2765 829T2852 727T2940 626T3027 524Q3027 585 3027 646T3027 768T3027 889T3027 1012V2966H3441V0H2982ZM1786 3162L1172 3810H1540L1966 3478L2392 3810H2761L2146 3162H1786Z"  />
<glyph unicode="&#x148;" horiz-adv-x="3174" d="M2343 0V1274Q2343 1431 2301 1537T2176 1709T1968 1802T1679 1831Q1561 1831 1448 1813T1231 1765T1037 1695T877 1610V0H471V2101H811L844 1892Q922 1949 1023 1996T1243 2078T1493 2131T1765 2150Q1897 2150 2021 2134T2255 2079T2455 1980T2611 1829T2712 1619T2748 1343V0H2343ZM1446 2408L832 3056H1200L1626 2724L2052 3056H2421L1806 2408H1446Z"  />
<glyph unicode="&#x149;" horiz-adv-x="4198" d="M180 1962L508 2507L410 2966H737Q801 2966 849 2956T930 2921T979 2855T995 2753Q995 2675 965 2600T882 2449T758 2291T606 2118L463 1962H180ZM3367 0V1274Q3367 1431 3325 1537T3200 1709T2992 1802T2703 1831Q2585 1831 2472 1813T2255 1765T2061 1695T1901 1610V0H1495V2101H1835L1868 1892Q1946 1949 2047 1996T2267 2078T2517 2131T2789 2150Q2921 2150 3045 2134T3279 2079T3479 1980T3635 1829T3736 1619T3772 1343V0H3367Z"  />
<glyph unicode="&#x14C;" horiz-adv-x="3760" d="M1880 -49Q1620 -49 1402 1T1008 147T700 377T478 683T344 1055T299 1483Q299 1701 345 1899T483 2268T708 2576T1018 2811T1410 2962T1880 3015Q2140 3015 2358 2965T2752 2819T3060 2589T3282 2283T3416 1911T3461 1483Q3461 1265 3415 1067T3277 698T3052 390T2742 155T2350 4T1880 -49ZM1880 287Q2075 287 2235 329T2524 449T2747 636T2905 878T3000 1164T3031 1483Q3031 1649 3000 1802T2906 2088T2747 2330T2524 2516T2235 2636T1880 2679Q1686 2679 1525 2637T1236 2517T1013 2330T855 2088T760 1802T729 1483Q729 1317 760 1164T854 878T1013 636T1236 450T1524 330T1880 287ZM1167 3302V3609H2593V3302H1167Z"  />
<glyph unicode="&#x14D;" horiz-adv-x="3088" d="M1544 -49Q1323 -49 1143 -11T823 96T580 265T410 486T311 752T279 1053Q279 1208 312 1350T413 1614T584 1835T828 2004T1147 2112T1544 2150Q1765 2150 1945 2112T2265 2005T2509 1836T2678 1615T2777 1349T2810 1049Q2810 893 2777 751T2676 487T2505 266T2261 97T1941 -11T1544 -49ZM1544 266Q1762 266 1922 321T2186 479T2341 725T2392 1049Q2392 1227 2342 1372T2187 1620T1922 1779T1544 1835Q1326 1835 1167 1780T903 1622T747 1376T696 1053Q696 875 747 730T902 481T1166 322T1544 266ZM835 2548V2855H2261V2548H835Z"  />
<glyph unicode="&#x14E;" horiz-adv-x="3760" d="M1880 -49Q1620 -49 1402 1T1008 147T700 377T478 683T344 1055T299 1483Q299 1701 345 1899T483 2268T708 2576T1018 2811T1410 2962T1880 3015Q2140 3015 2358 2965T2752 2819T3060 2589T3282 2283T3416 1911T3461 1483Q3461 1265 3415 1067T3277 698T3052 390T2742 155T2350 4T1880 -49ZM1880 287Q2075 287 2235 329T2524 449T2747 636T2905 878T3000 1164T3031 1483Q3031 1649 3000 1802T2906 2088T2747 2330T2524 2516T2235 2636T1880 2679Q1686 2679 1525 2637T1236 2517T1013 2330T855 2088T760 1802T729 1483Q729 1317 760 1164T854 878T1013 636T1236 450T1524 330T1880 287ZM2593 3810Q2590 3656 2539 3532T2395 3319T2172 3182T1880 3134Q1719 3134 1589 3182T1366 3318T1222 3531T1167 3810H1454Q1462 3722 1492 3654T1575 3540T1704 3469T1880 3445Q1980 3445 2056 3469T2185 3539T2268 3654T2306 3810H2593Z"  />
<glyph unicode="&#x14F;" horiz-adv-x="3088" d="M1544 -49Q1323 -49 1143 -11T823 96T580 265T410 486T311 752T279 1053Q279 1208 312 1350T413 1614T584 1835T828 2004T1147 2112T1544 2150Q1765 2150 1945 2112T2265 2005T2509 1836T2678 1615T2777 1349T2810 1049Q2810 893 2777 751T2676 487T2505 266T2261 97T1941 -11T1544 -49ZM1544 266Q1762 266 1922 321T2186 479T2341 725T2392 1049Q2392 1227 2342 1372T2187 1620T1922 1779T1544 1835Q1326 1835 1167 1780T903 1622T747 1376T696 1053Q696 875 747 730T902 481T1166 322T1544 266ZM2261 3056Q2258 2902 2207 2778T2063 2565T1840 2428T1548 2380Q1387 2380 1257 2428T1034 2564T890 2777T835 3056H1122Q1130 2968 1160 2900T1243 2786T1372 2715T1548 2691Q1648 2691 1724 2715T1853 2785T1936 2900T1974 3056H2261Z"  />
<glyph unicode="&#x150;" horiz-adv-x="3760" d="M1880 -49Q1620 -49 1402 1T1008 147T700 377T478 683T344 1055T299 1483Q299 1701 345 1899T483 2268T708 2576T1018 2811T1410 2962T1880 3015Q2140 3015 2358 2965T2752 2819T3060 2589T3282 2283T3416 1911T3461 1483Q3461 1265 3415 1067T3277 698T3052 390T2742 155T2350 4T1880 -49ZM1880 287Q2075 287 2235 329T2524 449T2747 636T2905 878T3000 1164T3031 1483Q3031 1649 3000 1802T2906 2088T2747 2330T2524 2516T2235 2636T1880 2679Q1686 2679 1525 2637T1236 2517T1013 2330T855 2088T760 1802T729 1483Q729 1317 760 1164T854 878T1013 636T1236 450T1524 330T1880 287ZM1266 3162L1552 3810H2048L1606 3162H1266ZM2154 3162L2441 3810H2937L2494 3162H2154Z"  />
<glyph unicode="&#x151;" horiz-adv-x="3088" d="M1544 -49Q1323 -49 1143 -11T823 96T580 265T410 486T311 752T279 1053Q279 1208 312 1350T413 1614T584 1835T828 2004T1147 2112T1544 2150Q1765 2150 1945 2112T2265 2005T2509 1836T2678 1615T2777 1349T2810 1049Q2810 893 2777 751T2676 487T2505 266T2261 97T1941 -11T1544 -49ZM1544 266Q1762 266 1922 321T2186 479T2341 725T2392 1049Q2392 1227 2342 1372T2187 1620T1922 1779T1544 1835Q1326 1835 1167 1780T903 1622T747 1376T696 1053Q696 875 747 730T902 481T1166 322T1544 266ZM934 2408L1220 3056H1716L1274 2408H934ZM1822 2408L2109 3056H2605L2162 2408H1822Z"  />
<glyph unicode="&#x152;" horiz-adv-x="5353" d="M2683 0Q2588 -9 2498 -18T2321 -34T2150 -45T1982 -49Q1717 -49 1490 1T1075 147T743 377T500 683T350 1055T299 1483Q299 1701 351 1899T505 2268T752 2576T1085 2811T1497 2962T1982 3015Q2065 3015 2149 3011T2320 3000T2497 2984T2683 2966H5042V2621H3105V1696H4796V1352H3105V344H5067V0H2683ZM2683 2630Q2599 2643 2514 2652T2341 2668T2164 2676T1982 2679Q1777 2679 1605 2637T1293 2517T1049 2330T872 2088T765 1802T729 1483Q729 1317 765 1164T872 878T1048 636T1293 450T1604 330T1982 287Q2062 287 2148 289T2324 296T2504 311T2683 336V2630Z"  />
<glyph unicode="&#x153;" horiz-adv-x="4977" d="M4579 143Q4490 102 4389 67T4171 6T3919 -34T3625 -49Q3431 -49 3271 -15T2983 83T2756 234T2589 430Q2520 326 2422 238T2194 86T1902 -13T1544 -49Q1323 -49 1143 -11T823 96T580 265T410 486T311 752T279 1053Q279 1208 312 1350T413 1614T584 1835T828 2004T1147 2112T1544 2150Q1742 2150 1904 2115T2195 2016T2422 1865T2589 1675Q2658 1780 2754 1867T2973 2017T3244 2115T3564 2150Q3747 2150 3904 2116T4190 2017T4418 1861T4585 1656T4688 1408T4723 1126Q4723 1106 4723 1084T4721 1041T4718 1000T4714 967H2798Q2808 809 2862 682T3022 465T3287 327T3670 279Q3822 279 3948 294T4184 336T4390 396T4579 467V143ZM1544 266Q1762 266 1922 321T2186 479T2341 725T2392 1049Q2392 1227 2342 1372T2187 1620T1922 1779T1544 1835Q1326 1835 1167 1780T903 1622T747 1376T696 1053Q696 875 747 730T902 481T1166 322T1544 266ZM4325 1278Q4311 1402 4249 1505T4086 1683T3852 1798T3564 1839Q3409 1839 3275 1798T3040 1683T2877 1506T2802 1278H4325Z"  />
<glyph unicode="&#x154;" horiz-adv-x="3305" d="M2683 0L1733 1065Q1703 1098 1677 1122T1623 1163T1565 1192T1498 1209T1415 1218T1311 1221H913V0H492V2966H1642Q1985 2966 2225 2907T2616 2735T2835 2461T2904 2097Q2904 1925 2846 1785T2676 1540T2398 1364T2019 1262Q2078 1240 2128 1202T2228 1110L3224 0H2683ZM1552 1556Q1808 1556 1984 1587T2269 1683T2426 1851T2474 2097Q2474 2240 2426 2339T2270 2501T1985 2592T1552 2621H913V1556H1552ZM1413 3162L1863 3810H2388L1781 3162H1413Z"  />
<glyph unicode="&#x155;" horiz-adv-x="2138" d="M471 0V2101H836L868 1720Q922 1801 995 1877T1165 2012T1384 2106T1659 2142Q1773 2142 1868 2128T2032 2089V1729Q1987 1741 1938 1750T1835 1765T1725 1775T1610 1778Q1500 1778 1410 1758T1245 1706T1113 1630T1010 1542T932 1451T877 1368V0H471ZM1077 2408L1527 3056H2052L1445 2408H1077Z"  />
<glyph unicode="&#x156;" horiz-adv-x="3305" d="M2683 0L1733 1065Q1703 1098 1677 1122T1623 1163T1565 1192T1498 1209T1415 1218T1311 1221H913V0H492V2966H1642Q1985 2966 2225 2907T2616 2735T2835 2461T2904 2097Q2904 1925 2846 1785T2676 1540T2398 1364T2019 1262Q2078 1240 2128 1202T2228 1110L3224 0H2683ZM1552 1556Q1808 1556 1984 1587T2269 1683T2426 1851T2474 2097Q2474 2240 2426 2339T2270 2501T1985 2592T1552 2621H913V1556H1552ZM1511 -983L1355 -827L1615 -551L1523 -172H1773Q1824 -172 1868 -187T1944 -230T1996 -300T2015 -393Q2015 -450 1994 -506T1932 -618T1832 -729T1695 -844L1511 -983Z"  />
<glyph unicode="&#x157;" horiz-adv-x="2138" d="M471 0V2101H836L868 1720Q922 1801 995 1877T1165 2012T1384 2106T1659 2142Q1773 2142 1868 2128T2032 2089V1729Q1987 1741 1938 1750T1835 1765T1725 1775T1610 1778Q1500 1778 1410 1758T1245 1706T1113 1630T1010 1542T932 1451T877 1368V0H471ZM435 -983L279 -827L539 -551L447 -172H697Q748 -172 792 -187T868 -230T920 -300T939 -393Q939 -450 918 -506T856 -618T756 -729T619 -844L435 -983Z"  />
<glyph unicode="&#x158;" horiz-adv-x="3305" d="M2683 0L1733 1065Q1703 1098 1677 1122T1623 1163T1565 1192T1498 1209T1415 1218T1311 1221H913V0H492V2966H1642Q1985 2966 2225 2907T2616 2735T2835 2461T2904 2097Q2904 1925 2846 1785T2676 1540T2398 1364T2019 1262Q2078 1240 2128 1202T2228 1110L3224 0H2683ZM1552 1556Q1808 1556 1984 1587T2269 1683T2426 1851T2474 2097Q2474 2240 2426 2339T2270 2501T1985 2592T1552 2621H913V1556H1552ZM1434 3162L820 3810H1188L1614 3478L2040 3810H2409L1794 3162H1434Z"  />
<glyph unicode="&#x159;" horiz-adv-x="2138" d="M471 0V2101H836L868 1720Q922 1801 995 1877T1165 2012T1384 2106T1659 2142Q1773 2142 1868 2128T2032 2089V1729Q1987 1741 1938 1750T1835 1765T1725 1775T1610 1778Q1500 1778 1410 1758T1245 1706T1113 1630T1010 1542T932 1451T877 1368V0H471ZM1098 2408L484 3056H852L1278 2724L1704 3056H2073L1458 2408H1098Z"  />
<glyph unicode="&#x15A;" horiz-adv-x="3097" d="M283 471Q386 439 509 410T769 359T1054 324T1352 311Q1587 311 1769 341T2076 428T2266 569T2331 758Q2331 826 2312 882T2250 985T2142 1072T1982 1152T1765 1229T1487 1311Q1319 1357 1168 1404T889 1505T657 1627T483 1779T374 1973T340 2220Q342 2341 380 2446T493 2640T676 2798T928 2916T1249 2989T1638 3015Q1798 3015 1940 3003T2209 2970T2443 2918T2642 2851V2486Q2541 2521 2431 2552T2196 2605T1932 2641T1630 2654Q1418 2654 1258 2627T991 2547T829 2416T774 2236Q774 2169 788 2115T837 2015T934 1927T1087 1845T1309 1764T1610 1675Q1798 1623 1957 1575T2246 1473T2474 1355T2638 1209T2736 1020T2765 774Q2763 652 2723 544T2604 345T2407 180T2132 56T1776 -22T1339 -49Q1181 -49 1032 -38T747 -5T494 45T283 111V471ZM1303 3162L1753 3810H2278L1671 3162H1303Z"  />
<glyph unicode="&#x15B;" horiz-adv-x="2626" d="M328 414Q373 398 433 381T562 349T709 320T867 296T1028 280T1184 274Q1371 274 1509 293T1739 351T1876 445T1921 573Q1921 650 1880 699T1760 782T1565 842T1298 897Q1057 942 880 992T586 1114T413 1288T356 1540Q356 1680 416 1792T604 1984T930 2107T1405 2150Q1489 2150 1568 2145T1720 2130T1860 2106T1988 2075T2101 2038T2200 1995V1679Q2152 1699 2096 1718T1978 1753T1848 1783T1708 1806T1560 1821T1405 1827Q1234 1827 1114 1810T917 1757T805 1668T770 1544Q770 1467 811 1419T931 1337T1126 1279T1393 1225Q1633 1180 1810 1130T2103 1006T2277 830T2335 578Q2335 438 2261 323T2042 125T1682 -3T1184 -49Q1059 -49 935 -37T699 -5T491 43T328 102V414ZM1168 2408L1618 3056H2143L1536 2408H1168Z"  />
<glyph unicode="&#x15C;" horiz-adv-x="3097" d="M283 471Q386 439 509 410T769 359T1054 324T1352 311Q1587 311 1769 341T2076 428T2266 569T2331 758Q2331 826 2312 882T2250 985T2142 1072T1982 1152T1765 1229T1487 1311Q1319 1357 1168 1404T889 1505T657 1627T483 1779T374 1973T340 2220Q342 2341 380 2446T493 2640T676 2798T928 2916T1249 2989T1638 3015Q1798 3015 1940 3003T2209 2970T2443 2918T2642 2851V2486Q2541 2521 2431 2552T2196 2605T1932 2641T1630 2654Q1418 2654 1258 2627T991 2547T829 2416T774 2236Q774 2169 788 2115T837 2015T934 1927T1087 1845T1309 1764T1610 1675Q1798 1623 1957 1575T2246 1473T2474 1355T2638 1209T2736 1020T2765 774Q2763 652 2723 544T2604 345T2407 180T2132 56T1776 -22T1339 -49Q1181 -49 1032 -38T747 -5T494 45T283 111V471ZM1929 3162L1503 3490L1077 3162H709L1323 3810H1683L2298 3162H1929Z"  />
<glyph unicode="&#x15D;" horiz-adv-x="2626" d="M328 414Q373 398 433 381T562 349T709 320T867 296T1028 280T1184 274Q1371 274 1509 293T1739 351T1876 445T1921 573Q1921 650 1880 699T1760 782T1565 842T1298 897Q1057 942 880 992T586 1114T413 1288T356 1540Q356 1680 416 1792T604 1984T930 2107T1405 2150Q1489 2150 1568 2145T1720 2130T1860 2106T1988 2075T2101 2038T2200 1995V1679Q2152 1699 2096 1718T1978 1753T1848 1783T1708 1806T1560 1821T1405 1827Q1234 1827 1114 1810T917 1757T805 1668T770 1544Q770 1467 811 1419T931 1337T1126 1279T1393 1225Q1633 1180 1810 1130T2103 1006T2277 830T2335 578Q2335 438 2261 323T2042 125T1682 -3T1184 -49Q1059 -49 935 -37T699 -5T491 43T328 102V414ZM1794 2408L1368 2736L942 2408H574L1188 3056H1548L2163 2408H1794Z"  />
<glyph unicode="&#x15E;" horiz-adv-x="3097" d="M1049 -643Q1089 -652 1132 -658T1241 -664Q1267 -664 1300 -659T1363 -638T1413 -598T1434 -532Q1434 -489 1410 -457T1347 -400T1257 -361T1155 -336L1327 -49Q1170 -48 1022 -36T741 -3T491 46T283 111V471Q386 439 509 410T769 359T1054 324T1352 311Q1587 311 1769 341T2076 428T2266 569T2331 758Q2331 826 2312 882T2250 985T2142 1072T1982 1152T1765 1229T1487 1311Q1319 1357 1168 1404T889 1505T657 1627T483 1779T374 1973T340 2220Q342 2341 380 2446T493 2640T676 2798T928 2916T1249 2989T1638 3015Q1798 3015 1940 3003T2209 2970T2443 2918T2642 2851V2486Q2541 2521 2431 2552T2196 2605T1932 2641T1630 2654Q1418 2654 1258 2627T991 2547T829 2416T774 2236Q774 2169 788 2115T837 2015T934 1927T1087 1845T1309 1764T1610 1675Q1798 1623 1957 1575T2246 1473T2474 1355T2638 1209T2736 1020T2765 774Q2762 605 2686 463T2460 215T2083 42T1552 -41L1454 -246Q1511 -260 1559 -285T1644 -345T1700 -425T1720 -524Q1720 -618 1682 -686T1581 -798T1437 -864T1270 -885Q1208 -885 1153 -877T1049 -856V-643Z"  />
<glyph unicode="&#x15F;" horiz-adv-x="2626" d="M836 -643Q876 -652 919 -658T1028 -664Q1054 -664 1087 -659T1150 -638T1200 -598T1221 -532Q1221 -489 1197 -457T1134 -400T1044 -361T942 -336L1114 -49Q997 -46 884 -33T668 0T478 47T328 102V414Q373 398 433 381T562 349T709 320T867 296T1028 280T1184 274Q1371 274 1509 293T1739 351T1876 445T1921 573Q1921 650 1880 699T1760 782T1565 842T1298 897Q1057 942 880 992T586 1114T413 1288T356 1540Q356 1680 416 1792T604 1984T930 2107T1405 2150Q1489 2150 1568 2145T1720 2130T1860 2106T1988 2075T2101 2038T2200 1995V1679Q2152 1699 2096 1718T1978 1753T1848 1783T1708 1806T1560 1821T1405 1827Q1234 1827 1114 1810T917 1757T805 1668T770 1544Q770 1467 811 1419T931 1337T1126 1279T1393 1225Q1633 1180 1810 1130T2103 1006T2277 830T2335 578Q2335 447 2271 338T2082 148T1770 17T1339 -45L1241 -246Q1298 -260 1346 -285T1431 -345T1487 -425T1507 -524Q1507 -618 1469 -686T1368 -798T1224 -864T1057 -885Q995 -885 940 -877T836 -856V-643Z"  />
<glyph unicode="&#x160;" horiz-adv-x="3097" d="M283 471Q386 439 509 410T769 359T1054 324T1352 311Q1587 311 1769 341T2076 428T2266 569T2331 758Q2331 826 2312 882T2250 985T2142 1072T1982 1152T1765 1229T1487 1311Q1319 1357 1168 1404T889 1505T657 1627T483 1779T374 1973T340 2220Q342 2341 380 2446T493 2640T676 2798T928 2916T1249 2989T1638 3015Q1798 3015 1940 3003T2209 2970T2443 2918T2642 2851V2486Q2541 2521 2431 2552T2196 2605T1932 2641T1630 2654Q1418 2654 1258 2627T991 2547T829 2416T774 2236Q774 2169 788 2115T837 2015T934 1927T1087 1845T1309 1764T1610 1675Q1798 1623 1957 1575T2246 1473T2474 1355T2638 1209T2736 1020T2765 774Q2763 652 2723 544T2604 345T2407 180T2132 56T1776 -22T1339 -49Q1181 -49 1032 -38T747 -5T494 45T283 111V471ZM1323 3162L709 3810H1077L1503 3478L1929 3810H2298L1683 3162H1323Z"  />
<glyph unicode="&#x161;" horiz-adv-x="2626" d="M328 414Q373 398 433 381T562 349T709 320T867 296T1028 280T1184 274Q1371 274 1509 293T1739 351T1876 445T1921 573Q1921 650 1880 699T1760 782T1565 842T1298 897Q1057 942 880 992T586 1114T413 1288T356 1540Q356 1680 416 1792T604 1984T930 2107T1405 2150Q1489 2150 1568 2145T1720 2130T1860 2106T1988 2075T2101 2038T2200 1995V1679Q2152 1699 2096 1718T1978 1753T1848 1783T1708 1806T1560 1821T1405 1827Q1234 1827 1114 1810T917 1757T805 1668T770 1544Q770 1467 811 1419T931 1337T1126 1279T1393 1225Q1633 1180 1810 1130T2103 1006T2277 830T2335 578Q2335 438 2261 323T2042 125T1682 -3T1184 -49Q1059 -49 935 -37T699 -5T491 43T328 102V414ZM1188 2408L574 3056H942L1368 2724L1794 3056H2163L1548 2408H1188Z"  />
<glyph unicode="&#x162;" horiz-adv-x="3092" d="M1335 0V2621H135V2966H2957V2621H1757V0H1335ZM1307 -983L1151 -827L1411 -551L1319 -172H1569Q1620 -172 1664 -187T1740 -230T1792 -300T1811 -393Q1811 -450 1790 -506T1728 -618T1628 -729T1491 -844L1307 -983Z"  />
<glyph unicode="&#x163;" horiz-adv-x="2187" d="M1974 53Q1917 32 1850 13T1706 -19T1541 -41T1356 -49Q1165 -49 1023 -13T785 103T642 308T594 610V1782H139V2101H610L659 2626H995V2101H2007V1782H995V664Q995 555 1023 481T1111 362T1261 298T1479 279Q1549 279 1616 285T1746 304T1866 332T1974 369V53ZM1040 -983L884 -827L1144 -551L1052 -172H1302Q1353 -172 1397 -187T1473 -230T1525 -300T1544 -393Q1544 -450 1523 -506T1461 -618T1361 -729T1224 -844L1040 -983Z"  />
<glyph unicode="&#x164;" horiz-adv-x="3092" d="M1335 0V2621H135V2966H2957V2621H1757V0H1335ZM1364 3162L750 3810H1118L1544 3478L1970 3810H2339L1724 3162H1364Z"  />
<glyph unicode="&#x165;" horiz-adv-x="2187" d="M1974 53Q1917 32 1850 13T1706 -19T1541 -41T1356 -49Q1165 -49 1023 -13T785 103T642 308T594 610V1782H139V2101H610L659 2626H995V2101H2007V1782H995V664Q995 555 1023 481T1111 362T1261 298T1479 279Q1549 279 1616 285T1746 304T1866 332T1974 369V53ZM1425 2483L1548 2921L1446 3335H1695Q1746 3335 1790 3320T1867 3277T1918 3207T1937 3113Q1937 3055 1925 3002T1891 2895T1839 2784T1773 2663L1675 2483H1425Z"  />
<glyph unicode="&#x166;" horiz-adv-x="3092" d="M1335 0V1221H705V1528H1335V2621H135V2966H2957V2621H1757V1528H2388V1221H1757V0H1335Z"  />
<glyph unicode="&#x167;" horiz-adv-x="2187" d="M1974 53Q1917 32 1850 13T1706 -19T1541 -41T1356 -49Q1165 -49 1023 -13T785 103T642 308T594 610V938H336V1245H594V1782H139V2101H610L659 2626H995V2101H2007V1782H995V1245H1671V938H995V664Q995 555 1023 481T1111 362T1261 298T1479 279Q1549 279 1616 285T1746 304T1866 332T1974 369V53Z"  />
<glyph unicode="&#x168;" horiz-adv-x="3600" d="M2736 2966H3158V1118Q3158 936 3115 779T2989 492T2787 261T2516 92T2185 -13T1798 -49Q1589 -49 1408 -13T1076 91T807 261T608 491T485 778T442 1118V2966H864V1151Q864 944 923 786T1099 520T1391 358T1798 303Q2032 303 2207 357T2500 519T2677 785T2736 1151V2966ZM2576 3744Q2576 3641 2550 3545T2469 3373T2326 3253T2118 3208Q2045 3208 1983 3226T1865 3270T1762 3328T1668 3386T1581 3431T1495 3449Q1450 3449 1417 3434T1361 3391T1325 3321T1307 3228H1024Q1024 3331 1050 3427T1132 3599T1274 3719T1483 3765Q1556 3765 1618 3747T1735 3702T1838 3644T1932 3586T2019 3541T2105 3523Q2150 3523 2183 3538T2239 3581T2275 3651T2294 3744H2576Z"  />
<glyph unicode="&#x169;" horiz-adv-x="3133" d="M2322 0L2290 180Q2212 129 2116 87T1911 15T1680 -32T1430 -49Q1298 -49 1172 -36T935 12T730 103T569 247T464 455T426 737V2101H831V807Q831 658 876 556T1009 390T1223 298T1516 270Q1636 270 1735 283T1922 321T2091 384T2257 471V2101H2662V0H2322ZM2322 2990Q2322 2887 2296 2791T2215 2619T2072 2499T1864 2454Q1791 2454 1729 2472T1611 2516T1508 2574T1414 2632T1327 2677T1241 2695Q1196 2695 1163 2680T1107 2637T1071 2567T1053 2474H770Q770 2577 796 2673T878 2845T1020 2965T1229 3011Q1302 3011 1364 2993T1481 2948T1584 2890T1678 2832T1765 2787T1851 2769Q1896 2769 1929 2784T1985 2827T2021 2897T2040 2990H2322Z"  />
<glyph unicode="&#x16A;" horiz-adv-x="3600" d="M2736 2966H3158V1118Q3158 936 3115 779T2989 492T2787 261T2516 92T2185 -13T1798 -49Q1589 -49 1408 -13T1076 91T807 261T608 491T485 778T442 1118V2966H864V1151Q864 944 923 786T1099 520T1391 358T1798 303Q2032 303 2207 357T2500 519T2677 785T2736 1151V2966ZM1085 3302V3609H2511V3302H1085Z"  />
<glyph unicode="&#x16B;" horiz-adv-x="3133" d="M2322 0L2290 180Q2212 129 2116 87T1911 15T1680 -32T1430 -49Q1298 -49 1172 -36T935 12T730 103T569 247T464 455T426 737V2101H831V807Q831 658 876 556T1009 390T1223 298T1516 270Q1636 270 1735 283T1922 321T2091 384T2257 471V2101H2662V0H2322ZM831 2548V2855H2257V2548H831Z"  />
<glyph unicode="&#x16C;" horiz-adv-x="3600" d="M2736 2966H3158V1118Q3158 936 3115 779T2989 492T2787 261T2516 92T2185 -13T1798 -49Q1589 -49 1408 -13T1076 91T807 261T608 491T485 778T442 1118V2966H864V1151Q864 944 923 786T1099 520T1391 358T1798 303Q2032 303 2207 357T2500 519T2677 785T2736 1151V2966ZM2511 3810Q2508 3656 2457 3532T2313 3319T2090 3182T1798 3134Q1637 3134 1507 3182T1284 3318T1140 3531T1085 3810H1372Q1380 3722 1410 3654T1493 3540T1622 3469T1798 3445Q1898 3445 1974 3469T2103 3539T2186 3654T2224 3810H2511Z"  />
<glyph unicode="&#x16D;" horiz-adv-x="3133" d="M2322 0L2290 180Q2212 129 2116 87T1911 15T1680 -32T1430 -49Q1298 -49 1172 -36T935 12T730 103T569 247T464 455T426 737V2101H831V807Q831 658 876 556T1009 390T1223 298T1516 270Q1636 270 1735 283T1922 321T2091 384T2257 471V2101H2662V0H2322ZM2257 3056Q2254 2902 2203 2778T2059 2565T1836 2428T1544 2380Q1383 2380 1253 2428T1030 2564T886 2777T831 3056H1118Q1126 2968 1156 2900T1239 2786T1368 2715T1544 2691Q1644 2691 1720 2715T1849 2785T1932 2900T1970 3056H2257Z"  />
<glyph unicode="&#x16E;" horiz-adv-x="3600" d="M2736 2966H3158V1118Q3158 936 3115 779T2989 492T2787 261T2516 92T2185 -13T1798 -49Q1589 -49 1408 -13T1076 91T807 261T608 491T485 778T442 1118V2966H864V1151Q864 944 923 786T1099 520T1391 358T1798 303Q2032 303 2207 357T2500 519T2677 785T2736 1151V2966ZM2253 3580Q2253 3487 2218 3407T2121 3269T1976 3179T1798 3146Q1704 3146 1621 3178T1477 3269T1380 3407T1344 3580Q1344 3674 1379 3753T1476 3891T1621 3981T1798 4014Q1893 4014 1976 3982T2120 3891T2217 3754T2253 3580ZM1798 3355Q1847 3355 1888 3372T1959 3420T2006 3492T2023 3580Q2023 3627 2006 3667T1959 3738T1888 3787T1798 3806Q1749 3806 1708 3788T1637 3739T1590 3668T1573 3580Q1573 3533 1590 3492T1637 3421T1708 3373T1798 3355Z"  />
<glyph unicode="&#x16F;" horiz-adv-x="3133" d="M2322 0L2290 180Q2212 129 2116 87T1911 15T1680 -32T1430 -49Q1298 -49 1172 -36T935 12T730 103T569 247T464 455T426 737V2101H831V807Q831 658 876 556T1009 390T1223 298T1516 270Q1636 270 1735 283T1922 321T2091 384T2257 471V2101H2662V0H2322ZM1999 2826Q1999 2733 1964 2653T1867 2515T1722 2425T1544 2392Q1450 2392 1367 2424T1223 2515T1126 2653T1090 2826Q1090 2920 1125 2999T1222 3137T1367 3227T1544 3260Q1639 3260 1722 3228T1866 3137T1963 3000T1999 2826ZM1544 2601Q1593 2601 1634 2618T1705 2666T1752 2738T1769 2826Q1769 2873 1752 2913T1705 2984T1634 3033T1544 3052Q1495 3052 1454 3034T1383 2985T1336 2914T1319 2826Q1319 2779 1336 2738T1383 2667T1454 2619T1544 2601Z"  />
<glyph unicode="&#x170;" horiz-adv-x="3600" d="M2736 2966H3158V1118Q3158 936 3115 779T2989 492T2787 261T2516 92T2185 -13T1798 -49Q1589 -49 1408 -13T1076 91T807 261T608 491T485 778T442 1118V2966H864V1151Q864 944 923 786T1099 520T1391 358T1798 303Q2032 303 2207 357T2500 519T2677 785T2736 1151V2966ZM1184 3162L1470 3810H1966L1524 3162H1184ZM2072 3162L2359 3810H2855L2412 3162H2072Z"  />
<glyph unicode="&#x171;" horiz-adv-x="3133" d="M2322 0L2290 180Q2212 129 2116 87T1911 15T1680 -32T1430 -49Q1298 -49 1172 -36T935 12T730 103T569 247T464 455T426 737V2101H831V807Q831 658 876 556T1009 390T1223 298T1516 270Q1636 270 1735 283T1922 321T2091 384T2257 471V2101H2662V0H2322ZM930 2408L1216 3056H1712L1270 2408H930ZM1818 2408L2105 3056H2601L2158 2408H1818Z"  />
<glyph unicode="&#x172;" horiz-adv-x="3600" d="M2138 -860Q2089 -873 2033 -879T1917 -885Q1791 -885 1702 -853T1556 -770T1473 -652T1446 -516Q1446 -424 1476 -349T1553 -217T1651 -117T1749 -49Q1547 -45 1372 -7T1052 101T793 271T602 500T483 784T442 1118V2966H864V1151Q864 944 923 786T1099 520T1391 358T1798 303Q2032 303 2207 357T2500 519T2677 785T2736 1151V2966H3158V1118Q3158 970 3130 839T3046 595T2911 388T2727 219T2497 88T2224 -4Q2124 -29 2038 -75T1889 -182T1789 -312T1753 -455Q1753 -556 1815 -605T1991 -655Q2014 -655 2034 -654T2072 -650T2106 -645T2138 -639V-860Z"  />
<glyph unicode="&#x173;" horiz-adv-x="3133" d="M2662 -860Q2613 -873 2557 -879T2441 -885Q2315 -885 2226 -853T2080 -770T1997 -652T1970 -516Q1970 -435 2000 -362T2079 -225T2192 -104T2322 0L2290 180Q2212 129 2116 87T1911 15T1680 -32T1430 -49Q1298 -49 1172 -36T935 12T730 103T569 247T464 455T426 737V2101H831V807Q831 658 876 556T1009 390T1223 298T1516 270Q1636 270 1735 283T1922 321T2091 384T2257 471V2101H2662V0H2564Q2505 -57 2453 -115T2362 -230T2300 -344T2277 -455Q2277 -556 2339 -605T2515 -655Q2538 -655 2558 -654T2596 -650T2630 -645T2662 -639V-860Z"  />
<glyph unicode="&#x174;" horiz-adv-x="5476" d="M3731 0L2937 1946Q2912 2007 2887 2067T2837 2189T2786 2310T2736 2433Q2712 2371 2688 2311T2638 2189T2589 2068T2540 1946L1745 0H1315L33 2966H496L1327 963Q1353 900 1379 838T1431 713T1484 589T1536 463Q1561 526 1586 588T1636 713T1687 837T1737 963L2540 2966H2937L3748 942Q3772 879 3797 816T3848 690T3900 564T3953 438Q3979 501 4005 564T4059 690T4113 816T4166 942L5009 2966H5444L4162 0H3731ZM3162 3162L2736 3490L2310 3162H1942L2556 3810H2916L3531 3162H3162Z"  />
<glyph unicode="&#x175;" horiz-adv-x="4239" d="M2814 0L2253 1339Q2219 1423 2184 1505T2114 1671Q2079 1588 2044 1502T1974 1331L1425 0H1049L66 2101H508L1094 762Q1131 678 1167 594T1241 426Q1275 510 1310 594T1380 762L1933 2101H2310L2875 762Q2909 678 2945 596T3015 430Q3052 514 3086 596T3158 762L3740 2101H4174L3191 0H2814ZM2543 2408L2117 2736L1691 2408H1323L1937 3056H2297L2912 2408H2543Z"  />
<glyph unicode="&#x176;" horiz-adv-x="3183" d="M1380 0V1106L8 2966H504L1593 1446L2695 2966H3174L1802 1110V0H1380ZM2015 3162L1589 3490L1163 3162H795L1409 3810H1769L2384 3162H2015Z"  />
<glyph unicode="&#x177;" horiz-adv-x="2630" d="M16 -553Q57 -562 106 -570T221 -578Q316 -578 401 -565T561 -523T704 -453T831 -352T946 -219T1049 -53L1102 45L49 2101H500L1180 717Q1217 642 1251 571T1323 422Q1360 499 1394 573T1466 721L2138 2101H2580L1470 -61Q1403 -191 1330 -305T1173 -513T990 -682T776 -808T524 -886T225 -913Q201 -913 173 -912T116 -907T62 -898T16 -885V-553ZM1724 2408L1298 2736L872 2408H504L1118 3056H1478L2093 2408H1724Z"  />
<glyph unicode="&#x178;" horiz-adv-x="3183" d="M1380 0V1106L8 2966H504L1593 1446L2695 2966H3174L1802 1110V0H1380ZM836 3281V3695H1274V3281H836ZM1905 3281V3695H2343V3281H1905Z"  />
<glyph unicode="&#x179;" horiz-adv-x="3117" d="M270 0V324L2269 2621H315V2966H2789V2642L795 344H2847V0H270ZM1368 3162L1818 3810H2343L1736 3162H1368Z"  />
<glyph unicode="&#x17A;" horiz-adv-x="2646" d="M238 0V279L1802 1782H299V2101H2355V1827L782 319H2408V0H238ZM1118 2408L1568 3056H2093L1486 2408H1118Z"  />
<glyph unicode="&#x17B;" horiz-adv-x="3117" d="M270 0V324L2269 2621H315V2966H2789V2642L795 344H2847V0H270ZM1344 3257V3703H1798V3257H1344Z"  />
<glyph unicode="&#x17C;" horiz-adv-x="2646" d="M238 0V279L1802 1782H299V2101H2355V1827L782 319H2408V0H238ZM1094 2503V2949H1548V2503H1094Z"  />
<glyph unicode="&#x17D;" horiz-adv-x="3117" d="M270 0V324L2269 2621H315V2966H2789V2642L795 344H2847V0H270ZM1389 3162L775 3810H1143L1569 3478L1995 3810H2364L1749 3162H1389Z"  />
<glyph unicode="&#x17E;" horiz-adv-x="2646" d="M238 0V279L1802 1782H299V2101H2355V1827L782 319H2408V0H238ZM1139 2408L525 3056H893L1319 2724L1745 3056H2114L1499 2408H1139Z"  />
<glyph unicode="&#x192;" horiz-adv-x="3277" d="M1827 1397L1692 545Q1653 308 1571 127T1350 -179T1007 -366T524 -430Q501 -430 474 -428T418 -423T366 -415T324 -406L369 -94Q383 -97 402 -99T443 -103T484 -105T520 -106Q689 -106 819 -72T1043 41T1198 246T1290 557L1425 1397H598L647 1716H1475L1524 2015Q1564 2262 1645 2449T1858 2762T2176 2951T2613 3015Q2653 3015 2696 3012T2782 3004T2866 2993T2945 2979T3014 2964T3068 2949L3019 2634Q2990 2644 2947 2654T2854 2671T2751 2682T2646 2687Q2479 2687 2356 2652T2147 2533T2005 2311T1917 1966L1876 1716H2879L2830 1397H1827Z"  />
<glyph unicode="&#x218;" horiz-adv-x="3097" d="M283 471Q386 439 509 410T769 359T1054 324T1352 311Q1587 311 1769 341T2076 428T2266 569T2331 758Q2331 826 2312 882T2250 985T2142 1072T1982 1152T1765 1229T1487 1311Q1319 1357 1168 1404T889 1505T657 1627T483 1779T374 1973T340 2220Q342 2341 380 2446T493 2640T676 2798T928 2916T1249 2989T1638 3015Q1798 3015 1940 3003T2209 2970T2443 2918T2642 2851V2486Q2541 2521 2431 2552T2196 2605T1932 2641T1630 2654Q1418 2654 1258 2627T991 2547T829 2416T774 2236Q774 2169 788 2115T837 2015T934 1927T1087 1845T1309 1764T1610 1675Q1798 1623 1957 1575T2246 1473T2474 1355T2638 1209T2736 1020T2765 774Q2763 652 2723 544T2604 345T2407 180T2132 56T1776 -22T1339 -49Q1181 -49 1032 -38T747 -5T494 45T283 111V471ZM1319 -983L1163 -827L1423 -551L1331 -172H1581Q1632 -172 1676 -187T1752 -230T1804 -300T1823 -393Q1823 -450 1802 -506T1740 -618T1640 -729T1503 -844L1319 -983Z"  />
<glyph unicode="&#x219;" horiz-adv-x="2626" d="M328 414Q373 398 433 381T562 349T709 320T867 296T1028 280T1184 274Q1371 274 1509 293T1739 351T1876 445T1921 573Q1921 650 1880 699T1760 782T1565 842T1298 897Q1057 942 880 992T586 1114T413 1288T356 1540Q356 1680 416 1792T604 1984T930 2107T1405 2150Q1489 2150 1568 2145T1720 2130T1860 2106T1988 2075T2101 2038T2200 1995V1679Q2152 1699 2096 1718T1978 1753T1848 1783T1708 1806T1560 1821T1405 1827Q1234 1827 1114 1810T917 1757T805 1668T770 1544Q770 1467 811 1419T931 1337T1126 1279T1393 1225Q1633 1180 1810 1130T2103 1006T2277 830T2335 578Q2335 438 2261 323T2042 125T1682 -3T1184 -49Q1059 -49 935 -37T699 -5T491 43T328 102V414ZM1094 -983L938 -827L1198 -551L1106 -172H1356Q1407 -172 1451 -187T1527 -230T1579 -300T1598 -393Q1598 -450 1577 -506T1515 -618T1415 -729T1278 -844L1094 -983Z"  />
<glyph unicode="&#x21A;" horiz-adv-x="3092" d="M1335 0V2621H135V2966H2957V2621H1757V0H1335ZM1307 -983L1151 -827L1411 -551L1319 -172H1569Q1620 -172 1664 -187T1740 -230T1792 -300T1811 -393Q1811 -450 1790 -506T1728 -618T1628 -729T1491 -844L1307 -983Z"  />
<glyph unicode="&#x21B;" horiz-adv-x="2187" d="M1974 53Q1917 32 1850 13T1706 -19T1541 -41T1356 -49Q1165 -49 1023 -13T785 103T642 308T594 610V1782H139V2101H610L659 2626H995V2101H2007V1782H995V664Q995 555 1023 481T1111 362T1261 298T1479 279Q1549 279 1616 285T1746 304T1866 332T1974 369V53ZM1040 -983L884 -827L1144 -551L1052 -172H1302Q1353 -172 1397 -187T1473 -230T1525 -300T1544 -393Q1544 -450 1523 -506T1461 -618T1361 -729T1224 -844L1040 -983Z"  />
<glyph unicode="&#x237;" horiz-adv-x="1348" d="M-291 -565Q-223 -581 -163 -587T-41 -594Q105 -594 203 -555T360 -435T445 -230T471 66V2101H877V37Q877 -204 829 -382T674 -679T398 -855T-12 -913Q-51 -913 -89 -911T-162 -905T-230 -895T-291 -881V-565Z"  />
<glyph unicode="&#x2C6;" horiz-adv-x="2064" d="M1458 2408L1032 2736L606 2408H238L852 3056H1212L1827 2408H1458Z"  />
<glyph unicode="&#x2C7;" horiz-adv-x="2064" d="M852 2408L238 3056H606L1032 2724L1458 3056H1827L1212 2408H852Z"  />
<glyph unicode="&#x2D8;" horiz-adv-x="2064" d="M1745 3056Q1742 2902 1691 2778T1547 2565T1324 2428T1032 2380Q871 2380 741 2428T518 2564T374 2777T319 3056H606Q614 2968 644 2900T727 2786T856 2715T1032 2691Q1132 2691 1208 2715T1337 2785T1420 2900T1458 3056H1745Z"  />
<glyph unicode="&#x2D9;" horiz-adv-x="2064" d="M803 2503V2949H1257V2503H803Z"  />
<glyph unicode="&#x2DA;" horiz-adv-x="2064" d="M1487 2826Q1487 2733 1452 2653T1355 2515T1210 2425T1032 2392Q938 2392 855 2424T711 2515T614 2653T578 2826Q578 2920 613 2999T710 3137T855 3227T1032 3260Q1127 3260 1210 3228T1354 3137T1451 3000T1487 2826ZM1032 2601Q1081 2601 1122 2618T1193 2666T1240 2738T1257 2826Q1257 2873 1240 2913T1193 2984T1122 3033T1032 3052Q983 3052 942 3034T871 2985T824 2914T807 2826Q807 2779 824 2738T871 2667T942 2619T1032 2601Z"  />
<glyph unicode="&#x2DB;" horiz-adv-x="2064" d="M1376 -860Q1327 -873 1271 -879T1155 -885Q1029 -885 940 -853T794 -770T711 -652T684 -516Q684 -427 721 -348T816 -198T947 -68T1090 41H1323Q1258 -21 1199 -84T1093 -210T1019 -335T991 -455Q991 -556 1053 -605T1229 -655Q1252 -655 1272 -654T1310 -650T1344 -645T1376 -639V-860Z"  />
<glyph unicode="&#x2DC;" horiz-adv-x="2064" d="M1806 2990Q1806 2887 1780 2791T1699 2619T1556 2499T1348 2454Q1275 2454 1213 2472T1095 2516T992 2574T898 2632T811 2677T725 2695Q680 2695 647 2680T591 2637T555 2567T537 2474H254Q254 2577 280 2673T362 2845T504 2965T713 3011Q786 3011 848 2993T965 2948T1068 2890T1162 2832T1249 2787T1335 2769Q1380 2769 1413 2784T1469 2827T1505 2897T1524 2990H1806Z"  />
<glyph unicode="&#x2DD;" horiz-adv-x="2064" d="M197 2408L483 3056H979L537 2408H197ZM1085 2408L1372 3056H1868L1425 2408H1085Z"  />
<glyph unicode="&#x312;" horiz-adv-x="2064" d="M942 2335Q891 2335 847 2350T771 2393T719 2463T700 2556Q700 2614 721 2672T783 2787T883 2902T1020 3019L1204 3158L1360 3002L1098 2716L1192 2335H942Z"  />
<glyph unicode="&#x315;" horiz-adv-x="2064" d="M774 2114L897 2552L795 2966H1044Q1095 2966 1139 2951T1216 2908T1267 2838T1286 2744Q1286 2686 1274 2633T1240 2526T1188 2415T1122 2294L1024 2114H774Z"  />
<glyph unicode="&#x326;" horiz-adv-x="2064" d="M856 -983L700 -827L960 -551L868 -172H1118Q1169 -172 1213 -187T1289 -230T1341 -300T1360 -393Q1360 -450 1339 -506T1277 -618T1177 -729T1040 -844L856 -983Z"  />
<glyph unicode="&#x384;" horiz-adv-x="2064" d="M774 3105H1290L1106 2384H958L774 3105Z"  />
<glyph unicode="&#x385;" horiz-adv-x="2064" d="M197 2941H594V2527H197V2941ZM815 3105H1249L1106 2384H958L815 3105ZM1470 2941H1868V2527H1470V2941Z"  />
<glyph unicode="&#x386;" horiz-adv-x="3494" d="M3002 0L2635 731L2634 733H848L847 731L483 0H20L1503 2966H1991L3473 0H3002ZM1917 2220Q1874 2307 1829 2399T1741 2580Q1697 2491 1653 2401T1565 2220L1000 1079L999 1077H2482L2481 1079L1917 2220ZM365 2966H881L697 2245H549L365 2966Z"  />
<glyph unicode="&#x388;" horiz-adv-x="3469" d="M799 0V2966H3158V2621H1220V1696H2912V1352H1220V344H3182V0H799ZM-40 2966H476L292 2245H144L-40 2966Z"  />
<glyph unicode="&#x389;" horiz-adv-x="4043" d="M3129 0V1315H1220V0H799V2966H1220V1659H3129V2966H3551V0H3129ZM-40 2966H476L292 2245H144L-40 2966Z"  />
<glyph unicode="&#x38A;" horiz-adv-x="2658" d="M803 0V344H1356V2621H803V2966H2330V2621H1778V344H2330V0H803ZM-40 2966H476L292 2245H144L-40 2966Z"  />
<glyph unicode="&#x38C;" horiz-adv-x="4022" d="M2142 -49Q1882 -49 1664 1T1270 147T962 377T740 683T606 1055T561 1483Q561 1701 607 1899T745 2268T970 2576T1280 2811T1672 2962T2142 3015Q2402 3015 2620 2965T3014 2819T3322 2589T3544 2283T3678 1911T3723 1483Q3723 1265 3677 1067T3539 698T3314 390T3004 155T2612 4T2142 -49ZM2142 287Q2337 287 2497 329T2786 449T3009 636T3167 878T3262 1164T3293 1483Q3293 1649 3262 1802T3168 2088T3009 2330T2786 2516T2497 2636T2142 2679Q1948 2679 1787 2637T1498 2517T1275 2330T1117 2088T1022 1802T991 1483Q991 1317 1022 1164T1116 878T1275 636T1498 450T1786 330T2142 287ZM-40 2966H476L292 2245H144L-40 2966Z"  />
<glyph unicode="&#x38E;" horiz-adv-x="3797" d="M1994 0V1106L622 2966H1118L2207 1446L3309 2966H3788L2416 1110V0H1994ZM-73 2966H443L259 2245H111L-73 2966Z"  />
<glyph unicode="&#x38F;" horiz-adv-x="4178" d="M2469 0V324Q2678 387 2832 497T3088 756T3239 1089T3289 1483Q3289 1649 3258 1802T3164 2088T3005 2330T2782 2516T2493 2636T2138 2679Q1943 2679 1782 2637T1493 2517T1270 2330T1112 2088T1018 1802T987 1483Q987 1273 1036 1089T1187 756T1443 497T1806 324V0H360V344H1146Q1008 433 899 553T714 818T598 1130T557 1483Q557 1701 603 1899T741 2268T966 2576T1276 2811T1668 2962T2138 3015Q2398 3015 2616 2965T3010 2819T3318 2589T3540 2283T3674 1911T3719 1483Q3719 1298 3678 1131T3561 818T3375 553T3129 344H3915V0H2469ZM-40 2966H476L292 2245H144L-40 2966Z"  />
<glyph unicode="&#x390;" horiz-adv-x="1593" d="M1016 -49Q859 -49 751 -14T577 89T481 258T451 492V2101H856V541Q856 478 866 431T905 351T984 303T1114 287Q1238 287 1335 298T1503 328V16Q1460 4 1409 -7T1297 -28T1166 -43T1016 -49ZM-183 2941H214V2527H-183V2941ZM435 3105H869L726 2384H578L435 3105ZM1090 2941H1488V2527H1090V2941Z"  />
<glyph unicode="&#x391;" horiz-adv-x="3494" d="M3002 0L2635 731L2634 733H848L847 731L483 0H20L1503 2966H1991L3473 0H3002ZM1917 2220Q1874 2307 1829 2399T1741 2580Q1697 2491 1653 2401T1565 2220L1000 1079L999 1077H2482L2481 1079L1917 2220Z"  />
<glyph unicode="&#x392;" horiz-adv-x="3326" d="M492 0V2966H1610Q1922 2966 2158 2913T2554 2755T2794 2496T2875 2138Q2875 2010 2842 1911T2748 1735T2597 1603T2396 1511Q2545 1473 2661 1414T2858 1271T2981 1077T3023 827Q3023 692 2987 578T2880 373T2702 211T2455 95T2140 24T1757 0H492ZM1667 340Q1893 340 2065 362T2353 440T2529 590T2589 827Q2589 970 2530 1064T2354 1215T2065 1295T1667 1319H913V340H1667ZM1520 1647Q1746 1647 1918 1670T2206 1749T2381 1900T2441 2138Q2441 2281 2382 2375T2206 2525T1918 2603T1520 2626H913V1647H1520Z"  />
<glyph unicode="&#x393;" horiz-adv-x="2732" d="M492 2966H2597V2621H913V0H492V2966Z"  />
<glyph unicode="&#x394;" horiz-adv-x="3543" d="M197 0V324L1540 2966H2003L3346 324V0H197ZM2040 1978Q2006 2046 1972 2114T1903 2251T1834 2387T1765 2523Q1731 2455 1697 2387T1628 2251T1559 2115T1491 1978L668 344H2863L2040 1978Z"  />
<glyph unicode="&#x395;" horiz-adv-x="3162" d="M492 0V2966H2851V2621H913V1696H2605V1352H913V344H2875V0H492Z"  />
<glyph unicode="&#x396;" horiz-adv-x="3117" d="M270 0V324L2269 2621H315V2966H2789V2642L795 344H2847V0H270Z"  />
<glyph unicode="&#x397;" horiz-adv-x="3736" d="M2822 0V1315H913V0H492V2966H913V1659H2822V2966H3244V0H2822Z"  />
<glyph unicode="&#x398;" horiz-adv-x="3760" d="M1880 -49Q1620 -49 1402 1T1008 147T700 377T478 683T344 1055T299 1483Q299 1701 345 1899T483 2268T708 2576T1018 2811T1410 2962T1880 3015Q2140 3015 2358 2965T2752 2819T3060 2589T3282 2283T3416 1911T3461 1483Q3461 1265 3415 1067T3277 698T3052 390T2742 155T2350 4T1880 -49ZM1880 287Q2075 287 2235 329T2524 449T2747 636T2905 878T3000 1164T3031 1483Q3031 1649 3000 1802T2906 2088T2747 2330T2524 2516T2235 2636T1880 2679Q1686 2679 1525 2637T1236 2517T1013 2330T855 2088T760 1802T729 1483Q729 1317 760 1164T854 878T1013 636T1236 450T1524 330T1880 287ZM1098 1659H2662V1315H1098V1659Z"  />
<glyph unicode="&#x399;" horiz-adv-x="2183" d="M328 0V344H881V2621H328V2966H1855V2621H1303V344H1855V0H328Z"  />
<glyph unicode="&#x39A;" horiz-adv-x="3461" d="M2789 0L913 1372V0H492V2966H913V1622L2765 2966H3387L1705 1765Q1618 1703 1530 1640T1355 1516Q1398 1485 1440 1455T1525 1393T1610 1332T1696 1270L3449 0H2789Z"  />
<glyph unicode="&#x39B;" horiz-adv-x="3330" d="M1434 2966H1896L3310 0H2843L1659 2511L479 0H20L1434 2966Z"  />
<glyph unicode="&#x39C;" horiz-adv-x="4379" d="M3478 0V2007Q3478 2109 3478 2207T3478 2408Q3419 2328 3361 2249T3244 2089L2306 819H2073L1135 2089Q1106 2129 1077 2169T1018 2248T960 2328T901 2408Q901 2306 901 2208T901 2007V0H492V2966H950L1991 1548Q2043 1477 2095 1407T2200 1266Q2252 1337 2304 1409T2408 1552L3449 2966H3887V0H3478Z"  />
<glyph unicode="&#x39D;" horiz-adv-x="3932" d="M2982 0L1249 2032Q1163 2134 1078 2234T905 2437Q905 2375 905 2315T905 2194T905 2072T905 1950V0H492V2966H950L2679 930Q2722 879 2765 829T2852 727T2940 626T3027 524Q3027 585 3027 646T3027 768T3027 889T3027 1012V2966H3441V0H2982Z"  />
<glyph unicode="&#x39E;" horiz-adv-x="3035" d="M287 360H2748V0H287V360ZM532 1704H2478V1343H532V1704ZM287 2966H2748V2605H287V2966Z"  />
<glyph unicode="&#x39F;" horiz-adv-x="3760" d="M1880 -49Q1620 -49 1402 1T1008 147T700 377T478 683T344 1055T299 1483Q299 1701 345 1899T483 2268T708 2576T1018 2811T1410 2962T1880 3015Q2140 3015 2358 2965T2752 2819T3060 2589T3282 2283T3416 1911T3461 1483Q3461 1265 3415 1067T3277 698T3052 390T2742 155T2350 4T1880 -49ZM1880 287Q2075 287 2235 329T2524 449T2747 636T2905 878T3000 1164T3031 1483Q3031 1649 3000 1802T2906 2088T2747 2330T2524 2516T2235 2636T1880 2679Q1686 2679 1525 2637T1236 2517T1013 2330T855 2088T760 1802T729 1483Q729 1317 760 1164T854 878T1013 636T1236 450T1524 330T1880 287Z"  />
<glyph unicode="&#x3A0;" horiz-adv-x="3654" d="M2740 2621H913V0H492V2966H3162V0H2740V2621Z"  />
<glyph unicode="&#x3A1;" horiz-adv-x="3142" d="M492 0V2966H1663Q1891 2966 2072 2936T2390 2848T2625 2708T2785 2524T2875 2300T2904 2044Q2904 1909 2874 1787T2780 1561T2616 1372T2376 1229T2053 1138T1642 1106H913V0H492ZM1573 1450Q1829 1450 2002 1489T2280 1604T2429 1790T2474 2044Q2474 2187 2430 2295T2280 2475T2002 2584T1573 2621H913V1450H1573Z"  />
<glyph unicode="&#x3A3;" horiz-adv-x="3146" d="M307 324L1716 1516L307 2642V2966H2839V2621H881L2118 1647V1380L885 344H2839V0H307V324Z"  />
<glyph unicode="&#x3A4;" horiz-adv-x="3092" d="M1335 0V2621H135V2966H2957V2621H1757V0H1335Z"  />
<glyph unicode="&#x3A5;" horiz-adv-x="3183" d="M1380 0V1106L8 2966H504L1593 1446L2695 2966H3174L1802 1110V0H1380Z"  />
<glyph unicode="&#x3A6;" horiz-adv-x="4354" d="M1974 311Q1733 314 1512 341T1100 427T754 576T488 797T318 1101T258 1495Q258 1707 319 1876T493 2175T763 2398T1110 2553T1519 2644T1974 2679V2966H2380V2679Q2620 2675 2841 2647T3252 2560T3598 2411T3864 2190T4035 1888T4096 1495Q4096 1282 4035 1113T3861 813T3591 589T3244 435T2834 344T2380 311V0H1974V311ZM684 1495Q684 1323 732 1194T868 970T1075 814T1339 715T1643 661T1974 643V2347Q1805 2344 1644 2328T1339 2274T1076 2175T868 2019T733 1796T684 1495ZM3670 1495Q3670 1667 3622 1796T3486 2019T3279 2174T3015 2273T2711 2327T2380 2347V643Q2549 645 2710 661T3015 714T3278 814T3486 970T3621 1193T3670 1495Z"  />
<glyph unicode="&#x3A7;" horiz-adv-x="3248" d="M2666 0L1610 1262L553 0H49L1364 1532L143 2966H676L1622 1819L2576 2966H3080L1868 1548L3199 0H2666Z"  />
<glyph unicode="&#x3A8;" horiz-adv-x="3969" d="M1774 913Q1518 913 1312 952T944 1066T667 1251T476 1501T364 1812T328 2179V2966H750V2228Q750 1970 807 1786T987 1485T1304 1312T1774 1257V2966H2195V1257Q2470 1257 2664 1312T2982 1484T3162 1786T3219 2228V2966H3641V2179Q3641 1982 3605 1812T3494 1502T3302 1252T3025 1067T2658 952T2195 913V0H1774V913Z"  />
<glyph unicode="&#x3A9;" horiz-adv-x="4080" d="M2371 0V324Q2580 387 2734 497T2990 756T3141 1089T3191 1483Q3191 1649 3160 1802T3066 2088T2907 2330T2684 2516T2395 2636T2040 2679Q1845 2679 1684 2637T1395 2517T1172 2330T1014 2088T920 1802T889 1483Q889 1273 938 1089T1089 756T1345 497T1708 324V0H262V344H1048Q910 433 801 553T616 818T500 1130T459 1483Q459 1701 505 1899T643 2268T868 2576T1178 2811T1570 2962T2040 3015Q2300 3015 2518 2965T2912 2819T3220 2589T3442 2283T3576 1911T3621 1483Q3621 1298 3580 1131T3463 818T3277 553T3031 344H3817V0H2371Z"  />
<glyph unicode="&#x3AA;" horiz-adv-x="2183" d="M328 0V344H881V2621H328V2966H1855V2621H1303V344H1855V0H328ZM332 3281V3695H770V3281H332ZM1401 3281V3695H1839V3281H1401Z"  />
<glyph unicode="&#x3AB;" horiz-adv-x="3183" d="M1380 0V1106L8 2966H504L1593 1446L2695 2966H3174L1802 1110V0H1380ZM836 3281V3695H1274V3281H836ZM1905 3281V3695H2343V3281H1905Z"  />
<glyph unicode="&#x3AC;" horiz-adv-x="3244" d="M1327 -49Q1092 -49 899 25T568 242T355 592T279 1065Q279 1327 357 1529T578 1870T921 2079T1368 2150Q1512 2150 1644 2124T1895 2052T2117 1941T2306 1802L2355 2101H2707V492Q2707 438 2719 402T2756 344T2816 313T2900 303Q2956 303 3011 311T3113 332V29Q3088 15 3048 4T2959 -16T2859 -28T2761 -33Q2655 -33 2576 -7T2443 67T2358 180T2318 324Q2232 246 2127 178T1897 59T1630 -20T1327 -49ZM1393 270Q1532 270 1660 298T1904 376T2119 495T2302 647V1450Q2219 1534 2121 1604T1913 1725T1682 1803T1434 1831Q1251 1831 1113 1778T882 1626T743 1385T696 1065Q696 887 742 741T877 490T1095 328T1393 270ZM1274 3105H1790L1606 2384H1458L1274 3105Z"  />
<glyph unicode="&#x3AD;" horiz-adv-x="2740" d="M1417 -49Q1167 -49 958 -10T598 107T363 300T279 565Q279 667 311 746T408 886T569 989T791 1057Q696 1086 618 1129T483 1232T396 1372T365 1552Q365 1690 445 1801T670 1989T1017 2108T1466 2150Q1538 2150 1620 2145T1789 2130T1962 2106T2132 2073T2286 2032T2417 1982V1663Q2331 1697 2222 1726T1991 1776T1740 1810T1487 1823Q1318 1823 1187 1807T965 1754T829 1662T782 1528Q782 1451 832 1392T975 1291T1202 1229T1503 1208H1958V897H1454Q1352 897 1256 891T1075 872T921 837T801 783T724 708T696 610Q696 526 744 464T890 360T1138 299T1491 279Q1637 279 1780 292T2056 329T2304 386T2511 459V143Q2420 99 2301 64T2041 3T1743 -35T1417 -49ZM1122 3105H1638L1454 2384H1306L1122 3105Z"  />
<glyph unicode="&#x3AE;" horiz-adv-x="3174" d="M471 2101H811L844 1892Q922 1949 1023 1996T1243 2078T1493 2131T1765 2150Q1897 2150 2021 2134T2255 2079T2455 1980T2611 1829T2712 1619T2748 1343V-864H2343V1274Q2343 1431 2301 1537T2176 1709T1968 1802T1679 1831Q1561 1831 1448 1813T1231 1765T1037 1695T877 1610V0H471V2101ZM1368 3105H1884L1700 2384H1552L1368 3105Z"  />
<glyph unicode="&#x3AF;" horiz-adv-x="1593" d="M1016 -49Q859 -49 751 -14T577 89T481 258T451 492V2101H856V541Q856 478 866 431T905 351T984 303T1114 287Q1238 287 1335 298T1503 328V16Q1460 4 1409 -7T1297 -28T1166 -43T1016 -49ZM394 3105H910L726 2384H578L394 3105Z"  />
<glyph unicode="&#x3B0;" horiz-adv-x="3015" d="M1544 -49Q1373 -49 1224 -20T950 69T729 219T564 433T462 711T426 1057V2101H831V1106Q831 965 850 848T908 638T1006 476T1144 361T1323 293T1544 270Q1725 270 1859 325T2082 488T2213 750T2257 1106Q2257 1302 2239 1464T2194 1752T2138 1965T2085 2101H2499Q2519 2066 2547 1986T2600 1784T2644 1501T2662 1143Q2662 960 2633 801T2543 509T2392 273T2176 98T1894 -11T1544 -49ZM709 2941H1106V2527H709V2941ZM1327 3105H1761L1618 2384H1470L1327 3105ZM1982 2941H2380V2527H1982V2941Z"  />
<glyph unicode="&#x3B1;" horiz-adv-x="3244" d="M1327 -49Q1092 -49 899 25T568 242T355 592T279 1065Q279 1327 357 1529T578 1870T921 2079T1368 2150Q1512 2150 1644 2124T1895 2052T2117 1941T2306 1802L2355 2101H2707V492Q2707 438 2719 402T2756 344T2816 313T2900 303Q2956 303 3011 311T3113 332V29Q3088 15 3048 4T2959 -16T2859 -28T2761 -33Q2655 -33 2576 -7T2443 67T2358 180T2318 324Q2232 246 2127 178T1897 59T1630 -20T1327 -49ZM1393 270Q1532 270 1660 298T1904 376T2119 495T2302 647V1450Q2219 1534 2121 1604T1913 1725T1682 1803T1434 1831Q1251 1831 1113 1778T882 1626T743 1385T696 1065Q696 887 742 741T877 490T1095 328T1393 270Z"  />
<glyph unicode="&#x3B2;" horiz-adv-x="3166" d="M471 1925Q471 2122 507 2279T612 2557T782 2765T1012 2907T1297 2989T1634 3015Q1890 3015 2088 2960T2421 2807T2627 2578T2699 2294Q2699 2150 2648 2032T2509 1823T2307 1668T2064 1565Q2279 1531 2442 1460T2716 1285T2881 1050T2937 762Q2937 660 2910 560T2824 370T2675 203T2458 70T2170 -17T1806 -49Q1628 -49 1481 -29T1217 24T1016 96T877 172V-864H471V1925ZM877 496Q943 457 1027 417T1219 343T1463 288T1769 266Q1964 266 2106 303T2339 407T2475 565T2519 762Q2519 872 2482 960T2373 1115T2198 1231T1963 1312T1673 1361T1335 1384V1696Q1455 1696 1571 1709T1793 1750T1988 1822T2142 1929T2244 2074T2281 2261Q2281 2362 2241 2443T2119 2581T1909 2668T1606 2699Q1426 2699 1290 2658T1062 2521T924 2268T877 1876V496Z"  />
<glyph unicode="&#x3B3;" horiz-adv-x="2712" d="M1192 33L401 1569Q366 1636 334 1683T267 1759T195 1802T111 1815Q70 1815 27 1809T-57 1794V2101Q-34 2112 -4 2121T62 2136T139 2146T225 2150Q337 2150 414 2127T550 2055T656 1931T754 1753L1405 426Q1405 426 1405 426T1405 426Q1405 426 1405 426T1405 426L2220 2101H2662L1597 25V-864H1192V33Z"  />
<glyph unicode="&#x3B4;" horiz-adv-x="3088" d="M1544 -49Q1328 -49 1151 -14T832 86T588 245T415 456T313 714T279 1012Q279 1167 316 1304T420 1557T583 1763T794 1917T1045 2014T1327 2048Q1432 2048 1527 2034T1712 1991Q1712 1991 1712 1991T1712 1991L643 2691V2966H2454V2658H1241L1950 2200Q2087 2111 2204 2025T2417 1851T2586 1669T2709 1469T2784 1242T2810 979Q2810 842 2776 713T2674 469T2501 259T2257 96T1938 -11T1544 -49ZM1544 266Q1683 266 1800 288T2011 354T2177 461T2296 607T2368 791T2392 1012Q2392 1131 2368 1232T2296 1416T2177 1562T2012 1669T1800 1735T1544 1757Q1335 1757 1177 1708T911 1563T750 1329T696 1012Q696 834 750 695T911 461T1176 316T1544 266Z"  />
<glyph unicode="&#x3B5;" horiz-adv-x="2740" d="M1417 -49Q1167 -49 958 -10T598 107T363 300T279 565Q279 667 311 746T408 886T569 989T791 1057Q696 1086 618 1129T483 1232T396 1372T365 1552Q365 1690 445 1801T670 1989T1017 2108T1466 2150Q1538 2150 1620 2145T1789 2130T1962 2106T2132 2073T2286 2032T2417 1982V1663Q2331 1697 2222 1726T1991 1776T1740 1810T1487 1823Q1318 1823 1187 1807T965 1754T829 1662T782 1528Q782 1451 832 1392T975 1291T1202 1229T1503 1208H1958V897H1454Q1352 897 1256 891T1075 872T921 837T801 783T724 708T696 610Q696 526 744 464T890 360T1138 299T1491 279Q1637 279 1780 292T2056 329T2304 386T2511 459V143Q2420 99 2301 64T2041 3T1743 -35T1417 -49Z"  />
<glyph unicode="&#x3B6;" horiz-adv-x="2257" d="M1552 -664Q1600 -589 1643 -505T1722 -334T1788 -162T1835 0H1454Q1217 0 1033 33T712 126T481 269T330 454T247 672T221 913Q221 1073 272 1239T412 1568T624 1887T887 2182T1182 2440T1491 2646H266V2966H2138V2691Q2021 2640 1895 2566T1641 2401T1389 2203T1153 1979T947 1735T783 1479T674 1218T635 958Q635 870 651 790T705 640T808 515T970 419T1199 358T1507 336H1966Q2023 336 2070 320T2152 273T2205 201T2224 106Q2224 42 2212 -26T2176 -164T2120 -302T2049 -434T1965 -556T1872 -664H1552H1552Z"  />
<glyph unicode="&#x3B7;" horiz-adv-x="3174" d="M471 2101H811L844 1892Q922 1949 1023 1996T1243 2078T1493 2131T1765 2150Q1897 2150 2021 2134T2255 2079T2455 1980T2611 1829T2712 1619T2748 1343V-864H2343V1274Q2343 1431 2301 1537T2176 1709T1968 1802T1679 1831Q1561 1831 1448 1813T1231 1765T1037 1695T877 1610V0H471V2101Z"  />
<glyph unicode="&#x3B8;" horiz-adv-x="3088" d="M1544 -57Q1323 -57 1143 -4T823 147T580 384T410 694T311 1064T279 1483Q279 1703 312 1902T413 2271T584 2579T828 2813T1147 2962T1544 3015Q1765 3015 1945 2962T2265 2811T2509 2574T2678 2264T2777 1893T2810 1475Q2810 1255 2777 1056T2676 686T2505 379T2261 145T1941 -4T1544 -57ZM1544 279Q1747 279 1901 348T2163 550T2330 878T2404 1323H684Q698 1072 758 878T925 551T1187 348T1544 279ZM1544 2679Q1341 2679 1187 2611T926 2410T758 2084T684 1642H2404Q2389 1889 2328 2082T2160 2408T1899 2610T1544 2679Z"  />
<glyph unicode="&#x3B9;" horiz-adv-x="1593" d="M1016 -49Q859 -49 751 -14T577 89T481 258T451 492V2101H856V541Q856 478 866 431T905 351T984 303T1114 287Q1238 287 1335 298T1503 328V16Q1460 4 1409 -7T1297 -28T1166 -43T1016 -49Z"  />
<glyph unicode="&#x3BA;" horiz-adv-x="2777" d="M471 2101H877V1180L2138 2101H2695L1274 1077Q1274 1077 1274 1077T1274 1077T1274 1077T1274 1077Q1274 1077 1274 1077T1274 1077T1274 1077T1274 1077L2769 0H2154L877 958V0H471V2101Z"  />
<glyph unicode="&#x3BB;" horiz-adv-x="2818" d="M1163 2097L1151 2126Q1095 2238 1048 2323T956 2470T868 2573T776 2638T671 2673T545 2683Q513 2683 479 2681T413 2675T351 2664T299 2650V2966Q324 2975 360 2982T439 2995T530 3003T627 3006Q743 3006 836 2986T1007 2924T1149 2823T1272 2682T1386 2503T1499 2286L2351 553Q2385 484 2416 437T2482 361T2554 320T2638 307Q2678 307 2724 312T2810 328V20Q2787 9 2757 1T2690 -15T2613 -25T2527 -29Q2421 -29 2346 -6T2212 67T2107 191T2011 369L1368 1720Q1368 1720 1368 1720T1368 1720T1368 1720T1368 1720Q1368 1720 1368 1720T1368 1720T1368 1720T1368 1720L487 0H45L1163 2097Z"  />
<glyph unicode="&#x3BC;" horiz-adv-x="3244" d="M2761 -49Q2676 -49 2609 -32T2491 16T2404 90T2347 188Q2267 136 2170 93T1962 18T1728 -31T1475 -49Q1383 -49 1294 -36T1124 3T970 63T840 143Q852 94 864 22T877 -139V-864H471V2101H877V807Q877 658 933 556T1085 390T1303 298T1561 270Q1681 270 1780 283T1967 321T2136 384T2302 471V2101H2707V475Q2707 421 2719 385T2756 328T2816 297T2900 287Q2956 287 3011 295T3113 315V12Q3088 -2 3048 -13T2959 -32T2859 -44T2761 -49Z"  />
<glyph unicode="&#x3BD;" horiz-adv-x="2630" d="M1126 0L49 2101H500L1159 762Q1199 678 1241 594T1323 426Q1363 510 1405 594T1487 762L2138 2101H2580L1503 0H1126Z"  />
<glyph unicode="&#x3BE;" horiz-adv-x="2396" d="M1634 -664Q1682 -589 1725 -505T1804 -334T1870 -162T1917 0H1634Q1386 0 1188 32T838 122T576 263T398 447T295 666T262 913Q262 1047 298 1164T405 1379T580 1552T819 1679Q713 1718 627 1773T478 1903T382 2070T348 2277Q348 2431 416 2565T611 2800T922 2957T1335 3015Q1465 3015 1573 3008T1775 2987T1949 2950T2105 2896V2576Q2027 2605 1949 2626T1786 2660T1606 2680T1397 2687Q1245 2687 1127 2659T929 2576T808 2440T766 2253Q766 2148 811 2069T943 1936T1158 1855T1454 1827H1843V1516H1475Q1255 1516 1104 1478T858 1365T722 1181T680 930Q680 840 705 761T784 616T919 498T1113 410T1368 355T1688 336H2048Q2105 336 2152 320T2234 273T2287 201T2306 106Q2306 9 2278 -95T2202 -302T2090 -497T1954 -664H1634Z"  />
<glyph unicode="&#x3BF;" horiz-adv-x="3088" d="M1544 -49Q1323 -49 1143 -11T823 96T580 265T410 486T311 752T279 1053Q279 1208 312 1350T413 1614T584 1835T828 2004T1147 2112T1544 2150Q1765 2150 1945 2112T2265 2005T2509 1836T2678 1615T2777 1349T2810 1049Q2810 893 2777 751T2676 487T2505 266T2261 97T1941 -11T1544 -49ZM1544 266Q1762 266 1922 321T2186 479T2341 725T2392 1049Q2392 1227 2342 1372T2187 1620T1922 1779T1544 1835Q1326 1835 1167 1780T903 1622T747 1376T696 1053Q696 875 747 730T902 481T1166 322T1544 266Z"  />
<glyph unicode="&#x3C0;" horiz-adv-x="3310" d="M3039 0Q3005 -12 2957 -21T2859 -37T2764 -46T2691 -49Q2565 -49 2473 -24T2319 56T2229 198T2200 410V1782H1036V0H631V1782H123V2101H3146V1782H2605V463Q2605 403 2622 366T2673 309T2752 281T2855 274Q2875 274 2902 275T2957 279T3007 285T3039 291V0Z"  />
<glyph unicode="&#x3C1;" horiz-adv-x="3117" d="M410 938Q410 1110 440 1266T532 1558T691 1802T922 1988T1230 2108T1618 2150Q1828 2150 2000 2112T2308 2005T2543 1836T2709 1615T2807 1349T2839 1049Q2839 815 2765 615T2540 267T2160 35T1618 -49Q1495 -49 1382 -36T1166 1T976 62T815 147V-864H410V938ZM1556 266Q1774 266 1936 321T2206 479T2367 725T2421 1049Q2421 1227 2371 1372T2221 1620T1970 1779T1618 1835Q1467 1835 1349 1804T1142 1716T991 1576T889 1391T833 1168T815 913V475Q890 427 976 389T1157 323T1351 281T1556 266Z"  />
<glyph unicode="&#x3C2;" horiz-adv-x="2568" d="M1708 -664Q1756 -589 1799 -505T1878 -334T1944 -162T1991 0H1708Q1450 0 1244 37T879 142T607 305T420 518T313 770T279 1053Q279 1209 313 1351T415 1616T587 1836T830 2004T1144 2112T1532 2150Q1638 2150 1743 2141T1946 2114T2129 2072T2281 2019V1688Q2212 1715 2127 1739T1946 1782T1743 1812T1524 1823Q1304 1823 1148 1767T891 1610T743 1367T696 1053Q696 887 757 754T949 528T1280 386T1761 336H2122Q2179 336 2226 320T2307 273T2361 201T2380 106Q2380 9 2352 -95T2276 -302T2164 -497T2028 -664H1708H1708Z"  />
<glyph unicode="&#x3C3;" horiz-adv-x="3252" d="M1540 -49Q1323 -49 1145 -11T827 96T584 265T413 486T312 752T279 1053Q279 1208 312 1346T412 1601T582 1810T825 1967T1144 2066T1540 2101H3129V1782H2486Q2546 1720 2602 1637T2701 1455T2771 1249T2798 1032Q2798 887 2766 751T2666 494T2497 274T2254 102T1936 -9T1540 -49ZM2384 1049Q2384 1152 2361 1255T2296 1455T2195 1635T2064 1782H1577Q1354 1782 1189 1735T914 1596T750 1367T696 1053Q696 875 748 730T906 481T1169 322T1540 266Q1686 266 1805 291T2017 363T2180 479T2294 634T2362 825T2384 1049Z"  />
<glyph unicode="&#x3C4;" horiz-adv-x="2327" d="M66 2101H2261V1782H1237V541Q1237 478 1247 431T1286 351T1365 303T1495 287Q1619 287 1716 298T1884 328V16Q1841 4 1790 -7T1678 -28T1547 -43T1397 -49Q1240 -49 1132 -14T957 89T861 258T831 492V1782H66V2101Z"  />
<glyph unicode="&#x3C5;" horiz-adv-x="3015" d="M1544 -49Q1373 -49 1224 -20T950 69T729 219T564 433T462 711T426 1057V2101H831V1106Q831 965 850 848T908 638T1006 476T1144 361T1323 293T1544 270Q1725 270 1859 325T2082 488T2213 750T2257 1106Q2257 1302 2239 1464T2194 1752T2138 1965T2085 2101H2499Q2519 2066 2547 1986T2600 1784T2644 1501T2662 1143Q2662 960 2633 801T2543 509T2392 273T2176 98T1894 -11T1544 -49Z"  />
<glyph unicode="&#x3C6;" horiz-adv-x="3793" d="M1704 -20Q1348 -17 1076 57T619 269T340 604T246 1053Q246 1299 342 1495T623 1830T1080 2043T1704 2122V2966H2093V2122Q2448 2119 2719 2044T3175 1831T3453 1496T3547 1049Q3547 801 3451 605T3170 270T2714 58T2093 -20V-864H1704V-20ZM664 1053Q664 876 729 737T925 501T1251 351T1704 295V1806Q1446 1803 1251 1751T926 1602T730 1367T664 1053ZM3129 1049Q3129 1224 3064 1363T2868 1599T2543 1750T2093 1806V295Q2349 298 2543 350T2867 498T3063 733T3129 1049Z"  />
<glyph unicode="&#x3C7;" horiz-adv-x="2855" d="M2552 -893Q2447 -893 2368 -868T2224 -792T2100 -667T1978 -496L1448 301Q1443 308 1441 311T1437 317T1434 322T1430 328Q1424 319 1422 316T1419 312T1417 309T1412 301L606 -864H160L1225 643L627 1548Q584 1612 542 1658T456 1735T369 1779T279 1794Q259 1794 235 1793T186 1789T138 1782T94 1774V2081Q117 2091 150 2100T222 2116T304 2126T393 2130Q498 2130 577 2104T721 2028T845 1904T967 1733L1451 996Q1455 990 1457 987T1461 981T1464 976T1470 967Q1474 973 1475 975T1479 980T1482 985T1488 993L2257 2101H2707L1679 655L2318 -311Q2361 -376 2403 -422T2489 -499T2576 -543T2666 -557Q2686 -557 2710 -556T2759 -552T2807 -546T2851 -537V-844Q2828 -855 2795 -863T2723 -879T2641 -889T2552 -893Z"  />
<glyph unicode="&#x3C8;" horiz-adv-x="3686" d="M1675 -25Q1482 -20 1315 11T1009 101T762 252T579 469T465 757T426 1122V2101H831V1171Q831 935 879 771T1030 503T1292 350T1675 295V2966H2064V295H2093Q2306 295 2463 348T2724 508T2878 772T2929 1139Q2929 1335 2911 1492T2866 1769T2810 1970T2757 2101H3166Q3186 2066 3214 1997T3269 1812T3315 1532T3334 1139Q3334 962 3300 807T3196 522T3024 291T2782 119T2472 12T2093 -25H2064V-864H1675V-25Z"  />
<glyph unicode="&#x3C9;" horiz-adv-x="4092" d="M1270 -49Q1107 -49 972 -14T730 88T542 248T409 458T330 710T303 999Q303 1140 330 1268T403 1509T510 1716T640 1886T779 2016T918 2101H1368Q1211 2006 1090 1891T886 1638T760 1342T717 999Q717 841 750 706T854 473T1037 318T1307 262Q1428 262 1527 305T1696 435T1804 652T1843 958V1434H2249V958Q2249 783 2287 653T2396 435T2565 305T2785 262Q2943 262 3055 318T3238 472T3342 706T3375 999Q3375 1182 3332 1341T3206 1638T3002 1890T2724 2101H3174Q3241 2070 3312 2016T3452 1887T3581 1716T3689 1509T3762 1269T3789 999Q3789 848 3763 711T3683 458T3550 248T3362 88T3120 -13T2822 -49Q2682 -49 2562 -22T2343 56T2169 182T2044 352Q1995 257 1920 183T1746 57T1528 -22T1270 -49Z"  />
<glyph unicode="&#x3CA;" horiz-adv-x="1593" d="M1016 -49Q859 -49 751 -14T577 89T481 258T451 492V2101H856V541Q856 478 866 431T905 351T984 303T1114 287Q1238 287 1335 298T1503 328V16Q1460 4 1409 -7T1297 -28T1166 -43T1016 -49ZM-101 2527V2941H337V2527H-101ZM968 2527V2941H1406V2527H968Z"  />
<glyph unicode="&#x3CB;" horiz-adv-x="3015" d="M1544 -49Q1373 -49 1224 -20T950 69T729 219T564 433T462 711T426 1057V2101H831V1106Q831 965 850 848T908 638T1006 476T1144 361T1323 293T1544 270Q1725 270 1859 325T2082 488T2213 750T2257 1106Q2257 1302 2239 1464T2194 1752T2138 1965T2085 2101H2499Q2519 2066 2547 1986T2600 1784T2644 1501T2662 1143Q2662 960 2633 801T2543 509T2392 273T2176 98T1894 -11T1544 -49ZM791 2527V2941H1229V2527H791ZM1860 2527V2941H2298V2527H1860Z"  />
<glyph unicode="&#x3CC;" horiz-adv-x="3088" d="M1544 -49Q1323 -49 1143 -11T823 96T580 265T410 486T311 752T279 1053Q279 1208 312 1350T413 1614T584 1835T828 2004T1147 2112T1544 2150Q1765 2150 1945 2112T2265 2005T2509 1836T2678 1615T2777 1349T2810 1049Q2810 893 2777 751T2676 487T2505 266T2261 97T1941 -11T1544 -49ZM1544 266Q1762 266 1922 321T2186 479T2341 725T2392 1049Q2392 1227 2342 1372T2187 1620T1922 1779T1544 1835Q1326 1835 1167 1780T903 1622T747 1376T696 1053Q696 875 747 730T902 481T1166 322T1544 266ZM1290 3105H1806L1622 2384H1474L1290 3105Z"  />
<glyph unicode="&#x3CD;" horiz-adv-x="3015" d="M1544 -49Q1373 -49 1224 -20T950 69T729 219T564 433T462 711T426 1057V2101H831V1106Q831 965 850 848T908 638T1006 476T1144 361T1323 293T1544 270Q1725 270 1859 325T2082 488T2213 750T2257 1106Q2257 1302 2239 1464T2194 1752T2138 1965T2085 2101H2499Q2519 2066 2547 1986T2600 1784T2644 1501T2662 1143Q2662 960 2633 801T2543 509T2392 273T2176 98T1894 -11T1544 -49ZM1286 3105H1802L1618 2384H1470L1286 3105Z"  />
<glyph unicode="&#x3CE;" horiz-adv-x="4092" d="M1270 -49Q1107 -49 972 -14T730 88T542 248T409 458T330 710T303 999Q303 1140 330 1268T403 1509T510 1716T640 1886T779 2016T918 2101H1368Q1211 2006 1090 1891T886 1638T760 1342T717 999Q717 841 750 706T854 473T1037 318T1307 262Q1428 262 1527 305T1696 435T1804 652T1843 958V1434H2249V958Q2249 783 2287 653T2396 435T2565 305T2785 262Q2943 262 3055 318T3238 472T3342 706T3375 999Q3375 1182 3332 1341T3206 1638T3002 1890T2724 2101H3174Q3241 2070 3312 2016T3452 1887T3581 1716T3689 1509T3762 1269T3789 999Q3789 848 3763 711T3683 458T3550 248T3362 88T3120 -13T2822 -49Q2682 -49 2562 -22T2343 56T2169 182T2044 352Q1995 257 1920 183T1746 57T1528 -22T1270 -49ZM1790 3105H2306L2122 2384H1974L1790 3105Z"  />
<glyph unicode="&#x400;" horiz-adv-x="3162" d="M492 0V2966H2851V2621H913V1696H2605V1352H913V344H2875V0H492ZM1524 3162L918 3810H1442L1893 3162H1524Z"  />
<glyph unicode="&#x401;" horiz-adv-x="3162" d="M492 0V2966H2851V2621H913V1696H2605V1352H913V344H2875V0H492ZM934 3281V3695H1372V3281H934ZM2003 3281V3695H2441V3281H2003Z"  />
<glyph unicode="&#x402;" horiz-adv-x="3957" d="M135 2966H2630V2621H1593V1823H2462Q2680 1823 2859 1796T3181 1717T3430 1587T3605 1408T3709 1182T3744 913Q3744 778 3711 658T3610 437T3439 254T3195 117T2875 30T2478 0H2150V340H2388Q2549 340 2679 354T2912 399T3090 476T3214 586T3286 731T3310 913Q3310 1014 3287 1095T3214 1239T3090 1349T2913 1424T2680 1468T2388 1483H1593V0H1171V2621H135V2966Z"  />
<glyph unicode="&#x403;" horiz-adv-x="2732" d="M492 2966H2597V2621H913V0H492V2966ZM1344 3162L1794 3810H2319L1712 3162H1344Z"  />
<glyph unicode="&#x404;" horiz-adv-x="3146" d="M1937 -49Q1702 -49 1489 -6T1094 122T765 336T515 634T355 1016T299 1483Q299 1723 355 1930T513 2308T760 2610T1083 2832T1467 2968T1901 3015Q2022 3015 2146 3006T2391 2977T2624 2927T2834 2855V2490Q2724 2535 2611 2566T2387 2616T2168 2645T1958 2654Q1703 2654 1491 2594T1120 2411T864 2105T737 1675H2400V1331H733Q751 1141 808 991T954 727T1155 533T1397 403T1665 330T1946 307Q2124 307 2272 321T2538 356T2747 402T2900 451V98Q2823 67 2724 41T2505 -6T2242 -37T1937 -49Z"  />
<glyph unicode="&#x405;" horiz-adv-x="3097" d="M283 471Q386 439 509 410T769 359T1054 324T1352 311Q1587 311 1769 341T2076 428T2266 569T2331 758Q2331 826 2312 882T2250 985T2142 1072T1982 1152T1765 1229T1487 1311Q1319 1357 1168 1404T889 1505T657 1627T483 1779T374 1973T340 2220Q342 2341 380 2446T493 2640T676 2798T928 2916T1249 2989T1638 3015Q1798 3015 1940 3003T2209 2970T2443 2918T2642 2851V2486Q2541 2521 2431 2552T2196 2605T1932 2641T1630 2654Q1418 2654 1258 2627T991 2547T829 2416T774 2236Q774 2169 788 2115T837 2015T934 1927T1087 1845T1309 1764T1610 1675Q1798 1623 1957 1575T2246 1473T2474 1355T2638 1209T2736 1020T2765 774Q2763 652 2723 544T2604 345T2407 180T2132 56T1776 -22T1339 -49Q1181 -49 1032 -38T747 -5T494 45T283 111V471Z"  />
<glyph unicode="&#x406;" horiz-adv-x="2183" d="M328 0V344H881V2621H328V2966H1855V2621H1303V344H1855V0H328Z"  />
<glyph unicode="&#x407;" horiz-adv-x="2183" d="M328 0V344H881V2621H328V2966H1855V2621H1303V344H1855V0H328ZM332 3281V3695H770V3281H332ZM1401 3281V3695H1839V3281H1401Z"  />
<glyph unicode="&#x408;" horiz-adv-x="1737" d="M-25 -188Q-2 -196 36 -202T118 -214T204 -222T279 -225Q429 -225 533 -187T701 -64T794 154T823 479V2621H188V2966H1245V438Q1245 197 1195 8T1033 -313T742 -513T307 -582Q267 -582 220 -580T128 -573T42 -561T-25 -545V-188Z"  />
<glyph unicode="&#x409;" horiz-adv-x="5497" d="M2793 2621H1413L1397 2159Q1389 1942 1377 1733T1343 1330T1285 959T1195 632T1065 359T886 151T650 18T348 -29Q297 -29 251 -25T165 -13T89 7T25 37V348Q65 333 120 324T250 315Q331 315 404 330T544 385T667 492T772 665T858 918T924 1262T967 1712T987 2281L995 2966H3215V1823H4002Q4220 1823 4399 1796T4721 1717T4970 1587T5145 1408T5249 1182T5284 913Q5284 778 5251 658T5150 437T4979 254T4735 117T4415 30T4018 0H2793V2621ZM3215 1483V340H3928Q4169 340 4343 373T4630 476T4796 654T4850 913Q4850 1064 4797 1172T4631 1349T4344 1450T3928 1483H3215Z"  />
<glyph unicode="&#x40A;" horiz-adv-x="5362" d="M492 2966H913V1659H2658V2966H3080V1823H3867Q4085 1823 4264 1796T4586 1717T4835 1587T5010 1408T5114 1182T5149 913Q5149 778 5116 658T5015 437T4843 254T4599 117T4280 30T3883 0H2658V1315H913V0H492V2966ZM3080 1483V340H3793Q4034 340 4208 373T4494 476T4660 654T4714 913Q4714 1064 4661 1172T4495 1349T4208 1450T3793 1483H3080Z"  />
<glyph unicode="&#x40B;" horiz-adv-x="3981" d="M135 2966H2630V2621H1593V1794Q1687 1843 1801 1883T2038 1951T2287 1995T2531 2011Q2684 2011 2825 1991T3089 1924T3313 1804T3486 1624T3597 1376T3637 1053V0H3215V979Q3215 1153 3173 1281T3039 1493T2801 1618T2445 1659Q2350 1659 2240 1646T2018 1608T1796 1548T1593 1470V0H1171V2621H135V2966Z"  />
<glyph unicode="&#x40C;" horiz-adv-x="3387" d="M492 2966H913V1667H1290Q1348 1667 1394 1669T1477 1678T1544 1696T1601 1724T1655 1766T1712 1823L2773 2966H3289L2138 1737Q2104 1701 2070 1668T1998 1604T1922 1549T1839 1503Q1887 1485 1930 1460T2013 1403T2090 1338T2163 1266L3363 0H2822L1729 1176Q1699 1209 1673 1233T1619 1274T1561 1303T1494 1320T1411 1328T1307 1331H913V0H492V2966ZM1598 3162L2048 3810H2573L1966 3162H1598Z"  />
<glyph unicode="&#x40D;" horiz-adv-x="3932" d="M492 2966H905V836Q905 805 905 762T905 672T905 583T905 508Q936 545 969 584T1033 660T1094 732T1147 795L2982 2966H3441V0H3027V2126Q3027 2157 3027 2200T3027 2290T3027 2379T3027 2454Q2999 2421 2967 2383T2902 2306T2839 2231T2785 2167L950 0H492V2966ZM1802 3162L1196 3810H1720L2171 3162H1802Z"  />
<glyph unicode="&#x40E;" horiz-adv-x="2982" d="M819 -25Q771 -25 731 -22T656 -12T594 3T545 20V360Q569 351 593 344T643 333T699 326T766 324Q872 324 960 353T1123 440T1262 584T1384 786H1384L41 2966H520L1593 1167Q1593 1167 1593 1167T1593 1167T1593 1167T1593 1167Q1593 1167 1593 1167T1593 1167T1593 1167T1593 1167L2515 2966H2974L1745 631Q1651 451 1554 326T1347 123T1107 10T819 -25ZM2269 3810Q2266 3656 2215 3532T2071 3319T1848 3182T1556 3134Q1395 3134 1265 3182T1042 3318T898 3531T843 3810H1130Q1138 3722 1168 3654T1251 3540T1380 3469T1556 3445Q1656 3445 1732 3469T1861 3539T1944 3654T1982 3810H2269Z"  />
<glyph unicode="&#x40F;" horiz-adv-x="3572" d="M492 2966H913V344H2658V2966H3080V0H1978V-729H1589V0H492V2966Z"  />
<glyph unicode="&#x410;" horiz-adv-x="3494" d="M3002 0L2635 731L2634 733H848L847 731L483 0H20L1503 2966H1991L3473 0H3002ZM1917 2220Q1874 2307 1829 2399T1741 2580Q1697 2491 1653 2401T1565 2220L1000 1079L999 1077H2482L2481 1079L1917 2220Z"  />
<glyph unicode="&#x411;" horiz-adv-x="3277" d="M492 2966H2843V2621H913V1659H1741Q1949 1659 2124 1638T2442 1574T2693 1463T2875 1304T2985 1094T3023 831Q3023 696 2987 582T2880 376T2702 213T2455 96T2140 24T1757 0H492V2966ZM913 1319V340H1667Q1893 340 2065 363T2353 443T2529 593T2589 831Q2589 974 2530 1068T2354 1218T2065 1296T1667 1319H913Z"  />
<glyph unicode="&#x412;" horiz-adv-x="3326" d="M492 0V2966H1610Q1922 2966 2158 2913T2554 2755T2794 2496T2875 2138Q2875 2010 2842 1911T2748 1735T2597 1603T2396 1511Q2545 1473 2661 1414T2858 1271T2981 1077T3023 827Q3023 692 2987 578T2880 373T2702 211T2455 95T2140 24T1757 0H492ZM1667 340Q1893 340 2065 362T2353 440T2529 590T2589 827Q2589 970 2530 1064T2354 1215T2065 1295T1667 1319H913V340H1667ZM1520 1647Q1746 1647 1918 1670T2206 1749T2381 1900T2441 2138Q2441 2281 2382 2375T2206 2525T1918 2603T1520 2626H913V1647H1520Z"  />
<glyph unicode="&#x413;" horiz-adv-x="2732" d="M492 2966H2597V2621H913V0H492V2966Z"  />
<glyph unicode="&#x414;" horiz-adv-x="3805" d="M41 344H209Q307 344 397 368T578 467T741 682T861 1015T942 1464T986 1959T1005 2409T1012 2924V2966H3191V344H3682V-729H3293V0H430V-729H41V344ZM1425 2621V2577Q1425 2392 1416 2191T1389 1779T1337 1331T1252 904T1121 565T926 344H2769V2621H1425Z"  />
<glyph unicode="&#x415;" horiz-adv-x="3162" d="M492 0V2966H2851V2621H913V1696H2605V1352H913V344H2875V0H492Z"  />
<glyph unicode="&#x416;" horiz-adv-x="5009" d="M2294 1331H2023Q1936 1331 1875 1326T1768 1305T1683 1258T1602 1176L590 0H49L1167 1266Q1201 1303 1237 1337T1312 1403T1394 1459T1483 1503Q1441 1523 1402 1548T1327 1602T1257 1666T1192 1737L123 2966H639L1618 1823Q1647 1789 1673 1765T1726 1723T1784 1695T1852 1678T1935 1669T2040 1667H2294V2966H2716V1667H2970Q3057 1667 3118 1672T3225 1694T3310 1741T3391 1823L4370 2966H4887L3817 1737Q3785 1700 3751 1666T3681 1603T3605 1548T3523 1503Q3571 1485 3614 1460T3696 1403T3772 1338T3842 1266L4960 0H4420L3408 1176Q3379 1210 3353 1234T3300 1276T3242 1304T3174 1321T3090 1329T2986 1331H2716V0H2294V1331Z"  />
<glyph unicode="&#x417;" horiz-adv-x="2875" d="M1245 -49Q1078 -49 933 -37T661 -3T426 49T221 115V471Q323 440 436 412T677 361T948 325T1253 311Q1374 311 1485 324T1694 366T1871 435T2007 532T2095 657T2126 811Q2126 935 2068 1037T1894 1212T1609 1324T1217 1364H778V1704H1217Q1394 1704 1535 1734T1776 1825T1928 1982T1982 2208Q1982 2286 1955 2349T1878 2463T1761 2551T1611 2613T1436 2650T1245 2662Q1131 2662 1008 2653T759 2623T511 2571T279 2494V2843Q376 2884 489 2916T725 2970T980 3003T1245 3015Q1423 3015 1579 2992T1864 2922T2096 2809T2268 2653T2376 2458T2413 2224Q2413 2110 2380 2010T2285 1823T2133 1668T1929 1548Q2076 1500 2192 1425T2390 1253T2513 1040T2556 795Q2556 670 2515 559T2396 354T2205 186T1946 59T1624 -21T1245 -49Z"  />
<glyph unicode="&#x418;" horiz-adv-x="3932" d="M492 2966H905V836Q905 805 905 762T905 672T905 583T905 508Q936 545 969 584T1033 660T1094 732T1147 795L2982 2966H3441V0H3027V2126Q3027 2157 3027 2200T3027 2290T3027 2379T3027 2454Q2999 2421 2967 2383T2902 2306T2839 2231T2785 2167L950 0H492V2966Z"  />
<glyph unicode="&#x419;" horiz-adv-x="3932" d="M492 2966H905V836Q905 805 905 762T905 672T905 583T905 508Q936 545 969 584T1033 660T1094 732T1147 795L2982 2966H3441V0H3027V2126Q3027 2157 3027 2200T3027 2290T3027 2379T3027 2454Q2999 2421 2967 2383T2902 2306T2839 2231T2785 2167L950 0H492V2966ZM2679 3810Q2676 3656 2625 3532T2481 3319T2258 3182T1966 3134Q1805 3134 1675 3182T1452 3318T1308 3531T1253 3810H1540Q1548 3722 1578 3654T1661 3540T1790 3469T1966 3445Q2066 3445 2142 3469T2271 3539T2354 3654T2392 3810H2679Z"  />
<glyph unicode="&#x41A;" horiz-adv-x="3387" d="M492 2966H913V1667H1290Q1348 1667 1394 1669T1477 1678T1544 1696T1601 1724T1655 1766T1712 1823L2773 2966H3289L2138 1737Q2104 1701 2070 1668T1998 1604T1922 1549T1839 1503Q1887 1485 1930 1460T2013 1403T2090 1338T2163 1266L3363 0H2822L1729 1176Q1699 1209 1673 1233T1619 1274T1561 1303T1494 1320T1411 1328T1307 1331H913V0H492V2966Z"  />
<glyph unicode="&#x41B;" horiz-adv-x="3748" d="M2834 0V2621H1413L1397 2159Q1389 1942 1377 1733T1343 1330T1285 959T1195 632T1065 359T886 151T650 18T348 -29Q297 -29 251 -25T165 -13T89 7T25 37V348Q65 333 120 324T250 315Q331 315 404 330T544 385T667 492T772 665T858 918T924 1262T967 1712T987 2281L995 2966H3256V0H2834Z"  />
<glyph unicode="&#x41C;" horiz-adv-x="4379" d="M3478 0V2007Q3478 2109 3478 2207T3478 2408Q3419 2328 3361 2249T3244 2089L2306 819H2073L1135 2089Q1106 2129 1077 2169T1018 2248T960 2328T901 2408Q901 2306 901 2208T901 2007V0H492V2966H950L1991 1548Q2043 1477 2095 1407T2200 1266Q2252 1337 2304 1409T2408 1552L3449 2966H3887V0H3478Z"  />
<glyph unicode="&#x41D;" horiz-adv-x="3736" d="M2822 0V1315H913V0H492V2966H913V1659H2822V2966H3244V0H2822Z"  />
<glyph unicode="&#x41E;" horiz-adv-x="3760" d="M1880 -49Q1620 -49 1402 1T1008 147T700 377T478 683T344 1055T299 1483Q299 1701 345 1899T483 2268T708 2576T1018 2811T1410 2962T1880 3015Q2140 3015 2358 2965T2752 2819T3060 2589T3282 2283T3416 1911T3461 1483Q3461 1265 3415 1067T3277 698T3052 390T2742 155T2350 4T1880 -49ZM1880 287Q2075 287 2235 329T2524 449T2747 636T2905 878T3000 1164T3031 1483Q3031 1649 3000 1802T2906 2088T2747 2330T2524 2516T2235 2636T1880 2679Q1686 2679 1525 2637T1236 2517T1013 2330T855 2088T760 1802T729 1483Q729 1317 760 1164T854 878T1013 636T1236 450T1524 330T1880 287Z"  />
<glyph unicode="&#x41F;" horiz-adv-x="3654" d="M2740 2621H913V0H492V2966H3162V0H2740V2621Z"  />
<glyph unicode="&#x420;" horiz-adv-x="3142" d="M492 0V2966H1663Q1891 2966 2072 2936T2390 2848T2625 2708T2785 2524T2875 2300T2904 2044Q2904 1909 2874 1787T2780 1561T2616 1372T2376 1229T2053 1138T1642 1106H913V0H492ZM1573 1450Q1829 1450 2002 1489T2280 1604T2429 1790T2474 2044Q2474 2187 2430 2295T2280 2475T2002 2584T1573 2621H913V1450H1573Z"  />
<glyph unicode="&#x421;" horiz-adv-x="3146" d="M2900 98Q2823 67 2724 41T2505 -6T2242 -37T1937 -49Q1702 -49 1489 -6T1094 122T765 336T515 634T355 1016T299 1483Q299 1723 355 1930T513 2308T760 2610T1083 2832T1467 2968T1901 3015Q2022 3015 2146 3006T2391 2977T2624 2927T2834 2855V2490Q2724 2535 2611 2566T2387 2616T2168 2645T1958 2654Q1773 2654 1610 2622T1310 2525T1066 2363T883 2136T769 1843T729 1483Q729 1264 777 1092T911 789T1113 567T1364 417T1648 333T1946 307Q2124 307 2272 321T2538 356T2747 402T2900 451V98Z"  />
<glyph unicode="&#x422;" horiz-adv-x="3092" d="M1335 0V2621H135V2966H2957V2621H1757V0H1335Z"  />
<glyph unicode="&#x423;" horiz-adv-x="2982" d="M819 -25Q771 -25 731 -22T656 -12T594 3T545 20V360Q569 351 593 344T643 333T699 326T766 324Q872 324 960 353T1123 440T1262 584T1384 786H1384L41 2966H520L1593 1167Q1593 1167 1593 1167T1593 1167T1593 1167T1593 1167Q1593 1167 1593 1167T1593 1167T1593 1167T1593 1167L2515 2966H2974L1745 631Q1651 451 1554 326T1347 123T1107 10T819 -25Z"  />
<glyph unicode="&#x424;" horiz-adv-x="4280" d="M1938 311Q1697 314 1476 341T1064 427T718 576T452 797T282 1101T222 1495Q222 1707 283 1876T457 2175T727 2398T1074 2553T1483 2644T1938 2679V2966H2344V2679Q2584 2675 2805 2647T3216 2560T3562 2411T3828 2190T3999 1888T4060 1495Q4060 1282 3999 1113T3825 813T3555 589T3208 435T2798 344T2344 311V0H1938V311ZM648 1495Q648 1323 696 1194T832 970T1039 814T1303 715T1607 661T1938 643V2347Q1769 2344 1608 2328T1303 2274T1040 2175T832 2019T697 1796T648 1495ZM3634 1495Q3634 1667 3586 1796T3450 2019T3243 2174T2979 2273T2675 2327T2344 2347V643Q2513 645 2674 661T2979 714T3242 814T3450 970T3585 1193T3634 1495Z"  />
<glyph unicode="&#x425;" horiz-adv-x="3248" d="M2666 0L1610 1262L553 0H49L1364 1532L143 2966H676L1622 1819L2576 2966H3080L1868 1548L3199 0H2666Z"  />
<glyph unicode="&#x426;" horiz-adv-x="3695" d="M492 2966H913V344H2658V2966H3080V344H3572V-729H3183V0H492V2966Z"  />
<glyph unicode="&#x427;" horiz-adv-x="3301" d="M2388 1139Q2294 1107 2180 1081T1942 1035T1693 1006T1450 995Q1298 995 1157 1015T892 1082T668 1203T495 1383T384 1631T344 1954V2966H766V2028Q766 1854 808 1726T942 1514T1180 1389T1536 1348Q1628 1348 1737 1355T1959 1377T2182 1413T2388 1462V2966H2810V0H2388V1139Z"  />
<glyph unicode="&#x428;" horiz-adv-x="5329" d="M492 2966H913V344H2454V2966H2875V344H4415V2966H4837V0H492V2966Z"  />
<glyph unicode="&#x429;" horiz-adv-x="5452" d="M492 2966H913V344H2454V2966H2875V344H4415V2966H4837V344H5329V-729H4940V0H492V2966Z"  />
<glyph unicode="&#x42A;" horiz-adv-x="4121" d="M135 2966H1757V1823H2626Q2844 1823 3023 1796T3345 1717T3594 1587T3769 1408T3873 1182T3908 913Q3908 778 3875 658T3774 437T3602 254T3358 117T3039 30T2642 0H1335V2621H135V2966ZM1757 1483V344H2552Q2793 344 2967 376T3253 478T3419 655T3473 913Q3473 1064 3420 1172T3254 1349T2967 1450T2552 1483H1757Z"  />
<glyph unicode="&#x42B;" horiz-adv-x="4514" d="M492 2966H913V1823H1700Q1918 1823 2097 1796T2419 1717T2668 1587T2843 1408T2947 1182T2982 913Q2982 778 2949 658T2848 437T2677 254T2433 117T2113 30T1716 0H492V2966ZM3600 2966H4022V0H3600V2966ZM913 1483V344H1626Q1867 344 2041 376T2328 478T2494 655T2548 913Q2548 1064 2495 1172T2329 1349T2042 1450T1626 1483H913Z"  />
<glyph unicode="&#x42C;" horiz-adv-x="3277" d="M492 2966H913V1823H1782Q2000 1823 2179 1796T2501 1717T2750 1587T2925 1408T3029 1182T3064 913Q3064 778 3031 658T2930 437T2759 254T2515 117T2195 30T1798 0H492V2966ZM913 1483V344H1708Q1949 344 2123 376T2410 478T2576 655T2630 913Q2630 1064 2577 1172T2411 1349T2124 1450T1708 1483H913Z"  />
<glyph unicode="&#x42D;" horiz-adv-x="3146" d="M745 1675H2404Q2377 1921 2279 2104T2022 2410T1653 2593T1188 2654Q1087 2654 979 2645T759 2617T535 2566T311 2490V2855Q408 2897 520 2927T753 2976T999 3005T1245 3015Q1471 3015 1678 2969T2063 2832T2385 2610T2632 2308T2791 1931T2847 1483Q2847 1229 2791 1017T2632 634T2381 336T2052 123T1656 -6T1208 -49Q1045 -49 904 -38T642 -6T422 40T246 98V451Q309 428 399 403T607 356T874 321T1200 307Q1340 307 1479 330T1748 403T1990 533T2190 727T2335 990T2408 1331H745V1675Z"  />
<glyph unicode="&#x42E;" horiz-adv-x="5071" d="M492 2966H913V1659H1712Q1730 1854 1785 2030T1934 2358T2156 2630T2450 2837T2811 2969T3240 3015Q3492 3015 3703 2965T4085 2819T4384 2589T4599 2283T4728 1911T4772 1483Q4772 1265 4727 1067T4594 698T4376 390T4076 155T3697 4T3240 -49Q3004 -49 2803 -5T2438 123T2145 327T1926 599T1781 931T1712 1315H913V0H492V2966ZM3240 287Q3429 287 3583 329T3860 449T4073 636T4223 878T4312 1164T4342 1483Q4342 1649 4313 1802T4224 2088T4074 2330T3861 2516T3583 2636T3240 2679Q3052 2679 2897 2637T2620 2517T2407 2330T2257 2088T2168 1802T2138 1483Q2138 1317 2167 1164T2256 878T2406 636T2619 450T2896 330T3240 287Z"  />
<glyph unicode="&#x42F;" horiz-adv-x="3305" d="M2392 1221H1995Q1936 1221 1891 1219T1808 1210T1741 1192T1684 1164T1630 1122T1573 1065L623 0H82L1077 1110Q1124 1163 1175 1201T1282 1262Q1069 1294 905 1364T628 1539T459 1785T401 2097Q401 2300 470 2461T690 2734T1081 2906T1663 2966H2814V0H2392V1221ZM831 2097Q831 1954 879 1852T1035 1684T1320 1587T1753 1556H2392V2621H1753Q1496 2621 1320 2593T1036 2502T879 2340T831 2097Z"  />
<glyph unicode="&#x430;" horiz-adv-x="2941" d="M2175 0L2142 193Q2065 137 1968 93T1757 17T1515 -32T1249 -49Q1052 -49 883 -11T588 106T391 303T319 582Q319 686 351 775T449 936T619 1063T866 1156T1193 1213T1606 1233Q1692 1233 1781 1231T1949 1225T2109 1217V1290Q2109 1419 2070 1518T1946 1685T1729 1788T1413 1823Q1255 1823 1130 1813T901 1782T704 1733T520 1667V1982Q603 2019 698 2050T908 2103T1156 2137T1450 2150Q1688 2150 1884 2101T2220 1951T2438 1699T2515 1343V0H2175ZM2109 934H1704Q1441 934 1258 915T958 856T790 751T737 598Q737 517 770 454T875 349T1058 284T1327 262Q1448 262 1560 276T1772 316T1956 381T2109 467V934Z"  />
<glyph unicode="&#x431;" horiz-adv-x="3088" d="M1552 -49Q1339 -49 1165 -9T854 111T616 311T449 593T351 956T319 1401Q319 1641 356 1842T466 2206T648 2494T901 2709T1223 2851T1614 2925L2576 3015V2683L1655 2597Q1525 2585 1411 2556T1199 2478T1022 2362T884 2206T787 2006T733 1761Q808 1819 907 1869T1121 1955T1364 2011T1626 2032Q1811 2032 1973 2001T2271 1909T2512 1759T2692 1555T2804 1298T2843 991Q2843 846 2809 713T2706 464T2531 254T2282 92T1956 -12T1552 -49ZM1544 1720Q1427 1720 1315 1703T1099 1655T901 1584T725 1495Q725 1476 725 1456T725 1417Q725 1105 778 887T938 530T1204 329T1573 266Q1715 266 1833 290T2046 359T2212 468T2330 613T2401 789T2425 991Q2425 1109 2400 1208T2324 1389T2199 1532T2026 1635T1807 1698T1544 1720Z"  />
<glyph unicode="&#x432;" horiz-adv-x="2970" d="M471 2101H1679Q1905 2101 2069 2063T2339 1950T2497 1766T2548 1516Q2548 1433 2527 1366T2467 1245T2370 1151T2241 1081Q2344 1052 2424 1009T2560 907T2645 772T2675 602Q2675 467 2624 356T2463 166T2179 44T1761 0H471V2101ZM877 918V315H1749Q1876 315 1970 332T2126 386T2218 477T2249 610Q2249 687 2219 744T2127 840T1971 898T1749 918H877ZM877 1786V1217H1638Q1755 1217 1846 1235T1999 1289T2093 1378T2126 1503Q2126 1575 2094 1628T1999 1717T1846 1769T1638 1786H877Z"  />
<glyph unicode="&#x433;" horiz-adv-x="2425" d="M471 2101H2302V1782H877V0H471V2101Z"  />
<glyph unicode="&#x434;" horiz-adv-x="3265" d="M41 319H184Q275 319 349 342T489 420T605 568T695 822T760 1284T791 2078V2101H2724V319H3142V-688H2777V0H406V-688H41V319ZM1180 1782V1768Q1172 1438 1150 1225T1101 876T1044 647T972 489T884 385T782 319H2318V1782H1180Z"  />
<glyph unicode="&#x435;" horiz-adv-x="2863" d="M2466 143Q2377 102 2276 67T2058 6T1805 -34T1511 -49Q1304 -49 1133 -11T824 98T585 270T415 496T313 769T279 1081Q279 1231 314 1369T417 1625T585 1841T815 2006T1104 2112T1450 2150Q1633 2150 1790 2116T2076 2017T2304 1861T2471 1656T2574 1408T2609 1126Q2609 1106 2609 1084T2607 1041T2604 1000T2601 967H684Q695 810 753 683T919 466T1185 328T1556 279Q1708 279 1834 294T2070 336T2277 396T2466 467V143ZM2212 1278Q2198 1402 2136 1505T1973 1683T1739 1798T1450 1839Q1295 1839 1161 1798T926 1683T763 1506T688 1278H2212Z"  />
<glyph unicode="&#x436;" horiz-adv-x="4035" d="M1815 909H1700Q1625 909 1570 903T1472 881T1392 837T1315 766L578 0H41L881 864Q912 896 945 925T1014 979T1091 1026T1176 1065Q1134 1082 1097 1103T1025 1150T958 1203T897 1262L82 2101H586L1298 1360Q1338 1317 1375 1289T1455 1245T1553 1223T1683 1217H1815V2101H2220V1217H2351Q2426 1217 2481 1223T2579 1245T2659 1289T2736 1360L3449 2101H3953L3138 1262Q3109 1231 3077 1203T3009 1150T2936 1104T2855 1065Q2900 1048 2940 1027T3018 980T3089 925T3154 864L3994 0H3457L2720 766Q2680 809 2643 837T2563 881T2465 903T2335 909H2220V0H1815V909Z"  />
<glyph unicode="&#x437;" horiz-adv-x="2707" d="M1290 -49Q1123 -49 965 -36T667 3T407 63T197 143V459Q287 419 403 386T651 329T927 292T1217 279Q1419 279 1568 299T1816 360T1963 463T2011 610Q2011 665 1984 708T1906 783T1786 836T1632 871T1452 891T1253 897H750V1208H1204Q1372 1208 1505 1229T1732 1291T1875 1391T1925 1528Q1925 1606 1879 1662T1742 1754T1521 1806T1221 1823Q1096 1823 968 1811T718 1777T487 1726T291 1663V1982Q348 2009 421 2031T575 2073T744 2106T918 2130T1087 2145T1241 2150Q1487 2150 1689 2109T2037 1990T2263 1801T2343 1552Q2343 1451 2312 1372T2225 1233T2089 1129T1913 1057Q2040 1031 2137 989T2298 887T2396 747T2429 565Q2429 465 2391 381T2282 228T2110 108T1883 21T1607 -31T1290 -49Z"  />
<glyph unicode="&#x438;" horiz-adv-x="3432" d="M471 2101H868V774Q868 743 868 700T868 610T868 521T868 446Q899 477 933 510T1000 577T1064 639T1118 692L2540 2101H2961V0H2564V1327Q2564 1358 2564 1401T2564 1491T2564 1580T2564 1655Q2533 1624 2499 1591T2432 1524T2368 1462T2314 1409L885 0H471V2101Z"  />
<glyph unicode="&#x439;" horiz-adv-x="3432" d="M471 2101H868V774Q868 743 868 700T868 610T868 521T868 446Q899 477 933 510T1000 577T1064 639T1118 692L2540 2101H2961V0H2564V1327Q2564 1358 2564 1401T2564 1491T2564 1580T2564 1655Q2533 1624 2499 1591T2432 1524T2368 1462T2314 1409L885 0H471V2101ZM2429 3056Q2426 2902 2375 2778T2231 2565T2008 2428T1716 2380Q1555 2380 1425 2428T1202 2564T1058 2777T1003 3056H1290Q1298 2968 1328 2900T1411 2786T1540 2715T1716 2691Q1816 2691 1892 2715T2021 2785T2104 2900T2142 3056H2429Z"  />
<glyph unicode="&#x43A;" horiz-adv-x="2798" d="M471 2101H877V1217H1057Q1132 1217 1185 1224T1281 1248T1361 1292T1442 1360L2220 2101H2724L1843 1262Q1811 1231 1777 1203T1707 1150T1633 1104T1552 1065Q1597 1048 1637 1026T1716 979T1790 924T1860 864L2765 0H2228L1425 766Q1382 806 1345 833T1265 877T1169 901T1040 909H877V0H471V2101Z"  />
<glyph unicode="&#x43B;" horiz-adv-x="3265" d="M319 -25Q289 -25 254 -22T185 -13T118 1T61 20V328Q99 321 136 316T217 311Q317 311 398 339T541 430T644 593T714 840T757 1199T774 1662L778 2101H2793V0H2388V1782H1180L1173 1466Q1170 1352 1163 1227T1142 976T1102 726T1036 492T932 286T778 122T575 14T319 -25Z"  />
<glyph unicode="&#x43C;" horiz-adv-x="3944" d="M471 2101H909L1761 1139Q1784 1113 1811 1082T1866 1019T1923 955T1978 893Q2006 924 2034 955T2089 1018T2142 1079T2191 1135L3052 2101H3473V0H3084V1204Q3084 1250 3084 1302T3084 1409T3084 1515T3084 1614Q3053 1580 3021 1544T2955 1471T2890 1398T2826 1327L2097 508H1847L1110 1335Q1079 1369 1047 1405T982 1477T919 1548T860 1614Q860 1568 860 1516T860 1409T860 1303T860 1204V0H471V2101Z"  />
<glyph unicode="&#x43D;" horiz-adv-x="3355" d="M2478 942H877V0H471V2101H877V1262H2478V2101H2884V0H2478V942Z"  />
<glyph unicode="&#x43E;" horiz-adv-x="3088" d="M1544 -49Q1323 -49 1143 -11T823 96T580 265T410 486T311 752T279 1053Q279 1208 312 1350T413 1614T584 1835T828 2004T1147 2112T1544 2150Q1765 2150 1945 2112T2265 2005T2509 1836T2678 1615T2777 1349T2810 1049Q2810 893 2777 751T2676 487T2505 266T2261 97T1941 -11T1544 -49ZM1544 266Q1762 266 1922 321T2186 479T2341 725T2392 1049Q2392 1227 2342 1372T2187 1620T1922 1779T1544 1835Q1326 1835 1167 1780T903 1622T747 1376T696 1053Q696 875 747 730T902 481T1166 322T1544 266Z"  />
<glyph unicode="&#x43F;" horiz-adv-x="3260" d="M2384 1782H877V0H471V2101H2789V0H2384V1782Z"  />
<glyph unicode="&#x440;" horiz-adv-x="3178" d="M471 -864V2101H811L840 1917Q916 1968 1011 2010T1215 2084T1442 2132T1683 2150Q1961 2150 2186 2077T2569 1864T2814 1520T2900 1053Q2900 796 2816 592T2573 246T2183 27T1659 -49Q1545 -49 1436 -36T1227 1T1038 62T877 147V-864H471ZM877 475Q952 427 1035 389T1210 325T1399 284T1602 270Q1815 270 1979 319T2255 466T2424 711T2482 1053Q2482 1248 2425 1395T2256 1641T1980 1789T1602 1839Q1497 1839 1399 1825T1210 1785T1036 1720T877 1634V475Z"  />
<glyph unicode="&#x441;" horiz-adv-x="2568" d="M2314 111Q2239 79 2155 50T1969 -1T1742 -36T1458 -49Q1180 -49 961 30T591 253T359 600T279 1053Q279 1209 313 1351T415 1616T587 1836T830 2004T1144 2112T1532 2150Q1638 2150 1743 2141T1946 2114T2129 2072T2281 2019V1688Q2212 1715 2127 1739T1946 1782T1743 1812T1524 1823Q1304 1823 1148 1767T891 1610T743 1367T696 1053Q696 864 753 720T915 477T1168 329T1499 279Q1639 279 1758 294T1979 334T2163 389T2314 451V111Z"  />
<glyph unicode="&#x442;" horiz-adv-x="2535" d="M123 2101H2413V1782H1470V0H1065V1782H123V2101Z"  />
<glyph unicode="&#x443;" horiz-adv-x="2630" d="M16 -553Q57 -562 106 -570T221 -578Q316 -578 401 -565T561 -523T704 -453T831 -352T946 -219T1049 -53L1102 45L49 2101H500L1180 717Q1217 642 1251 571T1323 422Q1360 499 1394 573T1466 721L2138 2101H2580L1470 -61Q1403 -191 1330 -305T1173 -513T990 -682T776 -808T524 -886T225 -913Q201 -913 173 -912T116 -907T62 -898T16 -885V-553Z"  />
<glyph unicode="&#x444;" horiz-adv-x="4403" d="M1999 -864V139Q1942 96 1866 62T1703 3T1525 -35T1348 -49Q1175 -49 1030 -12T767 95T562 262T414 483T325 749T295 1053Q295 1293 361 1494T557 1841T877 2068T1315 2150Q1430 2150 1530 2134T1716 2090T1872 2024T1999 1942V2966H2404V1942Q2459 1986 2530 2024T2686 2090T2872 2134T3088 2150Q3335 2150 3525 2069T3845 1841T4041 1494T4108 1053Q4108 893 4078 750T3989 484T3842 263T3636 95T3374 -11T3056 -49Q2968 -49 2877 -36T2699 2T2537 61T2404 139V-864H1999ZM1389 266Q1481 266 1567 276T1730 306T1875 356T1999 426V1663Q1936 1708 1867 1740T1721 1794T1562 1825T1389 1835Q1223 1835 1096 1783T883 1631T753 1386T709 1053Q709 865 753 719T883 472T1096 319T1389 266ZM3015 266Q3181 266 3308 318T3521 472T3651 719T3695 1053Q3695 1240 3651 1385T3521 1631T3308 1783T3015 1835Q2924 1835 2841 1825T2682 1794T2537 1741T2404 1663V426Q2459 386 2527 356T2672 306T2836 276T3015 266Z"  />
<glyph unicode="&#x445;" horiz-adv-x="2695" d="M2097 0L1339 815L578 0H74L1098 1069L106 2101H631L1343 1327L2064 2101H2568L1585 1073L2621 0H2097Z"  />
<glyph unicode="&#x446;" horiz-adv-x="3260" d="M471 2101H877V319H2314V2101H2720V319H3138V-688H2773V0H471V2101Z"  />
<glyph unicode="&#x447;" horiz-adv-x="3084" d="M2208 782Q2122 741 2031 708T1838 653T1618 618T1360 606Q1216 606 1084 625T838 688T632 799T473 963T372 1187T336 1475V2101H741V1544Q741 1383 779 1267T903 1076T1121 966T1446 930Q1566 930 1670 940T1867 971T2044 1021T2208 1090V2101H2613V0H2208V782Z"  />
<glyph unicode="&#x448;" horiz-adv-x="4829" d="M471 2101H877V319H2212V2101H2617V319H3953V2101H4358V0H471V2101Z"  />
<glyph unicode="&#x449;" horiz-adv-x="4899" d="M471 2101H877V319H2212V2101H2617V319H3953V2101H4358V319H4776V-688H4411V0H471V2101Z"  />
<glyph unicode="&#x44A;" horiz-adv-x="3531" d="M123 2101H1470V1368H2384Q2561 1368 2697 1344T2934 1275T3104 1168T3215 1029T3275 866T3293 684Q3293 594 3274 509T3211 347T3096 207T2922 97T2682 26T2367 0H1065V1782H123V2101ZM1470 1049V319H2331Q2483 319 2587 343T2755 414T2847 529T2875 684Q2875 772 2847 840T2755 954T2587 1025T2331 1049H1470Z"  />
<glyph unicode="&#x44B;" horiz-adv-x="3981" d="M471 2101H877V1368H1724Q1901 1368 2037 1344T2275 1275T2445 1168T2556 1029T2616 866T2634 684Q2634 594 2615 509T2552 347T2437 207T2263 97T2023 26T1708 0H471V2101ZM3105 2101H3510V0H3105V2101ZM877 1049V319H1671Q1823 319 1927 343T2096 414T2188 529T2216 684Q2216 772 2188 840T2096 954T1928 1025T1671 1049H877Z"  />
<glyph unicode="&#x44C;" horiz-adv-x="2937" d="M471 2101H877V1368H1790Q1967 1368 2103 1344T2341 1275T2510 1168T2621 1029T2681 866T2699 684Q2699 594 2680 509T2617 347T2502 207T2329 97T2089 26T1774 0H471V2101ZM877 1049V319H1737Q1889 319 1993 343T2161 414T2253 529T2281 684Q2281 772 2253 840T2161 954T1993 1025T1737 1049H877Z"  />
<glyph unicode="&#x44D;" horiz-adv-x="2650" d="M573 1225H1950Q1928 1366 1862 1478T1686 1667T1426 1786T1085 1827Q973 1827 860 1816T643 1787T448 1744T287 1692V2011Q331 2031 387 2048T507 2081T642 2109T786 2131T932 2145T1077 2150Q1395 2150 1637 2070T2042 1844T2289 1498T2372 1053Q2372 796 2286 592T2040 246T1655 27T1151 -49Q993 -49 861 -35T620 2T420 56T254 119V446Q321 416 411 385T609 330T844 290T1110 274Q1277 274 1423 312T1682 429T1866 628T1954 913H573V1225Z"  />
<glyph unicode="&#x44E;" horiz-adv-x="4276" d="M471 2101H877V1262H1548Q1567 1385 1612 1498T1728 1710T1898 1890T2126 2029T2414 2118T2765 2150Q2986 2150 3163 2110T3478 1996T3713 1821T3875 1597T3968 1335T3998 1049Q3998 904 3967 766T3872 506T3709 282T3472 107T3159 -8T2765 -49Q2557 -49 2388 -14T2086 87T1854 242T1688 443T1584 679T1536 942H877V0H471V2101ZM2765 266Q2910 266 3027 294T3234 372T3390 494T3498 653T3560 840T3580 1049Q3580 1157 3560 1257T3498 1445T3391 1604T3235 1727T3027 1807T2765 1835Q2547 1835 2392 1774T2139 1607T1996 1359T1950 1053Q1950 890 1995 747T2139 497T2392 328T2765 266Z"  />
<glyph unicode="&#x44F;" horiz-adv-x="2863" d="M1987 823H1737Q1662 823 1608 817T1510 794T1430 750T1352 680L676 0H164L881 717Q924 760 974 797T1090 860Q925 885 797 935T581 1063T447 1243T401 1475Q401 1627 462 1743T644 1939T944 2060T1360 2101H2392V0H1987V823ZM827 1470Q827 1387 858 1324T959 1217T1137 1152T1401 1130H1987V1786H1401Q1252 1786 1144 1767T966 1708T861 1610T827 1470Z"  />
<glyph unicode="&#x450;" horiz-adv-x="2863" d="M2466 143Q2377 102 2276 67T2058 6T1805 -34T1511 -49Q1304 -49 1133 -11T824 98T585 270T415 496T313 769T279 1081Q279 1231 314 1369T417 1625T585 1841T815 2006T1104 2112T1450 2150Q1633 2150 1790 2116T2076 2017T2304 1861T2471 1656T2574 1408T2609 1126Q2609 1106 2609 1084T2607 1041T2604 1000T2601 967H684Q695 810 753 683T919 466T1185 328T1556 279Q1708 279 1834 294T2070 336T2277 396T2466 467V143ZM2212 1278Q2198 1402 2136 1505T1973 1683T1739 1798T1450 1839Q1295 1839 1161 1798T926 1683T763 1506T688 1278H2212ZM1315 2408L709 3056H1233L1684 2408H1315Z"  />
<glyph unicode="&#x451;" horiz-adv-x="2863" d="M2466 143Q2377 102 2276 67T2058 6T1805 -34T1511 -49Q1304 -49 1133 -11T824 98T585 270T415 496T313 769T279 1081Q279 1231 314 1369T417 1625T585 1841T815 2006T1104 2112T1450 2150Q1633 2150 1790 2116T2076 2017T2304 1861T2471 1656T2574 1408T2609 1126Q2609 1106 2609 1084T2607 1041T2604 1000T2601 967H684Q695 810 753 683T919 466T1185 328T1556 279Q1708 279 1834 294T2070 336T2277 396T2466 467V143ZM2212 1278Q2198 1402 2136 1505T1973 1683T1739 1798T1450 1839Q1295 1839 1161 1798T926 1683T763 1506T688 1278H2212ZM725 2527V2941H1163V2527H725ZM1794 2527V2941H2232V2527H1794Z"  />
<glyph unicode="&#x452;" horiz-adv-x="3080" d="M1634 2114Q1832 2114 1991 2070T2275 1940T2490 1728T2638 1438T2725 1074T2753 639Q2753 371 2713 152T2598 -240T2416 -539T2176 -749T1884 -872T1548 -913Q1497 -913 1445 -910T1344 -902T1253 -888T1180 -868V-561Q1215 -569 1250 -575T1321 -585T1393 -592T1466 -594Q1625 -594 1751 -560T1973 -456T2138 -283T2250 -43T2314 264T2335 639Q2335 804 2321 953T2273 1231T2183 1464T2041 1641T1839 1754T1569 1794Q1474 1794 1382 1780T1203 1740T1034 1675T877 1589V0H471V2413H164V2720H471V2966H877V2720H1343V2413H877V1905Q949 1951 1036 1989T1220 2055T1422 2098T1634 2114Z"  />
<glyph unicode="&#x453;" horiz-adv-x="2425" d="M471 2101H2302V1782H877V0H471V2101ZM1184 2408L1634 3056H2159L1552 2408H1184Z"  />
<glyph unicode="&#x454;" horiz-adv-x="2650" d="M1499 -49Q1221 -49 996 27T611 245T366 592T279 1053Q279 1296 362 1497T608 1844T1013 2069T1573 2150Q1643 2150 1717 2145T1864 2131T2007 2110T2142 2082T2263 2048T2363 2011V1692Q2294 1719 2203 1743T2007 1786T1790 1816T1565 1827Q1374 1827 1223 1786T963 1668T787 1478T700 1225H2077V913H696Q713 749 784 629T967 429T1226 312T1540 274Q1680 274 1806 289T2040 329T2238 385T2396 446V119Q2321 87 2231 57T2031 3T1789 -35T1499 -49Z"  />
<glyph unicode="&#x455;" horiz-adv-x="2626" d="M328 414Q373 398 433 381T562 349T709 320T867 296T1028 280T1184 274Q1371 274 1509 293T1739 351T1876 445T1921 573Q1921 650 1880 699T1760 782T1565 842T1298 897Q1057 942 880 992T586 1114T413 1288T356 1540Q356 1680 416 1792T604 1984T930 2107T1405 2150Q1489 2150 1568 2145T1720 2130T1860 2106T1988 2075T2101 2038T2200 1995V1679Q2152 1699 2096 1718T1978 1753T1848 1783T1708 1806T1560 1821T1405 1827Q1234 1827 1114 1810T917 1757T805 1668T770 1544Q770 1467 811 1419T931 1337T1126 1279T1393 1225Q1633 1180 1810 1130T2103 1006T2277 830T2335 578Q2335 438 2261 323T2042 125T1682 -3T1184 -49Q1059 -49 935 -37T699 -5T491 43T328 102V414Z"  />
<glyph unicode="&#x456;" horiz-adv-x="1348" d="M471 0V2101H877V0H471ZM471 2523V2966H877V2523H471Z"  />
<glyph unicode="&#x457;" horiz-adv-x="1348" d="M471 0V2101H877V0H471ZM-80 2527V2941H358V2527H-80ZM989 2527V2941H1427V2527H989Z"  />
<glyph unicode="&#x458;" horiz-adv-x="1348" d="M-291 -565Q-223 -581 -163 -587T-41 -594Q105 -594 203 -555T360 -435T445 -230T471 66V2101H877V37Q877 -204 829 -382T674 -679T398 -855T-12 -913Q-51 -913 -89 -911T-162 -905T-230 -895T-291 -881V-565ZM471 2523V2966H877V2523H471Z"  />
<glyph unicode="&#x459;" horiz-adv-x="4706" d="M2306 1782H1180L1171 1466Q1168 1352 1162 1227T1142 976T1103 726T1036 492T932 286T784 122T582 14T319 -25Q289 -25 254 -22T185 -13T118 1T61 20V328Q99 321 136 316T217 311Q317 311 397 339T538 430T643 593T715 840T758 1179T774 1622L778 2101H2712V1368H3559Q3736 1368 3872 1344T4110 1275T4280 1168T4391 1029T4451 866T4469 684Q4469 594 4450 509T4387 347T4272 207T4098 97T3858 26T3543 0H2306V1782ZM2712 1049V319H3506Q3658 319 3762 343T3931 414T4023 529T4051 684Q4051 772 4023 840T3931 954T3763 1025T3506 1049H2712Z"  />
<glyph unicode="&#x45A;" horiz-adv-x="4772" d="M471 2101H877V1262H2372V2101H2777V1368H3625Q3802 1368 3938 1344T4176 1275T4345 1168T4456 1029T4516 866T4534 684Q4534 594 4515 509T4452 347T4337 207T4164 97T3924 26T3609 0H2372V942H877V0H471V2101ZM2777 1049V319H3572Q3724 319 3828 343T3996 414T4088 529T4116 684Q4116 772 4088 840T3996 954T3828 1025T3572 1049H2777Z"  />
<glyph unicode="&#x45B;" horiz-adv-x="3174" d="M2343 0V1274Q2343 1431 2301 1537T2176 1709T1968 1802T1679 1831Q1561 1831 1448 1813T1231 1765T1037 1695T877 1610V0H471V2413H164V2720H471V2966H877V2720H1343V2413H877V1901Q955 1955 1053 2000T1265 2079T1505 2131T1765 2150Q1897 2150 2021 2134T2255 2079T2455 1980T2611 1829T2712 1619T2748 1343V0H2343Z"  />
<glyph unicode="&#x45C;" horiz-adv-x="2798" d="M471 2101H877V1217H1057Q1132 1217 1185 1224T1281 1248T1361 1292T1442 1360L2220 2101H2724L1843 1262Q1811 1231 1777 1203T1707 1150T1633 1104T1552 1065Q1597 1048 1637 1026T1716 979T1790 924T1860 864L2765 0H2228L1425 766Q1382 806 1345 833T1265 877T1169 901T1040 909H877V0H471V2101ZM1295 2408L1745 3056H2270L1663 2408H1295Z"  />
<glyph unicode="&#x45D;" horiz-adv-x="3432" d="M471 2101H868V774Q868 743 868 700T868 610T868 521T868 446Q899 477 933 510T1000 577T1064 639T1118 692L2540 2101H2961V0H2564V1327Q2564 1358 2564 1401T2564 1491T2564 1580T2564 1655Q2533 1624 2499 1591T2432 1524T2368 1462T2314 1409L885 0H471V2101ZM1552 2408L946 3056H1470L1921 2408H1552Z"  />
<glyph unicode="&#x45E;" horiz-adv-x="2630" d="M16 -553Q57 -562 106 -570T221 -578Q316 -578 401 -565T561 -523T704 -453T831 -352T946 -219T1049 -53L1102 45L49 2101H500L1180 717Q1217 642 1251 571T1323 422Q1360 499 1394 573T1466 721L2138 2101H2580L1470 -61Q1403 -191 1330 -305T1173 -513T990 -682T776 -808T524 -886T225 -913Q201 -913 173 -912T116 -907T62 -898T16 -885V-553ZM2028 3056Q2025 2902 1974 2778T1830 2565T1607 2428T1315 2380Q1154 2380 1024 2428T801 2564T657 2777T602 3056H889Q897 2968 927 2900T1010 2786T1139 2715T1315 2691Q1415 2691 1491 2715T1620 2785T1703 2900T1741 3056H2028Z"  />
<glyph unicode="&#x45F;" horiz-adv-x="3191" d="M471 2101H877V319H2314V2101H2720V0H1778V-688H1413V0H471V2101Z"  />
<glyph unicode="&#x472;" horiz-adv-x="3760" d="M1880 -49Q1620 -49 1402 1T1008 147T700 377T478 683T344 1055T299 1483Q299 1701 345 1899T483 2268T708 2576T1018 2811T1410 2962T1880 3015Q2140 3015 2358 2965T2752 2819T3060 2589T3282 2283T3416 1911T3461 1483Q3461 1265 3415 1067T3277 698T3052 390T2742 155T2350 4T1880 -49ZM1880 287Q2146 287 2349 365T2694 581T2918 907T3023 1315H737Q759 1095 840 907T1063 581T1409 365T1880 287ZM1880 2679Q1703 2679 1554 2644T1282 2543T1066 2386T903 2180T794 1935T737 1659H3023Q3007 1803 2966 1935T2857 2180T2695 2385T2478 2543T2207 2643T1880 2679Z"  />
</font>
</defs>
</svg>
