<?xml  version="1.0" encoding="UTF-8"?>
<!DOCTYPE svg PUBLIC "-//W3C//DTD SVG 1.0//EN" "http://www.w3.org/TR/2001/REC-SVG-20010904/DTD/svg10.dtd" >
<svg xmlns="http://www.w3.org/2000/svg" >
<metadata>
<version>1.0</version>
<id><![CDATA[Audi Type Bold]]></id>
<vendor>Monotype Imaging Inc.</vendor>
<credits>
<name>Fonts.com WebFonts</name>
<URL>http://webfonts.fonts.com</URL>
<role>Home of the Web fonts</role>
</credits>
<license>
<URL>http://webfonts.fonts.com/Legal</URL>
</license>
<copyright><![CDATA[Designed by Paul van der Laan & Pieter van Rosmalen 2008. Produced by Bold Monday. For exclusive use by AUDI AG and its affiliates only.]]></copyright>
<trademark><![CDATA[Audi Type is a trademark of AUDI AG]]></trademark>
<licensee>
<name></name>
</licensee>
</metadata>
<defs >
<font horiz-adv-x="2555" id="f7789a38-da66-4f5f-b33f-9084cd6727c8">
<font-face font-family="" panose-1="2 11 8 3 4 2 0 0 0 3" ascent="4014" descent="-983" units-per-em="4096" alphabetic="0">
</font-face>
<missing-glyph horiz-adv-x="1090" d="M197 -860V2908H893V-860H197Z"  />

<glyph unicode="&#xA;" />
<glyph unicode="&#xD;" horiz-adv-x="1049" />
<glyph unicode=" " horiz-adv-x="1049" />
<glyph unicode="!" horiz-adv-x="1446" d="M565 893L504 1278Q496 1327 487 1394T467 1540T449 1703T433 1873T422 2041T418 2195V2966H1028V2195Q1028 2123 1024 2041T1012 1874T994 1704T974 1541T955 1397T938 1282L881 893H565ZM401 0V606H1044V0H401Z"  />
<glyph unicode="&quot;" horiz-adv-x="1942" d="M434 1806L381 2019Q369 2074 353 2142T322 2282T297 2425T287 2560V2966H840V2560Q840 2497 831 2426T807 2282T778 2142T750 2019L696 1806H434ZM1249 1806L1196 2019Q1184 2074 1168 2142T1137 2282T1112 2425T1102 2560V2966H1655V2560Q1655 2497 1646 2426T1622 2282T1593 2142T1565 2019L1511 1806H1249Z"  />
<glyph unicode="#" horiz-adv-x="2716" d="M1487 184L1540 745H1036L983 184H524L578 745H266V1171H618L680 1778H266V2204H721L770 2716H1229L1180 2204H1683L1733 2716H2191L2142 2204H2449V1778H2101L2040 1171H2449V745H1999L1946 184H1487ZM1642 1778H1139L1077 1171H1581L1642 1778Z"  />
<glyph unicode="$" horiz-adv-x="2716" d="M1065 -238V135Q950 141 835 158T618 198T433 248T299 303V758Q343 738 405 718T539 680T692 647T854 621T1014 604T1163 598Q1334 598 1459 618T1665 680T1787 785T1827 934Q1827 991 1807 1034T1748 1109T1652 1167T1520 1214T1355 1257T1159 1303Q956 1351 800 1411T539 1559T379 1771T324 2073Q324 2226 372 2356T519 2586T766 2755T1114 2855V3244H1565V2875Q1677 2869 1784 2853T1986 2814T2159 2763T2294 2703V2249Q2219 2281 2114 2311T1893 2363T1658 2399T1434 2413Q1303 2413 1205 2394T1041 2336T942 2237T909 2093Q909 2036 929 1993T988 1918T1084 1860T1216 1813T1380 1770T1577 1724Q1780 1676 1936 1616T2198 1468T2358 1256T2413 954Q2413 799 2358 665T2190 425T1910 248T1516 147V-238H1065Z"  />
<glyph unicode="%" horiz-adv-x="4391" d="M1069 1303Q854 1303 699 1368T443 1548T294 1819T246 2159Q246 2337 295 2493T447 2765T704 2948T1069 3015Q1284 3015 1439 2950T1695 2770T1844 2499T1892 2159Q1892 2040 1870 1931T1804 1726T1691 1553T1532 1420T1325 1334T1069 1303ZM1069 1696Q1157 1696 1221 1729T1327 1824T1389 1970T1409 2159Q1409 2262 1389 2347T1327 2493T1221 2587T1069 2621Q982 2621 918 2588T812 2493T750 2347T729 2159Q729 2056 749 1971T812 1824T918 1730T1069 1696ZM3322 -49Q3107 -49 2952 16T2696 196T2547 467T2499 807Q2499 985 2548 1141T2700 1413T2957 1596T3322 1663Q3537 1663 3692 1598T3948 1418T4097 1147T4145 807Q4145 629 4096 473T3944 201T3687 18T3322 -49ZM3322 344Q3409 344 3473 377T3579 472T3641 618T3662 807Q3662 910 3642 995T3579 1141T3473 1236T3322 1270Q3234 1270 3170 1236T3064 1141T3002 995T2982 807Q2982 704 3002 619T3064 472T3170 378T3322 344ZM1049 0L2851 2966H3342L1540 0H1049Z"  />
<glyph unicode="&amp;" horiz-adv-x="3441" d="M2585 0L2277 274Q2171 193 2053 130T1807 23T1548 -43T1282 -66Q1100 -66 949 -35T678 54T469 188T320 358T231 552T201 762Q201 851 219 934T272 1094T360 1243T480 1378T631 1501T811 1610H811H811Q742 1680 677 1759T562 1927T482 2113T451 2318Q451 2422 480 2515T564 2688T699 2831T881 2939T1105 3007T1368 3031Q1560 3031 1725 2988T2010 2859T2200 2646T2269 2351Q2269 2217 2224 2104T2095 1893T1896 1712T1638 1556L1618 1548L2241 987Q2264 1042 2282 1103T2313 1230T2332 1367T2339 1516V1774H3215V1348H2867Q2861 1248 2842 1154T2791 971T2716 799T2621 639L3334 0H2585ZM1139 1307H1139Q1044 1258 974 1205T857 1092T789 965T766 823Q766 723 810 646T932 515T1113 434T1335 406Q1418 406 1498 417T1654 452T1800 509T1933 590L1139 1307ZM1294 1843Q1402 1895 1481 1945T1612 2052T1690 2173T1716 2322Q1716 2380 1692 2432T1623 2522T1514 2582T1368 2605Q1281 2605 1214 2584T1101 2522T1032 2424T1008 2294Q1008 2231 1028 2175T1084 2066T1169 1961T1278 1855L1290 1843H1294Z"  />
<glyph unicode="&apos;" horiz-adv-x="1126" d="M434 1806L381 2019Q369 2074 353 2142T322 2282T297 2425T287 2560V2966H840V2560Q840 2497 831 2426T807 2282T778 2142T750 2019L696 1806H434Z"  />
<glyph unicode="(" horiz-adv-x="1729" d="M1229 -377Q1099 -308 987 -202T783 39T620 330T500 658T426 1008T401 1364Q401 1542 426 1721T500 2071T620 2399T783 2690T987 2930T1229 3105H1638Q1533 3031 1438 2921T1261 2674T1114 2379T1002 2052T930 1709T905 1364Q905 1195 930 1021T1001 678T1113 351T1260 55T1437 -192T1638 -377H1229Z"  />
<glyph unicode=")" horiz-adv-x="1729" d="M90 -377Q195 -303 290 -193T467 55T614 350T726 678T798 1021T823 1364Q823 1534 798 1708T727 2052T615 2379T468 2673T291 2920T90 3105H500Q630 3036 742 2930T945 2690T1108 2399T1228 2072T1302 1722T1327 1364Q1327 1187 1302 1008T1229 659T1109 331T946 39T742 -201T500 -377H90Z"  />
<glyph unicode="*" horiz-adv-x="1999" d="M1237 1417L1122 1614Q1105 1643 1088 1677T1054 1747T1022 1821T995 1896Q984 1859 970 1822T940 1748T907 1677T872 1614L758 1417L426 1610L541 1806Q572 1865 618 1930T717 2052Q642 2037 562 2030T414 2023H188V2408H414Q482 2408 565 2400T725 2376Q672 2431 626 2497T545 2626L430 2822L762 3015L877 2818Q894 2787 911 2753T944 2681T974 2606T999 2531Q1011 2568 1026 2606T1057 2681T1091 2752T1126 2818L1241 3015L1573 2822L1458 2626Q1441 2597 1421 2565T1377 2501T1329 2437T1278 2376Q1316 2385 1356 2391T1436 2401T1513 2406T1585 2408H1810V2023H1585Q1550 2023 1511 2025T1431 2030T1351 2040T1274 2056Q1326 1997 1373 1931T1454 1806L1569 1610L1237 1417Z"  />
<glyph unicode="+" horiz-adv-x="2458" d="M971 156V975H123V1466H971V2286H1487V1466H2335V975H1487V156H971Z"  />
<glyph unicode="&#x2c;" horiz-adv-x="1397" d="M160 -623L442 33L360 606H705Q794 606 864 592T982 544T1055 459T1081 332Q1081 267 1071 205T1041 83T990 -39T917 -167T822 -304T705 -455L569 -623H160Z"  />
<glyph unicode="-" horiz-adv-x="1511" d="M201 946V1499H1311V946H201Z"  />
<glyph unicode="." horiz-adv-x="1397" d="M377 0V606H1020V0H377Z"  />
<glyph unicode="/" horiz-adv-x="2007" d="M74 0L1409 3105H1933L602 0H74Z"  />
<glyph unicode="0" horiz-adv-x="2716" d="M1356 -66Q1125 -66 952 -12T652 143T443 382T311 693T241 1060T221 1470Q221 1682 242 1880T313 2251T447 2568T657 2815T955 2974T1356 3031Q1586 3031 1759 2977T2059 2822T2268 2583T2400 2272T2470 1905T2490 1495Q2490 1283 2469 1085T2398 714T2264 397T2054 150T1756 -9T1356 -66ZM1356 397Q1457 397 1537 431T1678 529T1782 688T1852 902T1892 1169T1905 1483Q1905 1651 1893 1796T1853 2062T1782 2277T1678 2435T1537 2534T1356 2568Q1255 2568 1175 2534T1033 2436T929 2277T859 2063T820 1797T807 1483Q807 1315 819 1169T859 903T929 688T1033 530T1174 431T1356 397Z"  />
<glyph unicode="1" horiz-adv-x="2716" d="M430 0V492H1098V2429L430 2281V2773L1303 2966H1675V492H2343V0H430Z"  />
<glyph unicode="2" horiz-adv-x="2716" d="M238 0V430L864 954Q1010 1076 1129 1183T1343 1386T1505 1570T1619 1742T1686 1907T1708 2073Q1708 2174 1675 2260T1572 2410T1392 2508T1130 2544Q1012 2544 895 2526T669 2479T466 2414T299 2343V2818Q363 2858 453 2896T654 2965T898 3013T1180 3031Q1385 3031 1548 2997T1836 2900T2050 2752T2196 2563T2279 2342T2306 2101Q2306 1953 2265 1817T2149 1552T1974 1303T1754 1068T1502 843T1233 627L1036 475H2437V0H238Z"  />
<glyph unicode="3" horiz-adv-x="2716" d="M319 582Q391 546 492 517T710 466T950 434T1192 422Q1344 422 1459 453T1653 541T1770 676T1810 848Q1810 951 1770 1033T1645 1174T1433 1263T1130 1294H778V1786H1130Q1259 1786 1372 1806T1569 1871T1701 1986T1749 2154Q1749 2226 1729 2282T1672 2382T1584 2456T1471 2506T1339 2535T1192 2544Q1074 2544 961 2531T745 2496T552 2442T389 2376V2851Q432 2876 491 2899T620 2943T767 2979T925 3007T1086 3024T1241 3031Q1510 3031 1716 2971T2063 2804T2275 2549T2347 2224Q2347 2103 2317 2001T2229 1816T2090 1666T1905 1548Q2029 1494 2123 1424T2280 1264T2376 1064T2408 819Q2408 689 2374 573T2272 359T2105 182T1875 48T1586 -36T1241 -66Q1092 -66 954 -54T696 -20T481 34T319 106V582Z"  />
<glyph unicode="4" horiz-adv-x="2716" d="M1520 0V582H61V963L1561 2966H2097V1053H2601V582H2097V0H1520ZM1520 1720Q1520 1884 1528 2013T1548 2245Q1502 2152 1439 2043T1282 1810L717 1053H1520V1720Z"  />
<glyph unicode="5" horiz-adv-x="2716" d="M360 582Q432 546 527 517T730 466T956 434T1192 422Q1344 422 1453 453T1632 543T1736 684T1769 868Q1769 960 1729 1031T1619 1155T1456 1245T1259 1307T1043 1346T826 1369T626 1379T459 1384L512 2966H2281V2490H1073L1049 1864Q1153 1856 1264 1841T1488 1799T1709 1735T1915 1643T2096 1517T2239 1352T2333 1142T2367 881Q2367 751 2341 630T2257 404T2111 213T1897 64T1609 -32T1241 -66Q1092 -66 960 -54T716 -20T514 34T360 106V582Z"  />
<glyph unicode="6" horiz-adv-x="2716" d="M2335 2429Q2270 2458 2191 2483T2024 2527T1841 2557T1651 2568Q1445 2568 1303 2510T1068 2342T926 2074T856 1716Q916 1767 986 1809T1135 1881T1300 1929T1479 1946Q1642 1946 1780 1917T2032 1832T2233 1691T2379 1497T2468 1251T2499 954Q2499 811 2466 680T2367 435T2208 230T1991 72T1719 -30T1397 -66Q1137 -66 928 26T570 297T342 740T262 1348Q262 1759 352 2073T617 2601T1048 2922T1638 3031Q1744 3031 1845 3021T2036 2994T2202 2953T2335 2904V2429ZM840 1303Q840 1150 857 1024T908 798T989 623T1100 498T1236 423T1397 397Q1526 395 1624 433T1788 541T1887 712T1921 938Q1921 1071 1889 1173T1790 1344T1624 1448T1389 1483Q1300 1483 1224 1470T1082 1433T956 1376T840 1303Z"  />
<glyph unicode="7" horiz-adv-x="2716" d="M590 0L1753 2490H319V2966H2392V2564L1212 0H590Z"  />
<glyph unicode="8" horiz-adv-x="2716" d="M1970 1556Q2065 1521 2141 1475T2277 1373T2379 1252T2449 1114T2490 959T2503 791Q2503 669 2473 558T2380 352T2223 180T2002 48T1715 -36T1360 -66Q1164 -66 1004 -37T716 47T494 179T337 352T244 558T213 791Q213 878 227 959T270 1113T343 1252T449 1373T588 1475T762 1556Q651 1605 569 1675T433 1831T351 2019T324 2232Q324 2424 393 2573T594 2823T919 2978T1360 3031Q1606 3031 1798 2978T2122 2824T2323 2573T2392 2232Q2392 2120 2367 2019T2289 1832T2157 1675T1970 1556ZM1901 840Q1901 935 1869 1020T1769 1170T1600 1273T1360 1311Q1220 1311 1118 1273T948 1171T848 1021T815 840Q815 745 849 663T951 519T1121 424T1360 389Q1495 389 1596 423T1765 519T1867 662T1901 840ZM1815 2187Q1815 2282 1784 2357T1693 2485T1550 2565T1360 2593Q1252 2593 1167 2566T1021 2486T929 2358T897 2187Q897 2092 927 2011T1016 1871T1161 1779T1360 1745Q1472 1745 1557 1778T1699 1871T1786 2011T1815 2187Z"  />
<glyph unicode="9" horiz-adv-x="2716" d="M377 537Q441 508 520 483T688 438T871 408T1061 397Q1271 397 1415 458T1652 634T1793 915T1860 1290Q1800 1239 1729 1197T1579 1125T1412 1078T1233 1061Q989 1061 799 1124T479 1310T281 1614T213 2032Q213 2172 246 2300T345 2540T504 2741T721 2896T993 2996T1315 3031Q1574 3031 1784 2939T2141 2668T2369 2226T2449 1618Q2449 1206 2359 892T2095 364T1663 43T1073 -66Q967 -66 867 -56T676 -29T510 12T377 61V537ZM1872 1704Q1869 1849 1850 1969T1796 2185T1714 2352T1604 2471T1471 2543T1315 2568Q1186 2569 1088 2533T924 2429T825 2265T791 2048Q791 1919 823 1821T922 1657T1088 1558T1323 1524Q1410 1524 1485 1536T1628 1572T1755 1629T1872 1704Z"  />
<glyph unicode=":" horiz-adv-x="1397" d="M377 1495V2101H1020V1495H377ZM377 0V606H1020V0H377Z"  />
<glyph unicode=";" horiz-adv-x="1397" d="M377 1495V2101H1020V1495H377ZM160 -623L442 33L360 606H705Q794 606 864 592T982 544T1055 459T1081 332Q1081 267 1071 205T1041 83T990 -39T917 -167T822 -304T705 -455L569 -623H160Z"  />
<glyph unicode="&lt;" horiz-adv-x="2458" d="M1483 184L225 1212L1483 2241H2212L954 1212L2212 184H1483Z"  />
<glyph unicode="=" horiz-adv-x="2458" d="M172 479V971H2286V479H172ZM172 1462V1954H2286V1462H172Z"  />
<glyph unicode="&gt;" horiz-adv-x="2458" d="M963 184H233L1499 1212L233 2241H963L2228 1212L963 184Z"  />
<glyph unicode="?" horiz-adv-x="2195" d="M643 893L582 1339L889 1544Q1006 1622 1097 1695T1253 1844T1350 2003T1384 2187Q1384 2275 1350 2341T1252 2453T1101 2521T905 2544Q841 2544 776 2538T645 2519T517 2491T394 2454T280 2411T180 2363V2839Q244 2880 330 2915T516 2976T728 3016T954 3031Q1106 3031 1241 3006T1490 2934T1696 2818T1850 2662T1948 2470T1982 2245Q1982 2125 1953 2020T1874 1823T1754 1650T1604 1497T1435 1359T1257 1233L1163 1171L1122 893H643ZM573 0V606H1217V0H573Z"  />
<glyph unicode="@" horiz-adv-x="4415" d="M2925 -709Q2872 -734 2809 -755T2677 -796T2532 -830T2380 -855T2224 -871T2068 -877Q1771 -877 1520 -820T1064 -656T703 -393T442 -40T283 393T229 897Q229 1206 298 1485T496 2002T809 2432T1223 2758T1726 2966T2302 3039Q2622 3039 2886 2984T3360 2828T3725 2583T3982 2265T4135 1885T4186 1458Q4186 1234 4146 1043T4032 694T3857 417T3633 215T3373 91T3088 49Q2976 49 2878 69T2699 131T2559 234T2466 377Q2424 308 2364 248T2224 144T2044 75T1823 49Q1662 49 1536 109T1322 279T1189 538T1143 868Q1143 1030 1175 1189T1270 1492T1426 1758T1643 1971T1919 2112T2253 2163Q2340 2163 2419 2151T2568 2117T2695 2063T2798 1991L2851 2101H3289L2978 639Q2975 623 2973 604T2970 569Q2970 532 2980 500T3013 444T3070 407T3154 393Q3222 393 3291 422T3424 510T3543 655T3639 858T3703 1118T3727 1434Q3727 1621 3692 1784T3582 2083T3394 2325T3122 2504T2759 2615T2302 2654Q2069 2654 1859 2599T1469 2438T1145 2180T899 1835T743 1409T688 913Q688 696 726 508T842 165T1033 -110T1299 -314T1639 -440T2052 -483Q2172 -483 2292 -473T2525 -443T2740 -394T2925 -324V-709ZM2679 1655Q2642 1669 2599 1682T2505 1705T2398 1722T2277 1729Q2180 1729 2097 1700T1947 1617T1829 1489T1742 1324T1689 1129T1671 913Q1671 823 1691 745T1754 608T1865 517T2028 483Q2097 483 2159 496T2277 532T2381 588T2470 659L2679 1655Z"  />
<glyph unicode="A" horiz-adv-x="2822" d="M2171 0L1958 639H831L623 0H33L1102 2966H1720L2789 0H2171ZM1536 1917Q1493 2050 1458 2182T1397 2454Q1372 2314 1337 2182T1257 1917L987 1106H1802L1536 1917Z"  />
<glyph unicode="B" horiz-adv-x="2703" d="M369 0V2966H1372Q1619 2966 1802 2914T2107 2762T2287 2516T2347 2183Q2347 2066 2325 1970T2259 1795T2154 1656T2011 1548Q2125 1499 2214 1427T2364 1261T2458 1053T2490 807Q2490 687 2465 581T2386 385T2250 224T2054 103T1794 27T1466 0H369ZM1454 459Q1572 459 1656 487T1793 566T1871 691T1896 856Q1896 951 1870 1031T1784 1168T1632 1258T1405 1290H950V459H1454ZM1303 1724Q1427 1724 1513 1752T1652 1832T1729 1961T1753 2134Q1753 2217 1729 2285T1653 2401T1523 2476T1335 2503H950V1724H1303Z"  />
<glyph unicode="C" horiz-adv-x="2544" d="M2396 102Q2305 62 2212 31T2011 -21T1773 -54T1479 -66Q1265 -66 1088 -18T771 124T525 352T351 660T248 1043T213 1495Q213 1721 248 1923T356 2295T536 2602T788 2834T1115 2980T1516 3031Q1651 3031 1772 3019T1999 2983T2197 2926T2363 2851V2372Q2288 2409 2200 2438T2010 2488T1793 2520T1548 2531Q1423 2531 1321 2499T1137 2406T995 2254T894 2049T835 1795T815 1495Q815 1303 835 1149T897 877T1001 674T1148 535T1337 456T1569 430Q1704 430 1815 439T2025 467T2213 514T2396 582V102Z"  />
<glyph unicode="D" horiz-adv-x="3006" d="M369 0V2966H1417Q1675 2966 1876 2915T2228 2770T2484 2543T2654 2245T2748 1888T2777 1483Q2777 1271 2746 1079T2647 722T2472 424T2214 196T1865 51T1417 0H369ZM1397 475Q1521 475 1627 502T1820 583T1974 721T2086 916T2155 1169T2179 1483Q2179 1655 2156 1796T2087 2050T1974 2244T1820 2381T1627 2463T1397 2490H946V475H1397Z"  />
<glyph unicode="E" horiz-adv-x="2478" d="M369 0V2966H2241V2490H946V1757H2060V1282H946V475H2257V0H369Z"  />
<glyph unicode="F" horiz-adv-x="2314" d="M369 0V2966H2134V2490H946V1679H2023V1204H946V0H369Z"  />
<glyph unicode="G" horiz-adv-x="2982" d="M2118 1430H2695V139Q2623 108 2546 81T2386 31T2213 -10T2026 -40T1822 -59T1602 -66Q1244 -66 982 35T549 333T296 822T213 1495Q213 1732 253 1938T373 2315T571 2619T846 2843T1195 2983T1618 3031Q1713 3031 1801 3026T1971 3009T2126 2981T2269 2944T2398 2898T2515 2843V2359Q2434 2399 2337 2431T2131 2485T1901 2519T1651 2531Q1448 2531 1292 2466T1030 2271T870 1947T815 1495Q815 1291 842 1133T919 857T1043 657T1207 525T1408 453T1642 430Q1713 430 1777 432T1900 440T2013 452T2118 471V1430Z"  />
<glyph unicode="H" horiz-adv-x="3064" d="M2118 0V1286H946V0H369V2966H946V1761H2118V2966H2695V0H2118Z"  />
<glyph unicode="I" horiz-adv-x="1749" d="M246 0V459H586V2507H246V2966H1503V2507H1163V459H1503V0H246Z"  />
<glyph unicode="J" horiz-adv-x="1516" d="M-74 -135Q-52 -140 -29 -143T19 -148T72 -151T131 -152Q252 -152 336 -111T471 8T546 199T569 459V2507H147V2966H1147V393Q1147 132 1080 -62T885 -384T575 -575T160 -639Q123 -639 90 -638T27 -633T-28 -624T-74 -610V-135Z"  />
<glyph unicode="K" horiz-adv-x="2757" d="M2023 0L946 1348V0H369V2966H946V1663L1950 2966H2658L1720 1778Q1649 1689 1585 1621T1462 1507Q1494 1484 1527 1456T1595 1393T1666 1318T1741 1229L2732 0H2023Z"  />
<glyph unicode="L" horiz-adv-x="2175" d="M369 0V2966H942V475H2101V0H369Z"  />
<glyph unicode="M" horiz-adv-x="3740" d="M2826 0V1638Q2826 1765 2837 1939T2863 2257Q2810 2108 2743 1958T2601 1683L2044 745H1692L1135 1683Q1098 1744 1063 1811T995 1953T932 2102T877 2249Q892 2100 902 1939T913 1638V0H369V2966H975L1675 1761Q1725 1675 1778 1563T1872 1327Q1909 1450 1964 1563T2068 1761L2769 2966H3371V0H2826Z"  />
<glyph unicode="N" horiz-adv-x="3142" d="M2187 0L1114 1712Q1061 1796 1003 1913T885 2163Q892 2097 899 2032T911 1908T919 1799T922 1712V0H369V2966H954L2028 1253Q2054 1212 2082 1161T2138 1051T2196 930T2253 803Q2245 867 2239 931T2229 1054T2222 1164T2220 1253V2966H2773V0H2187Z"  />
<glyph unicode="O" horiz-adv-x="3056" d="M1528 -66Q1270 -66 1074 -10T733 147T492 390T337 704T254 1074T229 1483Q229 1695 256 1892T344 2261T503 2575T746 2818T1084 2975T1528 3031Q1786 3031 1982 2975T2323 2818T2564 2575T2719 2261T2801 1892T2826 1483Q2826 1271 2799 1074T2712 705T2552 391T2309 148T1971 -10T1528 -66ZM1528 422Q1652 422 1752 454T1929 548T2063 702T2156 911T2210 1172T2228 1483Q2228 1650 2211 1793T2157 2054T2064 2263T1930 2417T1752 2511T1528 2544Q1404 2544 1304 2512T1126 2417T992 2264T899 2055T845 1794T827 1483Q827 1316 844 1173T898 911T991 702T1126 549T1304 454T1528 422Z"  />
<glyph unicode="P" horiz-adv-x="2556" d="M369 0V2966H1401Q1575 2966 1718 2938T1976 2854T2174 2716T2314 2527T2397 2289T2425 2003Q2425 1848 2397 1716T2310 1474T2164 1281T1957 1140T1688 1054T1356 1024H942V0H369ZM1298 1475Q1441 1475 1542 1512T1709 1619T1804 1785T1835 2003Q1835 2121 1806 2216T1716 2379T1564 2482T1348 2519H942V1475H1298Z"  />
<glyph unicode="Q" horiz-adv-x="3056" d="M2273 -549Q2216 -549 2177 -544T2108 -527T2052 -494T1995 -442L1618 -61Q1596 -61 1573 -63T1528 -66Q1270 -66 1074 -10T733 147T492 390T337 704T254 1074T229 1483Q229 1695 256 1892T344 2261T503 2575T746 2818T1084 2975T1528 3031Q1786 3031 1982 2975T2323 2818T2564 2575T2719 2261T2801 1892T2826 1483Q2826 1243 2792 1024T2679 620T2470 290T2150 57Q2199 36 2246 3T2347 -86L2806 -549H2273ZM1528 422Q1652 422 1752 454T1929 548T2063 702T2156 911T2210 1172T2228 1483Q2228 1650 2211 1793T2157 2054T2064 2263T1930 2417T1752 2511T1528 2544Q1404 2544 1304 2512T1126 2417T992 2264T899 2055T845 1794T827 1483Q827 1316 844 1173T898 911T991 702T1126 549T1304 454T1528 422Z"  />
<glyph unicode="R" horiz-adv-x="2744" d="M2028 0L1446 954Q1418 1000 1395 1034T1350 1092T1305 1132T1254 1156T1189 1168T1106 1171H942V0H369V2966H1376Q1631 2966 1827 2913T2155 2751T2356 2477T2425 2085Q2425 1916 2377 1780T2248 1543T2060 1374T1835 1274Q1900 1243 1952 1194T2048 1073L2703 0H2028ZM1323 1610Q1441 1610 1536 1638T1697 1726T1799 1874T1835 2085Q1835 2193 1800 2274T1699 2409T1538 2491T1323 2519H942V1610H1323Z"  />
<glyph unicode="S" horiz-adv-x="2540" d="M205 582Q277 546 376 517T589 466T826 434T1069 422Q1232 422 1353 448T1555 526T1676 653T1716 827Q1716 882 1703 928T1662 1014T1586 1087T1472 1151T1314 1208T1106 1262Q968 1294 849 1336T631 1434T456 1560T328 1719T248 1916T221 2154Q221 2284 246 2399T326 2612T470 2787T685 2919T980 3002T1364 3031Q1490 3031 1611 3020T1839 2987T2036 2933T2191 2859V2384Q2117 2419 2021 2448T1815 2499T1591 2532T1364 2544Q1232 2544 1133 2518T968 2441T869 2319T836 2154Q836 2098 849 2052T891 1968T968 1898T1083 1838T1242 1784T1450 1733Q1595 1701 1717 1659T1938 1560T2110 1432T2235 1273T2310 1077T2335 840Q2335 709 2304 591T2209 372T2046 190T1812 52T1504 -35T1118 -66Q971 -66 835 -54T580 -20T367 34T205 106V582Z"  />
<glyph unicode="T" horiz-adv-x="2273" d="M848 0V2490H82V2966H2191V2490H1425V0H848Z"  />
<glyph unicode="U" horiz-adv-x="2941" d="M2044 2966H2621V1012Q2621 861 2603 722T2536 463T2406 246T2195 79T1889 -28T1470 -66Q1231 -66 1053 -28T746 79T536 245T405 463T338 721T319 1012V2966H897V1094Q897 903 929 775T1030 568T1208 456T1470 422Q1624 422 1733 455T1911 567T2012 774T2044 1094V2966Z"  />
<glyph unicode="V" horiz-adv-x="2740" d="M1069 0L33 2966H680L1266 1061Q1297 960 1326 858T1380 651Q1402 757 1429 858T1491 1061L2093 2966H2707L1671 0H1069Z"  />
<glyph unicode="W" horiz-adv-x="4321" d="M2724 0L2228 1892Q2220 1918 2212 1953T2195 2032T2177 2123T2159 2224Q2150 2172 2141 2124T2123 2032T2107 1954T2093 1892L1597 0H942L49 2966H664L1171 1053Q1180 1017 1191 967T1213 858T1235 732T1257 598Q1269 665 1282 731T1309 857T1335 967T1356 1053L1872 2966H2449L2966 1053Q2975 1017 2987 967T3012 858T3038 732T3064 598Q3073 665 3083 731T3105 857T3127 967T3150 1053L3658 2966H4272L3379 0H2724Z"  />
<glyph unicode="X" horiz-adv-x="2630" d="M1950 0L1397 942Q1383 965 1371 989T1347 1038T1324 1089T1303 1143Q1294 1115 1283 1089T1259 1038T1233 989T1208 942L655 0H8L975 1520L53 2966H725L1229 2109Q1241 2086 1253 2062T1277 2012T1299 1961T1319 1909Q1330 1935 1341 1961T1365 2012T1390 2061T1417 2109L1925 2966H2572L1651 1520L2621 0H1950Z"  />
<glyph unicode="Y" horiz-adv-x="2617" d="M1020 0V1126L16 2966H684L1122 2032Q1150 1972 1176 1915T1225 1804T1269 1698T1307 1597Q1324 1646 1344 1698T1388 1804T1439 1915T1495 2032L1933 2966H2601L1597 1126V0H1020Z"  />
<glyph unicode="Z" horiz-adv-x="2499" d="M156 0V442L1610 2490H205V2966H2281V2523L831 475H2343V0H156Z"  />
<glyph unicode="[" horiz-adv-x="1729" d="M532 -381V3105H1450V2798H1020V-74H1450V-381H532Z"  />
<glyph unicode="\" horiz-adv-x="2007" d="M1405 0L74 3105H598L1933 0H1405Z"  />
<glyph unicode="]" horiz-adv-x="1729" d="M279 -381V-74H709V2798H279V3105H1196V-381H279Z"  />
<glyph unicode="^" horiz-adv-x="1868" d="M1315 1794L934 2548L553 1794H74L631 2966H1241L1794 1794H1315Z"  />
<glyph unicode="_" horiz-adv-x="1761" d="M-41 -492V0H1802V-492H-41Z"  />
<glyph unicode="`" horiz-adv-x="1868" d="M1024 2408L418 3056H1065L1450 2408H1024Z"  />
<glyph unicode="a" horiz-adv-x="2286" d="M1483 0L1454 160Q1394 109 1326 68T1179 -3T1012 -49T823 -66Q676 -66 555 -21T346 106T212 304T164 561Q164 684 196 783T293 959T451 1091T668 1183T942 1236T1270 1253Q1304 1253 1333 1253T1387 1251T1434 1249V1294Q1434 1396 1410 1468T1333 1586T1197 1653T995 1675Q898 1675 807 1666T632 1640T470 1599T324 1544V1991Q390 2028 474 2059T655 2114T859 2150T1081 2163Q1302 2163 1472 2117T1759 1969T1935 1709T1995 1323V0H1483ZM1434 889H1389Q1224 889 1102 875T898 828T777 744T737 618Q737 566 754 520T808 440T901 385T1036 365Q1094 365 1148 373T1253 398T1348 435T1434 483V889Z"  />
<glyph unicode="b" horiz-adv-x="2556" d="M336 0V3105H897V1954Q946 2003 1006 2042T1139 2109T1297 2152T1483 2167Q1693 2167 1859 2093T2141 1878T2318 1529T2380 1057Q2380 797 2314 590T2123 236T1818 12T1409 -66Q1318 -66 1241 -53T1098 -14T973 52T860 143L823 0H336ZM897 512Q940 486 988 467T1089 435T1200 416T1323 410Q1449 410 1540 459T1690 593T1778 794T1806 1044Q1806 1178 1777 1296T1689 1502T1537 1641T1319 1692Q1254 1692 1197 1686T1087 1666T987 1633T897 1585V512Z"  />
<glyph unicode="c" horiz-adv-x="1913" d="M1782 57Q1723 30 1648 8T1485 -29T1302 -53T1106 -61Q879 -61 704 16T410 238T230 586T168 1044Q168 1223 195 1375T278 1652T415 1872T605 2032T849 2130T1147 2163Q1227 2163 1316 2155T1489 2133T1646 2098T1765 2052V1593Q1710 1613 1650 1628T1524 1654T1386 1670T1233 1675Q1107 1675 1015 1629T861 1502T771 1307T741 1061Q741 927 771 811T862 608T1017 472T1237 422Q1318 422 1392 427T1535 443T1664 469T1782 504V57Z"  />
<glyph unicode="d" horiz-adv-x="2548" d="M1733 0L1683 180Q1634 125 1574 80T1438 2T1273 -48T1073 -66Q863 -66 695 11T410 232T231 581T168 1044Q168 1313 232 1522T420 1874T722 2092T1130 2167Q1208 2167 1279 2158T1414 2130T1538 2083T1651 2015V3105H2212V0H1733ZM1651 1585Q1606 1613 1557 1633T1452 1666T1339 1685T1217 1692Q1091 1692 1001 1643T853 1508T768 1306T741 1057Q741 923 771 805T862 600T1017 461T1237 410Q1300 410 1357 416T1465 434T1563 466T1651 512V1585Z"  />
<glyph unicode="e" horiz-adv-x="2224" d="M1950 86Q1878 52 1799 25T1629 -21T1433 -50T1204 -61Q1032 -61 888 -27T629 74T426 236T281 454T194 724T164 1040Q164 1193 186 1336T255 1604T378 1832T558 2010T802 2126T1114 2167Q1293 2167 1433 2125T1680 2008T1860 1831T1980 1608T2047 1355T2068 1085Q2068 1067 2067 1041T2065 987T2061 933T2056 889H725Q732 783 766 697T865 549T1030 455T1270 422Q1364 422 1456 429T1636 450T1802 484T1950 528V86ZM1507 1286Q1499 1389 1472 1471T1395 1610T1276 1698T1114 1729Q1022 1729 953 1699T837 1611T764 1471T729 1286H1507Z"  />
<glyph unicode="f" horiz-adv-x="1638" d="M426 0V1634H82V2101H426V2347Q426 2546 483 2697T648 2950T912 3102T1266 3154Q1332 3154 1394 3150T1513 3138T1617 3120T1704 3097V2662Q1676 2668 1640 2674T1561 2684T1471 2692T1372 2695Q1277 2695 1206 2674T1087 2606T1015 2486T991 2310V2101H1622V1634H991V0H426Z"  />
<glyph unicode="g" horiz-adv-x="2556" d="M1659 143Q1610 95 1551 57T1421 -9T1266 -51T1081 -66Q871 -66 703 11T418 232T239 581T176 1044Q176 1313 240 1522T428 1874T731 2092T1139 2167Q1228 2167 1306 2155T1452 2118T1581 2056T1696 1970L1733 2101H2220V57Q2220 -210 2146 -406T1932 -730T1588 -920T1126 -983Q998 -983 886 -973T675 -942T493 -893T340 -827V-369Q406 -396 487 -420T660 -462T854 -490T1061 -500Q1211 -500 1323 -473T1510 -382T1622 -217T1659 37V143ZM1659 1585Q1614 1613 1565 1633T1461 1666T1347 1685T1225 1692Q1099 1692 1009 1643T862 1508T777 1306T750 1057Q750 923 780 805T871 600T1026 461T1245 410Q1308 410 1365 416T1473 434T1571 466T1659 512V1585Z"  />
<glyph unicode="h" horiz-adv-x="2568" d="M1720 0V1303Q1720 1400 1696 1470T1623 1587T1502 1656T1335 1679Q1270 1679 1211 1672T1096 1650T992 1614T897 1565V0H336V3105H897V1958Q958 2010 1026 2049T1172 2114T1336 2154T1524 2167Q1657 2167 1765 2142T1957 2068T2102 1950T2203 1792T2262 1600T2281 1376V0H1720Z"  />
<glyph unicode="i" horiz-adv-x="1233" d="M336 0V2101H897V0H336ZM336 2417V2966H897V2417H336Z"  />
<glyph unicode="j" horiz-adv-x="1233" d="M-274 -471Q-243 -477 -202 -482T-102 -487Q-2 -487 79 -456T217 -357T305 -180T336 82V2101H897V86Q897 -187 830 -384T640 -709T342 -897T-45 -958Q-74 -958 -106 -955T-170 -948T-228 -937T-274 -922V-471ZM336 2417V2966H897V2417H336Z"  />
<glyph unicode="k" horiz-adv-x="2363" d="M1647 0L897 950V0H336V3105H897V1253L1630 2101H2298L1622 1319Q1596 1290 1569 1263T1512 1211T1454 1163T1393 1118Q1425 1095 1456 1069T1516 1013T1575 951T1634 885L2343 0H1647Z"  />
<glyph unicode="l" horiz-adv-x="1360" d="M1229 16Q1194 4 1153 -5T1064 -20T963 -30T852 -33Q717 -33 619 4T457 112T363 285T332 516V3105H893V590Q893 550 901 523T928 478T975 454T1044 446Q1091 446 1136 450T1229 463V16Z"  />
<glyph unicode="m" horiz-adv-x="3953" d="M3105 0V1303Q3105 1400 3081 1470T3008 1587T2887 1656T2720 1679Q2655 1679 2596 1672T2481 1650T2376 1614T2281 1565Q2281 1503 2281 1442T2281 1319V0H1720V1303Q1720 1400 1696 1470T1623 1587T1502 1656T1335 1679Q1270 1679 1211 1672T1096 1650T992 1614T897 1565V0H336V2101H823L868 1929Q932 1987 1003 2031T1154 2106T1326 2151T1524 2167Q1639 2167 1735 2148T1910 2091T2049 1999T2154 1876Q2223 1945 2305 1999T2482 2090T2683 2147T2908 2167Q3041 2167 3149 2142T3341 2068T3487 1950T3588 1792T3647 1600T3666 1376V0H3105Z"  />
<glyph unicode="n" horiz-adv-x="2568" d="M1720 0V1303Q1720 1400 1696 1470T1623 1587T1502 1656T1335 1679Q1270 1679 1211 1672T1096 1650T992 1614T897 1565V0H336V2101H823L868 1929Q932 1987 1003 2031T1154 2106T1326 2151T1524 2167Q1657 2167 1765 2142T1957 2068T2102 1950T2203 1792T2262 1600T2281 1376V0H1720Z"  />
<glyph unicode="o" horiz-adv-x="2433" d="M1217 -66Q1029 -66 878 -29T610 79T410 248T273 472T194 741T168 1049Q168 1212 194 1358T276 1628T417 1852T618 2022T884 2129T1217 2167Q1405 2167 1556 2130T1823 2022T2023 1853T2160 1630T2239 1361T2265 1053Q2265 890 2239 744T2157 473T2016 249T1815 79T1549 -28T1217 -66ZM1217 389Q1349 389 1439 441T1584 584T1664 795T1688 1053Q1688 1189 1664 1309T1585 1519T1439 1660T1217 1712Q1085 1712 995 1660T849 1517T769 1306T745 1049Q745 912 769 792T848 583T994 441T1217 389Z"  />
<glyph unicode="p" horiz-adv-x="2552" d="M336 -934V2101H823L868 1925Q917 1980 979 2025T1117 2101T1284 2150T1483 2167Q1693 2167 1859 2093T2141 1878T2318 1529T2380 1057Q2380 797 2314 590T2123 236T1818 12T1409 -66Q1331 -66 1261 -57T1127 -29T1006 17T897 82V-934H336ZM897 512Q940 486 988 467T1089 435T1200 416T1323 410Q1449 410 1540 459T1690 593T1778 794T1806 1044Q1806 1178 1777 1296T1689 1502T1537 1641T1319 1692Q1254 1692 1197 1686T1087 1666T987 1633T897 1585V512Z"  />
<glyph unicode="q" horiz-adv-x="2556" d="M1659 -934V143Q1610 95 1551 57T1421 -9T1266 -51T1081 -66Q871 -66 703 11T418 232T239 581T176 1044Q176 1313 240 1522T428 1874T731 2092T1139 2167Q1228 2167 1306 2155T1452 2118T1581 2056T1696 1970L1733 2101H2220V-934H1659ZM1659 1585Q1614 1613 1565 1633T1461 1666T1347 1685T1225 1692Q1099 1692 1009 1643T862 1508T777 1306T750 1057Q750 923 780 805T871 600T1026 461T1245 410Q1308 410 1365 416T1473 434T1571 466T1659 512V1585Z"  />
<glyph unicode="r" horiz-adv-x="1667" d="M336 0V2101H864L885 1839Q931 1910 987 1969T1111 2072T1258 2139T1430 2163Q1473 2163 1520 2157T1602 2138V1602Q1559 1611 1528 1616T1467 1625T1406 1629T1331 1630Q1285 1630 1243 1625T1161 1609T1085 1585T1016 1552T954 1511T897 1462V0H336Z"  />
<glyph unicode="s" horiz-adv-x="1991" d="M188 524Q224 508 273 493T380 464T501 439T629 419T757 406T877 401Q970 401 1044 411T1169 445T1247 505T1274 594Q1274 648 1251 684T1179 748T1051 799T864 848Q690 889 566 945T363 1081T246 1268T209 1516Q209 1660 259 1779T417 1984T692 2116T1094 2163Q1155 2163 1219 2159T1347 2145T1471 2124T1584 2096T1680 2062T1753 2023V1573Q1716 1590 1668 1606T1563 1636T1447 1662T1325 1682T1205 1695T1094 1700Q1026 1700 970 1690T872 1657T809 1600T786 1516Q786 1462 809 1427T881 1365T1007 1318T1192 1270Q1364 1228 1488 1172T1693 1037T1812 852T1851 602Q1851 459 1791 338T1613 128T1319 -11T913 -61Q807 -61 699 -51T493 -22T316 21T188 74V524Z"  />
<glyph unicode="t" horiz-adv-x="1757" d="M1659 25Q1600 3 1540 -13T1417 -39T1288 -55T1151 -61Q933 -61 791 -10T566 139T451 377T418 696V1634H90V2101H418V2753H979V2101H1667V1634H979V733Q979 653 991 595T1039 500T1135 444T1294 426Q1342 426 1388 428T1479 435T1569 447T1659 463V25Z"  />
<glyph unicode="u" horiz-adv-x="2531" d="M1708 0L1663 168Q1601 111 1534 68T1391 -6T1229 -51T1044 -66Q911 -66 803 -41T611 33T466 151T365 309T306 501T287 725V2101H848V799Q848 702 872 631T945 512T1066 441T1233 418Q1290 418 1343 425T1447 447T1544 481T1634 528V2101H2195V0H1708Z"  />
<glyph unicode="v" horiz-adv-x="2150" d="M778 0L16 2101H627L1008 856Q1026 791 1046 709T1081 537Q1100 626 1121 708T1163 856L1565 2101H2134L1384 0H778Z"  />
<glyph unicode="w" horiz-adv-x="3346" d="M2060 0L1745 1114Q1720 1192 1702 1270T1671 1430Q1656 1352 1638 1272T1597 1114L1278 0H717L33 2101H618L934 950Q952 882 970 797T1004 623Q1022 712 1041 797T1081 950L1409 2101H1937L2257 950Q2275 876 2295 790T2335 610Q2350 703 2368 791T2408 950L2732 2101H3314L2626 0H2060Z"  />
<glyph unicode="x" horiz-adv-x="2183" d="M1511 0L1085 692L655 0H20L774 1065L41 2101H696L1102 1450L1511 2101H2146L1405 1069L2163 0H1511Z"  />
<glyph unicode="y" horiz-adv-x="2150" d="M0 -471Q46 -480 92 -483T188 -487Q262 -487 326 -480T446 -455T550 -406T640 -326T718 -211T786 -53L795 -33L16 2101H627L1008 860Q1026 795 1046 711T1081 537Q1100 626 1121 710T1163 860L1565 2101H2134L1380 -20Q1319 -191 1251 -327T1104 -567T933 -746T732 -867T494 -936T213 -958Q185 -958 156 -956T98 -950T44 -941T0 -930V-471Z"  />
<glyph unicode="z" horiz-adv-x="2105" d="M180 0V344L1184 1634H205V2101H1925V1757L918 467H1966V0H180Z"  />
<glyph unicode="{" horiz-adv-x="1860" d="M1335 -381Q1224 -381 1132 -369T965 -329T834 -256T740 -146T683 6T664 205V868Q664 959 646 1023T590 1129T492 1189T352 1208H246V1520H352Q433 1520 492 1539T589 1599T646 1704T664 1860V2519Q664 2631 683 2717T739 2869T833 2980T964 3052T1131 3092T1335 3105H1581V2798H1430Q1348 2798 1295 2775T1209 2705T1164 2589T1151 2429V1860Q1151 1760 1133 1682T1080 1543T994 1439T877 1364Q943 1335 994 1292T1080 1188T1133 1049T1151 872V295Q1151 204 1164 135T1209 20T1294 -50T1430 -74H1581V-381H1335Z"  />
<glyph unicode="|" horiz-adv-x="1458" d="M508 -934V3105H950V-934H508Z"  />
<glyph unicode="}" horiz-adv-x="1860" d="M279 -381V-74H430Q511 -74 565 -51T651 19T696 135T709 295V872Q709 971 726 1049T778 1187T862 1291T979 1364Q913 1395 863 1438T778 1542T727 1681T709 1860V2429Q709 2520 696 2589T651 2704T565 2774T430 2798H279V3105H524Q690 3105 816 3077T1026 2980T1153 2800T1196 2519V1860Q1196 1769 1214 1705T1270 1599T1367 1539T1507 1520H1614V1208H1507Q1426 1208 1367 1189T1270 1129T1214 1024T1196 868V205Q1196 37 1154 -75T1027 -256T816 -352T524 -381H279Z"  />
<glyph unicode="~" horiz-adv-x="2171" d="M1999 1565Q1999 1407 1953 1280T1829 1063T1647 925T1425 877Q1348 877 1284 891T1163 926T1058 971T961 1016T867 1051T770 1065Q725 1065 689 1052T627 1016T585 960T569 889H172Q172 994 192 1086T249 1254T338 1391T452 1492T587 1555T737 1577Q814 1577 879 1563T1001 1528T1109 1483T1208 1438T1303 1403T1401 1389Q1446 1389 1483 1401T1546 1435T1587 1490T1602 1565H1999Z"  />
<glyph unicode="&#xA0;" horiz-adv-x="1049" />
<glyph unicode="&#xA1;" horiz-adv-x="1446" d="M418 -864V-94Q418 -22 422 60T434 227T452 398T472 560T491 704T508 819L565 1208H881L942 823Q950 774 959 707T979 562T997 399T1013 228T1024 60T1028 -94V-864H418ZM401 1495V2101H1044V1495H401Z"  />
<glyph unicode="&#xA2;" horiz-adv-x="2716" d="M1233 -131V332Q995 361 819 453T526 693T353 1042T295 1491Q295 1718 353 1911T527 2251T820 2495T1233 2626V3097H1683V2638Q1774 2632 1856 2620T2013 2591T2153 2553T2273 2507V2048Q2204 2076 2126 2098T1958 2137T1764 2162T1540 2171Q1385 2171 1259 2130T1045 2004T908 1791T860 1491Q860 1368 882 1269T946 1092T1049 959T1188 866T1359 813T1561 795Q1685 795 1785 802T1972 823T2139 858T2306 909V451Q2238 426 2170 406T2027 369T1868 342T1683 324V-131H1233Z"  />
<glyph unicode="&#xA3;" horiz-adv-x="2716" d="M319 0V418H393Q484 418 551 450T662 540T728 677T750 848V1257H393V1683H750V2183Q750 2316 778 2431T862 2640T997 2807T1179 2929T1405 3005T1671 3031Q1752 3031 1829 3023T1974 3001T2097 2972T2191 2941V2499Q2160 2509 2114 2520T2014 2542T1899 2558T1778 2564Q1667 2564 1583 2536T1442 2454T1356 2321T1327 2138V1683H2134V1257H1327V823Q1327 765 1318 711T1291 611T1245 528T1180 467H2458V0H319Z"  />
<glyph unicode="&#xA4;" horiz-adv-x="2716" d="M1835 700Q1730 642 1610 610T1356 578Q1223 578 1102 610T872 700L610 418L274 754L553 1012Q491 1117 459 1238T426 1499Q426 1638 458 1759T553 1982L274 2245L610 2580L872 2294Q981 2356 1102 2388T1356 2421Q1489 2421 1609 2389T1835 2294L2101 2580L2437 2245L2154 1982Q2216 1880 2251 1759T2286 1499Q2286 1360 2251 1239T2154 1012L2437 754L2101 418L1835 700ZM1356 1016Q1457 1016 1542 1053T1690 1156T1788 1309T1823 1499Q1823 1600 1788 1688T1691 1841T1543 1944T1356 1982Q1254 1982 1169 1945T1021 1842T924 1688T889 1499Q889 1398 924 1310T1021 1156T1168 1054T1356 1016Z"  />
<glyph unicode="&#xA5;" horiz-adv-x="2716" d="M1647 578V0H1069V578H233V971H1069V1122L954 1331H233V1724H741L66 2966H733L1171 2032Q1227 1911 1274 1804T1356 1597Q1390 1697 1437 1804T1544 2032L1982 2966H2650L1974 1724H2470V1331H1757L1647 1122V971H2470V578H1647Z"  />
<glyph unicode="&#xA6;" horiz-adv-x="1458" d="M508 -381V893H950V-381H508ZM508 1831V3105H950V1831H508Z"  />
<glyph unicode="&#xA7;" horiz-adv-x="2716" d="M1516 2568Q1402 2568 1322 2551T1191 2504T1117 2430T1094 2335Q1094 2286 1117 2248T1183 2181T1283 2128T1413 2085L1884 1954Q2016 1915 2128 1862T2321 1735T2448 1567T2494 1348Q2494 1254 2461 1168T2371 1007T2235 874T2068 778Q2143 701 2187 607T2232 397Q2232 277 2197 178T2096 -1T1939 -140T1734 -239T1488 -299T1212 -319Q1094 -319 974 -308T744 -276T544 -230T393 -172V279Q470 251 558 227T744 184T947 154T1163 143Q1286 143 1373 160T1517 208T1600 282T1626 377Q1626 426 1600 463T1529 529T1423 580T1290 623L819 758Q687 796 578 849T390 976T269 1145T225 1364Q225 1456 258 1542T349 1703T484 1836T651 1929Q577 2007 532 2103T487 2314Q487 2434 521 2533T618 2712T769 2852T966 2951T1201 3011T1466 3031Q1575 3031 1690 3021T1912 2993T2105 2949T2245 2892V2441Q2090 2497 1905 2532T1516 2568ZM1581 1053Q1640 1034 1695 1012T1806 963Q1837 987 1863 1017T1908 1083T1939 1158T1950 1241Q1950 1296 1934 1336T1885 1405T1805 1455T1696 1495L1143 1659Q1084 1674 1025 1697T909 1749Q847 1699 809 1627T770 1470Q770 1415 787 1376T837 1307T918 1257T1028 1217L1581 1053Z"  />
<glyph unicode="&#xA8;" horiz-adv-x="1868" d="M258 2482V2982H795V2482H258ZM1073 2482V2982H1610V2482H1073Z"  />
<glyph unicode="&#xA9;" horiz-adv-x="3564" d="M2363 733Q2303 709 2247 689T2125 656T1979 635T1790 627Q1654 627 1543 656T1345 741T1195 874T1090 1049T1028 1259T1008 1499Q1008 1621 1031 1731T1101 1934T1216 2104T1376 2233T1580 2314T1827 2343Q1914 2343 1986 2336T2121 2314T2238 2279T2343 2232V1880Q2294 1901 2243 1918T2133 1946T2005 1964T1851 1970Q1761 1970 1690 1937T1569 1843T1493 1694T1466 1499Q1466 1362 1488 1267T1557 1113T1680 1026T1864 999Q1950 999 2016 1004T2140 1021T2250 1051T2363 1094V733ZM1782 3031Q2021 3031 2227 2978T2604 2827T2905 2590T3127 2279T3263 1906T3310 1483Q3310 1261 3264 1060T3127 686T2906 375T2604 138T2228 -13T1782 -66Q1542 -66 1336 -13T960 138T659 375T437 686T301 1059T254 1483Q254 1705 300 1906T437 2279T658 2590T959 2827T1335 2978T1782 3031ZM1782 2703Q1592 2703 1436 2663T1154 2548T936 2365T782 2122T690 1825T659 1483Q659 1302 689 1141T781 845T936 601T1154 418T1435 302T1782 262Q1971 262 2128 302T2409 417T2627 601T2781 844T2873 1141T2904 1483Q2904 1664 2874 1825T2782 2121T2627 2365T2410 2548T2128 2663T1782 2703Z"  />
<glyph unicode="&#xAA;" horiz-adv-x="2068" d="M1348 1212L1319 1360Q1267 1317 1208 1282T1083 1223T940 1185T778 1171Q649 1171 544 1208T363 1314T246 1479T205 1692Q205 1794 233 1875T317 2019T453 2126T641 2198T876 2240T1159 2253Q1190 2253 1229 2251T1307 2249V2265Q1307 2342 1286 2400T1217 2497T1096 2556T918 2576Q833 2576 755 2570T604 2550T466 2518T340 2474V2851Q398 2882 471 2907T627 2951T802 2980T991 2990Q1180 2990 1326 2952T1571 2831T1722 2616T1774 2294V1212H1348ZM180 340V791H1815V340H180ZM1307 1942H1257Q1111 1942 1002 1931T821 1895T712 1830T676 1729Q676 1684 693 1648T744 1586T829 1546T950 1532Q1002 1532 1050 1539T1143 1560T1229 1592T1307 1634V1942Z"  />
<glyph unicode="&#xAB;" horiz-adv-x="2671" d="M950 467L254 1229L950 1991H1434L872 1229L1434 467H950ZM1933 467L1237 1229L1933 1991H2417L1855 1229L2417 467H1933Z"  />
<glyph unicode="&#xAC;" horiz-adv-x="2458" d="M1819 401V975H123V1466H2335V401H1819Z"  />
<glyph unicode="&#xAD;" horiz-adv-x="1511" d="M201 946V1499H1311V946H201Z"  />
<glyph unicode="&#xAE;" horiz-adv-x="2761" d="M2527 2015Q2527 1845 2486 1695T2370 1418T2190 1191T1958 1021T1684 914T1380 877Q1223 877 1077 914T803 1021T570 1191T390 1417T274 1694T233 2015Q233 2185 274 2335T390 2612T570 2839T802 3010T1076 3117T1380 3154Q1538 3154 1684 3117T1957 3010T2190 2840T2370 2613T2486 2336T2527 2015ZM1380 1126Q1506 1126 1619 1157T1827 1244T1999 1381T2129 1560T2212 1774T2241 2015Q2241 2141 2212 2256T2130 2469T2000 2648T1828 2785T1619 2873T1380 2904Q1254 2904 1142 2873T934 2786T762 2649T632 2470T549 2256T520 2015Q520 1889 549 1774T631 1561T761 1382T933 1245T1141 1157T1380 1126ZM1651 1438L1413 1810Q1398 1835 1384 1849T1355 1871T1323 1881T1282 1884H1196V1438H913V2621H1397Q1498 2621 1583 2600T1729 2536T1825 2426T1860 2269Q1860 2201 1844 2149T1796 2058T1720 1992T1618 1946Q1646 1930 1662 1909T1688 1876L1970 1438H1651ZM1352 2101Q1404 2101 1445 2110T1514 2140T1558 2192T1573 2269Q1573 2336 1522 2370T1360 2404H1196V2101H1352Z"  />
<glyph unicode="&#xAF;" horiz-adv-x="1868" d="M307 2503V2929H1561V2503H307Z"  />
<glyph unicode="&#xB0;" horiz-adv-x="2064" d="M1827 2232Q1827 2124 1800 2027T1721 1845T1599 1693T1439 1576T1248 1501T1032 1475Q920 1475 817 1501T626 1575T467 1692T344 1845T266 2026T238 2232Q238 2339 265 2436T344 2618T466 2770T626 2888T816 2963T1032 2990Q1145 2990 1247 2964T1438 2888T1598 2771T1721 2618T1799 2436T1827 2232ZM1032 1868Q1118 1868 1185 1897T1299 1976T1369 2092T1393 2232Q1393 2303 1369 2369T1299 2485T1186 2566T1032 2597Q946 2597 879 2567T766 2486T696 2369T672 2232Q672 2158 696 2092T766 1977T879 1898T1032 1868Z"  />
<glyph unicode="&#xB1;" horiz-adv-x="2458" d="M1487 1389V762H971V1389H164V1880H971V2490H1487V1880H2294V1389H1487ZM164 0V492H2294V0H164Z"  />
<glyph unicode="&#xB2;" horiz-adv-x="1794" d="M197 1503V1806L487 1995Q639 2093 747 2173T924 2323T1025 2458T1057 2593Q1057 2636 1039 2672T981 2736T881 2778T733 2793Q658 2793 588 2784T454 2758T333 2721T225 2675V2986Q262 3007 318 3032T446 3078T603 3114T786 3129Q917 3129 1021 3109T1204 3052T1339 2967T1430 2860T1482 2739T1499 2613Q1499 2535 1475 2461T1408 2317T1306 2182T1177 2056T1027 1942T864 1839H864H1589V1503H197Z"  />
<glyph unicode="&#xB3;" horiz-adv-x="1794" d="M270 1900Q321 1879 385 1862T520 1834T662 1816T803 1810Q886 1810 950 1822T1058 1856T1124 1910T1147 1982Q1147 2025 1125 2062T1057 2127T940 2171T770 2187H545V2482H770Q834 2482 898 2490T1014 2516T1098 2563T1130 2634Q1130 2689 1102 2721T1029 2771T927 2793T811 2798Q739 2798 670 2791T536 2771T414 2741T307 2703V3015Q356 3038 415 3058T542 3095T688 3120T852 3129Q1026 3129 1160 3095T1386 3001T1525 2863T1573 2695Q1573 2621 1553 2563T1497 2460T1409 2382T1294 2326Q1365 2302 1419 2269T1510 2190T1566 2086T1585 1950Q1585 1839 1533 1752T1385 1604T1153 1511T848 1479Q751 1479 665 1486T504 1507T371 1539T270 1581V1900Z"  />
<glyph unicode="&#xB4;" horiz-adv-x="1868" d="M418 2408L803 3056H1450L844 2408H418Z"  />
<glyph unicode="&#xB5;" horiz-adv-x="2621" d="M1094 -49Q970 -49 860 -12Q882 -104 889 -212T897 -463V-934H336V2101H897V807Q897 613 994 524T1282 434Q1397 434 1497 457T1683 532V2101H2245V590Q2245 510 2274 478T2372 446Q2418 446 2456 449T2531 459V12Q2460 -12 2374 -22T2179 -33Q2015 -33 1908 26T1745 201Q1680 141 1610 95T1459 16T1289 -32T1094 -49Z"  />
<glyph unicode="&#xB6;" horiz-adv-x="3170" d="M2208 -934V2568H1843V-934H1389V1270H1384Q1186 1270 1029 1300T751 1384T546 1515T407 1686T328 1890T303 2118Q303 2237 327 2346T406 2549T545 2720T750 2851T1029 2936T1389 2966H2662V-934H2208Z"  />
<glyph unicode="&#xB7;" horiz-adv-x="1536" d="M447 922V1528H1090V922H447Z"  />
<glyph unicode="&#xB8;" horiz-adv-x="1868" d="M586 -586Q626 -595 668 -600T766 -606Q803 -606 838 -599T901 -577T946 -537T963 -479Q963 -442 938 -413T871 -361T776 -326T668 -307L872 41H1163L1049 -197Q1110 -203 1165 -228T1263 -295T1331 -389T1356 -504Q1356 -598 1314 -668T1200 -784T1029 -854T819 -877Q751 -877 693 -869T586 -848V-586Z"  />
<glyph unicode="&#xB9;" horiz-adv-x="1794" d="M283 1503V1839H688V2728L283 2638V2990L836 3105H1114V1839H1520V1503H283Z"  />
<glyph unicode="&#xBA;" horiz-adv-x="2228" d="M1114 1171Q954 1171 826 1201T597 1287T424 1423T305 1605T236 1826T213 2081Q213 2283 267 2450T432 2738T712 2924T1114 2990Q1273 2990 1401 2960T1630 2875T1802 2739T1922 2558T1992 2338T2015 2085Q2015 1949 1991 1828T1919 1606T1797 1424T1623 1287T1396 1201T1114 1171ZM1114 1565Q1231 1565 1310 1605T1439 1716T1510 1881T1532 2085Q1532 2194 1511 2288T1440 2452T1311 2561T1114 2601Q997 2601 918 2561T789 2450T718 2285T696 2081Q696 1972 717 1878T788 1714T917 1605T1114 1565ZM188 340V791H2040V340H188Z"  />
<glyph unicode="&#xBB;" horiz-adv-x="2671" d="M254 467L815 1229L254 1991H737L1434 1229L737 467H254ZM1237 467L1798 1229L1237 1991H1720L2417 1229L1720 467H1237Z"  />
<glyph unicode="&#xBC;" horiz-adv-x="4108" d="M971 0L2695 2966H3129L1409 0H971ZM283 1364V1700H688V2589L283 2499V2851L836 2966H1114V1700H1520V1364H283ZM3252 0V250H2420V496L3289 1602H3678V533H3973V250H3678V0H3252ZM3252 852Q3252 920 3255 978T3268 1086Q3234 1021 3188 949T3076 799L2863 533H3252V852Z"  />
<glyph unicode="&#xBD;" horiz-adv-x="4108" d="M283 1364V1700H688V2589L283 2499V2851L836 2966H1114V1700H1520V1364H283ZM971 0L2695 2966H3129L1409 0H971ZM2511 0V303L2801 492Q2953 590 3061 670T3238 820T3339 955T3371 1090Q3371 1133 3353 1169T3295 1233T3195 1275T3047 1290Q2972 1290 2902 1281T2768 1255T2647 1218T2539 1172V1483Q2576 1504 2632 1529T2760 1575T2917 1611T3100 1626Q3231 1626 3335 1606T3518 1549T3653 1464T3744 1357T3796 1236T3813 1110Q3813 1032 3789 958T3722 814T3620 679T3491 553T3341 439T3178 336H3178H3903V0H2511Z"  />
<glyph unicode="&#xBE;" horiz-adv-x="4108" d="M971 0L2695 2966H3129L1409 0H971ZM270 1761Q321 1740 385 1723T520 1695T662 1677T803 1671Q886 1671 950 1683T1058 1717T1124 1771T1147 1843Q1147 1886 1125 1923T1057 1988T940 2032T770 2048H545V2343H770Q834 2343 898 2351T1014 2377T1098 2424T1130 2495Q1130 2550 1102 2582T1029 2632T927 2654T811 2659Q739 2659 670 2652T536 2632T414 2602T307 2564V2876Q356 2899 415 2919T542 2956T688 2981T852 2990Q1026 2990 1160 2956T1386 2862T1525 2724T1573 2556Q1573 2482 1553 2424T1497 2321T1409 2243T1294 2187Q1365 2163 1419 2130T1510 2051T1566 1947T1585 1811Q1585 1700 1533 1613T1385 1465T1153 1372T848 1340Q751 1340 665 1347T504 1368T371 1400T270 1442V1761ZM3252 0V250H2420V496L3289 1602H3678V533H3973V250H3678V0H3252ZM3252 852Q3252 920 3255 978T3268 1086Q3234 1021 3188 949T3076 799L2863 533H3252V852Z"  />
<glyph unicode="&#xBF;" horiz-adv-x="2195" d="M2015 -733Q1950 -775 1865 -810T1679 -871T1467 -911T1241 -926Q1090 -926 955 -901T705 -829T500 -712T345 -556T247 -364T213 -139Q213 -19 242 85T322 282T442 456T591 609T760 747T938 872L1032 934L1073 1212H1552L1614 766L1307 561Q1190 483 1098 410T942 261T845 102T811 -82Q811 -169 845 -235T943 -347T1094 -415T1290 -438Q1385 -438 1484 -424T1679 -385T1860 -328T2015 -258V-733ZM979 1499V2105H1622V1499H979Z"  />
<glyph unicode="&#xC0;" horiz-adv-x="2822" d="M2171 0L1958 639H831L623 0H33L1102 2966H1720L2789 0H2171ZM1536 1917Q1493 2050 1458 2182T1397 2454Q1372 2314 1337 2182T1257 1917L987 1106H1802L1536 1917ZM1257 3162L651 3810H1298L1683 3162H1257Z"  />
<glyph unicode="&#xC1;" horiz-adv-x="2822" d="M2171 0L1958 639H831L623 0H33L1102 2966H1720L2789 0H2171ZM1536 1917Q1493 2050 1458 2182T1397 2454Q1372 2314 1337 2182T1257 1917L987 1106H1802L1536 1917ZM1118 3162L1503 3810H2150L1544 3162H1118Z"  />
<glyph unicode="&#xC2;" horiz-adv-x="2822" d="M2171 0L1958 639H831L623 0H33L1102 2966H1720L2789 0H2171ZM1536 1917Q1493 2050 1458 2182T1397 2454Q1372 2314 1337 2182T1257 1917L987 1106H1802L1536 1917ZM1684 3162L1401 3498L1122 3162H713L1147 3810H1659L2093 3162H1684Z"  />
<glyph unicode="&#xC3;" horiz-adv-x="2822" d="M2171 0L1958 639H831L623 0H33L1102 2966H1720L2789 0H2171ZM1536 1917Q1493 2050 1458 2182T1397 2454Q1372 2314 1337 2182T1257 1917L987 1106H1802L1536 1917ZM2175 3769Q2175 3629 2138 3519T2034 3333T1876 3216T1679 3175Q1618 3175 1565 3189T1465 3224T1376 3271T1295 3317T1218 3353T1143 3367Q1100 3367 1067 3355T1012 3320T977 3264T963 3187H627Q627 3327 663 3437T765 3623T919 3740T1114 3781Q1175 3781 1229 3767T1331 3731T1422 3685T1505 3638T1583 3603T1659 3588Q1702 3588 1735 3599T1792 3634T1827 3690T1839 3769H2175Z"  />
<glyph unicode="&#xC4;" horiz-adv-x="2822" d="M2171 0L1958 639H831L623 0H33L1102 2966H1720L2789 0H2171ZM1536 1917Q1493 2050 1458 2182T1397 2454Q1372 2314 1337 2182T1257 1917L987 1106H1802L1536 1917ZM725 3236V3736H1262V3236H725ZM1540 3236V3736H2077V3236H1540Z"  />
<glyph unicode="&#xC5;" horiz-adv-x="2822" d="M2171 0L1958 639H831L623 0H33L1102 2966H1720L2789 0H2171ZM1536 1917Q1493 2050 1458 2182T1397 2454Q1372 2314 1337 2182T1257 1917L987 1106H1802L1536 1917ZM1892 3547Q1892 3447 1855 3362T1751 3214T1595 3116T1401 3080Q1296 3080 1206 3115T1050 3213T947 3361T909 3547Q909 3647 946 3732T1050 3880T1206 3978T1401 4014Q1505 4014 1595 3979T1751 3881T1854 3733T1892 3547ZM1401 3342Q1446 3342 1483 3358T1546 3403T1587 3468T1602 3547Q1602 3587 1588 3623T1547 3687T1483 3731T1401 3748Q1356 3748 1319 3732T1254 3688T1212 3624T1196 3547Q1196 3505 1211 3468T1254 3403T1318 3359T1401 3342Z"  />
<glyph unicode="&#xC6;" horiz-adv-x="3932" d="M1823 0V639H872L623 0H33L1196 2966H3695V2490H2400V1757H3514V1282H2400V475H3711V0H1823ZM1823 2490H1597L1057 1106H1823V2490Z"  />
<glyph unicode="&#xC7;" horiz-adv-x="2544" d="M1081 -586Q1122 -595 1164 -600T1262 -606Q1299 -606 1334 -599T1396 -577T1441 -537T1458 -479Q1458 -442 1433 -413T1366 -361T1272 -326T1163 -307L1311 -57Q1126 -39 973 20T697 177T484 408T333 708T243 1072T213 1495Q213 1721 248 1923T356 2295T536 2602T788 2834T1115 2980T1516 3031Q1651 3031 1772 3019T1999 2983T2197 2926T2363 2851V2372Q2288 2409 2200 2438T2010 2488T1793 2520T1548 2531Q1423 2531 1321 2499T1137 2406T995 2254T894 2049T835 1795T815 1495Q815 1303 835 1149T897 877T1001 674T1148 535T1337 456T1569 430Q1704 430 1815 439T2025 467T2213 514T2396 582V102Q2342 78 2288 57T2175 18T2055 -13T1923 -37T1775 -53T1606 -61L1544 -197Q1605 -203 1661 -228T1759 -295T1826 -389T1851 -504Q1851 -598 1810 -668T1696 -784T1525 -854T1315 -877Q1247 -877 1189 -869T1081 -848V-586Z"  />
<glyph unicode="&#xC8;" horiz-adv-x="2478" d="M369 0V2966H2241V2490H946V1757H2060V1282H946V475H2257V0H369ZM1167 3162L561 3810H1208L1593 3162H1167Z"  />
<glyph unicode="&#xC9;" horiz-adv-x="2478" d="M369 0V2966H2241V2490H946V1757H2060V1282H946V475H2257V0H369ZM1028 3162L1413 3810H2060L1454 3162H1028Z"  />
<glyph unicode="&#xCA;" horiz-adv-x="2478" d="M369 0V2966H2241V2490H946V1757H2060V1282H946V475H2257V0H369ZM1594 3162L1311 3498L1032 3162H623L1057 3810H1569L2003 3162H1594Z"  />
<glyph unicode="&#xCB;" horiz-adv-x="2478" d="M369 0V2966H2241V2490H946V1757H2060V1282H946V475H2257V0H369ZM635 3236V3736H1172V3236H635ZM1450 3236V3736H1987V3236H1450Z"  />
<glyph unicode="&#xCC;" horiz-adv-x="1749" d="M246 0V459H586V2507H246V2966H1503V2507H1163V459H1503V0H246ZM730 3162L124 3810H771L1156 3162H730Z"  />
<glyph unicode="&#xCD;" horiz-adv-x="1749" d="M246 0V459H586V2507H246V2966H1503V2507H1163V459H1503V0H246ZM590 3162L975 3810H1622L1016 3162H590Z"  />
<glyph unicode="&#xCE;" horiz-adv-x="1749" d="M246 0V459H586V2507H246V2966H1503V2507H1163V459H1503V0H246ZM1157 3162L874 3498L595 3162H186L620 3810H1132L1566 3162H1157Z"  />
<glyph unicode="&#xCF;" horiz-adv-x="1749" d="M246 0V459H586V2507H246V2966H1503V2507H1163V459H1503V0H246ZM198 3236V3736H735V3236H198ZM1013 3236V3736H1550V3236H1013Z"  />
<glyph unicode="&#xD0;" horiz-adv-x="3047" d="M410 0V1217H156V1708H410V2966H1458Q1716 2966 1917 2915T2269 2770T2525 2543T2695 2245T2789 1888T2818 1483Q2818 1271 2787 1079T2688 722T2513 424T2255 196T1906 51T1458 0H410ZM1438 475Q1562 475 1668 502T1861 583T2015 721T2127 916T2196 1169T2220 1483Q2220 1655 2197 1796T2128 2050T2015 2244T1861 2381T1668 2463T1438 2490H987V1708H1556V1217H987V475H1438Z"  />
<glyph unicode="&#xD1;" horiz-adv-x="3142" d="M2187 0L1114 1712Q1061 1796 1003 1913T885 2163Q892 2097 899 2032T911 1908T919 1799T922 1712V0H369V2966H954L2028 1253Q2054 1212 2082 1161T2138 1051T2196 930T2253 803Q2245 867 2239 931T2229 1054T2222 1164T2220 1253V2966H2773V0H2187ZM2343 3769Q2343 3629 2306 3519T2202 3333T2044 3216T1847 3175Q1786 3175 1733 3189T1633 3224T1544 3271T1463 3317T1386 3353T1311 3367Q1268 3367 1235 3355T1180 3320T1145 3264T1131 3187H795Q795 3327 831 3437T933 3623T1087 3740T1282 3781Q1343 3781 1397 3767T1499 3731T1590 3685T1673 3638T1751 3603T1827 3588Q1870 3588 1903 3599T1960 3634T1995 3690T2007 3769H2343Z"  />
<glyph unicode="&#xD2;" horiz-adv-x="3056" d="M1528 -66Q1270 -66 1074 -10T733 147T492 390T337 704T254 1074T229 1483Q229 1695 256 1892T344 2261T503 2575T746 2818T1084 2975T1528 3031Q1786 3031 1982 2975T2323 2818T2564 2575T2719 2261T2801 1892T2826 1483Q2826 1271 2799 1074T2712 705T2552 391T2309 148T1971 -10T1528 -66ZM1528 422Q1652 422 1752 454T1929 548T2063 702T2156 911T2210 1172T2228 1483Q2228 1650 2211 1793T2157 2054T2064 2263T1930 2417T1752 2511T1528 2544Q1404 2544 1304 2512T1126 2417T992 2264T899 2055T845 1794T827 1483Q827 1316 844 1173T898 911T991 702T1126 549T1304 454T1528 422ZM1384 3162L778 3810H1425L1810 3162H1384Z"  />
<glyph unicode="&#xD3;" horiz-adv-x="3056" d="M1528 -66Q1270 -66 1074 -10T733 147T492 390T337 704T254 1074T229 1483Q229 1695 256 1892T344 2261T503 2575T746 2818T1084 2975T1528 3031Q1786 3031 1982 2975T2323 2818T2564 2575T2719 2261T2801 1892T2826 1483Q2826 1271 2799 1074T2712 705T2552 391T2309 148T1971 -10T1528 -66ZM1528 422Q1652 422 1752 454T1929 548T2063 702T2156 911T2210 1172T2228 1483Q2228 1650 2211 1793T2157 2054T2064 2263T1930 2417T1752 2511T1528 2544Q1404 2544 1304 2512T1126 2417T992 2264T899 2055T845 1794T827 1483Q827 1316 844 1173T898 911T991 702T1126 549T1304 454T1528 422ZM1245 3162L1630 3810H2277L1671 3162H1245Z"  />
<glyph unicode="&#xD4;" horiz-adv-x="3056" d="M1528 -66Q1270 -66 1074 -10T733 147T492 390T337 704T254 1074T229 1483Q229 1695 256 1892T344 2261T503 2575T746 2818T1084 2975T1528 3031Q1786 3031 1982 2975T2323 2818T2564 2575T2719 2261T2801 1892T2826 1483Q2826 1271 2799 1074T2712 705T2552 391T2309 148T1971 -10T1528 -66ZM1528 422Q1652 422 1752 454T1929 548T2063 702T2156 911T2210 1172T2228 1483Q2228 1650 2211 1793T2157 2054T2064 2263T1930 2417T1752 2511T1528 2544Q1404 2544 1304 2512T1126 2417T992 2264T899 2055T845 1794T827 1483Q827 1316 844 1173T898 911T991 702T1126 549T1304 454T1528 422ZM1811 3162L1528 3498L1249 3162H840L1274 3810H1786L2220 3162H1811Z"  />
<glyph unicode="&#xD5;" horiz-adv-x="3056" d="M1528 -66Q1270 -66 1074 -10T733 147T492 390T337 704T254 1074T229 1483Q229 1695 256 1892T344 2261T503 2575T746 2818T1084 2975T1528 3031Q1786 3031 1982 2975T2323 2818T2564 2575T2719 2261T2801 1892T2826 1483Q2826 1271 2799 1074T2712 705T2552 391T2309 148T1971 -10T1528 -66ZM1528 422Q1652 422 1752 454T1929 548T2063 702T2156 911T2210 1172T2228 1483Q2228 1650 2211 1793T2157 2054T2064 2263T1930 2417T1752 2511T1528 2544Q1404 2544 1304 2512T1126 2417T992 2264T899 2055T845 1794T827 1483Q827 1316 844 1173T898 911T991 702T1126 549T1304 454T1528 422ZM2302 3769Q2302 3629 2265 3519T2161 3333T2003 3216T1806 3175Q1745 3175 1692 3189T1592 3224T1503 3271T1422 3317T1345 3353T1270 3367Q1227 3367 1194 3355T1139 3320T1104 3264T1090 3187H754Q754 3327 790 3437T892 3623T1046 3740T1241 3781Q1302 3781 1356 3767T1458 3731T1549 3685T1632 3638T1710 3603T1786 3588Q1829 3588 1862 3599T1919 3634T1954 3690T1966 3769H2302Z"  />
<glyph unicode="&#xD6;" horiz-adv-x="3056" d="M1528 -66Q1270 -66 1074 -10T733 147T492 390T337 704T254 1074T229 1483Q229 1695 256 1892T344 2261T503 2575T746 2818T1084 2975T1528 3031Q1786 3031 1982 2975T2323 2818T2564 2575T2719 2261T2801 1892T2826 1483Q2826 1271 2799 1074T2712 705T2552 391T2309 148T1971 -10T1528 -66ZM1528 422Q1652 422 1752 454T1929 548T2063 702T2156 911T2210 1172T2228 1483Q2228 1650 2211 1793T2157 2054T2064 2263T1930 2417T1752 2511T1528 2544Q1404 2544 1304 2512T1126 2417T992 2264T899 2055T845 1794T827 1483Q827 1316 844 1173T898 911T991 702T1126 549T1304 454T1528 422ZM852 3236V3736H1389V3236H852ZM1667 3236V3736H2204V3236H1667Z"  />
<glyph unicode="&#xD7;" horiz-adv-x="2458" d="M1229 856L631 258L266 623L864 1221L266 1819L631 2183L1229 1585L1827 2183L2191 1819L1593 1221L2191 623L1827 258L1229 856Z"  />
<glyph unicode="&#xD8;" horiz-adv-x="3056" d="M205 -41L500 377Q425 483 373 608T289 873T243 1166T229 1483Q229 1695 256 1892T344 2261T503 2575T746 2818T1084 2975T1528 3031Q1770 3031 1959 2981T2290 2839L2413 3006H2859L2556 2580Q2631 2474 2683 2350T2766 2086T2812 1795T2826 1483Q2826 1271 2799 1074T2712 705T2552 391T2309 148T1971 -10T1528 -66Q1285 -66 1098 -16T770 123L655 -41H205ZM1942 2404Q1862 2471 1760 2507T1528 2544Q1404 2544 1304 2512T1126 2417T992 2264T899 2055T845 1794T827 1483Q827 1322 843 1183T893 930L1942 2404ZM1118 553Q1195 488 1297 455T1528 422Q1652 422 1752 454T1929 548T2063 702T2156 911T2210 1172T2228 1483Q2228 1641 2213 1777T2163 2028L1118 553Z"  />
<glyph unicode="&#xD9;" horiz-adv-x="2941" d="M2044 2966H2621V1012Q2621 861 2603 722T2536 463T2406 246T2195 79T1889 -28T1470 -66Q1231 -66 1053 -28T746 79T536 245T405 463T338 721T319 1012V2966H897V1094Q897 903 929 775T1030 568T1208 456T1470 422Q1624 422 1733 455T1911 567T2012 774T2044 1094V2966ZM1327 3162L721 3810H1368L1753 3162H1327Z"  />
<glyph unicode="&#xDA;" horiz-adv-x="2941" d="M2044 2966H2621V1012Q2621 861 2603 722T2536 463T2406 246T2195 79T1889 -28T1470 -66Q1231 -66 1053 -28T746 79T536 245T405 463T338 721T319 1012V2966H897V1094Q897 903 929 775T1030 568T1208 456T1470 422Q1624 422 1733 455T1911 567T2012 774T2044 1094V2966ZM1188 3162L1573 3810H2220L1614 3162H1188Z"  />
<glyph unicode="&#xDB;" horiz-adv-x="2941" d="M2044 2966H2621V1012Q2621 861 2603 722T2536 463T2406 246T2195 79T1889 -28T1470 -66Q1231 -66 1053 -28T746 79T536 245T405 463T338 721T319 1012V2966H897V1094Q897 903 929 775T1030 568T1208 456T1470 422Q1624 422 1733 455T1911 567T2012 774T2044 1094V2966ZM1754 3162L1471 3498L1192 3162H783L1217 3810H1729L2163 3162H1754Z"  />
<glyph unicode="&#xDC;" horiz-adv-x="2941" d="M2044 2966H2621V1012Q2621 861 2603 722T2536 463T2406 246T2195 79T1889 -28T1470 -66Q1231 -66 1053 -28T746 79T536 245T405 463T338 721T319 1012V2966H897V1094Q897 903 929 775T1030 568T1208 456T1470 422Q1624 422 1733 455T1911 567T2012 774T2044 1094V2966ZM795 3236V3736H1332V3236H795ZM1610 3236V3736H2147V3236H1610Z"  />
<glyph unicode="&#xDD;" horiz-adv-x="2617" d="M1020 0V1126L16 2966H684L1122 2032Q1150 1972 1176 1915T1225 1804T1269 1698T1307 1597Q1324 1646 1344 1698T1388 1804T1439 1915T1495 2032L1933 2966H2601L1597 1126V0H1020ZM1032 3162L1417 3810H2064L1458 3162H1032Z"  />
<glyph unicode="&#xDE;" horiz-adv-x="2556" d="M369 0V2966H942V2515H1401Q1575 2515 1718 2487T1976 2403T2174 2266T2314 2077T2397 1839T2425 1552Q2425 1320 2361 1138T2164 831T1831 639T1356 573H942V0H369ZM1298 1024Q1441 1024 1542 1061T1709 1168T1804 1334T1835 1552Q1835 1670 1806 1765T1716 1928T1564 2032T1348 2068H942V1024H1298Z"  />
<glyph unicode="&#xDF;" horiz-adv-x="2662" d="M1679 -61Q1584 -61 1504 -52T1357 -27T1232 13T1126 66V520Q1244 461 1383 429T1671 397Q1763 397 1827 420T1931 484T1989 580T2007 700Q2007 763 1992 820T1937 931T1833 1035T1667 1135L1126 1401V1782L1356 1876Q1473 1924 1551 1979T1677 2095T1745 2220T1765 2351Q1765 2411 1744 2473T1675 2585T1550 2667T1360 2699Q1251 2699 1165 2668T1020 2571T929 2402T897 2154V0H336V2208Q336 2368 373 2500T478 2737T640 2920T849 3051T1095 3128T1368 3154Q1597 3154 1776 3092T2078 2922T2266 2672T2331 2367Q2331 2236 2290 2125T2179 1923T2016 1766T1819 1655L1675 1597L1847 1524Q2019 1450 2154 1372T2382 1198T2523 983T2572 709Q2572 554 2519 414T2355 169T2076 1T1679 -61Z"  />
<glyph unicode="&#xE0;" horiz-adv-x="2286" d="M1483 0L1454 160Q1394 109 1326 68T1179 -3T1012 -49T823 -66Q676 -66 555 -21T346 106T212 304T164 561Q164 684 196 783T293 959T451 1091T668 1183T942 1236T1270 1253Q1304 1253 1333 1253T1387 1251T1434 1249V1294Q1434 1396 1410 1468T1333 1586T1197 1653T995 1675Q898 1675 807 1666T632 1640T470 1599T324 1544V1991Q390 2028 474 2059T655 2114T859 2150T1081 2163Q1302 2163 1472 2117T1759 1969T1935 1709T1995 1323V0H1483ZM1434 889H1389Q1224 889 1102 875T898 828T777 744T737 618Q737 566 754 520T808 440T901 385T1036 365Q1094 365 1148 373T1253 398T1348 435T1434 483V889ZM988 2408L382 3056H1029L1414 2408H988Z"  />
<glyph unicode="&#xE1;" horiz-adv-x="2286" d="M1483 0L1454 160Q1394 109 1326 68T1179 -3T1012 -49T823 -66Q676 -66 555 -21T346 106T212 304T164 561Q164 684 196 783T293 959T451 1091T668 1183T942 1236T1270 1253Q1304 1253 1333 1253T1387 1251T1434 1249V1294Q1434 1396 1410 1468T1333 1586T1197 1653T995 1675Q898 1675 807 1666T632 1640T470 1599T324 1544V1991Q390 2028 474 2059T655 2114T859 2150T1081 2163Q1302 2163 1472 2117T1759 1969T1935 1709T1995 1323V0H1483ZM1434 889H1389Q1224 889 1102 875T898 828T777 744T737 618Q737 566 754 520T808 440T901 385T1036 365Q1094 365 1148 373T1253 398T1348 435T1434 483V889ZM848 2408L1233 3056H1880L1274 2408H848Z"  />
<glyph unicode="&#xE2;" horiz-adv-x="2286" d="M1483 0L1454 160Q1394 109 1326 68T1179 -3T1012 -49T823 -66Q676 -66 555 -21T346 106T212 304T164 561Q164 684 196 783T293 959T451 1091T668 1183T942 1236T1270 1253Q1304 1253 1333 1253T1387 1251T1434 1249V1294Q1434 1396 1410 1468T1333 1586T1197 1653T995 1675Q898 1675 807 1666T632 1640T470 1599T324 1544V1991Q390 2028 474 2059T655 2114T859 2150T1081 2163Q1302 2163 1472 2117T1759 1969T1935 1709T1995 1323V0H1483ZM1434 889H1389Q1224 889 1102 875T898 828T777 744T737 618Q737 566 754 520T808 440T901 385T1036 365Q1094 365 1148 373T1253 398T1348 435T1434 483V889ZM1414 2408L1131 2744L852 2408H443L877 3056H1389L1823 2408H1414Z"  />
<glyph unicode="&#xE3;" horiz-adv-x="2286" d="M1483 0L1454 160Q1394 109 1326 68T1179 -3T1012 -49T823 -66Q676 -66 555 -21T346 106T212 304T164 561Q164 684 196 783T293 959T451 1091T668 1183T942 1236T1270 1253Q1304 1253 1333 1253T1387 1251T1434 1249V1294Q1434 1396 1410 1468T1333 1586T1197 1653T995 1675Q898 1675 807 1666T632 1640T470 1599T324 1544V1991Q390 2028 474 2059T655 2114T859 2150T1081 2163Q1302 2163 1472 2117T1759 1969T1935 1709T1995 1323V0H1483ZM1434 889H1389Q1224 889 1102 875T898 828T777 744T737 618Q737 566 754 520T808 440T901 385T1036 365Q1094 365 1148 373T1253 398T1348 435T1434 483V889ZM1905 3015Q1905 2875 1868 2765T1764 2579T1606 2462T1409 2421Q1348 2421 1295 2435T1195 2470T1106 2517T1025 2563T948 2599T873 2613Q830 2613 797 2601T742 2566T707 2510T693 2433H357Q357 2573 393 2683T495 2869T649 2986T844 3027Q905 3027 959 3013T1061 2977T1152 2931T1235 2884T1313 2849T1389 2834Q1432 2834 1465 2845T1522 2880T1557 2936T1569 3015H1905Z"  />
<glyph unicode="&#xE4;" horiz-adv-x="2286" d="M1483 0L1454 160Q1394 109 1326 68T1179 -3T1012 -49T823 -66Q676 -66 555 -21T346 106T212 304T164 561Q164 684 196 783T293 959T451 1091T668 1183T942 1236T1270 1253Q1304 1253 1333 1253T1387 1251T1434 1249V1294Q1434 1396 1410 1468T1333 1586T1197 1653T995 1675Q898 1675 807 1666T632 1640T470 1599T324 1544V1991Q390 2028 474 2059T655 2114T859 2150T1081 2163Q1302 2163 1472 2117T1759 1969T1935 1709T1995 1323V0H1483ZM1434 889H1389Q1224 889 1102 875T898 828T777 744T737 618Q737 566 754 520T808 440T901 385T1036 365Q1094 365 1148 373T1253 398T1348 435T1434 483V889ZM455 2482V2982H992V2482H455ZM1270 2482V2982H1807V2482H1270Z"  />
<glyph unicode="&#xE5;" horiz-adv-x="2286" d="M1483 0L1454 160Q1394 109 1326 68T1179 -3T1012 -49T823 -66Q676 -66 555 -21T346 106T212 304T164 561Q164 684 196 783T293 959T451 1091T668 1183T942 1236T1270 1253Q1304 1253 1333 1253T1387 1251T1434 1249V1294Q1434 1396 1410 1468T1333 1586T1197 1653T995 1675Q898 1675 807 1666T632 1640T470 1599T324 1544V1991Q390 2028 474 2059T655 2114T859 2150T1081 2163Q1302 2163 1472 2117T1759 1969T1935 1709T1995 1323V0H1483ZM1434 889H1389Q1224 889 1102 875T898 828T777 744T737 618Q737 566 754 520T808 440T901 385T1036 365Q1094 365 1148 373T1253 398T1348 435T1434 483V889ZM1622 2859Q1622 2759 1585 2674T1481 2526T1325 2428T1131 2392Q1026 2392 936 2427T780 2525T677 2673T639 2859Q639 2959 676 3044T780 3192T936 3290T1131 3326Q1235 3326 1325 3291T1481 3193T1584 3045T1622 2859ZM1131 2654Q1176 2654 1213 2670T1276 2715T1317 2780T1332 2859Q1332 2899 1318 2935T1277 2999T1213 3043T1131 3060Q1086 3060 1049 3044T984 3000T942 2936T926 2859Q926 2817 941 2780T984 2715T1048 2671T1131 2654Z"  />
<glyph unicode="&#xE6;" horiz-adv-x="3494" d="M3219 82Q3147 48 3069 21T2899 -25T2703 -55T2474 -66Q2345 -66 2232 -46T2020 14T1840 109T1692 238Q1626 167 1545 111T1365 15T1147 -45T885 -66Q717 -66 584 -21T357 106T214 304T164 561Q164 683 196 781T293 957T451 1090T668 1182T942 1235T1270 1253Q1304 1253 1347 1251T1434 1249V1294Q1434 1391 1409 1462T1331 1581T1192 1651T987 1675Q890 1675 801 1666T628 1640T469 1599T324 1544V1991Q390 2028 474 2059T655 2114T859 2150T1081 2163Q1193 2163 1294 2146T1482 2096T1639 2018T1761 1913Q1812 1971 1877 2018T2020 2098T2189 2149T2384 2167Q2563 2167 2703 2125T2950 2008T3130 1831T3250 1608T3317 1355T3338 1085Q3338 1067 3337 1041T3335 987T3331 933T3326 889H1995Q2002 783 2036 696T2135 548T2300 452T2540 418Q2633 418 2725 425T2905 446T3071 480T3219 524V82ZM1389 889Q1224 889 1102 875T898 828T777 744T737 618Q737 566 754 520T808 440T901 385T1036 365Q1094 365 1148 373T1253 395T1348 430T1434 475Q1434 574 1434 675T1434 889H1389ZM2777 1286Q2768 1389 2740 1471T2662 1610T2544 1698T2384 1729Q2293 1729 2225 1699T2109 1611T2034 1471T1999 1286H2777Z"  />
<glyph unicode="&#xE7;" horiz-adv-x="1913" d="M709 -586Q749 -595 791 -600T889 -606Q926 -606 961 -599T1023 -577T1068 -537T1085 -479Q1085 -442 1060 -413T993 -361T899 -326T791 -307L942 -49Q753 -23 609 64T366 293T218 624T168 1044Q168 1223 195 1375T278 1652T415 1872T605 2032T849 2130T1147 2163Q1227 2163 1316 2155T1489 2133T1646 2098T1765 2052V1593Q1710 1613 1650 1628T1524 1654T1386 1670T1233 1675Q1107 1675 1015 1629T861 1502T771 1307T741 1061Q741 927 771 811T862 608T1017 472T1237 422Q1318 422 1392 427T1535 443T1664 469T1782 504V57Q1733 34 1672 15T1542 -18T1395 -43T1237 -57L1171 -197Q1232 -203 1288 -228T1386 -295T1454 -389T1479 -504Q1479 -567 1460 -618T1406 -711T1323 -784T1214 -835T1086 -866T942 -877Q874 -877 816 -869T709 -848V-586Z"  />
<glyph unicode="&#xE8;" horiz-adv-x="2224" d="M1950 86Q1878 52 1799 25T1629 -21T1433 -50T1204 -61Q1032 -61 888 -27T629 74T426 236T281 454T194 724T164 1040Q164 1193 186 1336T255 1604T378 1832T558 2010T802 2126T1114 2167Q1293 2167 1433 2125T1680 2008T1860 1831T1980 1608T2047 1355T2068 1085Q2068 1067 2067 1041T2065 987T2061 933T2056 889H725Q732 783 766 697T865 549T1030 455T1270 422Q1364 422 1456 429T1636 450T1802 484T1950 528V86ZM1507 1286Q1499 1389 1472 1471T1395 1610T1276 1698T1114 1729Q1022 1729 953 1699T837 1611T764 1471T729 1286H1507ZM972 2408L366 3056H1013L1398 2408H972Z"  />
<glyph unicode="&#xE9;" horiz-adv-x="2224" d="M1950 86Q1878 52 1799 25T1629 -21T1433 -50T1204 -61Q1032 -61 888 -27T629 74T426 236T281 454T194 724T164 1040Q164 1193 186 1336T255 1604T378 1832T558 2010T802 2126T1114 2167Q1293 2167 1433 2125T1680 2008T1860 1831T1980 1608T2047 1355T2068 1085Q2068 1067 2067 1041T2065 987T2061 933T2056 889H725Q732 783 766 697T865 549T1030 455T1270 422Q1364 422 1456 429T1636 450T1802 484T1950 528V86ZM1507 1286Q1499 1389 1472 1471T1395 1610T1276 1698T1114 1729Q1022 1729 953 1699T837 1611T764 1471T729 1286H1507ZM832 2408L1217 3056H1864L1258 2408H832Z"  />
<glyph unicode="&#xEA;" horiz-adv-x="2224" d="M1950 86Q1878 52 1799 25T1629 -21T1433 -50T1204 -61Q1032 -61 888 -27T629 74T426 236T281 454T194 724T164 1040Q164 1193 186 1336T255 1604T378 1832T558 2010T802 2126T1114 2167Q1293 2167 1433 2125T1680 2008T1860 1831T1980 1608T2047 1355T2068 1085Q2068 1067 2067 1041T2065 987T2061 933T2056 889H725Q732 783 766 697T865 549T1030 455T1270 422Q1364 422 1456 429T1636 450T1802 484T1950 528V86ZM1507 1286Q1499 1389 1472 1471T1395 1610T1276 1698T1114 1729Q1022 1729 953 1699T837 1611T764 1471T729 1286H1507ZM1397 2408L1114 2744L835 2408H426L860 3056H1372L1806 2408H1397Z"  />
<glyph unicode="&#xEB;" horiz-adv-x="2224" d="M1950 86Q1878 52 1799 25T1629 -21T1433 -50T1204 -61Q1032 -61 888 -27T629 74T426 236T281 454T194 724T164 1040Q164 1193 186 1336T255 1604T378 1832T558 2010T802 2126T1114 2167Q1293 2167 1433 2125T1680 2008T1860 1831T1980 1608T2047 1355T2068 1085Q2068 1067 2067 1041T2065 987T2061 933T2056 889H725Q732 783 766 697T865 549T1030 455T1270 422Q1364 422 1456 429T1636 450T1802 484T1950 528V86ZM1507 1286Q1499 1389 1472 1471T1395 1610T1276 1698T1114 1729Q1022 1729 953 1699T837 1611T764 1471T729 1286H1507ZM438 2482V2982H975V2482H438ZM1253 2482V2982H1790V2482H1253Z"  />
<glyph unicode="&#xEC;" horiz-adv-x="1233" d="M336 0V2101H897V0H336ZM472 2408L-134 3056H513L898 2408H472Z"  />
<glyph unicode="&#xED;" horiz-adv-x="1233" d="M336 0V2101H897V0H336ZM333 2408L718 3056H1365L759 2408H333Z"  />
<glyph unicode="&#xEE;" horiz-adv-x="1233" d="M336 0V2101H897V0H336ZM899 2408L616 2744L337 2408H-72L362 3056H874L1308 2408H899Z"  />
<glyph unicode="&#xEF;" horiz-adv-x="1233" d="M336 0V2101H897V0H336ZM-60 2482V2982H477V2482H-60ZM755 2482V2982H1292V2482H755Z"  />
<glyph unicode="&#xF0;" horiz-adv-x="2433" d="M1602 2486Q1748 2349 1870 2189T2079 1847T2216 1466T2265 1053Q2265 890 2240 744T2162 473T2025 249T1826 79T1558 -28T1217 -66Q1022 -66 869 -31T599 71T400 230T267 438T192 687T168 971Q168 1120 196 1252T279 1494T414 1691T597 1838T824 1930T1094 1962Q1163 1962 1224 1953T1339 1926T1441 1884T1532 1831Q1448 1967 1352 2083T1151 2302L557 2060V2413L860 2535Q770 2597 684 2648T516 2740L745 3006Q817 2980 889 2950T1032 2884T1173 2807T1311 2720L1958 2982V2630L1602 2486ZM1217 389Q1346 389 1435 432T1581 554T1663 738T1688 971Q1688 1097 1663 1204T1582 1389T1436 1512T1217 1556Q1088 1556 998 1512T852 1390T770 1204T745 971Q745 887 756 811T790 671T851 554T941 466T1062 409T1217 389Z"  />
<glyph unicode="&#xF1;" horiz-adv-x="2568" d="M1720 0V1303Q1720 1400 1696 1470T1623 1587T1502 1656T1335 1679Q1270 1679 1211 1672T1096 1650T992 1614T897 1565V0H336V2101H823L868 1929Q932 1987 1003 2031T1154 2106T1326 2151T1524 2167Q1657 2167 1765 2142T1957 2068T2102 1950T2203 1792T2262 1600T2281 1376V0H1720ZM2081 3015Q2081 2875 2044 2765T1940 2579T1782 2462T1585 2421Q1524 2421 1471 2435T1371 2470T1282 2517T1201 2563T1124 2599T1049 2613Q1006 2613 973 2601T918 2566T883 2510T869 2433H533Q533 2573 569 2683T671 2869T825 2986T1020 3027Q1081 3027 1135 3013T1237 2977T1328 2931T1411 2884T1489 2849T1565 2834Q1608 2834 1641 2845T1698 2880T1733 2936T1745 3015H2081Z"  />
<glyph unicode="&#xF2;" horiz-adv-x="2433" d="M1217 -66Q1029 -66 878 -29T610 79T410 248T273 472T194 741T168 1049Q168 1212 194 1358T276 1628T417 1852T618 2022T884 2129T1217 2167Q1405 2167 1556 2130T1823 2022T2023 1853T2160 1630T2239 1361T2265 1053Q2265 890 2239 744T2157 473T2016 249T1815 79T1549 -28T1217 -66ZM1217 389Q1349 389 1439 441T1584 584T1664 795T1688 1053Q1688 1189 1664 1309T1585 1519T1439 1660T1217 1712Q1085 1712 995 1660T849 1517T769 1306T745 1049Q745 912 769 792T848 583T994 441T1217 389ZM1073 2408L467 3056H1114L1499 2408H1073Z"  />
<glyph unicode="&#xF3;" horiz-adv-x="2433" d="M1217 -66Q1029 -66 878 -29T610 79T410 248T273 472T194 741T168 1049Q168 1212 194 1358T276 1628T417 1852T618 2022T884 2129T1217 2167Q1405 2167 1556 2130T1823 2022T2023 1853T2160 1630T2239 1361T2265 1053Q2265 890 2239 744T2157 473T2016 249T1815 79T1549 -28T1217 -66ZM1217 389Q1349 389 1439 441T1584 584T1664 795T1688 1053Q1688 1189 1664 1309T1585 1519T1439 1660T1217 1712Q1085 1712 995 1660T849 1517T769 1306T745 1049Q745 912 769 792T848 583T994 441T1217 389ZM934 2408L1319 3056H1966L1360 2408H934Z"  />
<glyph unicode="&#xF4;" horiz-adv-x="2433" d="M1217 -66Q1029 -66 878 -29T610 79T410 248T273 472T194 741T168 1049Q168 1212 194 1358T276 1628T417 1852T618 2022T884 2129T1217 2167Q1405 2167 1556 2130T1823 2022T2023 1853T2160 1630T2239 1361T2265 1053Q2265 890 2239 744T2157 473T2016 249T1815 79T1549 -28T1217 -66ZM1217 389Q1349 389 1439 441T1584 584T1664 795T1688 1053Q1688 1189 1664 1309T1585 1519T1439 1660T1217 1712Q1085 1712 995 1660T849 1517T769 1306T745 1049Q745 912 769 792T848 583T994 441T1217 389ZM1500 2408L1217 2744L938 2408H529L963 3056H1475L1909 2408H1500Z"  />
<glyph unicode="&#xF5;" horiz-adv-x="2433" d="M1217 -66Q1029 -66 878 -29T610 79T410 248T273 472T194 741T168 1049Q168 1212 194 1358T276 1628T417 1852T618 2022T884 2129T1217 2167Q1405 2167 1556 2130T1823 2022T2023 1853T2160 1630T2239 1361T2265 1053Q2265 890 2239 744T2157 473T2016 249T1815 79T1549 -28T1217 -66ZM1217 389Q1349 389 1439 441T1584 584T1664 795T1688 1053Q1688 1189 1664 1309T1585 1519T1439 1660T1217 1712Q1085 1712 995 1660T849 1517T769 1306T745 1049Q745 912 769 792T848 583T994 441T1217 389ZM1991 3015Q1991 2875 1954 2765T1850 2579T1692 2462T1495 2421Q1434 2421 1381 2435T1281 2470T1192 2517T1111 2563T1034 2599T959 2613Q916 2613 883 2601T828 2566T793 2510T779 2433H443Q443 2573 479 2683T581 2869T735 2986T930 3027Q991 3027 1045 3013T1147 2977T1238 2931T1321 2884T1399 2849T1475 2834Q1518 2834 1551 2845T1608 2880T1643 2936T1655 3015H1991Z"  />
<glyph unicode="&#xF6;" horiz-adv-x="2433" d="M1217 -66Q1029 -66 878 -29T610 79T410 248T273 472T194 741T168 1049Q168 1212 194 1358T276 1628T417 1852T618 2022T884 2129T1217 2167Q1405 2167 1556 2130T1823 2022T2023 1853T2160 1630T2239 1361T2265 1053Q2265 890 2239 744T2157 473T2016 249T1815 79T1549 -28T1217 -66ZM1217 389Q1349 389 1439 441T1584 584T1664 795T1688 1053Q1688 1189 1664 1309T1585 1519T1439 1660T1217 1712Q1085 1712 995 1660T849 1517T769 1306T745 1049Q745 912 769 792T848 583T994 441T1217 389ZM541 2482V2982H1078V2482H541ZM1356 2482V2982H1893V2482H1356Z"  />
<glyph unicode="&#xF7;" horiz-adv-x="2458" d="M123 987V1454H2335V987H123ZM950 1778V2327H1511V1778H950ZM950 115V664H1511V115H950Z"  />
<glyph unicode="&#xF8;" horiz-adv-x="2433" d="M111 -41L377 287Q321 360 282 445T217 627T180 829T168 1049Q168 1212 194 1358T276 1628T417 1852T618 2022T884 2129T1217 2167Q1410 2167 1564 2126T1835 2011L1942 2142H2322L2052 1810Q2107 1738 2147 1654T2214 1474T2252 1273T2265 1053Q2265 890 2239 744T2157 473T2016 249T1815 79T1549 -28T1217 -66Q1023 -66 869 -26T598 86L496 -41H111ZM950 467Q1000 430 1066 410T1217 389Q1349 389 1439 441T1584 584T1664 795T1688 1053Q1688 1130 1679 1200T1655 1335L950 467ZM1483 1630Q1430 1667 1365 1689T1217 1712Q1085 1712 995 1660T849 1517T769 1306T745 1049Q745 971 752 901T774 766L1483 1630Z"  />
<glyph unicode="&#xF9;" horiz-adv-x="2531" d="M1708 0L1663 168Q1601 111 1534 68T1391 -6T1229 -51T1044 -66Q911 -66 803 -41T611 33T466 151T365 309T306 501T287 725V2101H848V799Q848 702 872 631T945 512T1066 441T1233 418Q1290 418 1343 425T1447 447T1544 481T1634 528V2101H2195V0H1708ZM1098 2408L492 3056H1139L1524 2408H1098Z"  />
<glyph unicode="&#xFA;" horiz-adv-x="2531" d="M1708 0L1663 168Q1601 111 1534 68T1391 -6T1229 -51T1044 -66Q911 -66 803 -41T611 33T466 151T365 309T306 501T287 725V2101H848V799Q848 702 872 631T945 512T1066 441T1233 418Q1290 418 1343 425T1447 447T1544 481T1634 528V2101H2195V0H1708ZM959 2408L1344 3056H1991L1385 2408H959Z"  />
<glyph unicode="&#xFB;" horiz-adv-x="2531" d="M1708 0L1663 168Q1601 111 1534 68T1391 -6T1229 -51T1044 -66Q911 -66 803 -41T611 33T466 151T365 309T306 501T287 725V2101H848V799Q848 702 872 631T945 512T1066 441T1233 418Q1290 418 1343 425T1447 447T1544 481T1634 528V2101H2195V0H1708ZM1524 2408L1241 2744L962 2408H553L987 3056H1499L1933 2408H1524Z"  />
<glyph unicode="&#xFC;" horiz-adv-x="2531" d="M1708 0L1663 168Q1601 111 1534 68T1391 -6T1229 -51T1044 -66Q911 -66 803 -41T611 33T466 151T365 309T306 501T287 725V2101H848V799Q848 702 872 631T945 512T1066 441T1233 418Q1290 418 1343 425T1447 447T1544 481T1634 528V2101H2195V0H1708ZM565 2482V2982H1102V2482H565ZM1380 2482V2982H1917V2482H1380Z"  />
<glyph unicode="&#xFD;" horiz-adv-x="2150" d="M0 -471Q46 -480 92 -483T188 -487Q262 -487 326 -480T446 -455T550 -406T640 -326T718 -211T786 -53L795 -33L16 2101H627L1008 860Q1026 795 1046 711T1081 537Q1100 626 1121 710T1163 860L1565 2101H2134L1380 -20Q1319 -191 1251 -327T1104 -567T933 -746T732 -867T494 -936T213 -958Q185 -958 156 -956T98 -950T44 -941T0 -930V-471ZM803 2408L1188 3056H1835L1229 2408H803Z"  />
<glyph unicode="&#xFE;" horiz-adv-x="2552" d="M336 -934V3105H897V1954Q946 2003 1006 2042T1139 2109T1297 2152T1483 2167Q1693 2167 1859 2093T2141 1878T2318 1529T2380 1057Q2380 884 2351 734T2264 459T2124 236T1932 71T1693 -31T1409 -66Q1331 -66 1261 -57T1127 -29T1006 17T897 82V-934H336ZM897 512Q940 486 988 467T1089 435T1200 416T1323 410Q1449 410 1540 459T1690 593T1778 794T1806 1044Q1806 1178 1777 1296T1689 1502T1537 1641T1319 1692Q1254 1692 1197 1686T1087 1666T987 1633T897 1585V512Z"  />
<glyph unicode="&#xFF;" horiz-adv-x="2150" d="M0 -471Q46 -480 92 -483T188 -487Q262 -487 326 -480T446 -455T550 -406T640 -326T718 -211T786 -53L795 -33L16 2101H627L1008 860Q1026 795 1046 711T1081 537Q1100 626 1121 710T1163 860L1565 2101H2134L1380 -20Q1319 -191 1251 -327T1104 -567T933 -746T732 -867T494 -936T213 -958Q185 -958 156 -956T98 -950T44 -941T0 -930V-471ZM410 2482V2982H947V2482H410ZM1225 2482V2982H1762V2482H1225Z"  />
<glyph unicode="&#x100;" horiz-adv-x="2822" d="M2171 0L1958 639H831L623 0H33L1102 2966H1720L2789 0H2171ZM1536 1917Q1493 2050 1458 2182T1397 2454Q1372 2314 1337 2182T1257 1917L987 1106H1802L1536 1917ZM774 3257V3683H2028V3257H774Z"  />
<glyph unicode="&#x101;" horiz-adv-x="2286" d="M1483 0L1454 160Q1394 109 1326 68T1179 -3T1012 -49T823 -66Q676 -66 555 -21T346 106T212 304T164 561Q164 684 196 783T293 959T451 1091T668 1183T942 1236T1270 1253Q1304 1253 1333 1253T1387 1251T1434 1249V1294Q1434 1396 1410 1468T1333 1586T1197 1653T995 1675Q898 1675 807 1666T632 1640T470 1599T324 1544V1991Q390 2028 474 2059T655 2114T859 2150T1081 2163Q1302 2163 1472 2117T1759 1969T1935 1709T1995 1323V0H1483ZM1434 889H1389Q1224 889 1102 875T898 828T777 744T737 618Q737 566 754 520T808 440T901 385T1036 365Q1094 365 1148 373T1253 398T1348 435T1434 483V889ZM504 2503V2929H1758V2503H504Z"  />
<glyph unicode="&#x102;" horiz-adv-x="2822" d="M2171 0L1958 639H831L623 0H33L1102 2966H1720L2789 0H2171ZM1536 1917Q1493 2050 1458 2182T1397 2454Q1372 2314 1337 2182T1257 1917L987 1106H1802L1536 1917ZM2097 3810Q2091 3673 2044 3552T1910 3339T1696 3195T1401 3142Q1233 3142 1106 3195T891 3339T758 3551T705 3810H1057Q1061 3754 1084 3701T1150 3605T1255 3537T1401 3511Q1484 3511 1545 3537T1649 3606T1713 3702T1741 3810H2097Z"  />
<glyph unicode="&#x103;" horiz-adv-x="2286" d="M1483 0L1454 160Q1394 109 1326 68T1179 -3T1012 -49T823 -66Q676 -66 555 -21T346 106T212 304T164 561Q164 684 196 783T293 959T451 1091T668 1183T942 1236T1270 1253Q1304 1253 1333 1253T1387 1251T1434 1249V1294Q1434 1396 1410 1468T1333 1586T1197 1653T995 1675Q898 1675 807 1666T632 1640T470 1599T324 1544V1991Q390 2028 474 2059T655 2114T859 2150T1081 2163Q1302 2163 1472 2117T1759 1969T1935 1709T1995 1323V0H1483ZM1434 889H1389Q1224 889 1102 875T898 828T777 744T737 618Q737 566 754 520T808 440T901 385T1036 365Q1094 365 1148 373T1253 398T1348 435T1434 483V889ZM1827 3056Q1821 2919 1774 2798T1640 2585T1426 2441T1131 2388Q963 2388 836 2441T621 2585T488 2797T435 3056H787Q791 3000 814 2947T880 2851T985 2783T1131 2757Q1214 2757 1275 2783T1379 2852T1443 2948T1471 3056H1827Z"  />
<glyph unicode="&#x104;" horiz-adv-x="2822" d="M2597 -852Q2547 -864 2491 -870T2376 -877Q2250 -877 2151 -851T1984 -773T1879 -648T1843 -479Q1843 -406 1870 -339T1942 -212T2047 -99T2171 0L1958 639H831L623 0H33L1102 2966H1720L2789 0H2478Q2427 -52 2387 -104T2317 -208T2273 -308T2257 -401Q2257 -478 2307 -525T2466 -573Q2489 -573 2506 -572T2539 -568T2568 -563T2597 -557V-852ZM1536 1917Q1493 2050 1458 2182T1397 2454Q1372 2314 1337 2182T1257 1917L987 1106H1802L1536 1917Z"  />
<glyph unicode="&#x105;" horiz-adv-x="2286" d="M1909 -852Q1859 -864 1803 -870T1688 -877Q1562 -877 1463 -851T1296 -773T1191 -648T1155 -479Q1155 -406 1182 -339T1254 -212T1359 -99T1483 0L1454 160Q1394 109 1326 68T1179 -3T1012 -49T823 -66Q676 -66 555 -21T346 106T212 304T164 561Q164 684 196 783T293 959T451 1091T668 1183T942 1236T1270 1253Q1304 1253 1333 1253T1387 1251T1434 1249V1294Q1434 1396 1410 1468T1333 1586T1197 1653T995 1675Q898 1675 807 1666T632 1640T470 1599T324 1544V1991Q390 2028 474 2059T655 2114T859 2150T1081 2163Q1302 2163 1472 2117T1759 1969T1935 1709T1995 1323V0H1790Q1739 -52 1699 -104T1629 -208T1585 -308T1569 -401Q1569 -478 1619 -525T1778 -573Q1801 -573 1818 -572T1851 -568T1880 -563T1909 -557V-852ZM1434 889H1389Q1224 889 1102 875T898 828T777 744T737 618Q737 566 754 520T808 440T901 385T1036 365Q1094 365 1148 373T1253 398T1348 435T1434 483V889Z"  />
<glyph unicode="&#x106;" horiz-adv-x="2544" d="M2396 102Q2305 62 2212 31T2011 -21T1773 -54T1479 -66Q1265 -66 1088 -18T771 124T525 352T351 660T248 1043T213 1495Q213 1721 248 1923T356 2295T536 2602T788 2834T1115 2980T1516 3031Q1651 3031 1772 3019T1999 2983T2197 2926T2363 2851V2372Q2288 2409 2200 2438T2010 2488T1793 2520T1548 2531Q1423 2531 1321 2499T1137 2406T995 2254T894 2049T835 1795T815 1495Q815 1303 835 1149T897 877T1001 674T1148 535T1337 456T1569 430Q1704 430 1815 439T2025 467T2213 514T2396 582V102ZM1209 3162L1594 3810H2241L1635 3162H1209Z"  />
<glyph unicode="&#x107;" horiz-adv-x="1913" d="M1782 57Q1723 30 1648 8T1485 -29T1302 -53T1106 -61Q879 -61 704 16T410 238T230 586T168 1044Q168 1223 195 1375T278 1652T415 1872T605 2032T849 2130T1147 2163Q1227 2163 1316 2155T1489 2133T1646 2098T1765 2052V1593Q1710 1613 1650 1628T1524 1654T1386 1670T1233 1675Q1107 1675 1015 1629T861 1502T771 1307T741 1061Q741 927 771 811T862 608T1017 472T1237 422Q1318 422 1392 427T1535 443T1664 469T1782 504V57ZM832 2408L1217 3056H1864L1258 2408H832Z"  />
<glyph unicode="&#x108;" horiz-adv-x="2544" d="M2396 102Q2305 62 2212 31T2011 -21T1773 -54T1479 -66Q1265 -66 1088 -18T771 124T525 352T351 660T248 1043T213 1495Q213 1721 248 1923T356 2295T536 2602T788 2834T1115 2980T1516 3031Q1651 3031 1772 3019T1999 2983T2197 2926T2363 2851V2372Q2288 2409 2200 2438T2010 2488T1793 2520T1548 2531Q1423 2531 1321 2499T1137 2406T995 2254T894 2049T835 1795T815 1495Q815 1303 835 1149T897 877T1001 674T1148 535T1337 456T1569 430Q1704 430 1815 439T2025 467T2213 514T2396 582V102ZM1774 3162L1491 3498L1212 3162H803L1237 3810H1749L2183 3162H1774Z"  />
<glyph unicode="&#x109;" horiz-adv-x="1913" d="M1782 57Q1723 30 1648 8T1485 -29T1302 -53T1106 -61Q879 -61 704 16T410 238T230 586T168 1044Q168 1223 195 1375T278 1652T415 1872T605 2032T849 2130T1147 2163Q1227 2163 1316 2155T1489 2133T1646 2098T1765 2052V1593Q1710 1613 1650 1628T1524 1654T1386 1670T1233 1675Q1107 1675 1015 1629T861 1502T771 1307T741 1061Q741 927 771 811T862 608T1017 472T1237 422Q1318 422 1392 427T1535 443T1664 469T1782 504V57ZM1397 2408L1114 2744L835 2408H426L860 3056H1372L1806 2408H1397Z"  />
<glyph unicode="&#x10A;" horiz-adv-x="2544" d="M2396 102Q2305 62 2212 31T2011 -21T1773 -54T1479 -66Q1265 -66 1088 -18T771 124T525 352T351 660T248 1043T213 1495Q213 1721 248 1923T356 2295T536 2602T788 2834T1115 2980T1516 3031Q1651 3031 1772 3019T1999 2983T2197 2926T2363 2851V2372Q2288 2409 2200 2438T2010 2488T1793 2520T1548 2531Q1423 2531 1321 2499T1137 2406T995 2254T894 2049T835 1795T815 1495Q815 1303 835 1149T897 877T1001 674T1148 535T1337 456T1569 430Q1704 430 1815 439T2025 467T2213 514T2396 582V102ZM1204 3236V3769H1774V3236H1204Z"  />
<glyph unicode="&#x10B;" horiz-adv-x="1913" d="M1782 57Q1723 30 1648 8T1485 -29T1302 -53T1106 -61Q879 -61 704 16T410 238T230 586T168 1044Q168 1223 195 1375T278 1652T415 1872T605 2032T849 2130T1147 2163Q1227 2163 1316 2155T1489 2133T1646 2098T1765 2052V1593Q1710 1613 1650 1628T1524 1654T1386 1670T1233 1675Q1107 1675 1015 1629T861 1502T771 1307T741 1061Q741 927 771 811T862 608T1017 472T1237 422Q1318 422 1392 427T1535 443T1664 469T1782 504V57ZM827 2482V3015H1397V2482H827Z"  />
<glyph unicode="&#x10C;" horiz-adv-x="2544" d="M2396 102Q2305 62 2212 31T2011 -21T1773 -54T1479 -66Q1265 -66 1088 -18T771 124T525 352T351 660T248 1043T213 1495Q213 1721 248 1923T356 2295T536 2602T788 2834T1115 2980T1516 3031Q1651 3031 1772 3019T1999 2983T2197 2926T2363 2851V2372Q2288 2409 2200 2438T2010 2488T1793 2520T1548 2531Q1423 2531 1321 2499T1137 2406T995 2254T894 2049T835 1795T815 1495Q815 1303 835 1149T897 877T1001 674T1148 535T1337 456T1569 430Q1704 430 1815 439T2025 467T2213 514T2396 582V102ZM1233 3162L799 3810H1208L1487 3470L1769 3810H2179L1745 3162H1233Z"  />
<glyph unicode="&#x10D;" horiz-adv-x="1913" d="M1782 57Q1723 30 1648 8T1485 -29T1302 -53T1106 -61Q879 -61 704 16T410 238T230 586T168 1044Q168 1223 195 1375T278 1652T415 1872T605 2032T849 2130T1147 2163Q1227 2163 1316 2155T1489 2133T1646 2098T1765 2052V1593Q1710 1613 1650 1628T1524 1654T1386 1670T1233 1675Q1107 1675 1015 1629T861 1502T771 1307T741 1061Q741 927 771 811T862 608T1017 472T1237 422Q1318 422 1392 427T1535 443T1664 469T1782 504V57ZM856 2408L422 3056H831L1110 2716L1392 3056H1802L1368 2408H856Z"  />
<glyph unicode="&#x10E;" horiz-adv-x="3006" d="M369 0V2966H1417Q1675 2966 1876 2915T2228 2770T2484 2543T2654 2245T2748 1888T2777 1483Q2777 1271 2746 1079T2647 722T2472 424T2214 196T1865 51T1417 0H369ZM1397 475Q1521 475 1627 502T1820 583T1974 721T2086 916T2155 1169T2179 1483Q2179 1655 2156 1796T2087 2050T1974 2244T1820 2381T1627 2463T1397 2490H946V475H1397ZM1192 3162L758 3810H1167L1446 3470L1728 3810H2138L1704 3162H1192Z"  />
<glyph unicode="&#x10F;" horiz-adv-x="2548" d="M1733 0L1683 180Q1634 125 1574 80T1438 2T1273 -48T1073 -66Q863 -66 695 11T410 232T231 581T168 1044Q168 1313 232 1522T420 1874T722 2092T1130 2167Q1208 2167 1279 2158T1414 2130T1538 2083T1651 2015V3105H2212V0H1733ZM1651 1585Q1606 1613 1557 1633T1452 1666T1339 1685T1217 1692Q1091 1692 1001 1643T853 1508T768 1306T741 1057Q741 923 771 805T862 600T1017 461T1237 410Q1300 410 1357 416T1465 434T1563 466T1651 512V1585ZM2416 2212L2568 2687L2441 3105H2806Q2857 3105 2901 3090T2977 3047T3028 2977T3047 2884Q3047 2824 3025 2759T2968 2624T2887 2480T2793 2327L2724 2212H2416Z"  />
<glyph unicode="&#x110;" horiz-adv-x="3047" d="M410 0V1217H156V1708H410V2966H1458Q1716 2966 1917 2915T2269 2770T2525 2543T2695 2245T2789 1888T2818 1483Q2818 1271 2787 1079T2688 722T2513 424T2255 196T1906 51T1458 0H410ZM1438 475Q1562 475 1668 502T1861 583T2015 721T2127 916T2196 1169T2220 1483Q2220 1655 2197 1796T2128 2050T2015 2244T1861 2381T1668 2463T1438 2490H987V1708H1556V1217H987V475H1438Z"  />
<glyph unicode="&#x111;" horiz-adv-x="2548" d="M1733 0L1683 180Q1634 125 1574 80T1438 2T1273 -48T1073 -66Q863 -66 695 11T410 232T231 581T168 1044Q168 1313 232 1522T420 1874T722 2092T1130 2167Q1208 2167 1279 2158T1414 2130T1538 2083T1651 2015V2429H1282V2871H1651V3105H2212V2871H2458V2429H2212V0H1733ZM1651 1585Q1606 1613 1557 1633T1452 1666T1339 1685T1217 1692Q1091 1692 1001 1643T853 1508T768 1306T741 1057Q741 923 771 805T862 600T1017 461T1237 410Q1300 410 1357 416T1465 434T1563 466T1651 512V1585Z"  />
<glyph unicode="&#x112;" horiz-adv-x="2478" d="M369 0V2966H2241V2490H946V1757H2060V1282H946V475H2257V0H369ZM684 3257V3683H1938V3257H684Z"  />
<glyph unicode="&#x113;" horiz-adv-x="2224" d="M1950 86Q1878 52 1799 25T1629 -21T1433 -50T1204 -61Q1032 -61 888 -27T629 74T426 236T281 454T194 724T164 1040Q164 1193 186 1336T255 1604T378 1832T558 2010T802 2126T1114 2167Q1293 2167 1433 2125T1680 2008T1860 1831T1980 1608T2047 1355T2068 1085Q2068 1067 2067 1041T2065 987T2061 933T2056 889H725Q732 783 766 697T865 549T1030 455T1270 422Q1364 422 1456 429T1636 450T1802 484T1950 528V86ZM1507 1286Q1499 1389 1472 1471T1395 1610T1276 1698T1114 1729Q1022 1729 953 1699T837 1611T764 1471T729 1286H1507ZM487 2503V2929H1741V2503H487Z"  />
<glyph unicode="&#x114;" horiz-adv-x="2478" d="M369 0V2966H2241V2490H946V1757H2060V1282H946V475H2257V0H369ZM2007 3810Q2001 3673 1954 3552T1820 3339T1606 3195T1311 3142Q1143 3142 1016 3195T801 3339T668 3551T615 3810H967Q971 3754 994 3701T1060 3605T1165 3537T1311 3511Q1394 3511 1455 3537T1559 3606T1623 3702T1651 3810H2007Z"  />
<glyph unicode="&#x115;" horiz-adv-x="2224" d="M1950 86Q1878 52 1799 25T1629 -21T1433 -50T1204 -61Q1032 -61 888 -27T629 74T426 236T281 454T194 724T164 1040Q164 1193 186 1336T255 1604T378 1832T558 2010T802 2126T1114 2167Q1293 2167 1433 2125T1680 2008T1860 1831T1980 1608T2047 1355T2068 1085Q2068 1067 2067 1041T2065 987T2061 933T2056 889H725Q732 783 766 697T865 549T1030 455T1270 422Q1364 422 1456 429T1636 450T1802 484T1950 528V86ZM1507 1286Q1499 1389 1472 1471T1395 1610T1276 1698T1114 1729Q1022 1729 953 1699T837 1611T764 1471T729 1286H1507ZM1810 3056Q1804 2919 1757 2798T1623 2585T1409 2441T1114 2388Q946 2388 819 2441T604 2585T471 2797T418 3056H770Q774 3000 797 2947T863 2851T968 2783T1114 2757Q1197 2757 1258 2783T1362 2852T1426 2948T1454 3056H1810Z"  />
<glyph unicode="&#x116;" horiz-adv-x="2478" d="M369 0V2966H2241V2490H946V1757H2060V1282H946V475H2257V0H369ZM1024 3236V3769H1594V3236H1024Z"  />
<glyph unicode="&#x117;" horiz-adv-x="2224" d="M1950 86Q1878 52 1799 25T1629 -21T1433 -50T1204 -61Q1032 -61 888 -27T629 74T426 236T281 454T194 724T164 1040Q164 1193 186 1336T255 1604T378 1832T558 2010T802 2126T1114 2167Q1293 2167 1433 2125T1680 2008T1860 1831T1980 1608T2047 1355T2068 1085Q2068 1067 2067 1041T2065 987T2061 933T2056 889H725Q732 783 766 697T865 549T1030 455T1270 422Q1364 422 1456 429T1636 450T1802 484T1950 528V86ZM1507 1286Q1499 1389 1472 1471T1395 1610T1276 1698T1114 1729Q1022 1729 953 1699T837 1611T764 1471T729 1286H1507ZM827 2482V3015H1397V2482H827Z"  />
<glyph unicode="&#x118;" horiz-adv-x="2478" d="M2236 -852Q2187 -864 2131 -870T2015 -877Q1889 -877 1790 -851T1623 -773T1519 -648T1483 -479Q1483 -406 1510 -339T1582 -212T1686 -99T1810 0H369V2966H2241V2490H946V1757H2060V1282H946V475H2257V0H2118Q2067 -52 2026 -104T1956 -208T1912 -308T1896 -401Q1896 -478 1947 -525T2105 -573Q2128 -573 2145 -572T2178 -568T2207 -563T2236 -557V-852Z"  />
<glyph unicode="&#x119;" horiz-adv-x="2224" d="M1913 -852Q1863 -864 1807 -870T1692 -877Q1566 -877 1467 -852T1300 -777T1195 -657T1159 -496Q1159 -427 1180 -365T1239 -247T1325 -142T1430 -49Q1377 -53 1322 -57T1204 -61Q1032 -61 888 -27T629 74T426 236T281 454T194 724T164 1040Q164 1193 186 1336T255 1604T378 1832T558 2010T802 2126T1114 2167Q1293 2167 1433 2125T1680 2008T1860 1831T1980 1608T2047 1355T2068 1085Q2068 1067 2067 1041T2065 987T2061 933T2056 889H725Q732 783 766 697T865 549T1030 455T1270 422Q1364 422 1456 429T1636 450T1802 484T1950 528V86Q1862 43 1792 -20T1674 -151T1599 -286T1573 -401Q1573 -478 1623 -525T1782 -573Q1805 -573 1822 -572T1855 -568T1884 -563T1913 -557V-852ZM1507 1286Q1499 1389 1472 1471T1395 1610T1276 1698T1114 1729Q1022 1729 953 1699T837 1611T764 1471T729 1286H1507Z"  />
<glyph unicode="&#x11A;" horiz-adv-x="2478" d="M369 0V2966H2241V2490H946V1757H2060V1282H946V475H2257V0H369ZM1053 3162L619 3810H1028L1307 3470L1589 3810H1999L1565 3162H1053Z"  />
<glyph unicode="&#x11B;" horiz-adv-x="2224" d="M1950 86Q1878 52 1799 25T1629 -21T1433 -50T1204 -61Q1032 -61 888 -27T629 74T426 236T281 454T194 724T164 1040Q164 1193 186 1336T255 1604T378 1832T558 2010T802 2126T1114 2167Q1293 2167 1433 2125T1680 2008T1860 1831T1980 1608T2047 1355T2068 1085Q2068 1067 2067 1041T2065 987T2061 933T2056 889H725Q732 783 766 697T865 549T1030 455T1270 422Q1364 422 1456 429T1636 450T1802 484T1950 528V86ZM1507 1286Q1499 1389 1472 1471T1395 1610T1276 1698T1114 1729Q1022 1729 953 1699T837 1611T764 1471T729 1286H1507ZM856 2408L422 3056H831L1110 2716L1392 3056H1802L1368 2408H856Z"  />
<glyph unicode="&#x11C;" horiz-adv-x="2982" d="M2118 1430H2695V139Q2623 108 2546 81T2386 31T2213 -10T2026 -40T1822 -59T1602 -66Q1244 -66 982 35T549 333T296 822T213 1495Q213 1732 253 1938T373 2315T571 2619T846 2843T1195 2983T1618 3031Q1713 3031 1801 3026T1971 3009T2126 2981T2269 2944T2398 2898T2515 2843V2359Q2434 2399 2337 2431T2131 2485T1901 2519T1651 2531Q1448 2531 1292 2466T1030 2271T870 1947T815 1495Q815 1291 842 1133T919 857T1043 657T1207 525T1408 453T1642 430Q1713 430 1777 432T1900 440T2013 452T2118 471V1430ZM1872 3162L1589 3498L1310 3162H901L1335 3810H1847L2281 3162H1872Z"  />
<glyph unicode="&#x11D;" horiz-adv-x="2556" d="M1659 143Q1610 95 1551 57T1421 -9T1266 -51T1081 -66Q871 -66 703 11T418 232T239 581T176 1044Q176 1313 240 1522T428 1874T731 2092T1139 2167Q1228 2167 1306 2155T1452 2118T1581 2056T1696 1970L1733 2101H2220V57Q2220 -210 2146 -406T1932 -730T1588 -920T1126 -983Q998 -983 886 -973T675 -942T493 -893T340 -827V-369Q406 -396 487 -420T660 -462T854 -490T1061 -500Q1211 -500 1323 -473T1510 -382T1622 -217T1659 37V143ZM1659 1585Q1614 1613 1565 1633T1461 1666T1347 1685T1225 1692Q1099 1692 1009 1643T862 1508T777 1306T750 1057Q750 923 780 805T871 600T1026 461T1245 410Q1308 410 1365 416T1473 434T1571 466T1659 512V1585ZM1504 2408L1221 2744L942 2408H533L967 3056H1479L1913 2408H1504Z"  />
<glyph unicode="&#x11E;" horiz-adv-x="2982" d="M2118 1430H2695V139Q2623 108 2546 81T2386 31T2213 -10T2026 -40T1822 -59T1602 -66Q1244 -66 982 35T549 333T296 822T213 1495Q213 1732 253 1938T373 2315T571 2619T846 2843T1195 2983T1618 3031Q1713 3031 1801 3026T1971 3009T2126 2981T2269 2944T2398 2898T2515 2843V2359Q2434 2399 2337 2431T2131 2485T1901 2519T1651 2531Q1448 2531 1292 2466T1030 2271T870 1947T815 1495Q815 1291 842 1133T919 857T1043 657T1207 525T1408 453T1642 430Q1713 430 1777 432T1900 440T2013 452T2118 471V1430ZM2285 3810Q2279 3673 2232 3552T2098 3339T1884 3195T1589 3142Q1421 3142 1294 3195T1079 3339T946 3551T893 3810H1245Q1249 3754 1272 3701T1338 3605T1443 3537T1589 3511Q1672 3511 1733 3537T1837 3606T1901 3702T1929 3810H2285Z"  />
<glyph unicode="&#x11F;" horiz-adv-x="2556" d="M1659 143Q1610 95 1551 57T1421 -9T1266 -51T1081 -66Q871 -66 703 11T418 232T239 581T176 1044Q176 1313 240 1522T428 1874T731 2092T1139 2167Q1228 2167 1306 2155T1452 2118T1581 2056T1696 1970L1733 2101H2220V57Q2220 -210 2146 -406T1932 -730T1588 -920T1126 -983Q998 -983 886 -973T675 -942T493 -893T340 -827V-369Q406 -396 487 -420T660 -462T854 -490T1061 -500Q1211 -500 1323 -473T1510 -382T1622 -217T1659 37V143ZM1659 1585Q1614 1613 1565 1633T1461 1666T1347 1685T1225 1692Q1099 1692 1009 1643T862 1508T777 1306T750 1057Q750 923 780 805T871 600T1026 461T1245 410Q1308 410 1365 416T1473 434T1571 466T1659 512V1585ZM1917 3056Q1911 2919 1864 2798T1730 2585T1516 2441T1221 2388Q1053 2388 926 2441T711 2585T578 2797T525 3056H877Q881 3000 904 2947T970 2851T1075 2783T1221 2757Q1304 2757 1365 2783T1469 2852T1533 2948T1561 3056H1917Z"  />
<glyph unicode="&#x120;" horiz-adv-x="2982" d="M2118 1430H2695V139Q2623 108 2546 81T2386 31T2213 -10T2026 -40T1822 -59T1602 -66Q1244 -66 982 35T549 333T296 822T213 1495Q213 1732 253 1938T373 2315T571 2619T846 2843T1195 2983T1618 3031Q1713 3031 1801 3026T1971 3009T2126 2981T2269 2944T2398 2898T2515 2843V2359Q2434 2399 2337 2431T2131 2485T1901 2519T1651 2531Q1448 2531 1292 2466T1030 2271T870 1947T815 1495Q815 1291 842 1133T919 857T1043 657T1207 525T1408 453T1642 430Q1713 430 1777 432T1900 440T2013 452T2118 471V1430ZM1302 3236V3769H1872V3236H1302Z"  />
<glyph unicode="&#x121;" horiz-adv-x="2556" d="M1659 143Q1610 95 1551 57T1421 -9T1266 -51T1081 -66Q871 -66 703 11T418 232T239 581T176 1044Q176 1313 240 1522T428 1874T731 2092T1139 2167Q1228 2167 1306 2155T1452 2118T1581 2056T1696 1970L1733 2101H2220V57Q2220 -210 2146 -406T1932 -730T1588 -920T1126 -983Q998 -983 886 -973T675 -942T493 -893T340 -827V-369Q406 -396 487 -420T660 -462T854 -490T1061 -500Q1211 -500 1323 -473T1510 -382T1622 -217T1659 37V143ZM1659 1585Q1614 1613 1565 1633T1461 1666T1347 1685T1225 1692Q1099 1692 1009 1643T862 1508T777 1306T750 1057Q750 923 780 805T871 600T1026 461T1245 410Q1308 410 1365 416T1473 434T1571 466T1659 512V1585ZM934 2482V3015H1504V2482H934Z"  />
<glyph unicode="&#x122;" horiz-adv-x="2982" d="M2118 1430H2695V139Q2623 108 2546 81T2386 31T2213 -10T2026 -40T1822 -59T1602 -66Q1244 -66 982 35T549 333T296 822T213 1495Q213 1732 253 1938T373 2315T571 2619T846 2843T1195 2983T1618 3031Q1713 3031 1801 3026T1971 3009T2126 2981T2269 2944T2398 2898T2515 2843V2359Q2434 2399 2337 2431T2131 2485T1901 2519T1651 2531Q1448 2531 1292 2466T1030 2271T870 1947T815 1495Q815 1291 842 1133T919 857T1043 657T1207 525T1408 453T1642 430Q1713 430 1777 432T1900 440T2013 452T2118 471V1430ZM1315 -983L1131 -791L1409 -494L1327 -172H1692Q1747 -172 1791 -189T1865 -238T1912 -314T1929 -410Q1929 -488 1891 -561T1790 -696T1646 -811T1479 -905L1315 -983Z"  />
<glyph unicode="&#x123;" horiz-adv-x="2556" d="M1659 143Q1610 95 1551 57T1421 -9T1266 -51T1081 -66Q871 -66 703 11T418 232T239 581T176 1044Q176 1313 240 1522T428 1874T731 2092T1139 2167Q1228 2167 1306 2155T1452 2118T1581 2056T1696 1970L1733 2101H2220V57Q2220 -210 2146 -406T1932 -730T1588 -920T1126 -983Q998 -983 886 -973T675 -942T493 -893T340 -827V-369Q406 -396 487 -420T660 -462T854 -490T1061 -500Q1211 -500 1323 -473T1510 -382T1622 -217T1659 37V143ZM1659 1585Q1614 1613 1565 1633T1461 1666T1347 1685T1225 1692Q1099 1692 1009 1643T862 1508T777 1306T750 1057Q750 923 780 805T871 600T1026 461T1245 410Q1308 410 1365 416T1473 434T1571 466T1659 512V1585ZM1131 2408Q1075 2408 1031 2425T957 2474T910 2550T893 2646Q893 2726 931 2799T1032 2938T1176 3057T1344 3154L1508 3232L1692 3039L1409 2732L1495 2408H1131Z"  />
<glyph unicode="&#x124;" horiz-adv-x="3064" d="M2118 0V1286H946V0H369V2966H946V1761H2118V2966H2695V0H2118ZM1815 3162L1532 3498L1253 3162H844L1278 3810H1790L2224 3162H1815Z"  />
<glyph unicode="&#x125;" horiz-adv-x="2568" d="M1720 0V1303Q1720 1400 1696 1470T1623 1587T1502 1656T1335 1679Q1270 1679 1211 1672T1096 1650T992 1614T897 1565V0H336V3105H897V1958Q958 2010 1026 2049T1172 2114T1336 2154T1524 2167Q1657 2167 1765 2142T1957 2068T2102 1950T2203 1792T2262 1600T2281 1376V0H1720ZM899 3228L616 3564L337 3228H-72L362 3876H874L1308 3228H899Z"  />
<glyph unicode="&#x126;" horiz-adv-x="3129" d="M2150 0V1286H979V0H401V2150H156V2593H401V2966H979V2593H2150V2966H2728V2593H2974V2150H2728V0H2150ZM2150 2150H979V1761H2150V2150Z"  />
<glyph unicode="&#x127;" horiz-adv-x="2568" d="M1720 0V1303Q1720 1400 1696 1470T1623 1587T1502 1656T1335 1679Q1270 1679 1211 1672T1096 1650T992 1614T897 1565V0H336V2429H90V2871H336V3105H897V2871H1266V2429H897V1958Q958 2010 1026 2049T1172 2114T1336 2154T1524 2167Q1657 2167 1765 2142T1957 2068T2102 1950T2203 1792T2262 1600T2281 1376V0H1720Z"  />
<glyph unicode="&#x128;" horiz-adv-x="1749" d="M246 0V459H586V2507H246V2966H1503V2507H1163V459H1503V0H246ZM1648 3769Q1648 3629 1611 3519T1507 3333T1349 3216T1152 3175Q1091 3175 1038 3189T938 3224T849 3271T768 3317T691 3353T616 3367Q573 3367 540 3355T485 3320T450 3264T436 3187H100Q100 3327 136 3437T238 3623T392 3740T587 3781Q648 3781 702 3767T804 3731T895 3685T978 3638T1056 3603T1132 3588Q1175 3588 1208 3599T1265 3634T1300 3690T1312 3769H1648Z"  />
<glyph unicode="&#x129;" horiz-adv-x="1233" d="M336 0V2101H897V0H336ZM1390 3015Q1390 2875 1353 2765T1249 2579T1091 2462T894 2421Q833 2421 780 2435T680 2470T591 2517T510 2563T433 2599T358 2613Q315 2613 282 2601T227 2566T192 2510T178 2433H-158Q-158 2573 -122 2683T-20 2869T134 2986T329 3027Q390 3027 444 3013T546 2977T637 2931T720 2884T798 2849T874 2834Q917 2834 950 2845T1007 2880T1042 2936T1054 3015H1390Z"  />
<glyph unicode="&#x12A;" horiz-adv-x="1749" d="M246 0V459H586V2507H246V2966H1503V2507H1163V459H1503V0H246ZM247 3257V3683H1501V3257H247Z"  />
<glyph unicode="&#x12B;" horiz-adv-x="1233" d="M336 0V2101H897V0H336ZM-11 2503V2929H1243V2503H-11Z"  />
<glyph unicode="&#x12C;" horiz-adv-x="1749" d="M246 0V459H586V2507H246V2966H1503V2507H1163V459H1503V0H246ZM1570 3810Q1564 3673 1517 3552T1383 3339T1169 3195T874 3142Q706 3142 579 3195T364 3339T231 3551T178 3810H530Q534 3754 557 3701T623 3605T728 3537T874 3511Q957 3511 1018 3537T1122 3606T1186 3702T1214 3810H1570Z"  />
<glyph unicode="&#x12D;" horiz-adv-x="1233" d="M336 0V2101H897V0H336ZM1312 3056Q1306 2919 1259 2798T1125 2585T911 2441T616 2388Q448 2388 321 2441T106 2585T-27 2797T-80 3056H272Q276 3000 299 2947T365 2851T470 2783T616 2757Q699 2757 760 2783T864 2852T928 2948T956 3056H1312Z"  />
<glyph unicode="&#x12E;" horiz-adv-x="1749" d="M1176 -852Q1126 -864 1070 -870T954 -877Q828 -877 729 -851T562 -773T458 -648T422 -479Q422 -406 449 -339T521 -212T626 -99T750 0H246V459H586V2507H246V2966H1503V2507H1163V459H1503V0H1057Q1006 -52 966 -104T896 -208T852 -308T836 -401Q836 -478 886 -525T1044 -573Q1067 -573 1085 -572T1118 -568T1147 -563T1176 -557V-852Z"  />
<glyph unicode="&#x12F;" horiz-adv-x="1233" d="M877 -852Q827 -864 771 -870T655 -877Q529 -877 430 -851T263 -773T159 -648T123 -479Q123 -406 150 -339T222 -212T327 -99T451 0H336V2101H897V0H758Q707 -52 667 -104T597 -208T553 -308T537 -401Q537 -478 587 -525T745 -573Q768 -573 786 -572T819 -568T848 -563T877 -557V-852ZM336 2417V2966H897V2417H336Z"  />
<glyph unicode="&#x130;" horiz-adv-x="1749" d="M246 0V459H586V2507H246V2966H1503V2507H1163V459H1503V0H246ZM587 3236V3769H1157V3236H587Z"  />
<glyph unicode="&#x131;" horiz-adv-x="1233" d="M336 0V2101H897V0H336Z"  />
<glyph unicode="&#x132;" horiz-adv-x="3265" d="M246 0V459H586V2507H246V2966H1503V2507H1163V459H1503V0H246ZM1675 -135Q1697 -140 1720 -143T1768 -148T1821 -151T1880 -152Q2001 -152 2085 -111T2220 8T2295 199T2318 459V2507H1896V2966H2896V393Q2896 132 2829 -62T2634 -384T2324 -575T1909 -639Q1872 -639 1839 -638T1776 -633T1721 -624T1675 -610V-135Z"  />
<glyph unicode="&#x133;" horiz-adv-x="2466" d="M336 0V2101H897V0H336ZM336 2417V2966H897V2417H336ZM959 -471Q990 -477 1031 -482T1131 -487Q1231 -487 1312 -456T1450 -357T1538 -180T1569 82V2101H2130V86Q2130 -187 2063 -384T1873 -709T1575 -897T1188 -958Q1159 -958 1127 -955T1063 -948T1005 -937T959 -922V-471ZM1569 2417V2966H2130V2417H1569Z"  />
<glyph unicode="&#x134;" horiz-adv-x="1516" d="M-74 -135Q-52 -140 -29 -143T19 -148T72 -151T131 -152Q252 -152 336 -111T471 8T546 199T569 459V2507H147V2966H1147V393Q1147 132 1080 -62T885 -384T575 -575T160 -639Q123 -639 90 -638T27 -633T-28 -624T-74 -610V-135ZM1140 3162L857 3498L578 3162H169L603 3810H1115L1549 3162H1140Z"  />
<glyph unicode="&#x135;" horiz-adv-x="1233" d="M-274 -471Q-243 -477 -202 -482T-102 -487Q-2 -487 79 -456T217 -357T305 -180T336 82V2101H897V86Q897 -187 830 -384T640 -709T342 -897T-45 -958Q-74 -958 -106 -955T-170 -948T-228 -937T-274 -922V-471ZM899 2408L616 2744L337 2408H-72L362 3056H874L1308 2408H899Z"  />
<glyph unicode="&#x136;" horiz-adv-x="2757" d="M2023 0L946 1348V0H369V2966H946V1663L1950 2966H2658L1720 1778Q1649 1689 1585 1621T1462 1507Q1494 1484 1527 1456T1595 1393T1666 1318T1741 1229L2732 0H2023ZM1176 -983L992 -791L1270 -494L1188 -172H1553Q1608 -172 1652 -189T1726 -238T1773 -314T1790 -410Q1790 -488 1752 -561T1651 -696T1507 -811T1340 -905L1176 -983Z"  />
<glyph unicode="&#x137;" horiz-adv-x="2363" d="M1647 0L897 950V0H336V3105H897V1253L1630 2101H2298L1622 1319Q1596 1290 1569 1263T1512 1211T1454 1163T1393 1118Q1425 1095 1456 1069T1516 1013T1575 951T1634 885L2343 0H1647ZM967 -983L783 -791L1061 -494L979 -172H1344Q1399 -172 1443 -189T1517 -238T1564 -314T1581 -410Q1581 -488 1543 -561T1442 -696T1298 -811T1131 -905L967 -983Z"  />
<glyph unicode="&#x139;" horiz-adv-x="2175" d="M369 0V2966H942V475H2101V0H369ZM374 3162L759 3810H1406L800 3162H374Z"  />
<glyph unicode="&#x13A;" horiz-adv-x="1360" d="M1229 16Q1194 4 1153 -5T1064 -20T963 -30T852 -33Q717 -33 619 4T457 112T363 285T332 516V3105H893V590Q893 550 901 523T928 478T975 454T1044 446Q1091 446 1136 450T1229 463V16ZM345 3228L730 3876H1377L771 3228H345Z"  />
<glyph unicode="&#x13B;" horiz-adv-x="2175" d="M369 0V2966H942V475H2101V0H369ZM958 -983L774 -791L1052 -494L970 -172H1335Q1390 -172 1434 -189T1508 -238T1555 -314T1572 -410Q1572 -488 1534 -561T1433 -696T1289 -811T1122 -905L958 -983Z"  />
<glyph unicode="&#x13C;" horiz-adv-x="1360" d="M1229 16Q1194 4 1153 -5T1064 -20T963 -30T852 -33Q717 -33 619 4T457 112T363 285T332 516V3105H893V590Q893 550 901 523T928 478T975 454T1044 446Q1091 446 1136 450T1229 463V16ZM505 -983L321 -791L599 -494L517 -172H882Q937 -172 981 -189T1055 -238T1102 -314T1119 -410Q1119 -488 1081 -561T980 -696T836 -811T669 -905L505 -983Z"  />
<glyph unicode="&#x13D;" horiz-adv-x="2175" d="M369 0V2966H942V475H2101V0H369ZM1187 2212L1339 2687L1212 3105H1577Q1628 3105 1672 3090T1748 3047T1799 2977T1818 2884Q1818 2824 1796 2759T1739 2624T1658 2480T1564 2327L1495 2212H1187Z"  />
<glyph unicode="&#x13E;" horiz-adv-x="1360" d="M1229 16Q1194 4 1153 -5T1064 -20T963 -30T852 -33Q717 -33 619 4T457 112T363 285T332 516V3105H893V590Q893 550 901 523T928 478T975 454T1044 446Q1091 446 1136 450T1229 463V16ZM1097 2212L1249 2687L1122 3105H1487Q1538 3105 1582 3090T1658 3047T1709 2977T1728 2884Q1728 2824 1706 2759T1649 2624T1568 2480T1474 2327L1405 2212H1097Z"  />
<glyph unicode="&#x13F;" horiz-adv-x="2175" d="M369 0V2966H942V475H2101V0H369ZM1302 1356V1913H1892V1356H1302Z"  />
<glyph unicode="&#x140;" horiz-adv-x="1704" d="M1229 16Q1194 4 1153 -5T1064 -20T963 -30T852 -33Q717 -33 619 4T457 112T363 285T332 516V3105H893V590Q893 550 901 523T928 478T975 454T1044 446Q1091 446 1136 450T1229 463V16ZM1179 1266V1798H1745V1266H1179Z"  />
<glyph unicode="&#x141;" horiz-adv-x="2216" d="M410 0V1151L156 1049V1532L410 1634V2966H983V1872L1540 2105V1622L983 1389V475H2142V0H410Z"  />
<glyph unicode="&#x142;" horiz-adv-x="1401" d="M1270 16Q1235 4 1194 -5T1105 -20T1004 -30T893 -33Q758 -33 660 4T498 112T404 285T373 516V1130L90 1016V1487L373 1602V3105H934V1835L1315 1991V1520L934 1364V590Q934 550 942 523T969 478T1016 454T1085 446Q1132 446 1177 450T1270 463V16Z"  />
<glyph unicode="&#x143;" horiz-adv-x="3142" d="M2187 0L1114 1712Q1061 1796 1003 1913T885 2163Q892 2097 899 2032T911 1908T919 1799T922 1712V0H369V2966H954L2028 1253Q2054 1212 2082 1161T2138 1051T2196 930T2253 803Q2245 867 2239 931T2229 1054T2222 1164T2220 1253V2966H2773V0H2187ZM1286 3162L1671 3810H2318L1712 3162H1286Z"  />
<glyph unicode="&#x144;" horiz-adv-x="2568" d="M1720 0V1303Q1720 1400 1696 1470T1623 1587T1502 1656T1335 1679Q1270 1679 1211 1672T1096 1650T992 1614T897 1565V0H336V2101H823L868 1929Q932 1987 1003 2031T1154 2106T1326 2151T1524 2167Q1657 2167 1765 2142T1957 2068T2102 1950T2203 1792T2262 1600T2281 1376V0H1720ZM1024 2408L1409 3056H2056L1450 2408H1024Z"  />
<glyph unicode="&#x145;" horiz-adv-x="3142" d="M2187 0L1114 1712Q1061 1796 1003 1913T885 2163Q892 2097 899 2032T911 1908T919 1799T922 1712V0H369V2966H954L2028 1253Q2054 1212 2082 1161T2138 1051T2196 930T2253 803Q2245 867 2239 931T2229 1054T2222 1164T2220 1253V2966H2773V0H2187ZM1294 -983L1110 -791L1388 -494L1306 -172H1671Q1726 -172 1770 -189T1844 -238T1891 -314T1908 -410Q1908 -488 1870 -561T1769 -696T1625 -811T1458 -905L1294 -983Z"  />
<glyph unicode="&#x146;" horiz-adv-x="2568" d="M1720 0V1303Q1720 1400 1696 1470T1623 1587T1502 1656T1335 1679Q1270 1679 1211 1672T1096 1650T992 1614T897 1565V0H336V2101H823L868 1929Q932 1987 1003 2031T1154 2106T1326 2151T1524 2167Q1657 2167 1765 2142T1957 2068T2102 1950T2203 1792T2262 1600T2281 1376V0H1720ZM1032 -983L848 -791L1126 -494L1044 -172H1409Q1464 -172 1508 -189T1582 -238T1629 -314T1646 -410Q1646 -488 1608 -561T1507 -696T1363 -811T1196 -905L1032 -983Z"  />
<glyph unicode="&#x147;" horiz-adv-x="3142" d="M2187 0L1114 1712Q1061 1796 1003 1913T885 2163Q892 2097 899 2032T911 1908T919 1799T922 1712V0H369V2966H954L2028 1253Q2054 1212 2082 1161T2138 1051T2196 930T2253 803Q2245 867 2239 931T2229 1054T2222 1164T2220 1253V2966H2773V0H2187ZM1311 3162L877 3810H1286L1565 3470L1847 3810H2257L1823 3162H1311Z"  />
<glyph unicode="&#x148;" horiz-adv-x="2568" d="M1720 0V1303Q1720 1400 1696 1470T1623 1587T1502 1656T1335 1679Q1270 1679 1211 1672T1096 1650T992 1614T897 1565V0H336V2101H823L868 1929Q932 1987 1003 2031T1154 2106T1326 2151T1524 2167Q1657 2167 1765 2142T1957 2068T2102 1950T2203 1792T2262 1600T2281 1376V0H1720ZM1049 2408L615 3056H1024L1303 2716L1585 3056H1995L1561 2408H1049Z"  />
<glyph unicode="&#x149;" horiz-adv-x="3445" d="M172 1987L414 2560L291 3105H606Q695 3105 760 3090T869 3040T933 2951T954 2818Q954 2732 926 2639T849 2453T734 2268T590 2093L492 1987H172ZM2597 0V1303Q2597 1400 2573 1470T2500 1587T2379 1656T2212 1679Q2147 1679 2088 1672T1973 1650T1869 1614T1774 1565V0H1213V2101H1700L1745 1929Q1809 1987 1880 2031T2031 2106T2203 2151T2401 2167Q2534 2167 2642 2142T2834 2068T2979 1950T3080 1792T3139 1600T3158 1376V0H2597Z"  />
<glyph unicode="&#x14C;" horiz-adv-x="3056" d="M1528 -66Q1270 -66 1074 -10T733 147T492 390T337 704T254 1074T229 1483Q229 1695 256 1892T344 2261T503 2575T746 2818T1084 2975T1528 3031Q1786 3031 1982 2975T2323 2818T2564 2575T2719 2261T2801 1892T2826 1483Q2826 1271 2799 1074T2712 705T2552 391T2309 148T1971 -10T1528 -66ZM1528 422Q1652 422 1752 454T1929 548T2063 702T2156 911T2210 1172T2228 1483Q2228 1650 2211 1793T2157 2054T2064 2263T1930 2417T1752 2511T1528 2544Q1404 2544 1304 2512T1126 2417T992 2264T899 2055T845 1794T827 1483Q827 1316 844 1173T898 911T991 702T1126 549T1304 454T1528 422ZM901 3257V3683H2155V3257H901Z"  />
<glyph unicode="&#x14D;" horiz-adv-x="2433" d="M1217 -66Q1029 -66 878 -29T610 79T410 248T273 472T194 741T168 1049Q168 1212 194 1358T276 1628T417 1852T618 2022T884 2129T1217 2167Q1405 2167 1556 2130T1823 2022T2023 1853T2160 1630T2239 1361T2265 1053Q2265 890 2239 744T2157 473T2016 249T1815 79T1549 -28T1217 -66ZM1217 389Q1349 389 1439 441T1584 584T1664 795T1688 1053Q1688 1189 1664 1309T1585 1519T1439 1660T1217 1712Q1085 1712 995 1660T849 1517T769 1306T745 1049Q745 912 769 792T848 583T994 441T1217 389ZM590 2503V2929H1844V2503H590Z"  />
<glyph unicode="&#x14E;" horiz-adv-x="3056" d="M1528 -66Q1270 -66 1074 -10T733 147T492 390T337 704T254 1074T229 1483Q229 1695 256 1892T344 2261T503 2575T746 2818T1084 2975T1528 3031Q1786 3031 1982 2975T2323 2818T2564 2575T2719 2261T2801 1892T2826 1483Q2826 1271 2799 1074T2712 705T2552 391T2309 148T1971 -10T1528 -66ZM1528 422Q1652 422 1752 454T1929 548T2063 702T2156 911T2210 1172T2228 1483Q2228 1650 2211 1793T2157 2054T2064 2263T1930 2417T1752 2511T1528 2544Q1404 2544 1304 2512T1126 2417T992 2264T899 2055T845 1794T827 1483Q827 1316 844 1173T898 911T991 702T1126 549T1304 454T1528 422ZM2224 3810Q2218 3673 2171 3552T2037 3339T1823 3195T1528 3142Q1360 3142 1233 3195T1018 3339T885 3551T832 3810H1184Q1188 3754 1211 3701T1277 3605T1382 3537T1528 3511Q1611 3511 1672 3537T1776 3606T1840 3702T1868 3810H2224Z"  />
<glyph unicode="&#x14F;" horiz-adv-x="2433" d="M1217 -66Q1029 -66 878 -29T610 79T410 248T273 472T194 741T168 1049Q168 1212 194 1358T276 1628T417 1852T618 2022T884 2129T1217 2167Q1405 2167 1556 2130T1823 2022T2023 1853T2160 1630T2239 1361T2265 1053Q2265 890 2239 744T2157 473T2016 249T1815 79T1549 -28T1217 -66ZM1217 389Q1349 389 1439 441T1584 584T1664 795T1688 1053Q1688 1189 1664 1309T1585 1519T1439 1660T1217 1712Q1085 1712 995 1660T849 1517T769 1306T745 1049Q745 912 769 792T848 583T994 441T1217 389ZM1913 3056Q1907 2919 1860 2798T1726 2585T1512 2441T1217 2388Q1049 2388 922 2441T707 2585T574 2797T521 3056H873Q877 3000 900 2947T966 2851T1071 2783T1217 2757Q1300 2757 1361 2783T1465 2852T1529 2948T1557 3056H1913Z"  />
<glyph unicode="&#x150;" horiz-adv-x="3056" d="M1528 -66Q1270 -66 1074 -10T733 147T492 390T337 704T254 1074T229 1483Q229 1695 256 1892T344 2261T503 2575T746 2818T1084 2975T1528 3031Q1786 3031 1982 2975T2323 2818T2564 2575T2719 2261T2801 1892T2826 1483Q2826 1271 2799 1074T2712 705T2552 391T2309 148T1971 -10T1528 -66ZM1528 422Q1652 422 1752 454T1929 548T2063 702T2156 911T2210 1172T2228 1483Q2228 1650 2211 1793T2157 2054T2064 2263T1930 2417T1752 2511T1528 2544Q1404 2544 1304 2512T1126 2417T992 2264T899 2055T845 1794T827 1483Q827 1316 844 1173T898 911T991 702T1126 549T1304 454T1528 422ZM938 3162L1200 3810H1790L1347 3162H938ZM1712 3162L1974 3810H2564L2122 3162H1712Z"  />
<glyph unicode="&#x151;" horiz-adv-x="2433" d="M1217 -66Q1029 -66 878 -29T610 79T410 248T273 472T194 741T168 1049Q168 1212 194 1358T276 1628T417 1852T618 2022T884 2129T1217 2167Q1405 2167 1556 2130T1823 2022T2023 1853T2160 1630T2239 1361T2265 1053Q2265 890 2239 744T2157 473T2016 249T1815 79T1549 -28T1217 -66ZM1217 389Q1349 389 1439 441T1584 584T1664 795T1688 1053Q1688 1189 1664 1309T1585 1519T1439 1660T1217 1712Q1085 1712 995 1660T849 1517T769 1306T745 1049Q745 912 769 792T848 583T994 441T1217 389ZM627 2408L889 3056H1479L1036 2408H627ZM1401 2408L1663 3056H2253L1811 2408H1401Z"  />
<glyph unicode="&#x152;" horiz-adv-x="4207" d="M2130 0Q2061 -5 1987 -8T1837 -14T1681 -18T1524 -20Q1314 -20 1135 25T811 158T554 375T367 672T252 1047T213 1495Q213 1721 253 1919T371 2283T564 2579T829 2800T1162 2938T1561 2986Q1641 2986 1717 2985T1864 2981T2001 2974T2130 2966H3969V2490H2675V1757H3789V1282H2675V475H3985V0H2130ZM2097 2503Q2040 2507 1983 2511T1868 2517T1749 2521T1626 2523Q1501 2523 1393 2492T1194 2400T1033 2251T915 2048T841 1795T815 1495Q815 1303 841 1150T918 880T1040 680T1205 544T1409 467T1647 442Q1701 442 1760 443T1878 446T1993 451T2097 459V2503Z"  />
<glyph unicode="&#x153;" horiz-adv-x="3748" d="M3473 82Q3401 48 3323 21T3153 -25T2957 -55T2728 -66Q2596 -66 2485 -45T2280 18T2113 119T1982 254Q1928 180 1855 121T1687 21T1475 -43T1217 -66Q1019 -66 865 -29T594 79T396 248T265 472T191 741T168 1049Q168 1212 192 1358T268 1628T403 1852T602 2022T871 2129T1217 2167Q1358 2167 1474 2146T1683 2086T1848 1991T1974 1864Q2022 1934 2085 1990T2230 2086T2413 2146T2638 2167Q2817 2167 2957 2125T3204 2008T3384 1831T3504 1608T3571 1355T3592 1085Q3592 1067 3591 1041T3589 987T3585 933T3580 889H2249Q2256 783 2290 696T2389 548T2553 452T2793 418Q2887 418 2979 425T3159 446T3325 480T3473 524V82ZM1217 389Q1349 389 1439 441T1584 584T1664 795T1688 1053Q1688 1189 1664 1309T1585 1519T1439 1660T1217 1712Q1085 1712 995 1660T849 1517T769 1306T745 1049Q745 912 769 792T848 583T994 441T1217 389ZM3031 1286Q3022 1389 2993 1471T2916 1610T2798 1698T2638 1729Q2547 1729 2479 1699T2363 1611T2288 1471T2253 1286H3031Z"  />
<glyph unicode="&#x154;" horiz-adv-x="2744" d="M2028 0L1446 954Q1418 1000 1395 1034T1350 1092T1305 1132T1254 1156T1189 1168T1106 1171H942V0H369V2966H1376Q1631 2966 1827 2913T2155 2751T2356 2477T2425 2085Q2425 1916 2377 1780T2248 1543T2060 1374T1835 1274Q1900 1243 1952 1194T2048 1073L2703 0H2028ZM1323 1610Q1441 1610 1536 1638T1697 1726T1799 1874T1835 2085Q1835 2193 1800 2274T1699 2409T1538 2491T1323 2519H942V1610H1323ZM1094 3162L1479 3810H2126L1520 3162H1094Z"  />
<glyph unicode="&#x155;" horiz-adv-x="1667" d="M336 0V2101H864L885 1839Q931 1910 987 1969T1111 2072T1258 2139T1430 2163Q1473 2163 1520 2157T1602 2138V1602Q1559 1611 1528 1616T1467 1625T1406 1629T1331 1630Q1285 1630 1243 1625T1161 1609T1085 1585T1016 1552T954 1511T897 1462V0H336ZM684 2408L1069 3056H1716L1110 2408H684Z"  />
<glyph unicode="&#x156;" horiz-adv-x="2744" d="M2028 0L1446 954Q1418 1000 1395 1034T1350 1092T1305 1132T1254 1156T1189 1168T1106 1171H942V0H369V2966H1376Q1631 2966 1827 2913T2155 2751T2356 2477T2425 2085Q2425 1916 2377 1780T2248 1543T2060 1374T1835 1274Q1900 1243 1952 1194T2048 1073L2703 0H2028ZM1323 1610Q1441 1610 1536 1638T1697 1726T1799 1874T1835 2085Q1835 2193 1800 2274T1699 2409T1538 2491T1323 2519H942V1610H1323ZM1143 -983L959 -791L1237 -494L1155 -172H1520Q1575 -172 1619 -189T1693 -238T1740 -314T1757 -410Q1757 -488 1719 -561T1618 -696T1474 -811T1307 -905L1143 -983Z"  />
<glyph unicode="&#x157;" horiz-adv-x="1667" d="M336 0V2101H864L885 1839Q931 1910 987 1969T1111 2072T1258 2139T1430 2163Q1473 2163 1520 2157T1602 2138V1602Q1559 1611 1528 1616T1467 1625T1406 1629T1331 1630Q1285 1630 1243 1625T1161 1609T1085 1585T1016 1552T954 1511T897 1462V0H336ZM341 -983L157 -791L435 -494L353 -172H718Q773 -172 817 -189T891 -238T938 -314T955 -410Q955 -488 917 -561T816 -696T672 -811T505 -905L341 -983Z"  />
<glyph unicode="&#x158;" horiz-adv-x="2744" d="M2028 0L1446 954Q1418 1000 1395 1034T1350 1092T1305 1132T1254 1156T1189 1168T1106 1171H942V0H369V2966H1376Q1631 2966 1827 2913T2155 2751T2356 2477T2425 2085Q2425 1916 2377 1780T2248 1543T2060 1374T1835 1274Q1900 1243 1952 1194T2048 1073L2703 0H2028ZM1323 1610Q1441 1610 1536 1638T1697 1726T1799 1874T1835 2085Q1835 2193 1800 2274T1699 2409T1538 2491T1323 2519H942V1610H1323ZM1118 3162L684 3810H1093L1372 3470L1654 3810H2064L1630 3162H1118Z"  />
<glyph unicode="&#x159;" horiz-adv-x="1667" d="M336 0V2101H864L885 1839Q931 1910 987 1969T1111 2072T1258 2139T1430 2163Q1473 2163 1520 2157T1602 2138V1602Q1559 1611 1528 1616T1467 1625T1406 1629T1331 1630Q1285 1630 1243 1625T1161 1609T1085 1585T1016 1552T954 1511T897 1462V0H336ZM709 2408L275 3056H684L963 2716L1245 3056H1655L1221 2408H709Z"  />
<glyph unicode="&#x15A;" horiz-adv-x="2540" d="M205 582Q277 546 376 517T589 466T826 434T1069 422Q1232 422 1353 448T1555 526T1676 653T1716 827Q1716 882 1703 928T1662 1014T1586 1087T1472 1151T1314 1208T1106 1262Q968 1294 849 1336T631 1434T456 1560T328 1719T248 1916T221 2154Q221 2284 246 2399T326 2612T470 2787T685 2919T980 3002T1364 3031Q1490 3031 1611 3020T1839 2987T2036 2933T2191 2859V2384Q2117 2419 2021 2448T1815 2499T1591 2532T1364 2544Q1232 2544 1133 2518T968 2441T869 2319T836 2154Q836 2098 849 2052T891 1968T968 1898T1083 1838T1242 1784T1450 1733Q1595 1701 1717 1659T1938 1560T2110 1432T2235 1273T2310 1077T2335 840Q2335 709 2304 591T2209 372T2046 190T1812 52T1504 -35T1118 -66Q971 -66 835 -54T580 -20T367 34T205 106V582ZM987 3162L1372 3810H2019L1413 3162H987Z"  />
<glyph unicode="&#x15B;" horiz-adv-x="1991" d="M188 524Q224 508 273 493T380 464T501 439T629 419T757 406T877 401Q970 401 1044 411T1169 445T1247 505T1274 594Q1274 648 1251 684T1179 748T1051 799T864 848Q690 889 566 945T363 1081T246 1268T209 1516Q209 1660 259 1779T417 1984T692 2116T1094 2163Q1155 2163 1219 2159T1347 2145T1471 2124T1584 2096T1680 2062T1753 2023V1573Q1716 1590 1668 1606T1563 1636T1447 1662T1325 1682T1205 1695T1094 1700Q1026 1700 970 1690T872 1657T809 1600T786 1516Q786 1462 809 1427T881 1365T1007 1318T1192 1270Q1364 1228 1488 1172T1693 1037T1812 852T1851 602Q1851 459 1791 338T1613 128T1319 -11T913 -61Q807 -61 699 -51T493 -22T316 21T188 74V524ZM774 2408L1159 3056H1806L1200 2408H774Z"  />
<glyph unicode="&#x15C;" horiz-adv-x="2540" d="M205 582Q277 546 376 517T589 466T826 434T1069 422Q1232 422 1353 448T1555 526T1676 653T1716 827Q1716 882 1703 928T1662 1014T1586 1087T1472 1151T1314 1208T1106 1262Q968 1294 849 1336T631 1434T456 1560T328 1719T248 1916T221 2154Q221 2284 246 2399T326 2612T470 2787T685 2919T980 3002T1364 3031Q1490 3031 1611 3020T1839 2987T2036 2933T2191 2859V2384Q2117 2419 2021 2448T1815 2499T1591 2532T1364 2544Q1232 2544 1133 2518T968 2441T869 2319T836 2154Q836 2098 849 2052T891 1968T968 1898T1083 1838T1242 1784T1450 1733Q1595 1701 1717 1659T1938 1560T2110 1432T2235 1273T2310 1077T2335 840Q2335 709 2304 591T2209 372T2046 190T1812 52T1504 -35T1118 -66Q971 -66 835 -54T580 -20T367 34T205 106V582ZM1553 3162L1270 3498L991 3162H582L1016 3810H1528L1962 3162H1553Z"  />
<glyph unicode="&#x15D;" horiz-adv-x="1991" d="M188 524Q224 508 273 493T380 464T501 439T629 419T757 406T877 401Q970 401 1044 411T1169 445T1247 505T1274 594Q1274 648 1251 684T1179 748T1051 799T864 848Q690 889 566 945T363 1081T246 1268T209 1516Q209 1660 259 1779T417 1984T692 2116T1094 2163Q1155 2163 1219 2159T1347 2145T1471 2124T1584 2096T1680 2062T1753 2023V1573Q1716 1590 1668 1606T1563 1636T1447 1662T1325 1682T1205 1695T1094 1700Q1026 1700 970 1690T872 1657T809 1600T786 1516Q786 1462 809 1427T881 1365T1007 1318T1192 1270Q1364 1228 1488 1172T1693 1037T1812 852T1851 602Q1851 459 1791 338T1613 128T1319 -11T913 -61Q807 -61 699 -51T493 -22T316 21T188 74V524ZM1340 2408L1057 2744L778 2408H369L803 3056H1315L1749 2408H1340Z"  />
<glyph unicode="&#x15E;" horiz-adv-x="2540" d="M811 -586Q851 -595 893 -600T991 -606Q1028 -606 1063 -599T1126 -577T1171 -537T1188 -479Q1188 -442 1163 -413T1096 -361T1001 -326T893 -307L1036 -66Q901 -63 778 -50T547 -14T353 39T205 106V582Q277 546 376 517T589 466T826 434T1069 422Q1232 422 1353 448T1555 526T1676 653T1716 827Q1716 882 1703 928T1662 1014T1586 1087T1472 1151T1314 1208T1106 1262Q968 1294 849 1336T631 1434T456 1560T328 1719T248 1916T221 2154Q221 2284 246 2399T326 2612T470 2787T685 2919T980 3002T1364 3031Q1490 3031 1611 3020T1839 2987T2036 2933T2191 2859V2384Q2117 2419 2021 2448T1815 2499T1591 2532T1364 2544Q1232 2544 1133 2518T968 2441T869 2319T836 2154Q836 2098 849 2052T891 1968T968 1898T1083 1838T1242 1784T1450 1733Q1595 1701 1717 1659T1938 1560T2110 1432T2235 1273T2310 1077T2335 840Q2335 662 2277 508T2097 236T1787 42T1339 -57L1274 -197Q1335 -203 1391 -228T1489 -295T1556 -389T1581 -504Q1581 -598 1539 -668T1425 -784T1254 -854T1044 -877Q976 -877 919 -869T811 -848V-586Z"  />
<glyph unicode="&#x15F;" horiz-adv-x="1991" d="M610 -586Q651 -595 693 -600T791 -606Q828 -606 863 -599T925 -577T970 -537T987 -479Q987 -442 962 -413T895 -361T801 -326T692 -307L836 -61Q737 -57 640 -45T457 -16T301 25T188 74V524Q224 508 273 493T380 464T501 439T629 419T757 406T877 401Q970 401 1044 411T1169 445T1247 505T1274 594Q1274 648 1251 684T1179 748T1051 799T864 848Q690 889 566 945T363 1081T246 1268T209 1516Q209 1660 259 1779T417 1984T692 2116T1094 2163Q1155 2163 1219 2159T1347 2145T1471 2124T1584 2096T1680 2062T1753 2023V1573Q1716 1590 1668 1606T1563 1636T1447 1662T1325 1682T1205 1695T1094 1700Q1026 1700 970 1690T872 1657T809 1600T786 1516Q786 1462 809 1427T881 1365T1007 1318T1192 1270Q1364 1228 1488 1172T1693 1037T1812 852T1851 602Q1851 477 1806 369T1671 177T1449 35T1143 -45L1073 -197Q1134 -203 1190 -228T1288 -295T1355 -389T1380 -504Q1380 -598 1339 -668T1225 -784T1054 -854T844 -877Q776 -877 718 -869T610 -848V-586Z"  />
<glyph unicode="&#x160;" horiz-adv-x="2540" d="M205 582Q277 546 376 517T589 466T826 434T1069 422Q1232 422 1353 448T1555 526T1676 653T1716 827Q1716 882 1703 928T1662 1014T1586 1087T1472 1151T1314 1208T1106 1262Q968 1294 849 1336T631 1434T456 1560T328 1719T248 1916T221 2154Q221 2284 246 2399T326 2612T470 2787T685 2919T980 3002T1364 3031Q1490 3031 1611 3020T1839 2987T2036 2933T2191 2859V2384Q2117 2419 2021 2448T1815 2499T1591 2532T1364 2544Q1232 2544 1133 2518T968 2441T869 2319T836 2154Q836 2098 849 2052T891 1968T968 1898T1083 1838T1242 1784T1450 1733Q1595 1701 1717 1659T1938 1560T2110 1432T2235 1273T2310 1077T2335 840Q2335 709 2304 591T2209 372T2046 190T1812 52T1504 -35T1118 -66Q971 -66 835 -54T580 -20T367 34T205 106V582ZM1012 3162L578 3810H987L1266 3470L1548 3810H1958L1524 3162H1012Z"  />
<glyph unicode="&#x161;" horiz-adv-x="1991" d="M188 524Q224 508 273 493T380 464T501 439T629 419T757 406T877 401Q970 401 1044 411T1169 445T1247 505T1274 594Q1274 648 1251 684T1179 748T1051 799T864 848Q690 889 566 945T363 1081T246 1268T209 1516Q209 1660 259 1779T417 1984T692 2116T1094 2163Q1155 2163 1219 2159T1347 2145T1471 2124T1584 2096T1680 2062T1753 2023V1573Q1716 1590 1668 1606T1563 1636T1447 1662T1325 1682T1205 1695T1094 1700Q1026 1700 970 1690T872 1657T809 1600T786 1516Q786 1462 809 1427T881 1365T1007 1318T1192 1270Q1364 1228 1488 1172T1693 1037T1812 852T1851 602Q1851 459 1791 338T1613 128T1319 -11T913 -61Q807 -61 699 -51T493 -22T316 21T188 74V524ZM799 2408L365 3056H774L1053 2716L1335 3056H1745L1311 2408H799Z"  />
<glyph unicode="&#x162;" horiz-adv-x="2273" d="M848 0V2490H82V2966H2191V2490H1425V0H848ZM860 -983L676 -791L954 -494L872 -172H1237Q1292 -172 1336 -189T1410 -238T1457 -314T1474 -410Q1474 -488 1436 -561T1335 -696T1191 -811T1024 -905L860 -983Z"  />
<glyph unicode="&#x163;" horiz-adv-x="1757" d="M1659 25Q1600 3 1540 -13T1417 -39T1288 -55T1151 -61Q933 -61 791 -10T566 139T451 377T418 696V1634H90V2101H418V2753H979V2101H1667V1634H979V733Q979 653 991 595T1039 500T1135 444T1294 426Q1342 426 1388 428T1479 435T1569 447T1659 463V25ZM807 -983L623 -791L901 -494L819 -172H1184Q1239 -172 1283 -189T1357 -238T1404 -314T1421 -410Q1421 -488 1383 -561T1282 -696T1138 -811T971 -905L807 -983Z"  />
<glyph unicode="&#x164;" horiz-adv-x="2273" d="M848 0V2490H82V2966H2191V2490H1425V0H848ZM877 3162L443 3810H852L1131 3470L1413 3810H1823L1389 3162H877Z"  />
<glyph unicode="&#x165;" horiz-adv-x="1757" d="M1659 25Q1600 3 1540 -13T1417 -39T1288 -55T1151 -61Q933 -61 791 -10T566 139T451 377T418 696V1634H90V2101H418V2753H979V2101H1667V1634H979V733Q979 653 991 595T1039 500T1135 444T1294 426Q1342 426 1388 428T1479 435T1569 447T1659 463V25ZM1228 2359L1380 2834L1253 3252H1618Q1669 3252 1713 3237T1789 3194T1840 3124T1859 3031Q1859 2971 1837 2906T1780 2771T1699 2627T1605 2474L1536 2359H1228Z"  />
<glyph unicode="&#x166;" horiz-adv-x="2273" d="M848 0V1151H328V1593H848V2490H82V2966H2191V2490H1425V1593H1946V1151H1425V0H848Z"  />
<glyph unicode="&#x167;" horiz-adv-x="1757" d="M1659 25Q1600 3 1540 -13T1417 -39T1288 -55T1151 -61Q933 -61 791 -10T566 139T451 377T418 696V852H172V1257H418V1634H90V2101H418V2753H979V2101H1667V1634H979V1257H1430V852H979V733Q979 653 991 595T1039 500T1135 444T1294 426Q1342 426 1388 428T1479 435T1569 447T1659 463V25Z"  />
<glyph unicode="&#x168;" horiz-adv-x="2941" d="M2044 2966H2621V1012Q2621 861 2603 722T2536 463T2406 246T2195 79T1889 -28T1470 -66Q1231 -66 1053 -28T746 79T536 245T405 463T338 721T319 1012V2966H897V1094Q897 903 929 775T1030 568T1208 456T1470 422Q1624 422 1733 455T1911 567T2012 774T2044 1094V2966ZM2245 3769Q2245 3629 2208 3519T2104 3333T1946 3216T1749 3175Q1688 3175 1635 3189T1535 3224T1446 3271T1365 3317T1288 3353T1213 3367Q1170 3367 1137 3355T1082 3320T1047 3264T1033 3187H697Q697 3327 733 3437T835 3623T989 3740T1184 3781Q1245 3781 1299 3767T1401 3731T1492 3685T1575 3638T1653 3603T1729 3588Q1772 3588 1805 3599T1862 3634T1897 3690T1909 3769H2245Z"  />
<glyph unicode="&#x169;" horiz-adv-x="2531" d="M1708 0L1663 168Q1601 111 1534 68T1391 -6T1229 -51T1044 -66Q911 -66 803 -41T611 33T466 151T365 309T306 501T287 725V2101H848V799Q848 702 872 631T945 512T1066 441T1233 418Q1290 418 1343 425T1447 447T1544 481T1634 528V2101H2195V0H1708ZM2015 3015Q2015 2875 1978 2765T1874 2579T1716 2462T1519 2421Q1458 2421 1405 2435T1305 2470T1216 2517T1135 2563T1058 2599T983 2613Q940 2613 907 2601T852 2566T817 2510T803 2433H467Q467 2573 503 2683T605 2869T759 2986T954 3027Q1015 3027 1069 3013T1171 2977T1262 2931T1345 2884T1423 2849T1499 2834Q1542 2834 1575 2845T1632 2880T1667 2936T1679 3015H2015Z"  />
<glyph unicode="&#x16A;" horiz-adv-x="2941" d="M2044 2966H2621V1012Q2621 861 2603 722T2536 463T2406 246T2195 79T1889 -28T1470 -66Q1231 -66 1053 -28T746 79T536 245T405 463T338 721T319 1012V2966H897V1094Q897 903 929 775T1030 568T1208 456T1470 422Q1624 422 1733 455T1911 567T2012 774T2044 1094V2966ZM844 3257V3683H2098V3257H844Z"  />
<glyph unicode="&#x16B;" horiz-adv-x="2531" d="M1708 0L1663 168Q1601 111 1534 68T1391 -6T1229 -51T1044 -66Q911 -66 803 -41T611 33T466 151T365 309T306 501T287 725V2101H848V799Q848 702 872 631T945 512T1066 441T1233 418Q1290 418 1343 425T1447 447T1544 481T1634 528V2101H2195V0H1708ZM614 2503V2929H1868V2503H614Z"  />
<glyph unicode="&#x16C;" horiz-adv-x="2941" d="M2044 2966H2621V1012Q2621 861 2603 722T2536 463T2406 246T2195 79T1889 -28T1470 -66Q1231 -66 1053 -28T746 79T536 245T405 463T338 721T319 1012V2966H897V1094Q897 903 929 775T1030 568T1208 456T1470 422Q1624 422 1733 455T1911 567T2012 774T2044 1094V2966ZM2167 3810Q2161 3673 2114 3552T1980 3339T1766 3195T1471 3142Q1303 3142 1176 3195T961 3339T828 3551T775 3810H1127Q1131 3754 1154 3701T1220 3605T1325 3537T1471 3511Q1554 3511 1615 3537T1719 3606T1783 3702T1811 3810H2167Z"  />
<glyph unicode="&#x16D;" horiz-adv-x="2531" d="M1708 0L1663 168Q1601 111 1534 68T1391 -6T1229 -51T1044 -66Q911 -66 803 -41T611 33T466 151T365 309T306 501T287 725V2101H848V799Q848 702 872 631T945 512T1066 441T1233 418Q1290 418 1343 425T1447 447T1544 481T1634 528V2101H2195V0H1708ZM1937 3056Q1931 2919 1884 2798T1750 2585T1536 2441T1241 2388Q1073 2388 946 2441T731 2585T598 2797T545 3056H897Q901 3000 924 2947T990 2851T1095 2783T1241 2757Q1324 2757 1385 2783T1489 2852T1553 2948T1581 3056H1937Z"  />
<glyph unicode="&#x16E;" horiz-adv-x="2941" d="M2044 2966H2621V1012Q2621 861 2603 722T2536 463T2406 246T2195 79T1889 -28T1470 -66Q1231 -66 1053 -28T746 79T536 245T405 463T338 721T319 1012V2966H897V1094Q897 903 929 775T1030 568T1208 456T1470 422Q1624 422 1733 455T1911 567T2012 774T2044 1094V2966ZM1962 3547Q1962 3447 1925 3362T1821 3214T1665 3116T1471 3080Q1366 3080 1276 3115T1120 3213T1017 3361T979 3547Q979 3647 1016 3732T1120 3880T1276 3978T1471 4014Q1575 4014 1665 3979T1821 3881T1924 3733T1962 3547ZM1471 3342Q1516 3342 1553 3358T1616 3403T1657 3468T1672 3547Q1672 3587 1658 3623T1617 3687T1553 3731T1471 3748Q1426 3748 1389 3732T1324 3688T1282 3624T1266 3547Q1266 3505 1281 3468T1324 3403T1388 3359T1471 3342Z"  />
<glyph unicode="&#x16F;" horiz-adv-x="2531" d="M1708 0L1663 168Q1601 111 1534 68T1391 -6T1229 -51T1044 -66Q911 -66 803 -41T611 33T466 151T365 309T306 501T287 725V2101H848V799Q848 702 872 631T945 512T1066 441T1233 418Q1290 418 1343 425T1447 447T1544 481T1634 528V2101H2195V0H1708ZM1732 2859Q1732 2759 1695 2674T1591 2526T1435 2428T1241 2392Q1136 2392 1046 2427T890 2525T787 2673T749 2859Q749 2959 786 3044T890 3192T1046 3290T1241 3326Q1345 3326 1435 3291T1591 3193T1694 3045T1732 2859ZM1241 2654Q1286 2654 1323 2670T1386 2715T1427 2780T1442 2859Q1442 2899 1428 2935T1387 2999T1323 3043T1241 3060Q1196 3060 1159 3044T1094 3000T1052 2936T1036 2859Q1036 2817 1051 2780T1094 2715T1158 2671T1241 2654Z"  />
<glyph unicode="&#x170;" horiz-adv-x="2941" d="M2044 2966H2621V1012Q2621 861 2603 722T2536 463T2406 246T2195 79T1889 -28T1470 -66Q1231 -66 1053 -28T746 79T536 245T405 463T338 721T319 1012V2966H897V1094Q897 903 929 775T1030 568T1208 456T1470 422Q1624 422 1733 455T1911 567T2012 774T2044 1094V2966ZM881 3162L1143 3810H1733L1290 3162H881ZM1655 3162L1917 3810H2507L2065 3162H1655Z"  />
<glyph unicode="&#x171;" horiz-adv-x="2531" d="M1708 0L1663 168Q1601 111 1534 68T1391 -6T1229 -51T1044 -66Q911 -66 803 -41T611 33T466 151T365 309T306 501T287 725V2101H848V799Q848 702 872 631T945 512T1066 441T1233 418Q1290 418 1343 425T1447 447T1544 481T1634 528V2101H2195V0H1708ZM651 2408L913 3056H1503L1060 2408H651ZM1425 2408L1687 3056H2277L1835 2408H1425Z"  />
<glyph unicode="&#x172;" horiz-adv-x="2941" d="M1843 -852Q1794 -864 1738 -870T1622 -877Q1496 -877 1397 -853T1230 -780T1126 -661T1090 -496Q1090 -421 1113 -359T1176 -244T1271 -148T1389 -66Q1167 -59 1001 -17T717 95T521 262T399 476T337 729T319 1012V2966H897V1094Q897 903 929 775T1030 568T1208 456T1470 422Q1624 422 1733 455T1911 567T2012 774T2044 1094V2966H2621V1012Q2621 885 2608 768T2564 546T2478 351T2342 187T2145 59T1880 -29Q1780 -50 1709 -93T1592 -188T1525 -297T1503 -401Q1503 -478 1554 -525T1712 -573Q1735 -573 1752 -572T1785 -568T1814 -563T1843 -557V-852Z"  />
<glyph unicode="&#x173;" horiz-adv-x="2531" d="M2134 -852Q2084 -864 2028 -870T1913 -877Q1787 -877 1688 -851T1521 -773T1416 -648T1380 -479Q1380 -406 1407 -339T1479 -212T1584 -99T1708 0L1663 168Q1601 111 1534 68T1391 -6T1229 -51T1044 -66Q911 -66 803 -41T611 33T466 151T365 309T306 501T287 725V2101H848V799Q848 702 872 631T945 512T1066 441T1233 418Q1290 418 1343 425T1447 447T1544 481T1634 528V2101H2195V0H2015Q1964 -52 1924 -104T1854 -208T1810 -308T1794 -401Q1794 -478 1845 -525T2003 -573Q2026 -573 2043 -572T2076 -568T2105 -563T2134 -557V-852Z"  />
<glyph unicode="&#x174;" horiz-adv-x="4321" d="M2724 0L2228 1892Q2220 1918 2212 1953T2195 2032T2177 2123T2159 2224Q2150 2172 2141 2124T2123 2032T2107 1954T2093 1892L1597 0H942L49 2966H664L1171 1053Q1180 1017 1191 967T1213 858T1235 732T1257 598Q1269 665 1282 731T1309 857T1335 967T1356 1053L1872 2966H2449L2966 1053Q2975 1017 2987 967T3012 858T3038 732T3064 598Q3073 665 3083 731T3105 857T3127 967T3150 1053L3658 2966H4272L3379 0H2724ZM2442 3162L2159 3498L1880 3162H1471L1905 3810H2417L2851 3162H2442Z"  />
<glyph unicode="&#x175;" horiz-adv-x="3346" d="M2060 0L1745 1114Q1720 1192 1702 1270T1671 1430Q1656 1352 1638 1272T1597 1114L1278 0H717L33 2101H618L934 950Q952 882 970 797T1004 623Q1022 712 1041 797T1081 950L1409 2101H1937L2257 950Q2275 876 2295 790T2335 610Q2350 703 2368 791T2408 950L2732 2101H3314L2626 0H2060ZM1954 2408L1671 2744L1392 2408H983L1417 3056H1929L2363 2408H1954Z"  />
<glyph unicode="&#x176;" horiz-adv-x="2617" d="M1020 0V1126L16 2966H684L1122 2032Q1150 1972 1176 1915T1225 1804T1269 1698T1307 1597Q1324 1646 1344 1698T1388 1804T1439 1915T1495 2032L1933 2966H2601L1597 1126V0H1020ZM1598 3162L1315 3498L1036 3162H627L1061 3810H1573L2007 3162H1598Z"  />
<glyph unicode="&#x177;" horiz-adv-x="2150" d="M0 -471Q46 -480 92 -483T188 -487Q262 -487 326 -480T446 -455T550 -406T640 -326T718 -211T786 -53L795 -33L16 2101H627L1008 860Q1026 795 1046 711T1081 537Q1100 626 1121 710T1163 860L1565 2101H2134L1380 -20Q1319 -191 1251 -327T1104 -567T933 -746T732 -867T494 -936T213 -958Q185 -958 156 -956T98 -950T44 -941T0 -930V-471ZM1369 2408L1086 2744L807 2408H398L832 3056H1344L1778 2408H1369Z"  />
<glyph unicode="&#x178;" horiz-adv-x="2617" d="M1020 0V1126L16 2966H684L1122 2032Q1150 1972 1176 1915T1225 1804T1269 1698T1307 1597Q1324 1646 1344 1698T1388 1804T1439 1915T1495 2032L1933 2966H2601L1597 1126V0H1020ZM639 3236V3736H1176V3236H639ZM1454 3236V3736H1991V3236H1454Z"  />
<glyph unicode="&#x179;" horiz-adv-x="2499" d="M156 0V442L1610 2490H205V2966H2281V2523L831 475H2343V0H156ZM963 3162L1348 3810H1995L1389 3162H963Z"  />
<glyph unicode="&#x17A;" horiz-adv-x="2105" d="M180 0V344L1184 1634H205V2101H1925V1757L918 467H1966V0H180ZM791 2408L1176 3056H1823L1217 2408H791Z"  />
<glyph unicode="&#x17B;" horiz-adv-x="2499" d="M156 0V442L1610 2490H205V2966H2281V2523L831 475H2343V0H156ZM958 3236V3769H1528V3236H958Z"  />
<glyph unicode="&#x17C;" horiz-adv-x="2105" d="M180 0V344L1184 1634H205V2101H1925V1757L918 467H1966V0H180ZM786 2482V3015H1356V2482H786Z"  />
<glyph unicode="&#x17D;" horiz-adv-x="2499" d="M156 0V442L1610 2490H205V2966H2281V2523L831 475H2343V0H156ZM987 3162L553 3810H962L1241 3470L1523 3810H1933L1499 3162H987Z"  />
<glyph unicode="&#x17E;" horiz-adv-x="2105" d="M180 0V344L1184 1634H205V2101H1925V1757L918 467H1966V0H180ZM815 2408L381 3056H790L1069 2716L1351 3056H1761L1327 2408H815Z"  />
<glyph unicode="&#x192;" horiz-adv-x="2716" d="M1597 1323L1483 598Q1440 325 1343 135T1104 -175T780 -347T385 -401Q356 -401 324 -398T260 -391T203 -380T160 -365L229 86Q244 83 262 80T301 75T347 72T401 70Q501 70 587 102T740 204T855 381T926 639L1032 1323H401L475 1790H1106L1180 2241Q1212 2440 1294 2584T1501 2823T1791 2961T2154 3006Q2195 3006 2235 3004T2312 2999T2385 2990T2453 2979T2514 2965T2568 2949L2499 2515Q2473 2521 2438 2527T2362 2537T2273 2545T2175 2548Q2080 2548 2005 2527T1876 2459T1786 2339T1733 2163L1671 1790H2417L2343 1323H1597Z"  />
<glyph unicode="&#x218;" horiz-adv-x="2540" d="M205 582Q277 546 376 517T589 466T826 434T1069 422Q1232 422 1353 448T1555 526T1676 653T1716 827Q1716 882 1703 928T1662 1014T1586 1087T1472 1151T1314 1208T1106 1262Q968 1294 849 1336T631 1434T456 1560T328 1719T248 1916T221 2154Q221 2284 246 2399T326 2612T470 2787T685 2919T980 3002T1364 3031Q1490 3031 1611 3020T1839 2987T2036 2933T2191 2859V2384Q2117 2419 2021 2448T1815 2499T1591 2532T1364 2544Q1232 2544 1133 2518T968 2441T869 2319T836 2154Q836 2098 849 2052T891 1968T968 1898T1083 1838T1242 1784T1450 1733Q1595 1701 1717 1659T1938 1560T2110 1432T2235 1273T2310 1077T2335 840Q2335 709 2304 591T2209 372T2046 190T1812 52T1504 -35T1118 -66Q971 -66 835 -54T580 -20T367 34T205 106V582ZM946 -983L762 -791L1040 -494L958 -172H1323Q1378 -172 1422 -189T1496 -238T1543 -314T1560 -410Q1560 -488 1522 -561T1421 -696T1277 -811T1110 -905L946 -983Z"  />
<glyph unicode="&#x219;" horiz-adv-x="1991" d="M188 524Q224 508 273 493T380 464T501 439T629 419T757 406T877 401Q970 401 1044 411T1169 445T1247 505T1274 594Q1274 648 1251 684T1179 748T1051 799T864 848Q690 889 566 945T363 1081T246 1268T209 1516Q209 1660 259 1779T417 1984T692 2116T1094 2163Q1155 2163 1219 2159T1347 2145T1471 2124T1584 2096T1680 2062T1753 2023V1573Q1716 1590 1668 1606T1563 1636T1447 1662T1325 1682T1205 1695T1094 1700Q1026 1700 970 1690T872 1657T809 1600T786 1516Q786 1462 809 1427T881 1365T1007 1318T1192 1270Q1364 1228 1488 1172T1693 1037T1812 852T1851 602Q1851 459 1791 338T1613 128T1319 -11T913 -61Q807 -61 699 -51T493 -22T316 21T188 74V524ZM745 -983L561 -791L839 -494L757 -172H1122Q1177 -172 1221 -189T1295 -238T1342 -314T1359 -410Q1359 -488 1321 -561T1220 -696T1076 -811T909 -905L745 -983Z"  />
<glyph unicode="&#x21A;" horiz-adv-x="2273" d="M848 0V2490H82V2966H2191V2490H1425V0H848ZM860 -983L676 -791L954 -494L872 -172H1237Q1292 -172 1336 -189T1410 -238T1457 -314T1474 -410Q1474 -488 1436 -561T1335 -696T1191 -811T1024 -905L860 -983Z"  />
<glyph unicode="&#x21B;" horiz-adv-x="1757" d="M1659 25Q1600 3 1540 -13T1417 -39T1288 -55T1151 -61Q933 -61 791 -10T566 139T451 377T418 696V1634H90V2101H418V2753H979V2101H1667V1634H979V733Q979 653 991 595T1039 500T1135 444T1294 426Q1342 426 1388 428T1479 435T1569 447T1659 463V25ZM807 -983L623 -791L901 -494L819 -172H1184Q1239 -172 1283 -189T1357 -238T1404 -314T1421 -410Q1421 -488 1383 -561T1282 -696T1138 -811T971 -905L807 -983Z"  />
<glyph unicode="&#x237;" horiz-adv-x="1233" d="M-274 -471Q-243 -477 -202 -482T-102 -487Q-2 -487 79 -456T217 -357T305 -180T336 82V2101H897V86Q897 -187 830 -384T640 -709T342 -897T-45 -958Q-74 -958 -106 -955T-170 -948T-228 -937T-274 -922V-471Z"  />
<glyph unicode="&#x2C6;" horiz-adv-x="1868" d="M1217 2408L934 2744L655 2408H246L680 3056H1192L1626 2408H1217Z"  />
<glyph unicode="&#x2C7;" horiz-adv-x="1868" d="M676 2408L242 3056H651L930 2716L1212 3056H1622L1188 2408H676Z"  />
<glyph unicode="&#x2D8;" horiz-adv-x="1868" d="M1630 3056Q1624 2919 1577 2798T1443 2585T1229 2441T934 2388Q766 2388 639 2441T424 2585T291 2797T238 3056H590Q594 3000 617 2947T683 2851T788 2783T934 2757Q1017 2757 1078 2783T1182 2852T1246 2948T1274 3056H1630Z"  />
<glyph unicode="&#x2D9;" horiz-adv-x="1868" d="M647 2482V3015H1217V2482H647Z"  />
<glyph unicode="&#x2DA;" horiz-adv-x="1868" d="M1425 2859Q1425 2759 1388 2674T1284 2526T1128 2428T934 2392Q829 2392 739 2427T583 2525T480 2673T442 2859Q442 2959 479 3044T583 3192T739 3290T934 3326Q1038 3326 1128 3291T1284 3193T1387 3045T1425 2859ZM934 2654Q979 2654 1016 2670T1079 2715T1120 2780T1135 2859Q1135 2899 1121 2935T1080 2999T1016 3043T934 3060Q889 3060 852 3044T787 3000T745 2936T729 2859Q729 2817 744 2780T787 2715T851 2671T934 2654Z"  />
<glyph unicode="&#x2DB;" horiz-adv-x="1868" d="M1257 -852Q1208 -864 1152 -870T1036 -877Q910 -877 811 -851T644 -773T540 -648T504 -479Q504 -398 537 -325T625 -187T749 -65T889 41H1180Q1121 -18 1073 -76T991 -191T937 -300T918 -401Q918 -478 968 -525T1126 -573Q1149 -573 1167 -572T1200 -568T1228 -563T1257 -557V-852Z"  />
<glyph unicode="&#x2DC;" horiz-adv-x="1868" d="M1708 3015Q1708 2875 1671 2765T1567 2579T1409 2462T1212 2421Q1151 2421 1098 2435T998 2470T909 2517T828 2563T751 2599T676 2613Q633 2613 600 2601T545 2566T510 2510T496 2433H160Q160 2573 196 2683T298 2869T452 2986T647 3027Q708 3027 762 3013T864 2977T955 2931T1038 2884T1116 2849T1192 2834Q1235 2834 1268 2845T1325 2880T1360 2936T1372 3015H1708Z"  />
<glyph unicode="&#x2DD;" horiz-adv-x="1868" d="M119 2408L381 3056H971L528 2408H119ZM893 2408L1155 3056H1745L1303 2408H893Z"  />
<glyph unicode="&#x312;" horiz-adv-x="1868" d="M844 2408Q788 2408 744 2425T670 2474T623 2550T606 2646Q606 2726 644 2799T745 2938T889 3057T1057 3154L1221 3232L1405 3039L1122 2732L1208 2408H844Z"  />
<glyph unicode="&#x315;" horiz-adv-x="1868" d="M618 2212L770 2687L643 3105H1008Q1059 3105 1103 3090T1179 3047T1230 2977T1249 2884Q1249 2824 1227 2759T1170 2624T1089 2480T995 2327L926 2212H618Z"  />
<glyph unicode="&#x326;" horiz-adv-x="1868" d="M684 -983L500 -791L778 -494L696 -172H1061Q1116 -172 1160 -189T1234 -238T1281 -314T1298 -410Q1298 -488 1260 -561T1159 -696T1015 -811T848 -905L684 -983Z"  />
<glyph unicode="&#x384;" horiz-adv-x="1868" d="M614 3146H1253L1057 2372H811L614 3146Z"  />
<glyph unicode="&#x385;" horiz-adv-x="1868" d="M94 2982H508V2482H94V2982ZM623 3146H1245L1032 2372H836L623 3146ZM1360 2982H1774V2482H1360V2982Z"  />
<glyph unicode="&#x386;" horiz-adv-x="2822" d="M2171 0L1958 639H831L623 0H33L1102 2966H1720L2789 0H2171ZM1536 1917Q1493 2050 1458 2182T1397 2454Q1372 2314 1337 2182T1257 1917L987 1106H1802L1536 1917ZM74 3130H713L517 2356H271L74 3130Z"  />
<glyph unicode="&#x388;" horiz-adv-x="2920" d="M811 0V2966H2683V2490H1388V1757H2502V1282H1388V475H2699V0H811ZM-32 3130H607L411 2356H165L-32 3130Z"  />
<glyph unicode="&#x389;" horiz-adv-x="3506" d="M2560 0V1286H1388V0H811V2966H1388V1761H2560V2966H3137V0H2560ZM-32 3130H607L411 2356H165L-32 3130Z"  />
<glyph unicode="&#x38A;" horiz-adv-x="2314" d="M811 0V459H1151V2507H811V2966H2068V2507H1728V459H2068V0H811ZM-32 3130H607L411 2356H165L-32 3130Z"  />
<glyph unicode="&#x38C;" horiz-adv-x="3441" d="M1913 -66Q1655 -66 1459 -10T1118 147T877 390T722 704T639 1074T614 1483Q614 1695 641 1892T729 2261T888 2575T1131 2818T1469 2975T1913 3031Q2171 3031 2367 2975T2708 2818T2949 2575T3104 2261T3186 1892T3211 1483Q3211 1271 3184 1074T3097 705T2937 391T2694 148T2356 -10T1913 -66ZM1913 422Q2037 422 2137 454T2314 548T2448 702T2541 911T2595 1172T2613 1483Q2613 1650 2596 1793T2542 2054T2449 2263T2315 2417T2137 2511T1913 2544Q1789 2544 1689 2512T1511 2417T1377 2264T1284 2055T1230 1794T1212 1483Q1212 1316 1229 1173T1283 911T1376 702T1511 549T1689 454T1913 422ZM-32 3130H607L411 2356H165L-32 3130Z"  />
<glyph unicode="&#x38E;" horiz-adv-x="3322" d="M1725 0V1126L721 2966H1389L1827 2032Q1855 1972 1881 1915T1930 1804T1974 1698T2012 1597Q2029 1646 2049 1698T2093 1804T2144 1915T2200 2032L2638 2966H3306L2302 1126V0H1725ZM-32 3130H607L411 2356H165L-32 3130Z"  />
<glyph unicode="&#x38F;" horiz-adv-x="3494" d="M2073 0V365Q2202 449 2302 565T2470 828T2574 1153T2610 1540Q2610 1686 2594 1817T2542 2060T2452 2261T2318 2414T2139 2510T1909 2544Q1781 2544 1680 2511T1500 2414T1367 2262T1277 2061T1226 1818T1209 1540Q1209 1331 1244 1153T1348 828T1516 565T1745 365V0H537V475H1053Q953 564 872 676T732 929T643 1238T611 1610Q611 1791 643 1967T742 2301T914 2592T1163 2823T1493 2976T1909 3031Q2144 3031 2332 2978T2664 2828T2912 2600T3080 2310T3177 1974T3208 1610Q3208 1407 3176 1238T3086 929T2945 677T2761 475H3281V0H2073ZM-32 3130H607L411 2356H165L-32 3130Z"  />
<glyph unicode="&#x390;" horiz-adv-x="1360" d="M852 -33Q717 -33 619 4T457 112T363 285T332 516V2101H893V590Q893 550 901 523T928 478T975 454T1044 446Q1091 446 1136 450T1229 463V16Q1194 4 1153 -5T1064 -20T963 -30T852 -33ZM-212 2982H202V2482H-212V2982ZM317 3146H939L726 2372H530L317 3146ZM1054 2982H1468V2482H1054V2982Z"  />
<glyph unicode="&#x391;" horiz-adv-x="2822" d="M2171 0L1958 639H831L623 0H33L1102 2966H1720L2789 0H2171ZM1536 1917Q1493 2050 1458 2182T1397 2454Q1372 2314 1337 2182T1257 1917L987 1106H1802L1536 1917Z"  />
<glyph unicode="&#x392;" horiz-adv-x="2703" d="M369 0V2966H1372Q1619 2966 1802 2914T2107 2762T2287 2516T2347 2183Q2347 2066 2325 1970T2259 1795T2154 1656T2011 1548Q2125 1499 2214 1427T2364 1261T2458 1053T2490 807Q2490 687 2465 581T2386 385T2250 224T2054 103T1794 27T1466 0H369ZM1454 459Q1572 459 1656 487T1793 566T1871 691T1896 856Q1896 951 1870 1031T1784 1168T1632 1258T1405 1290H950V459H1454ZM1303 1724Q1427 1724 1513 1752T1652 1832T1729 1961T1753 2134Q1753 2217 1729 2285T1653 2401T1523 2476T1335 2503H950V1724H1303Z"  />
<glyph unicode="&#x393;" horiz-adv-x="2175" d="M369 2966H2101V2490H946V0H369V2966Z"  />
<glyph unicode="&#x394;" horiz-adv-x="2896" d="M115 0V442L1139 2966H1757L2781 442V0H115ZM1577 1958Q1559 2003 1539 2057T1500 2171T1463 2294T1430 2421Q1416 2359 1398 2296T1361 2173T1321 2058T1282 1958L692 475H2167L1577 1958Z"  />
<glyph unicode="&#x395;" horiz-adv-x="2478" d="M369 0V2966H2241V2490H946V1757H2060V1282H946V475H2257V0H369Z"  />
<glyph unicode="&#x396;" horiz-adv-x="2499" d="M156 0V442L1610 2490H205V2966H2281V2523L831 475H2343V0H156Z"  />
<glyph unicode="&#x397;" horiz-adv-x="3064" d="M2118 0V1286H946V0H369V2966H946V1761H2118V2966H2695V0H2118Z"  />
<glyph unicode="&#x398;" horiz-adv-x="3056" d="M1528 -66Q1270 -66 1074 -10T733 147T492 390T337 704T254 1074T229 1483Q229 1695 256 1892T344 2261T503 2575T746 2818T1084 2975T1528 3031Q1786 3031 1982 2975T2323 2818T2564 2575T2719 2261T2801 1892T2826 1483Q2826 1271 2799 1074T2712 705T2552 391T2309 148T1971 -10T1528 -66ZM1528 422Q1652 422 1752 454T1929 548T2063 702T2156 911T2210 1172T2228 1483Q2228 1650 2211 1793T2157 2054T2064 2263T1930 2417T1752 2511T1528 2544Q1404 2544 1304 2512T1126 2417T992 2264T899 2055T845 1794T827 1483Q827 1316 844 1173T898 911T991 702T1126 549T1304 454T1528 422ZM1069 1712H1987V1237H1069V1712Z"  />
<glyph unicode="&#x399;" horiz-adv-x="1749" d="M246 0V459H586V2507H246V2966H1503V2507H1163V459H1503V0H246Z"  />
<glyph unicode="&#x39A;" horiz-adv-x="2757" d="M2023 0L946 1348V0H369V2966H946V1663L1950 2966H2658L1720 1778Q1649 1689 1585 1621T1462 1507Q1494 1484 1527 1456T1595 1393T1666 1318T1741 1229L2732 0H2023Z"  />
<glyph unicode="&#x39B;" horiz-adv-x="2822" d="M1102 2966H1720L2789 0H2171L1536 1917Q1493 2050 1458 2182T1397 2454Q1372 2314 1337 2182T1257 1917L623 0H33L1102 2966Z"  />
<glyph unicode="&#x39C;" horiz-adv-x="3740" d="M2826 0V1638Q2826 1765 2837 1939T2863 2257Q2810 2108 2743 1958T2601 1683L2044 745H1692L1135 1683Q1098 1744 1063 1811T995 1953T932 2102T877 2249Q892 2100 902 1939T913 1638V0H369V2966H975L1675 1761Q1725 1675 1778 1563T1872 1327Q1909 1450 1964 1563T2068 1761L2769 2966H3371V0H2826Z"  />
<glyph unicode="&#x39D;" horiz-adv-x="3142" d="M2187 0L1114 1712Q1061 1796 1003 1913T885 2163Q892 2097 899 2032T911 1908T919 1799T922 1712V0H369V2966H954L2028 1253Q2054 1212 2082 1161T2138 1051T2196 930T2253 803Q2245 867 2239 931T2229 1054T2222 1164T2220 1253V2966H2773V0H2187Z"  />
<glyph unicode="&#x39E;" horiz-adv-x="2462" d="M205 483H2241V0H205V483ZM471 1765H1987V1274H471V1765ZM221 2966H2224V2482H221V2966Z"  />
<glyph unicode="&#x39F;" horiz-adv-x="3056" d="M1528 -66Q1270 -66 1074 -10T733 147T492 390T337 704T254 1074T229 1483Q229 1695 256 1892T344 2261T503 2575T746 2818T1084 2975T1528 3031Q1786 3031 1982 2975T2323 2818T2564 2575T2719 2261T2801 1892T2826 1483Q2826 1271 2799 1074T2712 705T2552 391T2309 148T1971 -10T1528 -66ZM1528 422Q1652 422 1752 454T1929 548T2063 702T2156 911T2210 1172T2228 1483Q2228 1650 2211 1793T2157 2054T2064 2263T1930 2417T1752 2511T1528 2544Q1404 2544 1304 2512T1126 2417T992 2264T899 2055T845 1794T827 1483Q827 1316 844 1173T898 911T991 702T1126 549T1304 454T1528 422Z"  />
<glyph unicode="&#x3A0;" horiz-adv-x="2908" d="M2003 2490H946V0H369V2966H2580V0H2003V2490Z"  />
<glyph unicode="&#x3A1;" horiz-adv-x="2556" d="M369 0V2966H1401Q1575 2966 1718 2938T1976 2854T2174 2716T2314 2527T2397 2289T2425 2003Q2425 1848 2397 1716T2310 1474T2164 1281T1957 1140T1688 1054T1356 1024H942V0H369ZM1298 1475Q1441 1475 1542 1512T1709 1619T1804 1785T1835 2003Q1835 2121 1806 2216T1716 2379T1564 2482T1348 2519H942V1475H1298Z"  />
<glyph unicode="&#x3A3;" horiz-adv-x="2359" d="M197 442L1094 1495L213 2523V2966H2187V2490H913L1647 1683V1335L881 475H2187V0H197V442Z"  />
<glyph unicode="&#x3A4;" horiz-adv-x="2273" d="M848 0V2490H82V2966H2191V2490H1425V0H848Z"  />
<glyph unicode="&#x3A5;" horiz-adv-x="2617" d="M1020 0V1126L16 2966H684L1122 2032Q1150 1972 1176 1915T1225 1804T1269 1698T1307 1597Q1324 1646 1344 1698T1388 1804T1439 1915T1495 2032L1933 2966H2601L1597 1126V0H1020Z"  />
<glyph unicode="&#x3A6;" horiz-adv-x="3342" d="M1384 307Q1194 315 1029 361T726 485T481 673T299 918T186 1213T147 1552Q147 1731 187 1886T304 2171T490 2401T737 2574T1038 2686T1384 2732V2966H1958V2732Q2141 2726 2304 2686T2604 2575T2851 2402T3037 2171T3154 1887T3195 1552Q3195 1373 3157 1214T3044 919T2863 674T2618 486T2314 361T1958 307V0H1384V307ZM737 1552Q737 1441 756 1342T814 1157T908 1003T1038 881T1202 796T1401 750V2298Q1302 2288 1214 2259T1053 2184T921 2075T821 1932T759 1757T737 1552ZM2605 1552Q2605 1662 2583 1757T2521 1931T2421 2074T2289 2184T2128 2259T1942 2298V750Q2048 762 2138 795T2302 881T2432 1002T2527 1157T2585 1341T2605 1552Z"  />
<glyph unicode="&#x3A7;" horiz-adv-x="2630" d="M1950 0L1397 942Q1383 965 1371 989T1347 1038T1324 1089T1303 1143Q1294 1115 1283 1089T1259 1038T1233 989T1208 942L655 0H8L975 1520L53 2966H725L1229 2109Q1241 2086 1253 2062T1277 2012T1299 1961T1319 1909Q1330 1935 1341 1961T1365 2012T1390 2061T1417 2109L1925 2966H2572L1651 1520L2621 0H1950Z"  />
<glyph unicode="&#x3A8;" horiz-adv-x="3232" d="M1319 852Q1114 868 952 922T664 1058T451 1246T306 1474T223 1729T197 1999V2966H778V2081Q778 1926 811 1800T911 1579T1080 1425T1319 1343V2966H1892V1339Q2033 1359 2138 1418T2314 1571T2419 1794T2454 2081V2966H3035V1999Q3035 1862 3008 1728T2923 1470T2774 1241T2556 1052T2264 916T1892 848V0H1319V852Z"  />
<glyph unicode="&#x3A9;" horiz-adv-x="3170" d="M1749 0V365Q1878 449 1978 565T2146 828T2250 1153T2286 1540Q2286 1686 2270 1817T2218 2060T2128 2261T1994 2414T1815 2510T1585 2544Q1457 2544 1356 2511T1176 2414T1043 2262T953 2061T902 1818T885 1540Q885 1331 920 1153T1024 828T1192 565T1421 365V0H213V475H729Q629 564 548 676T408 929T319 1238T287 1610Q287 1791 319 1967T418 2301T590 2592T839 2823T1169 2976T1585 3031Q1820 3031 2008 2978T2340 2828T2588 2600T2756 2310T2853 1974T2884 1610Q2884 1407 2852 1238T2762 929T2621 677T2437 475H2957V0H1749Z"  />
<glyph unicode="&#x3AA;" horiz-adv-x="1749" d="M246 0V459H586V2507H246V2966H1503V2507H1163V459H1503V0H246ZM198 3236V3736H735V3236H198ZM1013 3236V3736H1550V3236H1013Z"  />
<glyph unicode="&#x3AB;" horiz-adv-x="2617" d="M1020 0V1126L16 2966H684L1122 2032Q1150 1972 1176 1915T1225 1804T1269 1698T1307 1597Q1324 1646 1344 1698T1388 1804T1439 1915T1495 2032L1933 2966H2601L1597 1126V0H1020ZM639 3236V3736H1176V3236H639ZM1454 3236V3736H1991V3236H1454Z"  />
<glyph unicode="&#x3AC;" horiz-adv-x="2556" d="M1053 -66Q841 -66 676 9T398 227T227 579T168 1053Q168 1318 229 1525T407 1875T690 2092T1069 2167Q1161 2167 1245 2147T1403 2092T1539 2010T1651 1909L1692 2101H2179V590Q2179 550 2186 523T2208 478T2248 454T2306 446Q2352 446 2390 449T2466 459V12Q2431 0 2392 -8T2309 -22T2217 -30T2114 -33Q2031 -33 1962 -17T1837 32T1741 110T1671 217Q1619 157 1550 106T1400 16T1232 -44T1053 -66ZM1171 410Q1242 410 1306 423T1427 460T1532 518T1618 594V1507Q1580 1549 1533 1583T1430 1641T1310 1678T1171 1692Q1056 1692 975 1643T841 1508T765 1306T741 1057Q741 923 764 805T839 600T972 461T1171 410ZM950 3146H1589L1393 2372H1147L950 3146Z"  />
<glyph unicode="&#x3AD;" horiz-adv-x="1970" d="M1073 -61Q841 -61 668 -11T379 124T205 323T147 565Q147 663 172 746T245 898T365 1019T528 1106Q456 1140 401 1185T309 1289T252 1419T233 1577Q233 1710 285 1818T444 2003T710 2121T1085 2163Q1157 2163 1223 2159T1350 2148T1467 2129T1575 2103T1676 2070T1769 2032V1618Q1701 1642 1629 1661T1479 1693T1317 1713T1143 1720Q1054 1720 990 1704T884 1659T823 1594T803 1516Q803 1463 822 1418T882 1340T987 1289T1143 1270H1503V868H1094Q1025 868 971 860T874 836T803 798T754 750T726 692T717 627Q717 581 738 539T810 464T941 413T1143 393Q1254 393 1345 400T1519 420T1677 454T1831 500V70Q1757 38 1675 14T1500 -27T1300 -52T1073 -61ZM733 3146H1372L1176 2372H930L733 3146Z"  />
<glyph unicode="&#x3AE;" horiz-adv-x="2568" d="M336 2101H823L868 1929Q932 1987 1003 2031T1154 2106T1326 2151T1524 2167Q1657 2167 1765 2142T1957 2068T2102 1950T2203 1792T2262 1600T2281 1376V-934H1720V1303Q1720 1400 1696 1470T1623 1587T1502 1656T1335 1679Q1270 1679 1211 1672T1096 1650T992 1614T897 1565V0H336V2101ZM987 3146H1626L1430 2372H1184L987 3146Z"  />
<glyph unicode="&#x3AF;" horiz-adv-x="1360" d="M852 -33Q717 -33 619 4T457 112T363 285T332 516V2101H893V590Q893 550 901 523T928 478T975 454T1044 446Q1091 446 1136 450T1229 463V16Q1194 4 1153 -5T1064 -20T963 -30T852 -33ZM308 3146H947L751 2372H505L308 3146Z"  />
<glyph unicode="&#x3B0;" horiz-adv-x="2384" d="M1221 -66Q1036 -66 893 -33T643 65T463 221T346 432T282 691T262 995V2101H823V1016Q823 925 829 843T851 692T894 566T966 471T1073 410T1221 389Q1348 389 1426 438T1547 587T1604 835T1618 1184Q1618 1296 1609 1417T1583 1658T1546 1891T1499 2101H2044Q2073 2003 2099 1893T2144 1665T2175 1427T2187 1184Q2187 979 2167 807T2102 496T1982 252T1801 76T1550 -30T1221 -66ZM364 2982H778V2482H364V2982ZM893 3146H1515L1302 2372H1106L893 3146ZM1630 2982H2044V2482H1630V2982Z"  />
<glyph unicode="&#x3B1;" horiz-adv-x="2556" d="M1053 -66Q841 -66 676 9T398 227T227 579T168 1053Q168 1318 229 1525T407 1875T690 2092T1069 2167Q1161 2167 1245 2147T1403 2092T1539 2010T1651 1909L1692 2101H2179V590Q2179 550 2186 523T2208 478T2248 454T2306 446Q2352 446 2390 449T2466 459V12Q2431 0 2392 -8T2309 -22T2217 -30T2114 -33Q2031 -33 1962 -17T1837 32T1741 110T1671 217Q1619 157 1550 106T1400 16T1232 -44T1053 -66ZM1171 410Q1242 410 1306 423T1427 460T1532 518T1618 594V1507Q1580 1549 1533 1583T1430 1641T1310 1678T1171 1692Q1056 1692 975 1643T841 1508T765 1306T741 1057Q741 923 764 805T839 600T972 461T1171 410Z"  />
<glyph unicode="&#x3B2;" horiz-adv-x="2552" d="M336 2208Q336 2368 371 2500T471 2737T627 2920T831 3051T1072 3128T1343 3154Q1583 3154 1757 3093T2045 2928T2214 2686T2269 2392Q2269 2291 2240 2191T2150 2001T1995 1834T1769 1704Q1918 1658 2036 1583T2235 1404T2360 1167T2404 872Q2404 732 2374 608T2287 380T2147 193T1958 53T1724 -35T1450 -66Q1359 -66 1279 -55T1130 -25T1003 19T897 74V-934H336V2208ZM897 504Q951 479 1007 462T1121 433T1238 416T1360 410Q1483 410 1572 440T1718 529T1803 672T1831 864Q1831 935 1819 1002T1778 1131T1699 1248T1574 1349T1396 1431T1155 1491V1872Q1264 1892 1347 1923T1491 1993T1592 2076T1656 2166T1690 2260T1700 2351Q1700 2411 1681 2473T1619 2585T1507 2667T1335 2699Q1226 2699 1144 2668T1007 2571T925 2402T897 2154V504Z"  />
<glyph unicode="&#x3B3;" horiz-adv-x="2204" d="M852 -57L254 1577Q246 1597 234 1611T206 1636T170 1650T127 1655Q96 1655 68 1652T8 1642V2085Q39 2097 73 2106T145 2122T226 2131T319 2134Q416 2134 490 2111T619 2043T712 1935T774 1794L1061 856Q1079 791 1099 707T1135 532Q1153 622 1174 706T1217 856L1618 2101H2187L1413 -61V-934H852V-57Z"  />
<glyph unicode="&#x3B4;" horiz-adv-x="2433" d="M1217 -66Q1022 -66 869 -26T599 88T400 263T267 488T192 752T168 1044Q168 1223 199 1369T287 1629T422 1827T595 1965T796 2046T1016 2073Q1081 2073 1142 2066T1262 2044Q1215 2090 1169 2133T1073 2220L406 2773V3105H2011V2638H1245L1597 2367Q1703 2285 1793 2195T1958 2007T2089 1800T2186 1572T2245 1324T2265 1053Q2265 890 2239 744T2157 473T2016 249T1815 79T1549 -28T1217 -66ZM1217 389Q1305 389 1374 413T1495 480T1584 584T1644 718T1677 877T1688 1053Q1688 1144 1677 1226T1643 1379T1582 1507T1492 1604T1372 1666T1217 1688Q1088 1688 998 1640T852 1505T770 1302T745 1049Q745 912 769 792T848 583T994 441T1217 389Z"  />
<glyph unicode="&#x3B5;" horiz-adv-x="1970" d="M1073 -61Q841 -61 668 -11T379 124T205 323T147 565Q147 663 172 746T245 898T365 1019T528 1106Q456 1140 401 1185T309 1289T252 1419T233 1577Q233 1710 285 1818T444 2003T710 2121T1085 2163Q1157 2163 1223 2159T1350 2148T1467 2129T1575 2103T1676 2070T1769 2032V1618Q1701 1642 1629 1661T1479 1693T1317 1713T1143 1720Q1054 1720 990 1704T884 1659T823 1594T803 1516Q803 1463 822 1418T882 1340T987 1289T1143 1270H1503V868H1094Q1025 868 971 860T874 836T803 798T754 750T726 692T717 627Q717 581 738 539T810 464T941 413T1143 393Q1254 393 1345 400T1519 420T1677 454T1831 500V70Q1757 38 1675 14T1500 -27T1300 -52T1073 -61Z"  />
<glyph unicode="&#x3B6;" horiz-adv-x="1966" d="M1192 -635Q1226 -563 1257 -481T1314 -316T1358 -152T1384 0H1245Q1056 0 905 32T637 123T437 267T301 460T222 693T197 963Q197 1131 228 1293T318 1610T459 1908T645 2182T869 2427T1126 2638H262V3105H1999V2773Q1885 2713 1772 2632T1552 2454T1345 2245T1160 2012T1002 1764T881 1507T802 1248T774 995Q774 911 787 839T828 706T898 599T998 520T1131 472T1298 455H1532Q1621 455 1692 437T1813 380T1890 283T1917 147Q1917 80 1908 10T1883 -131T1844 -270T1796 -403T1740 -526T1679 -635H1192H1192Z"  />
<glyph unicode="&#x3B7;" horiz-adv-x="2568" d="M336 2101H823L868 1929Q932 1987 1003 2031T1154 2106T1326 2151T1524 2167Q1657 2167 1765 2142T1957 2068T2102 1950T2203 1792T2262 1600T2281 1376V-934H1720V1303Q1720 1400 1696 1470T1623 1587T1502 1656T1335 1679Q1270 1679 1211 1672T1096 1650T992 1614T897 1565V0H336V2101Z"  />
<glyph unicode="&#x3B8;" horiz-adv-x="2458" d="M1229 -74Q1041 -74 890 -18T622 142T422 391T285 716T206 1102T180 1536Q180 1764 207 1972T289 2361T430 2687T631 2937T897 3097T1229 3154Q1417 3154 1568 3098T1835 2938T2035 2688T2172 2361T2251 1973T2277 1536Q2277 1310 2251 1103T2169 716T2028 392T1827 143T1561 -17T1229 -74ZM1229 393Q1347 393 1433 461T1577 654T1668 951T1712 1335H745Q754 1125 786 952T878 654T1023 462T1229 393ZM1229 2695Q1115 2695 1031 2630T888 2447T796 2165T750 1802H1708Q1696 2000 1662 2164T1570 2447T1427 2630T1229 2695Z"  />
<glyph unicode="&#x3B9;" horiz-adv-x="1360" d="M852 -33Q717 -33 619 4T457 112T363 285T332 516V2101H893V590Q893 550 901 523T928 478T975 454T1044 446Q1091 446 1136 450T1229 463V16Q1194 4 1153 -5T1064 -20T963 -30T852 -33Z"  />
<glyph unicode="&#x3BA;" horiz-adv-x="2363" d="M336 2101H897V1253L1630 2101H2298L1622 1319Q1596 1290 1569 1263T1512 1211T1454 1163T1393 1118Q1425 1095 1456 1069T1516 1013T1575 951T1634 885L2343 0H1647L897 950V0H336V2101Z"  />
<glyph unicode="&#x3BB;" horiz-adv-x="2294" d="M819 2167L766 2314Q743 2376 721 2428T672 2521T617 2592T551 2643T469 2673T369 2683Q344 2683 320 2682T273 2679T227 2674T180 2666V3121Q198 3127 225 3133T285 3143T351 3151T418 3154Q530 3154 626 3142T805 3101T958 3022T1091 2898T1209 2722T1315 2486L2064 524Q2072 504 2084 490T2112 465T2148 451T2191 446Q2222 446 2250 449T2310 459V16Q2279 4 2245 -5T2173 -20T2092 -30T1999 -33Q1902 -33 1827 -10T1695 58T1598 166T1532 307L1229 1188Q1214 1231 1198 1285T1167 1401T1137 1529T1110 1663Q1098 1595 1085 1529T1058 1402T1029 1286T999 1188L586 0H16L819 2167Z"  />
<glyph unicode="&#x3BC;" horiz-adv-x="2621" d="M1094 -49Q970 -49 860 -12Q882 -104 889 -212T897 -463V-934H336V2101H897V807Q897 613 994 524T1282 434Q1397 434 1497 457T1683 532V2101H2245V590Q2245 510 2274 478T2372 446Q2418 446 2456 449T2531 459V12Q2460 -12 2374 -22T2179 -33Q2015 -33 1908 26T1745 201Q1680 141 1610 95T1459 16T1289 -32T1094 -49Z"  />
<glyph unicode="&#x3BD;" horiz-adv-x="2150" d="M778 0L16 2101H627L1008 856Q1026 791 1046 709T1081 537Q1100 626 1121 708T1163 856L1565 2101H2134L1384 0H778Z"  />
<glyph unicode="&#x3BE;" horiz-adv-x="1884" d="M1184 -635Q1218 -563 1249 -481T1306 -316T1350 -152T1376 0H1237Q1048 0 894 36T620 137T413 293T268 495T184 732T156 995Q156 1135 194 1257T302 1481T468 1661T680 1790Q588 1832 513 1893T385 2036T303 2215T274 2429Q274 2593 326 2727T485 2956T751 3102T1126 3154Q1234 3154 1329 3145T1508 3119T1667 3078T1810 3023V2609Q1742 2634 1670 2653T1520 2685T1358 2705T1184 2712Q1095 2712 1031 2685T925 2612T864 2502T844 2367Q844 2284 869 2218T945 2104T1073 2032T1257 2007H1667V1556H1266Q1141 1556 1042 1519T873 1413T766 1244T729 1020Q729 938 745 865T792 728T871 615T981 529T1120 474T1290 455H1524Q1613 455 1684 437T1805 380T1882 283T1909 147Q1909 46 1889 -60T1836 -269T1760 -466T1671 -635H1184Z"  />
<glyph unicode="&#x3BF;" horiz-adv-x="2433" d="M1217 -66Q1029 -66 878 -29T610 79T410 248T273 472T194 741T168 1049Q168 1212 194 1358T276 1628T417 1852T618 2022T884 2129T1217 2167Q1405 2167 1556 2130T1823 2022T2023 1853T2160 1630T2239 1361T2265 1053Q2265 890 2239 744T2157 473T2016 249T1815 79T1549 -28T1217 -66ZM1217 389Q1349 389 1439 441T1584 584T1664 795T1688 1053Q1688 1189 1664 1309T1585 1519T1439 1660T1217 1712Q1085 1712 995 1660T849 1517T769 1306T745 1049Q745 912 769 792T848 583T994 441T1217 389Z"  />
<glyph unicode="&#x3C0;" horiz-adv-x="2732" d="M2515 25Q2480 13 2439 4T2350 -12T2249 -22T2138 -25Q2003 -25 1905 12T1743 120T1649 293T1618 524V1634H1016V0H455V1634H115V2101H2585V1634H2179V598Q2179 558 2187 531T2214 487T2262 463T2331 455Q2354 455 2377 456T2423 458T2469 463T2515 471V25Z"  />
<glyph unicode="&#x3C1;" horiz-adv-x="2458" d="M246 1073Q246 1232 269 1374T343 1638T473 1858T663 2024T920 2130T1249 2167Q1437 2167 1587 2130T1854 2022T2052 1853T2188 1630T2265 1361T2290 1053Q2290 793 2224 586T2033 234T1728 12T1319 -66Q1241 -66 1171 -57T1037 -29T916 17T807 82V-934H246V1073ZM1233 410Q1359 410 1449 460T1598 598T1684 802T1712 1053Q1712 1189 1690 1309T1613 1519T1470 1660T1249 1712Q1161 1712 1094 1688T978 1621T896 1517T844 1383T816 1225T807 1049V512Q850 486 898 467T999 435T1110 416T1233 410Z"  />
<glyph unicode="&#x3C2;" horiz-adv-x="1913" d="M1130 -635Q1164 -563 1195 -481T1253 -316T1297 -152T1323 0H1217Q1028 0 877 38T609 144T409 308T272 520T193 769T168 1044Q168 1223 195 1375T278 1652T415 1872T605 2032T849 2130T1147 2163Q1227 2163 1316 2155T1489 2133T1646 2098T1765 2052V1593Q1710 1613 1650 1628T1524 1654T1386 1670T1233 1675Q1107 1675 1015 1629T861 1502T771 1307T741 1061Q741 935 772 825T867 632T1032 503T1270 455H1470Q1559 455 1630 437T1752 380T1828 283T1855 147Q1855 46 1836 -60T1783 -269T1707 -466T1618 -635H1130H1130Z"  />
<glyph unicode="&#x3C3;" horiz-adv-x="2486" d="M1200 -66Q1012 -66 862 -31T598 70T402 232T268 448T192 711T168 1016Q168 1176 194 1318T276 1581T417 1798T618 1961T884 2065T1217 2101H2478V1634H1991Q2043 1574 2087 1505T2163 1357T2214 1193T2232 1012Q2232 862 2207 724T2128 465T1991 247T1794 80T1531 -28T1200 -66ZM1655 1053Q1655 1145 1642 1228T1605 1384T1544 1520T1462 1634H1257Q1125 1634 1029 1589T869 1462T776 1266T745 1016Q745 885 766 771T840 572T980 438T1200 389Q1288 389 1356 413T1474 480T1559 584T1615 718T1645 877T1655 1053Z"  />
<glyph unicode="&#x3C4;" horiz-adv-x="1855" d="M33 2101H1823V1634H1143V590Q1143 550 1151 523T1178 478T1225 454T1294 446Q1341 446 1386 450T1479 463V16Q1443 4 1402 -5T1313 -20T1213 -30T1102 -33Q967 -33 869 4T707 112T613 285T582 516V1634H33V2101Z"  />
<glyph unicode="&#x3C5;" horiz-adv-x="2384" d="M1221 -66Q1036 -66 893 -33T643 65T463 221T346 432T282 691T262 995V2101H823V1016Q823 925 829 843T851 692T894 566T966 471T1073 410T1221 389Q1348 389 1426 438T1547 587T1604 835T1618 1184Q1618 1296 1609 1417T1583 1658T1546 1891T1499 2101H2044Q2073 2003 2099 1893T2144 1665T2175 1427T2187 1184Q2187 979 2167 807T2102 496T1982 252T1801 76T1550 -30T1221 -66Z"  />
<glyph unicode="&#x3C6;" horiz-adv-x="3043" d="M1241 -41Q972 -29 768 51T425 270T217 606T147 1049Q147 1295 219 1491T431 1827T774 2047T1241 2142V3105H1802V2142Q2066 2131 2270 2052T2613 1833T2824 1494T2896 1049Q2896 801 2827 604T2620 268T2277 49T1802 -41V-934H1241V-41ZM717 1049Q717 900 756 783T868 584T1043 454T1274 397V1700Q1146 1691 1044 1643T868 1513T756 1313T717 1049ZM2327 1049Q2327 1199 2289 1317T2178 1519T2002 1649T1769 1704V397Q1898 405 2001 451T2177 580T2288 780T2327 1049Z"  />
<glyph unicode="&#x3C7;" horiz-adv-x="2146" d="M1892 -967Q1808 -967 1743 -947T1628 -892T1539 -806T1470 -696L1208 -180Q1190 -145 1172 -106T1138 -26T1108 57T1085 143Q1076 100 1063 58T1033 -26T999 -106T963 -180L573 -934H0L799 573L291 1544Q276 1573 260 1594T225 1628T185 1648T139 1655Q124 1655 109 1654T78 1652T47 1648T16 1642V2085Q47 2097 81 2106T153 2122T235 2131T328 2134Q412 2134 477 2115T592 2061T681 1975T750 1864L991 1384Q1008 1349 1025 1310T1058 1230T1087 1147T1110 1061Q1121 1104 1135 1146T1165 1230T1200 1310T1237 1384L1610 2101H2183L1401 627L1929 -377Q1944 -406 1960 -427T1995 -461T2035 -481T2081 -487Q2096 -487 2111 -487T2142 -485T2173 -481T2204 -475V-918Q2173 -930 2139 -939T2067 -954T1985 -964T1892 -967Z"  />
<glyph unicode="&#x3C8;" horiz-adv-x="2978" d="M1225 -45Q1053 -22 915 29T670 154T486 325T359 536T286 780T262 1053V2101H823V1073Q823 953 846 846T920 653T1051 505T1245 414V2519H1765V406H1765Q1889 427 1974 489T2113 650T2189 883T2212 1184Q2212 1296 2201 1417T2168 1658T2113 1891T2036 2101H2568Q2617 2003 2656 1893T2723 1665T2766 1427T2781 1184Q2781 1000 2756 842T2678 554T2545 320T2354 142T2102 18T1786 -49H1786V-934H1225V-45Z"  />
<glyph unicode="&#x3C9;" horiz-adv-x="3363" d="M1040 -66Q877 -66 752 -30T532 75T374 240T271 458T214 720T197 1020Q197 1160 213 1282T257 1509T321 1703T398 1865T479 1997T557 2101H1110Q1041 1997 981 1884T875 1643T804 1371T778 1061Q778 901 791 776T837 565T930 434T1081 389Q1190 389 1256 435T1358 565T1405 764T1417 1016V1454H1946V1016Q1946 879 1957 764T2004 566T2106 436T2281 389Q2373 389 2432 434T2525 565T2572 776T2585 1061Q2585 1227 2560 1371T2490 1642T2384 1883T2253 2101H2806Q2841 2056 2881 1998T2961 1866T3038 1704T3103 1510T3149 1282T3166 1020Q3166 862 3149 721T3093 458T2989 240T2831 75T2611 -29T2322 -66Q2204 -66 2106 -42T1927 24T1786 123T1679 246Q1636 180 1576 123T1436 24T1257 -42T1040 -66Z"  />
<glyph unicode="&#x3CA;" horiz-adv-x="1360" d="M852 -33Q717 -33 619 4T457 112T363 285T332 516V2101H893V590Q893 550 901 523T928 478T975 454T1044 446Q1091 446 1136 450T1229 463V16Q1194 4 1153 -5T1064 -20T963 -30T852 -33ZM-48 2482V2982H489V2482H-48ZM767 2482V2982H1304V2482H767Z"  />
<glyph unicode="&#x3CB;" horiz-adv-x="2384" d="M1221 -66Q1036 -66 893 -33T643 65T463 221T346 432T282 691T262 995V2101H823V1016Q823 925 829 843T851 692T894 566T966 471T1073 410T1221 389Q1348 389 1426 438T1547 587T1604 835T1618 1184Q1618 1296 1609 1417T1583 1658T1546 1891T1499 2101H2044Q2073 2003 2099 1893T2144 1665T2175 1427T2187 1184Q2187 979 2167 807T2102 496T1982 252T1801 76T1550 -30T1221 -66ZM528 2482V2982H1065V2482H528ZM1343 2482V2982H1880V2482H1343Z"  />
<glyph unicode="&#x3CC;" horiz-adv-x="2433" d="M1217 -66Q1029 -66 878 -29T610 79T410 248T273 472T194 741T168 1049Q168 1212 194 1358T276 1628T417 1852T618 2022T884 2129T1217 2167Q1405 2167 1556 2130T1823 2022T2023 1853T2160 1630T2239 1361T2265 1053Q2265 890 2239 744T2157 473T2016 249T1815 79T1549 -28T1217 -66ZM1217 389Q1349 389 1439 441T1584 584T1664 795T1688 1053Q1688 1189 1664 1309T1585 1519T1439 1660T1217 1712Q1085 1712 995 1660T849 1517T769 1306T745 1049Q745 912 769 792T848 583T994 441T1217 389ZM897 3146H1536L1340 2372H1094L897 3146Z"  />
<glyph unicode="&#x3CD;" horiz-adv-x="2384" d="M1221 -66Q1036 -66 893 -33T643 65T463 221T346 432T282 691T262 995V2101H823V1016Q823 925 829 843T851 692T894 566T966 471T1073 410T1221 389Q1348 389 1426 438T1547 587T1604 835T1618 1184Q1618 1296 1609 1417T1583 1658T1546 1891T1499 2101H2044Q2073 2003 2099 1893T2144 1665T2175 1427T2187 1184Q2187 979 2167 807T2102 496T1982 252T1801 76T1550 -30T1221 -66ZM884 3146H1523L1327 2372H1081L884 3146Z"  />
<glyph unicode="&#x3CE;" horiz-adv-x="3363" d="M1040 -66Q877 -66 752 -30T532 75T374 240T271 458T214 720T197 1020Q197 1160 213 1282T257 1509T321 1703T398 1865T479 1997T557 2101H1110Q1041 1997 981 1884T875 1643T804 1371T778 1061Q778 901 791 776T837 565T930 434T1081 389Q1190 389 1256 435T1358 565T1405 764T1417 1016V1454H1946V1016Q1946 879 1957 764T2004 566T2106 436T2281 389Q2373 389 2432 434T2525 565T2572 776T2585 1061Q2585 1227 2560 1371T2490 1642T2384 1883T2253 2101H2806Q2841 2056 2881 1998T2961 1866T3038 1704T3103 1510T3149 1282T3166 1020Q3166 862 3149 721T3093 458T2989 240T2831 75T2611 -29T2322 -66Q2204 -66 2106 -42T1927 24T1786 123T1679 246Q1636 180 1576 123T1436 24T1257 -42T1040 -66ZM1359 3146H1998L1802 2372H1556L1359 3146Z"  />
<glyph unicode="&#x400;" horiz-adv-x="2478" d="M369 0V2966H2241V2490H946V1757H2060V1282H946V475H2257V0H369ZM1167 3162L561 3810H1208L1593 3162H1167Z"  />
<glyph unicode="&#x401;" horiz-adv-x="2478" d="M369 0V2966H2241V2490H946V1757H2060V1282H946V475H2257V0H369ZM635 3236V3736H1172V3236H635ZM1450 3236V3736H1987V3236H1450Z"  />
<glyph unicode="&#x402;" horiz-adv-x="3060" d="M82 2966H1946V2490H1303V1819H1823Q1989 1819 2129 1795T2383 1720T2583 1596T2728 1421T2817 1195T2847 918Q2847 774 2818 650T2730 423T2586 242T2386 110T2133 28T1827 0H1683V451H1769Q1850 451 1917 465T2039 506T2134 574T2202 666T2243 781T2257 918Q2257 991 2242 1052T2199 1164T2129 1253T2033 1318T1912 1358T1769 1372H1303V0H725V2490H82V2966Z"  />
<glyph unicode="&#x403;" horiz-adv-x="2175" d="M369 2966H2101V2490H946V0H369V2966ZM950 3162L1335 3810H1982L1376 3162H950Z"  />
<glyph unicode="&#x404;" horiz-adv-x="2544" d="M1479 -66Q1265 -66 1088 -18T771 124T525 352T351 660T248 1043T213 1495Q213 1721 248 1923T356 2295T536 2602T788 2834T1115 2980T1516 3031Q1651 3031 1772 3019T1999 2983T2197 2926T2363 2851V2372Q2288 2409 2200 2438T2010 2488T1793 2520T1548 2531Q1385 2531 1256 2477T1033 2319T886 2068T819 1733H1995V1257H815Q823 1111 851 993T925 783T1035 625T1180 515T1358 451T1569 430Q1704 430 1815 439T2025 467T2213 514T2396 582V102Q2305 62 2212 31T2011 -21T1773 -54T1479 -66Z"  />
<glyph unicode="&#x405;" horiz-adv-x="2540" d="M205 582Q277 546 376 517T589 466T826 434T1069 422Q1232 422 1353 448T1555 526T1676 653T1716 827Q1716 882 1703 928T1662 1014T1586 1087T1472 1151T1314 1208T1106 1262Q968 1294 849 1336T631 1434T456 1560T328 1719T248 1916T221 2154Q221 2284 246 2399T326 2612T470 2787T685 2919T980 3002T1364 3031Q1490 3031 1611 3020T1839 2987T2036 2933T2191 2859V2384Q2117 2419 2021 2448T1815 2499T1591 2532T1364 2544Q1232 2544 1133 2518T968 2441T869 2319T836 2154Q836 2098 849 2052T891 1968T968 1898T1083 1838T1242 1784T1450 1733Q1595 1701 1717 1659T1938 1560T2110 1432T2235 1273T2310 1077T2335 840Q2335 709 2304 591T2209 372T2046 190T1812 52T1504 -35T1118 -66Q971 -66 835 -54T580 -20T367 34T205 106V582Z"  />
<glyph unicode="&#x406;" horiz-adv-x="1749" d="M246 0V459H586V2507H246V2966H1503V2507H1163V459H1503V0H246Z"  />
<glyph unicode="&#x407;" horiz-adv-x="1749" d="M246 0V459H586V2507H246V2966H1503V2507H1163V459H1503V0H246ZM198 3236V3736H735V3236H198ZM1013 3236V3736H1550V3236H1013Z"  />
<glyph unicode="&#x408;" horiz-adv-x="1516" d="M-74 -135Q-52 -140 -29 -143T19 -148T72 -151T131 -152Q252 -152 336 -111T471 8T546 199T569 459V2507H147V2966H1147V393Q1147 132 1080 -62T885 -384T575 -575T160 -639Q123 -639 90 -638T27 -633T-28 -624T-74 -610V-135Z"  />
<glyph unicode="&#x409;" horiz-adv-x="4293" d="M2040 2490H1212V2448Q1209 2214 1204 1996T1187 1550T1150 1111T1086 725T977 391T808 136T598 3T365 -33Q314 -33 267 -30T178 -22T102 -9T41 8V467Q81 458 122 452T213 446Q276 446 330 466T434 541T526 717T600 1048T644 1469T667 1954T678 2437T680 2925V2966H2617V1737H3138Q3304 1737 3444 1714T3698 1643T3898 1524T4043 1357T4132 1141T4162 877Q4162 733 4131 612T4040 393T3889 222T3679 99T3413 25T3092 0H2040V2490ZM2617 1290V451H3035Q3167 451 3267 478T3435 559T3537 692T3572 877Q3572 980 3539 1057T3443 1186T3290 1264T3084 1290H2617Z"  />
<glyph unicode="&#x40A;" horiz-adv-x="4370" d="M369 2966H946V1761H2118V2966H2695V1737H3215Q3381 1737 3521 1714T3775 1643T3976 1524T4121 1357T4209 1141T4239 877Q4239 733 4208 612T4117 393T3966 222T3757 99T3491 25T3170 0H2118V1286H946V0H369V2966ZM2695 1290V451H3113Q3245 451 3345 478T3513 559T3615 692T3650 877Q3650 980 3617 1057T3521 1186T3368 1264T3162 1290H2695Z"  />
<glyph unicode="&#x40B;" horiz-adv-x="3265" d="M82 2966H1987V2490H1343V1819Q1403 1831 1468 1842T1604 1861T1748 1875T1901 1880Q2083 1880 2230 1851T2493 1764T2692 1620T2830 1422T2911 1171T2937 868V0H2359V844Q2359 976 2327 1081T2228 1260T2057 1373T1810 1413Q1744 1413 1683 1411T1563 1404T1450 1392T1343 1376V0H766V2490H82V2966Z"  />
<glyph unicode="&#x40C;" horiz-adv-x="2781" d="M369 2966H942V1712H1106Q1153 1712 1189 1715T1253 1727T1305 1751T1350 1791T1395 1849T1446 1929L2077 2966H2753L2048 1810Q2016 1759 1975 1709T1886 1616T1784 1539T1671 1491Q1729 1477 1783 1445T1886 1370T1975 1277T2048 1176L2765 0H2089L1446 1057Q1418 1103 1395 1137T1350 1195T1305 1234T1254 1258T1189 1270T1106 1274H942V0H369V2966ZM1200 3162L1585 3810H2232L1626 3162H1200Z"  />
<glyph unicode="&#x40D;" horiz-adv-x="3142" d="M369 2966H922V1253Q922 1212 919 1155T909 1033T896 896T881 754Q910 826 941 896T1005 1031T1069 1152T1130 1253L2228 2966H2773V0H2220V1712Q2220 1754 2223 1810T2231 1932T2244 2069T2261 2212Q2230 2140 2198 2070T2135 1936T2072 1815T2011 1712L922 0H369V2966ZM1425 3162L819 3810H1466L1851 3162H1425Z"  />
<glyph unicode="&#x40E;" horiz-adv-x="2613" d="M594 -25Q563 -25 531 -23T467 -17T410 -8T365 4V463Q386 458 409 455T455 450T503 447T553 446Q637 446 708 466T838 528T944 633T1028 782L1040 811L66 2966H643L1188 1774Q1205 1735 1224 1689T1262 1590T1299 1481T1331 1368Q1345 1425 1363 1481T1400 1589T1440 1688T1479 1774L2019 2966H2597L1630 831Q1532 616 1432 456T1212 188T942 28T594 -25ZM2027 3810Q2021 3673 1974 3552T1840 3339T1626 3195T1331 3142Q1163 3142 1036 3195T821 3339T688 3551T635 3810H987Q991 3754 1014 3701T1080 3605T1185 3537T1331 3511Q1414 3511 1475 3537T1579 3606T1643 3702T1671 3810H2027Z"  />
<glyph unicode="&#x40F;" horiz-adv-x="2884" d="M369 2966H946V475H1937V2966H2515V0H1704V-725H1184V0H369V2966Z"  />
<glyph unicode="&#x410;" horiz-adv-x="2822" d="M2171 0L1958 639H831L623 0H33L1102 2966H1720L2789 0H2171ZM1536 1917Q1493 2050 1458 2182T1397 2454Q1372 2314 1337 2182T1257 1917L987 1106H1802L1536 1917Z"  />
<glyph unicode="&#x411;" horiz-adv-x="2646" d="M369 2966H2286V2490H946V1737H1466Q1632 1737 1772 1714T2026 1643T2227 1524T2372 1357T2460 1141T2490 877Q2490 733 2459 612T2368 393T2217 222T2008 99T1742 25T1421 0H369V2966ZM946 1290V451H1364Q1496 451 1596 478T1764 559T1866 692T1901 877Q1901 980 1868 1057T1772 1186T1619 1264T1413 1290H946Z"  />
<glyph unicode="&#x412;" horiz-adv-x="2703" d="M369 0V2966H1372Q1619 2966 1802 2914T2107 2762T2287 2516T2347 2183Q2347 2066 2325 1970T2259 1795T2154 1656T2011 1548Q2125 1499 2214 1427T2364 1261T2458 1053T2490 807Q2490 687 2465 581T2386 385T2250 224T2054 103T1794 27T1466 0H369ZM1454 459Q1572 459 1656 487T1793 566T1871 691T1896 856Q1896 951 1870 1031T1784 1168T1632 1258T1405 1290H950V459H1454ZM1303 1724Q1427 1724 1513 1752T1652 1832T1729 1961T1753 2134Q1753 2217 1729 2285T1653 2401T1523 2476T1335 2503H950V1724H1303Z"  />
<glyph unicode="&#x413;" horiz-adv-x="2175" d="M369 2966H2101V2490H946V0H369V2966Z"  />
<glyph unicode="&#x414;" horiz-adv-x="3269" d="M98 475H270Q373 475 445 526T565 665T646 859T706 1112T754 1477T786 1937T802 2427T807 2936V2966H2732V475H3170V-725H2650V0H618V-725H98V475ZM1352 2490V2453Q1352 2202 1344 1979T1322 1579T1283 1223T1221 907T1127 656T975 475H2154V2490H1352Z"  />
<glyph unicode="&#x415;" horiz-adv-x="2478" d="M369 0V2966H2241V2490H946V1757H2060V1282H946V475H2257V0H369Z"  />
<glyph unicode="&#x416;" horiz-adv-x="4104" d="M1765 1274H1634Q1579 1274 1542 1266T1475 1235T1415 1169T1343 1057L700 0H25L741 1176Q772 1227 813 1277T902 1370T1005 1445T1118 1491Q1063 1506 1014 1539T922 1615T842 1709T774 1810L70 2966H713L1343 1929Q1371 1883 1393 1849T1435 1791T1475 1752T1518 1728T1569 1716T1634 1712H1765V2966H2339V1712H2470Q2525 1712 2562 1720T2629 1751T2689 1817T2761 1929L3391 2966H4035L3330 1810Q3298 1759 3261 1709T3180 1616T3088 1539T2982 1491Q3042 1477 3097 1445T3200 1370T3290 1277T3363 1176L4080 0H3404L2761 1057Q2733 1103 2711 1137T2669 1195T2629 1234T2586 1258T2535 1270T2470 1274H2339V0H1765V1274Z"  />
<glyph unicode="&#x417;" horiz-adv-x="2392" d="M1069 -66Q905 -66 780 -55T551 -22T360 31T180 102V569Q272 531 358 503T541 455T753 427T1020 418Q1119 418 1199 433T1343 475T1451 542T1526 629T1570 732T1585 848Q1585 943 1553 1024T1456 1164T1290 1256T1053 1290H561V1724H991Q1115 1724 1207 1757T1361 1850T1453 1992T1483 2171Q1483 2226 1469 2276T1429 2369T1363 2446T1272 2505T1159 2543T1024 2556Q909 2556 803 2546T599 2517T416 2470T254 2404V2859Q329 2901 417 2933T605 2986T819 3019T1061 3031Q1226 3031 1365 3006T1617 2932T1816 2813T1960 2653T2047 2454T2077 2220Q2077 2100 2051 1999T1975 1815T1852 1667T1683 1556Q1800 1505 1892 1431T2048 1260T2145 1048T2179 799Q2179 679 2147 569T2052 362T1896 187T1679 52T1403 -35T1069 -66Z"  />
<glyph unicode="&#x418;" horiz-adv-x="3142" d="M369 2966H922V1253Q922 1212 919 1155T909 1033T896 896T881 754Q910 826 941 896T1005 1031T1069 1152T1130 1253L2228 2966H2773V0H2220V1712Q2220 1754 2223 1810T2231 1932T2244 2069T2261 2212Q2230 2140 2198 2070T2135 1936T2072 1815T2011 1712L922 0H369V2966Z"  />
<glyph unicode="&#x419;" horiz-adv-x="3142" d="M369 2966H922V1253Q922 1212 919 1155T909 1033T896 896T881 754Q910 826 941 896T1005 1031T1069 1152T1130 1253L2228 2966H2773V0H2220V1712Q2220 1754 2223 1810T2231 1932T2244 2069T2261 2212Q2230 2140 2198 2070T2135 1936T2072 1815T2011 1712L922 0H369V2966ZM2265 3810Q2259 3673 2212 3552T2078 3339T1864 3195T1569 3142Q1401 3142 1274 3195T1059 3339T926 3551T873 3810H1225Q1229 3754 1252 3701T1318 3605T1423 3537T1569 3511Q1652 3511 1713 3537T1817 3606T1881 3702T1909 3810H2265Z"  />
<glyph unicode="&#x41A;" horiz-adv-x="2781" d="M369 2966H942V1712H1106Q1153 1712 1189 1715T1253 1727T1305 1751T1350 1791T1395 1849T1446 1929L2077 2966H2753L2048 1810Q2016 1759 1975 1709T1886 1616T1784 1539T1671 1491Q1729 1477 1783 1445T1886 1370T1975 1277T2048 1176L2765 0H2089L1446 1057Q1418 1103 1395 1137T1350 1195T1305 1234T1254 1258T1189 1270T1106 1274H942V0H369V2966Z"  />
<glyph unicode="&#x41B;" horiz-adv-x="2986" d="M2040 0V2490H1212V2448Q1209 2214 1204 1996T1187 1550T1150 1111T1086 725T977 391T808 136T598 3T365 -33Q314 -33 267 -30T178 -22T102 -9T41 8V467Q81 458 122 452T213 446Q276 446 330 466T434 541T526 717T600 1048T644 1469T667 1954T678 2437T680 2925V2966H2617V0H2040Z"  />
<glyph unicode="&#x41C;" horiz-adv-x="3740" d="M2826 0V1638Q2826 1765 2837 1939T2863 2257Q2810 2108 2743 1958T2601 1683L2044 745H1692L1135 1683Q1098 1744 1063 1811T995 1953T932 2102T877 2249Q892 2100 902 1939T913 1638V0H369V2966H975L1675 1761Q1725 1675 1778 1563T1872 1327Q1909 1450 1964 1563T2068 1761L2769 2966H3371V0H2826Z"  />
<glyph unicode="&#x41D;" horiz-adv-x="3064" d="M2118 0V1286H946V0H369V2966H946V1761H2118V2966H2695V0H2118Z"  />
<glyph unicode="&#x41E;" horiz-adv-x="3056" d="M1528 -66Q1270 -66 1074 -10T733 147T492 390T337 704T254 1074T229 1483Q229 1695 256 1892T344 2261T503 2575T746 2818T1084 2975T1528 3031Q1786 3031 1982 2975T2323 2818T2564 2575T2719 2261T2801 1892T2826 1483Q2826 1271 2799 1074T2712 705T2552 391T2309 148T1971 -10T1528 -66ZM1528 422Q1652 422 1752 454T1929 548T2063 702T2156 911T2210 1172T2228 1483Q2228 1650 2211 1793T2157 2054T2064 2263T1930 2417T1752 2511T1528 2544Q1404 2544 1304 2512T1126 2417T992 2264T899 2055T845 1794T827 1483Q827 1316 844 1173T898 911T991 702T1126 549T1304 454T1528 422Z"  />
<glyph unicode="&#x41F;" horiz-adv-x="2949" d="M2003 2490H946V0H369V2966H2580V0H2003V2490Z"  />
<glyph unicode="&#x420;" horiz-adv-x="2556" d="M369 0V2966H1401Q1575 2966 1718 2938T1976 2854T2174 2716T2314 2527T2397 2289T2425 2003Q2425 1848 2397 1716T2310 1474T2164 1281T1957 1140T1688 1054T1356 1024H942V0H369ZM1298 1475Q1441 1475 1542 1512T1709 1619T1804 1785T1835 2003Q1835 2121 1806 2216T1716 2379T1564 2482T1348 2519H942V1475H1298Z"  />
<glyph unicode="&#x421;" horiz-adv-x="2544" d="M2396 102Q2305 62 2212 31T2011 -21T1773 -54T1479 -66Q1265 -66 1088 -18T771 124T525 352T351 660T248 1043T213 1495Q213 1721 248 1923T356 2295T536 2602T788 2834T1115 2980T1516 3031Q1651 3031 1772 3019T1999 2983T2197 2926T2363 2851V2372Q2288 2409 2200 2438T2010 2488T1793 2520T1548 2531Q1423 2531 1321 2499T1137 2406T995 2254T894 2049T835 1795T815 1495Q815 1303 835 1149T897 877T1001 674T1148 535T1337 456T1569 430Q1704 430 1815 439T2025 467T2213 514T2396 582V102Z"  />
<glyph unicode="&#x422;" horiz-adv-x="2273" d="M848 0V2490H82V2966H2191V2490H1425V0H848Z"  />
<glyph unicode="&#x423;" horiz-adv-x="2613" d="M594 -25Q563 -25 531 -23T467 -17T410 -8T365 4V463Q386 458 409 455T455 450T503 447T553 446Q637 446 708 466T838 528T944 633T1028 782L1040 811L66 2966H643L1188 1774Q1205 1735 1224 1689T1262 1590T1299 1481T1331 1368Q1345 1425 1363 1481T1400 1589T1440 1688T1479 1774L2019 2966H2597L1630 831Q1532 616 1432 456T1212 188T942 28T594 -25Z"  />
<glyph unicode="&#x424;" horiz-adv-x="3342" d="M1384 307Q1194 315 1029 361T726 485T481 673T299 918T186 1213T147 1552Q147 1731 187 1886T304 2171T490 2401T737 2574T1038 2686T1384 2732V2966H1958V2732Q2141 2726 2304 2686T2604 2575T2851 2402T3037 2171T3154 1887T3195 1552Q3195 1373 3157 1214T3044 919T2863 674T2618 486T2314 361T1958 307V0H1384V307ZM737 1552Q737 1441 756 1342T814 1157T908 1003T1038 881T1202 796T1401 750V2298Q1302 2288 1214 2259T1053 2184T921 2075T821 1932T759 1757T737 1552ZM2605 1552Q2605 1662 2583 1757T2521 1931T2421 2074T2289 2184T2128 2259T1942 2298V750Q2048 762 2138 795T2302 881T2432 1002T2527 1157T2585 1341T2605 1552Z"  />
<glyph unicode="&#x425;" horiz-adv-x="2630" d="M1950 0L1397 942Q1383 965 1371 989T1347 1038T1324 1089T1303 1143Q1294 1115 1283 1089T1259 1038T1233 989T1208 942L655 0H8L975 1520L53 2966H725L1229 2109Q1241 2086 1253 2062T1277 2012T1299 1961T1319 1909Q1330 1935 1341 1961T1365 2012T1390 2061T1417 2109L1925 2966H2572L1651 1520L2621 0H1950Z"  />
<glyph unicode="&#x426;" horiz-adv-x="3097" d="M369 2966H946V475H1982V2966H2560V475H2998V-725H2478V0H369V2966Z"  />
<glyph unicode="&#x427;" horiz-adv-x="2793" d="M1847 1188Q1787 1174 1722 1163T1586 1143T1441 1131T1290 1126Q1108 1126 961 1155T698 1240T499 1380T361 1570T280 1810T254 2097V2966H831V2122Q831 2002 863 1905T962 1738T1133 1631T1380 1593Q1446 1593 1507 1595T1626 1602T1738 1614T1847 1630V2966H2425V0H1847V1188Z"  />
<glyph unicode="&#x428;" horiz-adv-x="4354" d="M369 2966H946V475H1888V2966H2466V475H3408V2966H3985V0H369V2966Z"  />
<glyph unicode="&#x429;" horiz-adv-x="4522" d="M369 2966H946V475H1888V2966H2466V475H3408V2966H3985V475H4424V-725H3903V0H369V2966Z"  />
<glyph unicode="&#x42A;" horiz-adv-x="3015" d="M66 2966H1339V1737H1860Q2026 1737 2166 1714T2420 1643T2620 1524T2765 1357T2854 1141T2884 877Q2884 733 2853 612T2762 393T2611 222T2402 99T2136 25T1815 0H762V2490H66V2966ZM1339 1290V451H1757Q1889 451 1989 478T2157 559T2259 692T2294 877Q2294 980 2261 1057T2166 1186T2012 1264T1806 1290H1339Z"  />
<glyph unicode="&#x42B;" horiz-adv-x="3797" d="M369 2966H946V1737H1466Q1632 1737 1772 1714T2026 1643T2227 1524T2372 1357T2460 1141T2490 877Q2490 733 2459 612T2368 393T2217 222T2008 99T1742 25T1421 0H369V2966ZM2851 2966H3428V0H2851V2966ZM946 1290V451H1364Q1496 451 1596 478T1764 559T1866 692T1901 877Q1901 980 1868 1057T1772 1186T1619 1264T1413 1290H946Z"  />
<glyph unicode="&#x42C;" horiz-adv-x="2621" d="M369 2966H946V1737H1466Q1632 1737 1772 1714T2026 1643T2227 1524T2372 1357T2460 1141T2490 877Q2490 733 2459 612T2368 393T2217 222T2008 99T1742 25T1421 0H369V2966ZM946 1290V451H1364Q1496 451 1596 478T1764 559T1866 692T1901 877Q1901 980 1868 1057T1772 1186T1619 1264T1413 1290H946Z"  />
<glyph unicode="&#x42D;" horiz-adv-x="2544" d="M594 1733H1729Q1715 1916 1661 2063T1513 2315T1290 2475T995 2531Q866 2531 751 2520T534 2489T344 2439T180 2372V2851Q255 2892 346 2925T544 2982T772 3018T1028 3031Q1247 3031 1429 2980T1755 2834T2008 2603T2188 2296T2295 1923T2331 1495Q2331 1253 2297 1044T2193 661T2019 352T1774 124T1456 -17T1065 -66Q901 -66 771 -55T533 -22T331 31T147 102V582Q239 543 329 515T518 468T728 440T975 430Q1089 430 1186 450T1365 514T1510 624T1620 782T1693 992T1729 1257H594V1733Z"  />
<glyph unicode="&#x42E;" horiz-adv-x="4379" d="M369 2966H946V1761H1565Q1580 1940 1619 2104T1728 2409T1897 2665T2136 2861T2451 2986T2851 3031Q3109 3031 3305 2975T3646 2818T3887 2575T4042 2261T4124 1892T4149 1483Q4149 1271 4122 1074T4035 705T3875 391T3632 148T3294 -10T2851 -66Q2612 -66 2426 -19T2100 116T1861 325T1698 598T1600 922T1556 1286H946V0H369V2966ZM2851 422Q2975 422 3075 454T3252 548T3386 702T3479 911T3533 1172T3551 1483Q3551 1650 3534 1793T3480 2054T3387 2263T3253 2417T3075 2511T2851 2544Q2727 2544 2627 2512T2449 2417T2315 2264T2222 2055T2168 1794T2150 1483Q2150 1316 2167 1173T2221 911T2314 702T2449 549T2627 454T2851 422Z"  />
<glyph unicode="&#x42F;" horiz-adv-x="2744" d="M1802 1171H1638Q1591 1171 1555 1168T1491 1156T1439 1132T1394 1093T1349 1034T1298 954L717 0H41L696 1073Q740 1144 790 1193T905 1274Q788 1306 682 1373T496 1542T367 1780T319 2085Q319 2311 387 2476T588 2751T917 2913T1368 2966H2376V0H1802V1171ZM909 2085Q909 1963 944 1874T1046 1726T1208 1639T1421 1610H1802V2519H1421Q1301 2519 1206 2492T1045 2410T944 2274T909 2085Z"  />
<glyph unicode="&#x430;" horiz-adv-x="2286" d="M1483 0L1454 160Q1394 109 1326 68T1179 -3T1012 -49T823 -66Q676 -66 555 -21T346 106T212 304T164 561Q164 684 196 783T293 959T451 1091T668 1183T942 1236T1270 1253Q1304 1253 1333 1253T1387 1251T1434 1249V1294Q1434 1396 1410 1468T1333 1586T1197 1653T995 1675Q898 1675 807 1666T632 1640T470 1599T324 1544V1991Q390 2028 474 2059T655 2114T859 2150T1081 2163Q1302 2163 1472 2117T1759 1969T1935 1709T1995 1323V0H1483ZM1434 889H1389Q1224 889 1102 875T898 828T777 744T737 618Q737 566 754 520T808 440T901 385T1036 365Q1094 365 1148 373T1253 398T1348 435T1434 483V889Z"  />
<glyph unicode="&#x431;" horiz-adv-x="2449" d="M1217 -66Q1036 -66 891 -28T633 88T439 279T306 544T230 883T205 1294Q205 1613 235 1853T325 2270T476 2570T688 2777T962 2913T1298 3002L2060 3154V2658L1364 2519Q1280 2501 1211 2482T1084 2433T983 2362T904 2257T846 2107T807 1901Q861 1944 923 1979T1058 2039T1210 2079T1380 2093Q1527 2093 1653 2057T1881 1953T2062 1789T2194 1574T2274 1313T2302 1016Q2302 853 2273 710T2185 446T2036 231T1826 70T1553 -31T1217 -66ZM1225 1638Q1157 1638 1097 1629T983 1604T880 1564T782 1511Q782 1456 782 1401T782 1290Q782 1063 805 894T881 612T1024 445T1245 389Q1333 389 1402 410T1525 470T1616 566T1678 691T1713 843T1724 1016Q1724 1103 1714 1183T1680 1332T1618 1457T1524 1554T1394 1616T1225 1638Z"  />
<glyph unicode="&#x432;" horiz-adv-x="2343" d="M336 2101H1245Q1465 2101 1625 2062T1889 1951T2043 1776T2093 1548Q2093 1465 2075 1396T2022 1271T1936 1170T1819 1094Q1912 1060 1984 1013T2105 905T2179 769T2204 602Q2204 476 2155 366T1999 175T1722 47T1311 0H336V2101ZM889 872V426H1307Q1394 426 1456 441T1557 484T1615 550T1634 635Q1634 687 1613 730T1545 805T1421 854T1233 872H889ZM889 1671V1266H1159Q1261 1266 1330 1280T1443 1322T1505 1390T1524 1483Q1524 1524 1507 1558T1452 1618T1357 1657T1217 1671H889Z"  />
<glyph unicode="&#x433;" horiz-adv-x="1835" d="M336 2101H1794V1634H897V0H336V2101Z"  />
<glyph unicode="&#x434;" horiz-adv-x="2732" d="M41 467H135Q233 467 305 516T431 677T518 968T566 1348T585 1740T590 2083V2101H2253V467H2650V-606H2130V0H561V-606H41V467ZM1106 1634V1611Q1106 1507 1100 1364T1077 1079T1033 831T974 655T904 542T819 467H1692V1634H1106Z"  />
<glyph unicode="&#x435;" horiz-adv-x="2224" d="M1950 86Q1878 52 1799 25T1629 -21T1433 -50T1204 -61Q1032 -61 888 -27T629 74T426 236T281 454T194 724T164 1040Q164 1193 186 1336T255 1604T378 1832T558 2010T802 2126T1114 2167Q1293 2167 1433 2125T1680 2008T1860 1831T1980 1608T2047 1355T2068 1085Q2068 1067 2067 1041T2065 987T2061 933T2056 889H725Q732 783 766 697T865 549T1030 455T1270 422Q1364 422 1456 429T1636 450T1802 484T1950 528V86ZM1507 1286Q1499 1389 1472 1471T1395 1610T1276 1698T1114 1729Q1022 1729 953 1699T837 1611T764 1471T729 1286H1507Z"  />
<glyph unicode="&#x436;" horiz-adv-x="3330" d="M1384 844H1307Q1259 844 1233 841T1188 826T1153 789T1110 721L684 0H16L528 844Q547 875 570 905T623 964T689 1016T770 1057Q733 1072 704 1094T649 1143T603 1201T561 1266L49 2101H655L1073 1389Q1099 1344 1121 1320T1168 1285T1226 1272T1307 1270H1384V2101H1946V1270H2023Q2071 1270 2103 1272T2161 1285T2209 1320T2257 1389L2675 2101H3281L2769 1266Q2748 1232 2726 1201T2679 1143T2624 1094T2556 1057Q2601 1040 2637 1016T2703 964T2757 906T2802 844L3314 0H2646L2220 721Q2194 764 2178 788T2143 825T2098 841T2023 844H1946V0H1384V844Z"  />
<glyph unicode="&#x437;" horiz-adv-x="1995" d="M913 -61Q792 -61 686 -53T487 -28T312 13T156 70V500Q234 474 310 454T467 421T641 400T844 393Q964 393 1045 412T1177 464T1248 538T1270 627Q1270 661 1261 692T1233 749T1184 798T1113 835T1016 859T893 868H483V1270H844Q934 1270 998 1288T1104 1340T1165 1418T1184 1516Q1184 1557 1164 1594T1103 1659T997 1703T844 1720Q753 1720 669 1713T507 1693T357 1661T217 1618V2032Q262 2052 310 2070T410 2102T519 2128T636 2147T763 2159T901 2163Q1116 2163 1276 2122T1542 2004T1700 1819T1753 1577Q1753 1491 1734 1420T1678 1290T1584 1186T1454 1106Q1546 1071 1618 1019T1739 899T1813 747T1839 565Q1839 480 1814 401T1737 252T1608 125T1428 26T1197 -38T913 -61Z"  />
<glyph unicode="&#x438;" horiz-adv-x="2695" d="M336 2101H881V1098Q881 1050 878 995T870 881T858 759T844 635Q875 699 907 762T974 883T1042 996T1110 1098L1827 2101H2359V0H1815V1004Q1815 1051 1817 1107T1823 1223T1833 1346T1847 1470Q1818 1405 1786 1342T1721 1220T1653 1106T1585 1004L877 0H336V2101Z"  />
<glyph unicode="&#x439;" horiz-adv-x="2695" d="M336 2101H881V1098Q881 1050 878 995T870 881T858 759T844 635Q875 699 907 762T974 883T1042 996T1110 1098L1827 2101H2359V0H1815V1004Q1815 1051 1817 1107T1823 1223T1833 1346T1847 1470Q1818 1405 1786 1342T1721 1220T1653 1106T1585 1004L877 0H336V2101ZM2043 3056Q2037 2919 1990 2798T1856 2585T1642 2441T1347 2388Q1179 2388 1052 2441T837 2585T704 2797T651 3056H1003Q1007 3000 1030 2947T1096 2851T1201 2783T1347 2757Q1430 2757 1491 2783T1595 2852T1659 2948T1687 3056H2043Z"  />
<glyph unicode="&#x43A;" horiz-adv-x="2388" d="M336 2101H897V1270H991Q1039 1270 1071 1272T1128 1286T1177 1322T1229 1389L1708 2101H2331L1757 1266Q1736 1234 1713 1203T1661 1145T1601 1095T1528 1057Q1574 1039 1613 1014T1685 961T1744 903T1790 844L2363 0H1696L1208 721Q1181 762 1162 786T1120 823T1069 840T991 844H897V0H336V2101Z"  />
<glyph unicode="&#x43B;" horiz-adv-x="2621" d="M356 -33Q312 -33 271 -30T193 -19T124 -4T66 16V463Q109 450 150 446T229 442Q295 442 343 470T430 573T498 800T542 1189T561 1653T565 2066V2101H2286V0H1724V1634H1098V1624Q1098 1467 1085 1215T1043 783T974 468T876 242T758 100T634 20T502 -20T356 -33Z"  />
<glyph unicode="&#x43C;" horiz-adv-x="3125" d="M336 2101H934L1438 1262Q1456 1233 1473 1204T1505 1144T1535 1082T1561 1016Q1573 1051 1588 1083T1619 1145T1653 1204T1688 1262L2195 2101H2789V0H2253V856Q2253 931 2256 1011T2264 1174T2275 1337T2290 1495Q2267 1438 2240 1379T2183 1260T2119 1137T2048 1012L1729 463H1389L1069 1012Q1032 1075 999 1137T935 1259T877 1379T827 1495Q836 1417 844 1336T857 1173T865 1011T868 856V0H336V2101Z"  />
<glyph unicode="&#x43D;" horiz-adv-x="2634" d="M1737 848H897V0H336V2101H897V1315H1737V2101H2298V0H1737V848Z"  />
<glyph unicode="&#x43E;" horiz-adv-x="2433" d="M1217 -66Q1029 -66 878 -29T610 79T410 248T273 472T194 741T168 1049Q168 1212 194 1358T276 1628T417 1852T618 2022T884 2129T1217 2167Q1405 2167 1556 2130T1823 2022T2023 1853T2160 1630T2239 1361T2265 1053Q2265 890 2239 744T2157 473T2016 249T1815 79T1549 -28T1217 -66ZM1217 389Q1349 389 1439 441T1584 584T1664 795T1688 1053Q1688 1189 1664 1309T1585 1519T1439 1660T1217 1712Q1085 1712 995 1660T849 1517T769 1306T745 1049Q745 912 769 792T848 583T994 441T1217 389Z"  />
<glyph unicode="&#x43F;" horiz-adv-x="2585" d="M1688 1634H897V0H336V2101H2249V0H1688V1634Z"  />
<glyph unicode="&#x440;" horiz-adv-x="2552" d="M336 -934V2101H823L868 1925Q917 1980 979 2025T1117 2101T1284 2150T1483 2167Q1693 2167 1859 2093T2141 1878T2318 1529T2380 1057Q2380 797 2314 590T2123 236T1818 12T1409 -66Q1331 -66 1261 -57T1127 -29T1006 17T897 82V-934H336ZM897 512Q940 486 988 467T1089 435T1200 416T1323 410Q1449 410 1540 459T1690 593T1778 794T1806 1044Q1806 1178 1777 1296T1689 1502T1537 1641T1319 1692Q1254 1692 1197 1686T1087 1666T987 1633T897 1585V512Z"  />
<glyph unicode="&#x441;" horiz-adv-x="1913" d="M1782 57Q1723 30 1648 8T1485 -29T1302 -53T1106 -61Q879 -61 704 16T410 238T230 586T168 1044Q168 1223 195 1375T278 1652T415 1872T605 2032T849 2130T1147 2163Q1227 2163 1316 2155T1489 2133T1646 2098T1765 2052V1593Q1710 1613 1650 1628T1524 1654T1386 1670T1233 1675Q1107 1675 1015 1629T861 1502T771 1307T741 1061Q741 927 771 811T862 608T1017 472T1237 422Q1318 422 1392 427T1535 443T1664 469T1782 504V57Z"  />
<glyph unicode="&#x442;" horiz-adv-x="1962" d="M41 2101H1921V1634H1262V0H700V1634H41V2101Z"  />
<glyph unicode="&#x443;" horiz-adv-x="2150" d="M0 -471Q46 -480 92 -483T188 -487Q262 -487 326 -480T446 -455T550 -406T640 -326T718 -211T786 -53L795 -33L16 2101H627L1008 860Q1026 795 1046 711T1081 537Q1100 626 1121 710T1163 860L1565 2101H2134L1380 -20Q1319 -191 1251 -327T1104 -567T933 -746T732 -867T494 -936T213 -958Q185 -958 156 -956T98 -950T44 -941T0 -930V-471Z"  />
<glyph unicode="&#x444;" horiz-adv-x="3584" d="M1511 -934V78Q1465 38 1415 11T1310 -34T1195 -58T1069 -66Q928 -66 807 -31T588 71T413 236T285 458T207 733T180 1057Q180 1322 236 1529T399 1877T657 2093T999 2167Q1090 2167 1166 2153T1306 2113T1420 2048T1511 1962V3105H2073V1962Q2113 2010 2164 2048T2278 2112T2417 2153T2585 2167Q2775 2167 2927 2093T3185 1878T3347 1529T3404 1057Q3404 884 3378 734T3299 459T3171 236T2997 71T2777 -31T2515 -66Q2447 -66 2387 -59T2271 -34T2167 10T2073 78V-934H1511ZM1159 410Q1214 410 1263 416T1356 434T1438 466T1511 512V1585Q1477 1613 1440 1633T1360 1666T1271 1685T1171 1692Q1062 1692 983 1641T852 1502T775 1296T750 1044Q750 910 773 795T847 594T974 459T1159 410ZM2425 410Q2533 410 2610 459T2737 593T2810 794T2834 1044Q2834 1178 2809 1296T2732 1502T2601 1641T2413 1692Q2360 1692 2313 1686T2224 1666T2145 1633T2073 1585V512Q2107 486 2145 467T2227 435T2320 416T2425 410Z"  />
<glyph unicode="&#x445;" horiz-adv-x="2183" d="M1511 0L1085 692L655 0H20L774 1065L41 2101H696L1102 1450L1511 2101H2146L1405 1069L2163 0H1511Z"  />
<glyph unicode="&#x446;" horiz-adv-x="2703" d="M336 2101H897V467H1663V2101H2224V467H2621V-606H2101V0H336V2101Z"  />
<glyph unicode="&#x447;" horiz-adv-x="2466" d="M1569 692Q1517 675 1460 662T1342 638T1218 623T1090 618Q927 618 796 645T564 723T391 845T271 1006T202 1198T180 1417V2101H741V1434Q741 1346 766 1275T844 1154T981 1076T1184 1049Q1238 1049 1288 1051T1387 1057T1480 1067T1569 1081V2101H2130V0H1569V692Z"  />
<glyph unicode="&#x448;" horiz-adv-x="3822" d="M336 2101H897V467H1630V2101H2191V467H2925V2101H3486V0H336V2101Z"  />
<glyph unicode="&#x449;" horiz-adv-x="3965" d="M336 2101H897V467H1630V2101H2191V467H2925V2101H3486V467H3883V-606H3363V0H336V2101Z"  />
<glyph unicode="&#x44A;" horiz-adv-x="2642" d="M41 2101H1212V1393H1618Q1768 1393 1894 1376T2123 1322T2302 1229T2431 1097T2509 925T2535 709Q2535 591 2508 493T2426 316T2290 178T2103 80T1867 20T1581 0H651V1634H41V2101ZM1212 971V426H1520Q1634 426 1717 442T1854 492T1935 577T1962 700Q1962 774 1938 825T1864 909T1741 956T1569 971H1212Z"  />
<glyph unicode="&#x44B;" horiz-adv-x="3400" d="M336 2101H897V1393H1303Q1453 1393 1579 1376T1808 1322T1987 1229T2116 1097T2194 925T2220 709Q2220 591 2193 493T2110 316T1975 178T1788 80T1551 20T1266 0H336V2101ZM2503 2101H3064V0H2503V2101ZM897 971V426H1204Q1318 426 1401 442T1539 492T1620 577T1647 700Q1647 774 1623 825T1549 909T1426 956T1253 971H897Z"  />
<glyph unicode="&#x44C;" horiz-adv-x="2327" d="M336 2101H897V1393H1303Q1453 1393 1579 1376T1808 1322T1987 1229T2116 1097T2194 925T2220 709Q2220 591 2193 493T2110 316T1975 178T1788 80T1551 20T1266 0H336V2101ZM897 971V426H1204Q1318 426 1401 442T1539 492T1620 577T1647 700Q1647 774 1623 825T1549 909T1426 956T1253 971H897Z"  />
<glyph unicode="&#x44D;" horiz-adv-x="1978" d="M389 1278H1233Q1221 1369 1181 1444T1078 1574T931 1658T745 1688Q661 1688 588 1684T450 1669T327 1645T213 1610V2052Q244 2068 287 2083T380 2110T488 2132T603 2149T720 2159T831 2163Q1074 2163 1257 2089T1563 1873T1748 1522T1810 1044Q1810 791 1745 587T1557 238T1254 17T848 -61Q748 -61 656 -53T481 -30T327 8T197 57V492Q252 472 313 457T443 431T585 415T741 410Q844 410 930 441T1080 528T1184 664T1237 840H389V1278Z"  />
<glyph unicode="&#x44E;" horiz-adv-x="3662" d="M336 2101H897V1315H1413Q1432 1442 1472 1554T1575 1761T1722 1931T1915 2059T2155 2139T2445 2167Q2634 2167 2785 2130T3052 2022T3252 1853T3389 1630T3468 1361T3494 1053Q3494 890 3467 744T3385 473T3244 249T3043 79T2777 -28T2445 -66Q2276 -66 2137 -36T1888 50T1693 188T1550 370T1455 592T1405 848H897V0H336V2101ZM2445 389Q2533 389 2602 413T2724 480T2812 584T2872 718T2905 877T2916 1053Q2916 1144 2906 1228T2872 1385T2813 1519T2724 1622T2603 1688T2445 1712Q2313 1712 2223 1660T2078 1517T1998 1306T1974 1049Q1974 912 1998 792T2077 583T2223 441T2445 389Z"  />
<glyph unicode="&#x44F;" horiz-adv-x="2396" d="M1507 754H1393Q1350 754 1320 747T1266 725T1219 683T1167 618L684 0H33L614 737Q648 781 680 811T754 860Q649 888 557 943T395 1073T286 1240T246 1434Q246 1603 307 1728T487 1936T783 2060T1192 2101H2060V0H1507V754ZM815 1425Q815 1354 844 1303T928 1218T1060 1168T1233 1151H1507V1675H1237Q1143 1675 1066 1662T933 1618T846 1541T815 1425Z"  />
<glyph unicode="&#x450;" horiz-adv-x="2224" d="M1950 86Q1878 52 1799 25T1629 -21T1433 -50T1204 -61Q1032 -61 888 -27T629 74T426 236T281 454T194 724T164 1040Q164 1193 186 1336T255 1604T378 1832T558 2010T802 2126T1114 2167Q1293 2167 1433 2125T1680 2008T1860 1831T1980 1608T2047 1355T2068 1085Q2068 1067 2067 1041T2065 987T2061 933T2056 889H725Q732 783 766 697T865 549T1030 455T1270 422Q1364 422 1456 429T1636 450T1802 484T1950 528V86ZM1507 1286Q1499 1389 1472 1471T1395 1610T1276 1698T1114 1729Q1022 1729 953 1699T837 1611T764 1471T729 1286H1507ZM972 2408L366 3056H1013L1398 2408H972Z"  />
<glyph unicode="&#x451;" horiz-adv-x="2224" d="M1950 86Q1878 52 1799 25T1629 -21T1433 -50T1204 -61Q1032 -61 888 -27T629 74T426 236T281 454T194 724T164 1040Q164 1193 186 1336T255 1604T378 1832T558 2010T802 2126T1114 2167Q1293 2167 1433 2125T1680 2008T1860 1831T1980 1608T2047 1355T2068 1085Q2068 1067 2067 1041T2065 987T2061 933T2056 889H725Q732 783 766 697T865 549T1030 455T1270 422Q1364 422 1456 429T1636 450T1802 484T1950 528V86ZM1507 1286Q1499 1389 1472 1471T1395 1610T1276 1698T1114 1729Q1022 1729 953 1699T837 1611T764 1471T729 1286H1507ZM438 2482V2982H975V2482H438ZM1253 2482V2982H1790V2482H1253Z"  />
<glyph unicode="&#x452;" horiz-adv-x="2568" d="M1483 2126Q1623 2126 1742 2092T1958 1988T2129 1813T2253 1567T2329 1247T2355 852Q2355 577 2324 355T2235 -40T2092 -337T1901 -542T1669 -661T1401 -700Q1372 -700 1340 -697T1276 -690T1217 -679T1171 -664V-229Q1186 -232 1204 -235T1243 -241T1289 -244T1343 -246Q1410 -246 1468 -223T1575 -149T1662 -14T1727 190T1768 472T1782 840Q1782 969 1771 1079T1737 1279T1677 1439T1589 1555T1470 1627T1319 1651Q1254 1651 1197 1645T1087 1625T987 1592T897 1544V0H336V2429H90V2871H336V3105H897V2871H1266V2429H897V1913Q946 1962 1006 2001T1139 2068T1297 2111T1483 2126Z"  />
<glyph unicode="&#x453;" horiz-adv-x="1835" d="M336 2101H1794V1634H897V0H336V2101ZM803 2408L1188 3056H1835L1229 2408H803Z"  />
<glyph unicode="&#x454;" horiz-adv-x="1946" d="M1106 -61Q879 -61 704 16T410 238T230 586T168 1044Q168 1313 230 1521T415 1872T721 2089T1147 2163Q1200 2163 1258 2160T1374 2149T1490 2132T1597 2110T1691 2083T1765 2052V1606Q1710 1626 1650 1641T1524 1666T1386 1682T1233 1688Q1133 1688 1050 1659T905 1575T803 1446T750 1278H1602V840H754Q768 743 807 664T908 529T1053 441T1237 410Q1318 410 1392 415T1535 430T1664 456T1782 492V57Q1723 30 1648 8T1485 -29T1302 -53T1106 -61Z"  />
<glyph unicode="&#x455;" horiz-adv-x="1991" d="M188 524Q224 508 273 493T380 464T501 439T629 419T757 406T877 401Q970 401 1044 411T1169 445T1247 505T1274 594Q1274 648 1251 684T1179 748T1051 799T864 848Q690 889 566 945T363 1081T246 1268T209 1516Q209 1660 259 1779T417 1984T692 2116T1094 2163Q1155 2163 1219 2159T1347 2145T1471 2124T1584 2096T1680 2062T1753 2023V1573Q1716 1590 1668 1606T1563 1636T1447 1662T1325 1682T1205 1695T1094 1700Q1026 1700 970 1690T872 1657T809 1600T786 1516Q786 1462 809 1427T881 1365T1007 1318T1192 1270Q1364 1228 1488 1172T1693 1037T1812 852T1851 602Q1851 459 1791 338T1613 128T1319 -11T913 -61Q807 -61 699 -51T493 -22T316 21T188 74V524Z"  />
<glyph unicode="&#x456;" horiz-adv-x="1233" d="M336 0V2101H897V0H336ZM336 2417V2966H897V2417H336Z"  />
<glyph unicode="&#x457;" horiz-adv-x="1233" d="M336 0V2101H897V0H336ZM-60 2482V2982H477V2482H-60ZM755 2482V2982H1292V2482H755Z"  />
<glyph unicode="&#x458;" horiz-adv-x="1233" d="M-274 -471Q-243 -477 -202 -482T-102 -487Q-2 -487 79 -456T217 -357T305 -180T336 82V2101H897V86Q897 -187 830 -384T640 -709T342 -897T-45 -958Q-74 -958 -106 -955T-170 -948T-228 -937T-274 -922V-471ZM336 2417V2966H897V2417H336Z"  />
<glyph unicode="&#x459;" horiz-adv-x="3781" d="M1724 1634H1098V1624Q1098 1467 1085 1215T1043 783T974 468T876 242T758 100T634 20T502 -20T356 -33Q312 -33 271 -30T193 -19T124 -4T66 16V463Q109 450 150 446T229 442Q295 442 343 470T430 573T498 800T542 1189T561 1653T565 2066V2101H2286V1393H2691Q2841 1393 2968 1376T3197 1322T3376 1229T3505 1097T3583 925T3609 709Q3609 591 3581 493T3499 316T3364 178T3177 80T2940 20T2654 0H1724V1634ZM2286 971V426H2593Q2707 426 2790 442T2927 492T3008 577T3035 700Q3035 774 3011 825T2937 909T2814 956T2642 971H2286Z"  />
<glyph unicode="&#x45A;" horiz-adv-x="3793" d="M336 2101H897V1315H1737V2101H2298V1393H2703Q2853 1393 2980 1376T3209 1322T3388 1229T3517 1097T3595 925T3621 709Q3621 591 3593 493T3511 316T3376 178T3189 80T2952 20T2666 0H1737V848H897V0H336V2101ZM2298 971V426H2605Q2719 426 2802 442T2939 492T3020 577T3047 700Q3047 774 3023 825T2949 909T2826 956T2654 971H2298Z"  />
<glyph unicode="&#x45B;" horiz-adv-x="2568" d="M1720 0V1303Q1720 1400 1696 1470T1623 1587T1502 1656T1335 1679Q1270 1679 1211 1672T1096 1650T992 1614T897 1565V0H336V2429H90V2871H336V3105H897V2871H1266V2429H897V1958Q958 2010 1026 2049T1172 2114T1336 2154T1524 2167Q1657 2167 1765 2142T1957 2068T2102 1950T2203 1792T2262 1600T2281 1376V0H1720Z"  />
<glyph unicode="&#x45C;" horiz-adv-x="2388" d="M336 2101H897V1270H991Q1039 1270 1071 1272T1128 1286T1177 1322T1229 1389L1708 2101H2331L1757 1266Q1736 1234 1713 1203T1661 1145T1601 1095T1528 1057Q1574 1039 1613 1014T1685 961T1744 903T1790 844L2363 0H1696L1208 721Q1181 762 1162 786T1120 823T1069 840T991 844H897V0H336V2101ZM1020 2408L1405 3056H2052L1446 2408H1020Z"  />
<glyph unicode="&#x45D;" horiz-adv-x="2695" d="M336 2101H881V1098Q881 1050 878 995T870 881T858 759T844 635Q875 699 907 762T974 883T1042 996T1110 1098L1827 2101H2359V0H1815V1004Q1815 1051 1817 1107T1823 1223T1833 1346T1847 1470Q1818 1405 1786 1342T1721 1220T1653 1106T1585 1004L877 0H336V2101ZM1204 2408L598 3056H1245L1630 2408H1204Z"  />
<glyph unicode="&#x45E;" horiz-adv-x="2150" d="M0 -471Q46 -480 92 -483T188 -487Q262 -487 326 -480T446 -455T550 -406T640 -326T718 -211T786 -53L795 -33L16 2101H627L1008 860Q1026 795 1046 711T1081 537Q1100 626 1121 710T1163 860L1565 2101H2134L1380 -20Q1319 -191 1251 -327T1104 -567T933 -746T732 -867T494 -936T213 -958Q185 -958 156 -956T98 -950T44 -941T0 -930V-471ZM1761 3056Q1755 2919 1708 2798T1574 2585T1360 2441T1065 2388Q897 2388 770 2441T555 2585T422 2797T369 3056H721Q725 3000 748 2947T814 2851T919 2783T1065 2757Q1148 2757 1209 2783T1313 2852T1377 2948T1405 3056H1761Z"  />
<glyph unicode="&#x45F;" horiz-adv-x="2560" d="M336 2101H897V467H1663V2101H2224V0H1540V-606H1020V0H336V2101Z"  />
<glyph unicode="&#x472;" horiz-adv-x="3056" d="M1528 -66Q1270 -66 1074 -10T733 147T492 390T337 704T254 1074T229 1483Q229 1695 256 1892T344 2261T503 2575T746 2818T1084 2975T1528 3031Q1786 3031 1982 2975T2323 2818T2564 2575T2719 2261T2801 1892T2826 1483Q2826 1271 2799 1074T2712 705T2552 391T2309 148T1971 -10T1528 -66ZM1528 422Q1694 422 1819 477T2031 638T2167 897T2228 1245H827Q839 1050 888 897T1024 639T1236 478T1528 422ZM1528 2544Q1417 2544 1324 2519T1156 2445T1022 2326T923 2163T858 1960T827 1720H2228Q2220 1849 2195 1960T2129 2163T2030 2325T1897 2445T1730 2519T1528 2544Z"  />
<glyph unicode="&#x473;" horiz-adv-x="2433" d="M1217 -66Q1029 -66 878 -29T610 79T410 248T273 472T194 741T168 1049Q168 1212 194 1358T276 1628T417 1852T618 2022T884 2129T1217 2167Q1405 2167 1556 2130T1823 2022T2023 1853T2160 1630T2239 1361T2265 1053Q2265 890 2239 744T2157 473T2016 249T1815 79T1549 -28T1217 -66ZM1217 1712Q1108 1712 1025 1678T882 1582T788 1436T741 1253H1688Q1677 1352 1643 1436T1549 1581T1407 1677T1217 1712ZM1217 389Q1326 389 1409 424T1550 522T1643 670T1688 856H741Q753 756 787 671T880 523T1022 425T1217 389Z"  />
<glyph unicode="&#x490;" horiz-adv-x="2257" d="M369 2966H1663V3609H2183V2490H946V0H369V2966Z"  />
<glyph unicode="&#x491;" horiz-adv-x="1917" d="M336 2101H1356V2707H1876V1634H897V0H336V2101Z"  />
</font>
</defs>
</svg>
